<?xml version="1.0" standalone="no"?>
<!DOCTYPE svg PUBLIC "-//W3C//DTD SVG 20010904//EN"
 "http://www.w3.org/TR/2001/REC-SVG-20010904/DTD/svg10.dtd">
<svg version="1.0" xmlns="http://www.w3.org/2000/svg"
 width="700.000000pt" height="700.000000pt" viewBox="0 0 700.000000 700.000000"
 preserveAspectRatio="xMidYMid meet">
<metadata>
Created by potrace 1.11, written by Peter Selinger 2001-2013
</metadata>
<g transform="translate(0.000000,700.000000) scale(0.100000,-0.100000)"
fill="#000000" stroke="none">
<path d="M3220 6946 c-3 -3 -25 -6 -48 -7 -24 -2 -47 -8 -52 -14 -17 -20 -59
-185 -65 -253 -10 -113 -7 -108 -72 -117 -32 -4 -65 -8 -75 -10 -11 -2 -21 11
-34 44 -23 60 -73 145 -125 212 -23 30 -43 55 -44 57 -4 5 -99 -20 -111 -30
-19 -14 -28 -92 -29 -237 l-1 -134 -68 -24 c-38 -12 -70 -22 -71 -20 -1 1 -19
29 -40 62 -41 65 -181 215 -200 215 -22 0 -103 -40 -107 -52 -13 -37 5 -230
27 -306 17 -56 18 -62 5 -62 -5 0 -32 -13 -60 -30 -50 -29 -80 -38 -80 -22 -1
22 -148 156 -227 206 l-43 26 -49 -32 c-46 -31 -49 -35 -44 -68 11 -80 36
-180 64 -249 16 -41 28 -76 26 -78 -17 -16 -112 -83 -119 -83 -5 0 -21 12 -36
26 -70 66 -261 172 -285 157 -8 -4 -29 -20 -47 -36 -28 -24 -31 -32 -26 -62
11 -56 66 -185 107 -250 l38 -60 -52 -56 -52 -55 -30 19 c-55 35 -169 85 -244
107 -70 21 -74 21 -86 3 -7 -10 -25 -31 -39 -48 l-25 -29 41 -76 c39 -73 89
-144 142 -204 l26 -29 -22 -31 c-69 -98 -67 -97 -100 -80 -59 30 -239 74 -305
74 -20 0 -63 -50 -79 -93 -8 -23 120 -177 206 -249 l42 -35 -33 -67 c-28 -54
-38 -66 -54 -62 -11 2 -31 7 -45 10 -59 13 -79 16 -160 17 -155 3 -145 6 -171
-58 l-23 -57 72 -67 c40 -37 99 -85 132 -106 32 -21 65 -42 74 -48 14 -9 13
-18 -6 -80 l-21 -70 -106 1 c-58 0 -141 -6 -184 -14 -85 -16 -89 -19 -101 -97
-7 -43 -11 -39 103 -115 41 -27 105 -62 143 -77 l69 -27 -6 -50 c-13 -106 -13
-106 -53 -107 -76 -1 -202 -29 -292 -65 -34 -14 -35 -16 -38 -73 -3 -57 -2
-59 30 -78 58 -34 189 -84 252 -97 l61 -13 0 -77 0 -78 -85 -25 c-84 -24 -263
-110 -255 -123 2 -3 5 -27 6 -53 2 -26 5 -51 8 -55 14 -20 221 -70 304 -74 62
-2 61 -2 72 -73 3 -22 8 -50 11 -62 3 -16 -2 -23 -18 -28 -65 -20 -222 -113
-276 -165 -13 -12 -21 -29 -18 -38 3 -9 10 -35 15 -58 6 -22 17 -41 23 -41 7
0 27 -4 43 -8 17 -4 95 -8 174 -9 l144 -3 23 -64 c13 -35 24 -66 24 -69 0 -3
-25 -20 -55 -38 -68 -41 -225 -188 -224 -211 0 -9 10 -36 22 -61 l22 -45 107
3 c65 2 138 10 184 22 43 11 78 20 79 20 0 0 16 -31 35 -70 l34 -69 -29 -23
c-57 -45 -132 -130 -189 -215 l-27 -41 33 -51 c36 -55 27 -53 148 -30 81 16
142 34 188 58 23 12 45 21 49 21 9 0 80 -91 89 -113 2 -7 -14 -34 -37 -61 -43
-53 -103 -153 -134 -224 l-18 -43 42 -43 43 -44 76 28 c78 27 172 72 228 109
l30 21 54 -55 c51 -52 54 -57 40 -78 -58 -91 -136 -291 -124 -319 3 -7 24 -27
48 -45 l43 -31 74 40 c73 41 147 92 203 142 l28 25 47 -31 c80 -54 82 -57 67
-87 -24 -46 -47 -124 -62 -206 -22 -124 -21 -126 37 -158 l50 -28 62 45 c58
41 153 131 194 184 l19 24 68 -34 c61 -30 67 -35 62 -58 -25 -109 -31 -180
-27 -306 1 -41 2 -42 57 -64 l55 -23 45 44 c50 48 154 180 154 195 0 5 8 19
18 31 l17 22 71 -20 70 -21 -2 -97 c-1 -53 5 -137 13 -188 l16 -91 36 -7 c96
-19 80 -28 161 94 27 41 62 105 77 143 l27 69 50 -6 c109 -13 106 -11 106 -65
0 -53 41 -221 68 -277 16 -36 19 -37 75 -41 l58 -3 44 94 c25 52 54 129 64
172 11 42 21 78 23 80 2 2 34 5 72 6 80 3 75 8 106 -101 22 -75 108 -253 119
-246 3 2 26 5 51 7 25 1 50 7 57 11 6 5 19 35 28 66 10 31 21 70 26 86 5 16
12 61 15 100 9 117 6 112 71 121 32 4 65 8 75 10 11 2 21 -11 34 -44 31 -81
155 -270 177 -271 26 0 114 32 114 43 1 6 7 50 13 97 6 47 10 125 8 174 l-3
89 50 17 c100 34 90 36 123 -23 37 -65 188 -227 211 -226 9 0 36 10 61 22 l45
22 -1 60 c-2 119 -8 171 -26 239 -10 38 -17 69 -16 70 2 2 33 18 70 36 l67 34
23 -29 c42 -55 172 -165 245 -209 7 -4 34 8 62 26 48 32 50 34 45 73 -10 73
-44 197 -71 257 l-27 60 25 19 c13 10 41 31 61 45 l38 27 36 -29 c74 -59 111
-83 191 -123 45 -23 84 -41 88 -41 4 0 27 17 50 39 l41 38 -26 79 c-33 98 -65
167 -102 218 l-29 40 58 58 c31 32 60 54 63 49 21 -34 301 -148 332 -136 7 3
27 25 45 48 l32 42 -41 75 c-44 82 -92 151 -138 200 l-30 32 44 62 c25 33 48
60 53 59 4 -2 44 -16 88 -31 83 -30 234 -58 259 -49 8 3 27 27 42 52 l27 46
-34 47 c-55 77 -108 134 -193 204 l-28 24 32 64 c18 36 33 66 35 68 1 1 29 -4
61 -11 64 -15 182 -23 280 -18 29 1 34 6 55 58 l23 57 -72 67 c-40 37 -99 85
-132 106 -32 21 -65 43 -74 48 -14 9 -13 18 6 81 l21 72 79 -6 c50 -3 117 2
187 13 l109 17 12 60 c6 33 10 61 8 62 -111 85 -212 144 -281 166 l-39 12 7
52 c13 105 11 102 63 105 62 3 161 25 247 56 l70 25 3 60 3 59 -78 39 c-82 42
-195 80 -244 84 l-30 2 3 80 3 81 50 11 c66 16 118 35 196 74 93 47 96 50 89
112 -4 45 -9 55 -33 66 -49 23 -218 62 -278 63 l-58 2 -10 46 c-25 109 -25
107 36 130 52 20 191 107 241 150 21 18 22 23 12 63 -6 24 -12 49 -12 56 -1 7
-12 15 -25 17 -12 3 -35 8 -50 12 -16 3 -91 7 -167 8 l-140 2 -23 68 c-19 56
-21 71 -10 77 96 53 268 206 266 237 0 9 -10 36 -22 61 l-22 45 -70 -1 c-92
-1 -178 -11 -245 -29 -30 -8 -55 -13 -56 -12 -1 1 -15 29 -33 62 -32 61 -38
85 -22 85 17 0 137 129 185 199 l48 69 -34 50 c-31 48 -35 51 -68 46 -92 -13
-222 -49 -278 -78 -17 -9 -35 -16 -39 -16 -9 0 -80 91 -89 114 -3 8 10 31 29
51 37 41 112 163 142 232 l18 43 -41 44 -41 44 -78 -28 c-75 -26 -163 -69
-229 -110 l-30 -20 -54 55 -55 55 18 28 c58 90 133 286 121 315 -3 7 -24 26
-47 43 l-42 31 -75 -39 c-72 -38 -142 -87 -204 -142 l-29 -26 -59 42 c-32 23
-61 44 -63 47 -2 4 4 22 14 41 34 70 54 153 67 270 l6 55 -52 28 c-28 15 -56
24 -63 21 -60 -36 -190 -154 -244 -223 l-19 -23 -65 32 c-35 18 -66 34 -68 36
-2 2 1 23 8 48 17 68 21 104 22 186 2 145 6 135 -58 161 l-57 23 -67 -72 c-58
-62 -85 -98 -154 -206 -9 -14 -17 -14 -80 5 l-70 21 -1 111 c-1 113 -10 204
-25 244 -6 15 -22 24 -59 32 -28 6 -55 11 -60 11 -20 0 -138 -199 -171 -288
-12 -33 -13 -34 -58 -27 -118 16 -111 12 -111 65 0 53 -41 220 -68 278 -16 36
-19 37 -74 40 l-57 4 -35 -71 c-42 -82 -74 -170 -84 -232 l-7 -44 -74 -3 c-41
-2 -78 1 -82 5 -4 4 -10 21 -13 36 -18 103 -125 324 -146 303z m69 -1536 c-1
-173 -4 -301 -8 -285 -18 70 -130 243 -150 230 -5 -2 -26 -7 -47 -11 -50 -8
-50 -8 -59 -46 -4 -18 -9 -40 -12 -48 -14 -51 -13 -162 2 -219 9 -35 15 -64
13 -65 -7 -5 -172 -65 -173 -63 -45 102 -103 172 -190 233 l-55 37 -45 -24
c-25 -13 -45 -28 -46 -34 -9 -104 25 -235 83 -317 l19 -27 -53 -41 c-29 -23
-63 -50 -74 -60 -22 -18 -23 -17 -68 30 -49 51 -134 100 -218 125 l-52 15 -38
-37 c-44 -43 -44 -41 11 -158 27 -57 54 -96 94 -135 l57 -56 -45 -66 c-24 -37
-49 -69 -55 -73 -6 -4 -37 7 -68 23 -65 35 -162 55 -242 50 -53 -3 -55 -4 -79
-49 l-24 -46 29 -38 c53 -70 129 -135 192 -166 35 -17 62 -36 60 -42 -2 -7
-14 -47 -27 -90 -20 -65 -27 -76 -42 -72 -29 9 -114 22 -135 20 -116 -11 -211
-38 -218 -63 -3 -9 -7 -34 -10 -54 -5 -34 -2 -39 34 -66 l39 -29 -215 1 -216
0 6 61 c8 80 14 116 33 205 155 721 645 1316 1313 1597 119 50 278 102 363
119 10 2 28 6 40 10 28 9 236 41 260 40 16 0 17 -22 16 -316z m483 306 c102
-12 170 -26 319 -67 664 -184 1221 -688 1472 -1334 57 -148 118 -374 131 -495
4 -30 9 -71 12 -90 l5 -36 -350 0 -351 0 -5 35 c-4 20 -8 44 -9 53 -3 13 6 18
37 23 77 13 187 76 251 143 28 30 28 31 15 81 -12 48 -15 51 -53 59 -86 18
-200 14 -265 -9 -34 -11 -63 -19 -65 -18 -5 8 -76 160 -76 164 0 2 21 15 47
31 68 39 123 99 182 197 l23 37 -27 46 -27 46 -57 -6 c-108 -11 -170 -34 -250
-90 l-43 -31 -63 70 -63 69 45 51 c51 56 77 108 103 207 l18 67 -27 23 c-59
54 -54 53 -138 12 -75 -37 -160 -109 -194 -163 l-16 -25 -81 48 -80 47 25 55
c35 76 43 144 35 285 -2 22 -11 30 -53 48 l-51 21 -72 -74 c-68 -69 -126 -162
-126 -202 0 -21 -23 -27 -66 -15 -22 5 -58 14 -80 20 l-42 11 2 93 c0 50 -3
109 -7 129 -10 48 -52 150 -60 149 -4 -1 -10 -1 -15 -1 -6 0 -9 315 -3 342 0
4 10 5 20 3 11 -2 44 -6 73 -9z m-504 -991 c8 -22 17 -71 19 -110 l4 -70 -86
-22 c-359 -93 -662 -400 -750 -761 l-17 -68 -61 1 c-34 0 -85 8 -113 18 l-51
18 12 54 c23 96 64 208 111 300 175 344 487 584 879 678 31 7 36 4 53 -38z
m552 19 c218 -59 410 -172 575 -338 164 -165 283 -371 331 -571 16 -67 23
-100 21 -101 -1 -1 -24 -11 -52 -21 -63 -23 -167 -25 -171 -3 -71 382 -379
708 -769 815 l-80 22 -1 59 c0 34 8 80 19 111 22 59 13 57 127 27z m-2208
-1441 c-6 -2 -10 -8 -8 -12 3 -4 6 -28 7 -53 l3 -47 55 -19 c31 -11 76 -23
101 -27 25 -4 52 -9 60 -10 8 -2 47 2 85 9 l70 11 26 -90 26 -90 -60 -25 c-65
-27 -157 -102 -202 -163 l-28 -39 23 -49 23 -49 67 0 c95 0 177 17 238 50 l53
28 49 -73 c28 -41 50 -78 50 -83 0 -4 -18 -21 -40 -38 -22 -16 -56 -53 -76
-82 -36 -54 -84 -153 -84 -175 0 -7 15 -29 33 -50 l32 -37 51 14 c83 22 177
72 226 120 l46 46 68 -56 c38 -31 70 -60 72 -63 1 -4 -10 -25 -26 -47 -44 -61
-67 -133 -78 -241 l-6 -61 47 -27 46 -28 36 19 c58 31 157 128 187 185 16 30
30 55 32 57 2 4 156 -58 166 -67 4 -3 -1 -35 -11 -71 -19 -69 -19 -122 -1
-230 l11 -67 56 -13 c55 -12 56 -12 80 16 71 84 116 171 127 246 6 42 25 66
40 51 3 -4 6 -161 6 -350 l0 -343 -22 0 c-13 0 -68 7 -123 15 -319 48 -627
167 -903 352 -150 100 -216 155 -352 292 -312 316 -525 723 -604 1156 -3 17
-8 40 -10 52 -3 12 -8 54 -12 93 l-7 70 184 -1 c101 0 178 -3 171 -6z m834
-30 c9 -49 60 -196 86 -248 133 -262 394 -476 671 -547 l87 -23 0 -60 c0 -60
-28 -157 -46 -156 -35 3 -91 17 -169 43 -324 108 -592 341 -746 647 -44 89
-96 240 -105 305 -6 41 -4 46 12 46 11 1 30 7 44 15 15 8 53 14 92 15 l67 0 7
-37z m2246 20 c24 -9 46 -19 50 -22 4 -4 -2 -42 -13 -86 -103 -415 -409 -752
-812 -894 -49 -17 -114 -37 -146 -44 l-58 -14 -18 51 c-10 28 -19 78 -19 111
l-1 59 80 22 c138 37 225 78 345 162 206 145 352 365 420 630 l11 42 59 0 c33
0 79 -7 102 -17z m1014 -15 c-3 -18 -8 -55 -11 -83 -4 -27 -8 -57 -10 -65 -3
-8 -7 -33 -11 -55 -15 -98 -85 -333 -127 -425 -11 -25 -33 -74 -49 -109 -15
-35 -54 -107 -85 -160 -301 -514 -766 -872 -1343 -1034 -30 -9 -67 -18 -83
-21 -15 -2 -35 -7 -45 -10 -40 -12 -195 -36 -238 -36 l-30 0 1 193 c0 126 4
202 12 222 22 53 40 149 36 190 -10 97 -15 88 62 106 111 27 111 27 131 -37
19 -61 77 -145 142 -208 l40 -39 51 18 c28 11 52 26 54 36 3 9 5 59 5 109 1
74 -4 105 -24 159 -32 86 -31 82 -14 92 52 30 139 79 143 79 2 0 18 -21 36
-47 35 -52 127 -125 203 -162 l47 -24 40 33 c46 36 48 48 26 133 -21 80 -51
139 -96 191 l-39 44 64 68 c45 47 68 64 77 58 8 -4 33 -22 56 -40 49 -38 147
-73 223 -80 l55 -5 29 42 29 42 -28 51 c-45 82 -106 152 -163 187 -38 23 -51
36 -47 48 4 9 21 46 38 84 35 74 33 73 117 42 29 -11 74 -17 130 -17 72 0 151
8 156 15 0 1 9 24 18 51 l16 50 -27 29 c-68 73 -171 133 -257 152 -28 6 -29 6
-22 63 4 31 9 66 12 79 l6 23 350 0 350 0 -6 -32z"/>
</g>
</svg>
