<?xml version="1.0" encoding="utf-8"?>
<!-- Generator: Adobe Illustrator 16.0.0, SVG Export Plug-In . SVG Version: 6.00 Build 0)  -->
<!DOCTYPE svg PUBLIC "-//W3C//DTD SVG 1.1//EN" "http://www.w3.org/Graphics/SVG/1.1/DTD/svg11.dtd">
<svg version="1.1" id="Capa_1" xmlns="http://www.w3.org/2000/svg" xmlns:xlink="http://www.w3.org/1999/xlink" x="0px" y="0px"
	 width="117px" height="117px" viewBox="0 0 117 117" enable-background="new 0 0 117 117" xml:space="preserve">
<g id="exportaciones">
	<g>
		<g>
			<g>
				<path fill="#3B82FF" d="M53.989,115.811c-0.599-1.504-1.355-3.695-1.298-5.789l-0.028-0.183l-0.193-0.116l-2.756-0.396
					l-0.078,0.169c-0.574,2.094-1.844,3.908-2.912,5.279l-1.644-0.377c-0.378-1.696-0.748-3.875-0.378-5.922l0.009-0.193
					l-0.18-0.135l-2.664-0.822l-0.104,0.158c-0.872,1.955-2.418,3.559-3.698,4.756l-1.564-0.631
					c-0.107-1.866-0.115-4.01,0.553-5.908l0.031-0.184l-0.149-0.166l-2.499-1.228l-0.127,0.135c-1.153,1.777-2.939,3.13-4.4,4.123
					l-1.447-0.868c0.173-1.76,0.502-3.971,1.472-5.748l0.071-0.184l-0.132-0.182l-2.279-1.604l-0.146,0.116
					c-1.443,1.596-3.407,2.643-4.99,3.383l-1.293-1.084c0.438-1.703,1.104-3.829,2.354-5.447l0.081-0.164l-0.086-0.207l-1.995-1.938
					l-0.161,0.087c-1.676,1.348-3.78,2.074-5.463,2.561l-1.107-1.271c0.697-1.61,1.686-3.603,3.176-5.011l0.112-0.15l-0.058-0.217
					l-1.671-2.229l-0.175,0.063c-1.846,1.06-4.046,1.453-5.793,1.674l-0.895-1.429c0.951-1.488,2.247-3.309,3.921-4.453l0.13-0.131
					l-0.02-0.225l-1.299-2.459l-0.18,0.032c-1.396,0.527-2.962,0.763-5.021,0.763c-0.324,0-0.646-0.004-0.964-0.014l-0.663-1.551
					c1.157-1.314,2.71-2.903,4.569-3.786l0.153-0.108l0.012-0.224L9.224,73.75L9.04,73.753c-0.748,0.149-1.477,0.222-2.257,0.222
					c-1.399,0-2.806-0.232-3.776-0.42L2.601,71.92c1.355-1.118,3.143-2.445,5.104-3.023l0.164-0.084l0.052-0.22l-0.475-2.741
					l-0.182-0.023c-0.252,0.001-0.414,0.005-0.575,0.005c-1.869,0-3.747-0.571-5.351-1.144l-0.149-1.68
					c1.513-0.89,3.484-1.919,5.517-2.188l0.179-0.057l0.079-0.209l-0.041-2.782l-0.176-0.052c-2.089-0.222-4.03-1.152-5.675-2.051
					l0.116-1.682c1.563-0.616,3.585-1.302,5.581-1.302l0.21,0.002l0.187-0.025l0.109-0.195l0.396-2.751l-0.161-0.08
					c-2.028-0.543-3.802-1.768-5.287-2.916l0.378-1.643c1.066-0.237,2.607-0.535,4.118-0.535c0.64,0,1.246,0.053,1.803,0.157
					l0.188,0.004l0.142-0.175l0.818-2.656l-0.148-0.104c-1.949-0.875-3.56-2.423-4.765-3.705L5.388,36.5
					c0.553-0.034,1.12-0.057,1.692-0.057c1.677,0,3.056,0.2,4.215,0.613l0.182,0.028l0.171-0.147l1.226-2.5l-0.135-0.126
					c-1.838-1.212-3.222-3.068-4.122-4.402l0.867-1.446c1.607,0.15,3.896,0.472,5.748,1.472l0.177,0.059l0.188-0.121l1.605-2.275
					l-0.114-0.146c-1.598-1.442-2.644-3.407-3.385-4.992l1.084-1.293c1.702,0.438,3.826,1.104,5.447,2.352l0.166,0.089l0.204-0.093
					l1.939-1.999l-0.09-0.162c-1.335-1.649-2.067-3.765-2.562-5.46l1.271-1.107c1.604,0.697,3.593,1.685,5.015,3.176l0.15,0.116
					l0.214-0.062l2.223-1.665l-0.056-0.17c-1.075-1.889-1.462-4.075-1.677-5.805l1.43-0.893c1.47,0.931,3.273,2.21,4.454,3.921
					l0.131,0.126l0.224-0.017l2.459-1.299l-0.033-0.181c-0.776-2.059-0.804-4.375-0.748-5.985l1.553-0.661
					c1.413,1.265,2.948,2.792,3.783,4.568l0.108,0.15l0.225,0.016l2.638-0.901l-0.008-0.187c-0.442-2.096-0.135-4.302,0.195-6.023
					l1.637-0.41c1.111,1.34,2.432,3.115,3.024,5.104l0.083,0.167l0.219,0.047l2.746-0.476l0.021-0.186
					c-0.102-2.169,0.545-4.287,1.138-5.92l1.679-0.148c0.944,1.619,1.926,3.531,2.189,5.516l0.058,0.174l0.208,0.084l2.785-0.041
					l0.051-0.178c0.22-2.087,1.148-4.027,2.049-5.671l1.684,0.117c0.6,1.504,1.355,3.694,1.299,5.79l0.028,0.182l0.192,0.115
					l2.758,0.396L67.365,7.5c0.574-2.096,1.844-3.91,2.912-5.279L71.92,2.6c0.379,1.69,0.747,3.864,0.377,5.923l-0.004,0.189
					l0.176,0.138l2.665,0.821l0.103-0.158c0.869-1.947,2.418-3.554,3.699-4.756l1.564,0.63c0.105,1.869,0.113,4.016-0.555,5.909
					l-0.035,0.187l0.152,0.164l2.498,1.228l0.127-0.135c1.155-1.779,2.941-3.13,4.401-4.123l1.447,0.867
					c-0.173,1.758-0.501,3.967-1.474,5.748l-0.049,0.17l0.113,0.195l2.28,1.606l0.147-0.121c1.439-1.596,3.402-2.639,4.985-3.378
					l1.292,1.082c-0.438,1.702-1.102,3.827-2.352,5.447l-0.088,0.166l0.092,0.206l2.002,1.944l0.164-0.098
					c1.664-1.34,3.77-2.069,5.453-2.557l1.106,1.27c-0.694,1.607-1.683,3.598-3.176,5.014l-0.106,0.149l0.053,0.217l1.67,2.227
					l0.174-0.062c1.848-1.059,4.047-1.452,5.793-1.674l0.896,1.429c-0.953,1.489-2.25,3.311-3.921,4.453l-0.134,0.131l0.021,0.224
					l1.299,2.461l0.182-0.033c1.393-0.528,2.959-0.765,5.02-0.765c0.324,0,0.646,0.006,0.965,0.015l0.664,1.554
					c-1.159,1.314-2.713,2.902-4.569,3.784l-0.149,0.108l-0.015,0.224l0.899,2.638l0.188-0.009c0.741-0.149,1.47-0.221,2.247-0.221
					c1.395,0,2.803,0.232,3.777,0.418l0.408,1.637c-1.356,1.118-3.146,2.444-5.104,3.023l-0.161,0.084l-0.052,0.217l0.476,2.746
					l0.188,0.021c0.244-0.003,0.404-0.007,0.566-0.007c1.881,0,3.836,0.603,5.353,1.145l0.149,1.681
					c-1.512,0.89-3.481,1.919-5.517,2.188l-0.177,0.057l-0.083,0.209l0.041,2.779l0.175,0.053c2.096,0.226,4.034,1.154,5.676,2.053
					l-0.115,1.682c-1.561,0.616-3.58,1.303-5.584,1.303l-0.207-0.002l-0.188,0.023l-0.108,0.196l-0.395,2.755l0.166,0.079
					c2.021,0.54,3.795,1.763,5.281,2.912l-0.377,1.644c-1.067,0.237-2.608,0.534-4.117,0.534c-0.641,0-1.248-0.054-1.805-0.157
					h-0.186l-0.145,0.172l-0.821,2.668l0.159,0.102c1.945,0.869,3.554,2.417,4.757,3.697l-0.632,1.565
					c-0.555,0.035-1.123,0.058-1.696,0.058c-1.675,0-3.054-0.199-4.211-0.611l-0.183-0.03l-0.168,0.147l-1.229,2.504l0.144,0.126
					c1.813,1.192,3.145,2.958,4.116,4.396l-0.866,1.449c-1.606-0.15-3.896-0.473-5.75-1.473l-0.18-0.063l-0.184,0.125l-1.6,2.272
					l0.105,0.146c1.604,1.453,2.646,3.415,3.386,4.997l-1.083,1.293c-1.699-0.438-3.822-1.102-5.447-2.354L96.6,93.4l-0.207,0.09
					l-1.936,1.994l0.084,0.16c1.334,1.648,2.068,3.764,2.563,5.461l-1.271,1.112c-1.605-0.698-3.594-1.688-5.014-3.177l-0.146-0.104
					l-0.218,0.052l-2.222,1.663l0.056,0.171c1.071,1.878,1.459,4.067,1.676,5.803l-1.43,0.894c-1.47-0.931-3.271-2.209-4.454-3.92
					l-0.131-0.136l-0.221,0.025l-2.475,1.305l0.049,0.19c0.774,2.049,0.803,4.363,0.746,5.971l-1.553,0.661
					c-1.413-1.265-2.949-2.79-3.784-4.567l-0.108-0.144l-0.227-0.022l-2.636,0.901l0.008,0.187c0.442,2.096,0.136,4.303-0.196,6.024
					l-1.636,0.41c-1.11-1.341-2.433-3.116-3.024-5.105l-0.084-0.164l-0.219-0.051l-2.738,0.478l-0.025,0.18
					c0.102,2.174-0.547,4.293-1.139,5.927l-1.681,0.147c-0.944-1.623-1.927-3.535-2.188-5.517l-0.055-0.181l-0.209-0.079
					l-2.791,0.042l-0.047,0.186c-0.22,2.077-1.146,4.015-2.043,5.655L53.989,115.811z M20.742,61.699
					c0.124,1.418,0.32,2.806,0.584,4.126c3.252,16.308,17.09,28.688,33.649,30.11l0.271,0.022V75.75l-0.205-0.038
					c-7.116-1.302-12.762-6.961-14.049-14.081l-0.037-0.206H20.719L20.742,61.699z M75.432,61.632
					c-1.287,7.125-6.938,12.785-14.062,14.083l-0.205,0.038v20.204l0.271-0.023c1.414-0.123,2.803-0.32,4.127-0.584
					c16.31-3.254,28.691-17.092,30.111-33.65l0.023-0.271h-20.23L75.432,61.632z M61.165,41.248l0.205,0.038
					c7.096,1.293,12.741,6.927,14.051,14.019l0.038,0.205h20.236l-0.023-0.272c-0.124-1.417-0.32-2.806-0.584-4.125
					C91.834,34.803,77.996,22.42,61.438,21l-0.271-0.023L61.165,41.248L61.165,41.248z M54.976,21.003
					c-1.418,0.124-2.805,0.321-4.123,0.584c-16.309,3.252-28.691,17.09-30.112,33.65l-0.023,0.271h20.248l0.038-0.205
					c1.308-7.086,6.949-12.719,14.039-14.017l0.205-0.038v-20.27L54.976,21.003z"/>
				<path fill="#FFFFFF" d="M61.466,1.341l1.37,0.088c0.58,1.477,1.277,3.561,1.223,5.543l0.006,0.089l0.008,0.046l0.058,0.364
					l0.365,0.053l2.571,0.369l0.392,0.014l0.153-0.343l0.017-0.037l0.013-0.039c0.514-1.913,1.7-3.646,2.731-4.98l1.34,0.302
					c0.358,1.644,0.69,3.716,0.34,5.669l-0.008,0.082L72.043,8.6l-0.009,0.378l0.36,0.111l2.484,0.766l0.385,0.075l0.205-0.317
					l0.022-0.034l0.017-0.037c0.783-1.777,2.236-3.316,3.477-4.487L80.26,5.56c0.096,1.806,0.086,3.854-0.551,5.652l-0.021,0.079
					l-0.006,0.039l-0.07,0.373l0.341,0.167l2.333,1.146l0.361,0.131l0.254-0.27l0.031-0.034l0.024-0.039
					c1.04-1.621,2.722-2.918,4.135-3.888l1.181,0.7c-0.174,1.707-0.504,3.805-1.426,5.494l-0.039,0.09l-0.017,0.054l-0.097,0.341
					l0.289,0.205l2.125,1.497l0.346,0.192l0.294-0.242l0.028-0.024l0.025-0.028c1.309-1.461,3.16-2.469,4.693-3.194l1.057,0.876
					c-0.432,1.651-1.082,3.666-2.268,5.203l-0.047,0.073l-0.021,0.039l-0.174,0.331l0.269,0.26l1.864,1.811l0.312,0.245l0.33-0.196
					l0.031-0.019l0.026-0.023c1.517-1.23,3.506-1.94,5.138-2.421l0.907,1.029c-0.683,1.558-1.64,3.443-3.056,4.786l-0.061,0.067
					L98.775,26.1l-0.215,0.298l0.221,0.294l1.56,2.079l0.263,0.28l0.347-0.124l0.044-0.015l0.039-0.023
					c1.673-0.971,3.756-1.364,5.449-1.587l0.733,1.159c-0.931,1.443-2.181,3.165-3.764,4.248l-0.067,0.055l-0.029,0.03l-0.271,0.261
					l0.175,0.332l1.215,2.299l0.215,0.316l0.358-0.066l0.048-0.008l0.045-0.018c1.273-0.496,2.813-0.727,4.84-0.727
					c0.266,0,0.528,0.004,0.791,0.01l0.545,1.261c-1.131,1.272-2.623,2.769-4.383,3.605l-0.078,0.045l-0.035,0.027l-0.301,0.216
					l0.119,0.351l0.84,2.46l0.164,0.353l0.375-0.017l0.043-0.002l0.041-0.009c0.639-0.139,1.349-0.209,2.108-0.209
					c1.297,0,2.61,0.205,3.565,0.383l0.338,1.331c-1.321,1.08-3.034,2.326-4.895,2.875l-0.084,0.034l-0.045,0.023l-0.32,0.169
					l0.062,0.358l0.442,2.561l0.108,0.375l0.374,0.042l0.041,0.004l0.041-0.002c0.156-0.008,0.313-0.013,0.467-0.013
					c1.779,0,3.637,0.554,5.11,1.074l0.128,1.366c-1.471,0.858-3.354,1.82-5.283,2.075l-0.087,0.02l-0.042,0.013l-0.354,0.113
					l0.004,0.371l0.039,2.598l0.047,0.378l0.35,0.105l0.047,0.015l0.049,0.005c1.904,0.193,3.756,1.061,5.344,1.919l-0.088,1.368
					c-1.518,0.593-3.443,1.229-5.346,1.229l-0.199-0.002l-0.084,0.004l-0.037,0.006l-0.377,0.049l-0.055,0.376l-0.367,2.573
					l-0.013,0.383l0.333,0.158l0.042,0.021l0.046,0.013c1.84,0.479,3.537,1.627,4.975,2.729l-0.299,1.339
					c-1.047,0.229-2.496,0.494-3.91,0.494c-0.625,0-1.217-0.053-1.758-0.153l-0.09-0.008h-0.046h-0.368l-0.109,0.353l-0.766,2.485
					l-0.076,0.386l0.32,0.205l0.031,0.021l0.035,0.016c1.777,0.786,3.316,2.239,4.49,3.477l-0.508,1.277
					c-0.554,0.032-1.054,0.049-1.522,0.049c-1.646,0-2.996-0.196-4.128-0.599l-0.084-0.022l-0.045-0.006l-0.365-0.061l-0.164,0.333
					l-1.145,2.332l-0.137,0.372l0.286,0.252l0.026,0.023l0.031,0.021c1.658,1.083,2.939,2.746,3.89,4.137l-0.699,1.183
					c-1.573-0.153-3.743-0.48-5.498-1.428l-0.073-0.033l-0.037-0.014l-0.356-0.125l-0.218,0.309l-1.496,2.127l-0.182,0.326
					l0.213,0.291l0.029,0.041l0.038,0.035c1.463,1.31,2.474,3.16,3.196,4.693l-0.877,1.059c-1.649-0.433-3.663-1.084-5.202-2.269
					l-0.074-0.047l-0.038-0.021l-0.33-0.174l-0.261,0.268L94.4,95.182l-0.23,0.299l0.169,0.32l0.022,0.045l0.033,0.039
					c1.217,1.485,1.934,3.486,2.42,5.131l-1.03,0.91c-1.558-0.686-3.439-1.645-4.785-3.057l-0.069-0.063l-0.043-0.029l-0.296-0.205
					l-0.289,0.216l-2.077,1.558l-0.272,0.256l0.11,0.34l0.017,0.051l0.026,0.045c0.981,1.695,1.371,3.77,1.588,5.451l-1.16,0.734
					c-1.424-0.91-3.127-2.145-4.249-3.768l-0.052-0.064l-0.029-0.029l-0.262-0.271l-0.332,0.175l-2.299,1.213l-0.336,0.227
					l0.096,0.381l0.007,0.029l0.011,0.027c0.715,1.871,0.764,4.058,0.717,5.633l-1.261,0.545c-1.36-1.228-2.813-2.693-3.606-4.381
					l-0.049-0.082l-0.031-0.043l-0.219-0.287l-0.342,0.117l-2.459,0.84l-0.354,0.164l0.018,0.375l0.002,0.041l0.008,0.041
					c0.412,1.906,0.141,4.002-0.173,5.675l-1.33,0.341c-1.073-1.307-2.313-3.008-2.876-4.895l-0.033-0.084l-0.021-0.041
					l-0.168-0.328l-0.363,0.063l-2.56,0.445l-0.364,0.104l-0.052,0.361l-0.006,0.047l0.002,0.048c0.104,1.976-0.49,3.992-1.06,5.581
					l-1.366,0.127c-0.906-1.57-1.828-3.402-2.076-5.285l-0.019-0.082l-0.012-0.039l-0.108-0.361l-0.377,0.005l-2.6,0.039
					l-0.393,0.048l-0.095,0.37l-0.009,0.037l-0.004,0.036c-0.193,1.901-1.061,3.754-1.92,5.343l-1.372-0.087
					c-0.58-1.477-1.276-3.563-1.222-5.543l-0.006-0.09l-0.007-0.045l-0.058-0.365l-0.365-0.053l-2.572-0.369l-0.387-0.014
					l-0.156,0.338l-0.019,0.039l-0.011,0.041c-0.514,1.909-1.701,3.645-2.731,4.979l-1.34-0.302
					c-0.36-1.648-0.692-3.727-0.342-5.668l0.008-0.078l0.001-0.033l0.018-0.387L44.6,107.91l-2.484-0.768l-0.385-0.074l-0.205,0.316
					l-0.022,0.034l-0.017,0.037c-0.786,1.786-2.238,3.321-3.475,4.487l-1.275-0.506c-0.098-1.803-0.088-3.849,0.548-5.651
					l0.021-0.082l0.008-0.042l0.061-0.367l-0.333-0.164l-2.333-1.146l-0.361-0.131l-0.254,0.27l-0.031,0.033l-0.024,0.039
					c-1.038,1.619-2.72,2.918-4.134,3.889l-1.182-0.7c0.175-1.708,0.508-3.809,1.426-5.495l0.031-0.068l0.012-0.029l0.143-0.365
					l-0.32-0.226l-2.127-1.497l-0.34-0.189l-0.293,0.232l-0.033,0.025l-0.027,0.033c-1.307,1.459-3.16,2.469-4.693,3.195
					l-1.058-0.877c0.433-1.652,1.085-3.668,2.269-5.203l0.049-0.078l0.022-0.043l0.163-0.328l-0.262-0.255l-1.865-1.81l-0.301-0.234
					l-0.322,0.173l-0.041,0.022l-0.037,0.029c-1.516,1.232-3.504,1.941-5.136,2.422l-0.907-1.03
					c0.685-1.562,1.643-3.447,3.055-4.784l0.059-0.064l0.025-0.033l0.225-0.301l-0.225-0.299l-1.561-2.08l-0.262-0.283l-0.35,0.127
					l-0.041,0.015l-0.039,0.022c-1.673,0.973-3.756,1.365-5.451,1.586L9.78,88.538c0.93-1.442,2.179-3.162,3.765-4.247l0.07-0.059
					l0.032-0.032l0.261-0.261l-0.172-0.326l-1.215-2.299L12.308,81l-0.359,0.064L11.9,81.073l-0.045,0.018
					c-1.275,0.495-2.813,0.726-4.842,0.726c-0.264,0-0.527-0.002-0.789-0.01l-0.544-1.26c1.13-1.271,2.621-2.77,4.385-3.607
					l0.074-0.043l0.035-0.023l0.307-0.216l-0.121-0.355l-0.84-2.46l-0.162-0.346l-0.365,0.008l-0.049,0.001l-0.047,0.011
					c-0.641,0.139-1.352,0.209-2.113,0.209c-1.301,0-2.611-0.205-3.563-0.384l-0.338-1.329c1.32-1.08,3.033-2.326,4.893-2.876
					l0.085-0.034l0.042-0.021l0.327-0.167l-0.063-0.363l-0.443-2.56l-0.105-0.368l-0.365-0.048l-0.047-0.007L7.16,65.572
					c-0.156,0.008-0.313,0.013-0.47,0.013c-1.771,0-3.56-0.526-5.107-1.073l-0.128-1.367c1.474-0.857,3.358-1.819,5.285-2.076
					l0.083-0.018l0.04-0.013l0.357-0.11l-0.005-0.375l-0.038-2.599l-0.049-0.381L6.774,57.47l-0.045-0.013l-0.047-0.005
					c-1.897-0.19-3.751-1.058-5.342-1.918l0.088-1.369c1.521-0.592,3.448-1.226,5.341-1.226l0.203,0.002l0.084-0.005l0.039-0.005
					l0.374-0.051l0.054-0.374l0.369-2.572l0.012-0.376l-0.322-0.162l-0.047-0.023L7.484,49.36c-1.841-0.48-3.538-1.63-4.974-2.732
					l0.3-1.338c1.046-0.229,2.494-0.495,3.909-0.495c0.625,0,1.215,0.051,1.757,0.153l0.085,0.008l0.041,0.001l0.377,0.008
					l0.111-0.361l0.766-2.482l0.071-0.373L9.629,41.54l-0.04-0.028l-0.046-0.02c-1.771-0.782-3.313-2.236-4.488-3.476l0.508-1.277
					c0.55-0.032,1.049-0.047,1.518-0.047c1.648,0,2.999,0.196,4.131,0.599l0.088,0.022l0.047,0.007l0.364,0.057l0.161-0.331
					l1.145-2.334l0.133-0.361l-0.271-0.253l-0.032-0.03l-0.037-0.024c-1.676-1.093-3.002-2.834-3.891-4.137l0.7-1.182
					c1.574,0.154,3.742,0.481,5.495,1.428l0.079,0.034l0.041,0.014l0.353,0.118l0.215-0.304l1.498-2.124l0.186-0.338l-0.228-0.292
					l-0.028-0.036l-0.033-0.03c-1.459-1.302-2.469-3.156-3.195-4.691l0.877-1.058c1.652,0.433,3.666,1.084,5.203,2.268l0.07,0.045
					l0.037,0.02l0.332,0.179l0.264-0.271l1.811-1.865l0.236-0.303l-0.179-0.324l-0.022-0.04l-0.028-0.035
					c-1.221-1.492-1.935-3.492-2.421-5.135l1.029-0.906c1.557,0.684,3.438,1.641,4.787,3.056l0.061,0.054l0.031,0.023l0.301,0.232
					l0.304-0.228l2.079-1.558l0.272-0.256l-0.11-0.34l-0.017-0.05l-0.026-0.046c-0.986-1.705-1.373-3.775-1.589-5.452l1.159-0.733
					c1.424,0.91,3.129,2.144,4.25,3.767l0.059,0.071l0.035,0.034l0.262,0.253l0.32-0.17l2.297-1.213l0.318-0.213l-0.068-0.362
					l-0.008-0.045l-0.017-0.042c-0.714-1.866-0.763-4.056-0.717-5.634l1.261-0.544c1.361,1.227,2.813,2.695,3.605,4.381l0.045,0.078
					l0.027,0.038l0.217,0.3l0.35-0.12l2.461-0.84l0.354-0.164l-0.018-0.375l-0.002-0.042l-0.008-0.041
					c-0.412-1.907-0.141-4.002,0.172-5.674l1.332-0.34c1.073,1.307,2.314,3.007,2.875,4.894l0.032,0.081l0.02,0.039l0.167,0.333
					l0.365-0.063l2.563-0.444l0.373-0.107l0.043-0.373l0.004-0.041L51.428,7.16c-0.103-1.99,0.527-4.09,1.061-5.579l1.364-0.127
					c0.906,1.568,1.827,3.398,2.077,5.285l0.021,0.088l0.015,0.045l0.115,0.347l0.367-0.005l2.598-0.038L59.43,7.13l0.104-0.357
					l0.012-0.043l0.004-0.044C59.736,4.784,60.604,2.93,61.466,1.341 M75.251,55.759h0.416h19.756h0.546l-0.048-0.543
					c-0.125-1.427-0.323-2.824-0.588-4.152c-3.274-16.417-17.205-28.882-33.875-30.312l-0.543-0.047v0.545v19.79v0.417l0.41,0.075
					c6.993,1.275,12.56,6.829,13.851,13.819L75.251,55.759 M20.444,55.759h0.545h19.768h0.416l0.075-0.409
					c1.289-6.985,6.851-12.538,13.839-13.817l0.41-0.075v-0.417V21.252v-0.546l-0.544,0.048c-1.426,0.125-2.822,0.323-4.149,0.588
					c-16.417,3.274-28.882,17.203-30.313,33.874L20.444,55.759 M60.915,96.229l0.544-0.047c1.422-0.123,2.818-0.322,4.152-0.588
					c16.418-3.275,28.883-17.205,30.313-33.874l0.047-0.543h-0.545H75.678h-0.419l-0.073,0.411
					c-1.27,7.023-6.84,12.602-13.859,13.881l-0.41,0.075v0.417v19.723L60.915,96.229 M55.497,96.23v-0.545V75.959v-0.417
					l-0.41-0.075c-7.015-1.283-12.579-6.861-13.848-13.879l-0.074-0.411h-0.418H20.991h-0.546l0.048,0.544
					c0.125,1.426,0.323,2.824,0.588,4.152c3.274,16.416,17.203,28.88,33.873,30.311L55.497,96.23 M61.27,0.828l-0.104,0.021
					C60.193,2.613,59.253,4.6,59.05,6.634l-0.012,0.041l-2.599,0.038l-0.014-0.041c-0.27-2.03-1.266-3.979-2.286-5.72l-0.104-0.019
					l-1.824,0.171l-0.097,0.037c-0.693,1.893-1.292,4.004-1.187,6.044l-0.005,0.043L48.36,7.672l-0.02-0.039
					c-0.582-1.956-1.863-3.745-3.152-5.291L45.084,2.34l-1.776,0.454L43.22,2.847c-0.385,1.975-0.655,4.16-0.225,6.155l0.002,0.043
					l-2.461,0.84L40.511,9.85c-0.869-1.85-2.44-3.398-3.94-4.734l-0.105,0.016l-1.682,0.726l-0.082,0.065
					c-0.075,2.014,0.01,4.208,0.74,6.116l0.008,0.042l-2.297,1.213l-0.031-0.03c-1.16-1.681-2.929-2.985-4.635-4.059l-0.099,0.03
					l-1.549,0.979l-0.069,0.078c0.242,2,0.664,4.154,1.688,5.924l0.014,0.042l-2.079,1.558l-0.034-0.026
					c-1.41-1.479-3.361-2.486-5.213-3.284l-0.094,0.046l-1.375,1.21l-0.058,0.089c0.557,1.932,1.301,4.006,2.595,5.587l0.021,0.037
					l-1.811,1.865l-0.038-0.021c-1.616-1.245-3.715-1.933-5.661-2.428l-0.085,0.06l-1.17,1.41l-0.044,0.096
					c0.847,1.824,1.915,3.754,3.437,5.112l0.027,0.035l-1.498,2.124l-0.041-0.014c-1.795-0.97-3.965-1.332-5.97-1.513l-0.076,0.073
					L8.37,29.85l-0.027,0.101c1.125,1.676,2.48,3.396,4.193,4.513l0.031,0.029l-1.145,2.334l-0.044-0.007
					c-1.348-0.479-2.838-0.627-4.299-0.627c-0.621,0-1.237,0.026-1.835,0.066l-0.063,0.084l-0.677,1.703L4.493,38.15
					c1.375,1.471,2.979,2.975,4.849,3.8l0.036,0.025l-0.766,2.482l-0.045-0.001c-0.604-0.113-1.224-0.161-1.849-0.161
					c-1.45,0-2.928,0.259-4.297,0.568l-0.05,0.093L1.97,46.743l0.005,0.104c1.587,1.233,3.407,2.48,5.383,2.995l0.039,0.02
					l-0.369,2.572L6.985,52.44c-0.072-0.002-0.144-0.002-0.216-0.002c-1.975,0-3.982,0.647-5.79,1.366l-0.035,0.099l-0.117,1.829
					l0.021,0.103c1.766,0.971,3.751,1.911,5.784,2.115l0.043,0.013l0.038,2.6l-0.041,0.013c-2.025,0.269-3.988,1.26-5.721,2.286
					l-0.018,0.103l0.17,1.825l0.037,0.1c1.741,0.625,3.661,1.197,5.547,1.197c0.166,0,0.333-0.004,0.498-0.014l0.044,0.006
					l0.443,2.561l-0.04,0.021c-1.958,0.577-3.743,1.868-5.291,3.151l-0.002,0.104l0.453,1.776l0.053,0.09
					c1.261,0.246,2.608,0.445,3.937,0.445c0.752,0,1.498-0.063,2.22-0.22l0.043-0.001l0.84,2.46L9.85,76.489
					c-1.841,0.874-3.41,2.431-4.732,3.94l0.013,0.104l0.728,1.681l0.063,0.083c0.36,0.011,0.726,0.019,1.093,0.019
					c1.697,0,3.457-0.151,5.022-0.76l0.044-0.008l1.214,2.299l-0.031,0.03c-1.686,1.153-2.98,2.935-4.059,4.633l0.031,0.101
					l0.979,1.548l0.077,0.069c1.999-0.248,4.157-0.66,5.925-1.688l0.04-0.016l1.56,2.08l-0.026,0.035
					c-1.482,1.401-2.49,3.363-3.284,5.211l0.046,0.094l1.211,1.377l0.086,0.057c1.936-0.554,4.003-1.304,5.588-2.593l0.038-0.021
					l1.864,1.81l-0.02,0.038c-1.246,1.615-1.934,3.715-2.429,5.662l0.06,0.084l1.41,1.17l0.098,0.044
					c1.823-0.849,3.75-1.916,5.111-3.438l0.033-0.026l2.127,1.498l-0.016,0.039c-0.978,1.793-1.322,3.97-1.513,5.973l0.073,0.074
					l1.576,0.936l0.102,0.027c1.665-1.127,3.409-2.475,4.511-4.193l0.029-0.031l2.333,1.146l-0.007,0.041
					c-0.681,1.932-0.681,4.121-0.56,6.136l0.084,0.063l1.703,0.676l0.104,0.012c1.473-1.37,2.978-2.979,3.801-4.848l0.023-0.036
					l2.484,0.767l-0.002,0.045c-0.363,2.012-0.037,4.178,0.408,6.146l0.092,0.05l1.787,0.4l0.105-0.004
					c1.243-1.586,2.465-3.408,2.995-5.383l0.019-0.039l2.572,0.369l0.007,0.043c-0.056,2.037,0.613,4.143,1.362,6.006l0.1,0.035
					l1.829,0.116l0.103-0.021c0.971-1.766,1.911-3.752,2.117-5.785l0.011-0.042l2.599-0.039l0.014,0.042
					c0.269,2.029,1.266,3.979,2.285,5.72l0.104,0.019l1.824-0.17l0.098-0.037c0.693-1.895,1.292-4.004,1.186-6.045l0.007-0.043
					l2.56-0.444l0.021,0.04c0.582,1.956,1.863,3.744,3.152,5.291l0.104,0.003l1.775-0.455l0.092-0.054
					c0.385-1.974,0.656-4.157,0.225-6.153l-0.002-0.043l2.459-0.84l0.027,0.036c0.869,1.848,2.439,3.396,3.939,4.731l0.104-0.015
					l1.682-0.727l0.082-0.064c0.076-2.016-0.01-4.207-0.739-6.115l-0.011-0.043l2.3-1.213l0.029,0.029
					c1.161,1.682,2.932,2.986,4.635,4.06l0.1-0.03l1.55-0.979l0.069-0.077c-0.244-2-0.664-4.154-1.688-5.924l-0.015-0.042
					l2.078-1.558l0.035,0.024c1.41,1.479,3.361,2.485,5.211,3.285l0.096-0.047l1.373-1.212l0.062-0.086
					c-0.558-1.933-1.301-4.008-2.596-5.586l-0.021-0.039l1.81-1.864l0.038,0.021c1.617,1.244,3.714,1.934,5.66,2.428l0.086-0.06
					l1.17-1.411l0.043-0.096c-0.846-1.822-1.916-3.752-3.436-5.111l-0.025-0.033l1.496-2.127l0.039,0.015
					c1.797,0.971,3.967,1.333,5.974,1.514l0.075-0.071l0.934-1.578l0.027-0.101c-1.125-1.674-2.479-3.396-4.19-4.513l-0.032-0.029
					l1.146-2.332l0.042,0.008c1.347,0.479,2.835,0.627,4.295,0.627c0.622,0,1.24-0.027,1.84-0.066l0.063-0.085l0.677-1.702
					l0.011-0.105c-1.374-1.471-2.979-2.973-4.848-3.8l-0.035-0.021l0.766-2.484h0.045c0.604,0.113,1.225,0.162,1.85,0.162
					c1.451,0,2.93-0.259,4.298-0.567l0.049-0.093l0.399-1.789l-0.004-0.104c-1.586-1.232-3.405-2.48-5.383-2.995l-0.039-0.02
					l0.367-2.572l0.045-0.006c0.071,0,0.143,0.002,0.213,0.002c1.976,0,3.987-0.646,5.793-1.367l0.035-0.098l0.117-1.828
					l-0.021-0.104c-1.764-0.972-3.75-1.91-5.784-2.116l-0.042-0.013l-0.038-2.598l0.043-0.014c2.022-0.268,3.985-1.258,5.719-2.285
					l0.019-0.104l-0.17-1.824l-0.037-0.099c-1.743-0.627-3.664-1.199-5.551-1.199c-0.164,0-0.33,0.004-0.494,0.014l-0.043-0.005
					l-0.443-2.561l0.037-0.02c1.961-0.579,3.744-1.868,5.293-3.152l0.001-0.104l-0.452-1.775l-0.053-0.092
					c-1.264-0.245-2.61-0.446-3.94-0.446c-0.75,0-1.495,0.064-2.216,0.22l-0.043,0.002l-0.84-2.46l0.035-0.025
					c1.842-0.875,3.41-2.431,4.733-3.941l-0.016-0.104l-0.728-1.682l-0.063-0.083c-0.36-0.011-0.729-0.019-1.098-0.019
					c-1.694,0-3.455,0.151-5.021,0.761l-0.043,0.008l-1.214-2.299l0.031-0.031c1.687-1.153,2.979-2.936,4.059-4.632l-0.029-0.102
					l-0.979-1.547l-0.077-0.071c-2,0.249-4.156,0.661-5.924,1.688l-0.041,0.015l-1.559-2.079l0.024-0.035
					c1.479-1.403,2.49-3.364,3.283-5.211l-0.043-0.094l-1.212-1.376l-0.088-0.058c-1.936,0.556-4.002,1.306-5.588,2.594
					l-0.037,0.021l-1.864-1.811l0.021-0.039c1.245-1.614,1.934-3.714,2.428-5.661l-0.061-0.085l-1.41-1.17l-0.095-0.042
					c-1.823,0.846-3.752,1.914-5.112,3.435l-0.033,0.027l-2.125-1.497l0.012-0.041c0.979-1.793,1.324-3.969,1.514-5.972
					l-0.072-0.074L87.15,8.369L87.05,8.341c-1.667,1.127-3.409,2.476-4.513,4.193l-0.03,0.032l-2.333-1.146l0.008-0.042
					c0.684-1.931,0.682-4.121,0.563-6.134L80.659,5.18l-1.702-0.675l-0.104-0.012c-1.472,1.371-2.979,2.979-3.802,4.847
					l-0.022,0.036L72.545,8.61l0.001-0.044c0.362-2.014,0.04-4.178-0.407-6.146l-0.092-0.049l-1.79-0.401l-0.104,0.006
					c-1.244,1.586-2.465,3.408-2.996,5.383l-0.018,0.039l-2.572-0.369l-0.008-0.043c0.057-2.038-0.613-4.145-1.363-6.007
					l-0.098-0.034L61.27,0.828L61.27,0.828z M75.667,55.259c-1.333-7.223-7.022-12.902-14.252-14.22V21.25
					c16.14,1.384,30.101,13.228,33.428,29.911c0.273,1.37,0.462,2.737,0.58,4.098H75.667L75.667,55.259z M20.989,55.259
					C22.374,39.12,34.218,25.16,50.901,21.833c1.369-0.273,2.736-0.461,4.096-0.58v19.789c-7.221,1.322-12.908,6.999-14.24,14.218
					L20.989,55.259L20.989,55.259z M95.426,61.677c-1.384,16.138-13.229,30.099-29.912,33.427c-1.369,0.273-2.736,0.461-4.099,0.58
					V75.961c7.25-1.32,12.951-7.031,14.263-14.284H95.426L95.426,61.677z M54.997,95.686c-16.138-1.385-30.099-13.228-33.426-29.91
					c-0.273-1.37-0.461-2.737-0.58-4.099h19.756c1.311,7.25,7.009,12.957,14.25,14.282V95.686L54.997,95.686z"/>
			</g>
		</g>
		<g>
			<g display="none" opacity="0.5">
				
					<line display="inline" fill="none" stroke="#FFFFFF" stroke-width="0.5" stroke-miterlimit="10" x1="66.333" y1="56.938" x2="50.154" y2="60.164"/>
				
					<line display="inline" fill="none" stroke="#FFFFFF" stroke-width="0.5" stroke-miterlimit="10" x1="59.855" y1="66.639" x2="56.63" y2="50.462"/>
			</g>
			<g display="none">
				<g display="inline">
					<polyline fill="#3B82FF" stroke="#FFFFFF" stroke-width="0.5" stroke-miterlimit="10" points="41.588,48.248 41.272,48.773 
						40.974,49.303 40.695,49.847 40.436,50.404 					"/>
					
						<line fill="none" stroke="#FFFFFF" stroke-width="0.5" stroke-miterlimit="10" x1="42.057" y1="49.886" x2="39.899" y2="48.727"/>
					<polyline fill="#3B82FF" stroke="#FFFFFF" stroke-width="0.5" stroke-miterlimit="10" points="40.548,47.595 40.747,48.465 
						40.974,49.303 41.246,50.124 41.547,50.914 					"/>
					<polyline fill="#3B82FF" stroke="#FFFFFF" stroke-width="0.5" stroke-miterlimit="10" points="42.632,48.888 41.804,49.079 
						40.974,49.303 40.145,49.579 39.315,49.895 					"/>
					<polyline fill="#3B82FF" stroke="#FFFFFF" stroke-width="0.5" stroke-miterlimit="10" points="41.267,46.52 41.165,45.624 
						41.573,45.096 41.999,44.582 42.899,44.496 43.353,44.91 43.391,45.776 44.248,45.732 44.7,46.146 44.791,46.977 44.43,47.403 
						44.088,47.841 43.265,47.929 					"/>
					
						<line fill="none" stroke="#FFFFFF" stroke-width="0.5" stroke-miterlimit="10" x1="43.005" y1="46.249" x2="43.391" y2="45.776"/>
					<polyline fill="#3B82FF" stroke="#FFFFFF" stroke-width="0.5" stroke-miterlimit="10" points="48.248,39.602 49.964,42.85 
						49.017,42.316 48.037,41.831 47.024,41.393 45.962,41 48.065,44.003 					"/>
					<polyline fill="#3B82FF" stroke="#FFFFFF" stroke-width="0.5" stroke-miterlimit="10" points="52.315,39.245 51.716,39.44 
						51.118,39.651 50.532,39.885 49.952,40.136 					"/>
					<polyline fill="#3B82FF" stroke="#FFFFFF" stroke-width="0.5" stroke-miterlimit="10" points="52.674,40.409 52.106,40.598 
						51.548,40.793 51.001,41.012 50.452,41.249 					"/>
					<polyline fill="#3B82FF" stroke="#FFFFFF" stroke-width="0.5" stroke-miterlimit="10" points="56.289,40.908 55.738,40.975 
						55.185,41.069 54.642,41.169 54.104,41.293 53.813,40.098 54.273,39.367 54.875,39.255 55.479,39.161 56.013,38.474 
						55.95,37.864 55.216,37.345 54.557,37.452 53.899,37.575 53.391,38.315 					"/>
					<polyline fill="#3B82FF" stroke="#FFFFFF" stroke-width="0.5" stroke-miterlimit="10" points="57.243,37.765 57.884,37.133 
						57.95,40.804 					"/>
					<polyline fill="#3B82FF" stroke="#FFFFFF" stroke-width="0.5" stroke-miterlimit="10" points="58.505,40.802 57.95,40.804 
						57.39,40.823 					"/>
					<polyline fill="#3B82FF" stroke="#FFFFFF" stroke-width="0.5" stroke-miterlimit="10" points="62.771,39.498 63.363,39.649 
						63.952,39.818 64.536,40.002 65.329,39.635 65.542,39.062 65.122,38.262 64.484,38.063 63.843,37.871 63.193,37.706 
						62.343,41.282 					"/>
					
						<line fill="none" stroke="#FFFFFF" stroke-width="0.5" stroke-miterlimit="10" x1="65.491" y1="42.353" x2="66.493" y2="40.117"/>
					<line fill="none" stroke="#FFFFFF" stroke-width="0.5" stroke-miterlimit="10" x1="66.741" y1="39.555" x2="66.995" y2="39"/>
					<polyline fill="#3B82FF" stroke="#FFFFFF" stroke-width="0.5" stroke-miterlimit="10" points="68.734,43.48 67.928,43.675 
						67.771,42.857 69.361,40.245 					"/>
					<polyline fill="#3B82FF" stroke="#FFFFFF" stroke-width="0.5" stroke-miterlimit="10" points="69.782,41.976 69.268,41.625 
						68.729,41.287 68.186,40.965 67.628,40.665 					"/>
					<polyline fill="#3B82FF" stroke="#FFFFFF" stroke-width="0.5" stroke-miterlimit="10" points="70.921,46.131 70.534,45.738 
						70.122,45.366 69.704,44.996 69.657,44.171 70.415,43.212 71.292,43.13 71.762,43.542 72.225,43.971 72.675,44.419 					"/>
					<polyline fill="#3B82FF" stroke="#FFFFFF" stroke-width="0.5" stroke-miterlimit="10" points="72.602,46.15 73.454,46.215 
						74.327,46.327 74.695,46.833 74.548,47.696 73.02,48.716 					"/>
					
						<line fill="none" stroke="#FFFFFF" stroke-width="0.5" stroke-miterlimit="10" x1="71.673" y1="46.949" x2="74.458" y2="44.542"/>
					<polyline fill="#3B82FF" stroke="#FFFFFF" stroke-width="0.5" stroke-miterlimit="10" points="74.798,52.154 74.995,52.669 
						75.167,53.199 75.322,53.731 76.064,54.122 78.438,53.53 78.857,52.732 78.671,52.088 78.46,51.457 78.229,50.831 					"/>
					
						<line fill="none" stroke="#FFFFFF" stroke-width="0.5" stroke-miterlimit="10" x1="78.46" y1="51.457" x2="74.995" y2="52.669"/>
					<polyline fill="#3B82FF" stroke="#FFFFFF" stroke-width="0.5" stroke-miterlimit="10" points="78.413,57.414 78.361,56.784 
						78.298,56.157 78.214,55.536 78.113,54.907 					"/>
					<polyline fill="#3B82FF" stroke="#FFFFFF" stroke-width="0.5" stroke-miterlimit="10" points="77.188,57.481 77.146,56.892 
						77.081,56.308 77.007,55.716 76.904,55.131 					"/>
					<polyline fill="#3B82FF" stroke="#FFFFFF" stroke-width="0.5" stroke-miterlimit="10" points="76.516,60.382 75.954,59.771 
						75.98,59.219 76.602,58.666 79.053,58.682 79.648,59.354 79.613,60.023 78.954,60.628 76.516,60.382 					"/>
					
						<line fill="none" stroke="#FFFFFF" stroke-width="0.5" stroke-miterlimit="10" x1="76.363" y1="61.523" x2="75.766" y2="61.423"/>
					<polyline fill="#3B82FF" stroke="#FFFFFF" stroke-width="0.5" stroke-miterlimit="10" points="79.13,63.326 78.966,63.98 
						78.782,64.623 78.591,65.268 78.363,65.9 76.846,64.689 75.262,63.584 					"/>
					<polyline fill="#3B82FF" stroke="#FFFFFF" stroke-width="0.5" stroke-miterlimit="10" points="74.747,69.104 74.411,69.607 
						74.057,70.107 73.686,70.602 73.771,71.468 74.245,71.861 75.137,71.725 75.534,71.191 75.921,70.645 76.29,70.091 
						73.193,68.109 					"/>
					<polyline fill="#3B82FF" stroke="#FFFFFF" stroke-width="0.5" stroke-miterlimit="10" points="71.093,74.139 71.57,73.723 
						72.044,73.301 72.495,72.867 72.934,72.41 					"/>
					<polyline fill="#3B82FF" stroke="#FFFFFF" stroke-width="0.5" stroke-miterlimit="10" points="70.314,73.193 70.768,72.807 
						71.21,72.408 71.632,71.996 72.044,71.568 					"/>
					<polyline fill="#3B82FF" stroke="#FFFFFF" stroke-width="0.5" stroke-miterlimit="10" points="70.452,75.402 70.266,76.281 
						69.71,76.652 69.132,77.002 68.257,76.791 67.966,76.259 68.2,75.414 67.372,75.184 67.079,74.645 67.264,73.834 
						67.745,73.544 68.204,73.244 69.014,73.417 					"/>
					
						<line fill="none" stroke="#FFFFFF" stroke-width="0.5" stroke-miterlimit="10" x1="68.729" y1="75.098" x2="68.2" y2="75.414"/>
					<polyline fill="#3B82FF" stroke="#FFFFFF" stroke-width="0.5" stroke-miterlimit="10" points="64.466,75.831 64.779,75.053 
						65.294,74.842 66.059,75.168 67.098,77.383 66.747,78.209 66.126,78.468 65.292,78.13 64.466,75.831 					"/>
					<polyline fill="#3B82FF" stroke="#FFFFFF" stroke-width="0.5" stroke-miterlimit="10" points="60.723,77.982 60.113,78.044 
						59.509,78.098 58.893,78.128 58.284,78.746 58.289,79.359 58.957,79.965 59.623,79.934 60.294,79.876 60.959,79.801 
						60.493,76.161 					"/>
					<polyline fill="#3B82FF" stroke="#FFFFFF" stroke-width="0.5" stroke-miterlimit="10" points="57.167,76.268 57.101,77.493 
						56.394,78.668 55.612,79.816 55.141,78.505 54.746,77.198 54.97,76 					"/>
					<polyline fill="#3B82FF" stroke="#FFFFFF" stroke-width="0.5" stroke-miterlimit="10" points="57.101,77.493 56.503,77.443 
						55.919,77.383 55.33,77.3 54.746,77.198 					"/>
					<polyline fill="#3B82FF" stroke="#FFFFFF" stroke-width="0.5" stroke-miterlimit="10" points="50.884,77.361 51.474,77.581 
						52.069,77.781 52.678,77.963 53.284,78.136 					"/>
					<polyline fill="#3B82FF" stroke="#FFFFFF" stroke-width="0.5" stroke-miterlimit="10" points="51.329,76.221 51.884,76.43 
						52.444,76.622 53.017,76.793 53.586,76.949 					"/>
					<polyline fill="#3B82FF" stroke="#FFFFFF" stroke-width="0.5" stroke-miterlimit="10" points="48.812,73.587 49.28,73.872 
						49.763,74.145 50.259,74.398 50.755,74.645 50.237,75.758 49.427,76.045 48.891,75.757 48.352,75.461 47.508,75.655 
						47.181,76.174 47.431,77.042 48.011,77.372 48.601,77.682 49.466,77.417 					"/>
					<polyline fill="#3B82FF" stroke="#FFFFFF" stroke-width="0.5" stroke-miterlimit="10" points="46.186,72.395 47.005,72.29 
						47.444,72.639 47.532,73.463 46.106,75.456 45.207,75.55 44.679,75.134 44.576,74.239 46.186,72.395 					"/>
				</g>
			</g>
			<g>
				<path fill="#3B82FF" d="M59.378,89.896c-0.629-0.967-1.116-2.012-1.413-3.03c-0.232-0.798-0.211-1.528-0.187-2.374l0.013-0.471
					l-3.613-0.322l-0.07,0.466c-0.126,0.837-0.234,1.56-0.604,2.303c-0.485,0.97-1.15,1.911-1.929,2.731l-1.485-0.361
					c-0.32-1.127-0.479-2.27-0.458-3.313c0.017-0.842,0.256-1.543,0.533-2.354l0.142-0.416l-3.36-1.375l-0.188,0.389
					c-0.371,0.775-0.692,1.445-1.272,2.062c-0.728,0.769-1.641,1.474-2.648,2.04l-1.313-0.783c0.025-1.168,0.21-2.306,0.537-3.299
					c0.266-0.805,0.703-1.404,1.208-2.1l0.254-0.35l-2.807-2.304l-0.294,0.317c-0.583,0.631-1.086,1.176-1.822,1.594
					c-0.91,0.516-1.99,0.918-3.132,1.169l-1.023-1.136c0.377-1.133,0.877-2.139,1.486-2.992c0.49-0.69,1.083-1.135,1.769-1.648
					l0.351-0.263l-2.004-3.028l-0.398,0.229c-0.734,0.427-1.369,0.793-2.188,0.972c-0.727,0.158-1.502,0.237-2.306,0.237
					c-0.346,0-0.69-0.014-1.031-0.043l-0.644-1.385c0.667-0.941,1.462-1.776,2.304-2.423c0.665-0.512,1.357-0.76,2.159-1.048
					l0.426-0.154l-1.021-3.481l-0.439,0.1c-0.705,0.162-1.313,0.302-1.988,0.302c-0.13,0-0.262-0.006-0.397-0.018
					c-1.06-0.09-2.179-0.365-3.245-0.797l-0.207-1.514c0.922-0.704,1.927-1.27,2.915-1.637c0.787-0.293,1.524-0.326,2.378-0.365
					l0.448-0.021l0.05-3.628l-0.454-0.035c-0.849-0.063-1.582-0.119-2.357-0.432c-0.984-0.398-1.974-0.991-2.867-1.719l0.249-1.506
					c1.089-0.405,2.215-0.648,3.267-0.706c0.088-0.005,0.174-0.007,0.259-0.007c0.733,0,1.379,0.167,2.127,0.361l0.427,0.11
					l1.121-3.452l-0.412-0.162c-0.797-0.312-1.486-0.581-2.139-1.112c-0.814-0.661-1.584-1.519-2.235-2.488l0.684-1.368
					c0.228-0.013,0.458-0.019,0.688-0.019c0.928,0,1.816,0.104,2.642,0.309c0.816,0.204,1.444,0.592,2.172,1.041l0.379,0.233
					l2.087-2.969l-0.354-0.282c-0.666-0.53-1.242-0.988-1.708-1.687c-0.593-0.889-1.076-1.936-1.401-3.035l1.056-1.106
					c1.118,0.279,2.187,0.714,3.098,1.26c0.713,0.427,1.194,0.977,1.752,1.613l0.312,0.354l2.868-2.221l-0.258-0.379
					c-0.479-0.702-0.894-1.308-1.133-2.11c-0.299-1.003-0.451-2.146-0.443-3.313l1.334-0.746c1.001,0.604,1.894,1.334,2.589,2.116
					c0.559,0.628,0.858,1.3,1.206,2.077l0.185,0.413l3.396-1.278l-0.49-1.599c-0.283-1.162-0.134-2.676,0.449-4.488l1.494-0.318
					c0.772,0.869,1.41,1.83,1.849,2.785c0.353,0.765,0.44,1.499,0.542,2.348l0.054,0.439l3.623-0.218v-0.454
					c-0.002-0.853-0.004-1.588,0.254-2.385c0.327-1.021,0.844-2.051,1.499-2.989l1.522,0.136c0.479,1.049,0.806,2.154,0.945,3.206
					c0.112,0.829-0.021,1.553-0.173,2.391l-0.079,0.449l3.526,0.857l0.137-0.445c0.25-0.808,0.466-1.506,0.943-2.194
					c0.598-0.859,1.396-1.69,2.313-2.411l1.414,0.578c0.151,1.156,0.138,2.308-0.039,3.342c-0.146,0.834-0.485,1.492-0.882,2.254
					L69.7,35.8l3.116,1.859l0.268-0.392c0.477-0.698,0.887-1.302,1.543-1.81c0.838-0.652,1.846-1.212,2.923-1.625l1.181,0.969
					c-0.318,1.894-0.883,3.311-1.679,4.211l-1.153,1.176l2.431,2.696l0.36-0.288c0.664-0.531,1.236-0.99,2.018-1.284
					c0.986-0.374,2.115-0.612,3.271-0.691l0.84,1.276c-0.51,1.018-1.17,1.963-1.914,2.739c-0.575,0.601-1.221,0.947-1.965,1.349
					l-0.412,0.223l1.527,3.292l0.438-0.171c0.786-0.309,1.466-0.576,2.298-0.63c0.208-0.013,0.419-0.02,0.63-0.02
					c0.878,0,1.785,0.109,2.699,0.325l0.429,1.466c-0.813,0.842-1.723,1.55-2.637,2.053c-0.74,0.406-1.465,0.549-2.305,0.715
					l-0.434,0.086l0.489,3.597l0.454-0.034c0.404-0.031,0.787-0.061,1.168-0.061c0.455,0,0.845,0.043,1.229,0.135
					c1.027,0.247,2.094,0.686,3.092,1.273l-0.021,1.527c-1.013,0.56-2.091,0.968-3.125,1.185c-0.331,0.068-0.672,0.103-1.043,0.103
					c-0.442,0-0.89-0.047-1.362-0.096l-0.445-0.046l-0.594,3.58l0.435,0.099c0.834,0.188,1.554,0.353,2.278,0.78
					c0.912,0.539,1.779,1.255,2.578,2.126l-0.47,1.454c-0.81,0.166-1.616,0.25-2.403,0.25c-0.313,0-0.625-0.014-0.936-0.041
					c-0.828-0.075-1.501-0.362-2.279-0.695l-0.431-0.184l-1.622,3.248l0.396,0.229c0.738,0.423,1.377,0.789,1.936,1.409
					c0.717,0.793,1.352,1.756,1.84,2.794l-0.879,1.25c-1.159-0.11-2.279-0.38-3.252-0.784c-0.775-0.323-1.338-0.799-1.99-1.351
					l-0.341-0.287l-2.507,2.624l1.135,1.227c0.764,0.929,1.285,2.356,1.544,4.237l-1.208,0.936c-1.08-0.447-2.07-1.035-2.875-1.705
					c-0.652-0.545-1.053-1.173-1.518-1.898l-0.227-0.355l-3.172,1.771l0.196,0.407c0.371,0.768,0.69,1.43,0.807,2.26
					c0.147,1.051,0.128,2.204-0.055,3.343l-1.431,0.538c-0.883-0.734-1.656-1.589-2.244-2.479c-0.456-0.69-0.649-1.393-0.875-2.205
					l-0.129-0.463l-3.549,0.756l0.065,0.437c0.13,0.849,0.242,1.58,0.104,2.41c-0.176,1.067-0.535,2.164-1.037,3.179L59.378,89.896z
					 M53.944,37.1c-8.843,1.764-15.589,8.642-17.184,17.522l-0.046,0.255l0.257,0.037c0.629,0.09,1.188,0.316,1.661,0.673
					c1.591,1.199,1.91,3.47,0.712,5.06c-0.576,0.764-1.415,1.261-2.362,1.398l-0.254,0.038l0.111,0.646
					c1.762,8.836,8.633,15.58,17.505,17.182l0.255,0.046l0.036-0.257c0.09-0.631,0.316-1.19,0.674-1.664
					c0.689-0.914,1.742-1.438,2.888-1.438c0.789,0,1.54,0.25,2.173,0.728c0.767,0.577,1.263,1.419,1.399,2.37l0.037,0.256
					l0.66-0.116c8.838-1.762,15.581-8.634,17.182-17.507l0.047-0.256l-0.258-0.036c-0.636-0.087-1.199-0.315-1.68-0.677
					c-1.592-1.198-1.91-3.467-0.712-5.06c0.581-0.771,1.429-1.27,2.386-1.403l0.258-0.036l-0.115-0.655
					c-1.766-8.845-8.645-15.59-17.526-17.184l-0.256-0.046l-0.036,0.258c-0.087,0.634-0.314,1.199-0.675,1.677
					c-0.688,0.914-1.742,1.438-2.889,1.438c-0.788,0-1.54-0.251-2.172-0.728c-0.768-0.579-1.266-1.423-1.402-2.376l-0.036-0.257
					L53.944,37.1z"/>
				<path fill="#FFFFFF" d="M60.393,27.514l1.231,0.109c0.437,0.987,0.735,2.02,0.866,3.004c0.105,0.79-0.021,1.495-0.17,2.313
					l-0.041,0.218l-0.082,0.463l0.457,0.111l3.07,0.746l0.455,0.111l0.141-0.448l0.068-0.222c0.242-0.788,0.452-1.469,0.909-2.125
					c0.558-0.804,1.298-1.583,2.147-2.267l1.144,0.468c0.128,1.082,0.109,2.156-0.057,3.123c-0.138,0.796-0.472,1.438-0.854,2.182
					l-0.093,0.177l-0.216,0.418l0.402,0.241l2.713,1.618l0.404,0.241l0.266-0.388l0.136-0.198c0.463-0.681,0.862-1.269,1.489-1.754
					c0.783-0.61,1.721-1.138,2.724-1.536l0.955,0.783c-0.313,1.776-0.851,3.101-1.576,3.926l-0.998,1.018l-0.329,0.335l0.313,0.35
					l2.114,2.347l0.315,0.349l0.368-0.293l0.178-0.142c0.646-0.518,1.205-0.965,1.949-1.246c0.923-0.349,1.973-0.578,3.055-0.664
					l0.68,1.032c-0.488,0.947-1.108,1.824-1.805,2.549c-0.55,0.572-1.178,0.911-1.904,1.303l-0.205,0.111L80.2,46.101l0.196,0.426
					l1.33,2.865l0.198,0.426l0.438-0.17l0.22-0.086c0.769-0.301,1.431-0.562,2.222-0.613c0.204-0.013,0.409-0.019,0.615-0.019
					c0.813,0,1.652,0.096,2.501,0.286l0.347,1.185c-0.771,0.778-1.621,1.434-2.478,1.904c-0.705,0.387-1.412,0.527-2.231,0.689
					l-0.203,0.04l-0.461,0.092l0.063,0.466l0.426,3.131l0.063,0.466l0.469-0.035l0.221-0.017c0.402-0.03,0.781-0.06,1.15-0.06
					c0.434,0,0.805,0.041,1.17,0.128c0.96,0.23,1.956,0.634,2.896,1.172l-0.018,1.234c-0.954,0.512-1.961,0.888-2.928,1.09
					c-0.313,0.064-0.639,0.097-0.992,0.097c-0.43,0-0.87-0.046-1.336-0.095l-0.213-0.021L83.4,60.633l-0.076,0.463l-0.518,3.116
					l-0.078,0.464l0.459,0.105l0.207,0.047c0.813,0.186,1.516,0.344,2.205,0.751c0.854,0.505,1.67,1.169,2.424,1.974l-0.379,1.174
					c-0.744,0.146-1.487,0.219-2.213,0.219c-0.308,0-0.615-0.014-0.91-0.041c-0.789-0.072-1.445-0.353-2.205-0.676l-0.215-0.092
					l-0.433-0.183l-0.21,0.42l-1.412,2.827l-0.21,0.422l0.408,0.234l0.19,0.11c0.722,0.413,1.342,0.769,1.875,1.36
					c0.67,0.74,1.267,1.636,1.735,2.602l-0.711,1.012c-1.083-0.116-2.126-0.375-3.034-0.752c-0.74-0.309-1.289-0.772-1.926-1.311
					l-0.162-0.136l-0.357-0.304l-0.326,0.34l-2.182,2.285l-0.324,0.34l0.32,0.345l0.485,0.526l0.47,0.507
					c0.723,0.879,1.221,2.217,1.479,3.979l-0.979,0.758c-1.005-0.432-1.926-0.985-2.676-1.61c-0.623-0.521-1.016-1.132-1.467-1.841
					l-0.102-0.159L72.3,79.514l-0.409,0.229l-2.761,1.541l-0.412,0.229l0.205,0.424l0.095,0.196
					c0.361,0.749,0.676,1.396,0.785,2.187c0.137,0.981,0.125,2.058-0.033,3.125l-1.154,0.435c-0.818-0.696-1.536-1.499-2.086-2.332
					c-0.434-0.657-0.623-1.341-0.842-2.132l-0.066-0.237l-0.127-0.452l-0.459,0.099l-3.09,0.657l-0.461,0.099l0.07,0.466l0.03,0.203
					c0.127,0.827,0.237,1.541,0.106,2.331c-0.166,0.999-0.493,2.022-0.951,2.979l-1.233,0.074c-0.578-0.912-1.027-1.889-1.305-2.842
					c-0.222-0.76-0.201-1.473-0.177-2.296l0.007-0.237l0.012-0.47L57.58,83.75l-3.146-0.28l-0.467-0.042l-0.071,0.465l-0.036,0.233
					c-0.122,0.815-0.229,1.521-0.58,2.228c-0.453,0.907-1.068,1.789-1.787,2.566l-1.201-0.292c-0.288-1.06-0.43-2.124-0.41-3.099
					c0.016-0.805,0.249-1.487,0.52-2.278l0.066-0.194l0.151-0.445l-0.436-0.178l-2.925-1.195l-0.436-0.178l-0.205,0.424
					l-0.084,0.178c-0.363,0.756-0.676,1.41-1.229,1.997c-0.681,0.719-1.528,1.38-2.464,1.922l-1.062-0.633
					c0.036-1.093,0.215-2.152,0.521-3.08c0.254-0.767,0.68-1.354,1.174-2.032l0.115-0.159l0.275-0.381L43.5,78.998l-2.442-2.005
					l-0.364-0.3l-0.32,0.346l-0.134,0.145c-0.568,0.615-1.06,1.146-1.763,1.545c-0.851,0.482-1.855,0.864-2.92,1.111l-0.827-0.917
					c0.363-1.053,0.835-1.989,1.407-2.79c0.467-0.656,1.045-1.09,1.714-1.592l0.161-0.121l0.377-0.283l-0.26-0.393l-1.744-2.637
					l-0.26-0.392l-0.406,0.235l-0.195,0.111c-0.717,0.416-1.336,0.774-2.116,0.942c-0.708,0.155-1.466,0.233-2.251,0.233
					c-0.287,0-0.577-0.012-0.867-0.032l-0.52-1.121c0.635-0.873,1.379-1.647,2.167-2.251c0.634-0.488,1.31-0.73,2.091-1.011
					l0.206-0.074l0.442-0.16l-0.133-0.45l-0.889-3.031l-0.132-0.451l-0.458,0.104l-0.211,0.049c-0.69,0.157-1.286,0.295-1.933,0.295
					c-0.123,0-0.249-0.006-0.377-0.017c-0.99-0.084-2.035-0.334-3.038-0.728l-0.168-1.225c0.871-0.648,1.813-1.17,2.736-1.514
					c0.75-0.279,1.469-0.311,2.301-0.348l0.213-0.01l0.471-0.022l0.007-0.472l0.044-3.158l0.006-0.469l-0.467-0.036l-0.223-0.017
					c-0.827-0.062-1.541-0.116-2.281-0.414c-0.921-0.373-1.846-0.92-2.691-1.591l0.201-1.219c1.023-0.366,2.076-0.587,3.059-0.641
					c0.083-0.005,0.165-0.007,0.246-0.007c0.701,0,1.332,0.164,2.063,0.353l0.201,0.052l0.455,0.117l0.145-0.447l0.976-3.005
					l0.146-0.447l-0.438-0.172l-0.193-0.076c-0.778-0.304-1.45-0.567-2.074-1.074c-0.76-0.618-1.482-1.413-2.102-2.313L30.69,44.1
					c0.176-0.007,0.353-0.011,0.53-0.011c0.908,0,1.776,0.101,2.581,0.301c0.778,0.195,1.392,0.573,2.101,1.011l0.18,0.11l0.4,0.247
					l0.271-0.385l1.816-2.585l0.271-0.385l-0.367-0.293l-0.17-0.136c-0.65-0.517-1.212-0.964-1.656-1.63
					c-0.555-0.831-1.011-1.804-1.328-2.829l0.854-0.895c1.044,0.274,2.037,0.685,2.891,1.195c0.679,0.407,1.148,0.943,1.691,1.563
					l0.157,0.178l0.31,0.352l0.371-0.287l2.498-1.934l0.371-0.288l-0.264-0.389l-0.127-0.186c-0.467-0.685-0.871-1.276-1.1-2.041
					c-0.279-0.938-0.428-2.002-0.433-3.095l1.078-0.603c0.929,0.577,1.757,1.261,2.407,1.993c0.533,0.599,0.826,1.254,1.165,2.013
					l0.089,0.198l0.192,0.429l0.44-0.165l2.957-1.112l0.439-0.166l-0.139-0.45l-0.127-0.413l-0.287-0.932
					c-0.268-1.102-0.135-2.523,0.396-4.229L52.357,28c0.714,0.822,1.304,1.721,1.714,2.614c0.335,0.729,0.421,1.445,0.521,2.273
					l0.025,0.207l0.057,0.467l0.469-0.028l3.154-0.189l0.47-0.028v-0.471l-0.001-0.219c-0.001-0.831-0.002-1.549,0.242-2.309
					C59.314,29.362,59.79,28.398,60.393,27.514 M58.193,40.099c-0.734,0-1.434-0.234-2.021-0.678
					c-0.715-0.539-1.179-1.324-1.306-2.212l-0.073-0.514l-0.512,0.093l-0.146,0.024c-0.08,0.013-0.159,0.026-0.238,0.042
					c-8.945,1.784-15.769,8.741-17.382,17.724l-0.092,0.51l0.513,0.073c0.587,0.083,1.107,0.294,1.547,0.625
					c1.48,1.116,1.777,3.229,0.662,4.709c-0.535,0.71-1.316,1.172-2.198,1.302l-0.509,0.074l0.088,0.506l0.023,0.134
					c0.014,0.087,0.028,0.175,0.046,0.265c1.782,8.938,8.731,15.759,17.705,17.377l0.511,0.093l0.073-0.515
					c0.083-0.586,0.294-1.108,0.626-1.549c0.641-0.851,1.621-1.339,2.688-1.339c0.734,0,1.434,0.234,2.021,0.679
					c0.713,0.537,1.176,1.32,1.305,2.205l0.074,0.513l0.508-0.091l0.15-0.025c0.087-0.014,0.174-0.028,0.262-0.046
					c8.938-1.782,15.76-8.733,17.379-17.708l0.092-0.514l-0.516-0.07c-0.593-0.082-1.119-0.293-1.563-0.628
					c-1.481-1.116-1.778-3.229-0.663-4.71c0.541-0.718,1.33-1.182,2.221-1.306l0.514-0.072l-0.09-0.509l-0.024-0.144
					c-0.015-0.087-0.028-0.173-0.046-0.259c-1.784-8.947-8.743-15.77-17.729-17.381l-0.512-0.092L61.509,37.2
					c-0.081,0.592-0.293,1.117-0.628,1.561C60.24,39.611,59.26,40.099,58.193,40.099 M60.146,26.99
					c-0.688,0.96-1.254,2.049-1.614,3.174c-0.292,0.904-0.266,1.729-0.266,2.681l-3.153,0.189c-0.115-0.944-0.19-1.764-0.588-2.628
					c-0.493-1.074-1.192-2.081-1.987-2.955l-1.776,0.379c-0.48,1.453-0.866,3.255-0.495,4.776c0.142,0.457,0.281,0.915,0.422,1.373
					l-2.957,1.112c-0.392-0.872-0.703-1.628-1.336-2.339c-0.785-0.883-1.755-1.64-2.771-2.238l-1.586,0.887
					c-0.021,1.182,0.114,2.398,0.452,3.532c0.271,0.911,0.755,1.575,1.291,2.364l-2.497,1.934c-0.628-0.713-1.152-1.352-1.967-1.84
					c-1.016-0.608-2.156-1.049-3.308-1.322l-1.255,1.314c0.321,1.135,0.818,2.26,1.474,3.242c0.528,0.792,1.186,1.284,1.93,1.879
					l-1.816,2.585c-0.812-0.499-1.498-0.95-2.421-1.181c-0.874-0.217-1.794-0.316-2.702-0.316c-0.285,0-0.567,0.009-0.848,0.028
					l-0.813,1.626c0.647,0.988,1.446,1.918,2.365,2.664c0.737,0.6,1.512,0.878,2.398,1.227l-0.976,3.005
					c-0.833-0.214-1.556-0.42-2.388-0.42c-0.09,0-0.182,0.002-0.273,0.007c-1.179,0.064-2.375,0.349-3.477,0.772l-0.296,1.791
					c0.906,0.756,1.947,1.406,3.044,1.85c0.881,0.355,1.703,0.393,2.652,0.466l-0.044,3.158c-0.951,0.045-1.775,0.058-2.666,0.39
					c-1.109,0.413-2.164,1.032-3.096,1.762l0.246,1.8c1.088,0.456,2.276,0.771,3.452,0.87c0.143,0.013,0.282,0.019,0.419,0.019
					c0.772,0,1.466-0.176,2.254-0.355l0.889,3.031c-0.896,0.324-1.678,0.578-2.432,1.158c-0.938,0.72-1.767,1.623-2.438,2.596
					l0.765,1.646c0.396,0.038,0.796,0.059,1.198,0.059c0.793,0,1.59-0.077,2.357-0.244c0.931-0.201,1.629-0.635,2.454-1.11
					l1.744,2.636c-0.764,0.574-1.432,1.047-1.983,1.823c-0.688,0.964-1.204,2.073-1.565,3.198l1.217,1.35
					c1.156-0.24,2.316-0.645,3.344-1.227c0.828-0.471,1.368-1.086,2.017-1.785l2.442,2.005c-0.56,0.772-1.06,1.425-1.358,2.327
					c-0.37,1.123-0.54,2.337-0.552,3.518l1.561,0.932c1.033-0.566,2.023-1.301,2.834-2.157c0.652-0.69,0.988-1.442,1.401-2.301
					l2.925,1.196c-0.307,0.901-0.594,1.673-0.612,2.623c-0.023,1.183,0.173,2.393,0.509,3.524l1.766,0.429
					c0.824-0.848,1.542-1.838,2.071-2.896c0.423-0.851,0.52-1.672,0.663-2.61l3.146,0.28c-0.025,0.95-0.076,1.774,0.189,2.687
					c0.331,1.138,0.867,2.234,1.524,3.22l1.813-0.11c0.537-1.053,0.933-2.212,1.125-3.379c0.154-0.938,0.006-1.751-0.137-2.689
					l3.09-0.658c0.256,0.914,0.449,1.719,0.973,2.511c0.652,0.987,1.488,1.881,2.406,2.626l1.699-0.641
					c0.201-1.164,0.244-2.389,0.08-3.561c-0.131-0.941-0.512-1.673-0.924-2.529l2.76-1.541c0.516,0.806,0.938,1.504,1.668,2.113
					c0.908,0.758,1.98,1.36,3.074,1.801l1.436-1.113c-0.194-1.516-0.633-3.309-1.627-4.517c-0.326-0.352-0.647-0.702-0.975-1.055
					l2.182-2.284c0.729,0.613,1.34,1.16,2.217,1.526c1.093,0.454,2.293,0.717,3.47,0.813l1.045-1.486
					c-0.492-1.076-1.146-2.106-1.94-2.986c-0.636-0.705-1.365-1.096-2.188-1.568l1.411-2.826c0.873,0.369,1.623,0.719,2.568,0.805
					c0.317,0.029,0.637,0.042,0.957,0.042c0.873,0,1.752-0.103,2.598-0.287l0.56-1.729c-0.789-0.879-1.715-1.679-2.733-2.281
					c-0.818-0.482-1.625-0.643-2.556-0.854l0.519-3.116c0.563,0.059,1.078,0.119,1.6,0.119c0.355,0,0.716-0.029,1.094-0.107
					c1.156-0.241,2.295-0.698,3.322-1.281l0.025-1.815c-1.012-0.61-2.135-1.099-3.285-1.375c-0.444-0.107-0.864-0.142-1.286-0.142
					c-0.456,0-0.914,0.041-1.407,0.078l-0.426-3.131c0.936-0.187,1.744-0.323,2.578-0.781c1.033-0.568,1.986-1.346,2.797-2.204
					l-0.51-1.743c-0.94-0.232-1.926-0.366-2.898-0.366c-0.216,0-0.434,0.006-0.646,0.02c-0.948,0.062-1.705,0.387-2.592,0.732
					l-1.33-2.865c0.836-0.453,1.574-0.821,2.232-1.507c0.816-0.852,1.506-1.869,2.021-2.93l-1-1.517
					c-1.183,0.067-2.383,0.297-3.488,0.716c-0.889,0.335-1.518,0.871-2.262,1.464l-2.115-2.347l0.998-1.018
					c1.037-1.175,1.52-2.967,1.762-4.479l-1.404-1.151c-1.109,0.41-2.188,0.985-3.123,1.712c-0.752,0.582-1.193,1.279-1.729,2.064
					l-2.714-1.618c0.439-0.848,0.834-1.565,0.996-2.504c0.199-1.163,0.188-2.393,0.021-3.561l-1.682-0.688
					c-0.938,0.719-1.805,1.584-2.479,2.555c-0.546,0.783-0.763,1.573-1.046,2.483l-3.069-0.746c0.168-0.937,0.34-1.744,0.213-2.686
					c-0.156-1.172-0.523-2.339-1.027-3.409L60.146,26.99L60.146,26.99z M58.193,40.599c1.17,0,2.329-0.531,3.086-1.538
					c0.41-0.544,0.638-1.163,0.725-1.793c8.462,1.518,15.542,8.047,17.325,16.987c0.026,0.131,0.045,0.262,0.067,0.394
					c-0.979,0.137-1.908,0.647-2.551,1.5c-1.283,1.704-0.943,4.126,0.762,5.41c0.545,0.411,1.164,0.637,1.795,0.725
					c-1.523,8.453-8.049,15.525-16.983,17.307c-0.134,0.027-0.269,0.045-0.401,0.069c-0.141-0.974-0.648-1.896-1.496-2.534
					c-0.696-0.525-1.514-0.777-2.324-0.777c-1.171,0-2.328,0.53-3.087,1.537c-0.407,0.54-0.633,1.154-0.722,1.779
					c-8.452-1.525-15.522-8.051-17.304-16.984c-0.025-0.129-0.044-0.257-0.066-0.386c0.971-0.142,1.888-0.649,2.525-1.496
					c1.284-1.704,0.943-4.125-0.761-5.41c-0.539-0.406-1.151-0.632-1.776-0.721c1.52-8.459,8.048-15.539,16.987-17.322
					c0.126-0.025,0.251-0.042,0.377-0.064c0.14,0.977,0.649,1.9,1.499,2.541C56.566,40.346,57.383,40.599,58.193,40.599
					L58.193,40.599z"/>
			</g>
			<circle fill="none" stroke="#FFFFFF" stroke-width="0.5" stroke-miterlimit="10" cx="58.331" cy="36.595" r="1.629"/>
			<circle fill="none" stroke="#FFFFFF" stroke-width="0.5" stroke-miterlimit="10" cx="58.331" cy="80.209" r="1.629"/>
			<circle fill="none" stroke="#FFFFFF" stroke-width="0.5" stroke-miterlimit="10" cx="36.523" cy="58.402" r="1.629"/>
			<circle fill="none" stroke="#FFFFFF" stroke-width="0.5" stroke-miterlimit="10" cx="80.139" cy="58.402" r="1.629"/>
		</g>
		<circle fill="#3B82FF" stroke="#FFFFFF" stroke-width="0.5" stroke-miterlimit="10" cx="58.212" cy="58.5" r="4.111"/>
		<g display="none">
			
				<line display="inline" fill="none" stroke="#FFFFFF" stroke-width="0.25" stroke-miterlimit="10" x1="58.212" y1="69.059" x2="58.212" y2="47.942"/>
			
				<line display="inline" fill="none" stroke="#FFFFFF" stroke-width="0.25" stroke-miterlimit="10" x1="47.653" y1="58.5" x2="68.77" y2="58.5"/>
			<circle display="inline" fill="#FFFFFF" cx="58.212" cy="47.942" r="1.172"/>
		</g>
	</g>
</g>
<g id="titulo" display="none">
</g>
<g id="screenshots" display="none">
</g>
<g id="fondo_negro" display="none">
</g>
<g id="imagenes" display="none">
</g>
<g id="graficas" display="none">
</g>
<g id="texto" display="none">
</g>
<g id="bienvenido" display="none">
</g>
<g id="bocetos" display="none">
</g>
<g id="notas" display="none">
</g>
</svg>
