<?xml version="1.0" encoding="utf-8"?>
<!-- Generator: Adobe Illustrator 16.0.0, SVG Export Plug-In . SVG Version: 6.00 Build 0)  -->
<!DOCTYPE svg PUBLIC "-//W3C//DTD SVG 1.1//EN" "http://www.w3.org/Graphics/SVG/1.1/DTD/svg11.dtd">
<svg version="1.1" id="Capa_1" xmlns="http://www.w3.org/2000/svg" xmlns:xlink="http://www.w3.org/1999/xlink" x="0px" y="0px"
	 width="77px" height="91px" viewBox="0 0 77 91" enable-background="new 0 0 77 91" xml:space="preserve">
<g id="exportaciones">
	<g>
		<line fill="none" x1="33.191" y1="0.863" x2="44.063" y2="0.863"/>
		<g>
			<g>
				<path fill="#3B82FF" stroke="#FFFFFF" stroke-width="0.5" stroke-miterlimit="10" d="M38.506,90.182
					c-2.376,0-4.058-0.469-4.719-1.248c-0.359-0.428,1.281-7.459-4.469-11.564c-3.723-2.661-7.701-1.655-10.783,0.357l-0.002-0.002
					C7.784,71.041,0.631,59.124,0.631,45.536c0-20.919,16.958-37.876,37.875-37.876c20.919,0,37.879,16.958,37.879,37.876
					c0,13.589-7.105,25.506-17.854,32.188H58.48c-3.082-2.012-7.062-3.018-10.785-0.356c-5.752,4.106-4.106,11.137-4.471,11.563
					C42.566,89.713,40.883,90.182,38.506,90.182 M38.516,28.53c-9.396,0-17.014,7.618-17.014,17.014
					c0,9.396,7.618,17.015,17.014,17.015c9.397,0,17.016-7.619,17.016-17.015C55.532,36.148,47.913,28.53,38.516,28.53z"/>
				<g display="none">
					<path display="inline" fill="none" stroke="#C4C4C4" stroke-width="0.5" stroke-miterlimit="10" d="M2.551,44.16
						c1.137,6.168,7.959,7.936,10.381,5.591c4.808-4.655-5.038-7.309-0.52-12.417c2.232-2.523,6.176-2.571,8.729,0.491"/>
					<path display="inline" fill="none" stroke="#C4C4C4" stroke-width="0.5" stroke-miterlimit="10" d="M19.781,14.945
						c4.863-1.065,9.639-0.189,9.639,3.074c0,6.59-7.752,2.195-7.752,7.847c0,4.205,5.792,3.567,7.363,3.225"/>
					<path display="inline" fill="none" stroke="#C4C4C4" stroke-width="0.5" stroke-miterlimit="10" d="M34.594,80.829
						c5.927,0.921,7.476-3.868,5.927-6.859c-1.686-3.256-11.364,0.679-11.729-4.759c-0.242-3.574,1.994-4.816,3.82-5.6"/>
					<path display="inline" fill="none" stroke="#C4C4C4" stroke-width="0.5" stroke-miterlimit="10" d="M6.457,61.72
						c2.355-5.892,6.773-2.806,10.002-0.161c3.229,2.646,5.379,10.146-1.01,11.521"/>
					<path display="inline" fill="none" stroke="#C4C4C4" stroke-width="0.5" stroke-miterlimit="10" d="M50.518,73.973
						c-3.477-1.023-4.932-4.023-2.988-7.262c3.912-6.516,10.205,2.188,16.451-3.001c3.912-3.25,2.082-9.386,0.916-13.419
						c-1.432-4.951,3.242-5.525,1.703-10.432c-1.537-4.906-7.572-3.392-10.186-0.726"/>
					<path display="inline" fill="none" stroke="#C4C4C4" stroke-width="0.5" stroke-miterlimit="10" d="M49.865,30.329
						c4.412,2.291,10.484,1.196,9.498-3.883c-1.068-5.495-10.787-0.813-11.076-6.697s5.586-5.52,9.424-4.5"/>
					<path display="inline" fill="none" stroke="#C4C4C4" stroke-width="0.5" stroke-miterlimit="10" d="M19.502,66.902
						c0.383-4.793,4.811-4.61,6.68-5.86C26.279,65.164,23.688,68.725,19.502,66.902z"/>
					<path display="inline" fill="none" stroke="#C4C4C4" stroke-width="0.5" stroke-miterlimit="10" d="M11.857,58.794
						c2.658,4.004-0.936,6.597-1.631,8.735C7.602,64.35,7.439,59.948,11.857,58.794z"/>
					<path display="inline" fill="none" stroke="#C4C4C4" stroke-width="0.5" stroke-miterlimit="10" d="M17.761,63.094
						c0.294,3.174-2.619,3.559-3.696,4.588C13.529,65.001,14.819,62.38,17.761,63.094z"/>
					<path display="inline" fill="none" stroke="#C4C4C4" stroke-width="0.5" stroke-miterlimit="10" d="M17.969,71.85
						c-2.666,1.745-4.371-0.647-5.786-1.117C14.303,69.004,17.223,68.914,17.969,71.85z"/>
					<path display="inline" fill="none" stroke="#C4C4C4" stroke-width="0.5" stroke-miterlimit="10" d="M19.68,70.09
						c2.605-2.229,4.752,0.092,6.326,0.4C23.98,72.623,20.877,73.118,19.68,70.09z"/>
					<path display="inline" fill="none" stroke="#C4C4C4" stroke-width="0.5" stroke-miterlimit="10" d="M29.773,65.396
						c-3.154-1.346-2.027-4.299-2.449-5.846C30.135,60.418,31.955,62.98,29.773,65.396z"/>
					<path display="inline" fill="none" stroke="#C4C4C4" stroke-width="0.5" stroke-miterlimit="10" d="M28.709,68.2
						c-1.613,1.743-3.277,0.317-4.385,0.231C25.546,66.801,27.643,66.212,28.709,68.2z"/>
					<path display="inline" fill="none" stroke="#C4C4C4" stroke-width="0.5" stroke-miterlimit="10" d="M30.036,71.391
						c0.571,4.861-2.759,5.269-3.927,6.771C25.297,74.035,26.594,70.114,30.036,71.391z"/>
					<path display="inline" fill="none" stroke="#C4C4C4" stroke-width="0.5" stroke-miterlimit="10" d="M17.066,71.995
						c4.951,0.001,5.127,4.565,6.564,6.381C19.404,78.814,15.533,76.443,17.066,71.995z"/>
					<path display="inline" fill="none" stroke="#C4C4C4" stroke-width="0.5" stroke-miterlimit="10" d="M17.176,62.355
						c-0.72-2.761,1.798-3.521,2.602-4.588C20.637,60.059,19.877,62.561,17.176,62.355z"/>
					<path display="inline" fill="none" stroke="#C4C4C4" stroke-width="0.5" stroke-miterlimit="10" d="M9.088,50.748
						c2.477,1.872,0.843,4.219,0.877,5.671C7.686,55.043,6.645,52.396,9.088,50.748z"/>
					<path display="inline" fill="none" stroke="#C4C4C4" stroke-width="0.5" stroke-miterlimit="10" d="M14.887,60.125
						c-4.063-2.568-1.842-6.402-2.081-8.641C16.501,53.316,18.448,57.268,14.887,60.125z"/>
					<path display="inline" fill="none" stroke="#C4C4C4" stroke-width="0.5" stroke-miterlimit="10" d="M7.537,60.434
						c-4.809-0.104-4.883-4.535-6.242-6.326C5.404,53.77,9.112,56.148,7.537,60.434z"/>
				</g>
			</g>
			<g>
				<g>
					<path fill="#3B82FF" d="M41.716,77.057c-0.688-0.92-1.241-1.932-1.604-2.934c-0.281-0.782-0.307-1.512-0.336-2.357
						l-0.018-0.472l-3.628-0.092l-0.04,0.466c-0.071,0.844-0.133,1.573-0.458,2.339c-0.419,0.995-1.022,1.978-1.75,2.849
						l-1.505-0.267c-0.398-1.123-0.622-2.224-0.665-3.274c-0.038-0.846,0.155-1.561,0.381-2.389l0.113-0.42l-3.438-1.158
						l-0.173,0.424c-0.319,0.787-0.595,1.469-1.132,2.112c-0.682,0.819-1.548,1.579-2.511,2.205l-1.361-0.698
						c-0.05-1.16,0.063-2.309,0.33-3.328c0.211-0.814,0.607-1.438,1.065-2.162l0.236-0.373l-2.946-2.122l-0.279,0.343
						c-0.541,0.664-1.008,1.236-1.715,1.697c-0.88,0.574-1.932,1.046-3.05,1.365l-1.092-1.066c0.304-1.152,0.737-2.188,1.292-3.083
						c0.443-0.716,1.005-1.194,1.654-1.749l0.339-0.291l-2.19-2.896l-0.382,0.254c-0.707,0.473-1.317,0.879-2.124,1.107
						c-0.95,0.271-1.981,0.409-3.065,0.409c-0.084,0-0.167-0.001-0.251-0.002l-0.73-1.343c0.604-0.977,1.343-1.86,2.145-2.563
						c0.628-0.55,1.301-0.841,2.08-1.177l0.426-0.186l-1.24-3.412l-0.434,0.129c-0.785,0.232-1.464,0.435-2.26,0.435l-0.102-0.001
						c-1.063-0.021-2.197-0.225-3.289-0.589L7.707,51.29c0.873-0.759,1.841-1.388,2.807-1.817c0.768-0.342,1.499-0.422,2.347-0.515
						l0.448-0.049l-0.18-3.625l-0.445-0.005c-0.855-0.009-1.594-0.017-2.393-0.281c-1.006-0.335-2.029-0.864-2.968-1.533
						l0.153-1.521c1.063-0.472,2.171-0.786,3.215-0.911C10.886,41.01,11.073,41,11.257,41c0.61,0,1.175,0.108,1.829,0.234
						l0.444,0.084l0.895-3.516l-0.435-0.14c-0.809-0.259-1.508-0.483-2.189-0.97c-0.857-0.609-1.68-1.417-2.387-2.342l0.596-1.407
						c0.482-0.057,0.967-0.086,1.441-0.086c0.657,0,1.296,0.056,1.899,0.165c0.828,0.151,1.481,0.499,2.237,0.901l0.39,0.207
						l1.894-3.094l-0.373-0.261c-0.698-0.487-1.301-0.909-1.81-1.575c-0.649-0.852-1.197-1.866-1.589-2.939l0.981-1.17
						c1.132,0.206,2.226,0.571,3.171,1.06c0.742,0.383,1.26,0.904,1.859,1.507l0.325,0.325l2.722-2.398l-0.279-0.359
						c-0.523-0.671-0.977-1.251-1.266-2.038c-0.366-0.995-0.586-2.097-0.653-3.278l1.285-0.829c1.034,0.54,1.972,1.211,2.717,1.948
						c0.598,0.592,0.939,1.243,1.335,1.997l0.211,0.399l3.309-1.489l-0.592-1.564c-0.356-1.146-0.302-2.665,0.165-4.506l1.471-0.413
						c0.825,0.815,1.522,1.733,2.023,2.662c0.396,0.735,0.529,1.456,0.685,2.29l0.085,0.455l3.603-0.449l-0.028-0.444
						c-0.056-0.853-0.103-1.59,0.101-2.407c0.265-1.042,0.716-2.103,1.309-3.076l1.527,0.04c0.544,1.013,0.94,2.096,1.149,3.14
						c0.162,0.822,0.076,1.555-0.023,2.403l-0.053,0.446l3.574,0.633l0.104-0.431c0.199-0.832,0.371-1.55,0.808-2.271
						c0.547-0.903,1.291-1.784,2.154-2.554l1.449,0.488c0.223,1.145,0.281,2.296,0.171,3.337c-0.088,0.842-0.39,1.522-0.737,2.309
						l-0.174,0.394l3.23,1.657l0.23-0.389c0.434-0.734,0.809-1.369,1.436-1.924c0.797-0.705,1.767-1.327,2.813-1.805l1.242,0.893
						c-0.2,1.911-0.674,3.359-1.408,4.307l-1.078,1.247l2.598,2.537l0.324-0.295c0.635-0.577,1.182-1.076,1.949-1.424
						c0.963-0.437,2.073-0.746,3.221-0.897l0.92,1.22c-0.445,1.049-1.045,2.033-1.737,2.854c-0.539,0.639-1.162,1.028-1.884,1.478
						l-0.389,0.243l1.73,3.188l0.414-0.193c0.771-0.361,1.438-0.673,2.268-0.779c0.424-0.055,0.866-0.082,1.315-0.082
						c0.659,0,1.341,0.059,2.024,0.174l0.521,1.438c-0.758,0.892-1.62,1.655-2.501,2.214c-0.718,0.453-1.433,0.643-2.261,0.863
						l-0.42,0.111l0.717,3.558l0.455-0.063c0.537-0.076,1.047-0.147,1.557-0.147c0.291,0,0.564,0.023,0.835,0.07
						c1.044,0.183,2.136,0.554,3.166,1.076l0.075,1.525c-0.977,0.623-2.026,1.099-3.044,1.379c-0.458,0.126-0.931,0.183-1.527,0.183
						c-0.28,0-0.567-0.011-0.864-0.023l-0.455-0.018l-0.367,3.611l0.431,0.068c0.849,0.137,1.582,0.254,2.335,0.637
						c0.941,0.479,1.852,1.137,2.706,1.959l-0.377,1.48c-1.03,0.28-2.058,0.424-3.052,0.424l-0.266-0.004
						c-0.83-0.021-1.519-0.265-2.313-0.547l-0.447-0.158l-1.412,3.344l0.426,0.211c0.756,0.374,1.409,0.697,2.004,1.277
						c0.765,0.746,1.457,1.666,2.013,2.67l-0.8,1.305c-1.164-0.037-2.299-0.235-3.291-0.577c-0.801-0.274-1.396-0.717-2.086-1.229
						l-0.346-0.258l-2.337,2.779l1.212,1.152c0.816,0.873,1.43,2.267,1.809,4.131l-1.147,1.01c-1.106-0.38-2.134-0.904-2.976-1.52
						c-0.686-0.504-1.127-1.104-1.637-1.799l-0.25-0.34l-3.052,1.967l0.222,0.393c0.42,0.743,0.781,1.385,0.951,2.208
						c0.213,1.032,0.266,2.185,0.156,3.339l-1.395,0.628c-0.932-0.68-1.758-1.483-2.396-2.332c-0.499-0.661-0.736-1.348-1.014-2.144
						l-0.159-0.455l-3.493,0.98l0.102,0.465c0.18,0.825,0.334,1.539,0.25,2.361c-0.106,1.074-0.396,2.191-0.834,3.238L41.716,77.057
						z M45.277,44.272l0.025,0.169c0.51,3.245-1.322,6.388-4.347,7.532l-0.161,0.061v14.046l0.28-0.034
						c0.981-0.12,1.884-0.292,2.76-0.525c4.431-1.179,8.256-3.738,11.062-7.4l0.146-0.189l-0.184-0.154
						c-0.957-0.808-1.198-2.18-0.572-3.262c0.459-0.795,1.314-1.289,2.236-1.289c0.289,0,0.574,0.049,0.848,0.145l0.227,0.078
						l0.088-0.221c1.678-4.185,1.957-8.68,0.809-13c-0.221-0.829-0.523-1.688-0.956-2.706l-0.11-0.26L45.277,44.272z M21.31,53.221
						c0.922,0,1.78,0.495,2.239,1.293c0.346,0.598,0.438,1.293,0.259,1.959c-0.179,0.666-0.606,1.225-1.206,1.569l-0.27,0.142
						l0.066,0.293c3.33,4.145,8.271,6.902,13.558,7.566l0.281,0.035V52.018l-0.161-0.063c-2.315-0.885-3.986-2.941-4.36-5.368
						c-0.105-0.68-0.098-1.399,0.022-2.139l0.027-0.17l-12.153-7.017l-0.11,0.26c-1.813,4.282-2.146,8.896-0.962,13.343
						c0.225,0.843,0.526,1.704,0.95,2.71l0.119,0.283l0.254-0.174l0.156-0.115C20.412,53.341,20.858,53.221,21.31,53.221z
						 M38.512,38.664c1.564,0,3.104,0.554,4.335,1.56l0.135,0.109l12.158-7.019l-0.17-0.226c-3.248-4.278-7.931-7.1-13.187-7.945
						l-0.282-0.045l-0.008,0.285c-0.039,1.409-1.172,2.513-2.576,2.513c-1.424,0-2.583-1.159-2.583-2.584l0.088-0.353l-0.365,0.082
						c-1.103,0.133-2.012,0.301-2.862,0.527c-4.467,1.19-8.316,3.79-11.132,7.52l-0.171,0.226l12.149,7.015l0.134-0.11
						c0.949-0.779,2.088-1.289,3.293-1.475C37.814,38.691,38.165,38.664,38.512,38.664z"/>
					<path fill="#FFFFFF" d="M38.776,14.736l1.236,0.032c0.496,0.955,0.86,1.966,1.057,2.942c0.154,0.784,0.07,1.499-0.026,2.326
						l-0.024,0.212l-0.055,0.468l0.465,0.082l3.109,0.551L45,21.431l0.111-0.457l0.049-0.203c0.193-0.812,0.361-1.513,0.777-2.2
						c0.512-0.845,1.199-1.67,2-2.401l1.172,0.395c0.195,1.074,0.244,2.147,0.142,3.122c-0.085,0.803-0.378,1.466-0.718,2.234
						L48.455,22.1l-0.189,0.432l0.418,0.215l2.813,1.442l0.419,0.215l0.238-0.405l0.111-0.188c0.422-0.716,0.787-1.334,1.385-1.864
						c0.744-0.659,1.646-1.245,2.619-1.704l1.006,0.722c-0.203,1.792-0.653,3.148-1.325,4.016l-0.933,1.079l-0.309,0.356
						l0.338,0.329l2.26,2.208l0.338,0.329l0.349-0.317l0.151-0.138c0.617-0.563,1.149-1.049,1.883-1.38
						c0.9-0.409,1.935-0.704,3.006-0.857l0.744,0.987c-0.43,0.977-0.993,1.891-1.643,2.658c-0.514,0.609-1.121,0.988-1.824,1.427
						l-0.189,0.119l-0.396,0.25l0.224,0.413l1.507,2.775l0.225,0.413l0.426-0.199l0.203-0.094c0.75-0.352,1.4-0.656,2.191-0.757
						c0.413-0.053,0.846-0.08,1.284-0.08c0.601,0,1.218,0.049,1.839,0.147l0.423,1.162c-0.719,0.826-1.526,1.533-2.351,2.055
						c-0.684,0.433-1.383,0.618-2.19,0.833l-0.192,0.051l-0.453,0.121l0.093,0.46l0.623,3.097l0.093,0.461l0.466-0.064l0.224-0.031
						c0.529-0.074,1.029-0.145,1.522-0.145c0.274,0,0.535,0.021,0.791,0.066c0.978,0.171,1.996,0.511,2.968,0.987l0.061,1.233
						c-0.922,0.572-1.902,1.009-2.854,1.272c-0.437,0.12-0.888,0.173-1.462,0.173c-0.278,0-0.562-0.011-0.854-0.022l-0.223-0.01
						l-0.47-0.018l-0.048,0.467l-0.318,3.145l-0.047,0.469l0.465,0.074l0.197,0.033c0.828,0.131,1.543,0.246,2.262,0.611
						c0.881,0.448,1.734,1.059,2.541,1.816l-0.305,1.195c-0.962,0.252-1.918,0.379-2.846,0.379c-0.086,0-0.172-0.002-0.26-0.004
						c-0.791-0.02-1.461-0.257-2.234-0.531l-0.227-0.08l-0.443-0.156l-0.184,0.434l-1.229,2.909l-0.185,0.433l0.422,0.209
						l0.215,0.106c0.738,0.365,1.375,0.681,1.939,1.231c0.715,0.697,1.367,1.553,1.898,2.486l-0.646,1.055
						c-1.09-0.047-2.146-0.238-3.074-0.559c-0.764-0.262-1.344-0.693-2.018-1.193l-0.156-0.118l-0.379-0.28l-0.303,0.359
						l-2.033,2.42l-0.303,0.361l0.342,0.323l0.596,0.566l0.424,0.401c0.775,0.828,1.355,2.131,1.729,3.879l-0.93,0.817
						c-1.032-0.368-1.985-0.862-2.771-1.437c-0.656-0.481-1.086-1.067-1.584-1.746l-0.111-0.15l-0.277-0.378l-0.396,0.254
						l-2.656,1.712L50.508,68.1l0.23,0.409l0.104,0.187c0.409,0.726,0.765,1.352,0.925,2.137c0.198,0.966,0.256,2.039,0.166,3.12
						l-1.129,0.508c-0.863-0.647-1.63-1.401-2.227-2.194c-0.477-0.63-0.708-1.3-0.979-2.076l-0.08-0.233l-0.156-0.442l-0.45,0.127
						l-3.041,0.854l-0.453,0.127l0.101,0.459l0.051,0.236c0.176,0.805,0.326,1.5,0.246,2.285c-0.101,1.004-0.363,2.047-0.762,3.032
						l-1.226,0.153c-0.634-0.869-1.146-1.814-1.481-2.752c-0.271-0.745-0.293-1.458-0.322-2.282l-0.008-0.237L40,71.05l-0.471-0.012
						l-3.157-0.08l-0.47-0.013l-0.041,0.469l-0.02,0.232c-0.07,0.823-0.129,1.535-0.439,2.265c-0.391,0.929-0.949,1.848-1.62,2.673
						l-1.217-0.215c-0.36-1.053-0.563-2.082-0.603-3.067c-0.037-0.805,0.152-1.502,0.371-2.31l0.053-0.193l0.123-0.454l-0.445-0.149
						l-2.994-1.01l-0.445-0.149l-0.177,0.435l-0.084,0.207c-0.312,0.77-0.581,1.434-1.093,2.047
						c-0.637,0.766-1.44,1.479-2.334,2.076l-1.102-0.564c-0.033-1.086,0.078-2.156,0.328-3.109c0.201-0.777,0.588-1.386,1.035-2.091
						l0.11-0.175l0.251-0.398l-0.382-0.275l-2.564-1.847l-0.382-0.274l-0.297,0.363l-0.132,0.161
						c-0.527,0.647-0.983,1.207-1.657,1.646c-0.822,0.537-1.801,0.981-2.843,1.293l-0.883-0.861
						c0.295-1.072,0.706-2.038,1.225-2.875c0.423-0.682,0.971-1.148,1.604-1.689l0.161-0.139l0.357-0.306l-0.284-0.375l-1.906-2.521
						l-0.284-0.375l-0.392,0.26l-0.187,0.123c-0.689,0.461-1.285,0.857-2.054,1.076c-0.929,0.264-1.937,0.398-2.997,0.398
						c-0.034,0-0.067,0-0.101,0l-0.592-1.086c0.576-0.907,1.27-1.727,2.02-2.385c0.6-0.523,1.256-0.808,2.016-1.135l0.21-0.092
						l0.431-0.188l-0.16-0.442l-1.079-2.97l-0.16-0.442l-0.451,0.134l-0.209,0.062c-0.767,0.228-1.429,0.424-2.188,0.424
						l-0.098-0.001c-0.992-0.021-2.051-0.204-3.077-0.531L7.98,51.382c0.825-0.7,1.731-1.28,2.634-1.684
						c0.732-0.325,1.445-0.403,2.272-0.494l0.214-0.022l0.468-0.053l-0.022-0.47l-0.156-3.155l-0.023-0.469l-0.471-0.006
						l-0.211-0.002c-0.834-0.008-1.555-0.016-2.314-0.268c-0.941-0.313-1.898-0.8-2.784-1.416l0.124-1.23
						c0.999-0.43,2.034-0.716,3.01-0.833c0.178-0.021,0.354-0.031,0.536-0.031c0.587,0,1.141,0.106,1.782,0.229l0.213,0.041
						l0.463,0.087l0.115-0.455l0.779-3.061l0.116-0.455l-0.446-0.145l-0.213-0.068c-0.789-0.253-1.471-0.471-2.121-0.936
						c-0.801-0.569-1.572-1.318-2.244-2.175l0.482-1.138c0.424-0.045,0.85-0.068,1.268-0.068c0.643,0,1.266,0.054,1.854,0.161
						c0.79,0.145,1.427,0.484,2.165,0.876l0.182,0.097l0.416,0.22l0.244-0.401l1.648-2.693l0.246-0.401l-0.385-0.27l-0.182-0.127
						c-0.68-0.475-1.268-0.886-1.753-1.521c-0.607-0.797-1.124-1.739-1.503-2.738l0.794-0.947c1.058,0.206,2.075,0.553,2.959,1.01
						c0.707,0.365,1.212,0.873,1.797,1.461l0.159,0.159l0.332,0.333l0.352-0.311l2.369-2.088l0.354-0.311l-0.289-0.371l-0.135-0.174
						c-0.512-0.655-0.952-1.22-1.229-1.971c-0.338-0.917-0.553-1.97-0.629-3.061l1.039-0.67c0.962,0.516,1.832,1.147,2.528,1.836
						c0.569,0.564,0.903,1.2,1.29,1.935l0.101,0.192l0.22,0.416l0.428-0.193l2.881-1.297l0.428-0.192l-0.164-0.439
						c-0.169-0.449-0.339-0.897-0.5-1.317c-0.338-1.085-0.295-2.513,0.129-4.245l1.189-0.334c0.763,0.772,1.408,1.631,1.877,2.5
						c0.377,0.701,0.508,1.403,0.658,2.216l0.042,0.225l0.087,0.462l0.467-0.058l3.135-0.391l0.467-0.058l-0.029-0.469l-0.014-0.21
						c-0.054-0.833-0.1-1.551,0.094-2.329C37.817,16.646,38.232,15.654,38.776,14.736 M34.067,40.631l0.268-0.219
						c0.914-0.751,2.011-1.242,3.172-1.421c0.333-0.051,0.671-0.077,1.005-0.077c1.507,0,2.99,0.534,4.177,1.503l0.269,0.218
						l0.299-0.172l11.765-6.791l0.492-0.284l-0.344-0.452c-3.286-4.33-8.025-7.185-13.345-8.041l-0.563-0.09l-0.017,0.57
						c-0.035,1.273-1.058,2.271-2.326,2.271c-1.27,0-2.307-1.021-2.332-2.286l0.164-0.655l-0.723,0.087
						c-1.113,0.135-2.034,0.305-2.896,0.535c-4.521,1.204-8.418,3.836-11.268,7.61l-0.34,0.452l0.489,0.283l11.755,6.787
						L34.067,40.631 M40.546,66.361l0.562-0.068c0.992-0.122,1.906-0.295,2.793-0.532c4.484-1.192,8.355-3.784,11.195-7.489
						l0.291-0.379l-0.365-0.309c-0.864-0.729-1.082-1.968-0.518-2.945c0.414-0.719,1.188-1.164,2.02-1.164
						c0.263,0,0.52,0.043,0.767,0.129l0.45,0.156l0.178-0.443c1.698-4.232,1.98-8.782,0.816-13.156
						c-0.223-0.84-0.53-1.71-0.967-2.739L57.547,36.9l-0.49,0.283L45.301,43.97l-0.297,0.171l0.053,0.338
						c0.004,0.024,0.008,0.047,0.012,0.057c0.479,3.071-1.286,6.101-4.198,7.202l-0.323,0.121v0.347v13.591L40.546,66.361
						 M19.499,54.238l0.507-0.35c0.029-0.021,0.059-0.044,0.088-0.066c0.017-0.014,0.032-0.027,0.051-0.038
						c0.355-0.205,0.758-0.313,1.164-0.313c0.834,0,1.609,0.447,2.024,1.168c0.312,0.538,0.395,1.166,0.233,1.769
						s-0.549,1.106-1.102,1.422c-0.034,0.014-0.068,0.028-0.103,0.046l-0.54,0.282l0.382,0.475c3.37,4.195,8.37,6.987,13.721,7.659
						l0.563,0.07v-0.566V52.189v-0.345l-0.321-0.122c-2.232-0.854-3.843-2.834-4.203-5.174c-0.102-0.653-0.094-1.347,0.021-2.061
						l0.056-0.341l-0.299-0.172l-11.759-6.789l-0.49-0.283l-0.221,0.521c-1.836,4.333-2.172,9.003-0.973,13.504
						c0.227,0.854,0.533,1.727,0.961,2.742L19.499,54.238 M38.5,14.229c-0.627,1.001-1.124,2.124-1.414,3.269
						c-0.23,0.923-0.154,1.742-0.095,2.692l-3.136,0.391c-0.176-0.936-0.301-1.749-0.752-2.586c-0.561-1.041-1.32-2.001-2.172-2.823
						l-1.748,0.491c-0.389,1.479-0.658,3.302-0.192,4.797c0.171,0.448,0.341,0.896,0.509,1.344L26.619,23.1
						c-0.445-0.844-0.805-1.579-1.481-2.249c-0.841-0.831-1.854-1.524-2.907-2.059l-1.527,0.986c0.055,1.18,0.267,2.385,0.676,3.496
						c0.328,0.893,0.854,1.526,1.438,2.278l-2.369,2.088c-0.672-0.673-1.236-1.276-2.08-1.712c-1.051-0.543-2.219-0.911-3.385-1.109
						l-1.166,1.391c0.391,1.113,0.959,2.204,1.674,3.142c0.577,0.756,1.266,1.207,2.045,1.754l-1.648,2.693
						c-0.842-0.446-1.557-0.853-2.491-1.023c-0.636-0.115-1.29-0.169-1.944-0.169c-0.543,0-1.085,0.037-1.615,0.106l-0.708,1.673
						c0.706,0.946,1.563,1.824,2.527,2.51c0.774,0.553,1.565,0.78,2.47,1.072l-0.779,3.061c-0.735-0.139-1.387-0.279-2.089-0.279
						c-0.193,0-0.391,0.011-0.595,0.035c-1.174,0.14-2.348,0.499-3.42,0.99l-0.182,1.808c0.951,0.696,2.033,1.28,3.152,1.652
						c0.902,0.299,1.727,0.284,2.678,0.296l0.156,3.154c-0.947,0.105-1.766,0.172-2.635,0.559c-1.08,0.482-2.096,1.168-2.979,1.954
						l0.359,1.78c1.114,0.387,2.32,0.625,3.5,0.648c0.036,0.001,0.071,0.001,0.107,0.001c0.904,0,1.66-0.248,2.539-0.507l1.079,2.97
						c-0.874,0.38-1.64,0.683-2.355,1.31c-0.888,0.779-1.659,1.732-2.268,2.744l0.868,1.598c0.133,0.004,0.268,0.006,0.401,0.006
						c1.053,0,2.126-0.131,3.134-0.418c0.916-0.26,1.587-0.737,2.38-1.264l1.907,2.521c-0.725,0.621-1.363,1.136-1.865,1.944
						c-0.623,1.006-1.068,2.146-1.357,3.292l1.299,1.27c1.139-0.313,2.27-0.791,3.258-1.436c0.798-0.521,1.299-1.173,1.902-1.91
						l2.564,1.847C24.377,68.4,23.918,69.081,23.68,70c-0.299,1.145-0.395,2.367-0.33,3.547l1.617,0.83
						c0.996-0.631,1.934-1.426,2.689-2.333c0.609-0.731,0.895-1.501,1.255-2.385l2.993,1.009c-0.248,0.92-0.484,1.706-0.441,2.656
						c0.049,1.183,0.322,2.377,0.729,3.486l1.789,0.315c0.77-0.899,1.424-1.933,1.883-3.022c0.371-0.875,0.414-1.701,0.496-2.646
						l3.158,0.08c0.035,0.949,0.037,1.775,0.359,2.67c0.402,1.113,1.006,2.175,1.727,3.115l1.801-0.225
						c0.472-1.087,0.793-2.268,0.91-3.443c0.097-0.944-0.106-1.748-0.307-2.676l3.041-0.854c0.314,0.897,0.559,1.687,1.131,2.444
						c0.711,0.945,1.604,1.783,2.566,2.469l1.658-0.747c0.125-1.174,0.092-2.399-0.146-3.558c-0.191-0.933-0.617-1.638-1.084-2.467
						l2.656-1.713c0.566,0.771,1.033,1.439,1.801,2.004c0.953,0.696,2.063,1.23,3.18,1.602l1.365-1.201
						c-0.293-1.5-0.842-3.264-1.91-4.404c-0.348-0.33-0.692-0.66-1.041-0.99l2.033-2.418c0.766,0.566,1.411,1.073,2.311,1.383
						c1.117,0.385,2.332,0.57,3.511,0.594l0.95-1.551c-0.561-1.043-1.278-2.029-2.127-2.856c-0.68-0.664-1.432-1.006-2.281-1.429
						l1.229-2.91c0.896,0.314,1.664,0.616,2.615,0.641c0.09,0.002,0.182,0.004,0.271,0.004c1.096,0,2.207-0.174,3.258-0.473
						l0.449-1.761c-0.844-0.828-1.816-1.567-2.871-2.104c-0.848-0.431-1.664-0.539-2.605-0.69l0.318-3.144
						c0.381,0.014,0.742,0.031,1.096,0.031c0.529,0,1.044-0.04,1.594-0.191c1.137-0.313,2.244-0.84,3.234-1.487l-0.09-1.813
						c-1.049-0.546-2.201-0.961-3.365-1.165c-0.303-0.053-0.592-0.074-0.878-0.074c-0.599,0-1.177,0.092-1.813,0.18l-0.623-3.097
						c0.922-0.246,1.718-0.435,2.522-0.944c0.997-0.633,1.897-1.468,2.651-2.375l-0.621-1.709C67.27,34.073,66.525,34,65.782,34
						c-0.452,0-0.903,0.027-1.349,0.084c-0.942,0.121-1.678,0.492-2.541,0.895l-1.508-2.775c0.807-0.505,1.52-0.92,2.133-1.646
						c0.762-0.901,1.385-1.96,1.832-3.051l-1.095-1.45c-1.174,0.141-2.356,0.446-3.437,0.936c-0.866,0.393-1.461,0.965-2.164,1.604
						l-2.26-2.208l0.933-1.079c0.96-1.238,1.327-3.057,1.474-4.579l-1.476-1.062c-1.08,0.479-2.121,1.121-3.007,1.905
						c-0.713,0.63-1.11,1.354-1.596,2.171l-2.813-1.442c0.385-0.874,0.736-1.616,0.836-2.562c0.125-1.175,0.035-2.399-0.203-3.555
						l-1.723-0.58c-0.891,0.775-1.699,1.696-2.313,2.708c-0.491,0.813-0.659,1.615-0.885,2.544l-3.11-0.551
						c0.108-0.945,0.229-1.762,0.045-2.693c-0.232-1.16-0.674-2.302-1.244-3.337L38.5,14.229L38.5,14.229z M34.018,40.025
						l-11.755-6.787c2.649-3.51,6.419-6.209,10.997-7.429c0.941-0.251,1.887-0.407,2.828-0.521
						c-0.002,0.008-0.003,0.015-0.003,0.023c0,1.564,1.269,2.834,2.833,2.834c1.539,0,2.783-1.229,2.826-2.756
						c5.178,0.833,9.85,3.663,13.025,7.849L43.006,40.03c-1.242-1.014-2.814-1.616-4.494-1.616c-0.356,0-0.717,0.027-1.081,0.083
						C36.127,38.698,34.967,39.246,34.018,40.025L34.018,40.025z M41.046,65.796v-13.59c3.085-1.166,5.046-4.353,4.517-7.747
						c-0.004-0.019-0.008-0.037-0.012-0.056l11.756-6.787c0.365,0.861,0.697,1.743,0.945,2.673
						c1.178,4.428,0.785,8.895-0.799,12.842c-0.305-0.105-0.619-0.156-0.93-0.156c-0.979,0-1.93,0.506-2.453,1.414
						c-0.697,1.206-0.4,2.709,0.629,3.577c-2.646,3.454-6.396,6.104-10.928,7.312C42.863,65.52,41.953,65.686,41.046,65.796
						L41.046,65.796z M19.721,53.477c-0.363-0.861-0.691-1.746-0.939-2.677c-1.214-4.558-0.756-9.151,0.951-13.181l11.759,6.789
						c-0.116,0.717-0.14,1.46-0.022,2.217c0.404,2.625,2.201,4.678,4.519,5.563v13.606c-5.261-0.661-10.081-3.353-13.394-7.476
						c0.044-0.023,0.09-0.036,0.133-0.062c1.357-0.782,1.822-2.516,1.039-3.87c-0.523-0.91-1.477-1.418-2.457-1.418
						c-0.48,0-0.968,0.123-1.414,0.381C19.831,53.389,19.779,53.438,19.721,53.477L19.721,53.477z"/>
				</g>
				<circle fill="#3B82FF" stroke="#FFFFFF" stroke-width="0.5" stroke-miterlimit="10" cx="38.918" cy="25.312" r="1.133"/>
				<circle fill="#3B82FF" stroke="#FFFFFF" stroke-width="0.5" stroke-miterlimit="10" cx="56.523" cy="55.805" r="1.133"/>
				<circle fill="#3B82FF" stroke="#FFFFFF" stroke-width="0.5" stroke-miterlimit="10" cx="21.311" cy="55.805" r="1.133"/>
			</g>
			<g>
				<path fill="#3B82FF" d="M38.513,50.294c-2.32,0-4.337-1.733-4.69-4.03c-0.397-2.586,1.384-5.014,3.97-5.414
					c0.246-0.038,0.49-0.056,0.731-0.056c2.358,0,4.33,1.693,4.686,4.026c0.194,1.252-0.108,2.504-0.854,3.525
					c-0.75,1.026-1.857,1.698-3.117,1.894C38.994,50.275,38.751,50.294,38.513,50.294z"/>
				<path fill="#FFFFFF" d="M38.523,41.044L38.523,41.044c2.234,0,4.101,1.604,4.438,3.816c0.186,1.186-0.104,2.371-0.811,3.338
					c-0.711,0.972-1.76,1.608-2.953,1.793c-0.227,0.034-0.458,0.053-0.688,0.053c-2.197,0-4.107-1.642-4.442-3.817
					c-0.376-2.451,1.311-4.75,3.761-5.129C38.06,41.063,38.293,41.044,38.523,41.044 M38.523,40.544
					c-0.254,0-0.512,0.019-0.77,0.059c-2.727,0.421-4.598,2.972-4.179,5.699c0.38,2.47,2.513,4.242,4.937,4.242
					c0.252,0,0.508-0.019,0.764-0.06c2.729-0.42,4.606-2.969,4.181-5.702C43.078,42.311,40.951,40.544,38.523,40.544L38.523,40.544z
					"/>
			</g>
		</g>
	</g>
</g>
<g id="titulo" display="none">
</g>
<g id="screenshots" display="none">
</g>
<g id="fondo_negro" display="none">
</g>
<g id="imagenes" display="none">
</g>
<g id="graficas" display="none">
</g>
<g id="texto" display="none">
</g>
<g id="bienvenido" display="none">
</g>
<g id="bocetos" display="none">
</g>
<g id="notas" display="none">
</g>
</svg>
