<?xml version="1.0" encoding="utf-8"?>
<!-- Generator: Adobe Illustrator 16.0.0, SVG Export Plug-In . SVG Version: 6.00 Build 0)  -->
<!DOCTYPE svg PUBLIC "-//W3C//DTD SVG 1.1//EN" "http://www.w3.org/Graphics/SVG/1.1/DTD/svg11.dtd">
<svg version="1.1" xmlns="http://www.w3.org/2000/svg" xmlns:xlink="http://www.w3.org/1999/xlink" x="0px" y="0px" width="4px"
	 height="322px" viewBox="0 0 4 322" enable-background="new 0 0 4 322" xml:space="preserve">
<g id="exportaciones">
	
		<line display="none" fill="none" stroke="#8A8A8A" stroke-width="2" stroke-miterlimit="10" x1="-130.605" y1="176.752" x2="23.866" y2="152.97"/>
	
		<line display="none" fill="none" stroke="#8A8A8A" stroke-width="2" stroke-miterlimit="10" x1="-129.266" y1="206.69" x2="27.582" y2="170.654"/>
	<g display="none">
		<g display="inline">
			
				<rect x="-54.37" y="86.715" transform="matrix(0.1524 0.9883 -0.9883 0.1524 117.6981 192.4912)" fill="#8A8A8A" stroke="#000000" stroke-width="0.5" stroke-miterlimit="10" width="2" height="156.292"/>
		</g>
		
			<line display="inline" fill="none" stroke="#000000" stroke-width="0.5" stroke-miterlimit="10" x1="2.407" y1="155.252" x2="1.161" y2="157.467"/>
	</g>
	<g>
		<rect x="0.833" y="1" fill="#8A8A8A" stroke="#000000" stroke-width="0.5" stroke-miterlimit="10" width="2.333" height="320"/>
		<line fill="none" stroke="#000000" stroke-width="0.5" stroke-miterlimit="10" x1="0.833" y1="4.4" x2="3.166" y2="5.951"/>
		<line fill="none" stroke="#000000" stroke-width="0.5" stroke-miterlimit="10" x1="0.833" y1="7.717" x2="3.166" y2="9.268"/>
		<line fill="none" stroke="#000000" stroke-width="0.5" stroke-miterlimit="10" x1="0.833" y1="14.349" x2="3.166" y2="15.9"/>
		<line fill="none" stroke="#000000" stroke-width="0.5" stroke-miterlimit="10" x1="0.833" y1="20.982" x2="3.166" y2="22.533"/>
		<line fill="none" stroke="#000000" stroke-width="0.5" stroke-miterlimit="10" x1="0.833" y1="27.614" x2="3.166" y2="29.165"/>
		<line fill="none" stroke="#000000" stroke-width="0.5" stroke-miterlimit="10" x1="0.833" y1="34.247" x2="3.166" y2="35.798"/>
		<line fill="none" stroke="#000000" stroke-width="0.5" stroke-miterlimit="10" x1="0.833" y1="47.512" x2="3.166" y2="49.063"/>
		<line fill="none" stroke="#000000" stroke-width="0.5" stroke-miterlimit="10" x1="0.833" y1="60.777" x2="3.166" y2="62.328"/>
		<line fill="none" stroke="#000000" stroke-width="0.5" stroke-miterlimit="10" x1="0.833" y1="74.043" x2="3.166" y2="75.594"/>
		<line fill="none" stroke="#000000" stroke-width="0.5" stroke-miterlimit="10" x1="0.833" y1="87.308" x2="3.166" y2="88.859"/>
		<line fill="none" stroke="#000000" stroke-width="0.5" stroke-miterlimit="10" x1="0.833" y1="100.573" x2="3.166" y2="102.124"/>
		<line fill="none" stroke="#000000" stroke-width="0.5" stroke-miterlimit="10" x1="0.833" y1="113.838" x2="3.166" y2="115.389"/>
		<line fill="none" stroke="#000000" stroke-width="0.5" stroke-miterlimit="10" x1="0.833" y1="127.104" x2="3.166" y2="128.654"/>
		<line fill="none" stroke="#000000" stroke-width="0.5" stroke-miterlimit="10" x1="0.833" y1="140.369" x2="3.166" y2="141.919"/>
		<line fill="none" stroke="#000000" stroke-width="0.5" stroke-miterlimit="10" x1="0.833" y1="153.634" x2="3.166" y2="155.185"/>
		<line fill="none" stroke="#000000" stroke-width="0.5" stroke-miterlimit="10" x1="0.833" y1="166.899" x2="3.166" y2="168.45"/>
		<line fill="none" stroke="#000000" stroke-width="0.5" stroke-miterlimit="10" x1="0.833" y1="180.165" x2="3.166" y2="181.715"/>
		<line fill="none" stroke="#000000" stroke-width="0.5" stroke-miterlimit="10" x1="0.833" y1="193.43" x2="3.166" y2="194.98"/>
		<line fill="none" stroke="#000000" stroke-width="0.5" stroke-miterlimit="10" x1="0.833" y1="206.695" x2="3.166" y2="208.246"/>
		<line fill="none" stroke="#000000" stroke-width="0.5" stroke-miterlimit="10" x1="0.833" y1="219.96" x2="3.166" y2="221.511"/>
		<line fill="none" stroke="#000000" stroke-width="0.5" stroke-miterlimit="10" x1="0.833" y1="233.226" x2="3.166" y2="234.776"/>
		<line fill="none" stroke="#000000" stroke-width="0.5" stroke-miterlimit="10" x1="0.833" y1="246.49" x2="3.166" y2="248.041"/>
		<line fill="none" stroke="#000000" stroke-width="0.5" stroke-miterlimit="10" x1="0.833" y1="259.756" x2="3.166" y2="261.307"/>
		<line fill="none" stroke="#000000" stroke-width="0.5" stroke-miterlimit="10" x1="0.833" y1="273.021" x2="3.166" y2="274.572"/>
		<line fill="none" stroke="#000000" stroke-width="0.5" stroke-miterlimit="10" x1="0.833" y1="286.286" x2="3.166" y2="287.837"/>
		<line fill="none" stroke="#000000" stroke-width="0.5" stroke-miterlimit="10" x1="0.833" y1="299.551" x2="3.166" y2="301.102"/>
		<line fill="none" stroke="#000000" stroke-width="0.5" stroke-miterlimit="10" x1="0.833" y1="306.184" x2="3.166" y2="307.735"/>
		<line fill="none" stroke="#000000" stroke-width="0.5" stroke-miterlimit="10" x1="0.833" y1="312.816" x2="3.166" y2="314.367"/>
		<line fill="none" stroke="#000000" stroke-width="0.5" stroke-miterlimit="10" x1="0.833" y1="40.88" x2="3.166" y2="42.431"/>
		<line fill="none" stroke="#000000" stroke-width="0.5" stroke-miterlimit="10" x1="0.833" y1="54.145" x2="3.166" y2="55.696"/>
		<line fill="none" stroke="#000000" stroke-width="0.5" stroke-miterlimit="10" x1="0.833" y1="67.41" x2="3.166" y2="68.961"/>
		<line fill="none" stroke="#000000" stroke-width="0.5" stroke-miterlimit="10" x1="0.833" y1="80.675" x2="3.166" y2="82.226"/>
		<line fill="none" stroke="#000000" stroke-width="0.5" stroke-miterlimit="10" x1="0.833" y1="93.94" x2="3.166" y2="95.491"/>
		<line fill="none" stroke="#000000" stroke-width="0.5" stroke-miterlimit="10" x1="0.833" y1="107.206" x2="3.166" y2="108.756"/>
		<line fill="none" stroke="#000000" stroke-width="0.5" stroke-miterlimit="10" x1="0.833" y1="120.471" x2="3.166" y2="122.021"/>
		<line fill="none" stroke="#000000" stroke-width="0.5" stroke-miterlimit="10" x1="0.833" y1="133.736" x2="3.166" y2="135.287"/>
		<line fill="none" stroke="#000000" stroke-width="0.5" stroke-miterlimit="10" x1="0.833" y1="147.001" x2="3.166" y2="148.552"/>
		<line fill="none" stroke="#000000" stroke-width="0.5" stroke-miterlimit="10" x1="0.833" y1="160.267" x2="3.166" y2="161.817"/>
		<line fill="none" stroke="#000000" stroke-width="0.5" stroke-miterlimit="10" x1="0.833" y1="173.532" x2="3.166" y2="175.083"/>
		<line fill="none" stroke="#000000" stroke-width="0.5" stroke-miterlimit="10" x1="0.833" y1="186.797" x2="3.166" y2="188.348"/>
		<line fill="none" stroke="#000000" stroke-width="0.5" stroke-miterlimit="10" x1="0.833" y1="200.063" x2="3.166" y2="201.613"/>
		<line fill="none" stroke="#000000" stroke-width="0.5" stroke-miterlimit="10" x1="0.833" y1="213.328" x2="3.166" y2="214.878"/>
		<line fill="none" stroke="#000000" stroke-width="0.5" stroke-miterlimit="10" x1="0.833" y1="226.593" x2="3.166" y2="228.144"/>
		<line fill="none" stroke="#000000" stroke-width="0.5" stroke-miterlimit="10" x1="0.833" y1="239.858" x2="3.166" y2="241.409"/>
		<line fill="none" stroke="#000000" stroke-width="0.5" stroke-miterlimit="10" x1="0.833" y1="253.123" x2="3.166" y2="254.674"/>
		<line fill="none" stroke="#000000" stroke-width="0.5" stroke-miterlimit="10" x1="0.833" y1="266.388" x2="3.166" y2="267.939"/>
		<line fill="none" stroke="#000000" stroke-width="0.5" stroke-miterlimit="10" x1="0.833" y1="279.653" x2="3.166" y2="281.204"/>
		<line fill="none" stroke="#000000" stroke-width="0.5" stroke-miterlimit="10" x1="0.833" y1="292.919" x2="3.166" y2="294.47"/>
		<line fill="none" stroke="#000000" stroke-width="0.5" stroke-miterlimit="10" x1="0.833" y1="1.084" x2="3.166" y2="2.635"/>
		<line fill="none" stroke="#000000" stroke-width="0.5" stroke-miterlimit="10" x1="0.833" y1="11.033" x2="3.166" y2="12.583"/>
		<line fill="none" stroke="#000000" stroke-width="0.5" stroke-miterlimit="10" x1="0.833" y1="17.666" x2="3.166" y2="19.216"/>
		<line fill="none" stroke="#000000" stroke-width="0.5" stroke-miterlimit="10" x1="0.833" y1="24.298" x2="3.166" y2="25.849"/>
		<line fill="none" stroke="#000000" stroke-width="0.5" stroke-miterlimit="10" x1="0.833" y1="30.931" x2="3.166" y2="32.481"/>
		<line fill="none" stroke="#000000" stroke-width="0.5" stroke-miterlimit="10" x1="0.833" y1="37.563" x2="3.166" y2="39.114"/>
		<line fill="none" stroke="#000000" stroke-width="0.5" stroke-miterlimit="10" x1="0.833" y1="50.829" x2="3.166" y2="52.379"/>
		<line fill="none" stroke="#000000" stroke-width="0.5" stroke-miterlimit="10" x1="0.833" y1="64.094" x2="3.166" y2="65.645"/>
		<line fill="none" stroke="#000000" stroke-width="0.5" stroke-miterlimit="10" x1="0.833" y1="77.359" x2="3.166" y2="78.91"/>
		<line fill="none" stroke="#000000" stroke-width="0.5" stroke-miterlimit="10" x1="0.833" y1="90.624" x2="3.166" y2="92.175"/>
		<line fill="none" stroke="#000000" stroke-width="0.5" stroke-miterlimit="10" x1="0.833" y1="103.89" x2="3.166" y2="105.44"/>
		<line fill="none" stroke="#000000" stroke-width="0.5" stroke-miterlimit="10" x1="0.833" y1="117.155" x2="3.166" y2="118.706"/>
		<line fill="none" stroke="#000000" stroke-width="0.5" stroke-miterlimit="10" x1="0.833" y1="130.42" x2="3.166" y2="131.971"/>
		<line fill="none" stroke="#000000" stroke-width="0.5" stroke-miterlimit="10" x1="0.833" y1="143.685" x2="3.166" y2="145.236"/>
		<line fill="none" stroke="#000000" stroke-width="0.5" stroke-miterlimit="10" x1="0.833" y1="156.95" x2="3.166" y2="158.501"/>
		<line fill="none" stroke="#000000" stroke-width="0.5" stroke-miterlimit="10" x1="0.833" y1="170.216" x2="3.166" y2="171.767"/>
		<line fill="none" stroke="#000000" stroke-width="0.5" stroke-miterlimit="10" x1="0.833" y1="183.48" x2="3.166" y2="185.031"/>
		<line fill="none" stroke="#000000" stroke-width="0.5" stroke-miterlimit="10" x1="0.833" y1="196.746" x2="3.166" y2="198.297"/>
		<line fill="none" stroke="#000000" stroke-width="0.5" stroke-miterlimit="10" x1="0.833" y1="210.011" x2="3.166" y2="211.562"/>
		<line fill="none" stroke="#000000" stroke-width="0.5" stroke-miterlimit="10" x1="0.833" y1="223.276" x2="3.166" y2="224.827"/>
		<line fill="none" stroke="#000000" stroke-width="0.5" stroke-miterlimit="10" x1="0.833" y1="236.542" x2="3.166" y2="238.092"/>
		<line fill="none" stroke="#000000" stroke-width="0.5" stroke-miterlimit="10" x1="0.833" y1="249.807" x2="3.166" y2="251.357"/>
		<line fill="none" stroke="#000000" stroke-width="0.5" stroke-miterlimit="10" x1="0.833" y1="263.072" x2="3.166" y2="264.623"/>
		<line fill="none" stroke="#000000" stroke-width="0.5" stroke-miterlimit="10" x1="0.833" y1="276.337" x2="3.166" y2="277.888"/>
		<line fill="none" stroke="#000000" stroke-width="0.5" stroke-miterlimit="10" x1="0.833" y1="289.603" x2="3.166" y2="291.153"/>
		<line fill="none" stroke="#000000" stroke-width="0.5" stroke-miterlimit="10" x1="0.833" y1="302.868" x2="3.166" y2="304.418"/>
		<line fill="none" stroke="#000000" stroke-width="0.5" stroke-miterlimit="10" x1="0.833" y1="309.5" x2="3.166" y2="311.051"/>
		<line fill="none" stroke="#000000" stroke-width="0.5" stroke-miterlimit="10" x1="0.833" y1="316.133" x2="3.166" y2="317.684"/>
		<line fill="none" stroke="#000000" stroke-width="0.5" stroke-miterlimit="10" x1="0.833" y1="44.196" x2="3.166" y2="45.747"/>
		<line fill="none" stroke="#000000" stroke-width="0.5" stroke-miterlimit="10" x1="0.833" y1="57.461" x2="3.166" y2="59.012"/>
		<line fill="none" stroke="#000000" stroke-width="0.5" stroke-miterlimit="10" x1="0.833" y1="70.727" x2="3.166" y2="72.277"/>
		<line fill="none" stroke="#000000" stroke-width="0.5" stroke-miterlimit="10" x1="0.833" y1="83.992" x2="3.166" y2="85.542"/>
		<line fill="none" stroke="#000000" stroke-width="0.5" stroke-miterlimit="10" x1="0.833" y1="97.257" x2="3.166" y2="98.808"/>
		<line fill="none" stroke="#000000" stroke-width="0.5" stroke-miterlimit="10" x1="0.833" y1="110.522" x2="3.166" y2="112.073"/>
		<line fill="none" stroke="#000000" stroke-width="0.5" stroke-miterlimit="10" x1="0.833" y1="123.787" x2="3.166" y2="125.338"/>
		<line fill="none" stroke="#000000" stroke-width="0.5" stroke-miterlimit="10" x1="0.833" y1="137.053" x2="3.166" y2="138.604"/>
		<line fill="none" stroke="#000000" stroke-width="0.5" stroke-miterlimit="10" x1="0.833" y1="150.317" x2="3.166" y2="151.868"/>
		<line fill="none" stroke="#000000" stroke-width="0.5" stroke-miterlimit="10" x1="0.833" y1="163.583" x2="3.166" y2="165.134"/>
		<line fill="none" stroke="#000000" stroke-width="0.5" stroke-miterlimit="10" x1="0.833" y1="176.848" x2="3.166" y2="178.399"/>
		<line fill="none" stroke="#000000" stroke-width="0.5" stroke-miterlimit="10" x1="0.833" y1="190.113" x2="3.166" y2="191.664"/>
		<line fill="none" stroke="#000000" stroke-width="0.5" stroke-miterlimit="10" x1="0.833" y1="203.378" x2="3.166" y2="204.929"/>
		<line fill="none" stroke="#000000" stroke-width="0.5" stroke-miterlimit="10" x1="0.833" y1="216.644" x2="3.166" y2="218.194"/>
		<line fill="none" stroke="#000000" stroke-width="0.5" stroke-miterlimit="10" x1="0.833" y1="229.909" x2="3.166" y2="231.46"/>
		<line fill="none" stroke="#000000" stroke-width="0.5" stroke-miterlimit="10" x1="0.833" y1="243.174" x2="3.166" y2="244.725"/>
		<line fill="none" stroke="#000000" stroke-width="0.5" stroke-miterlimit="10" x1="0.833" y1="256.439" x2="3.166" y2="257.99"/>
		<line fill="none" stroke="#000000" stroke-width="0.5" stroke-miterlimit="10" x1="0.833" y1="269.705" x2="3.166" y2="271.255"/>
		<line fill="none" stroke="#000000" stroke-width="0.5" stroke-miterlimit="10" x1="0.833" y1="282.97" x2="3.166" y2="284.521"/>
		<line fill="none" stroke="#000000" stroke-width="0.5" stroke-miterlimit="10" x1="0.833" y1="296.235" x2="3.166" y2="297.786"/>
		<line fill="none" stroke="#000000" stroke-width="0.5" stroke-miterlimit="10" x1="0.833" y1="319.449" x2="3.166" y2="321"/>
	</g>
</g>
<g id="titulo" display="none">
</g>
<g id="screenshots" display="none">
</g>
<g id="fondo_negro" display="none">
</g>
<g id="imagenes" display="none">
</g>
<g id="graficas" display="none">
</g>
<g id="texto" display="none">
</g>
<g id="bienvenido" display="none">
</g>
<g id="landpage" display="none">
	<g id="movil_horiz" display="inline">
		<defs>
			<rect id="SVGID_12_" x="-3466.429" y="749.063" width="217.259" height="123.013"/>
		</defs>
		<clipPath id="SVGID_2_">
			<use xlink:href="#SVGID_12_"  overflow="visible"/>
		</clipPath>
	</g>
	<g id="movil_vert_copia" display="inline">
		<defs>
			<rect id="SVGID_16_" x="-3677.994" y="701.58" width="123.013" height="217.259"/>
		</defs>
		<clipPath id="SVGID_4_">
			<use xlink:href="#SVGID_16_"  overflow="visible"/>
		</clipPath>
	</g>
	<g id="tableta_horizontal" display="inline">
		<defs>
			<rect id="SVGID_20_" x="-4168.601" y="665.394" width="409.16" height="288.831"/>
		</defs>
		<clipPath id="SVGID_6_">
			<use xlink:href="#SVGID_20_"  overflow="visible"/>
		</clipPath>
	</g>
	<g id="tableta_vert" display="inline">
		<defs>
			<rect id="SVGID_28_" x="-4532.978" y="605.618" width="287.964" height="409.479"/>
		</defs>
		<clipPath id="SVGID_8_">
			<use xlink:href="#SVGID_28_"  overflow="visible"/>
		</clipPath>
	</g>
	<g id="escritorio_1_" display="inline">
		<defs>
			<rect id="ventana" x="-5627.965" y="566.22" width="1024.5" height="487.98"/>
		</defs>
		<clipPath id="ventana_1_">
			<use xlink:href="#ventana"  overflow="visible"/>
		</clipPath>
	</g>
</g>
<g id="bocetos" display="none">
</g>
<g id="notas" display="none">
</g>
</svg>
