<?xml version="1.0" encoding="utf-8"?>
<!-- Generator: Adobe Illustrator 16.0.0, SVG Export Plug-In . SVG Version: 6.00 Build 0)  -->
<!DOCTYPE svg PUBLIC "-//W3C//DTD SVG 1.1//EN" "http://www.w3.org/Graphics/SVG/1.1/DTD/svg11.dtd">
<svg version="1.1" xmlns="http://www.w3.org/2000/svg" xmlns:xlink="http://www.w3.org/1999/xlink" x="0px" y="0px" width="880px"
	 height="880px" viewBox="0 0 880 880" enable-background="new 0 0 880 880" xml:space="preserve">
<g id="exportaciones">
	<rect x="-483.297" y="-792.562" display="none" width="1474" height="2447.511"/>
	<g id="corona_1_">
		<g>
			<polygon fill="#B7B053" points="424.884,71.614 455.116,71.614 440,60.296 			"/>
			<rect x="430.04" y="11.614" fill="#B7B053" width="19.92" height="60"/>
		</g>
		<g>
			<polygon fill="#B7B053" points="455.115,808.386 424.884,808.386 440,819.703 			"/>
			<rect x="430.04" y="808.386" fill="#B7B053" width="19.92" height="60"/>
		</g>
		<g>
			<polygon fill="#B7B053" points="113.41,268.898 128.526,242.717 111.167,250.147 			"/>
			
				<rect x="85.027" y="210.807" transform="matrix(0.4999 -0.8661 0.8661 0.4999 -161.054 202.6805)" fill="#B7B053" width="19.92" height="60"/>
		</g>
		<g>
			<polygon fill="#B7B053" points="766.589,611.104 751.473,637.284 768.833,629.852 			"/>
			
				<rect x="775.051" y="609.193" transform="matrix(0.4999 -0.8661 0.8661 0.4999 -161.0052 999.5592)" fill="#B7B053" width="19.92" height="60"/>
		</g>
		<g>
			<polygon fill="#B7B053" points="128.525,637.284 113.41,611.102 111.167,629.852 			"/>
			
				<rect x="85.027" y="609.193" transform="matrix(-0.5001 -0.866 0.866 -0.5001 -411.0491 1041.088)" fill="#B7B053" width="19.919" height="60.001"/>
		</g>
		<g>
			<polygon fill="#B7B053" points="751.475,242.718 766.589,268.899 768.833,250.148 			"/>
			
				<rect x="775.052" y="210.809" transform="matrix(-0.5001 -0.866 0.866 -0.5001 969.0447 1041.0366)" fill="#B7B053" width="19.921" height="59.999"/>
		</g>
		<g>
			<polygon fill="#B7B053" points="299.8,99.001 328.209,88.661 310.134,83.195 			"/>
			
				<rect x="293.784" y="35.64" transform="matrix(0.9397 -0.3421 0.3421 0.9397 -4.1306 107.8563)" fill="#B7B053" width="19.919" height="60"/>
		</g>
		<g>
			<polygon fill="#B7B053" points="580.199,781 551.791,791.34 569.866,796.805 			"/>
			
				<rect x="566.297" y="784.36" transform="matrix(0.9397 -0.3421 0.3421 0.9397 -243.7956 246.2328)" fill="#B7B053" width="19.919" height="60"/>
		</g>
		<g>
			<polygon fill="#B7B053" points="74.586,390.917 79.836,361.145 66.064,374.064 			"/>
			
				<rect x="37.706" y="340.822" transform="matrix(0.1736 -0.9848 0.9848 0.1736 -325.7988 353.3717)" fill="#B7B053" width="19.92" height="59.999"/>
		</g>
		<g>
			<polygon fill="#B7B053" points="805.414,489.084 800.164,518.856 813.936,505.935 			"/>
			
				<rect x="822.373" y="479.18" transform="matrix(0.1736 -0.9848 0.9848 0.1736 186.4284 1240.5137)" fill="#B7B053" width="19.919" height="59.999"/>
		</g>
		<g>
			<polygon fill="#B7B053" points="214.785,731.917 191.626,712.483 195.931,730.869 			"/>
			
				<rect x="173.963" y="715.182" transform="matrix(-0.7661 -0.6427 0.6427 -0.7661 -154.1073 1434.2838)" fill="#B7B053" width="19.918" height="60.001"/>
		</g>
		<g>
			<polygon fill="#B7B053" points="665.216,148.085 688.373,167.518 684.068,149.13 			"/>
			
				<rect x="686.117" y="104.82" transform="matrix(-0.7661 -0.6427 0.6427 -0.7661 1142.6953 685.4862)" fill="#B7B053" width="19.921" height="59.999"/>
		</g>
		<g>
			<polygon fill="#B7B053" points="191.627,167.517 214.786,148.084 195.932,149.13 			"/>
			
				<rect x="173.963" y="104.819" transform="matrix(0.7661 -0.6428 0.6428 0.7661 -43.6306 149.7584)" fill="#B7B053" width="19.92" height="60"/>
		</g>
		<g>
			<polygon fill="#B7B053" points="688.373,712.484 665.215,731.917 684.068,730.87 			"/>
			
				<rect x="686.119" y="715.181" transform="matrix(0.766 -0.6428 0.6428 0.766 -316.1422 621.7722)" fill="#B7B053" width="19.919" height="60"/>
		</g>
		<g>
			<polygon fill="#B7B053" points="79.836,518.856 74.586,489.083 66.064,505.935 			"/>
			
				<rect x="37.706" y="479.18" transform="matrix(-0.1736 -0.9848 0.9848 -0.1736 -445.5013 644.5383)" fill="#B7B053" width="19.92" height="60"/>
		</g>
		<g>
			<polygon fill="#B7B053" points="800.164,361.146 805.414,390.917 813.936,374.065 			"/>
			
				<rect x="822.373" y="340.822" transform="matrix(-0.1737 -0.9848 0.9848 -0.1737 611.7685 1254.9249)" fill="#B7B053" width="19.919" height="60"/>
		</g>
		<g>
			<polygon fill="#B7B053" points="328.209,791.34 299.8,780.999 310.133,796.805 			"/>
			
				<rect x="293.785" y="784.361" transform="matrix(-0.9397 -0.3419 0.3419 -0.9397 310.7311 1683.4966)" fill="#B7B053" width="19.918" height="60.001"/>
		</g>
		<g>
			<polygon fill="#B7B053" points="551.793,88.661 580.2,99.002 569.866,83.195 			"/>
			
				<rect x="566.296" y="35.641" transform="matrix(-0.9397 -0.3419 0.3419 -0.9397 1095.3384 324.3578)" fill="#B7B053" width="19.921" height="59.999"/>
		</g>
	</g>
</g>
<g id="screenshots">
</g>
<g id="fondo_negro">
</g>
<g id="imagenes">
</g>
<g id="texto">
</g>
<g id="bienvenido">
</g>
<g id="landpage">
	<defs>
		<rect id="ventana" x="-4069.631" y="240.24" width="1024.5" height="487.98"/>
	</defs>
	<clipPath id="ventana_1_">
		<use xlink:href="#ventana"  overflow="visible"/>
	</clipPath>
</g>
<g id="titulo">
</g>
<g id="bocetos">
</g>
<g id="notas">
</g>
</svg>
