<?xml version="1.0" encoding="utf-8"?>
<!-- Generator: Adobe Illustrator 16.0.0, SVG Export Plug-In . SVG Version: 6.00 Build 0)  -->
<!DOCTYPE svg PUBLIC "-//W3C//DTD SVG 1.1//EN" "http://www.w3.org/Graphics/SVG/1.1/DTD/svg11.dtd">
<svg version="1.1" xmlns="http://www.w3.org/2000/svg" xmlns:xlink="http://www.w3.org/1999/xlink" x="0px" y="0px" width="34px"
	 height="78px" viewBox="0 0 34 78" enable-background="new 0 0 34 78" xml:space="preserve">
<g id="exportaciones">
	<g>
		<path fill="#C3BF79" stroke="#000000" stroke-width="0.5" stroke-miterlimit="10" d="M1.353,4.104
			C1.354,2.38,2.751,0.982,4.475,0.982c1.725,0,3.122,1.398,3.123,3.123"/>
		<path fill="#C3BF79" stroke="#000000" stroke-width="0.5" stroke-miterlimit="10" d="M7.598,4.104
			C7.597,2.38,8.994,0.981,10.72,0.981c1.726-0.001,3.124,1.397,3.122,3.122"/>
		<path fill="#C3BF79" stroke="#000000" stroke-width="0.5" stroke-miterlimit="10" d="M13.842,4.103
			c0.002-1.724,1.398-3.121,3.123-3.122c1.723,0.001,3.121,1.398,3.122,3.124"/>
		<path fill="#C3BF79" stroke="#000000" stroke-width="0.5" stroke-miterlimit="10" d="M20.087,4.104
			c-0.001-1.726,1.396-3.123,3.121-3.122c1.726,0,3.123,1.396,3.121,3.122"/>
		<path fill="#C3BF79" stroke="#000000" stroke-width="0.5" stroke-miterlimit="10" d="M26.329,4.104
			c0.002-1.725,1.4-3.123,3.125-3.122c1.723,0,3.122,1.398,3.121,3.121"/>
		<polygon fill="#C3BF79" stroke="#000000" stroke-width="0.5" stroke-miterlimit="10" points="1.354,6.629 1.353,61.267 17,76.915 
			32.646,61.267 32.646,6.627 		"/>
		<polygon fill="none" stroke="#000000" stroke-width="0.5" stroke-miterlimit="10" points="24.362,9.628 24.363,60.952 
			9.637,60.951 9.637,9.628 4.353,9.628 4.353,60.025 16.999,72.671 29.646,60.026 29.646,9.628 		"/>
		
			<rect x="12.636" y="6.629" fill="none" stroke="#000000" stroke-width="0.5" stroke-miterlimit="10" width="8.729" height="51.322"/>
		<g>
			<polyline fill="none" stroke="#000000" stroke-width="0.5" stroke-miterlimit="10" points="21.363,13.172 17.001,15.598 
				12.636,13.173 			"/>
			<polyline fill="none" stroke="#000000" stroke-width="0.5" stroke-miterlimit="10" points="21.363,9.294 17,11.72 12.636,9.294 
							"/>
			<polyline fill="none" stroke="#000000" stroke-width="0.5" stroke-miterlimit="10" points="21.364,20.932 17.001,23.356 
				12.637,20.931 			"/>
			<polyline fill="none" stroke="#000000" stroke-width="0.5" stroke-miterlimit="10" points="21.364,24.81 17,27.235 12.636,24.81 
							"/>
			<polyline fill="none" stroke="#000000" stroke-width="0.5" stroke-miterlimit="10" points="21.363,28.69 17.001,31.114 
				12.635,28.688 			"/>
			<polyline fill="none" stroke="#000000" stroke-width="0.5" stroke-miterlimit="10" points="21.364,36.446 17.001,38.869 
				12.637,36.445 			"/>
			<polyline fill="none" stroke="#000000" stroke-width="0.5" stroke-miterlimit="10" points="21.362,32.566 17,34.991 
				12.637,32.566 			"/>
			<polyline fill="none" stroke="#000000" stroke-width="0.5" stroke-miterlimit="10" points="21.361,40.324 17.001,42.749 
				12.636,40.325 			"/>
			<polyline fill="none" stroke="#000000" stroke-width="0.5" stroke-miterlimit="10" points="21.362,44.202 16.999,46.628 
				12.637,44.204 			"/>
			<polyline fill="none" stroke="#000000" stroke-width="0.5" stroke-miterlimit="10" points="21.362,48.083 17,50.507 
				12.638,48.082 			"/>
			<polyline fill="none" stroke="#000000" stroke-width="0.5" stroke-miterlimit="10" points="21.362,51.959 17.001,54.385 
				12.638,51.96 			"/>
			
				<line fill="none" stroke="#000000" stroke-width="0.5" stroke-miterlimit="10" x1="16.437" y1="57.949" x2="12.637" y2="55.839"/>
			
				<line fill="none" stroke="#000000" stroke-width="0.5" stroke-miterlimit="10" x1="21.361" y1="55.838" x2="17.563" y2="57.952"/>
			<polyline fill="none" stroke="#000000" stroke-width="0.5" stroke-miterlimit="10" points="19.181,6.628 17,7.842 14.817,6.627 
							"/>
			<polyline fill="none" stroke="#000000" stroke-width="0.5" stroke-miterlimit="10" points="21.363,17.052 17.001,19.477 
				12.637,17.052 			"/>
		</g>
		<circle fill="#C3BF79" stroke="#000000" stroke-width="0.5" stroke-miterlimit="10" cx="16.999" cy="65.021" r="6.283"/>
		<circle fill="none" stroke="#000000" stroke-width="0.5" stroke-miterlimit="10" cx="17" cy="65.021" r="4.49"/>
		
			<rect x="13.421" y="61.444" transform="matrix(0.707 0.7072 -0.7072 0.707 50.9671 7.0307)" fill="#C3BF79" stroke="#000000" stroke-width="0.5" stroke-miterlimit="10" width="7.155" height="7.154"/>
		<circle fill="none" stroke="#000000" stroke-width="0.5" stroke-miterlimit="10" cx="16.999" cy="65.021" r="2.174"/>
		
			<rect x="1.354" y="4.104" fill="#C3BF79" stroke="#000000" stroke-width="0.5" stroke-miterlimit="10" width="31.295" height="2.524"/>
		<line fill="none" stroke="#000000" stroke-width="0.5" stroke-miterlimit="10" x1="4.353" y1="10.629" x2="9.636" y2="10.627"/>
		<line fill="none" stroke="#000000" stroke-width="0.5" stroke-miterlimit="10" x1="4.354" y1="12.628" x2="9.638" y2="12.627"/>
		<line fill="none" stroke="#000000" stroke-width="0.5" stroke-miterlimit="10" x1="4.353" y1="15.628" x2="9.636" y2="15.628"/>
		<line fill="none" stroke="#000000" stroke-width="0.5" stroke-miterlimit="10" x1="4.354" y1="19.629" x2="9.637" y2="19.627"/>
		<line fill="none" stroke="#000000" stroke-width="0.5" stroke-miterlimit="10" x1="4.354" y1="24.629" x2="9.637" y2="24.627"/>
		<line fill="none" stroke="#000000" stroke-width="0.5" stroke-miterlimit="10" x1="4.353" y1="30.628" x2="9.637" y2="30.628"/>
		<line fill="none" stroke="#000000" stroke-width="0.5" stroke-miterlimit="10" x1="4.354" y1="37.628" x2="9.638" y2="37.627"/>
		<line fill="none" stroke="#000000" stroke-width="0.5" stroke-miterlimit="10" x1="4.353" y1="45.628" x2="9.636" y2="45.629"/>
		<line fill="none" stroke="#000000" stroke-width="0.5" stroke-miterlimit="10" x1="4.354" y1="55.628" x2="9.637" y2="55.63"/>
		<line fill="none" stroke="#000000" stroke-width="0.5" stroke-miterlimit="10" x1="24.363" y1="10.629" x2="29.646" y2="10.628"/>
		<line fill="none" stroke="#000000" stroke-width="0.5" stroke-miterlimit="10" x1="24.362" y1="12.627" x2="29.646" y2="12.628"/>
		<line fill="none" stroke="#000000" stroke-width="0.5" stroke-miterlimit="10" x1="24.362" y1="15.629" x2="29.646" y2="15.628"/>
		<line fill="none" stroke="#000000" stroke-width="0.5" stroke-miterlimit="10" x1="24.363" y1="19.627" x2="29.646" y2="19.629"/>
		<line fill="none" stroke="#000000" stroke-width="0.5" stroke-miterlimit="10" x1="24.362" y1="24.628" x2="29.646" y2="24.629"/>
		<line fill="none" stroke="#000000" stroke-width="0.5" stroke-miterlimit="10" x1="24.363" y1="30.628" x2="29.646" y2="30.628"/>
		<line fill="none" stroke="#000000" stroke-width="0.5" stroke-miterlimit="10" x1="24.361" y1="37.628" x2="29.646" y2="37.628"/>
		<line fill="none" stroke="#000000" stroke-width="0.5" stroke-miterlimit="10" x1="24.362" y1="45.627" x2="29.646" y2="45.628"/>
		<line fill="none" stroke="#000000" stroke-width="0.5" stroke-miterlimit="10" x1="24.362" y1="55.629" x2="29.646" y2="55.628"/>
	</g>
</g>
<g id="titulo" display="none">
</g>
<g id="screenshots" display="none">
</g>
<g id="fondo_negro" display="none">
</g>
<g id="imagenes" display="none">
</g>
<g id="graficas" display="none">
</g>
<g id="texto" display="none">
</g>
<g id="bienvenido" display="none">
</g>
<g id="landpage" display="none">
	<g id="movil_horiz" display="inline">
		<defs>
			<rect id="SVGID_12_" x="-3621.092" y="665.917" width="217.259" height="123.013"/>
		</defs>
		<clipPath id="SVGID_2_">
			<use xlink:href="#SVGID_12_"  overflow="visible"/>
		</clipPath>
	</g>
	<g id="movil_vert_copia" display="inline">
		<defs>
			<rect id="SVGID_16_" x="-3832.657" y="618.434" width="123.013" height="217.259"/>
		</defs>
		<clipPath id="SVGID_4_">
			<use xlink:href="#SVGID_16_"  overflow="visible"/>
		</clipPath>
	</g>
	<g id="tableta_horizontal" display="inline">
		<defs>
			<rect id="SVGID_20_" x="-4323.264" y="582.248" width="409.16" height="288.831"/>
		</defs>
		<clipPath id="SVGID_6_">
			<use xlink:href="#SVGID_20_"  overflow="visible"/>
		</clipPath>
	</g>
	<g id="tableta_vert" display="inline">
		<defs>
			<rect id="SVGID_28_" x="-4687.641" y="522.472" width="287.964" height="409.479"/>
		</defs>
		<clipPath id="SVGID_8_">
			<use xlink:href="#SVGID_28_"  overflow="visible"/>
		</clipPath>
	</g>
	<g id="escritorio_1_" display="inline">
		<defs>
			<rect id="ventana" x="-5782.628" y="483.073" width="1024.5" height="487.98"/>
		</defs>
		<clipPath id="ventana_1_">
			<use xlink:href="#ventana"  overflow="visible"/>
		</clipPath>
	</g>
</g>
<g id="bocetos" display="none">
</g>
<g id="notas" display="none">
</g>
</svg>
