<?xml version="1.0" encoding="utf-8"?>
<!-- Generator: Adobe Illustrator 16.0.0, SVG Export Plug-In . SVG Version: 6.00 Build 0)  -->
<!DOCTYPE svg PUBLIC "-//W3C//DTD SVG 1.1//EN" "http://www.w3.org/Graphics/SVG/1.1/DTD/svg11.dtd">
<svg version="1.1" xmlns="http://www.w3.org/2000/svg" xmlns:xlink="http://www.w3.org/1999/xlink" x="0px" y="0px" width="117px"
	 height="117px" viewBox="0 0 117 117" enable-background="new 0 0 117 117" xml:space="preserve">
<g id="exportaciones">
	<g>
		<g>
			<g>
				<path fill="#C3BF79" d="M53.989,115.811c-0.599-1.504-1.355-3.696-1.298-5.789l-0.028-0.183l-0.193-0.116l-2.756-0.396
					l-0.078,0.169c-0.574,2.094-1.844,3.909-2.912,5.28l-1.644-0.378c-0.378-1.696-0.748-3.875-0.378-5.922l0.009-0.193l-0.18-0.135
					l-2.664-0.822l-0.104,0.158c-0.872,1.956-2.418,3.559-3.698,4.756l-1.564-0.63c-0.107-1.867-0.115-4.011,0.553-5.909
					l0.031-0.184l-0.149-0.165l-2.499-1.228l-0.127,0.135c-1.153,1.777-2.939,3.129-4.4,4.123l-1.447-0.868
					c0.173-1.76,0.502-3.971,1.472-5.749l0.071-0.183l-0.132-0.182l-2.279-1.604l-0.146,0.116c-1.443,1.596-3.407,2.642-4.99,3.383
					l-1.293-1.084c0.438-1.703,1.104-3.829,2.354-5.447l0.081-0.164l-0.086-0.208l-1.995-1.938l-0.161,0.087
					c-1.676,1.347-3.78,2.074-5.463,2.561l-1.107-1.271c0.697-1.61,1.686-3.603,3.176-5.011l0.112-0.15l-0.058-0.217l-1.671-2.229
					l-0.175,0.064c-1.846,1.06-4.046,1.453-5.793,1.674l-0.895-1.429c0.951-1.488,2.247-3.308,3.921-4.453l0.13-0.131l-0.02-0.224
					l-1.299-2.459l-0.18,0.032c-1.396,0.527-2.962,0.763-5.021,0.763c-0.324,0-0.646-0.005-0.964-0.014l-0.663-1.551
					c1.157-1.314,2.71-2.903,4.569-3.786l0.153-0.108l0.012-0.224L9.224,73.75L9.04,73.753c-0.748,0.149-1.477,0.221-2.257,0.222
					c-1.399,0-2.806-0.233-3.776-0.42L2.601,71.92c1.355-1.118,3.143-2.445,5.104-3.024l0.164-0.084l0.052-0.219l-0.475-2.741
					l-0.182-0.024c-0.252,0.001-0.414,0.005-0.575,0.005c-1.869,0-3.747-0.571-5.351-1.144L1.189,63.01
					c1.513-0.89,3.484-1.919,5.517-2.188l0.179-0.056l0.079-0.209l-0.041-2.782l-0.176-0.052c-2.089-0.222-4.03-1.152-5.675-2.051
					l0.116-1.682c1.563-0.616,3.585-1.302,5.581-1.302l0.21,0.002l0.187-0.025l0.109-0.195l0.396-2.751L7.51,49.639
					c-2.028-0.543-3.802-1.768-5.287-2.916l0.378-1.643c1.066-0.237,2.607-0.535,4.118-0.535c0.64,0,1.246,0.053,1.803,0.157
					l0.188,0.004l0.142-0.175l0.818-2.656l-0.148-0.104c-1.949-0.875-3.56-2.423-4.765-3.705L5.388,36.5
					c0.553-0.034,1.12-0.057,1.692-0.057c1.677,0,3.056,0.2,4.215,0.613l0.182,0.028l0.171-0.147l1.226-2.5l-0.135-0.126
					c-1.838-1.212-3.222-3.068-4.122-4.402l0.867-1.446c1.607,0.15,3.896,0.472,5.748,1.472l0.177,0.059l0.188-0.121l1.605-2.275
					l-0.114-0.146c-1.598-1.442-2.644-3.407-3.385-4.992l1.084-1.293c1.702,0.438,3.826,1.104,5.447,2.352l0.166,0.089l0.204-0.093
					l1.939-1.999l-0.09-0.162c-1.335-1.649-2.067-3.765-2.562-5.46l1.271-1.107c1.604,0.697,3.593,1.685,5.015,3.176l0.15,0.116
					l0.214-0.062l2.223-1.665l-0.056-0.17c-1.075-1.889-1.462-4.075-1.677-5.805l1.43-0.893c1.47,0.931,3.273,2.21,4.454,3.921
					l0.131,0.126l0.224-0.017l2.459-1.299l-0.033-0.181c-0.776-2.059-0.804-4.375-0.748-5.985l1.553-0.661
					c1.413,1.265,2.948,2.792,3.783,4.568l0.108,0.15l0.225,0.016l2.638-0.901l-0.008-0.187c-0.442-2.096-0.135-4.302,0.195-6.023
					l1.637-0.41c1.111,1.34,2.432,3.115,3.024,5.104l0.083,0.167l0.219,0.047l2.746-0.476l0.021-0.186
					c-0.102-2.169,0.545-4.287,1.138-5.92l1.679-0.148c0.944,1.619,1.926,3.531,2.189,5.516l0.058,0.174l0.208,0.084l2.784-0.041
					l0.051-0.178c0.22-2.087,1.149-4.027,2.049-5.671l1.684,0.117c0.599,1.504,1.355,3.694,1.298,5.79l0.029,0.182l0.192,0.115
					l2.758,0.396L67.365,7.5c0.574-2.096,1.844-3.91,2.912-5.279l1.643,0.379c0.379,1.69,0.747,3.864,0.377,5.923l-0.004,0.189
					l0.176,0.138l2.665,0.821l0.103-0.158c0.869-1.947,2.417-3.554,3.698-4.756L80.5,5.387c0.106,1.869,0.114,4.016-0.555,5.909
					l-0.035,0.187l0.152,0.164l2.499,1.228l0.127-0.135c1.155-1.779,2.941-3.13,4.401-4.123l1.447,0.867
					c-0.172,1.758-0.501,3.967-1.473,5.748l-0.049,0.17l0.113,0.195l2.28,1.606l0.147-0.121c1.44-1.596,3.403-2.639,4.986-3.378
					l1.292,1.082c-0.438,1.702-1.102,3.827-2.352,5.447l-0.087,0.166l0.091,0.206l2.002,1.944l0.165-0.098
					c1.664-1.34,3.769-2.069,5.452-2.557l1.107,1.27c-0.695,1.607-1.682,3.598-3.176,5.014l-0.107,0.149l0.054,0.217l1.669,2.227
					l0.174-0.062c1.848-1.059,4.047-1.452,5.793-1.674l0.896,1.429c-0.952,1.489-2.25,3.311-3.92,4.453l-0.134,0.131l0.022,0.224
					l1.299,2.461l0.181-0.033c1.393-0.528,2.959-0.765,5.019-0.765c0.325,0,0.646,0.006,0.965,0.015l0.664,1.554
					c-1.159,1.314-2.713,2.902-4.569,3.784l-0.149,0.108l-0.015,0.224l0.9,2.638l0.188-0.009c0.741-0.149,1.469-0.221,2.247-0.221
					c1.394,0,2.803,0.232,3.777,0.418l0.408,1.637c-1.356,1.118-3.145,2.444-5.104,3.023l-0.161,0.084l-0.052,0.217l0.476,2.746
					l0.187,0.021c0.245-0.003,0.405-0.007,0.566-0.007c1.881,0,3.836,0.603,5.353,1.145l0.149,1.681
					c-1.511,0.89-3.481,1.919-5.516,2.188l-0.177,0.057l-0.083,0.209l0.041,2.78l0.175,0.053c2.096,0.225,4.034,1.154,5.676,2.052
					l-0.116,1.681c-1.56,0.617-3.579,1.303-5.584,1.303l-0.207-0.002l-0.188,0.024l-0.109,0.196l-0.394,2.755l0.166,0.079
					c2.022,0.54,3.795,1.763,5.281,2.912l-0.377,1.644c-1.067,0.237-2.608,0.534-4.117,0.534c-0.641,0-1.248-0.053-1.805-0.157
					h-0.185l-0.145,0.172l-0.821,2.667l0.16,0.102c1.944,0.87,3.553,2.417,4.756,3.698l-0.631,1.565
					c-0.555,0.035-1.124,0.058-1.697,0.058c-1.675,0-3.053-0.2-4.211-0.612l-0.183-0.03l-0.168,0.148l-1.229,2.503l0.144,0.126
					c1.812,1.193,3.144,2.958,4.116,4.396l-0.866,1.449c-1.607-0.15-3.897-0.472-5.751-1.473l-0.179-0.063l-0.184,0.125l-1.6,2.273
					l0.106,0.145c1.603,1.453,2.646,3.415,3.386,4.997l-1.083,1.293c-1.7-0.438-3.823-1.102-5.447-2.353l-0.165-0.087l-0.206,0.09
					l-1.936,1.995l0.084,0.16c1.334,1.648,2.068,3.763,2.563,5.46l-1.272,1.113c-1.605-0.699-3.594-1.688-5.013-3.177l-0.147-0.103
					l-0.218,0.051l-2.222,1.664l0.056,0.17c1.071,1.878,1.459,4.068,1.676,5.803l-1.43,0.894c-1.469-0.931-3.271-2.209-4.454-3.921
					l-0.131-0.135l-0.221,0.025l-2.474,1.305l0.048,0.19c0.775,2.049,0.803,4.363,0.747,5.971l-1.553,0.661
					c-1.413-1.265-2.949-2.79-3.784-4.567l-0.109-0.144l-0.226-0.022l-2.636,0.901l0.008,0.187c0.442,2.095,0.135,4.302-0.196,6.024
					l-1.636,0.41c-1.11-1.341-2.432-3.116-3.024-5.105l-0.084-0.164l-0.219-0.051l-2.739,0.477l-0.025,0.18
					c0.102,2.174-0.546,4.293-1.139,5.927l-1.68,0.147c-0.944-1.622-1.927-3.535-2.188-5.516l-0.055-0.181l-0.21-0.079l-2.79,0.042
					l-0.047,0.185c-0.22,2.078-1.146,4.015-2.043,5.656L53.989,115.811z M20.742,61.699c0.124,1.418,0.32,2.806,0.584,4.126
					c3.252,16.308,17.09,28.689,33.649,30.11l0.271,0.023V75.75l-0.205-0.038c-7.116-1.302-12.762-6.961-14.049-14.081l-0.037-0.206
					H20.719L20.742,61.699z M75.431,61.632c-1.287,7.125-6.938,12.785-14.061,14.083l-0.205,0.038v20.204l0.271-0.024
					c1.414-0.123,2.802-0.32,4.126-0.584c16.31-3.253,28.692-17.091,30.112-33.65l0.023-0.271h-20.23L75.431,61.632z M61.165,41.248
					l0.205,0.038c7.096,1.293,12.742,6.927,14.051,14.019l0.038,0.205h20.236l-0.023-0.272c-0.124-1.417-0.32-2.806-0.584-4.125
					C91.834,34.803,77.996,22.42,61.437,21l-0.271-0.023V41.248z M54.976,21.003c-1.418,0.124-2.805,0.321-4.123,0.584
					c-16.309,3.252-28.691,17.09-30.112,33.65l-0.023,0.271h20.248l0.038-0.205c1.308-7.086,6.949-12.719,14.039-14.017l0.205-0.038
					v-20.27L54.976,21.003z"/>
				<path d="M61.466,1.341l1.37,0.088c0.58,1.477,1.277,3.561,1.223,5.543l0.006,0.089l0.008,0.046l0.057,0.364l0.365,0.053
					l2.572,0.369l0.391,0.014l0.154-0.343l0.016-0.037l0.012-0.039c0.514-1.913,1.701-3.646,2.732-4.98l1.34,0.302
					c0.359,1.644,0.691,3.716,0.34,5.669l-0.008,0.082l-0.001,0.039l-0.009,0.378l0.361,0.111l2.484,0.766l0.385,0.075l0.205-0.317
					l0.022-0.034l0.017-0.037c0.783-1.777,2.236-3.316,3.476-4.487l1.276,0.505c0.096,1.806,0.086,3.854-0.551,5.652l-0.021,0.079
					l-0.007,0.039l-0.07,0.373l0.341,0.167l2.333,1.146l0.362,0.131l0.253-0.27l0.031-0.034l0.025-0.039
					c1.04-1.621,2.722-2.918,4.135-3.888l1.18,0.7c-0.173,1.707-0.504,3.805-1.426,5.494l-0.039,0.09l-0.016,0.054l-0.097,0.341
					l0.29,0.205l2.125,1.497l0.345,0.192l0.294-0.242l0.029-0.024l0.025-0.028c1.309-1.461,3.16-2.469,4.693-3.194l1.057,0.876
					c-0.432,1.651-1.082,3.666-2.268,5.203l-0.047,0.073l-0.02,0.039l-0.174,0.331l0.268,0.26l1.865,1.811l0.311,0.245l0.33-0.196
					l0.031-0.019l0.027-0.023c1.516-1.23,3.506-1.94,5.138-2.421l0.907,1.029c-0.683,1.558-1.639,3.443-3.056,4.786l-0.06,0.067
					l-0.027,0.038l-0.215,0.298l0.221,0.294l1.559,2.079l0.262,0.28l0.347-0.124l0.044-0.015l0.039-0.023
					c1.673-0.971,3.756-1.364,5.45-1.587l0.733,1.159c-0.931,1.443-2.181,3.165-3.764,4.248l-0.067,0.055l-0.03,0.03l-0.27,0.261
					l0.175,0.332l1.214,2.299l0.215,0.316l0.359-0.066l0.048-0.008l0.044-0.018c1.274-0.496,2.813-0.727,4.84-0.727
					c0.266,0,0.529,0.004,0.791,0.01l0.545,1.261c-1.131,1.272-2.623,2.769-4.383,3.605l-0.077,0.045l-0.036,0.027l-0.301,0.216
					l0.119,0.351l0.84,2.46l0.164,0.353l0.375-0.017l0.043-0.002l0.041-0.009c0.639-0.139,1.349-0.209,2.109-0.209
					c1.297,0,2.61,0.205,3.565,0.383l0.339,1.331c-1.322,1.08-3.035,2.326-4.895,2.875l-0.084,0.034l-0.045,0.023l-0.321,0.169
					l0.062,0.358l0.443,2.561l0.108,0.375l0.374,0.042l0.041,0.004l0.041-0.002c0.156-0.008,0.312-0.013,0.467-0.013
					c1.779,0,3.637,0.554,5.11,1.074l0.128,1.366c-1.471,0.858-3.354,1.82-5.283,2.075l-0.087,0.02l-0.042,0.013l-0.354,0.113
					l0.005,0.371l0.038,2.598l0.047,0.378l0.35,0.106l0.047,0.014l0.049,0.005c1.904,0.193,3.756,1.06,5.343,1.919l-0.088,1.368
					c-1.517,0.593-3.443,1.228-5.345,1.228l-0.2-0.002l-0.083,0.005l-0.038,0.005l-0.377,0.049l-0.054,0.376l-0.367,2.573
					l-0.013,0.383l0.333,0.158l0.042,0.021l0.046,0.012c1.84,0.479,3.537,1.628,4.975,2.73l-0.3,1.339
					c-1.047,0.228-2.495,0.494-3.909,0.494c-0.625,0-1.217-0.052-1.758-0.153l-0.09-0.008h-0.046h-0.369l-0.108,0.353l-0.766,2.485
					l-0.077,0.386l0.321,0.205l0.031,0.021l0.035,0.016c1.777,0.786,3.316,2.239,4.49,3.477l-0.508,1.277
					c-0.553,0.032-1.053,0.048-1.522,0.048c-1.646,0-2.996-0.196-4.128-0.598l-0.084-0.022l-0.045-0.007l-0.365-0.06l-0.164,0.333
					l-1.145,2.332l-0.136,0.372l0.286,0.252l0.027,0.024l0.03,0.02c1.659,1.083,2.94,2.746,3.89,4.137l-0.699,1.183
					c-1.574-0.154-3.743-0.481-5.498-1.429l-0.074-0.033l-0.037-0.013l-0.356-0.125l-0.218,0.309l-1.496,2.126l-0.182,0.327
					l0.213,0.29l0.03,0.042l0.038,0.035c1.463,1.309,2.473,3.16,3.196,4.693l-0.877,1.058c-1.649-0.432-3.663-1.083-5.202-2.268
					l-0.074-0.047l-0.038-0.021l-0.331-0.173l-0.26,0.268l-1.811,1.864l-0.231,0.299l0.169,0.321l0.023,0.045l0.032,0.039
					c1.218,1.485,1.934,3.486,2.421,5.131l-1.031,0.91c-1.557-0.686-3.439-1.645-4.785-3.057l-0.07-0.062l-0.042-0.029l-0.296-0.206
					l-0.289,0.216l-2.078,1.557l-0.272,0.257l0.11,0.34l0.017,0.05l0.026,0.045c0.982,1.695,1.371,3.769,1.588,5.451l-1.16,0.734
					c-1.423-0.91-3.127-2.144-4.249-3.767l-0.052-0.064l-0.029-0.03l-0.261-0.27l-0.332,0.175l-2.3,1.213l-0.336,0.226l0.096,0.381
					l0.007,0.029l0.011,0.028c0.715,1.87,0.764,4.057,0.716,5.633l-1.26,0.544c-1.36-1.227-2.813-2.693-3.606-4.38l-0.049-0.083
					l-0.032-0.042l-0.218-0.288l-0.342,0.117l-2.459,0.84l-0.354,0.164l0.018,0.375l0.002,0.042l0.008,0.041
					c0.412,1.906,0.141,4.001-0.173,5.674l-1.33,0.341c-1.073-1.307-2.314-3.008-2.876-4.895l-0.033-0.084l-0.021-0.041
					l-0.168-0.328l-0.363,0.063l-2.56,0.445l-0.364,0.104l-0.051,0.361l-0.007,0.047l0.003,0.048
					c0.103,1.976-0.491,3.992-1.06,5.581l-1.366,0.127c-0.906-1.57-1.828-3.402-2.076-5.285l-0.019-0.083l-0.012-0.039l-0.108-0.361
					l-0.377,0.005l-2.6,0.039l-0.393,0.048l-0.095,0.37l-0.009,0.037l-0.004,0.037c-0.193,1.901-1.061,3.754-1.92,5.342
					l-1.372-0.087c-0.58-1.477-1.276-3.562-1.222-5.543l-0.006-0.089l-0.007-0.045l-0.058-0.366l-0.365-0.053l-2.572-0.369
					l-0.387-0.013l-0.156,0.337l-0.019,0.039l-0.011,0.042c-0.514,1.909-1.701,3.644-2.731,4.979l-1.34-0.301
					c-0.36-1.649-0.692-3.727-0.342-5.668l0.008-0.078l0.001-0.034l0.018-0.386l-0.369-0.114l-2.484-0.767l-0.385-0.075
					l-0.205,0.317l-0.022,0.034l-0.017,0.037c-0.786,1.786-2.238,3.321-3.475,4.488l-1.275-0.506
					c-0.098-1.803-0.088-3.849,0.548-5.652l0.021-0.082l0.008-0.042l0.061-0.367l-0.333-0.164l-2.333-1.146l-0.361-0.132
					l-0.254,0.27l-0.031,0.033l-0.024,0.039c-1.038,1.62-2.72,2.918-4.134,3.889l-1.182-0.7c0.175-1.708,0.508-3.809,1.426-5.495
					l0.031-0.068l0.012-0.03l0.143-0.365l-0.32-0.226l-2.127-1.497l-0.34-0.189l-0.293,0.232l-0.033,0.026l-0.027,0.032
					c-1.307,1.459-3.16,2.47-4.693,3.196l-1.058-0.877c0.433-1.652,1.085-3.668,2.269-5.203l0.049-0.078l0.022-0.043l0.163-0.328
					l-0.262-0.255l-1.865-1.81l-0.301-0.234l-0.322,0.173l-0.041,0.022l-0.037,0.03c-1.516,1.232-3.504,1.941-5.136,2.421
					l-0.907-1.03c0.685-1.561,1.643-3.447,3.055-4.784l0.059-0.064l0.025-0.034l0.225-0.3l-0.225-0.3l-1.561-2.08l-0.262-0.283
					l-0.35,0.127l-0.041,0.015l-0.039,0.022c-1.673,0.973-3.756,1.365-5.451,1.587L9.78,88.538c0.93-1.442,2.179-3.162,3.765-4.247
					l0.07-0.058l0.032-0.033l0.261-0.261l-0.172-0.326l-1.215-2.298l-0.213-0.315l-0.359,0.064L11.9,81.073l-0.045,0.018
					c-1.275,0.495-2.813,0.726-4.842,0.726c-0.264,0-0.527-0.003-0.789-0.01L5.68,80.547c1.13-1.272,2.621-2.77,4.385-3.607
					l0.074-0.043l0.035-0.024l0.307-0.216l-0.121-0.355l-0.84-2.46l-0.162-0.346l-0.365,0.008l-0.049,0.001l-0.047,0.01
					c-0.641,0.139-1.352,0.209-2.113,0.209c-1.301,0-2.611-0.205-3.563-0.383l-0.338-1.329c1.32-1.081,3.033-2.327,4.893-2.876
					l0.085-0.034l0.042-0.021l0.327-0.167l-0.063-0.363l-0.443-2.56l-0.105-0.368l-0.365-0.048l-0.047-0.006l-0.047,0.003
					c-0.156,0.008-0.313,0.013-0.47,0.013c-1.771,0-3.56-0.527-5.107-1.073l-0.128-1.367c1.474-0.858,3.358-1.82,5.285-2.076
					l0.083-0.018l0.04-0.013l0.357-0.11l-0.005-0.375l-0.038-2.599l-0.049-0.381L6.774,57.47l-0.045-0.013l-0.047-0.005
					c-1.897-0.19-3.751-1.058-5.342-1.918l0.088-1.369c1.521-0.592,3.448-1.226,5.341-1.226l0.203,0.002l0.084-0.005l0.039-0.005
					l0.374-0.051l0.054-0.374l0.369-2.572l0.012-0.376l-0.322-0.162l-0.047-0.023l-0.051-0.013C5.643,48.88,3.946,47.73,2.51,46.628
					l0.3-1.338c1.046-0.229,2.494-0.495,3.909-0.495c0.625,0,1.215,0.051,1.757,0.153l0.085,0.008l0.041,0.001l0.377,0.008
					l0.111-0.361l0.766-2.482l0.071-0.373l-0.298-0.209l-0.04-0.028l-0.046-0.02c-1.771-0.782-3.313-2.236-4.488-3.476l0.508-1.277
					c0.55-0.032,1.049-0.047,1.518-0.047c1.648,0,2.999,0.196,4.131,0.599l0.088,0.022l0.047,0.007l0.364,0.057l0.161-0.331
					l1.145-2.334l0.133-0.361l-0.271-0.253l-0.032-0.03l-0.037-0.024c-1.676-1.093-3.002-2.834-3.891-4.137l0.7-1.182
					c1.574,0.154,3.742,0.481,5.495,1.428l0.079,0.034l0.041,0.014l0.353,0.118l0.215-0.304l1.498-2.124l0.186-0.338l-0.228-0.292
					l-0.028-0.036l-0.033-0.03c-1.459-1.302-2.469-3.156-3.195-4.691l0.877-1.058c1.652,0.433,3.666,1.084,5.203,2.268l0.07,0.045
					l0.037,0.02l0.332,0.179l0.264-0.271l1.811-1.865l0.236-0.303l-0.179-0.324l-0.022-0.04l-0.028-0.035
					c-1.221-1.492-1.935-3.492-2.421-5.135l1.029-0.906c1.557,0.684,3.438,1.641,4.787,3.056l0.061,0.054l0.031,0.023l0.301,0.232
					l0.304-0.228l2.079-1.558l0.272-0.256l-0.11-0.34l-0.017-0.05l-0.026-0.046c-0.986-1.705-1.373-3.775-1.589-5.452l1.159-0.733
					c1.424,0.91,3.129,2.144,4.25,3.767l0.059,0.071l0.035,0.034l0.262,0.253l0.32-0.17l2.297-1.213l0.318-0.213l-0.068-0.362
					l-0.008-0.045l-0.017-0.042c-0.714-1.866-0.763-4.056-0.717-5.634l1.261-0.544c1.361,1.227,2.813,2.695,3.605,4.381l0.045,0.078
					l0.027,0.038l0.217,0.3l0.35-0.12l2.461-0.84l0.354-0.164l-0.018-0.375l-0.002-0.042l-0.008-0.041
					c-0.412-1.907-0.141-4.002,0.172-5.674l1.332-0.34c1.073,1.307,2.314,3.007,2.875,4.894l0.032,0.081l0.02,0.039l0.167,0.333
					l0.365-0.063l2.563-0.444l0.373-0.107l0.043-0.373l0.004-0.041L51.428,7.16c-0.103-1.99,0.527-4.09,1.061-5.579l1.364-0.127
					c0.906,1.568,1.827,3.398,2.077,5.285l0.021,0.088l0.015,0.045l0.115,0.347l0.367-0.005l2.598-0.038l0.384-0.046l0.103-0.357
					l0.012-0.043l0.004-0.044C59.736,4.784,60.604,2.93,61.466,1.341 M75.251,55.759h0.416h19.756h0.546l-0.048-0.543
					c-0.125-1.427-0.323-2.824-0.588-4.152c-3.274-16.417-17.205-28.882-33.875-30.312l-0.543-0.047v0.545v19.79v0.417l0.41,0.075
					c6.994,1.275,12.56,6.829,13.851,13.819L75.251,55.759 M20.444,55.759h0.545h19.768h0.416l0.075-0.409
					c1.289-6.985,6.851-12.538,13.839-13.817l0.41-0.075v-0.417V21.252v-0.546l-0.544,0.048c-1.426,0.125-2.822,0.323-4.149,0.588
					c-16.417,3.274-28.882,17.203-30.313,33.874L20.444,55.759 M60.915,96.229l0.544-0.047c1.422-0.124,2.819-0.322,4.152-0.588
					c16.418-3.275,28.883-17.205,30.313-33.874l0.047-0.543h-0.545H75.677h-0.418l-0.074,0.411
					c-1.269,7.023-6.839,12.602-13.859,13.881l-0.41,0.075v0.417v19.723V96.229 M55.497,96.231v-0.545V75.959v-0.417l-0.41-0.075
					c-7.015-1.284-12.579-6.861-13.848-13.879l-0.074-0.411h-0.418H20.991h-0.546l0.048,0.543c0.125,1.427,0.323,2.825,0.588,4.153
					c3.274,16.416,17.203,28.88,33.873,30.311L55.497,96.231 M61.269,0.828l-0.104,0.021C60.194,2.613,59.253,4.6,59.05,6.634
					l-0.012,0.041l-2.599,0.038l-0.014-0.041c-0.27-2.03-1.266-3.979-2.286-5.72l-0.104-0.019l-1.824,0.171l-0.097,0.037
					c-0.693,1.893-1.292,4.004-1.187,6.044l-0.005,0.043l-2.562,0.444l-0.02-0.039c-0.582-1.956-1.863-3.745-3.152-5.291
					l-0.104-0.002l-1.776,0.454L43.22,2.847c-0.385,1.975-0.655,4.16-0.225,6.155l0.002,0.043l-2.461,0.84L40.511,9.85
					C39.642,8,38.071,6.452,36.571,5.116l-0.105,0.016l-1.682,0.726l-0.082,0.065c-0.075,2.014,0.01,4.208,0.74,6.116l0.008,0.042
					l-2.297,1.213l-0.031-0.03c-1.16-1.681-2.929-2.985-4.635-4.059l-0.099,0.03l-1.549,0.979l-0.069,0.078
					c0.242,2,0.664,4.154,1.688,5.924l0.014,0.042l-2.079,1.558l-0.034-0.026c-1.41-1.479-3.361-2.486-5.213-3.284l-0.094,0.046
					l-1.375,1.21l-0.058,0.089c0.557,1.932,1.301,4.006,2.595,5.587l0.021,0.037l-1.811,1.865l-0.038-0.021
					c-1.616-1.245-3.715-1.933-5.661-2.428l-0.085,0.06l-1.17,1.41l-0.044,0.096c0.847,1.824,1.915,3.754,3.437,5.112l0.027,0.035
					l-1.498,2.124l-0.041-0.014c-1.795-0.97-3.965-1.332-5.97-1.513l-0.076,0.073L8.37,29.85l-0.027,0.101
					c1.125,1.676,2.48,3.396,4.193,4.513l0.031,0.029l-1.145,2.334l-0.044-0.007c-1.348-0.479-2.838-0.627-4.299-0.627
					c-0.621,0-1.237,0.026-1.835,0.066l-0.063,0.084l-0.677,1.703L4.493,38.15c1.375,1.471,2.979,2.975,4.849,3.8l0.036,0.025
					l-0.766,2.482l-0.045-0.001c-0.604-0.113-1.224-0.161-1.849-0.161c-1.45,0-2.928,0.259-4.297,0.568l-0.05,0.093l-0.401,1.787
					l0.005,0.104c1.587,1.233,3.407,2.48,5.383,2.995l0.039,0.02l-0.369,2.572l-0.043,0.006c-0.072-0.002-0.144-0.002-0.216-0.002
					c-1.975,0-3.982,0.647-5.79,1.366l-0.035,0.099l-0.117,1.829l0.021,0.103c1.766,0.971,3.751,1.911,5.784,2.115l0.043,0.013
					l0.038,2.599l-0.041,0.013c-2.025,0.269-3.988,1.26-5.721,2.286l-0.018,0.103l0.17,1.825l0.037,0.099
					c1.741,0.626,3.661,1.198,5.547,1.198c0.166,0,0.333-0.004,0.498-0.014l0.044,0.006l0.443,2.56l-0.04,0.021
					c-1.958,0.578-3.743,1.868-5.291,3.152l-0.002,0.104l0.453,1.777l0.053,0.089c1.261,0.246,2.608,0.446,3.937,0.446
					c0.752,0,1.498-0.064,2.22-0.22l0.043-0.001l0.84,2.46L9.85,76.489c-1.841,0.874-3.41,2.431-4.732,3.941l0.013,0.104
					l0.728,1.681l0.063,0.083c0.36,0.011,0.726,0.018,1.093,0.018c1.697,0,3.457-0.151,5.022-0.759l0.044-0.008l1.214,2.298
					l-0.031,0.031c-1.686,1.153-2.98,2.935-4.059,4.633l0.031,0.101l0.979,1.547l0.077,0.07c1.999-0.248,4.157-0.66,5.925-1.688
					l0.04-0.015l1.56,2.08l-0.026,0.035c-1.482,1.401-2.49,3.363-3.284,5.211l0.046,0.094l1.211,1.376l0.086,0.057
					c1.936-0.554,4.003-1.304,5.588-2.593l0.038-0.021l1.864,1.81l-0.02,0.039c-1.246,1.614-1.934,3.714-2.429,5.661l0.06,0.085
					l1.41,1.17l0.098,0.043c1.823-0.848,3.75-1.916,5.111-3.437l0.033-0.026l2.127,1.497l-0.016,0.04
					c-0.978,1.793-1.322,3.969-1.513,5.972l0.073,0.075l1.576,0.935l0.102,0.027c1.665-1.126,3.409-2.475,4.511-4.193l0.029-0.031
					l2.333,1.146l-0.007,0.041c-0.681,1.932-0.681,4.121-0.56,6.136l0.084,0.063l1.703,0.676l0.104,0.012
					c1.473-1.37,2.978-2.979,3.801-4.848l0.023-0.036l2.484,0.767l-0.002,0.045c-0.363,2.012-0.037,4.178,0.408,6.145l0.092,0.05
					l1.787,0.401l0.105-0.005c1.243-1.586,2.465-3.408,2.995-5.382l0.019-0.04l2.572,0.369l0.007,0.044
					c-0.056,2.037,0.613,4.142,1.362,6.006l0.1,0.035l1.829,0.116l0.103-0.021c0.971-1.765,1.911-3.752,2.117-5.785l0.011-0.042
					l2.599-0.039l0.013,0.042c0.269,2.03,1.266,3.979,2.285,5.72l0.104,0.019l1.824-0.17l0.098-0.038
					c0.693-1.894,1.292-4.003,1.186-6.045l0.006-0.042l2.56-0.445l0.021,0.04c0.582,1.956,1.863,3.745,3.152,5.291l0.104,0.003
					l1.775-0.455l0.092-0.053c0.385-1.974,0.656-4.158,0.225-6.154l-0.002-0.043l2.459-0.84l0.027,0.036
					c0.869,1.848,2.44,3.397,3.94,4.732l0.104-0.015l1.682-0.726l0.082-0.065c0.076-2.015-0.01-4.207-0.739-6.115l-0.011-0.043
					l2.3-1.213l0.029,0.03c1.161,1.681,2.931,2.986,4.635,4.059l0.099-0.03l1.55-0.98l0.069-0.077c-0.244-2-0.663-4.155-1.688-5.924
					l-0.014-0.042l2.078-1.557l0.035,0.024c1.41,1.48,3.361,2.486,5.211,3.285l0.096-0.047l1.373-1.211l0.061-0.086
					c-0.558-1.933-1.301-4.008-2.596-5.587l-0.021-0.039l1.81-1.864l0.039,0.021c1.616,1.244,3.713,1.933,5.66,2.428l0.086-0.06
					l1.17-1.411l0.043-0.096c-0.846-1.823-1.916-3.752-3.437-5.112l-0.024-0.033l1.496-2.126l0.039,0.014
					c1.797,0.971,3.967,1.333,5.973,1.514l0.076-0.072l0.933-1.577l0.028-0.101c-1.125-1.674-2.479-3.396-4.191-4.513l-0.033-0.029
					l1.146-2.332l0.042,0.007c1.347,0.479,2.835,0.627,4.295,0.627c0.622,0,1.241-0.027,1.84-0.066l0.063-0.085l0.676-1.702
					l0.011-0.105c-1.374-1.471-2.978-2.973-4.848-3.8l-0.035-0.022l0.766-2.484h0.044c0.604,0.113,1.225,0.162,1.85,0.162
					c1.451,0,2.93-0.259,4.298-0.568l0.049-0.092l0.4-1.789l-0.004-0.104c-1.586-1.232-3.406-2.48-5.383-2.995l-0.039-0.019
					l0.367-2.573l0.045-0.006c0.071,0.001,0.142,0.002,0.212,0.002c1.976,0,3.988-0.646,5.793-1.367l0.036-0.098l0.117-1.828
					l-0.021-0.104c-1.764-0.971-3.75-1.91-5.785-2.116l-0.042-0.013l-0.038-2.598l0.043-0.014c2.023-0.268,3.986-1.258,5.719-2.285
					l0.019-0.104l-0.171-1.824l-0.037-0.099c-1.743-0.627-3.664-1.199-5.55-1.199c-0.164,0-0.33,0.004-0.494,0.014l-0.044-0.005
					l-0.443-2.561l0.037-0.02c1.961-0.579,3.744-1.868,5.293-3.152l0.001-0.104l-0.452-1.775l-0.052-0.092
					c-1.264-0.245-2.611-0.446-3.941-0.446c-0.75,0-1.495,0.064-2.216,0.22l-0.043,0.002l-0.84-2.46l0.035-0.025
					c1.842-0.875,3.41-2.431,4.734-3.941l-0.016-0.104l-0.727-1.682l-0.063-0.083c-0.36-0.011-0.728-0.019-1.097-0.019
					c-1.695,0-3.455,0.151-5.021,0.761l-0.043,0.008l-1.214-2.299l0.032-0.031c1.686-1.153,2.979-2.936,4.058-4.632l-0.03-0.102
					l-0.979-1.547l-0.077-0.071c-2,0.249-4.156,0.661-5.924,1.688l-0.041,0.015l-1.559-2.079l0.025-0.035
					c1.48-1.403,2.49-3.364,3.283-5.211l-0.043-0.094l-1.212-1.376l-0.087-0.058c-1.936,0.556-4.002,1.306-5.589,2.594l-0.036,0.021
					l-1.865-1.811l0.021-0.039c1.245-1.614,1.933-3.714,2.427-5.661l-0.06-0.085l-1.411-1.17l-0.094-0.042
					c-1.824,0.846-3.752,1.914-5.113,3.435l-0.033,0.027l-2.125-1.497l0.012-0.041c0.979-1.793,1.324-3.969,1.514-5.972
					l-0.072-0.074l-1.576-0.935l-0.101-0.028c-1.667,1.127-3.41,2.476-4.513,4.193l-0.03,0.032l-2.333-1.146l0.008-0.042
					c0.683-1.931,0.682-4.121,0.562-6.134l-0.085-0.064l-1.702-0.675l-0.104-0.012c-1.471,1.371-2.978,2.979-3.801,4.847
					l-0.023,0.036l-2.484-0.766l0.001-0.044c0.362-2.014,0.04-4.178-0.407-6.146l-0.092-0.049L70.257,1.97l-0.105,0.006
					c-1.244,1.586-2.465,3.408-2.996,5.383l-0.018,0.039l-2.572-0.369l-0.007-0.043c0.056-2.038-0.614-4.145-1.363-6.007
					l-0.099-0.034L61.269,0.828L61.269,0.828z M75.667,55.259c-1.333-7.223-7.023-12.902-14.252-14.22V21.25
					c16.139,1.384,30.1,13.228,33.428,29.911c0.273,1.37,0.461,2.737,0.58,4.098H75.667L75.667,55.259z M20.989,55.259
					C22.374,39.12,34.218,25.16,50.901,21.833c1.369-0.273,2.736-0.461,4.096-0.58v19.789c-7.221,1.322-12.908,6.999-14.24,14.218
					H20.989L20.989,55.259z M95.426,61.677c-1.384,16.138-13.229,30.099-29.912,33.427c-1.37,0.273-2.737,0.461-4.099,0.58V75.961
					c7.25-1.321,12.951-7.031,14.262-14.284H95.426L95.426,61.677z M54.997,95.686c-16.138-1.385-30.099-13.228-33.426-29.91
					c-0.273-1.371-0.461-2.738-0.58-4.099h19.756c1.311,7.25,7.009,12.957,14.25,14.282V95.686L54.997,95.686z"/>
			</g>
			<g>
				<path d="M58.263,9.736c23.124,0,43.194,16.487,47.724,39.202c2.547,12.762-0.029,25.752-7.254,36.577
					S80.5,103.703,67.737,106.249c-3.162,0.63-6.386,0.95-9.581,0.95c-23.126,0-43.199-16.487-47.731-39.202
					c-2.545-12.763,0.032-25.754,7.258-36.578c7.226-10.825,18.233-18.188,30.996-20.732C51.842,10.056,55.066,9.736,58.263,9.736
					 M58.263,9.236c-3.192,0-6.431,0.312-9.682,0.96C21.921,15.513,4.618,41.435,9.935,68.095
					c4.67,23.408,25.23,39.604,48.222,39.604c3.192,0,6.428-0.312,9.679-0.96c26.659-5.319,43.962-31.24,38.642-57.899
					C101.81,25.431,81.254,9.236,58.263,9.236L58.263,9.236z"/>
			</g>
			<g>
				<circle fill="none" stroke="#000000" stroke-width="0.5" stroke-miterlimit="10" cx="58.208" cy="58.468" r="46.575"/>
				<circle fill="none" stroke="#000000" stroke-width="0.5" stroke-miterlimit="10" cx="58.208" cy="58.468" r="42.064"/>
				
					<line fill="none" stroke="#000000" stroke-width="0.5" stroke-miterlimit="10" x1="56.63" y1="16.427" x2="60.028" y2="11.917"/>
				
					<line fill="none" stroke="#000000" stroke-width="0.5" stroke-miterlimit="10" x1="56.493" y1="105.022" x2="59.897" y2="100.503"/>
				
					<line fill="none" stroke="#000000" stroke-width="0.5" stroke-miterlimit="10" x1="53.702" y1="16.643" x2="56.777" y2="11.907"/>
				
					<line fill="none" stroke="#000000" stroke-width="0.5" stroke-miterlimit="10" x1="59.745" y1="105.032" x2="62.826" y2="100.287"/>
				
					<line fill="none" stroke="#000000" stroke-width="0.5" stroke-miterlimit="10" x1="50.796" y1="17.063" x2="53.533" y2="12.124"/>
				
					<line fill="none" stroke="#000000" stroke-width="0.5" stroke-miterlimit="10" x1="62.989" y1="104.815" x2="65.732" y2="99.867"/>
				
					<line fill="none" stroke="#000000" stroke-width="0.5" stroke-miterlimit="10" x1="47.926" y1="17.684" x2="50.312" y2="12.567"/>
				
					<line fill="none" stroke="#000000" stroke-width="0.5" stroke-miterlimit="10" x1="66.211" y1="104.372" x2="68.603" y2="99.245"/>
				
					<line fill="none" stroke="#000000" stroke-width="0.5" stroke-miterlimit="10" x1="45.105" y1="18.504" x2="47.129" y2="13.233"/>
				
					<line fill="none" stroke="#000000" stroke-width="0.5" stroke-miterlimit="10" x1="69.394" y1="103.706" x2="71.422" y2="98.424"/>
				<line fill="none" stroke="#000000" stroke-width="0.5" stroke-miterlimit="10" x1="42.35" y1="19.52" x2="44" y2="14.12"/>
				
					<line fill="none" stroke="#000000" stroke-width="0.5" stroke-miterlimit="10" x1="72.522" y1="102.819" x2="74.177" y2="97.408"/>
				
					<line fill="none" stroke="#000000" stroke-width="0.5" stroke-miterlimit="10" x1="39.672" y1="20.725" x2="40.941" y2="15.223"/>
				
					<line fill="none" stroke="#000000" stroke-width="0.5" stroke-miterlimit="10" x1="75.582" y1="101.716" x2="76.854" y2="96.203"/>
				
					<line fill="none" stroke="#000000" stroke-width="0.5" stroke-miterlimit="10" x1="37.085" y1="22.113" x2="37.967" y2="16.536"/>
				
					<line fill="none" stroke="#000000" stroke-width="0.5" stroke-miterlimit="10" x1="78.557" y1="100.402" x2="79.441" y2="94.814"/>
				
					<line fill="none" stroke="#000000" stroke-width="0.5" stroke-miterlimit="10" x1="34.601" y1="23.679" x2="35.092" y2="18.054"/>
				
					<line fill="none" stroke="#000000" stroke-width="0.5" stroke-miterlimit="10" x1="81.433" y1="98.884" x2="81.925" y2="93.248"/>
				
					<line fill="none" stroke="#000000" stroke-width="0.5" stroke-miterlimit="10" x1="32.231" y1="25.415" x2="32.329" y2="19.769"/>
				
					<line fill="none" stroke="#000000" stroke-width="0.5" stroke-miterlimit="10" x1="84.195" y1="97.169" x2="84.293" y2="91.513"/>
				
					<line fill="none" stroke="#000000" stroke-width="0.5" stroke-miterlimit="10" x1="29.989" y1="27.311" x2="29.692" y2="21.672"/>
				
					<line fill="none" stroke="#000000" stroke-width="0.5" stroke-miterlimit="10" x1="86.832" y1="95.266" x2="86.534" y2="89.617"/>
				
					<line fill="none" stroke="#000000" stroke-width="0.5" stroke-miterlimit="10" x1="27.885" y1="29.358" x2="27.195" y2="23.754"/>
				
					<line fill="none" stroke="#000000" stroke-width="0.5" stroke-miterlimit="10" x1="89.329" y1="93.184" x2="88.639" y2="87.568"/>
				
					<line fill="none" stroke="#000000" stroke-width="0.5" stroke-miterlimit="10" x1="25.928" y1="31.548" x2="24.85" y2="26.006"/>
				
					<line fill="none" stroke="#000000" stroke-width="0.5" stroke-miterlimit="10" x1="91.675" y1="90.932" x2="90.595" y2="85.378"/>
				
					<line fill="none" stroke="#000000" stroke-width="0.5" stroke-miterlimit="10" x1="24.129" y1="33.87" x2="22.667" y2="28.416"/>
				
					<line fill="none" stroke="#000000" stroke-width="0.5" stroke-miterlimit="10" x1="93.858" y1="88.521" x2="92.394" y2="83.057"/>
				
					<line fill="none" stroke="#000000" stroke-width="0.5" stroke-miterlimit="10" x1="22.496" y1="36.311" x2="20.657" y2="30.972"/>
				
					<line fill="none" stroke="#000000" stroke-width="0.5" stroke-miterlimit="10" x1="95.868" y1="85.965" x2="94.025" y2="80.616"/>
				
					<line fill="none" stroke="#000000" stroke-width="0.5" stroke-miterlimit="10" x1="21.037" y1="38.859" x2="18.831" y2="33.663"/>
				
					<line fill="none" stroke="#000000" stroke-width="0.5" stroke-miterlimit="10" x1="97.695" y1="83.274" x2="95.483" y2="78.067"/>
				
					<line fill="none" stroke="#000000" stroke-width="0.5" stroke-miterlimit="10" x1="19.761" y1="41.503" x2="17.197" y2="36.473"/>
				
					<line fill="none" stroke="#000000" stroke-width="0.5" stroke-miterlimit="10" x1="99.33" y1="80.463" x2="96.761" y2="75.423"/>
				
					<line fill="none" stroke="#000000" stroke-width="0.5" stroke-miterlimit="10" x1="18.671" y1="44.23" x2="15.764" y2="39.391"/>
				
					<line fill="none" stroke="#000000" stroke-width="0.5" stroke-miterlimit="10" x1="100.765" y1="77.545" x2="97.85" y2="72.696"/>
				
					<line fill="none" stroke="#000000" stroke-width="0.5" stroke-miterlimit="10" x1="17.774" y1="47.026" x2="14.537" y2="42.402"/>
				
					<line fill="none" stroke="#000000" stroke-width="0.5" stroke-miterlimit="10" x1="101.991" y1="74.533" x2="98.746" y2="69.9"/>
				
					<line fill="none" stroke="#000000" stroke-width="0.5" stroke-miterlimit="10" x1="17.075" y1="49.878" x2="13.523" y2="45.492"/>
				
					<line fill="none" stroke="#000000" stroke-width="0.5" stroke-miterlimit="10" x1="103.005" y1="71.443" x2="99.444" y2="67.048"/>
				
					<line fill="none" stroke="#000000" stroke-width="0.5" stroke-miterlimit="10" x1="16.576" y1="52.772" x2="12.728" y2="48.644"/>
				
					<line fill="none" stroke="#000000" stroke-width="0.5" stroke-miterlimit="10" x1="103.802" y1="68.291" x2="99.943" y2="64.154"/>
				
					<line fill="none" stroke="#000000" stroke-width="0.5" stroke-miterlimit="10" x1="16.28" y1="55.694" x2="12.153" y2="51.844"/>
				
					<line fill="none" stroke="#000000" stroke-width="0.5" stroke-miterlimit="10" x1="104.376" y1="65.089" x2="100.238" y2="61.233"/>
				
					<line fill="none" stroke="#000000" stroke-width="0.5" stroke-miterlimit="10" x1="16.189" y1="58.629" x2="11.804" y2="55.076"/>
				
					<line fill="none" stroke="#000000" stroke-width="0.5" stroke-miterlimit="10" x1="104.726" y1="61.856" x2="100.329" y2="58.298"/>
				
					<line fill="none" stroke="#000000" stroke-width="0.5" stroke-miterlimit="10" x1="16.304" y1="61.563" x2="11.681" y2="58.324"/>
				
					<line fill="none" stroke="#000000" stroke-width="0.5" stroke-miterlimit="10" x1="104.85" y1="58.607" x2="100.215" y2="55.364"/>
				
					<line fill="none" stroke="#000000" stroke-width="0.5" stroke-miterlimit="10" x1="16.622" y1="64.483" x2="11.784" y2="61.574"/>
				
					<line fill="none" stroke="#000000" stroke-width="0.5" stroke-miterlimit="10" x1="104.746" y1="55.357" x2="99.896" y2="52.445"/>
				
					<line fill="none" stroke="#000000" stroke-width="0.5" stroke-miterlimit="10" x1="17.144" y1="67.373" x2="12.114" y2="64.808"/>
				
					<line fill="none" stroke="#000000" stroke-width="0.5" stroke-miterlimit="10" x1="104.416" y1="52.122" x2="99.375" y2="49.555"/>
				
					<line fill="none" stroke="#000000" stroke-width="0.5" stroke-miterlimit="10" x1="17.865" y1="70.219" x2="12.669" y2="68.012"/>
				
					<line fill="none" stroke="#000000" stroke-width="0.5" stroke-miterlimit="10" x1="103.86" y1="48.917" x2="98.653" y2="46.709"/>
				
					<line fill="none" stroke="#000000" stroke-width="0.5" stroke-miterlimit="10" x1="18.783" y1="73.008" x2="13.445" y2="71.169"/>
				
					<line fill="none" stroke="#000000" stroke-width="0.5" stroke-miterlimit="10" x1="103.084" y1="45.76" x2="97.735" y2="43.92"/>
				
					<line fill="none" stroke="#000000" stroke-width="0.5" stroke-miterlimit="10" x1="19.894" y1="75.727" x2="14.44" y2="74.264"/>
				
					<line fill="none" stroke="#000000" stroke-width="0.5" stroke-miterlimit="10" x1="102.089" y1="42.664" x2="96.625" y2="41.202"/>
				
					<line fill="none" stroke="#000000" stroke-width="0.5" stroke-miterlimit="10" x1="21.191" y1="78.361" x2="15.648" y2="77.283"/>
				
					<line fill="none" stroke="#000000" stroke-width="0.5" stroke-miterlimit="10" x1="100.88" y1="39.645" x2="95.327" y2="38.568"/>
				
					<line fill="none" stroke="#000000" stroke-width="0.5" stroke-miterlimit="10" x1="22.67" y1="80.898" x2="17.064" y2="80.209"/>
				
					<line fill="none" stroke="#000000" stroke-width="0.5" stroke-miterlimit="10" x1="99.463" y1="36.718" x2="93.849" y2="36.031"/>
				
					<line fill="none" stroke="#000000" stroke-width="0.5" stroke-miterlimit="10" x1="24.321" y1="83.326" x2="18.682" y2="83.03"/>
				
					<line fill="none" stroke="#000000" stroke-width="0.5" stroke-miterlimit="10" x1="97.846" y1="33.896" x2="92.197" y2="33.603"/>
				
					<line fill="none" stroke="#000000" stroke-width="0.5" stroke-miterlimit="10" x1="26.138" y1="85.633" x2="20.491" y2="85.731"/>
				
					<line fill="none" stroke="#000000" stroke-width="0.5" stroke-miterlimit="10" x1="96.036" y1="31.195" x2="90.381" y2="31.295"/>
				
					<line fill="none" stroke="#000000" stroke-width="0.5" stroke-miterlimit="10" x1="28.111" y1="87.808" x2="22.485" y2="88.299"/>
				
					<line fill="none" stroke="#000000" stroke-width="0.5" stroke-miterlimit="10" x1="94.042" y1="28.626" x2="88.407" y2="29.121"/>
				
					<line fill="none" stroke="#000000" stroke-width="0.5" stroke-miterlimit="10" x1="30.231" y1="89.839" x2="24.653" y2="90.722"/>
				
					<line fill="none" stroke="#000000" stroke-width="0.5" stroke-miterlimit="10" x1="91.873" y1="26.203" x2="86.286" y2="27.09"/>
				
					<line fill="none" stroke="#000000" stroke-width="0.5" stroke-miterlimit="10" x1="32.488" y1="91.718" x2="26.985" y2="92.988"/>
				
					<line fill="none" stroke="#000000" stroke-width="0.5" stroke-miterlimit="10" x1="89.541" y1="23.937" x2="84.029" y2="25.211"/>
				<line fill="none" stroke="#000000" stroke-width="0.5" stroke-miterlimit="10" x1="34.87" y1="93.435" x2="29.47" y2="95.085"/>
				
					<line fill="none" stroke="#000000" stroke-width="0.5" stroke-miterlimit="10" x1="87.056" y1="21.839" x2="81.646" y2="23.495"/>
				
					<line fill="none" stroke="#000000" stroke-width="0.5" stroke-miterlimit="10" x1="37.366" y1="94.981" x2="32.094" y2="97.005"/>
				
					<line fill="none" stroke="#000000" stroke-width="0.5" stroke-miterlimit="10" x1="84.431" y1="19.919" x2="79.15" y2="21.949"/>
				
					<line fill="none" stroke="#000000" stroke-width="0.5" stroke-miterlimit="10" x1="39.964" y1="96.35" x2="34.846" y2="98.736"/>
				
					<line fill="none" stroke="#000000" stroke-width="0.5" stroke-miterlimit="10" x1="81.678" y1="18.188" x2="76.553" y2="20.581"/>
				
					<line fill="none" stroke="#000000" stroke-width="0.5" stroke-miterlimit="10" x1="42.651" y1="97.534" x2="37.712" y2="100.272"/>
				
					<line fill="none" stroke="#000000" stroke-width="0.5" stroke-miterlimit="10" x1="78.811" y1="16.652" x2="73.865" y2="19.396"/>
				
					<line fill="none" stroke="#000000" stroke-width="0.5" stroke-miterlimit="10" x1="45.415" y1="98.528" x2="40.678" y2="101.604"/>
				
					<line fill="none" stroke="#000000" stroke-width="0.5" stroke-miterlimit="10" x1="75.844" y1="15.321" x2="71.102" y2="18.403"/>
				
					<line fill="none" stroke="#000000" stroke-width="0.5" stroke-miterlimit="10" x1="48.241" y1="99.327" x2="43.729" y2="102.725"/>
				<line fill="none" stroke="#000000" stroke-width="0.5" stroke-miterlimit="10" x1="72.791" y1="14.2" x2="68.275" y2="17.604"/>
				
					<line fill="none" stroke="#000000" stroke-width="0.5" stroke-miterlimit="10" x1="51.116" y1="99.926" x2="46.852" y2="103.63"/>
				<line fill="none" stroke="#000000" stroke-width="0.5" stroke-miterlimit="10" x1="69.668" y1="13.294" x2="65.4" y2="17.005"/>
				
					<line fill="none" stroke="#000000" stroke-width="0.5" stroke-miterlimit="10" x1="54.025" y1="100.324" x2="50.03" y2="104.316"/>
				
					<line fill="none" stroke="#000000" stroke-width="0.5" stroke-miterlimit="10" x1="66.489" y1="12.608" x2="62.49" y2="16.608"/>
				
					<line fill="none" stroke="#000000" stroke-width="0.5" stroke-miterlimit="10" x1="56.955" y1="100.518" x2="53.249" y2="104.778"/>
				
					<line fill="none" stroke="#000000" stroke-width="0.5" stroke-miterlimit="10" x1="63.271" y1="12.146" x2="59.561" y2="16.415"/>
			</g>
			<circle fill="none" stroke="#000000" stroke-width="0.5" stroke-miterlimit="10" cx="58.212" cy="58.5" r="14.196"/>
			<circle fill="none" stroke="#000000" stroke-width="0.5" stroke-miterlimit="10" cx="58.212" cy="58.5" r="9.922"/>
			
				<line fill="none" stroke="#000000" stroke-width="0.5" stroke-miterlimit="10" x1="58.212" y1="44.304" x2="58.212" y2="48.578"/>
			
				<line fill="none" stroke="#000000" stroke-width="0.5" stroke-miterlimit="10" x1="58.212" y1="68.422" x2="58.212" y2="72.696"/>
			
				<line fill="none" stroke="#000000" stroke-width="0.5" stroke-miterlimit="10" x1="55.261" y1="44.614" x2="56.149" y2="48.795"/>
			
				<line fill="none" stroke="#000000" stroke-width="0.5" stroke-miterlimit="10" x1="60.275" y1="68.205" x2="61.164" y2="72.386"/>
			<line fill="none" stroke="#000000" stroke-width="0.5" stroke-miterlimit="10" x1="52.438" y1="45.53" x2="54.177" y2="49.436"/>
			
				<line fill="none" stroke="#000000" stroke-width="0.5" stroke-miterlimit="10" x1="62.248" y1="67.563" x2="63.986" y2="71.468"/>
			
				<line fill="none" stroke="#000000" stroke-width="0.5" stroke-miterlimit="10" x1="49.868" y1="47.014" x2="52.381" y2="50.472"/>
			
				<line fill="none" stroke="#000000" stroke-width="0.5" stroke-miterlimit="10" x1="64.045" y1="66.526" x2="66.557" y2="69.984"/>
			<line fill="none" stroke="#000000" stroke-width="0.5" stroke-miterlimit="10" x1="47.663" y1="48.999" x2="50.84" y2="51.86"/>
			
				<line fill="none" stroke="#000000" stroke-width="0.5" stroke-miterlimit="10" x1="65.586" y1="65.138" x2="68.763" y2="67.998"/>
			
				<line fill="none" stroke="#000000" stroke-width="0.5" stroke-miterlimit="10" x1="45.918" y1="51.399" x2="49.621" y2="53.538"/>
			
				<line fill="none" stroke="#000000" stroke-width="0.5" stroke-miterlimit="10" x1="66.805" y1="63.459" x2="70.507" y2="65.597"/>
			<line fill="none" stroke="#000000" stroke-width="0.5" stroke-miterlimit="10" x1="44.711" y1="54.11" x2="48.777" y2="55.432"/>
			
				<line fill="none" stroke="#000000" stroke-width="0.5" stroke-miterlimit="10" x1="67.648" y1="61.564" x2="71.714" y2="62.885"/>
			<line fill="none" stroke="#000000" stroke-width="0.5" stroke-miterlimit="10" x1="44.094" y1="57.013" x2="48.346" y2="57.46"/>
			<line fill="none" stroke="#000000" stroke-width="0.5" stroke-miterlimit="10" x1="68.08" y1="59.536" x2="72.331" y2="59.981"/>
			<line fill="none" stroke="#000000" stroke-width="0.5" stroke-miterlimit="10" x1="44.094" y1="59.98" x2="48.346" y2="59.534"/>
			<line fill="none" stroke="#000000" stroke-width="0.5" stroke-miterlimit="10" x1="68.08" y1="57.461" x2="72.331" y2="57.014"/>
			<line fill="none" stroke="#000000" stroke-width="0.5" stroke-miterlimit="10" x1="44.71" y1="62.883" x2="48.776" y2="61.563"/>
			<line fill="none" stroke="#000000" stroke-width="0.5" stroke-miterlimit="10" x1="67.648" y1="55.432" x2="71.714" y2="54.11"/>
			
				<line fill="none" stroke="#000000" stroke-width="0.5" stroke-miterlimit="10" x1="45.916" y1="65.594" x2="49.619" y2="63.458"/>
			
				<line fill="none" stroke="#000000" stroke-width="0.5" stroke-miterlimit="10" x1="66.805" y1="53.537" x2="70.507" y2="51.398"/>
			<line fill="none" stroke="#000000" stroke-width="0.5" stroke-miterlimit="10" x1="47.66" y1="67.995" x2="50.838" y2="65.136"/>
			
				<line fill="none" stroke="#000000" stroke-width="0.5" stroke-miterlimit="10" x1="65.586" y1="51.858" x2="68.762" y2="48.997"/>
			
				<line fill="none" stroke="#000000" stroke-width="0.5" stroke-miterlimit="10" x1="49.865" y1="69.981" x2="52.379" y2="66.524"/>
			<line fill="none" stroke="#000000" stroke-width="0.5" stroke-miterlimit="10" x1="64.044" y1="50.47" x2="66.556" y2="47.011"/>
			
				<line fill="none" stroke="#000000" stroke-width="0.5" stroke-miterlimit="10" x1="52.436" y1="71.466" x2="54.175" y2="67.562"/>
			
				<line fill="none" stroke="#000000" stroke-width="0.5" stroke-miterlimit="10" x1="62.247" y1="49.433" x2="63.985" y2="45.527"/>
			
				<line fill="none" stroke="#000000" stroke-width="0.5" stroke-miterlimit="10" x1="55.258" y1="72.384" x2="56.147" y2="68.203"/>
			<line fill="none" stroke="#000000" stroke-width="0.5" stroke-miterlimit="10" x1="60.274" y1="48.792" x2="61.162" y2="44.61"/>
		</g>
		<g>
			<g display="none" opacity="0.5">
				
					<line display="inline" fill="#C3BF79" stroke="#000000" stroke-width="0.5" stroke-miterlimit="10" x1="66.333" y1="56.938" x2="50.154" y2="60.164"/>
				
					<line display="inline" fill="#C3BF79" stroke="#000000" stroke-width="0.5" stroke-miterlimit="10" x1="59.856" y1="66.639" x2="56.63" y2="50.462"/>
			</g>
			<g display="none">
				<g display="inline">
					<polyline fill="#C3BF79" stroke="#000000" stroke-width="0.5" stroke-miterlimit="10" points="41.588,48.248 41.272,48.773 
						40.974,49.303 40.695,49.847 40.436,50.404 					"/>
					
						<line fill="#C3BF79" stroke="#000000" stroke-width="0.5" stroke-miterlimit="10" x1="42.057" y1="49.886" x2="39.899" y2="48.727"/>
					<polyline fill="#C3BF79" stroke="#000000" stroke-width="0.5" stroke-miterlimit="10" points="40.548,47.595 40.747,48.465 
						40.974,49.303 41.246,50.124 41.547,50.914 					"/>
					<polyline fill="#C3BF79" stroke="#000000" stroke-width="0.5" stroke-miterlimit="10" points="42.632,48.888 41.804,49.079 
						40.974,49.303 40.145,49.579 39.315,49.895 					"/>
					<polyline fill="#C3BF79" stroke="#000000" stroke-width="0.5" stroke-miterlimit="10" points="41.267,46.52 41.165,45.624 
						41.573,45.096 41.999,44.582 42.899,44.496 43.353,44.91 43.391,45.776 44.248,45.732 44.7,46.146 44.791,46.977 44.43,47.403 
						44.088,47.841 43.265,47.929 					"/>
					
						<line fill="#C3BF79" stroke="#000000" stroke-width="0.5" stroke-miterlimit="10" x1="43.005" y1="46.249" x2="43.391" y2="45.776"/>
					<polyline fill="#C3BF79" stroke="#000000" stroke-width="0.5" stroke-miterlimit="10" points="48.248,39.602 49.964,42.85 
						49.017,42.316 48.037,41.831 47.024,41.393 45.962,41 48.065,44.003 					"/>
					<polyline fill="#C3BF79" stroke="#000000" stroke-width="0.5" stroke-miterlimit="10" points="52.315,39.245 51.716,39.44 
						51.118,39.651 50.532,39.885 49.952,40.136 					"/>
					<polyline fill="#C3BF79" stroke="#000000" stroke-width="0.5" stroke-miterlimit="10" points="52.674,40.409 52.106,40.598 
						51.548,40.793 51.001,41.012 50.452,41.249 					"/>
					<polyline fill="#C3BF79" stroke="#000000" stroke-width="0.5" stroke-miterlimit="10" points="56.289,40.908 55.738,40.975 
						55.185,41.069 54.642,41.169 54.104,41.293 53.813,40.098 54.273,39.367 54.875,39.255 55.479,39.161 56.013,38.474 
						55.95,37.864 55.216,37.345 54.557,37.452 53.899,37.575 53.391,38.315 					"/>
					<polyline fill="#C3BF79" stroke="#000000" stroke-width="0.5" stroke-miterlimit="10" points="57.243,37.765 57.884,37.133 
						57.95,40.804 					"/>
					<polyline fill="#C3BF79" stroke="#000000" stroke-width="0.5" stroke-miterlimit="10" points="58.505,40.802 57.95,40.804 
						57.39,40.823 					"/>
					<polyline fill="#C3BF79" stroke="#000000" stroke-width="0.5" stroke-miterlimit="10" points="62.771,39.498 63.364,39.649 
						63.952,39.818 64.536,40.002 65.329,39.635 65.542,39.062 65.122,38.262 64.485,38.063 63.843,37.871 63.194,37.706 
						62.343,41.282 					"/>
					
						<line fill="#C3BF79" stroke="#000000" stroke-width="0.5" stroke-miterlimit="10" x1="65.491" y1="42.353" x2="66.493" y2="40.117"/>
					
						<line fill="#C3BF79" stroke="#000000" stroke-width="0.5" stroke-miterlimit="10" x1="66.741" y1="39.555" x2="66.995" y2="39"/>
					<polyline fill="#C3BF79" stroke="#000000" stroke-width="0.5" stroke-miterlimit="10" points="68.735,43.48 67.927,43.675 
						67.771,42.857 69.362,40.245 					"/>
					<polyline fill="#C3BF79" stroke="#000000" stroke-width="0.5" stroke-miterlimit="10" points="69.782,41.976 69.267,41.625 
						68.729,41.287 68.185,40.965 67.628,40.665 					"/>
					<polyline fill="#C3BF79" stroke="#000000" stroke-width="0.5" stroke-miterlimit="10" points="70.921,46.131 70.534,45.738 
						70.122,45.366 69.704,44.996 69.657,44.171 70.415,43.212 71.292,43.13 71.761,43.542 72.224,43.971 72.675,44.419 					"/>
					<polyline fill="#C3BF79" stroke="#000000" stroke-width="0.5" stroke-miterlimit="10" points="72.601,46.15 73.454,46.215 
						74.327,46.327 74.696,46.833 74.548,47.696 73.019,48.716 					"/>
					
						<line fill="#C3BF79" stroke="#000000" stroke-width="0.5" stroke-miterlimit="10" x1="71.673" y1="46.949" x2="74.458" y2="44.542"/>
					<polyline fill="#C3BF79" stroke="#000000" stroke-width="0.5" stroke-miterlimit="10" points="74.798,52.154 74.995,52.669 
						75.167,53.199 75.323,53.731 76.065,54.122 78.437,53.53 78.858,52.732 78.671,52.088 78.46,51.457 78.228,50.831 					"/>
					
						<line fill="#C3BF79" stroke="#000000" stroke-width="0.5" stroke-miterlimit="10" x1="78.46" y1="51.457" x2="74.995" y2="52.669"/>
					<polyline fill="#C3BF79" stroke="#000000" stroke-width="0.5" stroke-miterlimit="10" points="78.413,57.414 78.362,56.784 
						78.298,56.157 78.214,55.536 78.114,54.907 					"/>
					<polyline fill="#C3BF79" stroke="#000000" stroke-width="0.5" stroke-miterlimit="10" points="77.188,57.481 77.147,56.892 
						77.081,56.308 77.007,55.716 76.905,55.131 					"/>
					<polyline fill="#C3BF79" stroke="#000000" stroke-width="0.5" stroke-miterlimit="10" points="76.515,60.382 75.954,59.771 
						75.981,59.219 76.601,58.666 79.052,58.682 79.649,59.353 79.614,60.024 78.954,60.628 76.515,60.382 					"/>
					
						<line fill="#C3BF79" stroke="#000000" stroke-width="0.5" stroke-miterlimit="10" x1="76.364" y1="61.523" x2="75.765" y2="61.423"/>
					<polyline fill="#C3BF79" stroke="#000000" stroke-width="0.5" stroke-miterlimit="10" points="79.13,63.326 78.966,63.981 
						78.782,64.623 78.591,65.267 78.364,65.901 76.845,64.69 75.261,63.584 					"/>
					<polyline fill="#C3BF79" stroke="#000000" stroke-width="0.5" stroke-miterlimit="10" points="74.747,69.103 74.411,69.608 
						74.056,70.108 73.685,70.602 73.772,71.468 74.245,71.861 75.136,71.725 75.534,71.192 75.921,70.644 76.29,70.091 
						73.194,68.11 					"/>
					<polyline fill="#C3BF79" stroke="#000000" stroke-width="0.5" stroke-miterlimit="10" points="71.093,74.139 71.571,73.723 
						72.044,73.301 72.495,72.867 72.933,72.41 					"/>
					<polyline fill="#C3BF79" stroke="#000000" stroke-width="0.5" stroke-miterlimit="10" points="70.315,73.193 70.767,72.807 
						71.21,72.408 71.632,71.996 72.044,71.569 					"/>
					<polyline fill="#C3BF79" stroke="#000000" stroke-width="0.5" stroke-miterlimit="10" points="70.452,75.403 70.265,76.281 
						69.71,76.652 69.132,77.002 68.257,76.791 67.966,76.259 68.2,75.414 67.372,75.183 67.079,74.644 67.263,73.834 
						67.745,73.544 68.204,73.244 69.013,73.417 					"/>
					
						<line fill="#C3BF79" stroke="#000000" stroke-width="0.5" stroke-miterlimit="10" x1="68.728" y1="75.097" x2="68.2" y2="75.414"/>
					<polyline fill="#C3BF79" stroke="#000000" stroke-width="0.5" stroke-miterlimit="10" points="64.466,75.831 64.78,75.053 
						65.294,74.842 66.058,75.168 67.097,77.383 66.747,78.209 66.126,78.468 65.292,78.13 64.466,75.831 					"/>
					<polyline fill="#C3BF79" stroke="#000000" stroke-width="0.5" stroke-miterlimit="10" points="60.723,77.982 60.113,78.044 
						59.509,78.097 58.893,78.128 58.284,78.746 58.289,79.359 58.957,79.965 59.623,79.933 60.294,79.876 60.959,79.801 
						60.493,76.161 					"/>
					<polyline fill="#C3BF79" stroke="#000000" stroke-width="0.5" stroke-miterlimit="10" points="57.167,76.268 57.101,77.493 
						56.394,78.668 55.612,79.816 55.141,78.505 54.746,77.198 54.97,76 					"/>
					<polyline fill="#C3BF79" stroke="#000000" stroke-width="0.5" stroke-miterlimit="10" points="57.101,77.493 56.503,77.444 
						55.919,77.383 55.33,77.3 54.746,77.198 					"/>
					<polyline fill="#C3BF79" stroke="#000000" stroke-width="0.5" stroke-miterlimit="10" points="50.884,77.362 51.474,77.581 
						52.069,77.781 52.678,77.963 53.284,78.136 					"/>
					<polyline fill="#C3BF79" stroke="#000000" stroke-width="0.5" stroke-miterlimit="10" points="51.329,76.221 51.884,76.43 
						52.444,76.622 53.017,76.793 53.586,76.949 					"/>
					<polyline fill="#C3BF79" stroke="#000000" stroke-width="0.5" stroke-miterlimit="10" points="48.812,73.587 49.28,73.872 
						49.763,74.145 50.259,74.399 50.755,74.645 50.237,75.758 49.427,76.045 48.891,75.757 48.352,75.461 47.508,75.655 
						47.181,76.174 47.431,77.042 48.011,77.372 48.601,77.682 49.466,77.417 					"/>
					<polyline fill="#C3BF79" stroke="#000000" stroke-width="0.5" stroke-miterlimit="10" points="46.186,72.395 47.005,72.29 
						47.444,72.639 47.532,73.463 46.106,75.456 45.207,75.55 44.679,75.134 44.576,74.239 46.186,72.395 					"/>
				</g>
			</g>
			<g>
				<path fill="#C3BF79" d="M59.378,89.896c-0.629-0.966-1.116-2.011-1.413-3.03c-0.232-0.798-0.211-1.528-0.187-2.374l0.013-0.471
					l-3.613-0.322l-0.07,0.466c-0.126,0.837-0.234,1.56-0.604,2.303c-0.485,0.969-1.15,1.911-1.929,2.731l-1.485-0.361
					c-0.32-1.127-0.479-2.27-0.458-3.312c0.017-0.843,0.256-1.543,0.533-2.354l0.142-0.416l-3.36-1.375l-0.188,0.389
					c-0.371,0.775-0.692,1.445-1.272,2.061c-0.728,0.769-1.641,1.473-2.648,2.04l-1.313-0.783c0.025-1.168,0.21-2.306,0.537-3.299
					c0.266-0.804,0.703-1.404,1.208-2.1l0.254-0.349l-2.807-2.304l-0.294,0.318c-0.583,0.63-1.086,1.175-1.822,1.593
					c-0.91,0.516-1.99,0.918-3.132,1.169l-1.023-1.135c0.377-1.133,0.877-2.139,1.486-2.993c0.49-0.69,1.083-1.134,1.769-1.648
					l0.351-0.263l-2.004-3.028l-0.398,0.229c-0.734,0.426-1.369,0.793-2.188,0.971c-0.727,0.158-1.502,0.238-2.306,0.238
					c-0.346,0-0.69-0.015-1.031-0.043l-0.644-1.386c0.667-0.941,1.462-1.776,2.304-2.422c0.665-0.512,1.357-0.76,2.159-1.048
					l0.426-0.154l-1.021-3.482l-0.439,0.1c-0.705,0.162-1.313,0.301-1.988,0.301c-0.13,0-0.262-0.005-0.397-0.017
					c-1.06-0.09-2.179-0.365-3.245-0.797l-0.207-1.514c0.922-0.704,1.927-1.269,2.915-1.637c0.787-0.293,1.524-0.326,2.378-0.364
					l0.448-0.021l0.05-3.628l-0.454-0.035c-0.849-0.063-1.582-0.119-2.357-0.432c-0.984-0.398-1.974-0.991-2.867-1.719l0.249-1.506
					c1.089-0.405,2.215-0.648,3.267-0.706c0.088-0.005,0.174-0.007,0.259-0.007c0.733,0,1.379,0.167,2.127,0.361l0.427,0.11
					l1.121-3.452l-0.412-0.162c-0.797-0.312-1.486-0.581-2.139-1.112c-0.814-0.661-1.584-1.519-2.235-2.488l0.684-1.368
					c0.228-0.013,0.458-0.019,0.688-0.019c0.928,0,1.816,0.104,2.642,0.309c0.816,0.204,1.444,0.592,2.172,1.041l0.379,0.233
					l2.087-2.969l-0.354-0.282c-0.666-0.53-1.242-0.988-1.708-1.687c-0.593-0.889-1.076-1.936-1.401-3.035l1.056-1.106
					c1.118,0.279,2.187,0.714,3.098,1.26c0.713,0.427,1.194,0.977,1.752,1.613l0.312,0.354l2.868-2.221l-0.258-0.379
					c-0.479-0.702-0.894-1.308-1.133-2.11c-0.299-1.003-0.451-2.146-0.443-3.313l1.334-0.746c1.001,0.604,1.894,1.334,2.589,2.116
					c0.559,0.628,0.858,1.3,1.206,2.077l0.185,0.413l3.396-1.278l-0.49-1.599c-0.283-1.162-0.134-2.676,0.449-4.488l1.494-0.318
					c0.772,0.869,1.41,1.83,1.849,2.785c0.353,0.765,0.44,1.499,0.542,2.348l0.054,0.439l3.623-0.218v-0.454
					c-0.002-0.853-0.004-1.588,0.254-2.385c0.326-1.021,0.844-2.051,1.498-2.989l1.523,0.136c0.479,1.049,0.806,2.154,0.945,3.206
					c0.112,0.829-0.02,1.553-0.172,2.391l-0.08,0.449l3.526,0.857l0.138-0.445c0.25-0.808,0.465-1.506,0.943-2.194
					c0.597-0.859,1.395-1.69,2.313-2.411l1.414,0.578c0.151,1.156,0.138,2.308-0.039,3.342c-0.145,0.834-0.485,1.492-0.881,2.254
					L69.7,35.8l3.116,1.859l0.268-0.392c0.476-0.698,0.886-1.302,1.543-1.81c0.838-0.652,1.846-1.212,2.923-1.625l1.181,0.969
					c-0.319,1.894-0.884,3.311-1.679,4.211l-1.153,1.176l2.43,2.696l0.361-0.288c0.663-0.531,1.236-0.99,2.017-1.284
					c0.987-0.374,2.115-0.612,3.271-0.691l0.841,1.276c-0.51,1.018-1.17,1.963-1.914,2.739c-0.576,0.601-1.221,0.947-1.966,1.349
					l-0.412,0.223l1.528,3.292l0.438-0.171c0.787-0.309,1.466-0.576,2.298-0.63c0.208-0.013,0.419-0.02,0.63-0.02
					c0.878,0,1.785,0.109,2.699,0.325l0.429,1.466c-0.813,0.842-1.723,1.55-2.637,2.053c-0.74,0.406-1.465,0.549-2.305,0.715
					l-0.433,0.086l0.489,3.597l0.454-0.034c0.405-0.031,0.787-0.061,1.168-0.061c0.455,0,0.845,0.043,1.229,0.135
					c1.027,0.247,2.093,0.686,3.092,1.273l-0.021,1.527c-1.013,0.56-2.091,0.968-3.125,1.185c-0.331,0.068-0.672,0.102-1.043,0.102
					c-0.442,0-0.889-0.047-1.362-0.096l-0.445-0.046l-0.595,3.58l0.435,0.099c0.834,0.189,1.554,0.353,2.278,0.78
					c0.913,0.54,1.78,1.255,2.579,2.126l-0.47,1.454c-0.809,0.167-1.616,0.251-2.404,0.251c-0.313,0-0.625-0.014-0.935-0.042
					c-0.828-0.075-1.501-0.362-2.279-0.695l-0.431-0.183l-1.622,3.248l0.396,0.228c0.739,0.423,1.377,0.789,1.936,1.409
					c0.717,0.793,1.351,1.756,1.84,2.794l-0.879,1.25c-1.159-0.11-2.28-0.38-3.252-0.784c-0.775-0.324-1.338-0.799-1.99-1.351
					l-0.341-0.287l-2.507,2.624l1.135,1.227c0.764,0.928,1.285,2.356,1.544,4.237l-1.208,0.936c-1.08-0.448-2.071-1.036-2.875-1.706
					c-0.652-0.545-1.053-1.172-1.517-1.898l-0.228-0.356l-3.171,1.771l0.196,0.408c0.371,0.767,0.691,1.429,0.807,2.259
					c0.147,1.051,0.128,2.204-0.055,3.343l-1.43,0.538c-0.883-0.734-1.657-1.589-2.244-2.479c-0.457-0.69-0.65-1.392-0.875-2.204
					l-0.129-0.463l-3.55,0.756l0.066,0.436c0.13,0.848,0.242,1.58,0.105,2.41c-0.177,1.068-0.535,2.164-1.037,3.179L59.378,89.896z
					 M53.944,37.1c-8.843,1.764-15.589,8.642-17.184,17.522l-0.046,0.255l0.257,0.037c0.629,0.09,1.188,0.316,1.661,0.673
					c1.591,1.199,1.91,3.469,0.712,5.06c-0.576,0.763-1.415,1.26-2.362,1.398l-0.254,0.038l0.111,0.645
					c1.762,8.836,8.633,15.581,17.505,17.182l0.255,0.046l0.036-0.257c0.09-0.63,0.316-1.19,0.674-1.664
					c0.689-0.914,1.742-1.438,2.888-1.438c0.789,0,1.54,0.251,2.173,0.728c0.766,0.577,1.263,1.419,1.4,2.37l0.036,0.256
					l0.661-0.116c8.837-1.762,15.581-8.634,17.182-17.507l0.046-0.256l-0.258-0.036c-0.635-0.087-1.199-0.315-1.679-0.676
					c-1.592-1.199-1.911-3.468-0.712-5.06c0.581-0.771,1.428-1.27,2.385-1.403l0.258-0.036l-0.115-0.655
					c-1.765-8.845-8.644-15.59-17.526-17.184l-0.256-0.046l-0.036,0.258c-0.087,0.634-0.314,1.199-0.675,1.677
					c-0.689,0.914-1.742,1.438-2.889,1.438c-0.788,0-1.54-0.251-2.172-0.728c-0.768-0.579-1.266-1.423-1.402-2.376l-0.036-0.257
					L53.944,37.1z"/>
				<path d="M60.392,27.514l1.232,0.109c0.437,0.987,0.735,2.02,0.866,3.004c0.105,0.79-0.021,1.495-0.17,2.313l-0.04,0.218
					l-0.083,0.463l0.457,0.111l3.07,0.746l0.456,0.111l0.14-0.448l0.068-0.222c0.243-0.788,0.453-1.469,0.91-2.125
					c0.558-0.804,1.297-1.583,2.147-2.267l1.144,0.468c0.128,1.082,0.109,2.156-0.057,3.123c-0.137,0.796-0.471,1.438-0.855,2.182
					l-0.092,0.177l-0.216,0.418l0.403,0.241l2.713,1.618l0.404,0.241l0.266-0.388l0.135-0.198c0.463-0.681,0.863-1.269,1.49-1.754
					c0.783-0.61,1.72-1.138,2.723-1.536l0.955,0.783c-0.314,1.776-0.85,3.101-1.576,3.926l-0.998,1.018l-0.33,0.335l0.314,0.35
					l2.115,2.347l0.315,0.349l0.368-0.293l0.178-0.142c0.646-0.518,1.205-0.965,1.949-1.246c0.923-0.349,1.973-0.578,3.055-0.664
					l0.68,1.032c-0.489,0.947-1.109,1.824-1.805,2.549c-0.55,0.572-1.178,0.911-1.904,1.303l-0.206,0.111l-0.413,0.224l0.197,0.426
					l1.33,2.865l0.198,0.426l0.438-0.17l0.22-0.086c0.768-0.301,1.431-0.562,2.222-0.613c0.204-0.013,0.409-0.019,0.615-0.019
					c0.813,0,1.653,0.096,2.501,0.286l0.346,1.185c-0.77,0.778-1.621,1.434-2.477,1.904c-0.705,0.387-1.412,0.527-2.232,0.689
					l-0.202,0.04l-0.461,0.092l0.063,0.466l0.426,3.131l0.063,0.466l0.469-0.035l0.221-0.017c0.402-0.03,0.781-0.06,1.15-0.06
					c0.434,0,0.805,0.041,1.17,0.128c0.96,0.23,1.956,0.634,2.897,1.172l-0.018,1.234c-0.954,0.512-1.961,0.888-2.928,1.09
					c-0.313,0.065-0.639,0.097-0.992,0.097c-0.429,0-0.87-0.046-1.336-0.095l-0.213-0.022L83.4,60.633l-0.076,0.463l-0.518,3.116
					l-0.077,0.464l0.458,0.105l0.207,0.047c0.813,0.185,1.516,0.344,2.205,0.751c0.855,0.505,1.67,1.169,2.424,1.974l-0.379,1.174
					c-0.744,0.145-1.487,0.218-2.212,0.218c-0.308,0-0.615-0.014-0.911-0.041c-0.789-0.072-1.445-0.352-2.205-0.676l-0.214-0.091
					l-0.433-0.183l-0.21,0.42l-1.412,2.827l-0.21,0.422l0.408,0.235l0.191,0.11c0.721,0.413,1.342,0.769,1.874,1.36
					c0.67,0.741,1.267,1.636,1.736,2.602l-0.711,1.011c-1.083-0.116-2.126-0.374-3.034-0.751c-0.74-0.309-1.289-0.773-1.926-1.311
					l-0.162-0.136l-0.358-0.303l-0.325,0.34l-2.182,2.284l-0.324,0.34l0.32,0.345l0.485,0.526l0.47,0.507
					c0.723,0.879,1.22,2.217,1.479,3.98l-0.979,0.757c-1.005-0.431-1.926-0.985-2.676-1.61c-0.623-0.521-1.015-1.132-1.467-1.841
					l-0.102-0.159l-0.254-0.396l-0.41,0.229l-2.76,1.541l-0.412,0.229l0.205,0.424l0.094,0.196c0.362,0.749,0.676,1.395,0.785,2.186
					c0.138,0.982,0.126,2.058-0.033,3.125l-1.154,0.435c-0.818-0.697-1.536-1.499-2.086-2.332c-0.434-0.657-0.623-1.341-0.842-2.132
					l-0.066-0.237l-0.127-0.452l-0.459,0.098l-3.09,0.658l-0.461,0.098l0.071,0.466l0.03,0.203c0.127,0.827,0.237,1.541,0.107,2.331
					c-0.166,0.999-0.494,2.023-0.952,2.979l-1.233,0.075c-0.578-0.912-1.027-1.889-1.305-2.842c-0.222-0.76-0.201-1.472-0.177-2.296
					l0.007-0.237l0.012-0.47L57.58,83.75l-3.146-0.28l-0.467-0.042l-0.071,0.464l-0.036,0.234c-0.122,0.816-0.229,1.521-0.58,2.228
					c-0.453,0.907-1.068,1.789-1.787,2.566l-1.201-0.292c-0.288-1.059-0.43-2.124-0.41-3.099c0.016-0.804,0.249-1.487,0.52-2.278
					l0.066-0.194l0.151-0.445l-0.436-0.178l-2.925-1.196l-0.436-0.178l-0.205,0.424l-0.084,0.178
					c-0.363,0.756-0.676,1.41-1.229,1.997c-0.681,0.719-1.528,1.38-2.464,1.922l-1.062-0.633c0.036-1.092,0.215-2.152,0.521-3.08
					c0.254-0.767,0.68-1.354,1.174-2.032l0.115-0.159l0.275-0.381L43.5,78.998l-2.442-2.005l-0.364-0.299l-0.32,0.345l-0.134,0.145
					c-0.568,0.615-1.06,1.146-1.763,1.545c-0.851,0.482-1.855,0.864-2.92,1.111l-0.827-0.917c0.363-1.053,0.835-1.99,1.407-2.79
					c0.467-0.657,1.045-1.09,1.714-1.592l0.161-0.121l0.377-0.283l-0.26-0.393l-1.744-2.636l-0.26-0.392l-0.406,0.235l-0.195,0.112
					c-0.717,0.416-1.336,0.774-2.116,0.942c-0.708,0.155-1.466,0.233-2.251,0.233c-0.287,0-0.577-0.011-0.867-0.032l-0.52-1.121
					c0.635-0.873,1.379-1.647,2.167-2.251c0.634-0.488,1.31-0.73,2.091-1.011l0.206-0.074l0.442-0.16l-0.133-0.451l-0.889-3.031
					l-0.132-0.451l-0.458,0.104l-0.211,0.048c-0.69,0.158-1.286,0.295-1.933,0.295c-0.123,0-0.249-0.005-0.377-0.016
					c-0.99-0.084-2.035-0.334-3.038-0.727l-0.168-1.225c0.871-0.649,1.813-1.17,2.736-1.514c0.75-0.279,1.469-0.311,2.301-0.348
					l0.213-0.01l0.471-0.022l0.007-0.471l0.044-3.158l0.006-0.469l-0.467-0.036l-0.223-0.017c-0.827-0.062-1.541-0.116-2.281-0.414
					c-0.921-0.373-1.846-0.92-2.691-1.591l0.201-1.219c1.023-0.366,2.076-0.587,3.059-0.641c0.083-0.005,0.165-0.007,0.246-0.007
					c0.701,0,1.332,0.164,2.063,0.353l0.201,0.052l0.455,0.117l0.145-0.447l0.976-3.005l0.146-0.447l-0.438-0.172l-0.193-0.076
					c-0.778-0.304-1.45-0.567-2.074-1.074c-0.76-0.618-1.482-1.413-2.102-2.313l0.552-1.106c0.176-0.007,0.353-0.011,0.53-0.011
					c0.908,0,1.776,0.101,2.581,0.301c0.778,0.195,1.392,0.573,2.101,1.011l0.18,0.11l0.4,0.247l0.271-0.385l1.816-2.585
					l0.271-0.385l-0.367-0.293l-0.17-0.136c-0.65-0.517-1.212-0.964-1.656-1.63c-0.555-0.831-1.011-1.804-1.328-2.829l0.854-0.895
					c1.044,0.274,2.037,0.685,2.891,1.195c0.679,0.407,1.148,0.943,1.691,1.563l0.157,0.178l0.31,0.352l0.371-0.287l2.498-1.934
					l0.371-0.288l-0.264-0.389l-0.127-0.186c-0.467-0.685-0.871-1.276-1.1-2.041c-0.279-0.938-0.428-2.002-0.433-3.095l1.078-0.603
					c0.929,0.577,1.757,1.261,2.407,1.993c0.533,0.599,0.826,1.254,1.165,2.013l0.089,0.198l0.192,0.429l0.44-0.165l2.957-1.112
					l0.439-0.166l-0.139-0.45l-0.127-0.413l-0.287-0.932c-0.268-1.102-0.135-2.523,0.396-4.229L52.357,28
					c0.714,0.822,1.304,1.721,1.714,2.614c0.335,0.729,0.421,1.445,0.521,2.273l0.025,0.207l0.057,0.467l0.469-0.028l3.154-0.189
					l0.47-0.028v-0.471l-0.001-0.219c-0.001-0.831-0.002-1.549,0.242-2.309C59.314,29.362,59.79,28.398,60.392,27.514
					 M58.193,40.099c-0.734,0-1.434-0.234-2.021-0.678c-0.715-0.539-1.179-1.324-1.306-2.212l-0.073-0.514l-0.512,0.093
					l-0.146,0.024c-0.08,0.013-0.159,0.026-0.238,0.042c-8.945,1.784-15.769,8.741-17.382,17.724l-0.092,0.51l0.513,0.073
					c0.587,0.083,1.107,0.294,1.547,0.625c1.48,1.116,1.777,3.229,0.662,4.709c-0.535,0.71-1.316,1.172-2.198,1.302l-0.509,0.074
					l0.088,0.506l0.023,0.134c0.014,0.087,0.028,0.175,0.046,0.264c1.782,8.938,8.731,15.759,17.705,17.378l0.511,0.092l0.073-0.514
					c0.083-0.587,0.294-1.109,0.626-1.549c0.641-0.851,1.621-1.339,2.688-1.339c0.734,0,1.434,0.234,2.021,0.678
					c0.713,0.537,1.176,1.321,1.304,2.206l0.074,0.512l0.509-0.091l0.15-0.025c0.087-0.014,0.174-0.028,0.261-0.046
					c8.938-1.782,15.761-8.733,17.379-17.708l0.093-0.513l-0.517-0.071c-0.592-0.082-1.118-0.293-1.563-0.628
					c-1.481-1.116-1.778-3.229-0.663-4.71c0.541-0.718,1.33-1.182,2.221-1.306l0.514-0.072L79.89,54.56l-0.024-0.144
					c-0.014-0.087-0.028-0.173-0.046-0.259c-1.784-8.947-8.743-15.77-17.728-17.381l-0.512-0.092l-0.071,0.516
					c-0.081,0.592-0.293,1.117-0.628,1.561C60.24,39.611,59.26,40.099,58.193,40.099 M60.147,26.99
					c-0.688,0.96-1.255,2.049-1.615,3.174c-0.292,0.904-0.266,1.729-0.266,2.681l-3.153,0.189c-0.115-0.944-0.19-1.764-0.588-2.628
					c-0.493-1.074-1.192-2.081-1.987-2.955l-1.776,0.379c-0.48,1.453-0.866,3.255-0.495,4.776c0.142,0.457,0.281,0.915,0.422,1.373
					l-2.957,1.112c-0.392-0.872-0.703-1.628-1.336-2.339c-0.785-0.883-1.755-1.64-2.771-2.238l-1.586,0.887
					c-0.021,1.182,0.114,2.398,0.452,3.532c0.271,0.911,0.755,1.575,1.291,2.364l-2.497,1.934c-0.628-0.713-1.152-1.352-1.967-1.84
					c-1.016-0.608-2.156-1.049-3.308-1.322l-1.255,1.314c0.321,1.135,0.818,2.26,1.474,3.242c0.528,0.792,1.186,1.284,1.93,1.879
					l-1.816,2.585c-0.812-0.499-1.498-0.95-2.421-1.181c-0.874-0.217-1.794-0.316-2.702-0.316c-0.285,0-0.567,0.009-0.848,0.028
					l-0.813,1.626c0.647,0.988,1.446,1.918,2.365,2.664c0.737,0.6,1.512,0.878,2.398,1.227l-0.976,3.005
					c-0.833-0.214-1.556-0.42-2.388-0.42c-0.09,0-0.182,0.002-0.273,0.007c-1.179,0.064-2.375,0.349-3.477,0.772l-0.296,1.791
					c0.906,0.756,1.947,1.406,3.044,1.85c0.881,0.355,1.703,0.393,2.652,0.466l-0.044,3.158c-0.951,0.044-1.775,0.057-2.666,0.389
					c-1.109,0.413-2.164,1.033-3.096,1.762l0.246,1.8c1.088,0.456,2.276,0.771,3.452,0.87c0.143,0.012,0.282,0.018,0.419,0.018
					c0.772,0,1.466-0.176,2.254-0.355l0.889,3.031c-0.896,0.324-1.678,0.579-2.432,1.159c-0.938,0.719-1.767,1.623-2.438,2.595
					l0.765,1.647c0.396,0.038,0.796,0.058,1.198,0.058c0.793,0,1.59-0.077,2.357-0.244c0.931-0.201,1.629-0.635,2.454-1.11
					l1.744,2.636c-0.764,0.574-1.432,1.047-1.983,1.823c-0.688,0.963-1.204,2.073-1.565,3.198l1.217,1.35
					c1.156-0.24,2.316-0.645,3.344-1.227c0.828-0.47,1.368-1.086,2.017-1.785l2.442,2.005c-0.56,0.772-1.06,1.424-1.358,2.327
					c-0.37,1.123-0.54,2.337-0.552,3.518l1.561,0.931c1.033-0.566,2.023-1.3,2.834-2.157c0.652-0.691,0.988-1.442,1.401-2.301
					l2.925,1.196c-0.307,0.902-0.594,1.673-0.612,2.623c-0.023,1.183,0.173,2.393,0.509,3.525l1.766,0.429
					c0.824-0.848,1.542-1.839,2.071-2.896c0.423-0.85,0.52-1.672,0.663-2.61l3.146,0.28c-0.025,0.95-0.076,1.774,0.189,2.687
					c0.331,1.137,0.867,2.234,1.524,3.219l1.813-0.11c0.538-1.053,0.933-2.212,1.126-3.379c0.154-0.937,0.006-1.751-0.137-2.69
					l3.09-0.658c0.256,0.915,0.449,1.719,0.973,2.511c0.652,0.988,1.488,1.881,2.406,2.626l1.699-0.64
					c0.201-1.164,0.244-2.389,0.08-3.561c-0.131-0.941-0.512-1.673-0.924-2.529l2.76-1.541c0.516,0.805,0.938,1.503,1.668,2.113
					c0.908,0.757,1.98,1.36,3.074,1.8l1.436-1.112c-0.195-1.516-0.633-3.309-1.627-4.517c-0.326-0.352-0.648-0.703-0.975-1.055
					l2.182-2.284c0.729,0.613,1.34,1.16,2.217,1.526c1.092,0.454,2.293,0.717,3.469,0.814l1.045-1.486
					c-0.492-1.077-1.146-2.107-1.941-2.987c-0.635-0.705-1.365-1.095-2.188-1.568l1.412-2.827c0.873,0.37,1.623,0.719,2.568,0.805
					c0.317,0.029,0.637,0.042,0.957,0.042c0.873,0,1.752-0.103,2.598-0.287l0.559-1.729c-0.789-0.88-1.715-1.679-2.734-2.281
					c-0.818-0.483-1.625-0.643-2.555-0.855l0.518-3.116c0.563,0.058,1.079,0.119,1.6,0.119c0.356,0,0.716-0.029,1.094-0.107
					c1.156-0.242,2.295-0.699,3.322-1.282l0.025-1.815c-1.012-0.61-2.135-1.099-3.285-1.375c-0.444-0.107-0.864-0.142-1.286-0.142
					c-0.456,0-0.914,0.041-1.407,0.078l-0.426-3.131c0.936-0.187,1.744-0.323,2.578-0.781c1.033-0.568,1.986-1.346,2.797-2.204
					l-0.51-1.743c-0.94-0.232-1.925-0.366-2.898-0.366c-0.216,0-0.433,0.006-0.646,0.02c-0.949,0.062-1.705,0.387-2.592,0.732
					l-1.33-2.865c0.836-0.453,1.574-0.821,2.232-1.507c0.816-0.852,1.506-1.869,2.021-2.93l-1-1.517
					c-1.182,0.067-2.383,0.297-3.488,0.716c-0.889,0.335-1.518,0.871-2.262,1.464l-2.115-2.347l0.998-1.018
					c1.037-1.175,1.52-2.967,1.762-4.479l-1.404-1.151c-1.109,0.41-2.189,0.985-3.123,1.712c-0.752,0.582-1.193,1.279-1.73,2.064
					l-2.713-1.618c0.438-0.848,0.834-1.565,0.996-2.504c0.199-1.163,0.188-2.393,0.021-3.561l-1.682-0.688
					c-0.938,0.719-1.805,1.584-2.479,2.555c-0.545,0.783-0.762,1.573-1.045,2.483l-3.07-0.746c0.168-0.937,0.34-1.744,0.213-2.686
					c-0.156-1.172-0.523-2.339-1.027-3.409L60.147,26.99L60.147,26.99z M58.193,40.599c1.17,0,2.328-0.531,3.087-1.538
					c0.41-0.544,0.637-1.163,0.724-1.793c8.462,1.518,15.542,8.047,17.325,16.987c0.026,0.131,0.045,0.262,0.068,0.394
					c-0.98,0.137-1.908,0.647-2.551,1.5c-1.283,1.704-0.943,4.126,0.762,5.41c0.545,0.411,1.164,0.637,1.795,0.724
					c-1.524,8.453-8.05,15.525-16.984,17.307c-0.134,0.027-0.268,0.045-0.401,0.069c-0.141-0.974-0.649-1.895-1.497-2.534
					c-0.696-0.525-1.513-0.778-2.323-0.778c-1.171,0-2.328,0.531-3.087,1.538c-0.407,0.54-0.633,1.154-0.722,1.779
					c-8.452-1.525-15.522-8.051-17.304-16.984c-0.025-0.129-0.044-0.257-0.066-0.386c0.971-0.142,1.888-0.65,2.525-1.496
					c1.284-1.704,0.943-4.125-0.761-5.41c-0.539-0.406-1.151-0.632-1.776-0.721c1.52-8.459,8.048-15.539,16.987-17.322
					c0.126-0.025,0.251-0.042,0.377-0.065c0.14,0.977,0.649,1.9,1.499,2.541C56.566,40.346,57.383,40.599,58.193,40.599
					L58.193,40.599z"/>
			</g>
			<circle fill="none" stroke="#000000" stroke-width="0.5" stroke-miterlimit="10" cx="58.331" cy="36.595" r="1.629"/>
			<circle fill="none" stroke="#000000" stroke-width="0.5" stroke-miterlimit="10" cx="58.331" cy="80.209" r="1.629"/>
			<circle fill="none" stroke="#000000" stroke-width="0.5" stroke-miterlimit="10" cx="36.523" cy="58.402" r="1.629"/>
			<circle fill="none" stroke="#000000" stroke-width="0.5" stroke-miterlimit="10" cx="80.138" cy="58.402" r="1.629"/>
		</g>
		<circle fill="#C3BF79" stroke="#000000" stroke-width="0.5" stroke-miterlimit="10" cx="58.212" cy="58.5" r="4.111"/>
		<g display="none">
			
				<line display="inline" fill="none" stroke="#000000" stroke-width="0.25" stroke-miterlimit="10" x1="58.212" y1="69.058" x2="58.212" y2="47.942"/>
			
				<line display="inline" fill="none" stroke="#000000" stroke-width="0.25" stroke-miterlimit="10" x1="47.653" y1="58.5" x2="68.77" y2="58.5"/>
			<circle display="inline" cx="58.212" cy="47.942" r="1.172"/>
		</g>
	</g>
</g>
<g id="titulo" display="none">
</g>
<g id="screenshots" display="none">
</g>
<g id="fondo_negro" display="none">
</g>
<g id="imagenes" display="none">
</g>
<g id="graficas" display="none">
</g>
<g id="texto" display="none">
</g>
<g id="bienvenido" display="none">
</g>
<g id="landpage" display="none">
	<g id="movil_horiz" display="inline">
		<defs>
			<rect id="SVGID_12_" x="-3118.763" y="909.109" width="217.259" height="123.013"/>
		</defs>
		<clipPath id="SVGID_2_">
			<use xlink:href="#SVGID_12_"  overflow="visible"/>
		</clipPath>
	</g>
	<g id="movil_vert_copia" display="inline">
		<defs>
			<rect id="SVGID_16_" x="-3330.328" y="861.626" width="123.013" height="217.259"/>
		</defs>
		<clipPath id="SVGID_4_">
			<use xlink:href="#SVGID_16_"  overflow="visible"/>
		</clipPath>
	</g>
	<g id="tableta_horizontal" display="inline">
		<defs>
			<rect id="SVGID_20_" x="-3820.935" y="825.44" width="409.16" height="288.831"/>
		</defs>
		<clipPath id="SVGID_6_">
			<use xlink:href="#SVGID_20_"  overflow="visible"/>
		</clipPath>
	</g>
	<g id="tableta_vert" display="inline">
		<defs>
			<rect id="SVGID_28_" x="-4185.312" y="765.664" width="287.964" height="409.479"/>
		</defs>
		<clipPath id="SVGID_8_">
			<use xlink:href="#SVGID_28_"  overflow="visible"/>
		</clipPath>
	</g>
	<g id="escritorio_1_" display="inline">
		<defs>
			<rect id="ventana" x="-5280.299" y="726.266" width="1024.5" height="487.98"/>
		</defs>
		<clipPath id="ventana_1_">
			<use xlink:href="#ventana"  overflow="visible"/>
		</clipPath>
	</g>
</g>
<g id="bocetos" display="none">
</g>
<g id="notas" display="none">
</g>
</svg>
