<?xml version="1.0" encoding="utf-8"?>
<!-- Generator: Adobe Illustrator 16.0.0, SVG Export Plug-In . SVG Version: 6.00 Build 0)  -->
<!DOCTYPE svg PUBLIC "-//W3C//DTD SVG 1.1//EN" "http://www.w3.org/Graphics/SVG/1.1/DTD/svg11.dtd">
<svg version="1.1" xmlns="http://www.w3.org/2000/svg" xmlns:xlink="http://www.w3.org/1999/xlink" x="0px" y="0px" width="108px"
	 height="108px" viewBox="0 0 108 108" enable-background="new 0 0 108 108" xml:space="preserve">
<g id="exportaciones">
	<g>
		<g>
			<path id="gearpoly0_13_" fill="#C3BF79" stroke="#000000" stroke-width="0.5" stroke-miterlimit="10" d="M100.067,54.134
				c0.068,0,0.139-0.001,0.209-0.001c1.947-0.107,3.982-1.046,5.631-2.015l-0.113-1.962c-1.748-0.759-3.883-1.484-5.826-1.352
				h-0.016l-0.008,0.002l-0.184,0.021l-0.393-2.693c0.193-0.029,0.387-0.075,0.574-0.138c1.768-0.586,3.412-1.668,4.826-2.86
				l-0.451-1.913c-1.859-0.441-4.057-0.776-5.955-0.324l-0.018,0.004l-0.014,0.005c-0.063,0.018-0.125,0.036-0.188,0.055
				l-0.855-2.584c0.109-0.037,0.217-0.079,0.322-0.127c1.742-0.827,3.256-2.306,4.477-3.764l-0.777-1.806
				c-1.902-0.116-4.375-0.118-6.123,0.814L93.896,31.1l0.16-0.092l0.008-0.006l0.012-0.007c0.012-0.008,0.023-0.016,0.035-0.022
				l0.023-0.016l0.027-0.017l0.029-0.021l0.033-0.022c1.555-1.13,2.768-2.819,3.723-4.461l-1.08-1.643
				c-1.875,0.207-3.883,0.671-5.533,1.622c-0.125,0.073-0.242,0.154-0.355,0.243l-1.688-2.137c1.545-1.227,2.543-3.507,3.178-5.296
				l-1.348-1.432c-1.828,0.548-3.773,1.347-5.232,2.616c-0.037,0.034-0.074,0.068-0.109,0.104c-0.045,0.047-0.09,0.094-0.133,0.141
				l-2.033-1.811c1.311-1.483,1.885-3.89,2.209-5.768L84.245,11.9c-1.711,0.859-3.51,1.993-4.721,3.513
				c-0.061,0.082-0.119,0.167-0.174,0.255l-2.316-1.43c1.029-1.69,1.186-4.158,1.174-6.065L76.452,7.29
				c-1.533,1.133-3.238,2.628-4.09,4.383l-0.004,0.01l-0.072,0.167l-2.529-1.006l0.063-0.173l0.002-0.009l0.006-0.014
				c0.566-1.869,0.375-4.099,0.033-5.981l-1.883-0.563c-1.316,1.382-2.652,3.098-3.244,4.945l-0.008,0.027L64.72,9.097
				c-0.02,0.073-0.037,0.146-0.055,0.221l-2.664-0.552l0.031-0.181c0.256-1.937-0.342-4.129-1.002-5.92l-1.953-0.229
				c-1.047,1.599-2.291,3.727-2.355,5.711l-2.721-0.081V7.883l-0.002-0.011V7.857c-0.104-1.953-1.055-3.973-2.014-5.631L50.024,2.34
				c-0.773,1.747-1.404,3.79-1.359,5.726c0.002,0.033,0.004,0.066,0.006,0.101c0.008,0.068,0.016,0.138,0.023,0.206l-2.693,0.394
				c-0.012-0.075-0.025-0.149-0.041-0.223l-0.004-0.022c-0.475-1.892-1.719-3.691-2.953-5.155l-1.914,0.452
				c-0.447,1.85-0.875,4.292-0.26,6.171l-2.586,0.855c-0.023-0.064-0.047-0.13-0.071-0.194c-0.768-1.797-2.349-3.379-3.819-4.604
				l-1.805,0.778c-0.115,1.894-0.02,3.975,0.654,5.773c0.018,0.042,0.033,0.084,0.052,0.125l0.011,0.021l0.006,0.018l0.006,0.014
				l0.006,0.008l0.08,0.164l-2.396,1.292l-0.09-0.16L30.87,14.07c-0.006-0.01-0.012-0.019-0.018-0.028
				c-1.078-1.629-2.891-2.899-4.551-3.854l-1.643,1.079c0.214,1.902,0.668,4.045,1.719,5.688l0.014,0.019l0.01,0.016
				c0.041,0.056,0.082,0.111,0.122,0.167l-2.136,1.688c-0.041-0.05-0.083-0.099-0.125-0.148l-0.009-0.011
				c-1.337-1.427-3.36-2.366-5.161-3.02l-1.432,1.349c0.544,1.835,1.36,3.894,2.694,5.318l0.015,0.014
				c0.049,0.049,0.1,0.097,0.15,0.143l-1.811,2.033l-0.141-0.117l-0.008-0.007c-0.008-0.007-0.018-0.014-0.025-0.021l-0.02-0.014
				c-1.562-1.151-3.699-1.732-5.574-2.051l-1.176,1.575c0.856,1.717,2.005,3.539,3.538,4.74c0.021,0.013,0.038,0.026,0.056,0.041
				c0.059,0.038,0.117,0.076,0.174,0.114l-1.43,2.316c-0.057-0.032-0.111-0.064-0.168-0.098c-1.752-0.885-3.973-1.081-5.897-1.077
				l-0.883,1.757c1.128,1.531,2.726,3.432,4.56,4.166l-1.006,2.53c-0.061-0.022-0.121-0.044-0.182-0.066
				c-0.047-0.016-0.096-0.029-0.145-0.043c-1.861-0.489-3.984-0.333-5.85,0.005L3.97,40.156c1.385,1.321,3.127,2.689,4.994,3.259
				c0.072,0.018,0.146,0.036,0.219,0.053l-0.551,2.666l-0.18-0.031l-0.01-0.002c-1.941-0.246-4.113,0.344-5.91,1.003l-0.229,1.953
				c1.592,1.053,3.563,2.13,5.501,2.343c0.069,0.005,0.14,0.009,0.208,0.013l-0.082,2.722c-1.979-0.054-4.188,1.061-5.838,2.014
				l0.114,1.964c1.757,0.762,3.874,1.471,5.825,1.352c0.068-0.007,0.137-0.015,0.205-0.023l0.395,2.694
				c-0.075,0.013-0.148,0.025-0.223,0.039c-1.893,0.46-3.722,1.718-5.178,2.958l0.453,1.914c1.848,0.441,4.295,0.881,6.17,0.26
				l0.855,2.585c-1.879,0.634-3.572,2.425-4.799,3.89l0.778,1.806c1.913,0.121,4.144,0.055,5.938-0.722
				c0.061-0.031,0.123-0.063,0.186-0.093l1.291,2.396c-1.744,0.954-3.088,3.008-4.051,4.664l1.082,1.644
				c1.914-0.225,4.053-0.671,5.704-1.731l0.015-0.011c0.008-0.004,0.014-0.009,0.021-0.014l0.146-0.108l1.688,2.136l-0.141,0.117
				c-0.031,0.028-0.063,0.057-0.092,0.085c-1.371,1.369-2.297,3.299-2.945,5.094l1.348,1.431c1.82-0.544,3.741-1.339,5.203-2.589
				c0.043-0.04,0.086-0.08,0.131-0.121c0.047-0.05,0.094-0.1,0.141-0.149l2.033,1.811l-0.117,0.14
				c-0.008,0.012-0.018,0.023-0.027,0.034l-0.014,0.02c-1.152,1.568-1.721,3.694-2.051,5.574l1.575,1.175
				c1.718-0.849,3.595-2.021,4.771-3.579c0.006-0.009,0.014-0.018,0.02-0.026c0.035-0.055,0.07-0.108,0.105-0.162l2.316,1.431
				c-0.031,0.056-0.064,0.112-0.096,0.168l-0.008,0.013l-0.008,0.017c-0.012,0.024-0.025,0.049-0.037,0.073
				c-0.813,1.759-1.033,3.882-1.027,5.793l1.758,0.885c1.529-1.139,3.206-2.609,4.074-4.354c0.007-0.01,0.012-0.02,0.016-0.029
				l0.004-0.009l0.072-0.169l2.529,1.006l-0.063,0.173l-0.002,0.009l-0.006,0.014c-0.57,1.865-0.373,4.103-0.034,5.981l1.884,0.563
				c1.316-1.37,2.904-3.282,3.313-5.213l2.666,0.551c-0.012,0.063-0.021,0.127-0.033,0.19c-0.002,0.011-0.004,0.021-0.006,0.033
				c-0.213,1.947,0.352,4.069,1.008,5.877l1.953,0.23c1.047-1.602,2.049-3.48,2.332-5.403c0.002-0.02,0.004-0.039,0.008-0.059
				c0-0.014,0.002-0.027,0.004-0.042v-0.014c0.004-0.064,0.01-0.13,0.014-0.194l2.721,0.082c0,0.064,0,0.128,0,0.192
				c0.096,1.957,1.055,3.986,2.014,5.646l1.963-0.113c0.762-1.739,1.611-4.078,1.328-6.032l2.695-0.394
				c0.014,0.102,0.033,0.203,0.059,0.303c0.5,1.87,1.705,3.643,2.938,5.099l1.914-0.452c0.449-1.855,0.748-4.008,0.336-5.905
				c-0.006-0.027-0.014-0.055-0.02-0.081c-0.02-0.062-0.037-0.123-0.057-0.185l2.586-0.856c0.021,0.061,0.045,0.121,0.066,0.182
				c0.754,1.808,2.359,3.383,3.822,4.617l1.807-0.778c0.119-1.899,0.063-4.138-0.715-5.92l-0.008-0.017l-0.006-0.013
				c-0.029-0.059-0.057-0.116-0.086-0.174l2.396-1.291c0.033,0.056,0.064,0.112,0.098,0.168l0.008,0.012l0.01,0.017
				c0.008,0.014,0.018,0.027,0.025,0.041c1.098,1.6,2.863,2.869,4.523,3.813l1.643-1.08c-0.217-1.894-0.672-3.95-1.666-5.605
				c-0.061-0.098-0.127-0.192-0.199-0.282l2.137-1.688c0.041,0.049,0.082,0.099,0.123,0.147c0.014,0.014,0.027,0.027,0.039,0.042
				c1.352,1.401,3.334,2.343,5.135,2.988l1.43-1.349c-0.545-1.838-1.361-3.89-2.695-5.318c-0.008-0.008-0.016-0.016-0.023-0.023
				l-0.008-0.008l-0.133-0.125l1.811-2.032l0.141,0.117c1.559,1.193,3.738,1.755,5.627,2.093l1.174-1.577
				c-0.842-1.71-2.023-3.627-3.594-4.78l-0.01-0.009c-0.055-0.035-0.109-0.07-0.162-0.106l1.43-2.316
				c1.684,1.036,4.164,1.182,6.064,1.176l0.883-1.757c-1.145-1.538-2.629-3.234-4.391-4.095l-0.168-0.072l1.004-2.529l0.174,0.063
				l0.01,0.002c1.861,0.586,4.117,0.376,5.994,0.039l0.564-1.884c-1.391-1.312-3.145-2.728-5.025-3.267l-0.012-0.002l-0.178-0.043
				l0.553-2.665l0.18,0.031c0.016,0.001,0.029,0.003,0.043,0.006c1.945,0.216,4.072-0.351,5.879-1.007l0.229-1.953
				c-1.584-1.055-3.736-2.292-5.711-2.356L100.067,54.134z"/>
			<g>
				
					<line fill="none" stroke="#000000" stroke-width="0.5" stroke-miterlimit="10" x1="54.001" y1="92.332" x2="54.001" y2="97.937"/>
				
					<line fill="none" stroke="#000000" stroke-width="0.5" stroke-miterlimit="10" x1="54.001" y1="10.33" x2="54.001" y2="15.935"/>
				
					<line fill="none" stroke="#000000" stroke-width="0.5" stroke-miterlimit="10" x1="56.665" y1="92.239" x2="57.057" y2="97.83"/>
				
					<line fill="none" stroke="#000000" stroke-width="0.5" stroke-miterlimit="10" x1="50.945" y1="10.437" x2="51.336" y2="16.028"/>
				<line fill="none" stroke="#000000" stroke-width="0.5" stroke-miterlimit="10" x1="59.316" y1="91.96" x2="60.097" y2="97.51"/>
				
					<line fill="none" stroke="#000000" stroke-width="0.5" stroke-miterlimit="10" x1="47.904" y1="10.757" x2="48.685" y2="16.307"/>
				
					<line fill="none" stroke="#000000" stroke-width="0.5" stroke-miterlimit="10" x1="61.942" y1="91.498" x2="63.107" y2="96.979"/>
				
					<line fill="none" stroke="#000000" stroke-width="0.5" stroke-miterlimit="10" x1="44.894" y1="11.288" x2="46.059" y2="16.77"/>
				
					<line fill="none" stroke="#000000" stroke-width="0.5" stroke-miterlimit="10" x1="64.529" y1="90.853" x2="66.074" y2="96.24"/>
				
					<line fill="none" stroke="#000000" stroke-width="0.5" stroke-miterlimit="10" x1="41.927" y1="12.028" x2="43.472" y2="17.415"/>
				
					<line fill="none" stroke="#000000" stroke-width="0.5" stroke-miterlimit="10" x1="67.064" y1="90.029" x2="68.982" y2="95.295"/>
				
					<line fill="none" stroke="#000000" stroke-width="0.5" stroke-miterlimit="10" x1="39.02" y1="12.973" x2="40.936" y2="18.239"/>
				<line fill="none" stroke="#000000" stroke-width="0.5" stroke-miterlimit="10" x1="69.536" y1="89.03" x2="71.816" y2="94.15"/>
				
					<line fill="none" stroke="#000000" stroke-width="0.5" stroke-miterlimit="10" x1="36.185" y1="14.118" x2="38.463" y2="19.238"/>
				
					<line fill="none" stroke="#000000" stroke-width="0.5" stroke-miterlimit="10" x1="71.933" y1="87.862" x2="74.564" y2="92.81"/>
				
					<line fill="none" stroke="#000000" stroke-width="0.5" stroke-miterlimit="10" x1="33.437" y1="15.458" x2="36.066" y2="20.407"/>
				
					<line fill="none" stroke="#000000" stroke-width="0.5" stroke-miterlimit="10" x1="74.241" y1="86.529" x2="77.212" y2="91.281"/>
				
					<line fill="none" stroke="#000000" stroke-width="0.5" stroke-miterlimit="10" x1="30.789" y1="16.987" x2="33.758" y2="21.741"/>
				
					<line fill="none" stroke="#000000" stroke-width="0.5" stroke-miterlimit="10" x1="76.451" y1="85.039" x2="79.747" y2="89.572"/>
				
					<line fill="none" stroke="#000000" stroke-width="0.5" stroke-miterlimit="10" x1="28.254" y1="18.697" x2="31.547" y2="23.232"/>
				
					<line fill="none" stroke="#000000" stroke-width="0.5" stroke-miterlimit="10" x1="78.553" y1="83.397" x2="82.156" y2="87.689"/>
				
					<line fill="none" stroke="#000000" stroke-width="0.5" stroke-miterlimit="10" x1="25.845" y1="20.58" x2="29.445" y2="24.874"/>
				
					<line fill="none" stroke="#000000" stroke-width="0.5" stroke-miterlimit="10" x1="80.534" y1="81.614" x2="84.428" y2="85.644"/>
				
					<line fill="none" stroke="#000000" stroke-width="0.5" stroke-miterlimit="10" x1="23.572" y1="22.626" x2="27.464" y2="26.658"/>
				
					<line fill="none" stroke="#000000" stroke-width="0.5" stroke-miterlimit="10" x1="82.386" y1="79.696" x2="86.552" y2="83.445"/>
				
					<line fill="none" stroke="#000000" stroke-width="0.5" stroke-miterlimit="10" x1="21.448" y1="24.826" x2="25.612" y2="28.576"/>
				<line fill="none" stroke="#000000" stroke-width="0.5" stroke-miterlimit="10" x1="84.1" y1="77.654" x2="88.517" y2="81.103"/>
				
					<line fill="none" stroke="#000000" stroke-width="0.5" stroke-miterlimit="10" x1="19.483" y1="27.168" x2="23.898" y2="30.619"/>
				
					<line fill="none" stroke="#000000" stroke-width="0.5" stroke-miterlimit="10" x1="85.667" y1="75.497" x2="90.314" y2="78.629"/>
				
					<line fill="none" stroke="#000000" stroke-width="0.5" stroke-miterlimit="10" x1="17.687" y1="29.642" x2="22.331" y2="32.776"/>
				
					<line fill="none" stroke="#000000" stroke-width="0.5" stroke-miterlimit="10" x1="87.08" y1="73.236" x2="91.935" y2="76.037"/>
				
					<line fill="none" stroke="#000000" stroke-width="0.5" stroke-miterlimit="10" x1="16.066" y1="32.234" x2="20.918" y2="35.037"/>
				
					<line fill="none" stroke="#000000" stroke-width="0.5" stroke-miterlimit="10" x1="88.332" y1="70.883" x2="93.37" y2="73.338"/>
				
					<line fill="none" stroke="#000000" stroke-width="0.5" stroke-miterlimit="10" x1="14.631" y1="34.934" x2="19.666" y2="37.392"/>
				
					<line fill="none" stroke="#000000" stroke-width="0.5" stroke-miterlimit="10" x1="89.417" y1="68.447" x2="94.613" y2="70.545"/>
				
					<line fill="none" stroke="#000000" stroke-width="0.5" stroke-miterlimit="10" x1="13.388" y1="37.728" x2="18.582" y2="39.828"/>
				
					<line fill="none" stroke="#000000" stroke-width="0.5" stroke-miterlimit="10" x1="90.329" y1="65.942" x2="95.658" y2="67.672"/>
				
					<line fill="none" stroke="#000000" stroke-width="0.5" stroke-miterlimit="10" x1="12.342" y1="40.601" x2="17.67" y2="42.333"/>
				
					<line fill="none" stroke="#000000" stroke-width="0.5" stroke-miterlimit="10" x1="91.064" y1="63.379" x2="96.501" y2="64.733"/>
				
					<line fill="none" stroke="#000000" stroke-width="0.5" stroke-miterlimit="10" x1="11.499" y1="43.54" x2="16.936" y2="44.897"/>
				
					<line fill="none" stroke="#000000" stroke-width="0.5" stroke-miterlimit="10" x1="91.619" y1="60.772" x2="97.137" y2="61.743"/>
				
					<line fill="none" stroke="#000000" stroke-width="0.5" stroke-miterlimit="10" x1="10.863" y1="46.531" x2="16.381" y2="47.505"/>
				
					<line fill="none" stroke="#000000" stroke-width="0.5" stroke-miterlimit="10" x1="91.99" y1="58.132" x2="97.563" y2="58.716"/>
				
					<line fill="none" stroke="#000000" stroke-width="0.5" stroke-miterlimit="10" x1="10.438" y1="49.559" x2="16.01" y2="50.146"/>
				
					<line fill="none" stroke="#000000" stroke-width="0.5" stroke-miterlimit="10" x1="92.177" y1="55.472" x2="97.775" y2="55.666"/>
				
					<line fill="none" stroke="#000000" stroke-width="0.5" stroke-miterlimit="10" x1="10.226" y1="52.609" x2="15.824" y2="52.806"/>
				
					<line fill="none" stroke="#000000" stroke-width="0.5" stroke-miterlimit="10" x1="92.177" y1="52.806" x2="97.775" y2="52.609"/>
				
					<line fill="none" stroke="#000000" stroke-width="0.5" stroke-miterlimit="10" x1="10.226" y1="55.666" x2="15.824" y2="55.472"/>
				
					<line fill="none" stroke="#000000" stroke-width="0.5" stroke-miterlimit="10" x1="91.99" y1="50.146" x2="97.562" y2="49.559"/>
				
					<line fill="none" stroke="#000000" stroke-width="0.5" stroke-miterlimit="10" x1="10.439" y1="58.716" x2="16.011" y2="58.132"/>
				
					<line fill="none" stroke="#000000" stroke-width="0.5" stroke-miterlimit="10" x1="91.619" y1="47.506" x2="97.136" y2="46.532"/>
				
					<line fill="none" stroke="#000000" stroke-width="0.5" stroke-miterlimit="10" x1="10.865" y1="61.744" x2="16.382" y2="60.773"/>
				<line fill="none" stroke="#000000" stroke-width="0.5" stroke-miterlimit="10" x1="91.065" y1="44.898" x2="96.5" y2="43.542"/>
				
					<line fill="none" stroke="#000000" stroke-width="0.5" stroke-miterlimit="10" x1="11.501" y1="64.734" x2="16.937" y2="63.381"/>
				
					<line fill="none" stroke="#000000" stroke-width="0.5" stroke-miterlimit="10" x1="90.331" y1="42.335" x2="95.658" y2="40.603"/>
				
					<line fill="none" stroke="#000000" stroke-width="0.5" stroke-miterlimit="10" x1="12.344" y1="67.673" x2="17.672" y2="65.945"/>
				<line fill="none" stroke="#000000" stroke-width="0.5" stroke-miterlimit="10" x1="89.419" y1="39.83" x2="94.613" y2="37.73"/>
				
					<line fill="none" stroke="#000000" stroke-width="0.5" stroke-miterlimit="10" x1="13.39" y1="70.546" x2="18.584" y2="68.451"/>
				
					<line fill="none" stroke="#000000" stroke-width="0.5" stroke-miterlimit="10" x1="88.334" y1="37.395" x2="93.369" y2="34.938"/>
				
					<line fill="none" stroke="#000000" stroke-width="0.5" stroke-miterlimit="10" x1="14.634" y1="73.339" x2="19.669" y2="70.886"/>
				
					<line fill="none" stroke="#000000" stroke-width="0.5" stroke-miterlimit="10" x1="87.083" y1="35.041" x2="91.934" y2="32.238"/>
				
					<line fill="none" stroke="#000000" stroke-width="0.5" stroke-miterlimit="10" x1="16.069" y1="76.039" x2="20.921" y2="73.24"/>
				
					<line fill="none" stroke="#000000" stroke-width="0.5" stroke-miterlimit="10" x1="85.67" y1="32.779" x2="90.313" y2="29.646"/>
				
					<line fill="none" stroke="#000000" stroke-width="0.5" stroke-miterlimit="10" x1="17.689" y1="78.631" x2="22.334" y2="75.501"/>
				
					<line fill="none" stroke="#000000" stroke-width="0.5" stroke-miterlimit="10" x1="84.104" y1="30.622" x2="88.517" y2="27.172"/>
				
					<line fill="none" stroke="#000000" stroke-width="0.5" stroke-miterlimit="10" x1="19.486" y1="81.105" x2="23.901" y2="77.658"/>
				
					<line fill="none" stroke="#000000" stroke-width="0.5" stroke-miterlimit="10" x1="82.391" y1="28.58" x2="86.552" y2="24.831"/>
				<line fill="none" stroke="#000000" stroke-width="0.5" stroke-miterlimit="10" x1="21.451" y1="83.447" x2="25.615" y2="79.7"/>
				
					<line fill="none" stroke="#000000" stroke-width="0.5" stroke-miterlimit="10" x1="80.539" y1="26.662" x2="84.428" y2="22.631"/>
				
					<line fill="none" stroke="#000000" stroke-width="0.5" stroke-miterlimit="10" x1="23.575" y1="85.646" x2="27.468" y2="81.618"/>
				
					<line fill="none" stroke="#000000" stroke-width="0.5" stroke-miterlimit="10" x1="78.558" y1="24.877" x2="82.156" y2="20.586"/>
				
					<line fill="none" stroke="#000000" stroke-width="0.5" stroke-miterlimit="10" x1="25.848" y1="87.692" x2="29.449" y2="83.402"/>
				
					<line fill="none" stroke="#000000" stroke-width="0.5" stroke-miterlimit="10" x1="76.456" y1="23.236" x2="79.747" y2="18.704"/>
				
					<line fill="none" stroke="#000000" stroke-width="0.5" stroke-miterlimit="10" x1="28.257" y1="89.575" x2="31.551" y2="85.043"/>
				
					<line fill="none" stroke="#000000" stroke-width="0.5" stroke-miterlimit="10" x1="74.246" y1="21.745" x2="77.212" y2="16.994"/>
				
					<line fill="none" stroke="#000000" stroke-width="0.5" stroke-miterlimit="10" x1="30.792" y1="91.284" x2="33.762" y2="86.535"/>
				
					<line fill="none" stroke="#000000" stroke-width="0.5" stroke-miterlimit="10" x1="71.938" y1="20.411" x2="74.564" y2="15.465"/>
				
					<line fill="none" stroke="#000000" stroke-width="0.5" stroke-miterlimit="10" x1="33.439" y1="92.813" x2="36.071" y2="87.868"/>
				
					<line fill="none" stroke="#000000" stroke-width="0.5" stroke-miterlimit="10" x1="69.541" y1="19.242" x2="71.816" y2="14.125"/>
				
					<line fill="none" stroke="#000000" stroke-width="0.5" stroke-miterlimit="10" x1="36.188" y1="94.153" x2="38.468" y2="89.037"/>
				
					<line fill="none" stroke="#000000" stroke-width="0.5" stroke-miterlimit="10" x1="67.069" y1="18.243" x2="68.981" y2="12.98"/>
				
					<line fill="none" stroke="#000000" stroke-width="0.5" stroke-miterlimit="10" x1="39.022" y1="95.298" x2="40.94" y2="90.036"/>
				
					<line fill="none" stroke="#000000" stroke-width="0.5" stroke-miterlimit="10" x1="64.534" y1="17.419" x2="66.074" y2="12.035"/>
				
					<line fill="none" stroke="#000000" stroke-width="0.5" stroke-miterlimit="10" x1="41.931" y1="96.242" x2="43.477" y2="90.859"/>
				
					<line fill="none" stroke="#000000" stroke-width="0.5" stroke-miterlimit="10" x1="61.947" y1="16.774" x2="63.108" y2="11.296"/>
				
					<line fill="none" stroke="#000000" stroke-width="0.5" stroke-miterlimit="10" x1="44.897" y1="96.982" x2="46.064" y2="91.504"/>
				
					<line fill="none" stroke="#000000" stroke-width="0.5" stroke-miterlimit="10" x1="59.322" y1="16.311" x2="60.098" y2="10.765"/>
				
					<line fill="none" stroke="#000000" stroke-width="0.5" stroke-miterlimit="10" x1="47.908" y1="97.513" x2="48.69" y2="91.967"/>
				
					<line fill="none" stroke="#000000" stroke-width="0.5" stroke-miterlimit="10" x1="56.671" y1="16.032" x2="57.058" y2="10.446"/>
				
					<line fill="none" stroke="#000000" stroke-width="0.5" stroke-miterlimit="10" x1="50.949" y1="97.832" x2="51.343" y2="92.245"/>
			</g>
			<circle fill="none" stroke="#000000" stroke-width="0.5" stroke-miterlimit="10" cx="54" cy="54.133" r="38.199"/>
			<circle fill="none" stroke="#000000" stroke-width="0.5" stroke-miterlimit="10" cx="54" cy="54.133" r="43.803"/>
			<circle fill="none" stroke="#000000" stroke-width="0.5" stroke-miterlimit="10" cx="54" cy="54.133" r="35.491"/>
		</g>
		<g>
			<g>
				<path fill="#8A8A8A" d="M44.516,89.238c-0.676,0-1.23-0.551-1.237-1.229c-0.002-0.217,0.05-0.42,0.153-0.604l3.656-6.45
					l-12.561-7.119l-3.657,6.443c-0.107,0.181-0.258,0.332-0.445,0.442c-0.189,0.112-0.406,0.171-0.625,0.171
					c-0.436,0-0.845-0.234-1.067-0.61c-0.053-0.09-0.104-0.265-0.134-0.369c-0.849-2.96-2.104-5.863-3.741-8.656
					c-1.629-2.771-3.553-5.281-5.719-7.462c-0.112-0.114-0.23-0.234-0.277-0.315c-0.169-0.287-0.216-0.619-0.133-0.938
					c0.083-0.32,0.286-0.588,0.57-0.755c0.186-0.109,0.395-0.168,0.604-0.171l7.413-0.062l-0.116-14.436l-7.406,0.054
					c-0.209,0-0.42-0.055-0.608-0.16c-0.589-0.336-0.798-1.094-0.463-1.688c0.052-0.09,0.186-0.231,0.258-0.307
					c2.136-2.213,4.021-4.752,5.619-7.563c1.588-2.795,2.8-5.716,3.602-8.681c0.05-0.173,0.094-0.324,0.137-0.401
					c0.22-0.386,0.633-0.625,1.078-0.625c0.212,0,0.422,0.056,0.608,0.161c0.189,0.106,0.341,0.253,0.45,0.437l3.758,6.389
					l12.438-7.313l-3.755-6.389c-0.104-0.181-0.16-0.392-0.163-0.608c-0.005-0.679,0.547-1.238,1.229-1.244
					c0.109,0,0.299,0.047,0.4,0.072c2.885,0.72,5.926,1.083,9.054,1.083l0.3-0.001c3.226-0.025,6.361-0.437,9.322-1.223
					c0.114-0.031,0.299-0.083,0.406-0.083c0.692,0,1.247,0.55,1.254,1.227c0,0.215-0.054,0.425-0.155,0.606l-3.652,6.448
					l12.558,7.12l3.659-6.444c0.106-0.184,0.26-0.339,0.442-0.446c0.188-0.11,0.404-0.169,0.623-0.169
					c0.438,0,0.849,0.234,1.069,0.611c0.051,0.084,0.101,0.254,0.131,0.356c0.857,2.983,2.113,5.885,3.746,8.667
					c1.639,2.78,3.563,5.29,5.72,7.462c0.187,0.18,0.255,0.275,0.279,0.316c0.168,0.285,0.215,0.619,0.132,0.939
					c-0.083,0.319-0.285,0.587-0.569,0.753c-0.189,0.11-0.397,0.169-0.602,0.169l-7.414,0.063l0.115,14.437l7.41-0.057
					c0.206,0.001,0.417,0.058,0.605,0.165c0.287,0.163,0.493,0.427,0.581,0.745c0.088,0.318,0.047,0.652-0.117,0.94
					c-0.056,0.101-0.213,0.26-0.272,0.32c-2.13,2.21-4.015,4.75-5.604,7.549c-1.588,2.805-2.799,5.727-3.6,8.685
					c-0.02,0.074-0.079,0.297-0.138,0.402c-0.217,0.384-0.629,0.624-1.074,0.624c-0.213,0-0.425-0.056-0.611-0.162
					c-0.183-0.101-0.337-0.252-0.447-0.437L73.77,73.53l-12.444,7.318l3.751,6.388c0.106,0.183,0.163,0.392,0.165,0.605
					c0.005,0.681-0.546,1.241-1.228,1.248c-0.108-0.001-0.302-0.049-0.406-0.075c-2.896-0.718-5.943-1.081-9.063-1.081l-0.285,0.001
					c-3.215,0.024-6.351,0.435-9.319,1.219c-0.104,0.029-0.304,0.084-0.417,0.085H44.516z"/>
				<path d="M63.479,18.778v0.5c0.539,0,0.982,0.439,0.987,0.975c0,0.174-0.042,0.343-0.122,0.485l-3.529,6.231l-0.246,0.435
					l0.434,0.247l12.123,6.873l0.436,0.246l0.246-0.434l3.533-6.222c0.086-0.149,0.209-0.273,0.354-0.358
					c0.15-0.089,0.322-0.135,0.497-0.135c0.351,0,0.677,0.187,0.856,0.492c0.033,0.054,0.084,0.229,0.116,0.336
					c0.851,2.96,2.114,5.882,3.759,8.683c1.648,2.797,3.586,5.324,5.765,7.518c0.177,0.171,0.226,0.248,0.233,0.26
					c0.135,0.228,0.172,0.495,0.105,0.75c-0.066,0.255-0.227,0.468-0.451,0.6c-0.152,0.089-0.318,0.136-0.482,0.136l-7.162,0.061
					l-0.499,0.004l0.004,0.5l0.111,13.937l0.004,0.5l0.5-0.004l7.154-0.055c0.167,0,0.335,0.046,0.486,0.132
					c0.229,0.129,0.394,0.34,0.463,0.594c0.07,0.254,0.037,0.52-0.095,0.753c-0.018,0.031-0.072,0.103-0.236,0.269
					c-2.143,2.224-4.039,4.78-5.639,7.598c-1.6,2.823-2.818,5.765-3.625,8.745c-0.059,0.22-0.094,0.309-0.111,0.341
					c-0.175,0.308-0.504,0.499-0.859,0.499c-0.17,0-0.338-0.044-0.49-0.131c-0.143-0.079-0.266-0.199-0.352-0.343l-3.635-6.174
					l-0.254-0.431l-0.43,0.253l-12.014,7.064l-0.432,0.253l0.254,0.431l3.623,6.171c0.085,0.146,0.131,0.312,0.132,0.481
					c0.004,0.544-0.436,0.991-0.972,0.997c-0.082,0-0.277-0.049-0.361-0.07c-2.907-0.721-5.974-1.086-9.114-1.086l-0.287,0.001
					c-3.235,0.025-6.392,0.438-9.393,1.23c-0.065,0.018-0.263,0.074-0.349,0.074c-0.539,0-0.982-0.44-0.987-0.98
					c-0.001-0.173,0.04-0.335,0.12-0.479l3.533-6.233l0.247-0.435l-0.435-0.247l-12.127-6.872l-0.434-0.246l-0.248,0.435
					l-3.527,6.217c-0.089,0.149-0.21,0.27-0.359,0.358c-0.152,0.089-0.324,0.137-0.499,0.137c-0.353,0-0.671-0.182-0.851-0.486
					c-0.038-0.063-0.089-0.238-0.119-0.341c-0.846-2.951-2.109-5.873-3.758-8.684c-1.639-2.789-3.576-5.315-5.752-7.506
					l-0.045-0.046c-0.05-0.051-0.167-0.17-0.2-0.229c-0.134-0.226-0.171-0.49-0.104-0.745c0.066-0.255,0.228-0.47,0.456-0.604
					c0.147-0.087,0.313-0.134,0.478-0.136l7.164-0.06l0.499-0.004l-0.004-0.5l-0.112-13.936l-0.004-0.5l-0.5,0.003l-7.152,0.052
					c-0.168,0-0.338-0.044-0.484-0.125c-0.473-0.27-0.639-0.875-0.372-1.348c0.036-0.064,0.171-0.205,0.235-0.272
					c2.137-2.213,4.034-4.77,5.642-7.598c1.599-2.814,2.819-5.754,3.622-8.724l0.024-0.084c0.021-0.072,0.063-0.223,0.093-0.273
					c0.176-0.308,0.504-0.499,0.859-0.499c0.17,0,0.338,0.044,0.488,0.129c0.149,0.084,0.27,0.201,0.355,0.344l3.631,6.175
					l0.254,0.431l0.432-0.253l12.006-7.06l0.432-0.253l-0.254-0.431l-3.625-6.168c-0.084-0.146-0.129-0.316-0.132-0.486
					c-0.004-0.543,0.437-0.989,0.977-0.995c0.081,0,0.265,0.045,0.357,0.068c2.89,0.721,5.95,1.086,9.099,1.086l0.302-0.001
					c3.246-0.026,6.403-0.44,9.401-1.236c0.068-0.019,0.252-0.069,0.334-0.069L63.479,18.778 M63.479,18.778
					c-0.004,0-0.008,0-0.013,0c-0.001,0-0.003,0-0.003,0c-0.146,0-0.355,0.059-0.472,0.091c-2.957,0.785-6.063,1.189-9.26,1.215
					c-0.1,0-0.198,0.001-0.298,0.001c-3.092,0-6.104-0.354-8.978-1.071c-0.119-0.029-0.33-0.083-0.479-0.083
					c-0.82,0.008-1.482,0.678-1.477,1.498c0.004,0.266,0.074,0.515,0.197,0.73l3.629,6.174l-12.007,7.06l-3.632-6.175
					c-0.129-0.216-0.311-0.396-0.542-0.526c-0.231-0.131-0.483-0.193-0.732-0.193c-0.518,0-1.02,0.27-1.294,0.752
					c-0.072,0.127-0.126,0.344-0.161,0.459c-0.798,2.95-1.999,5.844-3.578,8.623c-1.579,2.778-3.442,5.297-5.566,7.498
					c-0.083,0.087-0.239,0.247-0.311,0.372c-0.403,0.715-0.154,1.622,0.56,2.029c0.23,0.128,0.481,0.191,0.731,0.191l7.156-0.052
					l0.112,13.936l-7.164,0.06c-0.248,0.003-0.498,0.07-0.727,0.205c-0.708,0.415-0.945,1.327-0.528,2.033
					c0.073,0.128,0.233,0.281,0.316,0.367c2.157,2.172,4.061,4.656,5.681,7.412c1.616,2.758,2.865,5.628,3.708,8.568
					c0.034,0.116,0.093,0.329,0.168,0.457c0.278,0.471,0.773,0.733,1.282,0.733c0.256,0,0.515-0.066,0.752-0.206
					c0.229-0.136,0.409-0.32,0.536-0.534l3.533-6.226l12.126,6.872l-3.533,6.233c-0.121,0.216-0.188,0.463-0.186,0.729
					c0.008,0.818,0.673,1.477,1.487,1.477c0.003,0,0.006,0,0.009,0c0.148-0.001,0.363-0.062,0.479-0.094
					c2.957-0.781,6.063-1.187,9.258-1.211c0.095,0,0.188-0.001,0.283-0.001c3.098,0,6.115,0.358,8.994,1.071
					c0.117,0.029,0.332,0.084,0.479,0.085c0.818-0.009,1.48-0.677,1.475-1.5c-0.002-0.264-0.074-0.515-0.199-0.729l-3.625-6.173
					l12.014-7.064l3.635,6.174c0.127,0.212,0.309,0.398,0.539,0.526c0.232,0.131,0.485,0.194,0.733,0.194
					c0.519,0,1.021-0.27,1.294-0.752c0.07-0.127,0.129-0.341,0.16-0.458c0.799-2.952,2-5.844,3.576-8.627
					c1.578-2.78,3.441-5.294,5.564-7.497c0.086-0.087,0.242-0.246,0.313-0.372c0.406-0.716,0.154-1.622-0.559-2.025
					c-0.232-0.132-0.484-0.196-0.73-0.197l-7.16,0.055l-0.111-13.937l7.162-0.061c0.248,0,0.498-0.069,0.729-0.203
					c0.707-0.415,0.943-1.327,0.525-2.036c-0.074-0.125-0.229-0.28-0.316-0.365c-2.156-2.171-4.057-4.655-5.682-7.412
					c-1.617-2.756-2.865-5.63-3.709-8.567c-0.035-0.117-0.094-0.333-0.168-0.456c-0.277-0.472-0.774-0.734-1.285-0.734
					c-0.255,0-0.515,0.065-0.75,0.204c-0.229,0.135-0.408,0.323-0.533,0.538l-3.535,6.227l-12.123-6.873l3.529-6.231
					c0.121-0.216,0.188-0.466,0.188-0.731C64.958,19.437,64.293,18.778,63.479,18.778L63.479,18.778z"/>
			</g>
			<g>
				<g>
					<path fill="#C3BF79" d="M78.622,48.685l-1.938-1.218l0.815-0.405c-1.13-0.303-1.729-1.247-2.359-2.063l0.002-0.001
						c0.396-0.95,0.731-2.018,1.744-2.603l-0.895-0.18l1.559-1.677l-2.232,0.509l0.293-0.863c-1.014,0.585-2.105,0.34-3.128,0.209
						l-0.001,0c-0.391-0.954-0.908-1.945-0.605-3.075l-0.76,0.505l-0.084-2.288l-1.218,1.938l-0.405-0.816
						c-0.303,1.13-1.248,1.729-2.063,2.36v0c-0.95-0.398-2.019-0.732-2.603-1.745l-0.181,0.894l-1.676-1.558l0.509,2.231
						l-0.863-0.291c0.584,1.014,0.34,2.105,0.209,3.127c-0.953,0.391-1.944,0.909-3.074,0.606l0.504,0.759l-2.287,0.084l1.939,1.218
						l-0.818,0.405c1.131,0.303,1.729,1.247,2.359,2.063l0,0c-0.398,0.95-0.73,2.021-1.744,2.605l0.893,0.179l-0.607,0.655
						l0.434,0.706l0.848-0.193l-0.291,0.863c1.014-0.585,2.105-0.34,3.127-0.209l0.001-0.001c0.392,0.954,0.909,1.945,0.606,3.075
						l0.76-0.504l0.084,2.286l1.218-1.938l0.403,0.815c0.303-1.13,1.247-1.729,2.063-2.358l0.002,0.002
						c0.95,0.396,2.019,0.73,2.604,1.744l0.18-0.894l1.677,1.558l-0.509-2.231l0.863,0.29c-0.585-1.013-0.34-2.105-0.209-3.128
						c0.953-0.392,1.944-0.909,3.074-0.606l-0.504-0.758L78.622,48.685z"/>
					<g>
						<path fill="#C3BF79" d="M46.409,78.181l2.023-1.07l-0.057,0.909c0.827-0.827,1.943-0.874,2.966-1.012v0.002
							c0.624,0.818,1.382,1.642,1.382,2.812l0.603-0.685l0.673,2.188l0.676-2.188l0.602,0.686c0-1.171,0.758-1.993,1.383-2.813
							v-0.001c1.021,0.139,2.139,0.186,2.965,1.013l-0.057-0.91l2.023,1.071l-1.07-2.024l0.91,0.058
							c-0.828-0.827-0.873-1.945-1.012-2.967l0,0c0.82-0.623,1.644-1.382,2.813-1.381l-0.684-0.604l2.188-0.673l-2.188-0.675
							l0.684-0.602c-1.17-0.002-1.993-0.759-2.813-1.384c0.138-1.021,0.186-2.138,1.012-2.965l-0.908,0.057l1.07-2.023l-2.024,1.071
							l0.058-0.911c-0.828,0.828-1.944,0.874-2.965,1.012l0,0c-0.624-0.82-1.385-1.643-1.385-2.813l-0.602,0.684l-0.264-0.854
							l-0.828,0.022l-0.256,0.831l-0.603-0.684c0,1.17-0.759,1.993-1.382,2.813v0.001c-1.021-0.138-2.139-0.186-2.967-1.013
							l0.057,0.91L46.411,63l1.068,2.023l-0.907-0.058c0.827,0.827,0.874,1.944,1.011,2.965l-0.002,0
							c-0.818,0.625-1.643,1.383-2.813,1.383l0.684,0.603l-2.188,0.673l2.188,0.675l-0.684,0.603c1.17,0,1.994,0.758,2.814,1.383
							c-0.138,1.021-0.186,2.138-1.012,2.965l0.908-0.058L46.409,78.181z"/>
					</g>
					<g>
						<path fill="#C3BF79" d="M36.972,35.535l-0.086,2.288l-0.758-0.503c0.303,1.13-0.216,2.12-0.607,3.074l-0.002-0.001
							c-1.021,0.131-2.113,0.375-3.125-0.209l0.291,0.864l-2.23-0.512l1.557,1.679l-0.895,0.178
							c1.014,0.585,1.347,1.653,1.744,2.604v0c-0.631,0.815-1.229,1.759-2.359,2.062l0.817,0.406l-1.939,1.217l2.288,0.085
							l-0.505,0.759c1.13-0.304,2.121,0.217,3.075,0.608l0,0c0.129,1.021,0.375,2.114-0.211,3.126l0.865-0.291l-0.512,2.231
							l1.678-1.558l0.18,0.894c0.587-1.013,1.654-1.347,2.605-1.744c0.814,0.63,1.758,1.229,2.061,2.358l0.405-0.815l1.217,1.938
							l0.085-2.288l0.76,0.505c-0.303-1.131,0.215-2.121,0.606-3.073l0,0c1.022-0.13,2.115-0.378,3.129,0.208l-0.291-0.863
							l0.871,0.198l0.395-0.729l-0.591-0.636l0.893-0.18c-1.014-0.585-1.347-1.654-1.744-2.603l-0.002,0
							c0.631-0.816,1.23-1.76,2.36-2.063l-0.816-0.405l1.938-1.216l-2.286-0.086l0.504-0.756c-1.129,0.303-2.121-0.216-3.073-0.607
							l0.001-0.002c-0.133-1.021-0.377-2.114,0.209-3.127l-0.864,0.29l0.511-2.23l-1.678,1.557l-0.181-0.893
							c-0.585,1.013-1.653,1.348-2.604,1.746c-0.816-0.63-1.76-1.229-2.063-2.359l-0.404,0.815L36.972,35.535z"/>
					</g>
				</g>
				<g>
					<g>
						<path fill="none" stroke="#4C4C4C" stroke-width="0.25" stroke-miterlimit="10" d="M81.69,65.622
							c0.033,0.297,0.045,0.593,0.041,0.883"/>
						<path fill="none" stroke="#4C4C4C" stroke-width="0.25" stroke-miterlimit="10" d="M79.761,64.645
							c-0.027,0.29-0.042,0.559-0.031,0.804"/>
						<path fill="none" stroke="#4C4C4C" stroke-width="0.25" stroke-miterlimit="10" d="M61.83,52.578
							c-0.282,0.261-0.57,0.488-0.848,0.695"/>
						<path fill="none" stroke="#4C4C4C" stroke-width="0.25" stroke-miterlimit="10" d="M85.358,62.873
							c-0.616,0.729-1.236,1.316-1.556,1.799c-0.232-0.533-0.473-1.148-0.646-1.789"/>
						<path fill="none" stroke="#4C4C4C" stroke-width="0.25" stroke-miterlimit="10" d="M83.206,67.825
							c-0.359-0.2-0.714-0.425-1.041-0.677"/>
						<path fill="none" stroke="#4C4C4C" stroke-width="0.25" stroke-miterlimit="10" d="M84.185,64.185
							c0.173,0.591,0.256,1.19,0.297,1.757"/>
						<path fill="none" stroke="#4C4C4C" stroke-width="0.25" stroke-miterlimit="10" d="M82.31,62.898
							c0.35,1.222,0.426,2.404,0.662,3.101c-0.404-0.101-0.841-0.225-1.283-0.38c-1.561-0.552-3.164-1.499-3.375-3.3"/>
						<path fill="none" stroke="#4C4C4C" stroke-width="0.25" stroke-miterlimit="10" d="M78.416,65.533
							c-0.421-0.314-0.836-0.706-1.194-1.151"/>
						<path fill="none" stroke="#4C4C4C" stroke-width="0.25" stroke-miterlimit="10" d="M76.605,66.754
							c-0.207-0.113-0.412-0.232-0.61-0.358"/>
						<path fill="none" stroke="#4C4C4C" stroke-width="0.25" stroke-miterlimit="10" d="M77.341,62.309
							c0.274,1.676-0.56,3.148-0.581,4.253"/>
						<path fill="none" stroke="#4C4C4C" stroke-width="0.25" stroke-miterlimit="10" d="M70.736,63.463
							c-0.206-0.225-0.421-0.46-0.629-0.716"/>
						<path fill="none" stroke="#4C4C4C" stroke-width="0.25" stroke-miterlimit="10" d="M72.515,63.373
							c-0.145,0.599-0.355,1.18-0.584,1.747c-0.076-0.212-0.184-0.411-0.313-0.604"/>
						<path fill="none" stroke="#4C4C4C" stroke-width="0.25" stroke-miterlimit="10" d="M72.118,59.4
							c0.691,1.39,0.695,2.678,0.416,3.893"/>
						<path fill="none" stroke="#4C4C4C" stroke-width="0.25" stroke-miterlimit="10" d="M68.176,63.434
							c-0.536-0.894-1.091-1.95-1.163-3.518"/>
						<path fill="none" stroke="#4C4C4C" stroke-width="0.25" stroke-miterlimit="10" d="M68.672,64.259
							c-0.063-0.108-0.128-0.22-0.196-0.331"/>
						<path fill="none" stroke="#4C4C4C" stroke-width="0.25" stroke-miterlimit="10" d="M69.786,58.082
							c1.131,2.163,0.528,4.041-0.174,5.727"/>
						<path fill="none" stroke="#4C4C4C" stroke-width="0.25" stroke-miterlimit="10" d="M62.731,57.837
							c0.361-0.04,0.705-0.071,1.061-0.144"/>
						<path fill="none" stroke="#4C4C4C" stroke-width="0.25" stroke-miterlimit="10" d="M58.676,59.384
							c0.475-0.316,1.052-0.636,1.442-0.832"/>
						<path fill="none" stroke="#4C4C4C" stroke-width="0.25" stroke-miterlimit="10" d="M65.709,60.933
							c-0.207,0.517-0.36,1.073-0.595,1.637"/>
						<path fill="none" stroke="#4C4C4C" stroke-width="0.25" stroke-miterlimit="10" d="M64.362,60.331
							c0.287-0.065,0.562-0.116,0.816-0.161"/>
						<path fill="none" stroke="#4C4C4C" stroke-width="0.25" stroke-miterlimit="10" d="M68.558,58.234
							c0.021,1.212-0.201,2.24-0.387,2.855c-0.285-0.35-0.69-0.766-1.115-1.356"/>
						<path fill="none" stroke="#4C4C4C" stroke-width="0.25" stroke-miterlimit="10" d="M67.528,54.336
							c0.24,0.424,0.43,0.852,0.578,1.277"/>
						<path fill="none" stroke="#4C4C4C" stroke-width="0.25" stroke-miterlimit="10" d="M64.499,58.807
							c-0.051-0.146-0.097-0.297-0.137-0.453"/>
						<path fill="none" stroke="#4C4C4C" stroke-width="0.25" stroke-miterlimit="10" d="M66.681,55.295
							c1.271,2.633,0.166,5.372-0.332,6.502c-0.316-0.503-1.049-1.284-1.564-2.321"/>
						<path fill="none" stroke="#4C4C4C" stroke-width="0.25" stroke-miterlimit="10" d="M74.673,67.793
							c0.43-0.09,0.813-0.142,1.131-0.164c-0.811,1.469-1.568,3.748-4.184,4.615"/>
						<path fill="none" stroke="#4C4C4C" stroke-width="0.25" stroke-miterlimit="10" d="M69.22,70.503
							c0.55-0.487,1.129-0.899,1.712-1.246"/>
						<path fill="none" stroke="#4C4C4C" stroke-width="0.25" stroke-miterlimit="10" d="M59.206,62.032
							c1.773-2.525,4.285-3.479,5.979-3.172c-0.928,0.911-0.895,3.337-3.838,4.604"/>
						<path fill="none" stroke="#4C4C4C" stroke-width="0.25" stroke-miterlimit="10" d="M63.804,56.663
							c-0.882,1.553-2.405,1.787-3.973,2.432c0.9-1.386,0.455-2.986,1.922-4.513"/>
						<path fill="none" stroke="#4C4C4C" stroke-width="0.25" stroke-miterlimit="10" d="M74.688,65.336
							c0.758-0.055,1.424,0,1.992,0.062c-1.219,1.495-2.559,4.06-6.271,3.851"/>
						<path fill="none" stroke="#4C4C4C" stroke-width="0.25" stroke-miterlimit="10" d="M70.736,66.617
							c0.978-0.568,1.873-0.902,2.686-1.09"/>
						<path fill="none" stroke="#4C4C4C" stroke-width="0.25" stroke-miterlimit="10" d="M76.468,61.414
							c-0.271,2.231-2.002,4.01-2.484,5.082c-0.634-0.932-1.16-2.173-1.391-3.496"/>
						<path fill="none" stroke="#4C4C4C" stroke-width="0.25" stroke-miterlimit="10" d="M64.669,53.257
							c-0.93,1.198-2.131,1.834-2.826,2.439c-0.016-0.933-0.506-2.855,0.533-4.442"/>
						<path fill="none" stroke="#4C4C4C" stroke-width="0.25" stroke-miterlimit="10" d="M78.361,57.18
							c0.954,2.318-0.124,4.8-0.192,6.082c-0.968-1.364-3.199-2.711-3.252-4.91"/>
						<path fill="none" stroke="#4C4C4C" stroke-width="0.25" stroke-miterlimit="10" d="M78.12,52.178
							c1.322,2.622,0.334,4.658-0.048,5.846c-0.56-1.471-2.147-2.26-2.521-4.478"/>
						<path fill="none" stroke="#4C4C4C" stroke-width="0.25" stroke-miterlimit="10" d="M66.896,54.757
							c-0.732,2.052-2.071,3.332-3.272,4.025c0.473-1.314-0.33-3.524,1.037-5.575"/>
						<path fill="none" stroke="#4C4C4C" stroke-width="0.25" stroke-miterlimit="10" d="M72.187,58.67
							c-0.086,1.703-0.64,2.914-1.107,3.83c-0.193-0.335-0.425-0.69-0.66-1.07"/>
						<path fill="none" stroke="#4C4C4C" stroke-width="0.25" stroke-miterlimit="10" d="M78.98,52.326
							c-0.647-0.092-1.288-0.227-1.864-0.388"/>
						<path fill="none" stroke="#4C4C4C" stroke-width="0.25" stroke-miterlimit="10" d="M75.141,53.385
							c0.903,2.436,0.896,4.347,0.866,5.611c-0.458-0.203-0.984-0.529-1.495-0.977"/>
						<path fill="none" stroke="#4C4C4C" stroke-width="0.25" stroke-miterlimit="10" d="M77.61,48.721
							c0.621,0.512,1.038,1.079,1.354,1.641"/>
						<path fill="none" stroke="#4C4C4C" stroke-width="0.25" stroke-miterlimit="10" d="M74.986,49.646
							c2.065,1.593,2.743,3.296,3.172,4.553c-1.286-0.327-3.05-0.492-4.476-1.684"/>
						<path fill="none" stroke="#4C4C4C" stroke-width="0.25" stroke-miterlimit="10" d="M61.005,64.11
							c2.436-1.897,5.473-1.637,6.737-1.454c-0.965,0.565-1.718,1.781-2.895,2.753"/>
						<path fill="none" stroke="#4C4C4C" stroke-width="0.25" stroke-miterlimit="10" d="M70.765,53.535
							c0.2,2.715-1.076,4.905-1.779,5.849c-0.346-0.995-1.33-2.815-0.739-5.877"/>
						<path fill="none" stroke="#4C4C4C" stroke-width="0.25" stroke-miterlimit="10" d="M73.407,54.326
							c1.854,2.541,0.906,6.123,0.518,7.341c-0.692-1.815-3.414-4.339-3.021-8.038"/>
						<path fill="none" stroke="#4C4C4C" stroke-width="0.25" stroke-miterlimit="10" d="M76.489,70.564
							c-0.136,0.842-0.419,1.723-1.087,2.301"/>
						<path fill="none" stroke="#4C4C4C" stroke-width="0.25" stroke-miterlimit="10" d="M68.268,64.5
							c1.542-0.99,3.112-1.262,4.34-1.204c-0.93,0.713-1.442,2.441-2.917,3.563"/>
						<path fill="none" stroke="#4C4C4C" stroke-width="0.25" stroke-miterlimit="10" d="M74.905,69.347
							c0.392-0.155,0.752-0.279,1.051-0.38"/>
						<path fill="none" stroke="#4C4C4C" stroke-width="0.25" stroke-miterlimit="10" d="M78.356,71.949
							c-0.365,1.086-0.944,2.131-1.91,2.689"/>
						<path fill="none" stroke="#4C4C4C" stroke-width="0.25" stroke-miterlimit="10" d="M67.269,68.013
							c2.219-1.567,4.752-1.604,5.922-1.493c-0.676,0.812-1.831,2.627-4.759,3.704"/>
						<path fill="none" stroke="#4C4C4C" stroke-width="0.25" stroke-miterlimit="10" d="M65.479,64.803
							c1.22-0.894,2.478-1.333,3.217-1.52c-0.354,0.971-0.819,3.003-3.086,4.965"/>
						<path fill="none" stroke="#4C4C4C" stroke-width="0.25" stroke-miterlimit="10" d="M71.426,72.285
							c0.026,0.187,0.047,0.373,0.059,0.561"/>
						<path fill="none" stroke="#4C4C4C" stroke-width="0.25" stroke-miterlimit="10" d="M69.922,70.979
							c0.388-0.336,0.729-0.631,0.955-0.898c0.195,0.642,0.396,1.306,0.515,1.988"/>
						<path fill="none" stroke="#4C4C4C" stroke-width="0.25" stroke-miterlimit="10" d="M65.887,70.471
							c2.925-1.037,4.053,0.528,5.782,1.81c-1.476-0.05-2.123,0.961-3.688,0.847"/>
						<path fill="none" stroke="#4C4C4C" stroke-width="0.25" stroke-miterlimit="10" d="M80.015,71.991
							c-0.273,0.552-0.625,1.056-1.08,1.437"/>
						<path fill="none" stroke="#4C4C4C" stroke-width="0.25" stroke-miterlimit="10" d="M63.801,72.971
							c1.769-0.959,3.868-0.837,4.917-1.127c-0.888,1.215-1.437,3.396-3.041,4.366"/>
						<path fill="none" stroke="#4C4C4C" stroke-width="0.25" stroke-miterlimit="10" d="M55.552,62.54
							c1.212-1.298,2.787-1.698,4.343-1.952c-0.631,0.777-0.726,1.96-1.249,3.199"/>
						<path fill="none" stroke="#4C4C4C" stroke-width="0.25" stroke-miterlimit="10" d="M57.683,60.124
							c-0.039,0.354-0.102,0.722-0.207,1.099"/>
						<path fill="none" stroke="#4C4C4C" stroke-width="0.25" stroke-miterlimit="10" d="M62.008,72.416
							c1.616,0.275,2.933,1.085,3.608,1.525c-0.625,0.264-1.699,1.008-3.033,1.299"/>
						<path fill="none" stroke="#4C4C4C" stroke-width="0.25" stroke-miterlimit="10" d="M62.41,78.186
							c-0.395-0.012-0.804-0.074-1.226-0.208"/>
						<path fill="none" stroke="#4C4C4C" stroke-width="0.25" stroke-miterlimit="10" d="M60.817,75.26
							c1.968-0.385,3.756,0.326,4.924,0.965"/>
						<path fill="none" stroke="#4C4C4C" stroke-width="0.25" stroke-miterlimit="10" d="M78.972,76.289
							c-0.357,0.238-0.754,0.444-1.201,0.602"/>
						<path fill="none" stroke="#4C4C4C" stroke-width="0.25" stroke-miterlimit="10" d="M77.413,73.783
							c1.038-0.343,1.952-0.439,2.748-0.434"/>
						<path fill="none" stroke="#4C4C4C" stroke-width="0.25" stroke-miterlimit="10" d="M62.558,69.223
							c1.994-0.905,3.639-1.102,4.769-1.215c-0.497,1.641-2.325,4.266-5.86,4.461"/>
						<path fill="none" stroke="#4C4C4C" stroke-width="0.25" stroke-miterlimit="10" d="M60.522,67.128
							c2.292-1.813,5.027-1.861,6.255-1.744c-0.674,0.812-1.725,2.593-4.651,3.671"/>
						<path fill="none" stroke="#4C4C4C" stroke-width="0.25" stroke-miterlimit="10" d="M80.436,35.704
							c-0.446,0.786-1.118,1.78-2.352,2.721"/>
						<path fill="none" stroke="#4C4C4C" stroke-width="0.25" stroke-miterlimit="10" d="M78.996,35.113
							c0.366-0.108,0.714-0.188,1.028-0.246"/>
						<path fill="none" stroke="#4C4C4C" stroke-width="0.25" stroke-miterlimit="10" d="M79.206,37.406
							c0.412,0.102,0.799,0.229,1.154,0.368"/>
						<path fill="none" stroke="#4C4C4C" stroke-width="0.25" stroke-miterlimit="10" d="M79.771,34.319
							c-0.507,0.527-1.226,1.36-2.469,2.075"/>
						<path fill="none" stroke="#4C4C4C" stroke-width="0.25" stroke-miterlimit="10" d="M75.537,34.353
							c1.649-0.49,3.202-0.394,4.134-0.239"/>
						<path fill="none" stroke="#4C4C4C" stroke-width="0.25" stroke-miterlimit="10" d="M74.319,35.864
							c-0.113,0.389-0.25,0.786-0.437,1.178"/>
						<path fill="none" stroke="#4C4C4C" stroke-width="0.25" stroke-miterlimit="10" d="M71.062,36.386
							c0.23-0.328,0.473-0.627,0.725-0.896"/>
						<path fill="none" stroke="#4C4C4C" stroke-width="0.25" stroke-miterlimit="10" d="M81.774,38.131
							c-0.324,0.796-0.83,1.828-1.855,2.885"/>
						<path fill="none" stroke="#4C4C4C" stroke-width="0.25" stroke-miterlimit="10" d="M79.045,38.438
							c0.831-0.507,1.655-0.824,2.319-1.015"/>
						<path fill="none" stroke="#4C4C4C" stroke-width="0.25" stroke-miterlimit="10" d="M76.081,38.719
							c1.916-0.521,3.697-0.257,4.605-0.027c-0.66,0.588-1.684,1.806-3.792,2.555"/>
						<path fill="none" stroke="#4C4C4C" stroke-width="0.25" stroke-miterlimit="10" d="M80.316,42.411
							c1.229-0.369,2.358-0.433,3.019-0.441c-0.441,0.88-0.98,2.001-1.896,2.988"/>
						<path fill="none" stroke="#4C4C4C" stroke-width="0.25" stroke-miterlimit="10" d="M83.093,40.191
							c-0.338,0.623-0.754,1.287-1.313,1.904"/>
						<path fill="none" stroke="#4C4C4C" stroke-width="0.25" stroke-miterlimit="10" d="M78.851,32.17
							c-0.684,0.151-1.434,0.273-2.235,0.286"/>
						<path fill="none" stroke="#4C4C4C" stroke-width="0.25" stroke-miterlimit="10" d="M81.103,39.482
							c0.488-0.118,0.951-0.189,1.362-0.234"/>
						<path fill="none" stroke="#4C4C4C" stroke-width="0.25" stroke-miterlimit="10" d="M82.13,44.1
							c1.174-0.52,2.376-0.668,3.418-0.657"/>
						<path fill="none" stroke="#4C4C4C" stroke-width="0.25" stroke-miterlimit="10" d="M83.019,42.593
							c0.416-0.291,0.846-0.53,1.27-0.727"/>
						<path fill="none" stroke="#4C4C4C" stroke-width="0.25" stroke-miterlimit="10" d="M71.823,38.502
							c2.223-2.193,4.701-2.105,5.561-2.602c-0.102,1.141-0.992,3.35-3.747,4.637"/>
						<path fill="none" stroke="#4C4C4C" stroke-width="0.25" stroke-miterlimit="10" d="M76.421,41.753
							c2.082-0.929,4.26-0.73,5.281-0.581c-1.677,0.979-2.713,3.918-6.428,4.141"/>
						<path fill="none" stroke="#4C4C4C" stroke-width="0.25" stroke-miterlimit="10" d="M78.942,47.596
							c-0.363,0.184-0.775,0.36-1.245,0.51"/>
						<path fill="none" stroke="#4C4C4C" stroke-width="0.25" stroke-miterlimit="10" d="M75.767,45.807
							c1.289-0.195,2.485-0.054,3.434,0.176"/>
					</g>
					<g>
						<path fill="none" stroke="#4C4C4C" stroke-width="0.25" stroke-miterlimit="10" d="M50.106,24.408
							c0.241-0.177,0.491-0.335,0.744-0.477"/>
						<path fill="none" stroke="#4C4C4C" stroke-width="0.25" stroke-miterlimit="10" d="M50.226,26.568
							c0.265-0.121,0.504-0.242,0.711-0.375"/>
						<path fill="none" stroke="#4C4C4C" stroke-width="0.25" stroke-miterlimit="10" d="M48.739,48.13
							c0.367,0.114,0.709,0.25,1.027,0.387"/>
						<path fill="none" stroke="#4C4C4C" stroke-width="0.25" stroke-miterlimit="10" d="M45.893,22.606
							c0.938,0.169,1.759,0.413,2.336,0.448c-0.346,0.468-0.759,0.983-1.228,1.453"/>
						<path fill="none" stroke="#4C4C4C" stroke-width="0.25" stroke-miterlimit="10" d="M51.258,21.995
							c0.006,0.411-0.011,0.83-0.066,1.239"/>
						<path fill="none" stroke="#4C4C4C" stroke-width="0.25" stroke-miterlimit="10" d="M47.615,22.967
							c0.425-0.445,0.903-0.816,1.373-1.135"/>
						<path fill="none" stroke="#4C4C4C" stroke-width="0.25" stroke-miterlimit="10" d="M47.438,25.234
							c0.884-0.914,1.87-1.571,2.355-2.124c0.114,0.4,0.225,0.841,0.312,1.302c0.302,1.627,0.284,3.489-1.171,4.572"/>
						<path fill="none" stroke="#4C4C4C" stroke-width="0.25" stroke-miterlimit="10" d="M51.667,27.289
							c-0.062,0.521-0.193,1.076-0.4,1.609"/>
						<path fill="none" stroke="#4C4C4C" stroke-width="0.25" stroke-miterlimit="10" d="M53.63,28.246
							c0.006,0.236,0.004,0.474-0.006,0.708"/>
						<path fill="none" stroke="#4C4C4C" stroke-width="0.25" stroke-miterlimit="10" d="M49.412,29.832
							c1.313-1.075,3.007-1.09,3.974-1.623"/>
						<path fill="none" stroke="#4C4C4C" stroke-width="0.25" stroke-miterlimit="10" d="M53.714,34.975
							c-0.092,0.291-0.188,0.595-0.305,0.902"/>
						<path fill="none" stroke="#4C4C4C" stroke-width="0.25" stroke-miterlimit="10" d="M52.747,33.48
							c0.591-0.175,1.199-0.283,1.805-0.369c-0.145,0.172-0.264,0.365-0.366,0.574"/>
						<path fill="none" stroke="#4C4C4C" stroke-width="0.25" stroke-miterlimit="10" d="M49.505,35.81
							c0.857-1.294,1.971-1.94,3.163-2.307"/>
						<path fill="none" stroke="#4C4C4C" stroke-width="0.25" stroke-miterlimit="10" d="M54.968,37.207
							c-0.506,0.911-1.143,1.92-2.465,2.766"/>
						<path fill="none" stroke="#4C4C4C" stroke-width="0.25" stroke-miterlimit="10" d="M55.436,36.365
							c-0.063,0.107-0.126,0.221-0.188,0.335"/>
						<path fill="none" stroke="#4C4C4C" stroke-width="0.25" stroke-miterlimit="10" d="M49.529,38.488
							c1.308-2.062,3.235-2.479,5.046-2.713"/>
						<path fill="none" stroke="#4C4C4C" stroke-width="0.25" stroke-miterlimit="10" d="M52.844,44.721
							c-0.216-0.293-0.415-0.575-0.655-0.847"/>
						<path fill="none" stroke="#4C4C4C" stroke-width="0.25" stroke-miterlimit="10" d="M56.211,47.459
							c-0.511-0.253-1.076-0.593-1.441-0.833"/>
						<path fill="none" stroke="#4C4C4C" stroke-width="0.25" stroke-miterlimit="10" d="M54.036,40.594
							c0.551-0.078,1.109-0.225,1.715-0.303"/>
						<path fill="none" stroke="#4C4C4C" stroke-width="0.25" stroke-miterlimit="10" d="M54.188,42.061
							c-0.201-0.216-0.382-0.428-0.548-0.626"/>
						<path fill="none" stroke="#4C4C4C" stroke-width="0.25" stroke-miterlimit="10" d="M50.275,39.476
							c1.039-0.623,2.04-0.945,2.665-1.093c-0.16,0.422-0.317,0.98-0.617,1.645"/>
						<path fill="none" stroke="#4C4C4C" stroke-width="0.25" stroke-miterlimit="10" d="M47.413,42.316
							c0.247-0.42,0.523-0.798,0.817-1.14"/>
						<path fill="none" stroke="#4C4C4C" stroke-width="0.25" stroke-miterlimit="10" d="M52.8,42.705
							c-0.102,0.117-0.209,0.231-0.324,0.345"/>
						<path fill="none" stroke="#4C4C4C" stroke-width="0.25" stroke-miterlimit="10" d="M48.667,42.571
							c1.645-2.418,4.57-2.829,5.797-2.964c-0.277,0.525-0.587,1.551-1.228,2.516"/>
						<path fill="none" stroke="#4C4C4C" stroke-width="0.25" stroke-miterlimit="10" d="M55.495,29.401
							c-0.292-0.327-0.528-0.633-0.707-0.897c1.678-0.033,4.03-0.516,6.089,1.315"/>
						<path fill="none" stroke="#4C4C4C" stroke-width="0.25" stroke-miterlimit="10" d="M60.569,32.769
							c-0.697-0.232-1.344-0.528-1.936-0.859"/>
						<path fill="none" stroke="#4C4C4C" stroke-width="0.25" stroke-miterlimit="10" d="M58.239,45.676
							c-3.073-0.273-5.154-1.972-5.736-3.592c1.254,0.348,3.338-0.894,5.906,1.022"/>
						<path fill="none" stroke="#4C4C4C" stroke-width="0.25" stroke-miterlimit="10" d="M51.291,44.379
							c1.786-0.013,2.75,1.189,4.093,2.225c-1.65-0.087-2.814,1.099-4.869,0.592"/>
						<path fill="none" stroke="#4C4C4C" stroke-width="0.25" stroke-miterlimit="10" d="M53.36,30.615
							c-0.427-0.629-0.713-1.232-0.943-1.756c1.904,0.309,4.795,0.187,6.471,3.507"/>
						<path fill="none" stroke="#4C4C4C" stroke-width="0.25" stroke-miterlimit="10" d="M56.446,33.398
							c-0.981-0.563-1.719-1.172-2.287-1.781"/>
						<path fill="none" stroke="#4C4C4C" stroke-width="0.25" stroke-miterlimit="10" d="M49.073,31.035
							c2.068-0.88,4.475-0.271,5.645-0.389c-0.49,1.015-1.303,2.091-2.333,2.952"/>
						<path fill="none" stroke="#4C4C4C" stroke-width="0.25" stroke-miterlimit="10" d="M47.908,45.332
							c1.503,0.206,2.653,0.929,3.526,1.229c-0.801,0.479-2.221,1.865-4.114,1.759"/>
						<path fill="none" stroke="#4C4C4C" stroke-width="0.25" stroke-miterlimit="10" d="M44.46,31.513
							c1.531-1.985,4.219-2.292,5.363-2.874c-0.697,1.52-0.748,4.126-2.626,5.271"/>
						<path fill="none" stroke="#4C4C4C" stroke-width="0.25" stroke-miterlimit="10" d="M40.249,34.223
							c1.609-2.456,3.867-2.618,5.086-2.882c-0.994,1.221-0.883,2.99-2.617,4.422"/>
						<path fill="none" stroke="#4C4C4C" stroke-width="0.25" stroke-miterlimit="10" d="M48.094,42.653
							c2.144-0.392,3.921,0.128,5.122,0.821c-1.375,0.248-2.887,2.048-5.347,1.889"/>
						<path fill="none" stroke="#4C4C4C" stroke-width="0.25" stroke-miterlimit="10" d="M48.838,36.115
							c1.519-0.777,2.844-0.902,3.87-0.955c-0.193,0.334-0.385,0.713-0.596,1.106"/>
						<path fill="none" stroke="#4C4C4C" stroke-width="0.25" stroke-miterlimit="10" d="M39.947,33.402
							c0.244,0.607,0.448,1.229,0.597,1.809"/>
						<path fill="none" stroke="#4C4C4C" stroke-width="0.25" stroke-miterlimit="10" d="M42.784,36.199
							c1.657-2,3.316-2.949,4.426-3.556c0.053,0.498,0.034,1.117-0.098,1.783"/>
						<path fill="none" stroke="#4C4C4C" stroke-width="0.25" stroke-miterlimit="10" d="M37.51,36.393
							c0.132-0.794,0.415-1.439,0.744-1.992"/>
						<path fill="none" stroke="#4C4C4C" stroke-width="0.25" stroke-miterlimit="10" d="M39.623,38.202
							c0.347-2.585,1.483-4.024,2.357-5.023c0.359,1.277,1.099,2.888,0.78,4.718"/>
						<path fill="none" stroke="#4C4C4C" stroke-width="0.25" stroke-miterlimit="10" d="M59.14,43.079
							c-2.861-1.161-4.153-3.921-4.627-5.108c0.971,0.554,2.4,0.598,3.83,1.131"/>
						<path fill="none" stroke="#4C4C4C" stroke-width="0.25" stroke-miterlimit="10" d="M45.103,39.914
							c2.25-1.531,4.785-1.521,5.954-1.384c-0.688,0.797-1.773,2.56-4.72,3.579"/>
						<path fill="none" stroke="#4C4C4C" stroke-width="0.25" stroke-miterlimit="10" d="M44.466,37.229
							c1.273-2.875,4.85-3.846,6.099-4.118c-1.226,1.507-2.051,5.126-5.45,6.636"/>
						<path fill="none" stroke="#4C4C4C" stroke-width="0.25" stroke-miterlimit="10" d="M56.987,26.442
							c0.797-0.304,1.701-0.499,2.537-0.209"/>
						<path fill="none" stroke="#4C4C4C" stroke-width="0.25" stroke-miterlimit="10" d="M55.847,36.594
							c-1.629-0.84-2.648-2.064-3.213-3.156c1.082,0.449,2.836,0.029,4.544,0.746"/>
						<path fill="none" stroke="#4C4C4C" stroke-width="0.25" stroke-miterlimit="10" d="M56.726,28.423
							c-0.33-0.262-0.618-0.512-0.855-0.72"/>
						<path fill="none" stroke="#4C4C4C" stroke-width="0.25" stroke-miterlimit="10" d="M57.253,24.133
							c1.123-0.227,2.318-0.248,3.285,0.31"/>
						<path fill="none" stroke="#4C4C4C" stroke-width="0.25" stroke-miterlimit="10" d="M59.388,35.703
							c-2.467-1.138-3.766-3.313-4.254-4.382c1.041,0.18,3.191,0.272,5.588,2.27"/>
						<path fill="none" stroke="#4C4C4C" stroke-width="0.25" stroke-miterlimit="10" d="M57.503,38.857
							c-1.385-0.609-2.395-1.479-2.924-2.025c1.016-0.18,3.01-0.793,5.842,0.189"/>
						<path fill="none" stroke="#4C4C4C" stroke-width="0.25" stroke-miterlimit="10" d="M61.01,29.967
							c0.148-0.116,0.3-0.227,0.456-0.331"/>
						<path fill="none" stroke="#4C4C4C" stroke-width="0.25" stroke-miterlimit="10" d="M60.63,31.923
							c-0.484-0.168-0.91-0.315-1.256-0.378c0.459-0.49,0.934-0.996,1.465-1.44"/>
						<path fill="none" stroke="#4C4C4C" stroke-width="0.25" stroke-miterlimit="10" d="M62.208,35.671
							c-2.361-2.014-1.568-3.773-1.324-5.912c0.695,1.303,1.895,1.358,2.576,2.771"/>
						<path fill="none" stroke="#4C4C4C" stroke-width="0.25" stroke-miterlimit="10" d="M56.461,22.676
							c0.614-0.039,1.227,0.014,1.784,0.217"/>
						<path fill="none" stroke="#4C4C4C" stroke-width="0.25" stroke-miterlimit="10" d="M65.415,36.228
							c-1.715-1.052-2.658-2.932-3.434-3.694c1.496,0.161,3.658-0.453,5.301,0.451"/>
						<path fill="none" stroke="#4C4C4C" stroke-width="0.25" stroke-miterlimit="10" d="M60.507,48.587
							c-1.73-0.401-2.865-1.564-3.862-2.785c0.989,0.157,2.06-0.352,3.396-0.518"/>
						<path fill="none" stroke="#4C4C4C" stroke-width="0.25" stroke-miterlimit="10" d="M57.349,47.949
							c0.326-0.144,0.676-0.272,1.055-0.369"/>
						<path fill="none" stroke="#4C4C4C" stroke-width="0.25" stroke-miterlimit="10" d="M65.831,38.058
							c-0.568-1.537-0.526-3.082-0.482-3.888c0.541,0.41,1.723,0.969,2.641,1.979"/>
						<path fill="none" stroke="#4C4C4C" stroke-width="0.25" stroke-miterlimit="10" d="M70.627,34.824
							c0.188,0.348,0.338,0.734,0.433,1.166"/>
						<path fill="none" stroke="#4C4C4C" stroke-width="0.25" stroke-miterlimit="10" d="M68.89,37.668
							c-1.316-1.513-1.596-3.416-1.627-4.748"/>
						<path fill="none" stroke="#4C4C4C" stroke-width="0.25" stroke-miterlimit="10" d="M60.704,21.43
							c0.385,0.191,0.762,0.432,1.122,0.74"/>
						<path fill="none" stroke="#4C4C4C" stroke-width="0.25" stroke-miterlimit="10" d="M59.313,24.032
							c-0.816-0.728-1.356-1.471-1.75-2.163"/>
						<path fill="none" stroke="#4C4C4C" stroke-width="0.25" stroke-miterlimit="10" d="M62.791,39.179
							c-1.78-1.274-2.773-2.601-3.437-3.522c1.67-0.39,4.857-0.119,6.794,2.845"/>
						<path fill="none" stroke="#4C4C4C" stroke-width="0.25" stroke-miterlimit="10" d="M61.995,41.988
							c-2.717-1.078-4.127-3.424-4.639-4.545c1.04,0.178,3.107,0.197,5.505,2.193"/>
						<path fill="none" stroke="#4C4C4C" stroke-width="0.25" stroke-miterlimit="10" d="M24.824,40.453
							c0.903-0.006,2.101,0.078,3.531,0.676"/>
						<path fill="none" stroke="#4C4C4C" stroke-width="0.25" stroke-miterlimit="10" d="M25.032,41.996
							c-0.277-0.264-0.52-0.525-0.728-0.768"/>
						<path fill="none" stroke="#4C4C4C" stroke-width="0.25" stroke-miterlimit="10" d="M26.913,40.667
							c-0.118-0.407-0.201-0.806-0.259-1.184"/>
						<path fill="none" stroke="#4C4C4C" stroke-width="0.25" stroke-miterlimit="10" d="M23.957,41.722
							c0.71,0.175,1.791,0.382,3.031,1.101"/>
						<path fill="none" stroke="#4C4C4C" stroke-width="0.25" stroke-miterlimit="10" d="M26.103,45.371
							c-1.249-1.184-1.941-2.576-2.273-3.46"/>
						<path fill="none" stroke="#4C4C4C" stroke-width="0.25" stroke-miterlimit="10" d="M28.021,45.67
							c0.394-0.096,0.807-0.176,1.238-0.211"/>
						<path fill="none" stroke="#4C4C4C" stroke-width="0.25" stroke-miterlimit="10" d="M30.102,48.23
							c-0.399-0.035-0.779-0.096-1.138-0.18"/>
						<path fill="none" stroke="#4C4C4C" stroke-width="0.25" stroke-miterlimit="10" d="M26.256,38.08
							c0.853-0.117,1.998-0.194,3.427,0.165"/>
						<path fill="none" stroke="#4C4C4C" stroke-width="0.25" stroke-miterlimit="10" d="M27.888,40.291
							c-0.854-0.467-1.541-1.021-2.039-1.502"/>
						<path fill="none" stroke="#4C4C4C" stroke-width="0.25" stroke-miterlimit="10" d="M29.612,42.717
							c-1.409-1.398-2.071-3.073-2.326-3.975c0.839,0.277,2.405,0.556,4.107,2.007"/>
						<path fill="none" stroke="#4C4C4C" stroke-width="0.25" stroke-miterlimit="10" d="M30.692,37.203
							c-0.935-0.88-1.554-1.826-1.891-2.394c0.982-0.058,2.222-0.151,3.535,0.148"/>
						<path fill="none" stroke="#4C4C4C" stroke-width="0.25" stroke-miterlimit="10" d="M27.382,35.909
							c0.709-0.02,1.491,0.009,2.306,0.185"/>
						<path fill="none" stroke="#4C4C4C" stroke-width="0.25" stroke-miterlimit="10" d="M22.556,43.593
							c0.473,0.517,0.953,1.104,1.365,1.793"/>
						<path fill="none" stroke="#4C4C4C" stroke-width="0.25" stroke-miterlimit="10" d="M27.763,37.987
							c-0.346-0.364-0.64-0.729-0.884-1.063"/>
						<path fill="none" stroke="#4C4C4C" stroke-width="0.25" stroke-miterlimit="10" d="M31.247,34.788
							c-1.035-0.757-1.766-1.724-2.277-2.631"/>
						<path fill="none" stroke="#4C4C4C" stroke-width="0.25" stroke-miterlimit="10" d="M29.499,34.772
							c-0.46-0.215-0.883-0.468-1.264-0.736"/>
						<path fill="none" stroke="#4C4C4C" stroke-width="0.25" stroke-miterlimit="10" d="M31.554,46.514
							c-3.012-0.828-4.174-3.02-5.033-3.516c1.038-0.482,3.396-0.815,5.889,0.927"/>
						<path fill="none" stroke="#4C4C4C" stroke-width="0.25" stroke-miterlimit="10" d="M32.069,40.906
							c-1.845-1.339-2.762-3.324-3.143-4.283c1.686,0.962,4.749,0.391,6.799,3.496"/>
						<path fill="none" stroke="#4C4C4C" stroke-width="0.25" stroke-miterlimit="10" d="M35.869,35.801
							c0.341,0.223,0.7,0.492,1.063,0.824"/>
						<path fill="none" stroke="#4C4C4C" stroke-width="0.25" stroke-miterlimit="10" d="M35.907,39.446
							c-0.813-1.02-1.289-2.126-1.564-3.062"/>
					</g>
					<g>
						<path fill="none" stroke="#4C4C4C" stroke-width="0.25" stroke-miterlimit="10" d="M30.205,72.367
							c-0.274-0.121-0.536-0.258-0.785-0.406"/>
						<path fill="none" stroke="#4C4C4C" stroke-width="0.25" stroke-miterlimit="10" d="M32.017,71.185
							c-0.238-0.169-0.463-0.315-0.681-0.429"/>
						<path fill="none" stroke="#4C4C4C" stroke-width="0.25" stroke-miterlimit="10" d="M51.433,61.691
							c-0.085-0.375-0.139-0.738-0.179-1.083"/>
						<path fill="none" stroke="#4C4C4C" stroke-width="0.25" stroke-miterlimit="10" d="M30.751,76.918
							c-0.322-0.897-0.521-1.73-0.779-2.248c0.578,0.066,1.23,0.166,1.872,0.337"/>
						<path fill="none" stroke="#4C4C4C" stroke-width="0.25" stroke-miterlimit="10" d="M27.539,72.576
							c0.354-0.21,0.725-0.405,1.106-0.562"/>
						<path fill="none" stroke="#4C4C4C" stroke-width="0.25" stroke-miterlimit="10" d="M30.202,75.246
							c-0.598-0.146-1.158-0.375-1.67-0.623"/>
						<path fill="none" stroke="#4C4C4C" stroke-width="0.25" stroke-miterlimit="10" d="M32.254,74.265
							c-1.233-0.308-2.296-0.834-3.017-0.978c0.289-0.299,0.615-0.615,0.971-0.921c1.259-1.074,2.88-1.99,4.546-1.271"/>
						<path fill="none" stroke="#4C4C4C" stroke-width="0.25" stroke-miterlimit="10" d="M31.919,69.575
							c0.482-0.207,1.029-0.37,1.595-0.458"/>
						<path fill="none" stroke="#4C4C4C" stroke-width="0.25" stroke-miterlimit="10" d="M31.767,67.397
							c0.202-0.124,0.408-0.24,0.616-0.35"/>
						<path fill="none" stroke="#4C4C4C" stroke-width="0.25" stroke-miterlimit="10" d="M35.249,70.257
							c-1.588-0.6-2.447-2.059-3.393-2.63"/>
						<path fill="none" stroke="#4C4C4C" stroke-width="0.25" stroke-miterlimit="10" d="M37.552,63.961
							c0.299-0.066,0.609-0.136,0.934-0.188"/>
						<path fill="none" stroke="#4C4C4C" stroke-width="0.25" stroke-miterlimit="10" d="M36.741,65.545
							c-0.446-0.424-0.845-0.896-1.221-1.379c0.221,0.039,0.447,0.046,0.68,0.03"/>
						<path fill="none" stroke="#4C4C4C" stroke-width="0.25" stroke-miterlimit="10" d="M40.38,67.188
							c-1.549-0.096-2.666-0.736-3.579-1.586"/>
						<path fill="none" stroke="#4C4C4C" stroke-width="0.25" stroke-miterlimit="10" d="M38.858,61.758
							c1.043-0.018,2.234,0.029,3.628,0.753"/>
						<path fill="none" stroke="#4C4C4C" stroke-width="0.25" stroke-miterlimit="10" d="M37.896,61.773
							c0.125,0.001,0.255,0,0.385-0.004"/>
						<path fill="none" stroke="#4C4C4C" stroke-width="0.25" stroke-miterlimit="10" d="M42.688,65.828
							c-2.439-0.103-3.765-1.563-4.872-3.014"/>
						<path fill="none" stroke="#4C4C4C" stroke-width="0.25" stroke-miterlimit="10" d="M46.428,59.841
							c-0.146,0.334-0.29,0.647-0.405,0.991"/>
						<path fill="none" stroke="#4C4C4C" stroke-width="0.25" stroke-miterlimit="10" d="M47.116,55.557
							c0.036,0.568,0.024,1.229-0.001,1.664"/>
						<path fill="none" stroke="#4C4C4C" stroke-width="0.25" stroke-miterlimit="10" d="M42.257,60.872
							c-0.342-0.438-0.748-0.849-1.119-1.334"/>
						<path fill="none" stroke="#4C4C4C" stroke-width="0.25" stroke-miterlimit="10" d="M43.452,60.007
							c-0.087,0.282-0.18,0.544-0.269,0.787"/>
						<path fill="none" stroke="#4C4C4C" stroke-width="0.25" stroke-miterlimit="10" d="M43.169,64.688
							c-1.059-0.588-1.838-1.294-2.278-1.762c0.445-0.072,1.008-0.215,1.733-0.287"/>
						<path fill="none" stroke="#4C4C4C" stroke-width="0.25" stroke-miterlimit="10" d="M47.062,65.746
							c-0.488-0.004-0.953-0.054-1.396-0.138"/>
						<path fill="none" stroke="#4C4C4C" stroke-width="0.25" stroke-miterlimit="10" d="M44.704,60.887
							c0.152,0.029,0.305,0.065,0.461,0.108"/>
						<path fill="none" stroke="#4C4C4C" stroke-width="0.25" stroke-miterlimit="10" d="M46.655,64.533
							c-2.917-0.216-4.736-2.544-5.465-3.538c0.593-0.023,1.635-0.268,2.791-0.195"/>
						<path fill="none" stroke="#4C4C4C" stroke-width="0.25" stroke-miterlimit="10" d="M31.835,65.204
							c-0.137,0.416-0.283,0.773-0.424,1.061c-0.867-1.436-2.461-3.232-1.905-5.931"/>
						<path fill="none" stroke="#4C4C4C" stroke-width="0.25" stroke-miterlimit="10" d="M32.214,59.126
							c0.148,0.72,0.215,1.428,0.224,2.105"/>
						<path fill="none" stroke="#4C4C4C" stroke-width="0.25" stroke-miterlimit="10" d="M44.558,54.69
							c1.3,2.799,0.869,5.45-0.243,6.765c-0.325-1.26-2.442-2.444-2.067-5.627"/>
						<path fill="none" stroke="#4C4C4C" stroke-width="0.25" stroke-miterlimit="10" d="M46.908,61.356
							c-0.904-1.54-0.345-2.976-0.119-4.656c0.749,1.473,2.358,1.888,2.946,3.921"/>
						<path fill="none" stroke="#4C4C4C" stroke-width="0.25" stroke-miterlimit="10" d="M33.954,66.446
							c-0.332,0.684-0.711,1.233-1.05,1.694c-0.685-1.804-2.235-4.246-0.198-7.357"/>
						<path fill="none" stroke="#4C4C4C" stroke-width="0.25" stroke-miterlimit="10" d="M34.821,62.382
							c0.004,1.132-0.155,2.074-0.399,2.871"/>
						<path fill="none" stroke="#4C4C4C" stroke-width="0.25" stroke-miterlimit="10" d="M36.461,69.949
							c-1.796-1.352-2.472-3.74-3.159-4.694c1.124-0.083,2.463,0.083,3.723,0.544"/>
						<path fill="none" stroke="#4C4C4C" stroke-width="0.25" stroke-miterlimit="10" d="M49.425,63.81
							c-0.572-1.404-0.521-2.762-0.699-3.668c0.816,0.454,2.727,0.991,3.58,2.685"/>
						<path fill="none" stroke="#4C4C4C" stroke-width="0.25" stroke-miterlimit="10" d="M39.181,73.705
							c-2.484-0.333-4.094-2.508-5.17-3.208c1.664-0.155,3.946-1.415,5.878-0.36"/>
						<path fill="none" stroke="#4C4C4C" stroke-width="0.25" stroke-miterlimit="10" d="M43.633,75.998
							c-2.931-0.167-4.2-2.041-5.038-2.965c1.555,0.251,3.031-0.73,5.139,0.057"/>
						<path fill="none" stroke="#4C4C4C" stroke-width="0.25" stroke-miterlimit="10" d="M47.013,64.988
							c-1.411-1.66-1.85-3.459-1.85-4.847c0.902,1.067,3.217,1.477,4.309,3.687"/>
						<path fill="none" stroke="#4C4C4C" stroke-width="0.25" stroke-miterlimit="10" d="M40.978,67.613
							c-1.432-0.927-2.203-2.012-2.762-2.875c0.386,0.001,0.81-0.023,1.256-0.037"/>
						<path fill="none" stroke="#4C4C4C" stroke-width="0.25" stroke-miterlimit="10" d="M43.073,76.669
							c0.404-0.515,0.841-1.003,1.269-1.421"/>
						<path fill="none" stroke="#4C4C4C" stroke-width="0.25" stroke-miterlimit="10" d="M44.077,72.813
							c-2.561-0.435-4.212-1.397-5.292-2.056c0.405-0.294,0.95-0.588,1.593-0.807"/>
						<path fill="none" stroke="#4C4C4C" stroke-width="0.25" stroke-miterlimit="10" d="M46.882,77.285
							c-0.754,0.282-1.454,0.359-2.098,0.352"/>
						<path fill="none" stroke="#4C4C4C" stroke-width="0.25" stroke-miterlimit="10" d="M47.392,74.549
							c-2.412,0.992-4.227,0.729-5.528,0.471c0.927-0.949,1.952-2.395,3.696-3.034"/>
						<path fill="none" stroke="#4C4C4C" stroke-width="0.25" stroke-miterlimit="10" d="M41.858,55.209
							c0.426,3.059-1.318,5.558-2.11,6.562c-0.006-1.118-0.683-2.378-0.936-3.882"/>
						<path fill="none" stroke="#4C4C4C" stroke-width="0.25" stroke-miterlimit="10" d="M46.136,68.948
							c-2.451-1.183-3.709-3.384-4.176-4.464c1.035,0.197,3.104,0.256,5.459,2.298"/>
						<path fill="none" stroke="#4C4C4C" stroke-width="0.25" stroke-miterlimit="10" d="M44.129,70.842
							c-3.126,0.335-5.756-2.277-6.616-3.223c1.918,0.309,5.465-0.787,8.473,1.403"/>
						<path fill="none" stroke="#4C4C4C" stroke-width="0.25" stroke-miterlimit="10" d="M28.526,65.392
							c-0.661-0.539-1.283-1.225-1.449-2.093"/>
						<path fill="none" stroke="#4C4C4C" stroke-width="0.25" stroke-miterlimit="10" d="M37.889,61.304
							c0.087,1.831-0.465,3.325-1.128,4.36c-0.152-1.162-1.393-2.471-1.625-4.309"/>
						<path fill="none" stroke="#4C4C4C" stroke-width="0.25" stroke-miterlimit="10" d="M30.372,64.628
							c-0.061,0.416-0.134,0.791-0.195,1.101"/>
						<path fill="none" stroke="#4C4C4C" stroke-width="0.25" stroke-miterlimit="10" d="M26.394,66.316
							c-0.758-0.859-1.374-1.885-1.375-3"/>
						<path fill="none" stroke="#4C4C4C" stroke-width="0.25" stroke-miterlimit="10" d="M35.347,58.682
							c0.248,2.706-0.986,4.918-1.668,5.875c-0.365-0.991-1.359-2.899-0.828-5.974"/>
						<path fill="none" stroke="#4C4C4C" stroke-width="0.25" stroke-miterlimit="10" d="M39.021,58.737
							c0.165,1.504-0.083,2.813-0.292,3.545c-0.663-0.79-2.191-2.21-2.757-5.153"/>
						<path fill="none" stroke="#4C4C4C" stroke-width="0.25" stroke-miterlimit="10" d="M29.567,60.146
							c-0.175-0.07-0.346-0.146-0.515-0.229"/>
						<path fill="none" stroke="#4C4C4C" stroke-width="0.25" stroke-miterlimit="10" d="M31.452,59.496
							c0.096,0.504,0.182,0.946,0.301,1.277c-0.654-0.153-1.33-0.311-1.98-0.549"/>
						<path fill="none" stroke="#4C4C4C" stroke-width="0.25" stroke-miterlimit="10" d="M33.909,56.256
							c-0.564,3.052-2.484,3.245-4.459,4.103c0.781-1.254,0.229-2.32,1.111-3.616"/>
						<path fill="none" stroke="#4C4C4C" stroke-width="0.25" stroke-miterlimit="10" d="M25.528,67.73
							c-0.342-0.513-0.602-1.069-0.705-1.654"/>
						<path fill="none" stroke="#4C4C4C" stroke-width="0.25" stroke-miterlimit="10" d="M32.787,53.2
							c-0.054,2.011-1.21,3.769-1.482,4.821c-0.608-1.377-2.222-2.942-2.26-4.816"/>
						<path fill="none" stroke="#4C4C4C" stroke-width="0.25" stroke-miterlimit="10" d="M45.944,51.271
							c0.518,1.699,0.078,3.264-0.48,4.737c-0.358-0.936-1.334-1.607-2.146-2.682"/>
						<path fill="none" stroke="#4C4C4C" stroke-width="0.25" stroke-miterlimit="10" d="M46.972,54.326
							c-0.287-0.211-0.574-0.449-0.847-0.729"/>
						<path fill="none" stroke="#4C4C4C" stroke-width="0.25" stroke-miterlimit="10" d="M34.164,51.925
							c-1.047,1.261-2.405,1.997-3.126,2.362c0.085-0.674-0.021-1.977,0.394-3.277"/>
						<path fill="none" stroke="#4C4C4C" stroke-width="0.25" stroke-miterlimit="10" d="M28.966,49.389
							c0.208-0.337,0.468-0.66,0.794-0.959"/>
						<path fill="none" stroke="#4C4C4C" stroke-width="0.25" stroke-miterlimit="10" d="M32.298,49.471
							c-0.652,1.896-2.161,3.09-3.299,3.783"/>
						<path fill="none" stroke="#4C4C4C" stroke-width="0.25" stroke-miterlimit="10" d="M22.327,64.678
							c-0.027-0.428-0.008-0.875,0.08-1.342"/>
						<path fill="none" stroke="#4C4C4C" stroke-width="0.25" stroke-miterlimit="10" d="M25.276,64.582
							c-0.223,1.07-0.596,1.91-0.998,2.597"/>
						<path fill="none" stroke="#4C4C4C" stroke-width="0.25" stroke-miterlimit="10" d="M36.654,53.997
							c-0.213,2.179-0.865,3.702-1.332,4.737c-1.172-1.252-2.532-4.146-0.934-7.307"/>
						<path fill="none" stroke="#4C4C4C" stroke-width="0.25" stroke-miterlimit="10" d="M39.486,53.282
							c0.425,2.892-0.901,5.285-1.617,6.289c-0.365-0.989-1.383-2.79-0.853-5.864"/>
						<path fill="none" stroke="#4C4C4C" stroke-width="0.25" stroke-miterlimit="10" d="M56.741,86.241
							c-0.457-0.78-0.983-1.858-1.182-3.396"/>
						<path fill="none" stroke="#4C4C4C" stroke-width="0.25" stroke-miterlimit="10" d="M57.974,85.289
							c-0.09,0.372-0.195,0.713-0.302,1.015"/>
						<path fill="none" stroke="#4C4C4C" stroke-width="0.25" stroke-miterlimit="10" d="M55.882,84.325
							c-0.294,0.306-0.598,0.577-0.896,0.815"/>
						<path fill="none" stroke="#4C4C4C" stroke-width="0.25" stroke-miterlimit="10" d="M58.272,86.357
							c-0.203-0.702-0.564-1.741-0.563-3.176"/>
						<path fill="none" stroke="#4C4C4C" stroke-width="0.25" stroke-miterlimit="10" d="M60.361,82.675
							c-0.401,1.674-1.261,2.97-1.86,3.699"/>
						<path fill="none" stroke="#4C4C4C" stroke-width="0.25" stroke-miterlimit="10" d="M59.661,80.864
							c-0.28-0.293-0.556-0.61-0.803-0.967"/>
						<path fill="none" stroke="#4C4C4C" stroke-width="0.25" stroke-miterlimit="10" d="M60.838,77.782
							c0.169,0.363,0.307,0.723,0.413,1.075"/>
						<path fill="none" stroke="#4C4C4C" stroke-width="0.25" stroke-miterlimit="10" d="M53.97,86.188
							c-0.527-0.68-1.168-1.634-1.57-3.05"/>
						<path fill="none" stroke="#4C4C4C" stroke-width="0.25" stroke-miterlimit="10" d="M55.069,83.669
							c0.022,0.974-0.114,1.846-0.282,2.517"/>
						<path fill="none" stroke="#4C4C4C" stroke-width="0.25" stroke-miterlimit="10" d="M56.308,80.963
							c-0.507,1.919-1.626,3.33-2.279,4.002c-0.18-0.865-0.721-2.361-0.315-4.562"/>
						<path fill="none" stroke="#4C4C4C" stroke-width="0.25" stroke-miterlimit="10" d="M50.992,82.783
							c-0.294,1.25-0.805,2.26-1.128,2.835c-0.54-0.821-1.241-1.849-1.639-3.136"/>
						<path fill="none" stroke="#4C4C4C" stroke-width="0.25" stroke-miterlimit="10" d="M51.526,86.297
							c-0.371-0.604-0.737-1.295-0.992-2.088"/>
						<path fill="none" stroke="#4C4C4C" stroke-width="0.25" stroke-miterlimit="10" d="M60.594,86.636
							c0.212-0.668,0.479-1.378,0.87-2.079"/>
						<path fill="none" stroke="#4C4C4C" stroke-width="0.25" stroke-miterlimit="10" d="M53.136,84.929
							c-0.143,0.481-0.312,0.919-0.479,1.298"/>
						<path fill="none" stroke="#4C4C4C" stroke-width="0.25" stroke-miterlimit="10" d="M48.623,83.51
							c-0.137,1.276-0.61,2.392-1.14,3.288"/>
						<path fill="none" stroke="#4C4C4C" stroke-width="0.25" stroke-miterlimit="10" d="M49.483,85.033
							c0.044,0.505,0.037,0.998-0.006,1.463"/>
						<path fill="none" stroke="#4C4C4C" stroke-width="0.25" stroke-miterlimit="10" d="M58.625,77.383
							c0.788,3.021-0.528,5.125-0.528,6.117c-0.937-0.658-2.404-2.534-2.142-5.563"/>
						<path fill="none" stroke="#4C4C4C" stroke-width="0.25" stroke-miterlimit="10" d="M53.511,79.739
							c-0.236,2.268-1.498,4.054-2.138,4.864c-0.01-1.941-2.036-4.309-0.372-7.637"/>
						<path fill="none" stroke="#4C4C4C" stroke-width="0.25" stroke-miterlimit="10" d="M47.189,79.002
							c0.022-0.406,0.076-0.853,0.183-1.334"/>
						<path fill="none" stroke="#4C4C4C" stroke-width="0.25" stroke-miterlimit="10" d="M50.327,77.146
							c-0.476,1.214-1.196,2.179-1.869,2.886"/>
					</g>
				</g>
				<g>
					<g>
						<g>
							<path fill="none" stroke="#000000" stroke-width="0.25" stroke-linejoin="round" stroke-miterlimit="10" d="M56.943,70.589
								c5.004,0,2.509-3.645,4.488-5.625l-0.91,0.058l1.072-2.023l-2.024,1.071l0.058-0.911c-1.98,1.98-5.625-0.516-5.625,4.488"/>
							<path fill="none" stroke="#000000" stroke-width="0.25" stroke-linejoin="round" stroke-miterlimit="10" d="M51.061,70.589
								c-5.006,0-2.51,3.646-4.488,5.625l0.908-0.058l-1.07,2.023l2.023-1.069l-0.057,0.909c1.979-1.979,5.624,0.516,5.625-4.488"/>
							<path fill="none" stroke="#000000" stroke-width="0.25" stroke-linejoin="round" stroke-miterlimit="10" d="M54.002,67.647
								c0-5.004-3.646-2.509-5.625-4.488l0.057,0.91l-2.021-1.07l1.068,2.023l-0.908-0.058c1.979,1.979-0.518,5.625,4.488,5.625"/>
							<path fill="none" stroke="#000000" stroke-width="0.25" stroke-linejoin="round" stroke-miterlimit="10" d="M54.002,73.531
								c-0.001,5.004,3.645,2.509,5.624,4.488l-0.058-0.91l2.023,1.07l-1.07-2.023l0.91,0.058c-1.979-1.979,0.516-5.625-4.488-5.625
								"/>
						</g>
						<g>
							<path fill="none" stroke="#000000" stroke-width="0.25" stroke-linejoin="round" stroke-miterlimit="10" d="M53.584,61.21
								l-0.257,0.832l-0.603-0.684c0,1.169-0.758,1.993-1.382,2.813"/>
							<path fill="none" stroke="#000000" stroke-width="0.25" stroke-linejoin="round" stroke-miterlimit="10" d="M56.661,64.171
								c-0.624-0.82-1.384-1.644-1.384-2.813l-0.602,0.684l-0.264-0.855"/>
							<path fill="none" stroke="#000000" stroke-width="0.25" stroke-linejoin="round" stroke-miterlimit="10" d="M51.343,77.009
								c0.624,0.819,1.382,1.643,1.382,2.812l0.603-0.684L54,81.325l0.676-2.188l0.602,0.684c0-1.17,0.759-1.993,1.383-2.813"/>
							<path fill="none" stroke="#000000" stroke-width="0.25" stroke-linejoin="round" stroke-miterlimit="10" d="M47.582,67.93
								c-0.819,0.625-1.643,1.383-2.813,1.383l0.684,0.603l-2.187,0.673l2.187,0.675l-0.684,0.603c1.17,0,1.993,0.759,2.813,1.383"
								/>
							<path fill="none" stroke="#000000" stroke-width="0.25" stroke-linejoin="round" stroke-miterlimit="10" d="M60.42,73.248
								c0.82-0.624,1.643-1.382,2.813-1.382l-0.684-0.603l2.187-0.673l-2.187-0.675l0.684-0.603c-1.17,0-1.993-0.759-2.813-1.383"/>
						</g>
						<g>
							<g>
								
									<line fill="none" stroke="#000000" stroke-width="0.25" stroke-linecap="round" stroke-linejoin="round" stroke-miterlimit="10" x1="56.081" y1="68.51" x2="57.807" y2="66.785"/>
								
									<line fill="none" stroke="#000000" stroke-width="0.25" stroke-linecap="round" stroke-linejoin="round" stroke-miterlimit="10" x1="55.647" y1="68.152" x2="56.522" y2="66.853"/>
								
									<line fill="none" stroke="#000000" stroke-width="0.25" stroke-linecap="round" stroke-linejoin="round" stroke-miterlimit="10" x1="56.439" y1="68.945" x2="57.737" y2="68.069"/>
							</g>
							<g>
								
									<line fill="none" stroke="#000000" stroke-width="0.25" stroke-linecap="round" stroke-linejoin="round" stroke-miterlimit="10" x1="50.194" y1="74.396" x2="51.921" y2="72.669"/>
								
									<line fill="none" stroke="#000000" stroke-width="0.25" stroke-linecap="round" stroke-linejoin="round" stroke-miterlimit="10" x1="51.483" y1="74.325" x2="52.356" y2="73.029"/>
								
									<line fill="none" stroke="#000000" stroke-width="0.25" stroke-linecap="round" stroke-linejoin="round" stroke-miterlimit="10" x1="50.267" y1="73.109" x2="51.562" y2="72.234"/>
							</g>
							<g>
								
									<line fill="none" stroke="#000000" stroke-width="0.25" stroke-linecap="round" stroke-linejoin="round" stroke-miterlimit="10" x1="56.081" y1="72.67" x2="57.806" y2="74.396"/>
								
									<line fill="none" stroke="#000000" stroke-width="0.25" stroke-linecap="round" stroke-linejoin="round" stroke-miterlimit="10" x1="56.438" y1="72.237" x2="57.737" y2="73.112"/>
								
									<line fill="none" stroke="#000000" stroke-width="0.25" stroke-linecap="round" stroke-linejoin="round" stroke-miterlimit="10" x1="55.646" y1="73.029" x2="56.522" y2="74.327"/>
							</g>
							<g>
								
									<line fill="none" stroke="#000000" stroke-width="0.25" stroke-linecap="round" stroke-linejoin="round" stroke-miterlimit="10" x1="50.194" y1="66.784" x2="51.921" y2="68.51"/>
								
									<line fill="none" stroke="#000000" stroke-width="0.25" stroke-linecap="round" stroke-linejoin="round" stroke-miterlimit="10" x1="50.267" y1="68.073" x2="51.562" y2="68.946"/>
								
									<line fill="none" stroke="#000000" stroke-width="0.25" stroke-linecap="round" stroke-linejoin="round" stroke-miterlimit="10" x1="51.481" y1="66.856" x2="52.356" y2="68.151"/>
							</g>
						</g>
						<g>
							<g>
								
									<line fill="none" stroke="#000000" stroke-width="0.25" stroke-linecap="round" stroke-linejoin="round" stroke-miterlimit="10" x1="54.002" y1="66.862" x2="54.002" y2="63.77"/>
							</g>
							<g>
								
									<line fill="none" stroke="#000000" stroke-width="0.25" stroke-linecap="round" stroke-linejoin="round" stroke-miterlimit="10" x1="54.001" y1="77.411" x2="54" y2="74.316"/>
							</g>
							<g>
								
									<line fill="none" stroke="#000000" stroke-width="0.25" stroke-linecap="round" stroke-linejoin="round" stroke-miterlimit="10" x1="57.729" y1="70.59" x2="60.82" y2="70.591"/>
							</g>
							<g>
								
									<line fill="none" stroke="#000000" stroke-width="0.25" stroke-linecap="round" stroke-linejoin="round" stroke-miterlimit="10" x1="47.181" y1="70.59" x2="50.273" y2="70.59"/>
							</g>
						</g>
					</g>
					<g>
						<g>
							<path fill="none" stroke="#000000" stroke-width="0.25" stroke-linejoin="round" stroke-miterlimit="10" d="M66.782,43.357
								c-2.502-4.334-4.411-0.351-7.115-1.075l0.504,0.759l-2.287,0.084l1.939,1.218l-0.818,0.405
								c2.705,0.726,2.365,5.13,6.699,2.628"/>
							<path fill="none" stroke="#000000" stroke-width="0.25" stroke-linejoin="round" stroke-miterlimit="10" d="M69.723,48.452
								c2.503,4.335,4.412,0.351,7.116,1.075l-0.504-0.758l2.287-0.085l-1.938-1.218l0.815-0.405
								c-2.703-0.724-2.365-5.129-6.699-2.628"/>
							<path fill="none" stroke="#000000" stroke-width="0.25" stroke-linejoin="round" stroke-miterlimit="10" d="M65.704,47.376
								c-4.334,2.502-0.35,4.411-1.074,7.115l0.76-0.504l0.084,2.286l1.218-1.938l0.403,0.815c0.726-2.703,5.131-2.364,2.628-6.699"
								/>
							<path fill="none" stroke="#000000" stroke-width="0.25" stroke-linejoin="round" stroke-miterlimit="10" d="M70.8,44.434
								c4.334-2.501,0.352-4.41,1.076-7.114l-0.76,0.505l-0.084-2.288l-1.218,1.938l-0.405-0.816
								c-0.725,2.703-5.129,2.365-2.627,6.699"/>
						</g>
						<g>
							<path fill="none" stroke="#000000" stroke-width="0.25" stroke-linejoin="round" stroke-miterlimit="10" d="M60.339,50.956
								l0.848-0.193l-0.291,0.863c1.014-0.585,2.105-0.34,3.127-0.209"/>
							<path fill="none" stroke="#000000" stroke-width="0.25" stroke-linejoin="round" stroke-miterlimit="10" d="M61.364,46.811
								c-0.398,0.95-0.73,2.021-1.744,2.605l0.893,0.179l-0.607,0.655"/>
							<path fill="none" stroke="#000000" stroke-width="0.25" stroke-linejoin="round" stroke-miterlimit="10" d="M75.142,44.998
								c0.396-0.95,0.731-2.018,1.744-2.603l-0.895-0.18l1.559-1.677l-2.232,0.509l0.293-0.863c-1.014,0.585-2.105,0.34-3.128,0.209
								"/>
							<path fill="none" stroke="#000000" stroke-width="0.25" stroke-linejoin="round" stroke-miterlimit="10" d="M69.159,52.795
								c0.95,0.396,2.019,0.73,2.604,1.744l0.18-0.894l1.677,1.558l-0.509-2.231l0.863,0.29c-0.585-1.013-0.34-2.105-0.209-3.128"/>
							<path fill="none" stroke="#000000" stroke-width="0.25" stroke-linejoin="round" stroke-miterlimit="10" d="M67.346,39.018
								c-0.95-0.398-2.019-0.732-2.603-1.745l-0.181,0.894l-1.676-1.558l0.509,2.231l-0.863-0.291
								c0.584,1.014,0.34,2.105,0.209,3.128"/>
						</g>
						<g>
							<g>
								
									<line fill="none" stroke="#000000" stroke-width="0.25" stroke-linecap="round" stroke-linejoin="round" stroke-miterlimit="10" x1="65.413" y1="45.144" x2="63.056" y2="44.512"/>
								
									<line fill="none" stroke="#000000" stroke-width="0.25" stroke-linecap="round" stroke-linejoin="round" stroke-miterlimit="10" x1="65.319" y1="45.698" x2="63.757" y2="45.59"/>
								
									<line fill="none" stroke="#000000" stroke-width="0.25" stroke-linecap="round" stroke-linejoin="round" stroke-miterlimit="10" x1="65.609" y1="44.615" x2="64.202" y2="43.93"/>
							</g>
							<g>
								
									<line fill="none" stroke="#000000" stroke-width="0.25" stroke-linecap="round" stroke-linejoin="round" stroke-miterlimit="10" x1="73.452" y1="47.299" x2="71.095" y2="46.667"/>
								
									<line fill="none" stroke="#000000" stroke-width="0.25" stroke-linecap="round" stroke-linejoin="round" stroke-miterlimit="10" x1="72.747" y1="46.219" x2="71.188" y2="46.109"/>
								
									<line fill="none" stroke="#000000" stroke-width="0.25" stroke-linecap="round" stroke-linejoin="round" stroke-miterlimit="10" x1="72.302" y1="47.88" x2="70.896" y2="47.195"/>
							</g>
							<g>
								
									<line fill="none" stroke="#000000" stroke-width="0.25" stroke-linecap="round" stroke-linejoin="round" stroke-miterlimit="10" x1="69.015" y1="43.063" x2="69.647" y2="40.707"/>
								
									<line fill="none" stroke="#000000" stroke-width="0.25" stroke-linecap="round" stroke-linejoin="round" stroke-miterlimit="10" x1="68.461" y1="42.971" x2="68.569" y2="41.408"/>
								
									<line fill="none" stroke="#000000" stroke-width="0.25" stroke-linecap="round" stroke-linejoin="round" stroke-miterlimit="10" x1="69.544" y1="43.262" x2="70.229" y2="41.854"/>
							</g>
							<g>
								
									<line fill="none" stroke="#000000" stroke-width="0.25" stroke-linecap="round" stroke-linejoin="round" stroke-miterlimit="10" x1="66.86" y1="51.104" x2="67.492" y2="48.746"/>
								
									<line fill="none" stroke="#000000" stroke-width="0.25" stroke-linecap="round" stroke-linejoin="round" stroke-miterlimit="10" x1="67.94" y1="50.398" x2="68.049" y2="48.84"/>
								
									<line fill="none" stroke="#000000" stroke-width="0.25" stroke-linecap="round" stroke-linejoin="round" stroke-miterlimit="10" x1="66.278" y1="49.954" x2="66.963" y2="48.549"/>
							</g>
						</g>
						<g>
							<g>
								
									<line fill="none" stroke="#000000" stroke-width="0.25" stroke-linecap="round" stroke-linejoin="round" stroke-miterlimit="10" x1="65.024" y1="47.769" x2="62.346" y2="49.314"/>
							</g>
							<g>
								
									<line fill="none" stroke="#000000" stroke-width="0.25" stroke-linecap="round" stroke-linejoin="round" stroke-miterlimit="10" x1="74.16" y1="42.495" x2="71.481" y2="44.043"/>
							</g>
							<g>
								
									<line fill="none" stroke="#000000" stroke-width="0.25" stroke-linecap="round" stroke-linejoin="round" stroke-miterlimit="10" x1="66.39" y1="42.676" x2="64.845" y2="39.999"/>
							</g>
							<g>
								
									<line fill="none" stroke="#000000" stroke-width="0.25" stroke-linecap="round" stroke-linejoin="round" stroke-miterlimit="10" x1="71.663" y1="51.812" x2="70.116" y2="49.134"/>
							</g>
						</g>
					</g>
					<g>
						<g>
							<path fill="none" stroke="#000000" stroke-width="0.25" stroke-linejoin="round" stroke-miterlimit="10" d="M38.278,48.451
								c-2.502,4.334,1.902,3.996,2.627,6.7l0.404-0.816l1.217,1.939l0.085-2.289l0.761,0.506c-0.725-2.705,3.26-4.612-1.074-7.115"
								/>
							<path fill="none" stroke="#000000" stroke-width="0.25" stroke-linejoin="round" stroke-miterlimit="10" d="M41.221,43.357
								c2.503-4.335-1.902-3.996-2.627-6.7l-0.404,0.815l-1.217-1.938l-0.085,2.288l-0.759-0.504
								c0.724,2.702-3.26,4.612,1.073,7.115"/>
							<path fill="none" stroke="#000000" stroke-width="0.25" stroke-linejoin="round" stroke-miterlimit="10" d="M42.298,47.376
								c4.334,2.503,3.994-1.903,6.699-2.627l-0.816-0.406l1.938-1.216l-2.287-0.086l0.505-0.757
								c-2.704,0.724-4.612-3.262-7.115,1.073"/>
							<path fill="none" stroke="#000000" stroke-width="0.25" stroke-linejoin="round" stroke-miterlimit="10" d="M37.202,44.434
								c-4.333-2.503-3.995,1.901-6.699,2.625l0.816,0.406l-1.939,1.217l2.288,0.085l-0.505,0.759
								c2.703-0.724,4.613,3.26,7.115-1.074"/>
						</g>
						<g>
							<path fill="none" stroke="#000000" stroke-width="0.25" stroke-linejoin="round" stroke-miterlimit="10" d="M48.081,50.232
								l-0.592-0.637l0.894-0.18c-1.014-0.586-1.347-1.654-1.745-2.604"/>
							<path fill="none" stroke="#000000" stroke-width="0.25" stroke-linejoin="round" stroke-miterlimit="10" d="M43.978,51.418
								c1.022-0.131,2.115-0.379,3.129,0.207l-0.291-0.862l0.871,0.198"/>
							<path fill="none" stroke="#000000" stroke-width="0.25" stroke-linejoin="round" stroke-miterlimit="10" d="M35.521,40.392
								c-1.021,0.132-2.114,0.375-3.127-0.209l0.292,0.864l-2.231-0.512l1.557,1.679l-0.895,0.179
								c1.014,0.585,1.348,1.653,1.746,2.604"/>
							<path fill="none" stroke="#000000" stroke-width="0.25" stroke-linejoin="round" stroke-miterlimit="10" d="M45.264,41.674
								c-0.132-1.021-0.376-2.113,0.208-3.126l-0.863,0.291l0.511-2.23l-1.679,1.556l-0.18-0.893
								c-0.584,1.013-1.653,1.348-2.604,1.744"/>
							<path fill="none" stroke="#000000" stroke-width="0.25" stroke-linejoin="round" stroke-miterlimit="10" d="M34.238,50.133
								c0.13,1.022,0.375,2.115-0.21,3.127l0.863-0.291l-0.51,2.23l1.678-1.557l0.179,0.894c0.587-1.013,1.654-1.347,2.604-1.745"/>
						</g>
						<g>
							<g>
								
									<line fill="none" stroke="#000000" stroke-width="0.25" stroke-linecap="round" stroke-linejoin="round" stroke-miterlimit="10" x1="40.51" y1="48.744" x2="41.142" y2="51.102"/>
								
									<line fill="none" stroke="#000000" stroke-width="0.25" stroke-linecap="round" stroke-linejoin="round" stroke-miterlimit="10" x1="41.037" y1="48.548" x2="41.725" y2="49.955"/>
								
									<line fill="none" stroke="#000000" stroke-width="0.25" stroke-linecap="round" stroke-linejoin="round" stroke-miterlimit="10" x1="39.954" y1="48.838" x2="40.063" y2="50.399"/>
							</g>
							<g>
								
									<line fill="none" stroke="#000000" stroke-width="0.25" stroke-linecap="round" stroke-linejoin="round" stroke-miterlimit="10" x1="38.357" y1="40.705" x2="38.988" y2="43.063"/>
								
									<line fill="none" stroke="#000000" stroke-width="0.25" stroke-linecap="round" stroke-linejoin="round" stroke-miterlimit="10" x1="37.774" y1="41.854" x2="38.46" y2="43.26"/>
								
									<line fill="none" stroke="#000000" stroke-width="0.25" stroke-linecap="round" stroke-linejoin="round" stroke-miterlimit="10" x1="39.436" y1="41.41" x2="39.546" y2="42.97"/>
							</g>
							<g>
								
									<line fill="none" stroke="#000000" stroke-width="0.25" stroke-linecap="round" stroke-linejoin="round" stroke-miterlimit="10" x1="36.908" y1="46.665" x2="34.551" y2="47.295"/>
								
									<line fill="none" stroke="#000000" stroke-width="0.25" stroke-linecap="round" stroke-linejoin="round" stroke-miterlimit="10" x1="37.104" y1="47.19" x2="35.697" y2="47.878"/>
								
									<line fill="none" stroke="#000000" stroke-width="0.25" stroke-linecap="round" stroke-linejoin="round" stroke-miterlimit="10" x1="36.815" y1="46.107" x2="35.253" y2="46.218"/>
							</g>
							<g>
								
									<line fill="none" stroke="#000000" stroke-width="0.25" stroke-linecap="round" stroke-linejoin="round" stroke-miterlimit="10" x1="44.948" y1="44.51" x2="42.591" y2="45.143"/>
								
									<line fill="none" stroke="#000000" stroke-width="0.25" stroke-linecap="round" stroke-linejoin="round" stroke-miterlimit="10" x1="43.797" y1="43.928" x2="42.394" y2="44.613"/>
								
									<line fill="none" stroke="#000000" stroke-width="0.25" stroke-linecap="round" stroke-linejoin="round" stroke-miterlimit="10" x1="44.243" y1="45.59" x2="42.685" y2="45.699"/>
							</g>
						</g>
						<g>
							<g>
								
									<line fill="none" stroke="#000000" stroke-width="0.25" stroke-linecap="round" stroke-linejoin="round" stroke-miterlimit="10" x1="42.978" y1="47.769" x2="45.655" y2="49.315"/>
							</g>
							<g>
								
									<line fill="none" stroke="#000000" stroke-width="0.25" stroke-linecap="round" stroke-linejoin="round" stroke-miterlimit="10" x1="33.843" y1="42.493" x2="36.522" y2="44.039"/>
							</g>
							<g>
								
									<line fill="none" stroke="#000000" stroke-width="0.25" stroke-linecap="round" stroke-linejoin="round" stroke-miterlimit="10" x1="37.884" y1="49.132" x2="36.338" y2="51.809"/>
							</g>
							<g>
								
									<line fill="none" stroke="#000000" stroke-width="0.25" stroke-linecap="round" stroke-linejoin="round" stroke-miterlimit="10" x1="43.16" y1="39.998" x2="41.614" y2="42.676"/>
							</g>
						</g>
					</g>
				</g>
				<g>
					<circle fill="#8A8A8A" stroke="#000000" stroke-width="0.25" stroke-miterlimit="10" cx="54.001" cy="70.589" r="2.944"/>
					<circle fill="#8A8A8A" stroke="#000000" stroke-width="0.25" stroke-miterlimit="10" cx="68.252" cy="45.905" r="2.944"/>
					<circle fill="#8A8A8A" stroke="#000000" stroke-width="0.25" stroke-miterlimit="10" cx="39.75" cy="45.904" r="2.944"/>
					<circle fill="#C3BF79" stroke="#000000" stroke-width="0.25" stroke-miterlimit="10" cx="54.001" cy="70.589" r="1.564"/>
					<circle fill="#C3BF79" stroke="#000000" stroke-width="0.25" stroke-miterlimit="10" cx="39.75" cy="45.905" r="1.564"/>
					<circle fill="#C3BF79" stroke="#000000" stroke-width="0.25" stroke-miterlimit="10" cx="68.252" cy="45.905" r="1.564"/>
				</g>
				<g>
					
						<circle fill="none" stroke="#000000" stroke-width="0.5" stroke-linecap="round" stroke-linejoin="round" stroke-miterlimit="10" cx="54.001" cy="54.133" r="7.031"/>
					
						<path fill="none" stroke="#000000" stroke-width="0.5" stroke-linecap="round" stroke-linejoin="round" stroke-miterlimit="10" d="
						M33.76,72.372c0.269-0.128,0.564-0.196,0.863-0.196c0.334,0,0.673,0.084,0.984,0.26l12.126,6.872
						c0.461,0.262,0.8,0.696,0.941,1.207s0.074,1.058-0.188,1.52l-2.925,5.16c2.789-0.649,5.705-0.989,8.685-1.012l0.297-0.001
						c2.875,0,5.693,0.295,8.402,0.881l-3.004-5.115c-0.56-0.952-0.241-2.177,0.711-2.737l12.014-7.064
						c0.318-0.187,0.667-0.276,1.012-0.276c0.686,0,1.353,0.353,1.726,0.986l3.012,5.115c0.657-2.169,1.532-4.311,2.596-6.4
						c-0.517,0.316-1.114,0.497-1.738,0.497c-0.582,0-1.157-0.154-1.662-0.446c-0.77-0.444-1.32-1.162-1.551-2.02
						c-0.23-0.859-0.112-1.757,0.333-2.527c0.594-1.026,1.698-1.663,2.884-1.663c0.582,0,1.157,0.154,1.662,0.446
						c1.073,0.619,1.655,1.751,1.647,2.909c1.307-2.134,2.772-4.122,4.406-5.921c0,0-5.942,0.045-5.947,0.045
						c-1.098,0-1.991-0.885-2-1.984l-0.111-13.937c-0.009-1.104,0.879-2.007,1.983-2.016l5.932-0.05
						c-1.951-2.085-3.704-4.44-5.222-7.015c-1.509-2.57-2.71-5.241-3.587-7.975l-2.93,5.161c-0.368,0.649-1.045,1.013-1.741,1.013
						c-0.334,0-0.673-0.084-0.984-0.261l-12.123-6.873c-0.961-0.544-1.298-1.765-0.754-2.726l2.923-5.16
						c-2.211,0.516-4.509,0.829-6.857,0.951c1.046,0.562,1.767,1.653,1.767,2.921c0,1.835-1.493,3.328-3.328,3.328
						s-3.328-1.493-3.328-3.328c0-1.24,0.689-2.311,1.698-2.884c-2.515-0.063-4.974-0.34-7.338-0.853l3.007,5.115
						c0.56,0.952,0.241,2.178-0.711,2.738l-12.007,7.06c-0.318,0.187-0.667,0.276-1.012,0.276c-0.686,0-1.353-0.353-1.726-0.986
						l-3.01-5.118c-0.831,2.743-1.995,5.44-3.467,8.031c-1.478,2.599-3.192,4.978-5.113,7.094c0,0,5.939-0.043,5.945-0.043
						c1.096,0,1.99,0.885,1.999,1.984l0.112,13.936c0.009,1.104-0.879,2.007-1.983,2.016l-5.935,0.049
						c1.557,1.664,2.978,3.5,4.257,5.471c-0.011-0.323,0.011-0.649,0.097-0.971c0.23-0.859,0.781-1.577,1.553-2.021
						c0.505-0.292,1.08-0.445,1.662-0.445c1.186,0,2.29,0.638,2.883,1.664c0.916,1.59,0.37,3.629-1.217,4.546
						c-0.507,0.292-1.082,0.447-1.666,0.447c-0.598,0-1.174-0.163-1.675-0.455c1.194,2.202,2.179,4.46,2.914,6.758l2.929-5.16
						C33.093,72.819,33.402,72.542,33.76,72.372"/>
				</g>
			</g>
			<g>
				<circle fill="#C3BF79" stroke="#000000" stroke-width="0.5" stroke-miterlimit="10" cx="54.013" cy="24.941" r="1.328"/>
				<circle fill="#C3BF79" stroke="#000000" stroke-width="0.5" stroke-miterlimit="10" cx="79.275" cy="68.74" r="1.328"/>
				<circle fill="#C3BF79" stroke="#000000" stroke-width="0.5" stroke-miterlimit="10" cx="28.715" cy="68.718" r="1.328"/>
			</g>
		</g>
		<g>
			<path fill="#C3BF79" d="M53.997,58.883c-0.814,0-1.622-0.214-2.336-0.619c-1.105-0.626-1.9-1.645-2.238-2.866
				s-0.18-2.501,0.446-3.604c0.844-1.487,2.431-2.411,4.142-2.411c0.814,0,1.622,0.213,2.335,0.617
				c2.272,1.292,3.075,4.197,1.788,6.476C57.29,57.961,55.705,58.883,53.997,58.883L53.997,58.883z"/>
			<path d="M54.011,49.633c0.771,0,1.536,0.202,2.211,0.584c2.153,1.224,2.913,3.977,1.695,6.135c-0.8,1.407-2.302,2.281-3.92,2.281
				c-0.771,0-1.536-0.203-2.212-0.586c-1.048-0.593-1.801-1.558-2.121-2.715c-0.32-1.157-0.17-2.37,0.422-3.414
				C50.886,50.508,52.39,49.633,54.011,49.633 M54.011,49.133c-1.743,0-3.438,0.913-4.359,2.538
				c-1.361,2.399-0.52,5.448,1.887,6.811c0.778,0.442,1.624,0.651,2.459,0.651c1.741,0,3.433-0.913,4.354-2.534
				c1.356-2.403,0.518-5.453-1.883-6.817C55.691,49.342,54.846,49.133,54.011,49.133L54.011,49.133z"/>
		</g>
	</g>
</g>
<g id="titulo" display="none">
</g>
<g id="screenshots" display="none">
</g>
<g id="fondo_negro" display="none">
</g>
<g id="imagenes" display="none">
</g>
<g id="graficas" display="none">
</g>
<g id="texto" display="none">
</g>
<g id="bienvenido" display="none">
</g>
<g id="landpage" display="none">
	<g id="movil_horiz" display="inline">
		<defs>
			<rect id="SVGID_12_" x="-3375.058" y="909.109" width="217.259" height="123.013"/>
		</defs>
		<clipPath id="SVGID_2_">
			<use xlink:href="#SVGID_12_"  overflow="visible"/>
		</clipPath>
	</g>
	<g id="movil_vert_copia" display="inline">
		<defs>
			<rect id="SVGID_16_" x="-3586.623" y="861.626" width="123.013" height="217.259"/>
		</defs>
		<clipPath id="SVGID_4_">
			<use xlink:href="#SVGID_16_"  overflow="visible"/>
		</clipPath>
	</g>
	<g id="tableta_horizontal" display="inline">
		<defs>
			<rect id="SVGID_20_" x="-4077.229" y="825.44" width="409.16" height="288.831"/>
		</defs>
		<clipPath id="SVGID_6_">
			<use xlink:href="#SVGID_20_"  overflow="visible"/>
		</clipPath>
	</g>
	<g id="tableta_vert" display="inline">
		<defs>
			<rect id="SVGID_28_" x="-4441.606" y="765.664" width="287.964" height="409.479"/>
		</defs>
		<clipPath id="SVGID_8_">
			<use xlink:href="#SVGID_28_"  overflow="visible"/>
		</clipPath>
	</g>
	<g id="escritorio_1_" display="inline">
		<defs>
			<rect id="ventana" x="-5536.594" y="726.266" width="1024.5" height="487.98"/>
		</defs>
		<clipPath id="ventana_1_">
			<use xlink:href="#ventana"  overflow="visible"/>
		</clipPath>
	</g>
</g>
<g id="bocetos" display="none">
</g>
<g id="notas" display="none">
</g>
</svg>
