<?xml version="1.0" encoding="utf-8"?>
<!-- Generator: Adobe Illustrator 16.0.0, SVG Export Plug-In . SVG Version: 6.00 Build 0)  -->
<!DOCTYPE svg PUBLIC "-//W3C//DTD SVG 1.1//EN" "http://www.w3.org/Graphics/SVG/1.1/DTD/svg11.dtd">
<svg version="1.1" id="Capa_1" xmlns="http://www.w3.org/2000/svg" xmlns:xlink="http://www.w3.org/1999/xlink" x="0px" y="0px"
	 width="108px" height="108px" viewBox="0 0 108 108" enable-background="new 0 0 108 108" xml:space="preserve">
<g id="exportaciones">
	<g>
		<g>
			<path id="gearpoly0_13_" fill="#3B82FF" stroke="#FFFFFF" stroke-width="0.5" stroke-miterlimit="10" d="M100.066,54.134
				c0.068,0,0.14-0.001,0.209-0.001c1.947-0.107,3.982-1.046,5.632-2.015l-0.113-1.962c-1.748-0.759-3.883-1.484-5.826-1.352h-0.016
				l-0.009,0.002l-0.184,0.021l-0.393-2.693c0.193-0.029,0.387-0.075,0.574-0.138c1.768-0.586,3.412-1.668,4.826-2.86l-0.451-1.913
				c-1.859-0.441-4.058-0.776-5.955-0.324l-0.019,0.004l-0.014,0.005c-0.063,0.018-0.125,0.036-0.188,0.055l-0.854-2.584
				c0.108-0.037,0.217-0.079,0.321-0.127c1.742-0.827,3.256-2.306,4.478-3.764l-0.776-1.806c-1.902-0.116-4.375-0.118-6.123,0.814
				L93.896,31.1l0.16-0.092l0.008-0.006l0.012-0.007c0.012-0.008,0.023-0.016,0.035-0.022l0.022-0.016l0.027-0.017l0.028-0.021
				l0.033-0.022c1.555-1.13,2.769-2.819,3.723-4.461l-1.079-1.643c-1.875,0.207-3.884,0.671-5.533,1.622
				c-0.125,0.073-0.242,0.154-0.354,0.243l-1.688-2.137c1.545-1.227,2.543-3.507,3.178-5.296l-1.348-1.432
				c-1.828,0.548-3.772,1.347-5.231,2.616c-0.037,0.034-0.074,0.068-0.109,0.104c-0.045,0.047-0.09,0.094-0.133,0.141l-2.033-1.811
				c1.311-1.483,1.885-3.89,2.209-5.768L84.245,11.9c-1.711,0.859-3.511,1.993-4.722,3.513c-0.061,0.082-0.119,0.167-0.174,0.255
				l-2.315-1.43c1.028-1.69,1.187-4.158,1.174-6.065L76.452,7.29c-1.533,1.133-3.238,2.628-4.091,4.383l-0.004,0.01l-0.071,0.167
				l-2.529-1.006l0.063-0.173l0.002-0.009l0.006-0.014c0.566-1.869,0.375-4.099,0.033-5.981l-1.883-0.563
				c-1.316,1.382-2.652,3.098-3.244,4.945l-0.008,0.027l-0.006,0.021C64.7,9.17,64.684,9.243,64.665,9.318l-2.664-0.552l0.031-0.181
				c0.256-1.937-0.343-4.129-1.003-5.92l-1.952-0.229c-1.048,1.599-2.291,3.727-2.354,5.711l-2.722-0.081V7.883l-0.002-0.011V7.857
				c-0.104-1.953-1.055-3.973-2.014-5.631L50.024,2.34c-0.773,1.747-1.404,3.79-1.359,5.726c0.002,0.033,0.004,0.066,0.006,0.101
				c0.008,0.068,0.016,0.138,0.023,0.206l-2.693,0.394c-0.012-0.075-0.025-0.149-0.041-0.223l-0.004-0.022
				c-0.475-1.892-1.719-3.691-2.953-5.155l-1.914,0.452c-0.447,1.85-0.875,4.292-0.26,6.171l-2.586,0.854
				c-0.023-0.063-0.047-0.13-0.071-0.194c-0.768-1.797-2.349-3.379-3.819-4.604l-1.805,0.778c-0.115,1.894-0.02,3.975,0.654,5.773
				c0.018,0.042,0.033,0.084,0.052,0.125l0.011,0.021l0.006,0.018l0.006,0.014l0.006,0.008l0.08,0.164l-2.396,1.292l-0.09-0.16
				l-0.007-0.01c-0.006-0.01-0.012-0.019-0.018-0.028c-1.078-1.629-2.891-2.899-4.551-3.854l-1.643,1.079
				c0.214,1.902,0.668,4.045,1.719,5.688l0.014,0.019l0.01,0.016c0.041,0.056,0.082,0.111,0.122,0.167l-2.136,1.688
				c-0.041-0.05-0.083-0.099-0.125-0.147l-0.009-0.011c-1.337-1.427-3.36-2.366-5.161-3.02l-1.432,1.349
				c0.544,1.835,1.36,3.894,2.694,5.318l0.015,0.014c0.049,0.049,0.1,0.097,0.15,0.143l-1.811,2.033l-0.141-0.117l-0.008-0.007
				c-0.008-0.007-0.018-0.014-0.025-0.021l-0.02-0.014c-1.562-1.151-3.699-1.732-5.574-2.051l-1.176,1.575
				c0.856,1.717,2.005,3.539,3.538,4.74c0.021,0.013,0.038,0.026,0.056,0.041c0.059,0.038,0.117,0.076,0.174,0.114l-1.43,2.316
				c-0.057-0.032-0.111-0.064-0.168-0.098c-1.752-0.885-3.973-1.081-5.897-1.077l-0.883,1.757c1.128,1.531,2.726,3.432,4.56,4.166
				l-1.006,2.53c-0.061-0.022-0.121-0.044-0.182-0.066c-0.047-0.016-0.096-0.029-0.145-0.043c-1.861-0.489-3.984-0.333-5.85,0.005
				L3.97,40.156c1.385,1.321,3.127,2.688,4.994,3.259c0.072,0.018,0.146,0.036,0.219,0.053l-0.551,2.666l-0.18-0.031l-0.01-0.002
				c-1.941-0.246-4.113,0.344-5.91,1.003l-0.229,1.953c1.592,1.053,3.563,2.13,5.501,2.343c0.069,0.005,0.14,0.009,0.208,0.013
				L7.93,54.135c-1.979-0.054-4.188,1.061-5.838,2.014l0.114,1.965c1.757,0.762,3.874,1.471,5.825,1.352
				c0.068-0.007,0.137-0.015,0.205-0.023l0.395,2.694c-0.075,0.013-0.148,0.025-0.223,0.039c-1.893,0.46-3.722,1.718-5.178,2.958
				l0.453,1.914c1.848,0.441,4.295,0.881,6.17,0.26l0.855,2.586c-1.879,0.633-3.572,2.424-4.799,3.89l0.778,1.806
				c1.913,0.121,4.144,0.055,5.938-0.722c0.061-0.031,0.123-0.063,0.186-0.093l1.291,2.396c-1.744,0.954-3.088,3.008-4.051,4.664
				l1.082,1.644c1.914-0.225,4.053-0.67,5.704-1.73l0.015-0.012c0.008-0.004,0.014-0.008,0.021-0.014l0.146-0.107l1.688,2.136
				l-0.141,0.117c-0.031,0.028-0.063,0.057-0.092,0.085c-1.371,1.369-2.297,3.299-2.945,5.094l1.348,1.432
				c1.82-0.545,3.741-1.34,5.203-2.59c0.043-0.039,0.086-0.08,0.131-0.121c0.047-0.05,0.094-0.1,0.141-0.148l2.033,1.811
				l-0.117,0.141c-0.008,0.012-0.018,0.022-0.027,0.033l-0.014,0.021c-1.152,1.567-1.721,3.694-2.051,5.573l1.575,1.176
				c1.718-0.85,3.595-2.021,4.771-3.579c0.006-0.009,0.014-0.019,0.02-0.026c0.035-0.055,0.07-0.107,0.105-0.162l2.316,1.432
				c-0.031,0.056-0.064,0.111-0.096,0.168l-0.008,0.013l-0.008,0.017c-0.012,0.024-0.025,0.05-0.037,0.074
				c-0.813,1.758-1.033,3.881-1.027,5.793l1.758,0.885c1.529-1.14,3.206-2.609,4.074-4.354c0.007-0.01,0.012-0.021,0.016-0.028
				l0.004-0.01l0.072-0.169l2.529,1.006l-0.063,0.173l-0.002,0.01l-0.006,0.014c-0.57,1.865-0.373,4.104-0.034,5.98l1.884,0.563
				c1.316-1.37,2.904-3.282,3.313-5.213l2.666,0.551c-0.012,0.063-0.021,0.127-0.033,0.19c-0.002,0.011-0.004,0.021-0.006,0.033
				c-0.213,1.946,0.352,4.068,1.008,5.877l1.953,0.229c1.047-1.603,2.049-3.479,2.332-5.403c0.002-0.02,0.004-0.039,0.008-0.059
				c0-0.014,0.002-0.027,0.004-0.042v-0.015c0.004-0.063,0.01-0.129,0.014-0.193l2.721,0.082c0,0.064,0,0.128,0,0.191
				c0.096,1.957,1.056,3.986,2.015,5.646l1.963-0.113c0.762-1.738,1.61-4.078,1.328-6.031l2.694-0.395
				c0.015,0.102,0.033,0.203,0.06,0.303c0.5,1.871,1.705,3.644,2.938,5.1l1.914-0.452c0.449-1.854,0.748-4.008,0.336-5.905
				c-0.006-0.027-0.014-0.055-0.02-0.081c-0.021-0.062-0.037-0.122-0.058-0.185l2.586-0.856c0.021,0.062,0.045,0.121,0.065,0.183
				c0.755,1.808,2.359,3.383,3.822,4.617l1.808-0.778c0.118-1.899,0.063-4.138-0.716-5.921l-0.008-0.016L74.721,95.5
				c-0.029-0.059-0.057-0.116-0.086-0.174l2.396-1.291c0.033,0.056,0.064,0.111,0.098,0.168l0.008,0.012l0.01,0.018
				c0.008,0.014,0.019,0.026,0.025,0.041c1.098,1.6,2.863,2.869,4.523,3.813l1.643-1.08c-0.217-1.895-0.672-3.949-1.666-5.605
				c-0.061-0.098-0.127-0.191-0.199-0.281l2.137-1.688c0.041,0.049,0.082,0.098,0.123,0.146c0.015,0.014,0.027,0.027,0.039,0.042
				c1.353,1.401,3.334,2.343,5.136,2.987l1.43-1.349c-0.545-1.838-1.36-3.89-2.694-5.317c-0.009-0.008-0.017-0.017-0.023-0.023
				l-0.008-0.008l-0.133-0.125l1.811-2.032l0.141,0.117c1.559,1.192,3.738,1.755,5.627,2.093l1.174-1.577
				c-0.842-1.71-2.022-3.627-3.594-4.78l-0.01-0.008c-0.055-0.035-0.109-0.07-0.162-0.106l1.43-2.316
				c1.685,1.036,4.164,1.183,6.064,1.177l0.883-1.758c-1.145-1.537-2.629-3.234-4.391-4.095l-0.168-0.072l1.004-2.528l0.174,0.063
				l0.01,0.002c1.861,0.586,4.117,0.376,5.994,0.039l0.564-1.884c-1.391-1.312-3.146-2.728-5.025-3.267l-0.012-0.002l-0.178-0.043
				l0.553-2.666l0.18,0.031c0.016,0.001,0.029,0.003,0.043,0.006c1.945,0.217,4.072-0.351,5.879-1.007l0.229-1.953
				c-1.585-1.055-3.736-2.292-5.712-2.356L100.066,54.134z"/>
		</g>
		<g>
			<g>
				<path fill="#3B82FF" d="M44.516,89.238c-0.676,0-1.23-0.551-1.237-1.229c-0.002-0.217,0.05-0.42,0.153-0.604l3.656-6.45
					l-12.561-7.119l-3.657,6.443c-0.107,0.181-0.258,0.332-0.445,0.441c-0.189,0.112-0.406,0.172-0.625,0.172
					c-0.436,0-0.845-0.234-1.067-0.61c-0.053-0.091-0.104-0.265-0.134-0.369c-0.849-2.96-2.104-5.863-3.741-8.656
					c-1.629-2.771-3.553-5.28-5.719-7.462c-0.112-0.113-0.23-0.234-0.277-0.314c-0.169-0.287-0.216-0.619-0.133-0.938
					s0.286-0.588,0.57-0.755c0.186-0.109,0.395-0.168,0.604-0.171l7.413-0.062L27.2,47.118l-7.406,0.054
					c-0.209,0-0.42-0.055-0.608-0.16c-0.589-0.336-0.798-1.094-0.463-1.688c0.052-0.09,0.186-0.231,0.258-0.307
					c2.136-2.213,4.021-4.752,5.619-7.563c1.588-2.795,2.8-5.716,3.602-8.681c0.05-0.173,0.094-0.324,0.137-0.401
					c0.22-0.386,0.633-0.625,1.078-0.625c0.212,0,0.422,0.056,0.608,0.161c0.189,0.106,0.341,0.253,0.45,0.437l3.758,6.389
					l12.438-7.313l-3.755-6.389c-0.104-0.181-0.16-0.392-0.163-0.608c-0.005-0.679,0.547-1.238,1.229-1.244
					c0.109,0,0.299,0.047,0.4,0.072c2.885,0.72,5.926,1.083,9.054,1.083l0.3-0.001c3.226-0.025,6.362-0.437,9.323-1.223
					c0.113-0.031,0.299-0.083,0.405-0.083c0.692,0,1.247,0.55,1.254,1.227c0,0.215-0.054,0.425-0.155,0.606l-3.651,6.448
					l12.558,7.12l3.659-6.444c0.106-0.184,0.261-0.339,0.442-0.446c0.188-0.11,0.404-0.169,0.623-0.169
					c0.438,0,0.849,0.234,1.068,0.611c0.051,0.084,0.102,0.254,0.131,0.356c0.857,2.983,2.113,5.885,3.746,8.667
					c1.639,2.78,3.563,5.29,5.721,7.462c0.187,0.18,0.254,0.275,0.279,0.316c0.168,0.285,0.215,0.619,0.131,0.939
					c-0.082,0.319-0.285,0.587-0.568,0.753c-0.189,0.11-0.396,0.169-0.602,0.169l-7.414,0.063L80.8,61.143l7.41-0.057
					c0.206,0.001,0.417,0.059,0.604,0.165c0.287,0.163,0.494,0.427,0.582,0.745s0.047,0.652-0.117,0.939
					c-0.057,0.102-0.213,0.26-0.272,0.32c-2.13,2.21-4.015,4.75-5.604,7.549c-1.588,2.805-2.799,5.728-3.6,8.686
					c-0.02,0.074-0.078,0.297-0.138,0.402c-0.218,0.383-0.629,0.623-1.074,0.623c-0.213,0-0.425-0.056-0.61-0.162
					c-0.184-0.101-0.338-0.252-0.447-0.437L73.77,73.53l-12.443,7.317l3.751,6.389c0.106,0.183,0.163,0.392,0.165,0.604
					c0.005,0.681-0.547,1.241-1.229,1.248c-0.107-0.001-0.302-0.049-0.406-0.075c-2.896-0.718-5.942-1.08-9.063-1.08H54.26
					c-3.215,0.024-6.351,0.436-9.319,1.219c-0.104,0.029-0.304,0.084-0.417,0.086H44.516L44.516,89.238z"/>
				<path fill="#FFFFFF" d="M63.479,18.778v0.5c0.539,0,0.982,0.439,0.987,0.975c0,0.174-0.042,0.343-0.122,0.485l-3.529,6.231
					l-0.246,0.435l0.435,0.247l12.123,6.873l0.437,0.246l0.246-0.434l3.532-6.222c0.086-0.149,0.209-0.273,0.354-0.358
					c0.15-0.089,0.322-0.135,0.496-0.135c0.352,0,0.678,0.187,0.856,0.492c0.033,0.054,0.084,0.229,0.116,0.336
					c0.852,2.96,2.113,5.882,3.759,8.683c1.647,2.797,3.586,5.324,5.765,7.518c0.178,0.171,0.227,0.248,0.233,0.26
					c0.136,0.228,0.172,0.495,0.104,0.75c-0.065,0.255-0.227,0.468-0.45,0.6c-0.152,0.089-0.318,0.136-0.482,0.136l-7.161,0.061
					l-0.5,0.004l0.004,0.5l0.111,13.938l0.004,0.5l0.5-0.004l7.154-0.056c0.167,0,0.335,0.046,0.486,0.132
					c0.229,0.129,0.394,0.34,0.463,0.594c0.07,0.254,0.037,0.521-0.096,0.754c-0.018,0.031-0.072,0.103-0.236,0.269
					c-2.143,2.224-4.038,4.78-5.639,7.599c-1.6,2.822-2.817,5.765-3.625,8.744c-0.059,0.221-0.094,0.31-0.111,0.342
					c-0.174,0.308-0.504,0.498-0.858,0.498c-0.17,0-0.338-0.043-0.489-0.131c-0.144-0.078-0.267-0.199-0.353-0.343l-3.636-6.174
					l-0.254-0.431l-0.43,0.252l-12.014,7.064l-0.432,0.253l0.254,0.431l3.623,6.172c0.084,0.146,0.131,0.312,0.132,0.48
					c0.004,0.545-0.437,0.991-0.972,0.997c-0.082,0-0.277-0.049-0.361-0.069c-2.907-0.722-5.975-1.086-9.114-1.086h-0.287
					c-3.235,0.025-6.392,0.438-9.393,1.23c-0.065,0.018-0.263,0.074-0.349,0.074c-0.539,0-0.982-0.44-0.987-0.98
					c-0.001-0.173,0.04-0.335,0.12-0.479l3.533-6.233l0.247-0.435l-0.435-0.247l-12.127-6.872l-0.434-0.246l-0.248,0.436
					l-3.527,6.217c-0.089,0.148-0.21,0.27-0.359,0.357c-0.152,0.09-0.324,0.137-0.499,0.137c-0.353,0-0.671-0.182-0.851-0.485
					c-0.038-0.063-0.089-0.238-0.119-0.341c-0.846-2.951-2.109-5.873-3.758-8.685c-1.639-2.788-3.576-5.315-5.752-7.506
					l-0.045-0.046c-0.05-0.051-0.167-0.17-0.2-0.229c-0.134-0.227-0.171-0.49-0.104-0.746c0.066-0.254,0.228-0.469,0.456-0.604
					c0.147-0.087,0.313-0.134,0.478-0.136l7.164-0.06l0.499-0.004l-0.004-0.5l-0.112-13.937l-0.004-0.5l-0.5,0.003l-7.152,0.052
					c-0.168,0-0.338-0.044-0.484-0.125c-0.473-0.27-0.639-0.875-0.372-1.348c0.036-0.064,0.171-0.205,0.235-0.272
					c2.137-2.213,4.034-4.77,5.642-7.598c1.599-2.814,2.819-5.754,3.622-8.724l0.024-0.084c0.021-0.072,0.063-0.223,0.093-0.273
					C28.731,28.191,29.059,28,29.414,28c0.17,0,0.338,0.044,0.488,0.129c0.149,0.084,0.27,0.201,0.355,0.344l3.631,6.175
					l0.254,0.431l0.432-0.253l12.006-7.06l0.432-0.253l-0.254-0.431l-3.625-6.168c-0.084-0.146-0.129-0.316-0.132-0.486
					c-0.004-0.543,0.437-0.989,0.977-0.995c0.081,0,0.265,0.045,0.357,0.068c2.89,0.721,5.95,1.086,9.099,1.086l0.302-0.001
					c3.247-0.026,6.403-0.44,9.401-1.236c0.068-0.019,0.252-0.069,0.334-0.069L63.479,18.778 M63.479,18.778
					c-0.004,0-0.008,0-0.013,0c-0.001,0-0.003,0-0.003,0c-0.146,0-0.355,0.059-0.472,0.091c-2.957,0.785-6.063,1.189-9.26,1.215
					c-0.1,0-0.198,0.001-0.298,0.001c-3.092,0-6.104-0.354-8.978-1.071c-0.119-0.029-0.33-0.083-0.479-0.083
					c-0.82,0.008-1.482,0.678-1.477,1.498c0.004,0.266,0.074,0.515,0.197,0.73l3.629,6.174l-12.007,7.06l-3.632-6.175
					c-0.129-0.216-0.311-0.396-0.542-0.526c-0.231-0.131-0.483-0.193-0.732-0.193c-0.518,0-1.02,0.27-1.294,0.752
					c-0.072,0.127-0.126,0.344-0.161,0.459c-0.798,2.95-1.999,5.844-3.578,8.623c-1.579,2.778-3.442,5.297-5.566,7.498
					c-0.083,0.087-0.239,0.247-0.311,0.372c-0.403,0.715-0.154,1.622,0.56,2.029c0.23,0.128,0.481,0.191,0.731,0.191l7.156-0.052
					l0.112,13.936l-7.164,0.061c-0.248,0.003-0.498,0.07-0.727,0.205c-0.708,0.414-0.945,1.326-0.528,2.033
					c0.073,0.127,0.233,0.28,0.316,0.367c2.157,2.172,4.061,4.655,5.681,7.411c1.616,2.759,2.865,5.628,3.708,8.568
					c0.034,0.116,0.093,0.329,0.168,0.457c0.278,0.471,0.773,0.733,1.282,0.733c0.256,0,0.515-0.066,0.752-0.207
					c0.229-0.136,0.409-0.319,0.536-0.533l3.533-6.227l12.126,6.872l-3.533,6.233c-0.121,0.216-0.188,0.463-0.186,0.729
					c0.008,0.818,0.673,1.477,1.487,1.477c0.003,0,0.006,0,0.009,0c0.148,0,0.363-0.062,0.479-0.094
					c2.957-0.781,6.063-1.187,9.258-1.211c0.095,0,0.188,0,0.283,0c3.098,0,6.115,0.357,8.994,1.07
					c0.117,0.029,0.332,0.084,0.479,0.085c0.818-0.009,1.48-0.677,1.475-1.5c-0.002-0.264-0.073-0.515-0.198-0.729l-3.625-6.172
					l12.015-7.064l3.635,6.174c0.127,0.212,0.309,0.398,0.539,0.526c0.231,0.131,0.484,0.194,0.732,0.194
					c0.52,0,1.021-0.271,1.294-0.752c0.07-0.128,0.129-0.342,0.16-0.459c0.799-2.951,2-5.844,3.576-8.627
					c1.577-2.779,3.44-5.294,5.563-7.496c0.086-0.088,0.242-0.246,0.313-0.373c0.405-0.716,0.153-1.621-0.56-2.024
					c-0.231-0.132-0.483-0.196-0.729-0.197l-7.16,0.056l-0.11-13.938l7.162-0.061c0.247,0,0.497-0.069,0.729-0.203
					c0.707-0.415,0.943-1.327,0.525-2.036c-0.074-0.125-0.229-0.28-0.316-0.365c-2.156-2.171-4.057-4.655-5.682-7.412
					c-1.617-2.756-2.865-5.63-3.709-8.567c-0.035-0.117-0.095-0.333-0.168-0.456c-0.277-0.472-0.774-0.734-1.285-0.734
					c-0.256,0-0.516,0.065-0.75,0.204c-0.229,0.135-0.408,0.323-0.533,0.538l-3.535,6.227l-12.123-6.873l3.529-6.231
					c0.121-0.216,0.188-0.466,0.188-0.731C64.958,19.437,64.293,18.778,63.479,18.778L63.479,18.778z"/>
			</g>
			<g>
				<circle fill="#3B82FF" stroke="#FFFFFF" stroke-width="0.5" stroke-miterlimit="10" cx="54.013" cy="24.941" r="1.328"/>
				<circle fill="#3B82FF" stroke="#FFFFFF" stroke-width="0.5" stroke-miterlimit="10" cx="79.275" cy="68.74" r="1.328"/>
				<circle fill="#3B82FF" stroke="#FFFFFF" stroke-width="0.5" stroke-miterlimit="10" cx="28.715" cy="68.718" r="1.328"/>
			</g>
		</g>
		<g>
			<path fill="#3B82FF" d="M53.997,58.883c-0.814,0-1.622-0.214-2.336-0.619c-1.105-0.625-1.9-1.645-2.238-2.865
				c-0.338-1.222-0.18-2.501,0.446-3.604c0.844-1.487,2.431-2.411,4.142-2.411c0.814,0,1.622,0.213,2.334,0.617
				c2.272,1.292,3.075,4.197,1.788,6.477C57.29,57.961,55.705,58.883,53.997,58.883L53.997,58.883z"/>
			<path fill="#FFFFFF" d="M54.011,49.633c0.771,0,1.536,0.202,2.211,0.584c2.152,1.224,2.912,3.977,1.694,6.135
				c-0.8,1.407-2.302,2.281-3.92,2.281c-0.771,0-1.536-0.203-2.212-0.586c-1.048-0.593-1.801-1.558-2.121-2.715
				s-0.17-2.37,0.422-3.414C50.886,50.508,52.39,49.633,54.011,49.633 M54.011,49.133c-1.743,0-3.438,0.913-4.359,2.538
				c-1.361,2.399-0.52,5.448,1.887,6.812c0.778,0.441,1.624,0.65,2.459,0.65c1.74,0,3.434-0.913,4.354-2.533
				c1.356-2.404,0.519-5.454-1.883-6.817C55.691,49.342,54.846,49.133,54.011,49.133L54.011,49.133z"/>
		</g>
	</g>
</g>
<g id="titulo" display="none">
</g>
<g id="screenshots" display="none">
</g>
<g id="fondo_negro" display="none">
</g>
<g id="imagenes" display="none">
</g>
<g id="graficas" display="none">
</g>
<g id="texto" display="none">
</g>
<g id="bienvenido" display="none">
</g>
<g id="bocetos" display="none">
</g>
<g id="notas" display="none">
</g>
</svg>
