<?xml version="1.0" encoding="utf-8"?>
<!-- Generator: Adobe Illustrator 16.0.0, SVG Export Plug-In . SVG Version: 6.00 Build 0)  -->
<!DOCTYPE svg PUBLIC "-//W3C//DTD SVG 1.1//EN" "http://www.w3.org/Graphics/SVG/1.1/DTD/svg11.dtd">
<svg version="1.1" xmlns="http://www.w3.org/2000/svg" xmlns:xlink="http://www.w3.org/1999/xlink" x="0px" y="0px" width="58px"
	 height="58px" viewBox="0 0 58 58" enable-background="new 0 0 58 58" xml:space="preserve">
<g id="exportaciones">
	<g>
		<g>
			<circle fill="#C3BF79" stroke="#000000" stroke-width="0.5" stroke-miterlimit="10" cx="29.003" cy="29" r="11.25"/>
			<g>
				<circle fill="none" stroke="#000000" stroke-width="0.5" stroke-miterlimit="10" cx="25.784" cy="36.963" r="0.911"/>
				<circle fill="none" stroke="#000000" stroke-width="0.5" stroke-miterlimit="10" cx="37.51" cy="27.806" r="0.911"/>
				<circle fill="none" stroke="#000000" stroke-width="0.5" stroke-miterlimit="10" cx="23.716" cy="22.23" r="0.911"/>
			</g>
			<path fill="none" stroke="#000000" stroke-width="0.5" stroke-miterlimit="10" d="M26.328,20.194
				c0.541,0.69,0.782,1.558,0.675,2.437s-0.551,1.664-1.25,2.208c-0.923,0.726-2.181,0.903-3.278,0.46
				c-0.537-0.217-1.01-0.573-1.368-1.03c-0.119-0.153-0.214-0.316-0.304-0.482c-0.311,0.491-0.589,1.013-0.814,1.571
				c-1.583,3.918-0.421,8.256,2.567,10.908c0.04-0.182,0.086-0.363,0.158-0.543c0.684-1.691,2.618-2.513,4.311-1.829
				c1.693,0.685,2.514,2.618,1.83,4.311c-0.072,0.179-0.165,0.342-0.263,0.501c3.994,0.168,7.843-2.145,9.426-6.063
				c0.225-0.557,0.386-1.122,0.503-1.69c-0.179,0.058-0.361,0.107-0.552,0.134c-0.572,0.081-1.16,0.009-1.699-0.209
				c-1.095-0.442-1.875-1.442-2.039-2.61c-0.123-0.872,0.102-1.744,0.634-2.451s1.308-1.164,2.185-1.288
				c0.189-0.025,0.379-0.029,0.566-0.024c-1.031-1.979-2.74-3.616-4.971-4.517c-2.229-0.9-4.594-0.91-6.709-0.205
				C26.076,19.908,26.211,20.043,26.328,20.194z"/>
		</g>
		<g>
			<g>
				<path fill="#C3BF79" stroke="#000000" stroke-width="0.5" stroke-miterlimit="10" d="M11.215,33.51L23.5,31.783
					c0.339,0.673,0.807,1.279,1.375,1.795l-1.049,2.595c-0.436,1.079,0.088,2.313,1.167,2.749c1.079,0.436,2.313-0.088,2.749-1.167
					l0.002,0.001l1.048-2.596c0.767,0.024,1.524-0.087,2.235-0.335l7.639,9.776l3.146-2.442l-7.644-9.782
					c0.217-0.33,0.405-0.686,0.559-1.064c0.137-0.338,0.235-0.682,0.309-1.026l2.768-0.39l0,0c0.559-0.078,1.053-0.369,1.393-0.82
					c0.34-0.449,0.483-1.005,0.405-1.564c-0.105-0.744-0.604-1.382-1.302-1.664c-0.342-0.138-0.717-0.184-1.082-0.133
					c-0.001,0-0.002,0-0.002,0v-0.002l-2.785,0.392c-0.354-0.662-0.813-1.271-1.394-1.772l4.653-11.516l-3.693-1.492l-4.652,11.517
					c-0.766-0.042-1.518,0.075-2.232,0.306l-1.73-2.217l-0.001,0.001c-0.228-0.292-0.529-0.52-0.872-0.658
					c-0.697-0.282-1.498-0.17-2.095,0.295c-0.913,0.718-1.075,2.046-0.36,2.962l-0.003,0.003l1.72,2.202
					c-0.186,0.299-0.354,0.615-0.49,0.953c-0.152,0.379-0.264,0.766-0.338,1.152l-12.294,1.729L11.215,33.51z"/>
			</g>
			<g>
				<circle fill="none" stroke="#000000" stroke-width="0.5" stroke-miterlimit="10" cx="25.784" cy="36.963" r="0.911"/>
				<circle fill="none" stroke="#000000" stroke-width="0.5" stroke-miterlimit="10" cx="37.51" cy="27.806" r="0.911"/>
				<circle fill="none" stroke="#000000" stroke-width="0.5" stroke-miterlimit="10" cx="23.716" cy="22.23" r="0.911"/>
			</g>
			<path fill="#C3BF79" stroke="#000000" stroke-width="0.5" stroke-miterlimit="10" d="M54.952,34.073
				c-0.331-0.27-0.676-0.529-1.038-0.761c-0.648-0.408-1.34-0.786-2.106-0.9c-0.478-0.072-0.957-0.143-1.435-0.215L50.607,29
				c0.846,0,1.699,0.078,2.518-0.154c0.818-0.234,1.603-0.6,2.325-1.044c0.351-0.216,0.737-0.421,1.011-0.73l-0.165-1.653
				c-0.336-0.253-0.775-0.391-1.173-0.526c-0.407-0.141-0.814-0.269-1.236-0.36c-0.748-0.163-1.529-0.28-2.289-0.127
				c-0.472,0.097-0.948,0.193-1.421,0.29l-0.869-3.086c0.79-0.288,1.624-0.505,2.308-1.006c0.688-0.499,1.301-1.109,1.832-1.774
				c0.256-0.322,0.548-0.648,0.698-1.032l-0.724-1.497c-0.398-0.124-0.858-0.103-1.279-0.096c-0.428,0.008-0.858,0.028-1.283,0.085
				c-0.762,0.104-1.534,0.26-2.194,0.664c-0.413,0.253-0.823,0.508-1.238,0.759l-1.873-2.603c0.646-0.54,1.353-1.028,1.828-1.735
				c0.476-0.703,0.843-1.487,1.109-2.292c0.132-0.392,0.295-0.799,0.307-1.212L47.609,8.71c-0.424,0.023-0.847,0.198-1.24,0.349
				c-0.396,0.156-0.796,0.32-1.176,0.521c-0.68,0.357-1.353,0.768-1.832,1.374c-0.305,0.377-0.605,0.757-0.906,1.136l-2.65-1.805
				c0.421-0.729,0.919-1.429,1.122-2.256c0.206-0.823,0.285-1.686,0.261-2.534c-0.011-0.412,0.004-0.85-0.129-1.243l-1.514-0.682
				c-0.387,0.165-0.723,0.477-1.043,0.752c-0.32,0.282-0.637,0.574-0.929,0.891c-0.515,0.567-1.006,1.185-1.251,1.919
				c-0.155,0.458-0.309,0.918-0.463,1.377l-3.107-0.792c0.146-0.826,0.372-1.656,0.285-2.502c-0.091-0.845-0.311-1.682-0.625-2.472
				c-0.149-0.382-0.286-0.799-0.542-1.121l-1.657-0.124c-0.31,0.287-0.52,0.694-0.724,1.063c-0.206,0.376-0.403,0.758-0.567,1.153
				c-0.293,0.711-0.544,1.458-0.523,2.233c0.014,0.482,0.025,0.966,0.039,1.45l-3.192,0.32c-0.145-0.827-0.215-1.685-0.588-2.449
				s-0.866-1.474-1.431-2.108c-0.271-0.31-0.542-0.654-0.894-0.87L20.732,2.74c-0.19,0.376-0.251,0.831-0.316,1.245
				c-0.066,0.425-0.121,0.852-0.14,1.28c-0.027,0.768-0.01,1.554,0.272,2.275c0.18,0.449,0.355,0.899,0.531,1.349l-2.885,1.394
				c-0.421-0.728-0.779-1.508-1.395-2.1c-0.607-0.59-1.317-1.089-2.066-1.493c-0.357-0.195-0.733-0.428-1.136-0.51l-1.35,0.972
				c-0.05,0.415,0.049,0.865,0.132,1.277c0.082,0.42,0.174,0.841,0.305,1.25c0.234,0.731,0.523,1.465,1.035,2.045
				c0.322,0.362,0.641,0.725,0.961,1.086l-2.236,2.299c-0.646-0.541-1.248-1.153-2.025-1.499c-0.776-0.346-1.612-0.571-2.452-0.696
				c-0.407-0.06-0.835-0.151-1.246-0.089l-0.934,1.371c0.094,0.412,0.342,0.798,0.557,1.157c0.226,0.369,0.457,0.731,0.719,1.071
				c0.47,0.605,0.991,1.197,1.671,1.567c0.424,0.229,0.85,0.462,1.274,0.693l-1.315,2.922c-0.791-0.287-1.566-0.655-2.417-0.715
				c-0.847-0.059-1.71,0.015-2.542,0.186c-0.402,0.083-0.836,0.144-1.199,0.34l-0.411,1.61c0.231,0.354,0.594,0.634,0.921,0.897
				c0.333,0.271,0.676,0.53,1.04,0.761c0.647,0.41,1.339,0.784,2.104,0.9c0.48,0.071,0.958,0.145,1.437,0.215L7.39,29
				c-0.843,0-1.697-0.081-2.517,0.155c-0.816,0.232-1.602,0.598-2.325,1.042c-0.353,0.215-0.737,0.421-1.009,0.731l0.164,1.652
				c0.335,0.254,0.775,0.392,1.172,0.527c0.407,0.139,0.815,0.268,1.234,0.358c0.752,0.163,1.531,0.281,2.291,0.127
				c0.473-0.096,0.946-0.193,1.422-0.289l0.871,3.087c-0.791,0.286-1.623,0.505-2.312,1.004c-0.687,0.5-1.302,1.11-1.829,1.776
				c-0.255,0.321-0.549,0.648-0.697,1.032l0.719,1.497c0.402,0.122,0.86,0.101,1.279,0.094c0.431-0.007,0.863-0.026,1.287-0.084
				c0.762-0.104,1.53-0.261,2.193-0.665c0.412-0.252,0.823-0.506,1.238-0.757l1.873,2.603c-0.646,0.54-1.35,1.028-1.829,1.734
				c-0.475,0.706-0.841,1.486-1.109,2.292c-0.13,0.391-0.294,0.798-0.304,1.212l1.189,1.158c0.42-0.022,0.843-0.199,1.234-0.349
				c0.402-0.155,0.798-0.319,1.181-0.52c0.681-0.356,1.351-0.768,1.833-1.375c0.3-0.378,0.602-0.757,0.903-1.133l2.65,1.803
				c-0.421,0.729-0.918,1.43-1.123,2.255c-0.207,0.824-0.284,1.688-0.261,2.535c0.012,0.412-0.003,0.851,0.129,1.241l1.514,0.683
				c0.388-0.163,0.727-0.475,1.043-0.75c0.323-0.283,0.641-0.573,0.929-0.892c0.515-0.568,1.009-1.184,1.255-1.919
				c0.151-0.457,0.305-0.917,0.46-1.376l3.106,0.789c-0.146,0.829-0.374,1.658-0.284,2.503c0.088,0.846,0.312,1.682,0.625,2.472
				c0.148,0.383,0.283,0.801,0.544,1.123l1.655,0.124c0.309-0.286,0.519-0.695,0.724-1.062c0.207-0.377,0.405-0.76,0.566-1.157
				c0.293-0.708,0.545-1.455,0.523-2.229c-0.014-0.484-0.026-0.967-0.038-1.452l3.19-0.321c0.146,0.829,0.216,1.686,0.589,2.451
				c0.374,0.763,0.868,1.473,1.434,2.109c0.27,0.307,0.54,0.652,0.894,0.868l1.597-0.449c0.192-0.377,0.253-0.833,0.317-1.248
				c0.068-0.424,0.123-0.852,0.139-1.279c0.031-0.767,0.012-1.554-0.271-2.275c-0.18-0.45-0.356-0.899-0.534-1.35l2.889-1.394
				c0.421,0.729,0.779,1.51,1.392,2.102c0.613,0.59,1.319,1.087,2.066,1.492c0.362,0.195,0.733,0.428,1.14,0.51l1.349-0.971
				c0.053-0.418-0.052-0.866-0.132-1.277c-0.079-0.422-0.174-0.842-0.306-1.251c-0.233-0.73-0.522-1.465-1.036-2.045
				c-0.32-0.362-0.64-0.725-0.96-1.087l2.238-2.296c0.645,0.54,1.249,1.15,2.025,1.498c0.774,0.344,1.61,0.569,2.453,0.694
				c0.405,0.061,0.835,0.152,1.244,0.091l0.933-1.374c-0.094-0.409-0.34-0.797-0.558-1.157c-0.221-0.366-0.453-0.729-0.717-1.07
				c-0.47-0.606-0.988-1.196-1.673-1.565c-0.423-0.232-0.848-0.463-1.274-0.693l1.319-2.924c0.79,0.287,1.564,0.656,2.414,0.714
				c0.85,0.061,1.711-0.013,2.544-0.184c0.404-0.083,0.837-0.143,1.201-0.341l0.408-1.61C55.644,34.616,55.278,34.339,54.952,34.073
				z M12.804,22.45C16.418,13.503,26.6,9.18,35.549,12.796c8.947,3.613,13.272,13.8,9.656,22.748
				c-3.616,8.951-13.8,13.273-22.747,9.657C13.51,41.585,9.188,31.401,12.804,22.45z"/>
			<circle fill="none" stroke="#000000" stroke-width="0.5" stroke-miterlimit="10" cx="29.003" cy="29" r="4.737"/>
			<path fill="none" stroke="#000000" stroke-width="0.5" stroke-miterlimit="10" d="M11.172,21.79
				c3.977-9.849,15.186-14.606,25.035-10.626c9.848,3.977,14.609,15.189,10.629,25.038c-3.98,9.853-15.189,14.61-25.037,10.63
				C11.949,42.852,7.191,31.643,11.172,21.79z"/>
		</g>
		<circle fill="none" stroke="#000000" stroke-width="0.5" stroke-miterlimit="10" cx="29.003" cy="29" r="2.942"/>
	</g>
</g>
<g id="titulo" display="none">
</g>
<g id="screenshots" display="none">
</g>
<g id="fondo_negro" display="none">
</g>
<g id="imagenes" display="none">
</g>
<g id="graficas" display="none">
</g>
<g id="texto" display="none">
</g>
<g id="bienvenido" display="none">
</g>
<g id="landpage" display="none">
	<g id="movil_horiz" display="inline">
		<defs>
			<rect id="SVGID_12_" x="-3504.265" y="746.109" width="217.259" height="123.013"/>
		</defs>
		<clipPath id="SVGID_2_">
			<use xlink:href="#SVGID_12_"  overflow="visible"/>
		</clipPath>
	</g>
	<g id="movil_vert_copia" display="inline">
		<defs>
			<rect id="SVGID_16_" x="-3715.83" y="698.626" width="123.013" height="217.259"/>
		</defs>
		<clipPath id="SVGID_4_">
			<use xlink:href="#SVGID_16_"  overflow="visible"/>
		</clipPath>
	</g>
	<g id="tableta_horizontal" display="inline">
		<defs>
			<rect id="SVGID_20_" x="-4206.437" y="662.44" width="409.16" height="288.831"/>
		</defs>
		<clipPath id="SVGID_6_">
			<use xlink:href="#SVGID_20_"  overflow="visible"/>
		</clipPath>
	</g>
	<g id="tableta_vert" display="inline">
		<defs>
			<rect id="SVGID_28_" x="-4570.813" y="602.664" width="287.964" height="409.479"/>
		</defs>
		<clipPath id="SVGID_8_">
			<use xlink:href="#SVGID_28_"  overflow="visible"/>
		</clipPath>
	</g>
	<g id="escritorio_1_" display="inline">
		<defs>
			<rect id="ventana" x="-5665.801" y="563.266" width="1024.5" height="487.98"/>
		</defs>
		<clipPath id="ventana_1_">
			<use xlink:href="#ventana"  overflow="visible"/>
		</clipPath>
	</g>
</g>
<g id="bocetos" display="none">
</g>
<g id="notas" display="none">
</g>
</svg>
