<?xml version="1.0" encoding="utf-8"?>
<!-- Generator: Adobe Illustrator 16.0.0, SVG Export Plug-In . SVG Version: 6.00 Build 0)  -->
<!DOCTYPE svg PUBLIC "-//W3C//DTD SVG 1.1//EN" "http://www.w3.org/Graphics/SVG/1.1/DTD/svg11.dtd">
<svg version="1.1" xmlns="http://www.w3.org/2000/svg" xmlns:xlink="http://www.w3.org/1999/xlink" x="0px" y="0px" width="77px"
	 height="91px" viewBox="0 0 77 91" enable-background="new 0 0 77 91" xml:space="preserve">
<g id="exportaciones">
	<g>
		<line fill="none" x1="33.191" y1="0.863" x2="44.062" y2="0.863"/>
		<g>
			<g>
				<path fill="#8A8A8A" stroke="#000000" stroke-width="0.5" stroke-miterlimit="10" d="M38.506,90.181
					c-2.376,0-4.058-0.468-4.719-1.248c-0.359-0.427,1.281-7.458-4.469-11.564c-3.723-2.661-7.701-1.655-10.783,0.357l-0.002-0.001
					C7.784,71.041,0.631,59.124,0.631,45.536c0-20.919,16.958-37.876,37.875-37.876c20.919,0,37.879,16.958,37.879,37.876
					c0,13.589-7.105,25.506-17.854,32.189l-0.051,0c-3.082-2.012-7.061-3.018-10.785-0.357c-5.752,4.106-4.106,11.137-4.47,11.564
					C42.566,89.713,40.883,90.181,38.506,90.181 M38.516,28.53c-9.396,0-17.014,7.618-17.014,17.014s7.618,17.014,17.014,17.014
					c9.397,0,17.016-7.618,17.016-17.014S47.913,28.53,38.516,28.53z"/>
				<g display="none">
					<path display="inline" fill="none" stroke="#4C4C4C" stroke-width="0.5" stroke-miterlimit="10" d="M2.551,44.16
						c1.137,6.168,7.959,7.936,10.381,5.591c4.808-4.655-5.038-7.309-0.52-12.417c2.232-2.523,6.176-2.571,8.729,0.491"/>
					<path display="inline" fill="none" stroke="#4C4C4C" stroke-width="0.5" stroke-miterlimit="10" d="M19.781,14.945
						c4.863-1.065,9.639-0.189,9.639,3.074c0,6.59-7.752,2.195-7.752,7.847c0,4.205,5.792,3.567,7.363,3.225"/>
					<path display="inline" fill="none" stroke="#4C4C4C" stroke-width="0.5" stroke-miterlimit="10" d="M34.594,80.829
						c5.928,0.921,7.477-3.868,5.928-6.859c-1.686-3.256-11.365,0.678-11.73-4.759c-0.242-3.574,1.994-4.816,3.82-5.599"/>
					<path display="inline" fill="none" stroke="#4C4C4C" stroke-width="0.5" stroke-miterlimit="10" d="M6.457,61.72
						c2.355-5.892,6.773-2.806,10.002-0.161s5.379,10.146-1.01,11.521"/>
					<path display="inline" fill="none" stroke="#4C4C4C" stroke-width="0.5" stroke-miterlimit="10" d="M50.518,73.972
						c-3.477-1.023-4.932-4.023-2.988-7.261c3.912-6.516,10.205,2.188,16.451-3.001c3.912-3.25,2.082-9.386,0.916-13.419
						c-1.432-4.951,3.242-5.525,1.703-10.432c-1.537-4.906-7.572-3.392-10.186-0.726"/>
					<path display="inline" fill="none" stroke="#4C4C4C" stroke-width="0.5" stroke-miterlimit="10" d="M49.865,30.329
						c4.412,2.291,10.484,1.196,9.498-3.883c-1.068-5.495-10.787-0.813-11.076-6.697s5.586-5.52,9.424-4.5"/>
					<path display="inline" fill="none" stroke="#4C4C4C" stroke-width="0.5" stroke-miterlimit="10" d="M19.502,66.902
						c0.383-4.792,4.811-4.61,6.68-5.86C26.279,65.164,23.688,68.725,19.502,66.902z"/>
					<path display="inline" fill="none" stroke="#4C4C4C" stroke-width="0.5" stroke-miterlimit="10" d="M11.857,58.794
						c2.658,4.004-0.936,6.597-1.631,8.735C7.602,64.35,7.439,59.948,11.857,58.794z"/>
					<path display="inline" fill="none" stroke="#4C4C4C" stroke-width="0.5" stroke-miterlimit="10" d="M17.761,63.094
						c0.294,3.173-2.619,3.559-3.696,4.588C13.529,65.001,14.819,62.38,17.761,63.094z"/>
					<path display="inline" fill="none" stroke="#4C4C4C" stroke-width="0.5" stroke-miterlimit="10" d="M17.969,71.849
						c-2.666,1.746-4.371-0.647-5.786-1.117C14.303,69.004,17.223,68.914,17.969,71.849z"/>
					<path display="inline" fill="none" stroke="#4C4C4C" stroke-width="0.5" stroke-miterlimit="10" d="M19.68,70.09
						c2.605-2.229,4.752,0.092,6.326,0.4C23.98,72.623,20.877,73.118,19.68,70.09z"/>
					<path display="inline" fill="none" stroke="#4C4C4C" stroke-width="0.5" stroke-miterlimit="10" d="M29.773,65.397
						c-3.154-1.346-2.027-4.299-2.449-5.846C30.135,60.418,31.955,62.981,29.773,65.397z"/>
					<path display="inline" fill="none" stroke="#4C4C4C" stroke-width="0.5" stroke-miterlimit="10" d="M28.709,68.2
						c-1.613,1.743-3.277,0.318-4.385,0.232C25.546,66.801,27.643,66.212,28.709,68.2z"/>
					<path display="inline" fill="none" stroke="#4C4C4C" stroke-width="0.5" stroke-miterlimit="10" d="M30.036,71.391
						c0.571,4.861-2.759,5.268-3.927,6.771C25.297,74.035,26.594,70.114,30.036,71.391z"/>
					<path display="inline" fill="none" stroke="#4C4C4C" stroke-width="0.5" stroke-miterlimit="10" d="M17.066,71.995
						c4.951,0.001,5.127,4.565,6.564,6.381C19.404,78.815,15.533,76.444,17.066,71.995z"/>
					<path display="inline" fill="none" stroke="#4C4C4C" stroke-width="0.5" stroke-miterlimit="10" d="M17.176,62.356
						c-0.72-2.761,1.798-3.522,2.602-4.589C20.637,60.059,19.877,62.561,17.176,62.356z"/>
					<path display="inline" fill="none" stroke="#4C4C4C" stroke-width="0.5" stroke-miterlimit="10" d="M9.088,50.748
						c2.477,1.872,0.843,4.219,0.877,5.671C7.686,55.043,6.645,52.396,9.088,50.748z"/>
					<path display="inline" fill="none" stroke="#4C4C4C" stroke-width="0.5" stroke-miterlimit="10" d="M14.887,60.125
						c-4.063-2.569-1.842-6.403-2.081-8.64C16.501,53.316,18.448,57.267,14.887,60.125z"/>
					<path display="inline" fill="none" stroke="#4C4C4C" stroke-width="0.5" stroke-miterlimit="10" d="M7.537,60.434
						c-4.809-0.104-4.883-4.535-6.242-6.327C5.404,53.769,9.112,56.148,7.537,60.434z"/>
				</g>
				<g>
					<path fill="none" stroke="#4C4C4C" stroke-width="0.25" stroke-miterlimit="10" d="M35.775,65.99
						c-0.213-0.417-0.333-0.89-0.333-1.391"/>
					<path fill="none" stroke="#4C4C4C" stroke-width="0.25" stroke-miterlimit="10" d="M41.59,64.599
						c0,0.536-0.137,1.04-0.377,1.479"/>
					<path fill="none" stroke="#4C4C4C" stroke-width="0.25" stroke-miterlimit="10" d="M29.117,28.729
						c-0.18-0.498-0.224-1.012-0.15-1.501"/>
					<path fill="none" stroke="#4C4C4C" stroke-width="0.25" stroke-miterlimit="10" d="M43.025,65.783
						c-0.389-0.333-0.699-0.766-0.887-1.28"/>
					<path fill="none" stroke="#4C4C4C" stroke-width="0.25" stroke-miterlimit="10" d="M47.916,62.4
						c0.182,0.499,0.227,1.015,0.152,1.506"/>
					<path fill="none" stroke="#4C4C4C" stroke-width="0.25" stroke-miterlimit="10" d="M27.396,28.117
						c0.467,0.182,0.896,0.479,1.241,0.891"/>
					<path fill="none" stroke="#4C4C4C" stroke-width="0.25" stroke-miterlimit="10" d="M23.928,32.959
						c-0.322-0.385-0.535-0.826-0.641-1.284"/>
					<path fill="none" stroke="#4C4C4C" stroke-width="0.25" stroke-miterlimit="10" d="M49.625,63.005
						c-0.463-0.182-0.886-0.478-1.227-0.883"/>
					<path fill="none" stroke="#4C4C4C" stroke-width="0.25" stroke-miterlimit="10" d="M22.215,32.978
						c0.464,0.027,0.928,0.16,1.356,0.407"/>
					<path fill="none" stroke="#4C4C4C" stroke-width="0.25" stroke-miterlimit="10" d="M20.497,38.709
						c-0.456-0.264-0.819-0.627-1.079-1.046"/>
					<path fill="none" stroke="#4C4C4C" stroke-width="0.25" stroke-miterlimit="10" d="M18.824,39.334
						c0.464-0.151,0.969-0.193,1.482-0.103"/>
					<path fill="none" stroke="#4C4C4C" stroke-width="0.25" stroke-miterlimit="10" d="M19.239,45.286
						c-0.526-0.093-0.997-0.314-1.388-0.626"/>
					<path fill="none" stroke="#4C4C4C" stroke-width="0.25" stroke-miterlimit="10" d="M57.797,45.842
						c0.535,0.094,1.014,0.322,1.408,0.643"/>
					<path fill="none" stroke="#4C4C4C" stroke-width="0.25" stroke-miterlimit="10" d="M17.883,46.443
						c0.385-0.299,0.844-0.512,1.357-0.602"/>
					<path fill="none" stroke="#4C4C4C" stroke-width="0.25" stroke-miterlimit="10" d="M59.197,44.648
						c-0.392,0.318-0.867,0.544-1.399,0.638"/>
					<path fill="none" stroke="#4C4C4C" stroke-width="0.25" stroke-miterlimit="10" d="M56.729,39.231
						c0.511-0.09,1.014-0.049,1.475,0.098"/>
					<path fill="none" stroke="#4C4C4C" stroke-width="0.25" stroke-miterlimit="10" d="M57.578,37.725
						c-0.255,0.393-0.604,0.732-1.037,0.983"/>
					<path fill="none" stroke="#4C4C4C" stroke-width="0.25" stroke-miterlimit="10" d="M53.466,33.384
						c0.465-0.269,0.97-0.402,1.47-0.413"/>
					<path fill="none" stroke="#4C4C4C" stroke-width="0.25" stroke-miterlimit="10" d="M28.638,62.12
						c-0.331,0.394-0.739,0.684-1.185,0.867"/>
					<path fill="none" stroke="#4C4C4C" stroke-width="0.25" stroke-miterlimit="10" d="M53.76,31.625
						c-0.102,0.476-0.317,0.934-0.652,1.332"/>
					<path fill="none" stroke="#4C4C4C" stroke-width="0.25" stroke-miterlimit="10" d="M48.399,29.006
						c0.351-0.417,0.788-0.719,1.263-0.9"/>
					<path fill="none" stroke="#4C4C4C" stroke-width="0.25" stroke-miterlimit="10" d="M28.953,63.805
						c-0.053-0.461-0.004-0.942,0.167-1.409"/>
					<path fill="none" stroke="#4C4C4C" stroke-width="0.25" stroke-miterlimit="10" d="M34.896,64.5
						c-0.164,0.453-0.426,0.844-0.752,1.158"/>
					<path fill="none" stroke="#4C4C4C" stroke-width="0.25" stroke-miterlimit="10" d="M48.062,27.178
						c0.083,0.504,0.042,1.035-0.146,1.548"/>
					<path fill="none" stroke="#4C4C4C" stroke-width="0.25" stroke-miterlimit="10" d="M41.346,19.12
						c0.471,0.452,0.836,1.016,1.049,1.648"/>
					<path fill="none" stroke="#4C4C4C" stroke-width="0.25" stroke-miterlimit="10" d="M34.654,20.729
						c0.414-1.195,1.369-2.137,2.571-2.537"/>
					<path fill="none" stroke="#4C4C4C" stroke-width="0.25" stroke-miterlimit="10" d="M39.967,72.879
						c-0.451,0.171-0.939,0.265-1.451,0.265c-0.923,0-1.775-0.306-2.461-0.822"/>
					<path fill="none" stroke="#4C4C4C" stroke-width="0.25" stroke-miterlimit="10" d="M26.393,23.328
						c0.064-1.609,1.082-3.096,2.689-3.681"/>
					<path fill="none" stroke="#4C4C4C" stroke-width="0.25" stroke-miterlimit="10" d="M47.949,71.481
						c-1.408,0.512-2.916,0.204-3.996-0.681"/>
					<path fill="none" stroke="#4C4C4C" stroke-width="0.25" stroke-miterlimit="10" d="M19.377,26.916
						c0.152-0.935,0.627-1.822,1.41-2.479c0.326-0.273,0.683-0.487,1.055-0.643"/>
					<path fill="none" stroke="#4C4C4C" stroke-width="0.25" stroke-miterlimit="10" d="M54.831,67.465
						c-0.909,0.283-1.892,0.238-2.767-0.12"/>
					<path fill="none" stroke="#4C4C4C" stroke-width="0.25" stroke-miterlimit="10" d="M57.604,62.647
						c0.125,0.556,0.133,1.131,0.027,1.686"/>
					<path fill="none" stroke="#4C4C4C" stroke-width="0.25" stroke-miterlimit="10" d="M14.119,33.261
						c0.07-0.509,0.238-1.014,0.511-1.486c0.456-0.789,1.134-1.369,1.911-1.706"/>
					<path fill="none" stroke="#4C4C4C" stroke-width="0.25" stroke-miterlimit="10" d="M59.942,61.254
						c-0.388,0.106-0.788,0.156-1.192,0.146"/>
					<path fill="none" stroke="#4C4C4C" stroke-width="0.25" stroke-miterlimit="10" d="M62.275,55.058
						c0.601,0.917,0.818,2.052,0.578,3.137"/>
					<path fill="none" stroke="#4C4C4C" stroke-width="0.25" stroke-miterlimit="10" d="M11.322,40.978
						c0.008-0.067,0.02-0.134,0.031-0.202c0.264-1.497,1.311-2.658,2.645-3.139"/>
					<path fill="none" stroke="#4C4C4C" stroke-width="0.25" stroke-miterlimit="10" d="M64.496,46.708
						c0.939,0.913,1.425,2.26,1.18,3.647c-0.01,0.056-0.021,0.111-0.033,0.166"/>
					<path fill="none" stroke="#4C4C4C" stroke-width="0.25" stroke-miterlimit="10" d="M11.311,49.23
						c0.127-1.24,0.816-2.352,1.85-3.021"/>
					<path fill="none" stroke="#4C4C4C" stroke-width="0.25" stroke-miterlimit="10" d="M14.395,53.616
						c-0.439-0.11-0.855-0.292-1.232-0.534"/>
					<path fill="none" stroke="#4C4C4C" stroke-width="0.25" stroke-miterlimit="10" d="M64.605,38.66
						c0.539,0.564,0.924,1.29,1.07,2.117c0.1,0.567,0.078,1.127-0.047,1.655"/>
					<path fill="none" stroke="#4C4C4C" stroke-width="0.25" stroke-miterlimit="10" d="M14.127,56.705
						c0.095-0.629,0.335-1.233,0.705-1.758"/>
					<path fill="none" stroke="#4C4C4C" stroke-width="0.25" stroke-miterlimit="10" d="M18.676,61.373
						c-0.988,0.122-1.992-0.123-2.811-0.682"/>
					<path fill="none" stroke="#4C4C4C" stroke-width="0.25" stroke-miterlimit="10" d="M61.781,30.959
						c0.234,0.24,0.443,0.513,0.619,0.817c0.555,0.962,0.676,2.057,0.422,3.055"/>
					<path fill="none" stroke="#4C4C4C" stroke-width="0.25" stroke-miterlimit="10" d="M25.014,67.329
						c-1.291,0.546-2.82,0.408-4.012-0.465"/>
					<path fill="none" stroke="#4C4C4C" stroke-width="0.25" stroke-miterlimit="10" d="M56.369,24.55
						c1.201,1.094,1.61,2.758,1.156,4.233"/>
					<path fill="none" stroke="#4C4C4C" stroke-width="0.25" stroke-miterlimit="10" d="M31.934,71.465
						c-0.885,0.336-1.891,0.369-2.852,0.019c-0.385-0.141-0.736-0.333-1.049-0.566"/>
					<path fill="none" stroke="#4C4C4C" stroke-width="0.25" stroke-miterlimit="10" d="M49.379,20.54
						c0.783,0.751,1.242,1.792,1.262,2.882"/>
					<path fill="none" stroke="#4C4C4C" stroke-width="0.25" stroke-miterlimit="10" d="M43.379,20.908
						c0.479-0.587,1.108-1.023,1.809-1.271"/>
					<path fill="none" stroke="#4C4C4C" stroke-width="0.25" stroke-miterlimit="10" d="M31.299,15.934
						c0.512-0.361,1.111-0.619,1.77-0.735c1.751-0.308,3.439,0.463,4.385,1.835"/>
					<path fill="none" stroke="#4C4C4C" stroke-width="0.25" stroke-miterlimit="10" d="M40.523,75.089
						c-0.65-0.499-1.164-1.18-1.455-1.983"/>
					<path fill="none" stroke="#4C4C4C" stroke-width="0.25" stroke-miterlimit="10" d="M47.596,71.591
						c0.01,2.1-1.494,3.961-3.631,4.339c-0.137,0.024-0.273,0.042-0.41,0.053"/>
					<path fill="none" stroke="#4C4C4C" stroke-width="0.25" stroke-miterlimit="10" d="M22.463,19.267
						c0.17-0.136,0.354-0.261,0.549-0.374c1.878-1.083,4.221-0.625,5.566,0.98"/>
					<path fill="none" stroke="#4C4C4C" stroke-width="0.25" stroke-miterlimit="10" d="M21.081,24.212
						c-0.373-1.016-0.349-2.11,0.021-3.08"/>
					<path fill="none" stroke="#4C4C4C" stroke-width="0.25" stroke-miterlimit="10" d="M56.215,68.612
						c-0.063,1.452-0.842,2.843-2.193,3.623c-0.592,0.341-1.229,0.53-1.867,0.578"/>
					<path fill="none" stroke="#4C4C4C" stroke-width="0.25" stroke-miterlimit="10" d="M15.545,25.119
						c1.398-1.057,3.314-1.182,4.846-0.298"/>
					<path fill="none" stroke="#4C4C4C" stroke-width="0.25" stroke-miterlimit="10" d="M14.829,31.462
						c-1.114-1.319-1.343-3.172-0.612-4.713"/>
					<path fill="none" stroke="#4C4C4C" stroke-width="0.25" stroke-miterlimit="10" d="M63.229,62.735
						c-0.049,0.919-0.385,1.83-1.021,2.588c-0.743,0.884-1.759,1.403-2.819,1.537"/>
					<path fill="none" stroke="#4C4C4C" stroke-width="0.25" stroke-miterlimit="10" d="M11.424,32.796
						c0.877-0.507,1.924-0.709,2.965-0.525"/>
					<path fill="none" stroke="#4C4C4C" stroke-width="0.25" stroke-miterlimit="10" d="M11.434,40.415
						c-1.82-1.045-2.682-3.276-1.939-5.316c0.055-0.153,0.119-0.301,0.189-0.443"/>
					<path fill="none" stroke="#4C4C4C" stroke-width="0.25" stroke-miterlimit="10" d="M67.803,54.547
						c-0.002,0.492-0.088,0.992-0.266,1.48c-0.609,1.671-2.123,2.749-3.787,2.882"/>
					<path fill="none" stroke="#4C4C4C" stroke-width="0.25" stroke-miterlimit="10" d="M10.174,49.628
						c-1.482-0.707-2.51-2.219-2.51-3.972c0-0.599,0.119-1.169,0.336-1.689"/>
					<path fill="none" stroke="#4C4C4C" stroke-width="0.25" stroke-miterlimit="10" d="M69.365,45.471
						c-0.002,2.17-1.568,3.969-3.633,4.332"/>
					<path fill="none" stroke="#4C4C4C" stroke-width="0.25" stroke-miterlimit="10" d="M65.723,41.141
						c1.168,0.201,2.178,0.863,2.836,1.793"/>
					<path fill="none" stroke="#4C4C4C" stroke-width="0.25" stroke-miterlimit="10" d="M11.787,58.664
						c-1.002-0.479-1.822-1.336-2.232-2.461c-0.369-1.019-0.341-2.085,0.008-3.028"/>
					<path fill="none" stroke="#4C4C4C" stroke-width="0.25" stroke-miterlimit="10" d="M67.736,36.55
						c-0.041,1.505-0.857,2.917-2.195,3.688"/>
					<path fill="none" stroke="#4C4C4C" stroke-width="0.25" stroke-miterlimit="10" d="M62.568,32.102
						c1.832-0.33,3.689,0.544,4.604,2.171"/>
					<path fill="none" stroke="#4C4C4C" stroke-width="0.25" stroke-miterlimit="10" d="M16.469,66.634
						c-0.572-0.263-1.098-0.654-1.529-1.169c-1.032-1.231-1.276-2.86-0.783-4.275"/>
					<path fill="none" stroke="#4C4C4C" stroke-width="0.25" stroke-miterlimit="10" d="M62.99,29.537
						c-0.156,0.642-0.459,1.253-0.901,1.78"/>
					<path fill="none" stroke="#4C4C4C" stroke-width="0.25" stroke-miterlimit="10" d="M56.512,24.688
						c1.814-1.056,4.18-0.686,5.574,0.976c0.175,0.208,0.326,0.427,0.455,0.655"/>
					<path fill="none" stroke="#4C4C4C" stroke-width="0.25" stroke-miterlimit="10" d="M23.576,72.537
						c-0.139-0.062-0.275-0.131-0.41-0.208c-1.875-1.085-2.65-3.341-1.932-5.312"/>
					<path fill="none" stroke="#4C4C4C" stroke-width="0.25" stroke-miterlimit="10" d="M28.74,71.341
						c-0.535,0.64-1.229,1.1-1.988,1.352"/>
					<path fill="none" stroke="#4C4C4C" stroke-width="0.25" stroke-miterlimit="10" d="M49.46,18.804
						c1.315-0.759,2.988-0.815,4.398-0.002c0.671,0.389,1.2,0.926,1.573,1.546"/>
					<path fill="none" stroke="#4C4C4C" stroke-width="0.25" stroke-miterlimit="10" d="M32.08,75.585
						c-1.494-0.73-2.469-2.262-2.467-3.952"/>
					<path fill="none" stroke="#4C4C4C" stroke-width="0.25" stroke-miterlimit="10" d="M38.145,73.13
						c-0.568,1.574-1.985,2.68-3.621,2.873"/>
					<path fill="none" stroke="#4C4C4C" stroke-width="0.25" stroke-miterlimit="10" d="M40.717,15.751
						c0.883-0.543,1.961-0.777,3.063-0.584c1.24,0.22,2.266,0.938,2.907,1.911"/>
					<path fill="none" stroke="#4C4C4C" stroke-width="0.25" stroke-miterlimit="10" d="M34.213,15.195
						c0-2.376,1.926-4.304,4.303-4.304c2.379,0,4.305,1.928,4.305,4.304"/>
					<path fill="none" stroke="#4C4C4C" stroke-width="0.25" stroke-miterlimit="10" d="M42.695,76.967
						c-0.463,1.878-2.158,3.271-4.18,3.271c-2.225,0-4.057-1.69-4.279-3.857"/>
					<path fill="none" stroke="#4C4C4C" stroke-width="0.25" stroke-miterlimit="10" d="M24.086,18.499
						c-0.813-2.233,0.338-4.704,2.572-5.517s4.703,0.34,5.516,2.573"/>
					<path fill="none" stroke="#4C4C4C" stroke-width="0.25" stroke-miterlimit="10" d="M45.42,76.631
						c-0.229-0.317-0.419-0.671-0.561-1.057"/>
					<path fill="none" stroke="#4C4C4C" stroke-width="0.25" stroke-miterlimit="10" d="M52.948,72.631
						c0.138,0.379,0.221,0.766,0.249,1.149"/>
					<path fill="none" stroke="#4C4C4C" stroke-width="0.25" stroke-miterlimit="10" d="M15.699,25.066
						c-1.526-1.82-1.291-4.535,0.529-6.064c1.72-1.441,4.231-1.311,5.795,0.238"/>
					<path fill="none" stroke="#4C4C4C" stroke-width="0.25" stroke-miterlimit="10" d="M61.336,66.063
						c1.528,1.82,1.289,4.535-0.53,6.064c-1.823,1.527-4.536,1.289-6.063-0.532"/>
					<path fill="none" stroke="#4C4C4C" stroke-width="0.25" stroke-miterlimit="10" d="M9.633,33.821
						c-1.717-1.288-2.244-3.687-1.145-5.595c1.19-2.06,3.822-2.763,5.881-1.575"/>
					<path fill="none" stroke="#4C4C4C" stroke-width="0.25" stroke-miterlimit="10" d="M66.971,57.021
						c2.059,1.188,2.764,3.82,1.576,5.88c-1.189,2.059-3.822,2.763-5.879,1.574"/>
					<path fill="none" stroke="#4C4C4C" stroke-width="0.25" stroke-miterlimit="10" d="M7.863,44.529
						c-2.34-0.414-3.904-2.644-3.492-4.987c0.413-2.342,2.645-3.903,4.987-3.491"/>
					<path fill="none" stroke="#4C4C4C" stroke-width="0.25" stroke-miterlimit="10" d="M69.174,46.599
						c2.341,0.412,3.902,2.645,3.492,4.986c-0.416,2.342-2.647,3.903-4.986,3.49"/>
					<path fill="none" stroke="#4C4C4C" stroke-width="0.25" stroke-miterlimit="10" d="M9.358,55.075
						c-2.341,0.412-4.573-1.149-4.987-3.491s1.152-4.573,3.492-4.986"/>
					<path fill="none" stroke="#4C4C4C" stroke-width="0.25" stroke-miterlimit="10" d="M68.248,35.989
						c2.123-0.091,4.037,1.403,4.418,3.553c0.369,2.104-0.855,4.119-2.805,4.806"/>
					<path fill="none" stroke="#4C4C4C" stroke-width="0.25" stroke-miterlimit="10" d="M14.369,64.475
						c-2.059,1.188-4.689,0.483-5.881-1.575c-1.189-2.059-0.482-4.691,1.576-5.88"/>
					<path fill="none" stroke="#4C4C4C" stroke-width="0.25" stroke-miterlimit="10" d="M63.135,26.416
						c1.973-0.842,4.311-0.095,5.412,1.81c1.188,2.061,0.48,4.692-1.576,5.879"/>
					<path fill="none" stroke="#4C4C4C" stroke-width="0.25" stroke-miterlimit="10" d="M22.293,71.593
						c-1.527,1.82-4.242,2.059-6.064,0.531c-1.821-1.528-2.059-4.244-0.529-6.064"/>
					<path fill="none" stroke="#4C4C4C" stroke-width="0.25" stroke-miterlimit="10" d="M54.742,19.531
						c1.525-1.82,4.242-2.058,6.063-0.531c1.822,1.53,2.056,4.245,0.53,6.063"/>
					<path fill="none" stroke="#4C4C4C" stroke-width="0.25" stroke-miterlimit="10" d="M32.033,75.914
						c-0.12,0.26-0.266,0.503-0.428,0.728"/>
					<path fill="none" stroke="#4C4C4C" stroke-width="0.25" stroke-miterlimit="10" d="M44.859,15.552
						c0.813-2.232,3.283-3.385,5.517-2.573c2.236,0.815,3.385,3.286,2.572,5.517"/>
					<path fill="none" stroke="#4C4C4C" stroke-width="0.25" stroke-miterlimit="10" d="M41.694,83.05
						c-0.956-0.696-1.653-1.749-1.876-3.005"/>
					<path fill="none" stroke="#4C4C4C" stroke-width="0.25" stroke-miterlimit="10" d="M37.271,80.056
						c-0.226,1.283-0.948,2.354-1.935,3.049"/>
					<path fill="none" stroke="#4C4C4C" stroke-width="0.25" stroke-miterlimit="10" d="M68.67,26.126
						c-0.252,0.393-0.566,0.754-0.943,1.069"/>
					<path fill="none" stroke="#4C4C4C" stroke-width="0.25" stroke-miterlimit="10" d="M61.639,19.943
						c0.375-0.314,0.783-0.56,1.211-0.739"/>
					<path fill="none" stroke="#4C4C4C" stroke-width="0.25" stroke-miterlimit="10" d="M8.35,65.022
						c0.254-0.399,0.572-0.768,0.955-1.089"/>
					<path fill="none" stroke="#4C4C4C" stroke-width="0.25" stroke-miterlimit="10" d="M15.391,71.186
						c-0.373,0.313-0.78,0.559-1.207,0.739"/>
					<path fill="none" stroke="#4C4C4C" stroke-width="0.25" stroke-miterlimit="10" d="M73.5,37.615
						c-0.372,0.282-0.791,0.514-1.252,0.682"/>
					<path fill="none" stroke="#4C4C4C" stroke-width="0.25" stroke-miterlimit="10" d="M69.008,29.399
						c0.459-0.167,0.927-0.259,1.391-0.28"/>
					<path fill="none" stroke="#4C4C4C" stroke-width="0.25" stroke-miterlimit="10" d="M3.514,53.533
						c0.375-0.288,0.801-0.525,1.27-0.696"/>
					<path fill="none" stroke="#4C4C4C" stroke-width="0.25" stroke-miterlimit="10" d="M8.021,61.734
						c-0.457,0.167-0.924,0.258-1.387,0.281"/>
					<path fill="none" stroke="#4C4C4C" stroke-width="0.25" stroke-miterlimit="10" d="M2.898,41.083
						c0.451-0.143,0.933-0.22,1.432-0.22"/>
					<path fill="none" stroke="#4C4C4C" stroke-width="0.25" stroke-miterlimit="10" d="M4.33,50.332
						c-0.488,0-0.957-0.074-1.399-0.211"/>
					<path fill="none" stroke="#4C4C4C" stroke-width="0.25" stroke-miterlimit="10" d="M70.422,61.964
						c-0.465-0.021-0.934-0.114-1.396-0.281"/>
					<path fill="none" stroke="#4C4C4C" stroke-width="0.25" stroke-miterlimit="10" d="M72.264,52.785
						c0.459,0.166,0.877,0.397,1.245,0.68"/>
					<path fill="none" stroke="#4C4C4C" stroke-width="0.25" stroke-miterlimit="10" d="M6.578,29.172
						C7.051,29.193,7.529,29.286,8,29.457"/>
					<path fill="none" stroke="#4C4C4C" stroke-width="0.25" stroke-miterlimit="10" d="M4.761,38.354
						c-0.458-0.167-0.872-0.397-1.243-0.677"/>
					<path fill="none" stroke="#4C4C4C" stroke-width="0.25" stroke-miterlimit="10" d="M62.889,71.89
						c-0.43-0.18-0.84-0.428-1.216-0.742"/>
					<path fill="none" stroke="#4C4C4C" stroke-width="0.25" stroke-miterlimit="10" d="M67.758,63.894
						c0.375,0.313,0.689,0.673,0.938,1.064"/>
					<path fill="none" stroke="#4C4C4C" stroke-width="0.25" stroke-miterlimit="10" d="M14.111,19.24
						c0.436,0.182,0.855,0.432,1.236,0.753"/>
					<path fill="none" stroke="#4C4C4C" stroke-width="0.25" stroke-miterlimit="10" d="M9.262,27.246
						c-0.373-0.313-0.684-0.671-0.936-1.061"/>
					<path fill="none" stroke="#4C4C4C" stroke-width="0.25" stroke-miterlimit="10" d="M59.726,72.792
						c0.245,0.421,0.417,0.867,0.518,1.321"/>
					<path fill="none" stroke="#4C4C4C" stroke-width="0.25" stroke-miterlimit="10" d="M24.586,12.482
						c0.348,0.32,0.656,0.699,0.904,1.131"/>
					<path fill="none" stroke="#4C4C4C" stroke-width="0.25" stroke-miterlimit="10" d="M17.291,18.347
						c-0.244-0.423-0.414-0.865-0.516-1.317"/>
					<path fill="none" stroke="#4C4C4C" stroke-width="0.25" stroke-miterlimit="10" d="M36.74,9.715
						c0.217,0.42,0.377,0.882,0.463,1.372"/>
					<path fill="none" stroke="#4C4C4C" stroke-width="0.25" stroke-miterlimit="10" d="M27.879,12.732
						c-0.084-0.479-0.092-0.954-0.035-1.415"/>
					<path fill="none" stroke="#4C4C4C" stroke-width="0.25" stroke-miterlimit="10" d="M49.107,11.273
						c0.061,0.469,0.053,0.958-0.035,1.447"/>
					<path fill="none" stroke="#4C4C4C" stroke-width="0.25" stroke-miterlimit="10" d="M39.748,11.077
						c0.086-0.479,0.24-0.928,0.451-1.342"/>
					<path fill="none" stroke="#4C4C4C" stroke-width="0.25" stroke-miterlimit="10" d="M16.814,74.145
						c0.102-0.453,0.275-0.899,0.52-1.326"/>
					<path fill="none" stroke="#4C4C4C" stroke-width="0.25" stroke-miterlimit="10" d="M60.195,16.966
						c-0.103,0.461-0.277,0.919-0.527,1.348"/>
					<path fill="none" stroke="#4C4C4C" stroke-width="0.25" stroke-miterlimit="10" d="M51.467,13.581
						c0.246-0.421,0.543-0.789,0.883-1.106"/>
					<path fill="none" stroke="#4C4C4C" stroke-width="0.25" stroke-miterlimit="10" d="M41.28,86.234
						c-0.748,0.626-1.712,1.004-2.765,1.004c-1.063,0-2.033-0.384-2.783-1.021"/>
					<path fill="none" stroke="#4C4C4C" stroke-width="0.25" stroke-miterlimit="10" d="M74.107,50.061
						c-0.445,0.139-0.918,0.212-1.408,0.213"/>
					<path fill="none" stroke="#4C4C4C" stroke-width="0.25" stroke-miterlimit="10" d="M72.697,40.804
						c0.488,0,0.959,0.074,1.402,0.213"/>
				</g>
				<g>
					<path fill="none" stroke="#000000" stroke-width="0.5" stroke-linejoin="round" stroke-miterlimit="10" d="M38.506,88.181
						c-1.395,0-2.279-0.183-2.766-0.349c0.055-2.406,0.069-8.287-5.26-12.091c-1.84-1.315-3.863-1.982-6.014-1.982
						c-1.923,0-3.938,0.555-5.891,1.615C8.568,68.688,2.631,57.623,2.631,45.536c0-19.782,16.094-35.876,35.875-35.876
						c19.785,0,35.879,16.094,35.879,35.876c0,12.113-5.928,23.186-15.918,29.853c-1.961-1.07-3.986-1.63-5.92-1.63
						c-2.148,0-4.174,0.667-6.014,1.982c-5.332,3.807-5.314,9.697-5.258,12.094C40.795,87.997,39.908,88.181,38.506,88.181z"/>
					<path fill="none" stroke="#000000" stroke-width="0.5" stroke-miterlimit="10" d="M59.09,51.36
						c-0.697-0.403-1.482-0.625-2.285-0.67c0.461-1.639,0.727-3.36,0.727-5.146c0-8.7-5.881-16.037-13.871-18.288
						c0.247-0.601,0.391-1.255,0.391-1.944c0-2.831-2.301-5.134-5.133-5.134c-2.83,0-5.133,2.303-5.133,5.134
						c0,0.618,0.123,1.205,0.325,1.754c-8.364,1.996-14.608,9.513-14.608,18.478c0,1.822,0.273,3.579,0.752,5.248
						c-0.527,0.111-1.039,0.295-1.508,0.566c-1.188,0.685-2.037,1.792-2.393,3.117c-0.355,1.325-0.174,2.709,0.512,3.898
						c0.915,1.583,2.619,2.565,4.447,2.565c0.899,0,1.787-0.238,2.564-0.688c0.521-0.301,0.969-0.69,1.346-1.136
						c3.432,3.362,8.122,5.444,13.293,5.444c5.41,0,10.286-2.281,13.752-5.918c0.432,0.65,0.994,1.209,1.689,1.61
						c0.779,0.45,1.667,0.688,2.566,0.688c1.826,0,3.53-0.982,4.447-2.57C62.385,55.917,61.541,52.771,59.09,51.36z"/>
				</g>
			</g>
			<g>
				<g>
					<path fill="#C3BF79" d="M41.716,77.057c-0.688-0.92-1.241-1.932-1.604-2.934c-0.282-0.782-0.308-1.512-0.337-2.358
						l-0.017-0.471l-3.628-0.092l-0.04,0.466c-0.071,0.844-0.133,1.573-0.458,2.339c-0.419,0.995-1.022,1.977-1.75,2.849
						l-1.505-0.267c-0.398-1.123-0.622-2.224-0.665-3.275c-0.038-0.845,0.155-1.56,0.381-2.388l0.113-0.42l-3.438-1.159
						l-0.173,0.424c-0.319,0.788-0.595,1.469-1.132,2.113c-0.682,0.819-1.548,1.579-2.511,2.205l-1.361-0.698
						c-0.05-1.161,0.063-2.309,0.33-3.328c0.211-0.815,0.607-1.439,1.065-2.163l0.236-0.373l-2.946-2.122l-0.279,0.343
						c-0.541,0.664-1.008,1.237-1.715,1.698c-0.88,0.574-1.932,1.045-3.05,1.365l-1.092-1.067c0.304-1.152,0.737-2.188,1.292-3.083
						c0.443-0.715,1.005-1.194,1.654-1.749l0.339-0.291l-2.19-2.896l-0.382,0.254c-0.707,0.472-1.317,0.879-2.124,1.107
						c-0.95,0.271-1.981,0.409-3.065,0.409c-0.084,0-0.167-0.001-0.251-0.002l-0.73-1.343c0.604-0.976,1.343-1.86,2.145-2.563
						c0.628-0.55,1.301-0.841,2.08-1.177l0.426-0.185l-1.24-3.412l-0.434,0.128c-0.785,0.233-1.464,0.435-2.26,0.435l-0.102-0.001
						c-1.063-0.022-2.197-0.225-3.289-0.589L7.707,51.29c0.873-0.759,1.841-1.387,2.807-1.818c0.768-0.341,1.499-0.421,2.347-0.514
						l0.448-0.049l-0.18-3.625l-0.445-0.005c-0.855-0.009-1.594-0.017-2.393-0.281c-1.006-0.335-2.029-0.864-2.968-1.533
						l0.153-1.521c1.063-0.472,2.171-0.786,3.215-0.911C10.886,41.01,11.073,41,11.257,41c0.61,0,1.175,0.108,1.829,0.234
						l0.444,0.084l0.895-3.516l-0.435-0.14c-0.809-0.259-1.508-0.483-2.189-0.97c-0.857-0.609-1.68-1.417-2.387-2.342l0.596-1.407
						c0.482-0.057,0.967-0.086,1.441-0.086c0.657,0,1.296,0.056,1.899,0.165c0.828,0.151,1.481,0.499,2.237,0.901l0.39,0.207
						l1.894-3.094l-0.373-0.261c-0.698-0.487-1.301-0.909-1.81-1.575c-0.649-0.852-1.197-1.866-1.589-2.939l0.981-1.17
						c1.132,0.206,2.226,0.571,3.171,1.06c0.742,0.383,1.26,0.904,1.859,1.507l0.325,0.325l2.722-2.398l-0.279-0.359
						c-0.523-0.671-0.977-1.251-1.266-2.038c-0.366-0.995-0.586-2.097-0.653-3.278l1.285-0.829c1.034,0.54,1.972,1.211,2.717,1.948
						c0.598,0.592,0.939,1.243,1.335,1.997l0.211,0.399l3.309-1.489l-0.592-1.564c-0.356-1.146-0.302-2.665,0.165-4.506l1.471-0.413
						c0.825,0.815,1.522,1.733,2.023,2.662c0.396,0.735,0.529,1.456,0.685,2.29l0.085,0.455l3.603-0.449l-0.028-0.444
						c-0.056-0.853-0.103-1.59,0.101-2.407c0.265-1.042,0.716-2.103,1.309-3.076l1.527,0.04c0.544,1.013,0.94,2.096,1.149,3.14
						c0.163,0.822,0.076,1.555-0.023,2.403l-0.052,0.446l3.574,0.633l0.104-0.431c0.199-0.832,0.371-1.55,0.807-2.271
						c0.548-0.903,1.291-1.784,2.155-2.554l1.449,0.488c0.223,1.145,0.282,2.296,0.171,3.337c-0.088,0.842-0.389,1.522-0.737,2.309
						l-0.174,0.394l3.231,1.657l0.23-0.389c0.434-0.734,0.808-1.369,1.436-1.924c0.796-0.705,1.766-1.327,2.812-1.805l1.242,0.893
						c-0.2,1.911-0.674,3.359-1.408,4.307l-1.078,1.247l2.598,2.537l0.324-0.295c0.634-0.577,1.181-1.076,1.949-1.424
						c0.963-0.437,2.073-0.746,3.22-0.897l0.92,1.22c-0.445,1.049-1.044,2.033-1.737,2.854c-0.539,0.639-1.162,1.028-1.884,1.478
						l-0.389,0.243l1.731,3.188l0.414-0.193c0.771-0.361,1.437-0.673,2.268-0.779c0.423-0.055,0.866-0.082,1.315-0.082
						c0.66,0,1.341,0.059,2.024,0.174l0.522,1.438c-0.758,0.892-1.62,1.655-2.501,2.214c-0.717,0.453-1.433,0.643-2.261,0.863
						l-0.419,0.111l0.716,3.558l0.455-0.063c0.538-0.076,1.047-0.147,1.557-0.147c0.291,0,0.564,0.023,0.835,0.07
						c1.044,0.183,2.135,0.554,3.166,1.076l0.075,1.525c-0.977,0.623-2.026,1.099-3.044,1.379c-0.458,0.126-0.93,0.183-1.527,0.183
						c-0.281,0-0.567-0.011-0.864-0.023l-0.456-0.018l-0.366,3.611l0.43,0.069c0.849,0.136,1.582,0.253,2.335,0.636
						c0.941,0.479,1.852,1.137,2.706,1.959l-0.377,1.48c-1.03,0.281-2.057,0.424-3.052,0.424l-0.265-0.003
						c-0.831-0.021-1.519-0.265-2.313-0.547l-0.447-0.158l-1.412,3.343l0.425,0.211c0.757,0.374,1.41,0.697,2.004,1.277
						c0.765,0.746,1.458,1.667,2.013,2.67l-0.8,1.305c-1.164-0.037-2.299-0.235-3.291-0.577c-0.8-0.275-1.396-0.717-2.085-1.23
						l-0.347-0.257l-2.336,2.779l1.212,1.152c0.816,0.874,1.429,2.267,1.809,4.131l-1.148,1.01c-1.107-0.38-2.134-0.904-2.976-1.519
						c-0.686-0.504-1.126-1.105-1.637-1.8l-0.249-0.339l-3.052,1.967l0.221,0.392c0.42,0.743,0.782,1.385,0.951,2.208
						c0.213,1.033,0.267,2.184,0.157,3.339l-1.395,0.628c-0.932-0.68-1.758-1.484-2.396-2.332c-0.499-0.661-0.737-1.348-1.014-2.144
						l-0.159-0.455l-3.493,0.98l0.101,0.466c0.18,0.825,0.335,1.538,0.251,2.361c-0.107,1.074-0.396,2.191-0.835,3.238
						L41.716,77.057z M45.277,44.272l0.026,0.169c0.509,3.245-1.323,6.388-4.347,7.531l-0.161,0.061v14.046l0.28-0.034
						c0.981-0.12,1.884-0.292,2.76-0.525c4.431-1.179,8.256-3.739,11.062-7.401l0.146-0.189l-0.183-0.154
						c-0.958-0.808-1.199-2.18-0.573-3.262c0.459-0.795,1.315-1.289,2.236-1.289c0.289,0,0.574,0.048,0.848,0.144l0.226,0.078
						l0.089-0.221c1.678-4.184,1.957-8.679,0.808-13c-0.221-0.829-0.524-1.688-0.956-2.706l-0.11-0.26L45.277,44.272z M21.31,53.221
						c0.922,0,1.78,0.495,2.239,1.293c0.346,0.597,0.438,1.292,0.259,1.958c-0.179,0.667-0.606,1.225-1.206,1.57l-0.27,0.141
						l0.066,0.293c3.33,4.145,8.271,6.903,13.558,7.567l0.281,0.035V52.017l-0.161-0.062c-2.315-0.885-3.986-2.942-4.36-5.368
						c-0.105-0.68-0.098-1.399,0.022-2.139l0.027-0.17l-12.153-7.017l-0.11,0.26c-1.813,4.282-2.146,8.896-0.962,13.343
						c0.225,0.843,0.526,1.704,0.95,2.71l0.119,0.284l0.254-0.175l0.156-0.115C20.412,53.341,20.858,53.221,21.31,53.221z
						 M38.512,38.664c1.564,0,3.104,0.554,4.336,1.56l0.134,0.109l12.159-7.019l-0.171-0.226c-3.247-4.278-7.93-7.1-13.186-7.945
						l-0.282-0.045l-0.008,0.285c-0.039,1.409-1.171,2.513-2.576,2.513c-1.424,0-2.583-1.159-2.583-2.584l0.088-0.353l-0.365,0.082
						c-1.103,0.133-2.012,0.301-2.862,0.527c-4.467,1.19-8.316,3.79-11.132,7.52l-0.171,0.226l12.149,7.015l0.134-0.11
						c0.949-0.779,2.088-1.289,3.293-1.475C37.814,38.691,38.165,38.664,38.512,38.664z"/>
					<path d="M38.776,14.736l1.235,0.032c0.497,0.955,0.861,1.966,1.057,2.942c0.155,0.784,0.07,1.499-0.026,2.326l-0.024,0.212
						l-0.055,0.468l0.464,0.082l3.11,0.551L45,21.431l0.111-0.457l0.049-0.203c0.194-0.812,0.362-1.513,0.777-2.2
						c0.512-0.845,1.2-1.67,2-2.401l1.172,0.395c0.196,1.074,0.245,2.147,0.142,3.122c-0.085,0.803-0.378,1.466-0.718,2.234
						L48.455,22.1l-0.19,0.432l0.419,0.215l2.813,1.442l0.419,0.215l0.239-0.405l0.111-0.188c0.422-0.716,0.787-1.334,1.385-1.864
						c0.744-0.659,1.646-1.245,2.619-1.704l1.005,0.722c-0.202,1.792-0.653,3.148-1.325,4.016l-0.932,1.079l-0.309,0.356
						l0.338,0.329l2.26,2.208l0.338,0.329l0.348-0.317l0.151-0.138c0.617-0.563,1.15-1.049,1.884-1.38
						c0.9-0.409,1.934-0.704,3.005-0.857l0.744,0.987c-0.429,0.977-0.993,1.891-1.642,2.658c-0.514,0.609-1.121,0.988-1.824,1.427
						l-0.19,0.119l-0.397,0.25l0.224,0.413l1.507,2.775l0.225,0.413l0.426-0.199l0.202-0.094c0.751-0.352,1.401-0.656,2.192-0.757
						c0.413-0.053,0.846-0.08,1.284-0.08c0.601,0,1.218,0.049,1.839,0.147l0.423,1.162c-0.719,0.826-1.526,1.533-2.35,2.055
						c-0.685,0.433-1.383,0.618-2.191,0.833l-0.192,0.051l-0.454,0.121l0.093,0.46l0.623,3.097l0.093,0.461l0.466-0.064l0.223-0.031
						c0.529-0.074,1.029-0.145,1.523-0.145c0.275,0,0.535,0.021,0.791,0.066c0.977,0.171,1.996,0.511,2.967,0.987l0.061,1.233
						c-0.921,0.572-1.902,1.009-2.854,1.272c-0.436,0.12-0.887,0.173-1.461,0.173c-0.278,0-0.561-0.011-0.854-0.023l-0.223-0.009
						l-0.47-0.018l-0.048,0.467l-0.318,3.144l-0.047,0.469l0.465,0.075l0.197,0.032c0.828,0.132,1.543,0.247,2.262,0.612
						c0.881,0.448,1.734,1.058,2.541,1.816l-0.305,1.196c-0.962,0.251-1.918,0.378-2.846,0.378c-0.086,0-0.172-0.001-0.259-0.003
						c-0.791-0.02-1.461-0.257-2.235-0.532l-0.227-0.08l-0.443-0.156l-0.184,0.433l-1.229,2.91l-0.184,0.433l0.421,0.209
						l0.216,0.106c0.737,0.365,1.375,0.68,1.939,1.232c0.715,0.697,1.367,1.552,1.898,2.485l-0.647,1.055
						c-1.089-0.047-2.146-0.238-3.073-0.558c-0.764-0.262-1.344-0.694-2.018-1.194l-0.157-0.118l-0.378-0.28l-0.303,0.36
						l-2.033,2.419l-0.303,0.361l0.342,0.324l0.596,0.566l0.424,0.402c0.775,0.828,1.355,2.131,1.728,3.878l-0.93,0.818
						c-1.032-0.368-1.985-0.862-2.771-1.436c-0.656-0.482-1.086-1.068-1.584-1.747l-0.111-0.15l-0.278-0.378l-0.396,0.254
						l-2.656,1.712l-0.395,0.255l0.23,0.41l0.105,0.187c0.409,0.725,0.764,1.351,0.924,2.136c0.199,0.966,0.256,2.039,0.166,3.12
						l-1.128,0.508c-0.864-0.647-1.63-1.401-2.227-2.195c-0.476-0.629-0.708-1.299-0.978-2.075l-0.081-0.234l-0.155-0.443
						l-0.451,0.127l-3.041,0.854l-0.453,0.127l0.1,0.459l0.051,0.237c0.176,0.804,0.326,1.499,0.246,2.284
						c-0.1,1.004-0.363,2.047-0.762,3.033l-1.225,0.153c-0.634-0.869-1.145-1.815-1.482-2.752c-0.27-0.745-0.293-1.458-0.322-2.282
						l-0.008-0.237L40,71.05l-0.47-0.012l-3.158-0.08l-0.47-0.012l-0.041,0.468l-0.02,0.233c-0.07,0.823-0.129,1.534-0.439,2.264
						c-0.391,0.929-0.949,1.848-1.62,2.673l-1.217-0.215c-0.36-1.052-0.563-2.082-0.603-3.067c-0.037-0.805,0.152-1.502,0.371-2.31
						l0.053-0.193l0.123-0.454l-0.445-0.15l-2.994-1.009l-0.445-0.15l-0.177,0.435l-0.084,0.207
						c-0.312,0.769-0.581,1.433-1.093,2.047c-0.637,0.765-1.44,1.479-2.334,2.076l-1.102-0.565
						c-0.033-1.086,0.078-2.156,0.328-3.109c0.201-0.777,0.588-1.386,1.035-2.091l0.11-0.175l0.251-0.398l-0.382-0.275l-2.564-1.847
						l-0.382-0.275l-0.297,0.364l-0.132,0.161c-0.527,0.647-0.983,1.207-1.657,1.646c-0.822,0.537-1.801,0.981-2.843,1.293
						l-0.883-0.862c0.295-1.072,0.706-2.038,1.225-2.875c0.423-0.682,0.971-1.149,1.604-1.69l0.161-0.138l0.357-0.306l-0.284-0.375
						l-1.906-2.521l-0.284-0.375l-0.392,0.26l-0.187,0.124c-0.689,0.46-1.285,0.857-2.054,1.075
						c-0.929,0.265-1.937,0.399-2.997,0.399c-0.034,0-0.067,0-0.101,0l-0.592-1.086c0.576-0.907,1.27-1.727,2.02-2.384
						c0.6-0.524,1.256-0.808,2.016-1.136l0.21-0.091l0.431-0.188l-0.16-0.442l-1.079-2.97l-0.16-0.442l-0.451,0.133l-0.209,0.062
						c-0.767,0.228-1.429,0.424-2.188,0.424l-0.098-0.001c-0.992-0.021-2.051-0.204-3.077-0.531l-0.244-1.212
						c0.825-0.701,1.731-1.28,2.634-1.684c0.732-0.325,1.445-0.403,2.272-0.494l0.214-0.023l0.468-0.052l-0.022-0.47l-0.156-3.155
						l-0.023-0.469l-0.471-0.006l-0.211-0.002c-0.834-0.008-1.555-0.016-2.314-0.268c-0.941-0.313-1.898-0.8-2.784-1.416l0.124-1.23
						c0.999-0.43,2.034-0.716,3.01-0.833c0.178-0.021,0.354-0.031,0.536-0.031c0.587,0,1.141,0.106,1.782,0.229l0.213,0.041
						l0.463,0.087l0.115-0.455l0.779-3.061l0.116-0.455l-0.446-0.145l-0.213-0.068c-0.789-0.253-1.471-0.471-2.121-0.936
						c-0.801-0.569-1.572-1.318-2.244-2.175l0.482-1.138c0.424-0.045,0.85-0.068,1.268-0.068c0.643,0,1.266,0.054,1.854,0.161
						c0.79,0.145,1.427,0.484,2.165,0.876l0.182,0.097l0.416,0.22l0.244-0.401l1.648-2.693l0.246-0.401l-0.385-0.27l-0.182-0.127
						c-0.68-0.475-1.268-0.886-1.753-1.521c-0.607-0.797-1.124-1.739-1.503-2.738l0.794-0.947c1.058,0.206,2.075,0.553,2.959,1.01
						c0.707,0.365,1.212,0.873,1.797,1.461l0.159,0.159l0.332,0.333l0.352-0.311l2.369-2.088l0.354-0.311l-0.289-0.371l-0.135-0.174
						c-0.512-0.655-0.952-1.22-1.229-1.971c-0.338-0.917-0.553-1.97-0.629-3.061l1.039-0.67c0.962,0.516,1.832,1.147,2.528,1.836
						c0.569,0.564,0.903,1.2,1.29,1.935l0.101,0.192l0.22,0.416l0.428-0.193l2.881-1.297l0.428-0.192l-0.164-0.439
						c-0.169-0.449-0.339-0.897-0.5-1.317c-0.338-1.085-0.295-2.513,0.129-4.245l1.189-0.334c0.763,0.772,1.408,1.631,1.877,2.5
						c0.377,0.701,0.508,1.403,0.658,2.216l0.042,0.225l0.087,0.462l0.467-0.058l3.135-0.391l0.467-0.058l-0.029-0.469l-0.014-0.21
						c-0.054-0.833-0.1-1.551,0.094-2.329C37.817,16.646,38.232,15.654,38.776,14.736 M34.067,40.631l0.268-0.219
						c0.914-0.751,2.011-1.242,3.172-1.421c0.333-0.051,0.671-0.077,1.005-0.077c1.507,0,2.99,0.534,4.178,1.503l0.268,0.218
						l0.299-0.172l11.765-6.791l0.491-0.284l-0.343-0.452c-3.286-4.33-8.025-7.185-13.345-8.041l-0.564-0.09l-0.016,0.57
						c-0.035,1.273-1.058,2.271-2.326,2.271c-1.27,0-2.307-1.021-2.332-2.286l0.164-0.655l-0.723,0.087
						c-1.113,0.135-2.034,0.305-2.896,0.535c-4.521,1.204-8.418,3.836-11.268,7.61l-0.34,0.452l0.489,0.283l11.755,6.787
						L34.067,40.631 M40.546,66.361l0.561-0.068c0.993-0.122,1.907-0.295,2.794-0.532c4.484-1.193,8.355-3.784,11.195-7.49
						l0.291-0.379l-0.365-0.308c-0.865-0.729-1.083-1.968-0.518-2.946c0.414-0.718,1.188-1.164,2.02-1.164
						c0.262,0,0.519,0.043,0.766,0.129l0.45,0.157l0.178-0.443c1.698-4.233,1.981-8.783,0.817-13.157
						c-0.223-0.84-0.531-1.71-0.967-2.739L57.547,36.9l-0.49,0.283L45.301,43.97l-0.297,0.171l0.053,0.338
						c0.004,0.024,0.008,0.047,0.012,0.057c0.479,3.072-1.287,6.101-4.199,7.202l-0.323,0.122v0.346v13.591V66.361 M19.499,54.238
						l0.507-0.35c0.029-0.021,0.059-0.043,0.088-0.066c0.017-0.013,0.032-0.027,0.051-0.038c0.355-0.205,0.758-0.313,1.164-0.313
						c0.834,0,1.609,0.447,2.024,1.168c0.312,0.538,0.395,1.166,0.233,1.768c-0.162,0.603-0.549,1.106-1.102,1.422
						c-0.034,0.014-0.068,0.029-0.103,0.046l-0.54,0.282l0.382,0.475c3.37,4.195,8.37,6.987,13.721,7.659l0.563,0.071v-0.567V52.189
						v-0.344l-0.321-0.123c-2.232-0.853-3.843-2.834-4.203-5.173c-0.102-0.653-0.094-1.347,0.021-2.061l0.056-0.341l-0.299-0.172
						l-11.759-6.789l-0.49-0.283l-0.221,0.521c-1.836,4.333-2.172,9.003-0.973,13.504c0.227,0.854,0.533,1.726,0.961,2.742
						L19.499,54.238 M38.5,14.229c-0.627,1.001-1.124,2.124-1.414,3.269c-0.23,0.923-0.154,1.742-0.095,2.692l-3.136,0.391
						c-0.176-0.936-0.301-1.749-0.752-2.586c-0.561-1.041-1.32-2.001-2.172-2.823l-1.748,0.491
						c-0.389,1.479-0.658,3.302-0.192,4.797c0.171,0.448,0.341,0.896,0.509,1.344L26.619,23.1c-0.445-0.844-0.805-1.579-1.481-2.249
						c-0.841-0.831-1.854-1.524-2.907-2.059l-1.527,0.986c0.055,1.18,0.267,2.385,0.676,3.496c0.328,0.893,0.854,1.526,1.438,2.278
						l-2.369,2.088c-0.672-0.673-1.236-1.276-2.08-1.712c-1.051-0.543-2.219-0.911-3.385-1.109l-1.166,1.391
						c0.391,1.113,0.959,2.204,1.674,3.142c0.577,0.756,1.266,1.207,2.045,1.754l-1.648,2.693c-0.842-0.446-1.557-0.853-2.491-1.023
						c-0.636-0.115-1.29-0.169-1.944-0.169c-0.543,0-1.085,0.037-1.615,0.106l-0.708,1.673c0.706,0.946,1.563,1.824,2.527,2.51
						c0.774,0.553,1.565,0.78,2.47,1.072l-0.779,3.061c-0.735-0.139-1.387-0.279-2.089-0.279c-0.193,0-0.391,0.011-0.595,0.035
						c-1.174,0.14-2.348,0.499-3.42,0.99l-0.182,1.808c0.951,0.696,2.033,1.28,3.152,1.652c0.902,0.299,1.727,0.284,2.678,0.296
						l0.156,3.155c-0.947,0.105-1.766,0.171-2.635,0.558c-1.08,0.482-2.096,1.168-2.979,1.954l0.359,1.781
						c1.114,0.386,2.32,0.624,3.5,0.648c0.036,0.001,0.071,0.001,0.107,0.001c0.904,0,1.66-0.248,2.539-0.507l1.079,2.97
						c-0.874,0.38-1.64,0.683-2.355,1.31c-0.888,0.778-1.659,1.732-2.268,2.744l0.868,1.597c0.133,0.004,0.268,0.006,0.401,0.006
						c1.053,0,2.126-0.131,3.134-0.418c0.916-0.26,1.587-0.737,2.38-1.264l1.907,2.521c-0.725,0.621-1.363,1.136-1.865,1.944
						c-0.623,1.006-1.068,2.146-1.357,3.292l1.299,1.27c1.139-0.313,2.27-0.791,3.258-1.436c0.798-0.521,1.299-1.172,1.902-1.91
						l2.564,1.847C24.377,68.4,23.918,69.081,23.68,70c-0.299,1.145-0.395,2.367-0.33,3.547l1.617,0.83
						c0.996-0.631,1.934-1.426,2.689-2.333c0.609-0.731,0.895-1.501,1.255-2.385l2.993,1.009c-0.248,0.92-0.484,1.706-0.441,2.656
						c0.049,1.183,0.322,2.377,0.729,3.486l1.789,0.316c0.77-0.899,1.424-1.933,1.883-3.022c0.371-0.875,0.414-1.702,0.496-2.647
						l3.158,0.08c0.035,0.95,0.037,1.776,0.359,2.67c0.402,1.113,1.006,2.175,1.727,3.115l1.801-0.225
						c0.471-1.086,0.792-2.267,0.91-3.443c0.096-0.944-0.107-1.748-0.307-2.676l3.041-0.854c0.314,0.897,0.559,1.686,1.131,2.444
						c0.711,0.945,1.604,1.783,2.566,2.469l1.658-0.747c0.125-1.174,0.092-2.4-0.146-3.558c-0.191-0.932-0.617-1.637-1.084-2.467
						l2.656-1.712c0.566,0.77,1.033,1.439,1.801,2.004c0.953,0.696,2.063,1.23,3.18,1.601l1.365-1.201
						c-0.293-1.5-0.842-3.263-1.91-4.404c-0.348-0.33-0.693-0.661-1.041-0.99l2.033-2.419c0.766,0.567,1.411,1.074,2.311,1.383
						c1.117,0.385,2.332,0.57,3.51,0.594l0.951-1.551c-0.561-1.043-1.279-2.029-2.127-2.856c-0.68-0.664-1.433-1.006-2.282-1.429
						l1.229-2.91c0.895,0.314,1.664,0.616,2.615,0.641c0.09,0.002,0.181,0.003,0.271,0.003c1.096,0,2.208-0.173,3.258-0.472
						l0.449-1.761c-0.844-0.828-1.816-1.567-2.871-2.104c-0.848-0.431-1.664-0.539-2.605-0.691l0.318-3.144
						c0.381,0.015,0.742,0.032,1.096,0.032c0.529,0,1.044-0.04,1.594-0.191c1.137-0.313,2.244-0.841,3.234-1.488l-0.09-1.813
						c-1.049-0.546-2.201-0.961-3.365-1.165c-0.303-0.053-0.592-0.074-0.878-0.074c-0.598,0-1.177,0.092-1.813,0.18l-0.623-3.097
						c0.922-0.246,1.717-0.435,2.522-0.944c0.997-0.633,1.897-1.468,2.651-2.375l-0.621-1.709C67.27,34.073,66.525,34,65.782,34
						c-0.452,0-0.903,0.027-1.348,0.084c-0.943,0.121-1.678,0.492-2.542,0.895l-1.507-2.775c0.806-0.505,1.519-0.92,2.132-1.646
						c0.762-0.901,1.385-1.96,1.832-3.051l-1.094-1.45c-1.174,0.141-2.357,0.446-3.436,0.936c-0.867,0.393-1.461,0.965-2.164,1.604
						l-2.261-2.208l0.933-1.079c0.96-1.238,1.327-3.057,1.474-4.579l-1.476-1.062c-1.08,0.479-2.121,1.121-3.007,1.905
						c-0.712,0.63-1.11,1.354-1.595,2.171l-2.813-1.442c0.385-0.874,0.736-1.616,0.836-2.562c0.125-1.175,0.035-2.399-0.203-3.555
						l-1.723-0.58c-0.891,0.775-1.699,1.696-2.313,2.708c-0.491,0.813-0.66,1.615-0.885,2.544l-3.111-0.551
						c0.109-0.945,0.229-1.762,0.045-2.693c-0.232-1.16-0.673-2.302-1.244-3.337L38.5,14.229L38.5,14.229z M34.018,40.025
						l-11.755-6.787c2.649-3.51,6.419-6.209,10.997-7.429c0.941-0.251,1.887-0.407,2.828-0.521
						c-0.002,0.008-0.003,0.015-0.003,0.023c0,1.564,1.269,2.834,2.833,2.834c1.539,0,2.783-1.229,2.826-2.756
						c5.178,0.833,9.85,3.663,13.026,7.849L43.006,40.03c-1.242-1.014-2.815-1.616-4.494-1.616c-0.356,0-0.717,0.027-1.081,0.083
						C36.127,38.698,34.967,39.246,34.018,40.025L34.018,40.025z M41.046,65.796V52.206c3.085-1.166,5.046-4.353,4.517-7.747
						c-0.004-0.019-0.009-0.037-0.012-0.056l11.756-6.787c0.365,0.861,0.697,1.743,0.945,2.673
						c1.178,4.428,0.785,8.894-0.799,12.842c-0.305-0.106-0.619-0.157-0.93-0.157c-0.979,0-1.929,0.506-2.453,1.414
						c-0.697,1.207-0.4,2.71,0.629,3.578c-2.646,3.454-6.396,6.105-10.928,7.312C42.863,65.52,41.953,65.686,41.046,65.796
						L41.046,65.796z M19.721,53.477c-0.363-0.862-0.691-1.747-0.939-2.677c-1.214-4.558-0.756-9.151,0.951-13.181l11.759,6.789
						c-0.116,0.717-0.14,1.46-0.022,2.217c0.404,2.625,2.201,4.678,4.519,5.563v13.606c-5.261-0.661-10.081-3.352-13.394-7.476
						c0.044-0.023,0.09-0.036,0.133-0.061c1.357-0.783,1.822-2.516,1.039-3.87c-0.523-0.91-1.477-1.418-2.457-1.418
						c-0.48,0-0.968,0.123-1.414,0.38C19.831,53.388,19.779,53.437,19.721,53.477L19.721,53.477z"/>
				</g>
				<circle fill="#C3BF79" stroke="#000000" stroke-width="0.5" stroke-miterlimit="10" cx="38.918" cy="25.312" r="1.133"/>
				<circle fill="#C3BF79" stroke="#000000" stroke-width="0.5" stroke-miterlimit="10" cx="56.523" cy="55.805" r="1.133"/>
				<circle fill="#C3BF79" stroke="#000000" stroke-width="0.5" stroke-miterlimit="10" cx="21.311" cy="55.805" r="1.133"/>
			</g>
			<g>
				<path fill="#C3BF79" d="M38.513,50.294c-2.32,0-4.337-1.733-4.69-4.03c-0.397-2.586,1.384-5.014,3.97-5.414
					c0.246-0.038,0.49-0.056,0.731-0.056c2.358,0,4.329,1.693,4.686,4.026c0.195,1.252-0.108,2.504-0.855,3.525
					c-0.75,1.026-1.857,1.698-3.116,1.893C38.994,50.276,38.751,50.294,38.513,50.294z"/>
				<path d="M38.523,41.044L38.523,41.044c2.234,0,4.101,1.604,4.438,3.816c0.185,1.186-0.103,2.371-0.81,3.338
					c-0.711,0.972-1.76,1.609-2.953,1.793c-0.228,0.035-0.459,0.053-0.688,0.053c-2.197,0-4.107-1.642-4.442-3.818
					c-0.376-2.45,1.311-4.75,3.761-5.129C38.06,41.063,38.293,41.044,38.523,41.044 M38.523,40.544c-0.254,0-0.512,0.019-0.77,0.059
					c-2.727,0.421-4.598,2.972-4.179,5.699c0.38,2.47,2.513,4.242,4.937,4.242c0.252,0,0.508-0.019,0.764-0.059
					c2.73-0.421,4.607-2.969,4.181-5.703C43.078,42.311,40.951,40.544,38.523,40.544L38.523,40.544z"/>
			</g>
		</g>
	</g>
</g>
<g id="titulo" display="none">
</g>
<g id="screenshots" display="none">
</g>
<g id="fondo_negro" display="none">
</g>
<g id="imagenes" display="none">
</g>
<g id="graficas" display="none">
</g>
<g id="texto" display="none">
</g>
<g id="bienvenido" display="none">
</g>
<g id="landpage" display="none">
	<g id="movil_horiz" display="inline">
		<defs>
			<rect id="SVGID_12_" x="-3262.024" y="900.609" width="217.259" height="123.013"/>
		</defs>
		<clipPath id="SVGID_2_">
			<use xlink:href="#SVGID_12_"  overflow="visible"/>
		</clipPath>
	</g>
	<g id="movil_vert_copia" display="inline">
		<defs>
			<rect id="SVGID_16_" x="-3473.59" y="853.126" width="123.013" height="217.259"/>
		</defs>
		<clipPath id="SVGID_4_">
			<use xlink:href="#SVGID_16_"  overflow="visible"/>
		</clipPath>
	</g>
	<g id="tableta_horizontal" display="inline">
		<defs>
			<rect id="SVGID_20_" x="-3964.196" y="816.94" width="409.16" height="288.831"/>
		</defs>
		<clipPath id="SVGID_6_">
			<use xlink:href="#SVGID_20_"  overflow="visible"/>
		</clipPath>
	</g>
	<g id="tableta_vert" display="inline">
		<defs>
			<rect id="SVGID_28_" x="-4328.573" y="757.164" width="287.964" height="409.479"/>
		</defs>
		<clipPath id="SVGID_8_">
			<use xlink:href="#SVGID_28_"  overflow="visible"/>
		</clipPath>
	</g>
	<g id="escritorio_1_" display="inline">
		<defs>
			<rect id="ventana" x="-5423.561" y="717.766" width="1024.5" height="487.98"/>
		</defs>
		<clipPath id="ventana_1_">
			<use xlink:href="#ventana"  overflow="visible"/>
		</clipPath>
	</g>
</g>
<g id="bocetos" display="none">
</g>
<g id="notas" display="none">
</g>
</svg>
