<?xml version="1.0" encoding="utf-8"?>
<!-- Generator: Adobe Illustrator 16.0.0, SVG Export Plug-In . SVG Version: 6.00 Build 0)  -->
<!DOCTYPE svg PUBLIC "-//W3C//DTD SVG 1.1//EN" "http://www.w3.org/Graphics/SVG/1.1/DTD/svg11.dtd">
<svg version="1.1" xmlns="http://www.w3.org/2000/svg" xmlns:xlink="http://www.w3.org/1999/xlink" x="0px" y="0px" width="40px"
	 height="40px" viewBox="0 0 40 40" enable-background="new 0 0 40 40" xml:space="preserve">
<g id="exportaciones">
	<g id="gear_5_7_">
		<g>
			<path fill="#C3BF79" stroke="#000000" stroke-width="0.5" stroke-miterlimit="10" d="M34.639,26.99
				c1.061,0.162,2.17,0.001,3.201-0.27l0.236-0.117l0.455-1.403l-0.129-0.235c-0.676-0.82-1.482-1.601-2.438-2.088
				c-0.861-0.439-1.885-0.475-2.818-0.635l0.154-3.159c0.949-0.064,1.971,0.004,2.871-0.348c0.998-0.391,1.879-1.084,2.637-1.834
				l0.15-0.223l-0.314-1.441l-0.225-0.139c-0.996-0.375-2.086-0.645-3.158-0.591c-0.961,0.049-1.867,0.534-2.758,0.862l-1.441-2.815
				l1.799-1.212c1.014-0.789,1.555-2.234,1.877-3.43l0.018-0.267l-0.988-1.094L33.5,6.544c-1.227,0.203-2.689,0.594-3.592,1.513
				c-0.465,0.561-0.93,1.121-1.395,1.681l-2.658-1.717c0.416-0.854,0.988-1.707,1.135-2.66c0.158-1.06,0.002-2.172-0.271-3.199
				l-0.115-0.239L25.197,1.47l-0.236,0.124c-0.953,0.792-2.051,1.87-2.355,3.122l-0.363,2.14L19.08,6.697
				c-0.064-0.946,0.004-1.972-0.346-2.869c-0.391-0.996-1.084-1.883-1.832-2.637L16.68,1.042l-1.443,0.312L15.098,1.58
				c-0.373,0.997-0.645,2.085-0.592,3.156c0.051,0.964,0.533,1.87,0.863,2.76l-2.816,1.441c-0.531-0.785-0.982-1.706-1.736-2.311
				C9.98,5.957,8.938,5.542,7.91,5.26L7.645,5.244L6.551,6.232L6.541,6.5c0.215,1.229,0.59,2.688,1.514,3.592
				c0.563,0.465,1.121,0.93,1.682,1.394L8.02,14.142c-0.652-0.317-1.309-0.64-1.961-0.958c-1.197-0.471-2.697-0.219-3.896,0.096
				l-0.24,0.118L1.469,14.8l0.125,0.236c0.678,0.819,1.484,1.601,2.441,2.088c0.857,0.438,1.885,0.474,2.818,0.635l-0.158,3.158
				c-0.947,0.065-1.971-0.003-2.867,0.349c-1.002,0.39-1.879,1.084-2.637,1.833l-0.15,0.224l0.311,1.44l0.229,0.14
				c0.992,0.375,2.086,0.645,3.154,0.59c0.963-0.049,1.871-0.532,2.76-0.863l1.443,2.817c-0.787,0.53-1.707,0.983-2.313,1.736
				c-0.666,0.836-1.092,1.879-1.363,2.905l-0.02,0.269l0.988,1.092l0.268,0.008c1.219-0.204,2.701-0.592,3.592-1.514
				c0.465-0.562,0.93-1.12,1.395-1.68l2.658,1.716c-0.324,0.663-0.658,1.321-0.969,1.987c-0.441,1.203-0.219,2.67,0.105,3.872
				l0.117,0.24l1.404,0.452l0.234-0.126c0.959-0.786,2.037-1.863,2.355-3.106c0.121-0.719,0.242-1.436,0.365-2.153l3.16,0.159
				c0.051,0.725,0.1,1.451,0.15,2.178c0.197,1.274,1.154,2.438,2.031,3.327l0.221,0.149l1.443-0.311L24.9,38.42
				c0.436-1.166,0.832-2.626,0.488-3.868c-0.256-0.681-0.506-1.364-0.758-2.046l2.814-1.444c0.531,0.787,0.982,1.71,1.736,2.312
				c0.838,0.669,1.879,1.088,2.908,1.366l0.266,0.018l1.092-0.989l0.01-0.267c-0.174-1.048-0.484-2.131-1.066-3.027
				c-0.527-0.81-1.398-1.353-2.129-1.959l1.719-2.658C32.832,26.274,33.686,26.845,34.639,26.99z M27.148,13.975
				c0.295,0.35,0.574,0.719,0.82,1.121c1.85,3.01,1.791,6.652,0.168,9.521l-4.422-3.672c0.223-0.856,0.139-1.758-0.234-2.559
				L27.148,13.975z M13.973,12.853c0.354-0.296,0.723-0.579,1.125-0.825c3.01-1.85,6.652-1.792,9.518-0.167l-3.672,4.422
				c-0.854-0.214-1.758-0.13-2.557,0.235L13.973,12.853z M12.85,26.024c-0.297-0.352-0.576-0.722-0.828-1.125
				c-1.846-3.007-1.787-6.647-0.162-9.518l4.42,3.672c-0.213,0.852-0.129,1.762,0.236,2.559L12.85,26.024z M26.02,27.146
				c-0.35,0.296-0.719,0.576-1.119,0.824c-3.01,1.848-6.652,1.792-9.52,0.167l3.672-4.421c0.852,0.213,1.758,0.13,2.555-0.235
				L26.02,27.146z"/>
			<circle fill="#C3BF79" stroke="#000000" stroke-width="0.5" stroke-miterlimit="10" cx="19.999" cy="20" r="1.753"/>
			<path fill="none" stroke="#000000" stroke-width="0.5" stroke-miterlimit="10" d="M30.59,24.38
				c-2.422,5.85-9.121,8.63-14.975,6.21c-5.848-2.42-8.629-9.124-6.209-14.976c2.42-5.847,9.123-8.626,14.975-6.206
				C30.23,11.83,33.01,18.532,30.59,24.38z"/>
		</g>
	</g>
</g>
<g id="titulo" display="none">
</g>
<g id="screenshots" display="none">
</g>
<g id="fondo_negro" display="none">
</g>
<g id="imagenes" display="none">
</g>
<g id="graficas" display="none">
</g>
<g id="texto" display="none">
</g>
<g id="bienvenido" display="none">
</g>
<g id="landpage" display="none">
	<g id="movil_horiz" display="inline">
		<defs>
			<rect id="SVGID_12_" x="-3629.03" y="732.845" width="217.259" height="123.013"/>
		</defs>
		<clipPath id="SVGID_2_">
			<use xlink:href="#SVGID_12_"  overflow="visible"/>
		</clipPath>
	</g>
	<g id="movil_vert_copia" display="inline">
		<defs>
			<rect id="SVGID_16_" x="-3840.596" y="685.362" width="123.013" height="217.259"/>
		</defs>
		<clipPath id="SVGID_4_">
			<use xlink:href="#SVGID_16_"  overflow="visible"/>
		</clipPath>
	</g>
	<g id="tableta_horizontal" display="inline">
		<defs>
			<rect id="SVGID_20_" x="-4331.202" y="649.176" width="409.16" height="288.831"/>
		</defs>
		<clipPath id="SVGID_6_">
			<use xlink:href="#SVGID_20_"  overflow="visible"/>
		</clipPath>
	</g>
	<g id="tableta_vert" display="inline">
		<defs>
			<rect id="SVGID_28_" x="-4695.579" y="589.4" width="287.964" height="409.479"/>
		</defs>
		<clipPath id="SVGID_8_">
			<use xlink:href="#SVGID_28_"  overflow="visible"/>
		</clipPath>
	</g>
	<g id="escritorio_1_" display="inline">
		<defs>
			<rect id="ventana" x="-5790.566" y="550.002" width="1024.5" height="487.98"/>
		</defs>
		<clipPath id="ventana_1_">
			<use xlink:href="#ventana"  overflow="visible"/>
		</clipPath>
	</g>
</g>
<g id="bocetos" display="none">
</g>
<g id="notas" display="none">
</g>
</svg>
