<?xml version="1.0" encoding="utf-8"?>
<!-- Generator: Adobe Illustrator 16.0.0, SVG Export Plug-In . SVG Version: 6.00 Build 0)  -->
<!DOCTYPE svg PUBLIC "-//W3C//DTD SVG 1.1//EN" "http://www.w3.org/Graphics/SVG/1.1/DTD/svg11.dtd">
<svg version="1.1" xmlns="http://www.w3.org/2000/svg" xmlns:xlink="http://www.w3.org/1999/xlink" x="0px" y="0px" width="256px"
	 height="256px" viewBox="0 0 256 256" enable-background="new 0 0 256 256" xml:space="preserve">
<g id="exportaciones">
	<rect x="-1394.215" y="-232.536" display="none" width="1474" height="2447.511"/>
	<g id="anillo_interno_3_">
		<g display="none">
			
				<line display="inline" fill="#C3BF79" stroke="#000000" stroke-width="0.25" stroke-miterlimit="10" x1="136.25" y1="128" x2="119.754" y2="128"/>
			
				<line display="inline" fill="#C3BF79" stroke="#000000" stroke-width="0.25" stroke-miterlimit="10" x1="128.002" y1="136.248" x2="128.002" y2="119.752"/>
		</g>
		<g display="none">
			<g display="inline">
				<polyline fill="#C3BF79" stroke="#000000" stroke-width="0.25" stroke-linecap="square" stroke-miterlimit="1" points="
					98.365,36.88 96.023,37.672 93.703,38.529 91.404,39.445 89.127,40.418 				"/>
				
					<line fill="#C3BF79" stroke="#000000" stroke-width="0.25" stroke-linecap="square" stroke-miterlimit="1" x1="95.479" y1="43.148" x2="91.932" y2="33.91"/>
				<polyline fill="#C3BF79" stroke="#000000" stroke-width="0.25" stroke-linecap="square" stroke-miterlimit="1" points="
					96.84,32.17 95.199,35.346 93.703,38.529 92.352,41.729 91.141,44.947 				"/>
				<polyline fill="#C3BF79" stroke="#000000" stroke-width="0.25" stroke-linecap="square" stroke-miterlimit="1" points="
					99.898,41.582 96.848,40.006 93.703,38.529 90.455,37.16 87.123,35.898 				"/>
				<polyline fill="#C3BF79" stroke="#000000" stroke-width="0.25" stroke-linecap="square" stroke-miterlimit="1" points="
					111.256,38.687 109.475,41.565 107.248,42.076 104.395,40.254 101.83,30.693 103.768,27.643 106.365,27.048 109.436,28.953 
					111.256,38.687 				"/>
				<polyline fill="#C3BF79" stroke="#000000" stroke-width="0.25" stroke-linecap="square" stroke-miterlimit="1" points="
					138.18,25.258 136.721,40.039 134.717,36.138 132.514,32.286 130.121,28.491 127.531,24.756 127.598,39.603 				"/>
				<polyline fill="#C3BF79" stroke="#000000" stroke-width="0.25" stroke-linecap="square" stroke-miterlimit="1" points="
					152.672,32.854 150.207,32.244 147.732,31.709 145.232,31.23 142.732,30.817 				"/>
				<polyline fill="#C3BF79" stroke="#000000" stroke-width="0.25" stroke-linecap="square" stroke-miterlimit="1" points="
					151.436,37.647 149.094,37.07 146.734,36.559 144.367,36.104 141.99,35.709 				"/>
				<polyline fill="#C3BF79" stroke="#000000" stroke-width="0.25" stroke-linecap="square" stroke-miterlimit="1" points="
					166.074,40.072 163.801,39.115 161.49,38.225 159.154,37.391 157.555,34.257 158.299,31.897 161.572,30.372 164.08,31.271 
					166.57,32.229 168.047,35.527 165.094,42.34 161.943,43.709 158.891,45.178 156.746,44.41 				"/>
				<polyline fill="#C3BF79" stroke="#000000" stroke-width="0.25" stroke-linecap="square" stroke-miterlimit="1" points="
					174.547,49.954 171.305,50.936 169.301,49.847 168.369,46.588 172.766,37.722 176.238,36.724 178.58,37.994 179.619,41.458 
					174.547,49.954 				"/>
				<polyline fill="#C3BF79" stroke="#000000" stroke-width="0.25" stroke-linecap="square" stroke-miterlimit="1" points="
					191.076,55.876 192.924,57.525 194.723,59.225 196.471,60.973 199.994,61.081 201.809,59.39 201.775,55.777 199.887,53.896 
					197.947,52.064 195.969,50.283 186.193,61.461 				"/>
				
					<line fill="#C3BF79" stroke="#000000" stroke-width="0.25" stroke-linecap="square" stroke-miterlimit="1" x1="195.762" y1="71.242" x2="203.35" y2="64.883"/>
				
					<line fill="#C3BF79" stroke="#000000" stroke-width="0.25" stroke-linecap="square" stroke-miterlimit="1" x1="205.248" y1="63.291" x2="207.145" y2="61.708"/>
				<polyline fill="#C3BF79" stroke="#000000" stroke-width="0.25" stroke-linecap="square" stroke-miterlimit="1" points="
					205.832,81.1 202.508,80.439 203.309,77.141 213.563,70.22 				"/>
				<polyline fill="#C3BF79" stroke="#000000" stroke-width="0.25" stroke-linecap="square" stroke-miterlimit="1" points="
					212.193,77.264 210.857,75.111 209.463,72.991 208.012,70.904 206.508,68.859 				"/>
				<polyline fill="#C3BF79" stroke="#000000" stroke-width="0.25" stroke-linecap="square" stroke-miterlimit="1" points="
					209.852,94.61 208.959,92.507 208.012,90.428 207.021,88.375 208.15,85.183 212.514,82.848 215.863,83.938 216.977,86.222 
					218.025,88.531 219.014,90.865 				"/>
				<polyline fill="#C3BF79" stroke="#000000" stroke-width="0.25" stroke-linecap="square" stroke-miterlimit="1" points="
					216.135,97.25 219.254,98.775 222.355,100.45 223.031,102.899 221.242,105.927 214.023,107.643 				"/>
				
					<line fill="#C3BF79" stroke="#000000" stroke-width="0.25" stroke-linecap="square" stroke-miterlimit="1" x1="211.459" y1="98.875" x2="225.48" y2="93.983"/>
				<polyline fill="#C3BF79" stroke="#000000" stroke-width="0.25" stroke-linecap="square" stroke-miterlimit="1" points="
					216.275,123.438 216.367,125.715 216.398,128 216.367,130.284 218.75,132.693 228.631,133.204 231.203,130.664 231.246,128 
					231.203,125.336 231.105,122.672 				"/>
				
					<line fill="#C3BF79" stroke="#000000" stroke-width="0.25" stroke-linecap="square" stroke-miterlimit="1" x1="231.203" y1="125.336" x2="216.367" y2="125.715"/>
				<polyline fill="#C3BF79" stroke="#000000" stroke-width="0.25" stroke-linecap="square" stroke-miterlimit="1" points="
					224.203,148.166 224.689,145.676 225.119,143.168 225.473,140.652 225.77,138.137 				"/>
				<polyline fill="#C3BF79" stroke="#000000" stroke-width="0.25" stroke-linecap="square" stroke-miterlimit="1" points="
					219.361,147.145 219.822,144.785 220.227,142.41 220.564,140.018 220.846,137.626 				"/>
				<polyline fill="#C3BF79" stroke="#000000" stroke-width="0.25" stroke-linecap="square" stroke-miterlimit="1" points="
					225.432,153.734 227.105,156.936 226.322,159.484 225.48,162.016 222.256,163.641 219.938,162.767 218.469,159.566 
					215.311,161.018 212.992,160.144 211.459,157.125 212.186,154.955 212.854,152.778 215.855,151.211 				"/>
				
					<line fill="#C3BF79" stroke="#000000" stroke-width="0.25" stroke-linecap="square" stroke-miterlimit="1" x1="219.254" y1="157.224" x2="218.469" y2="159.566"/>
				<polyline fill="#C3BF79" stroke="#000000" stroke-width="0.25" stroke-linecap="square" stroke-miterlimit="1" points="
					210.072,177.457 208.77,179.561 207.406,181.623 205.998,183.66 206.508,187.141 208.49,188.634 212.045,187.974 
					213.563,185.779 215.021,183.553 216.432,181.284 203.713,173.621 				"/>
				<polyline fill="#C3BF79" stroke="#000000" stroke-width="0.25" stroke-linecap="square" stroke-miterlimit="1" points="
					196.447,198.548 198.244,196.758 199.994,194.919 201.701,193.038 203.35,191.116 				"/>
				<polyline fill="#C3BF79" stroke="#000000" stroke-width="0.25" stroke-linecap="square" stroke-miterlimit="1" points="
					192.998,195.001 194.707,193.293 196.371,191.554 197.988,189.764 199.557,187.941 				"/>
				<polyline fill="#C3BF79" stroke="#000000" stroke-width="0.25" stroke-linecap="square" stroke-miterlimit="1" points="
					194.336,203.852 193.939,207.447 191.861,209.123 189.748,210.739 186.16,210.285 184.734,208.265 185.313,204.792 
					181.881,204.223 180.453,202.202 180.865,198.845 182.68,197.451 184.453,196.016 187.818,196.403 				"/>
				
					<line fill="#C3BF79" stroke="#000000" stroke-width="0.25" stroke-linecap="square" stroke-miterlimit="1" x1="187.273" y1="203.291" x2="185.313" y2="204.792"/>
				<polyline fill="#C3BF79" stroke="#000000" stroke-width="0.25" stroke-linecap="square" stroke-miterlimit="1" points="
					170.455,208.339 171.305,205.064 173.285,203.918 176.551,204.816 181.838,213.181 180.889,216.67 178.58,218.006 
					175.084,217.09 170.455,208.339 				"/>
				<polyline fill="#C3BF79" stroke="#000000" stroke-width="0.25" stroke-linecap="square" stroke-miterlimit="1" points="
					156.813,219.384 154.438,220.101 152.055,220.752 149.654,221.338 147.732,224.291 148.225,226.717 151.328,228.572 
					153.918,227.937 156.49,227.236 159.039,226.469 154.578,212.307 				"/>
				<polyline fill="#C3BF79" stroke="#000000" stroke-width="0.25" stroke-linecap="square" stroke-miterlimit="1" points="
					141.248,215.399 141.99,220.291 140.219,225.528 138.18,230.741 135.17,226.031 132.398,221.24 132.166,216.299 				"/>
				<polyline fill="#C3BF79" stroke="#000000" stroke-width="0.25" stroke-linecap="square" stroke-miterlimit="1" points="
					141.99,220.291 139.6,220.621 137.207,220.893 134.805,221.1 132.398,221.24 				"/>
				<polyline fill="#C3BF79" stroke="#000000" stroke-width="0.25" stroke-linecap="square" stroke-miterlimit="1" points="
					117.428,225.719 119.951,225.965 122.484,226.139 125.016,226.246 127.557,226.296 				"/>
				<polyline fill="#C3BF79" stroke="#000000" stroke-width="0.25" stroke-linecap="square" stroke-miterlimit="1" points="
					117.955,220.803 120.355,221.033 122.764,221.197 125.172,221.297 127.582,221.347 				"/>
				<polyline fill="#C3BF79" stroke="#000000" stroke-width="0.25" stroke-linecap="square" stroke-miterlimit="1" points="
					105.039,213.361 107.248,213.924 109.475,214.435 111.719,214.88 113.963,215.275 113.18,220.158 110.35,222.18 
					107.924,221.693 105.508,221.141 102.465,222.922 101.83,225.306 103.768,228.357 106.365,228.951 108.98,229.471 112,227.492 
									"/>
				<polyline fill="#C3BF79" stroke="#000000" stroke-width="0.25" stroke-linecap="square" stroke-miterlimit="1" points="
					93.291,211.977 96.361,210.541 98.504,211.324 99.898,214.418 96.84,223.829 93.549,225.322 91.049,224.398 89.516,221.123 
					93.291,211.977 				"/>
			</g>
		</g>
		<g>
			<path fill="#C3BF79" stroke="#000000" stroke-width="0.5" stroke-miterlimit="10" d="M81.791,16.143
				c-1.189-1.49-2.49-2.886-3.869-4.203l-0.098-0.035l-1.852,0.816l-0.039,0.098c0.039,1.905,0.189,3.815,0.496,5.697"/>
			<path fill="#C3BF79" stroke="#000000" stroke-width="0.5" stroke-miterlimit="10" d="M46.352,38.703
				c-1.635-1.001-3.348-1.864-5.104-2.636h-0.105l-1.459,1.4l-0.004,0.104c0.699,1.784,1.492,3.533,2.428,5.207"/>
			<path fill="#C3BF79" stroke="#000000" stroke-width="0.5" stroke-miterlimit="10" d="M74.105,19.644
				c-1.293-1.401-2.686-2.714-4.158-3.928l-0.1-0.029l-1.789,0.944l-0.033,0.1c0.174,1.901,0.457,3.799,0.893,5.658"/>
			<path fill="#C3BF79" stroke="#000000" stroke-width="0.5" stroke-miterlimit="10" d="M7.238,120.482
				c-1.871,0.414-3.711,0.979-5.504,1.65l-0.076,0.072l-0.076,2.021l0.07,0.078c1.736,0.808,3.533,1.511,5.367,2.063"/>
			<path fill="#C3BF79" stroke="#000000" stroke-width="0.5" stroke-miterlimit="10" d="M59.563,28.207
				c-1.477-1.217-3.047-2.314-4.676-3.318l-0.104-0.015l-1.641,1.184l-0.02,0.104c0.441,1.863,0.984,3.706,1.678,5.491"/>
			<path fill="#C3BF79" stroke="#000000" stroke-width="0.5" stroke-miterlimit="10" d="M66.684,23.672
				c-1.385-1.315-2.875-2.519-4.428-3.633l-0.102-0.021l-1.719,1.066l-0.025,0.102c0.307,1.888,0.725,3.761,1.289,5.588"/>
			<path fill="#C3BF79" stroke="#000000" stroke-width="0.5" stroke-miterlimit="10" d="M122.854,7.114
				c-0.607-1.817-1.359-3.589-2.217-5.303l-0.08-0.067l-2.018,0.135l-0.07,0.078c-0.613,1.813-1.129,3.664-1.488,5.546"/>
			<path fill="#C3BF79" stroke="#000000" stroke-width="0.5" stroke-miterlimit="10" d="M89.703,13.189
				c-1.084-1.565-2.273-3.057-3.563-4.46l-0.096-0.042l-1.904,0.686l-0.045,0.094c-0.104,1.9-0.074,3.815,0.096,5.712"/>
			<path fill="#C3BF79" stroke="#000000" stroke-width="0.5" stroke-miterlimit="10" d="M114.432,7.76
				c-0.732-1.77-1.613-3.475-2.58-5.128l-0.084-0.061l-2.004,0.275l-0.064,0.082c-0.486,1.847-0.871,3.727-1.096,5.624"/>
			<path fill="#C3BF79" stroke="#000000" stroke-width="0.5" stroke-miterlimit="10" d="M106.07,8.986
				c-0.855-1.708-1.846-3.348-2.924-4.922l-0.088-0.056l-1.98,0.415L101.02,4.51c-0.355,1.873-0.602,3.77-0.699,5.674"/>
			<path fill="#C3BF79" stroke="#000000" stroke-width="0.5" stroke-miterlimit="10" d="M97.814,10.795
				C96.84,9.154,95.74,7.598,94.563,6.1l-0.094-0.049l-1.945,0.552l-0.053,0.09c-0.225,1.892-0.336,3.797-0.303,5.701"/>
			<path fill="#C3BF79" stroke="#000000" stroke-width="0.5" stroke-miterlimit="10" d="M40.32,44.615
				c-1.701-0.884-3.469-1.629-5.275-2.272l-0.104,0.007l-1.357,1.499l0.004,0.105c0.814,1.73,1.736,3.415,2.783,5.017"/>
			<path fill="#C3BF79" stroke="#000000" stroke-width="0.5" stroke-miterlimit="10" d="M11.41,95.539
				c-1.906,0.017-3.814,0.186-5.697,0.47l-0.09,0.056l-0.494,1.961l0.053,0.091c1.525,1.14,3.121,2.198,4.795,3.117"/>
			<path fill="#C3BF79" stroke="#000000" stroke-width="0.5" stroke-miterlimit="10" d="M131.299,7.044
				c-0.484-1.854-1.111-3.667-1.842-5.438l-0.076-0.073l-2.021-0.006l-0.076,0.072c-0.732,1.773-1.373,3.579-1.871,5.433"/>
			<path fill="#C3BF79" stroke="#000000" stroke-width="0.5" stroke-miterlimit="10" d="M8.041,112.08
				c-1.889,0.285-3.756,0.718-5.59,1.259l-0.08,0.067l-0.217,2.011l0.063,0.083c1.68,0.92,3.414,1.749,5.203,2.429"/>
			<path fill="#C3BF79" stroke="#000000" stroke-width="0.5" stroke-miterlimit="10" d="M9.432,103.752
				c-1.9,0.147-3.791,0.456-5.652,0.865l-0.084,0.062l-0.357,1.99l0.059,0.088c1.605,1.029,3.271,1.979,5.004,2.777"/>
			<path fill="#C3BF79" stroke="#000000" stroke-width="0.5" stroke-miterlimit="10" d="M13.957,87.486
				c-1.902-0.116-3.816-0.076-5.715,0.07L8.15,87.604L7.52,89.526l0.045,0.095c1.439,1.246,2.961,2.411,4.564,3.443"/>
			<path fill="#C3BF79" stroke="#000000" stroke-width="0.5" stroke-miterlimit="10" d="M34.713,50.933
				c-1.754-0.763-3.572-1.386-5.416-1.896l-0.104,0.014l-1.25,1.591l0.01,0.104c0.932,1.669,1.971,3.281,3.125,4.806"/>
			<path fill="#C3BF79" stroke="#000000" stroke-width="0.5" stroke-miterlimit="10" d="M29.561,57.627
				c-1.805-0.638-3.656-1.131-5.531-1.514l-0.104,0.021l-1.135,1.674l0.018,0.103c1.045,1.6,2.193,3.134,3.447,4.572"/>
			<path fill="#C3BF79" stroke="#000000" stroke-width="0.5" stroke-miterlimit="10" d="M24.887,64.664
				c-1.844-0.508-3.725-0.867-5.619-1.124l-0.102,0.029l-1.016,1.749l0.025,0.102c1.156,1.518,2.404,2.969,3.756,4.316"/>
			<path fill="#C3BF79" stroke="#000000" stroke-width="0.5" stroke-miterlimit="10" d="M17.064,79.629
				c-1.893-0.248-3.803-0.347-5.709-0.328l-0.096,0.043l-0.764,1.873l0.039,0.097c1.354,1.341,2.783,2.614,4.313,3.753"/>
			<path fill="#C3BF79" stroke="#000000" stroke-width="0.5" stroke-miterlimit="10" d="M20.713,72.01
				c-1.869-0.382-3.771-0.61-5.676-0.727l-0.1,0.035l-0.893,1.815l0.033,0.101c1.26,1.432,2.602,2.793,4.045,4.039"/>
			<path fill="#C3BF79" stroke="#000000" stroke-width="0.5" stroke-miterlimit="10" d="M52.771,33.229
				c-1.563-1.109-3.203-2.098-4.9-2.989l-0.104-0.007l-1.553,1.295l-0.012,0.104c0.564,1.831,1.244,3.63,2.057,5.364"/>
			<path fill="#C3BF79" stroke="#000000" stroke-width="0.5" stroke-miterlimit="10" d="M238.18,77.914
				c1.447-1.236,2.801-2.588,4.063-4.013l0.031-0.1l-0.881-1.82l-0.098-0.036c-1.904,0.109-3.805,0.323-5.674,0.692"/>
			<path fill="#C3BF79" stroke="#000000" stroke-width="0.5" stroke-miterlimit="10" d="M234.414,70.353
				c1.361-1.334,2.611-2.782,3.775-4.288l0.025-0.102l-1.006-1.755l-0.102-0.029c-1.891,0.248-3.771,0.59-5.615,1.089"/>
			<path fill="#C3BF79" stroke="#000000" stroke-width="0.5" stroke-miterlimit="10" d="M230.127,63.079
				c1.262-1.431,2.428-2.955,3.473-4.551l0.02-0.103l-1.127-1.681l-0.102-0.021c-1.873,0.368-3.734,0.849-5.537,1.479"/>
			<path fill="#C3BF79" stroke="#000000" stroke-width="0.5" stroke-miterlimit="10" d="M225.344,56.122
				c1.168-1.515,2.219-3.125,3.154-4.791l0.012-0.104l-1.242-1.598l-0.104-0.015c-1.846,0.501-3.668,1.113-5.428,1.867"/>
			<path fill="#C3BF79" stroke="#000000" stroke-width="0.5" stroke-miterlimit="10" d="M241.406,85.728
				c1.533-1.133,2.971-2.393,4.33-3.725l0.041-0.098l-0.754-1.878l-0.094-0.043c-1.904-0.027-3.816,0.06-5.707,0.295"/>
			<path fill="#C3BF79" stroke="#000000" stroke-width="0.5" stroke-miterlimit="10" d="M248.99,127.074
				c1.838-0.551,3.631-1.236,5.379-2.029l0.07-0.078l-0.064-2.021l-0.076-0.073c-1.791-0.679-3.621-1.255-5.49-1.682"/>
			<path fill="#C3BF79" stroke="#000000" stroke-width="0.5" stroke-miterlimit="10" d="M244.074,93.736
				c1.605-1.026,3.137-2.17,4.584-3.409l0.047-0.094l-0.619-1.925l-0.092-0.051c-1.9-0.156-3.809-0.207-5.713-0.103"/>
			<path fill="#C3BF79" stroke="#000000" stroke-width="0.5" stroke-miterlimit="10" d="M220.094,49.518
				c1.057-1.598,1.982-3.281,2.811-5.01l0.004-0.104l-1.348-1.507l-0.105-0.008c-1.811,0.627-3.578,1.379-5.285,2.248"/>
			<path fill="#C3BF79" stroke="#000000" stroke-width="0.5" stroke-miterlimit="10" d="M248.646,118.633
				c1.791-0.668,3.531-1.484,5.209-2.396l0.064-0.082l-0.205-2.012l-0.08-0.068c-1.83-0.549-3.693-0.998-5.582-1.291"/>
			<path fill="#C3BF79" stroke="#000000" stroke-width="0.5" stroke-miterlimit="10" d="M246.178,101.928
				c1.68-0.908,3.281-1.959,4.814-3.092l0.053-0.091l-0.482-1.964l-0.09-0.056c-1.885-0.294-3.789-0.476-5.695-0.503"/>
			<path fill="#C3BF79" stroke="#000000" stroke-width="0.5" stroke-miterlimit="10" d="M164.512,12.609
				c0.045-1.905-0.061-3.813-0.271-5.706l-0.053-0.092l-1.943-0.563l-0.092,0.049c-1.191,1.484-2.309,3.041-3.281,4.68"/>
			<path fill="#C3BF79" stroke="#000000" stroke-width="0.5" stroke-miterlimit="10" d="M180.215,18.814
				c0.313-1.881,0.473-3.784,0.525-5.688l-0.039-0.098l-1.844-0.828l-0.1,0.035c-1.389,1.303-2.693,2.695-3.891,4.176"/>
			<path fill="#C3BF79" stroke="#000000" stroke-width="0.5" stroke-miterlimit="10" d="M172.473,15.433
				c0.178-1.896,0.213-3.806,0.127-5.706l-0.047-0.095l-1.898-0.697l-0.096,0.042c-1.291,1.398-2.494,2.878-3.588,4.436"/>
			<path fill="#C3BF79" stroke="#000000" stroke-width="0.5" stroke-miterlimit="10" d="M139.725,7.565
				c-0.354-1.882-0.846-3.735-1.453-5.55l-0.07-0.078l-2.018-0.147l-0.08,0.066c-0.863,1.71-1.631,3.472-2.246,5.285"/>
			<path fill="#C3BF79" stroke="#000000" stroke-width="0.5" stroke-miterlimit="10" d="M156.371,10.352
				c-0.08-1.906-0.318-3.809-0.668-5.682l-0.057-0.087l-1.979-0.426l-0.088,0.055c-1.092,1.565-2.092,3.202-2.953,4.907"/>
			<path fill="#C3BF79" stroke="#000000" stroke-width="0.5" stroke-miterlimit="10" d="M214.391,43.287
				c0.943-1.67,1.754-3.412,2.459-5.195l-0.004-0.105l-1.451-1.409h-0.104c-1.76,0.751-3.486,1.609-5.123,2.606"/>
			<path fill="#C3BF79" stroke="#000000" stroke-width="0.5" stroke-miterlimit="10" d="M148.098,8.669
				c-0.213-1.898-0.586-3.783-1.064-5.631l-0.064-0.083l-2.002-0.287l-0.084,0.062c-0.979,1.646-1.863,3.347-2.607,5.11"/>
			<path fill="#C3BF79" stroke="#000000" stroke-width="0.5" stroke-miterlimit="10" d="M187.701,22.732
				c0.436-1.859,0.736-3.746,0.924-5.648l-0.031-0.1l-1.783-0.955l-0.102,0.029c-1.477,1.204-2.885,2.502-4.178,3.9"/>
			<path fill="#C3BF79" stroke="#000000" stroke-width="0.5" stroke-miterlimit="10" d="M201.764,32.082
				c0.701-1.781,1.26-3.62,1.707-5.481l-0.018-0.103l-1.633-1.194l-0.104,0.015c-1.639,0.99-3.205,2.091-4.695,3.292"/>
			<path fill="#C3BF79" stroke="#000000" stroke-width="0.5" stroke-miterlimit="10" d="M208.273,37.467
				c0.822-1.731,1.512-3.525,2.088-5.354l-0.012-0.105l-1.545-1.304l-0.104,0.007c-1.705,0.872-3.354,1.858-4.92,2.96"/>
			<path fill="#C3BF79" stroke="#000000" stroke-width="0.5" stroke-miterlimit="10" d="M194.896,27.164
				c0.572-1.824,1.008-3.695,1.318-5.581l-0.025-0.102l-1.713-1.076l-0.102,0.021c-1.557,1.107-3.053,2.302-4.447,3.606"/>
			<path fill="#C3BF79" stroke="#000000" stroke-width="0.5" stroke-miterlimit="10" d="M247.703,110.237
				c1.738-0.791,3.412-1.729,5.025-2.751l0.057-0.087l-0.344-1.993l-0.084-0.062c-1.861-0.422-3.75-0.739-5.654-0.899"/>
			<path fill="#C3BF79" stroke="#000000" stroke-width="0.5" stroke-miterlimit="10" d="M215.684,211.386
				c1.697,0.886,3.471,1.627,5.271,2.271l0.104-0.008l1.357-1.499l-0.002-0.104c-0.811-1.731-1.729-3.422-2.779-5.021"/>
			<path fill="#C3BF79" stroke="#000000" stroke-width="0.5" stroke-miterlimit="10" d="M196.439,227.793
				c1.477,1.216,3.045,2.321,4.676,3.318l0.104,0.016l1.639-1.185l0.02-0.104c-0.436-1.862-0.982-3.706-1.676-5.491"/>
			<path fill="#C3BF79" stroke="#000000" stroke-width="0.5" stroke-miterlimit="10" d="M203.225,222.777
				c1.551,1.119,3.211,2.1,4.904,2.983l0.105,0.007l1.553-1.295l0.01-0.104c-0.559-1.83-1.246-3.626-2.061-5.359"/>
			<path fill="#C3BF79" stroke="#000000" stroke-width="0.5" stroke-miterlimit="10" d="M209.654,217.293
				c1.633,1.002,3.346,1.878,5.1,2.64h0.104l1.461-1.401l0.004-0.104c-0.699-1.784-1.492-3.533-2.426-5.207"/>
			<path fill="#C3BF79" stroke="#000000" stroke-width="0.5" stroke-miterlimit="10" d="M181.895,236.357
				c1.295,1.402,2.688,2.713,4.158,3.926l0.1,0.029l1.789-0.944l0.033-0.1c-0.174-1.9-0.455-3.796-0.893-5.656"/>
			<path fill="#C3BF79" stroke="#000000" stroke-width="0.5" stroke-miterlimit="10" d="M189.316,232.328
				c1.387,1.314,2.871,2.529,4.428,3.632l0.102,0.022l1.719-1.066l0.025-0.102c-0.303-1.889-0.725-3.76-1.285-5.589"/>
			<path fill="#C3BF79" stroke="#000000" stroke-width="0.5" stroke-miterlimit="10" d="M174.211,239.857
				c1.186,1.49,2.488,2.891,3.867,4.202l0.1,0.036l1.85-0.817l0.039-0.097c-0.039-1.904-0.188-3.814-0.492-5.697"/>
			<path fill="#C3BF79" stroke="#000000" stroke-width="0.5" stroke-miterlimit="10" d="M141.57,248.24
				c0.732,1.77,1.611,3.479,2.578,5.127l0.084,0.062l2.004-0.275l0.064-0.082c0.486-1.848,0.875-3.728,1.098-5.624"/>
			<path fill="#C3BF79" stroke="#000000" stroke-width="0.5" stroke-miterlimit="10" d="M149.932,247.014
				c0.854,1.709,1.844,3.348,2.922,4.922l0.09,0.056l1.979-0.415l0.061-0.087c0.357-1.872,0.602-3.768,0.701-5.673"/>
			<path fill="#C3BF79" stroke="#000000" stroke-width="0.5" stroke-miterlimit="10" d="M158.189,245.205
				c0.969,1.64,2.066,3.201,3.248,4.694l0.094,0.05l1.945-0.552l0.053-0.091c0.227-1.891,0.34-3.796,0.305-5.699"/>
			<path fill="#C3BF79" stroke="#000000" stroke-width="0.5" stroke-miterlimit="10" d="M166.297,242.811
				c1.084,1.567,2.281,3.053,3.564,4.46l0.096,0.043l1.902-0.687l0.045-0.095c0.105-1.899,0.074-3.814-0.094-5.711"/>
			<path fill="#C3BF79" stroke="#000000" stroke-width="0.5" stroke-miterlimit="10" d="M133.148,248.886
				c0.607,1.818,1.359,3.589,2.217,5.303l0.078,0.067l2.018-0.136l0.072-0.077c0.611-1.814,1.131-3.663,1.488-5.546"/>
			<path fill="#C3BF79" stroke="#000000" stroke-width="0.5" stroke-miterlimit="10" d="M244.594,160.46
				c1.906-0.016,3.813-0.186,5.693-0.469l0.09-0.056l0.494-1.961l-0.051-0.091c-1.533-1.136-3.123-2.194-4.793-3.117"/>
			<path fill="#C3BF79" stroke="#000000" stroke-width="0.5" stroke-miterlimit="10" d="M246.57,152.248
				c1.902-0.15,3.787-0.461,5.652-0.865l0.084-0.062l0.357-1.99l-0.059-0.087c-1.602-1.037-3.271-1.973-5.002-2.777"/>
			<path fill="#C3BF79" stroke="#000000" stroke-width="0.5" stroke-miterlimit="10" d="M221.289,205.066
				c1.754,0.766,3.572,1.379,5.414,1.898l0.104-0.015l1.25-1.591l-0.01-0.104c-0.939-1.666-1.973-3.275-3.123-4.803"/>
			<path fill="#C3BF79" stroke="#000000" stroke-width="0.5" stroke-miterlimit="10" d="M242.045,168.514
				c1.902,0.117,3.813,0.08,5.713-0.07l0.094-0.049l0.629-1.922l-0.045-0.094c-1.439-1.246-2.963-2.4-4.564-3.437"/>
			<path fill="#C3BF79" stroke="#000000" stroke-width="0.5" stroke-miterlimit="10" d="M247.961,143.92
				c1.891-0.279,3.758-0.718,5.59-1.26l0.08-0.066l0.217-2.012l-0.064-0.082c-1.674-0.925-3.412-1.75-5.199-2.429"/>
			<path fill="#C3BF79" stroke="#000000" stroke-width="0.5" stroke-miterlimit="10" d="M248.764,135.518
				c1.871-0.414,3.709-0.979,5.504-1.651l0.074-0.072l0.078-2.021l-0.07-0.078c-1.742-0.8-3.529-1.509-5.367-2.063"/>
			<path fill="#C3BF79" stroke="#000000" stroke-width="0.5" stroke-miterlimit="10" d="M226.441,198.373
				c1.801,0.642,3.658,1.132,5.531,1.514l0.102-0.021l1.135-1.674l-0.018-0.104c-1.051-1.594-2.189-3.131-3.447-4.57"/>
			<path fill="#C3BF79" stroke="#000000" stroke-width="0.5" stroke-miterlimit="10" d="M238.939,176.37
				c1.891,0.246,3.799,0.348,5.705,0.328l0.098-0.042l0.762-1.873l-0.039-0.097c-1.344-1.345-2.785-2.606-4.311-3.747"/>
			<path fill="#C3BF79" stroke="#000000" stroke-width="0.5" stroke-miterlimit="10" d="M231.117,191.336
				c1.842,0.508,3.721,0.869,5.615,1.123l0.102-0.029l1.016-1.748l-0.023-0.102c-1.16-1.518-2.406-2.963-3.756-4.315"/>
			<path fill="#C3BF79" stroke="#000000" stroke-width="0.5" stroke-miterlimit="10" d="M235.289,183.99
				c1.875,0.373,3.768,0.6,5.676,0.728l0.098-0.037l0.893-1.814l-0.031-0.1c-1.252-1.435-2.602-2.795-4.043-4.04"/>
			<path fill="#C3BF79" stroke="#000000" stroke-width="0.5" stroke-miterlimit="10" d="M11.924,162.255
				c-1.607,1.024-3.125,2.187-4.582,3.417l-0.047,0.095l0.619,1.926l0.094,0.049c1.898,0.165,3.811,0.204,5.713,0.104"/>
			<path fill="#C3BF79" stroke="#000000" stroke-width="0.5" stroke-miterlimit="10" d="M25.875,192.92
				c-1.262,1.434-2.42,2.959-3.475,4.551l-0.02,0.104l1.127,1.68l0.102,0.023c1.877-0.375,3.734-0.852,5.541-1.482"/>
			<path fill="#C3BF79" stroke="#000000" stroke-width="0.5" stroke-miterlimit="10" d="M21.588,185.646
				c-1.357,1.34-2.611,2.78-3.777,4.29l-0.025,0.102l1.006,1.754l0.102,0.03c1.893-0.247,3.777-0.587,5.619-1.089"/>
			<path fill="#C3BF79" stroke="#000000" stroke-width="0.5" stroke-miterlimit="10" d="M30.66,199.878
				c-1.164,1.52-2.215,3.125-3.156,4.79l-0.012,0.104l1.24,1.597l0.104,0.016c1.85-0.506,3.666-1.118,5.432-1.867"/>
			<path fill="#C3BF79" stroke="#000000" stroke-width="0.5" stroke-miterlimit="10" d="M17.822,178.086
				c-1.447,1.24-2.797,2.59-4.063,4.012l-0.033,0.101l0.881,1.82l0.1,0.036c1.904-0.107,3.803-0.327,5.676-0.693"/>
			<path fill="#C3BF79" stroke="#000000" stroke-width="0.5" stroke-miterlimit="10" d="M124.703,248.956
				c0.484,1.854,1.111,3.666,1.84,5.438l0.076,0.073l2.021,0.006l0.076-0.073c0.738-1.771,1.375-3.578,1.871-5.432"/>
			<path fill="#C3BF79" stroke="#000000" stroke-width="0.5" stroke-miterlimit="10" d="M8.301,145.762
				c-1.74,0.793-3.414,1.728-5.027,2.751l-0.059,0.088l0.346,1.992l0.084,0.063c1.861,0.422,3.75,0.737,5.654,0.899"/>
			<path fill="#C3BF79" stroke="#000000" stroke-width="0.5" stroke-miterlimit="10" d="M7.357,137.367
				c-1.789,0.672-3.529,1.482-5.211,2.396l-0.064,0.082l0.205,2.013l0.08,0.067c1.83,0.55,3.695,1,5.582,1.293"/>
			<path fill="#C3BF79" stroke="#000000" stroke-width="0.5" stroke-miterlimit="10" d="M41.615,212.715
				c-0.943,1.671-1.76,3.41-2.463,5.193l0.002,0.104l1.451,1.41h0.105c1.762-0.754,3.477-1.622,5.119-2.612"/>
			<path fill="#C3BF79" stroke="#000000" stroke-width="0.5" stroke-miterlimit="10" d="M9.824,154.072
				c-1.678,0.911-3.281,1.959-4.816,3.092l-0.053,0.091l0.484,1.964l0.088,0.056c1.887,0.284,3.789,0.474,5.697,0.502"/>
			<path fill="#C3BF79" stroke="#000000" stroke-width="0.5" stroke-miterlimit="10" d="M14.598,170.277
				c-1.529,1.137-2.975,2.387-4.334,3.72l-0.039,0.098l0.752,1.877l0.096,0.043c1.904,0.028,3.816-0.059,5.707-0.295"/>
			<path fill="#C3BF79" stroke="#000000" stroke-width="0.5" stroke-miterlimit="10" d="M7.012,128.924
				c-1.84,0.549-3.633,1.236-5.379,2.031l-0.07,0.078l0.064,2.021l0.076,0.073c1.791,0.678,3.621,1.254,5.49,1.682"/>
			<path fill="#C3BF79" stroke="#000000" stroke-width="0.5" stroke-miterlimit="10" d="M35.914,206.486
				c-1.057,1.6-1.99,3.278-2.818,5.005l-0.004,0.105l1.35,1.507l0.104,0.008c1.811-0.633,3.586-1.369,5.293-2.244"/>
			<path fill="#C3BF79" stroke="#000000" stroke-width="0.5" stroke-miterlimit="10" d="M99.629,245.648
				c0.08,1.905,0.318,3.809,0.668,5.681l0.059,0.087l1.977,0.427l0.088-0.055c1.094-1.565,2.092-3.203,2.955-4.907"/>
			<path fill="#C3BF79" stroke="#000000" stroke-width="0.5" stroke-miterlimit="10" d="M91.49,243.391
				c-0.047,1.905,0.061,3.813,0.27,5.706l0.053,0.091l1.943,0.563l0.092-0.05c1.191-1.483,2.311-3.04,3.283-4.68"/>
			<path fill="#C3BF79" stroke="#000000" stroke-width="0.5" stroke-miterlimit="10" d="M107.904,247.331
				c0.211,1.898,0.586,3.782,1.063,5.63l0.064,0.083l2.002,0.288l0.086-0.062c0.975-1.647,1.861-3.347,2.605-5.11"/>
			<path fill="#C3BF79" stroke="#000000" stroke-width="0.5" stroke-miterlimit="10" d="M83.531,240.567
				c-0.182,1.895-0.215,3.806-0.129,5.707l0.045,0.093l1.898,0.698l0.096-0.042c1.293-1.4,2.496-2.877,3.59-4.436"/>
			<path fill="#C3BF79" stroke="#000000" stroke-width="0.5" stroke-miterlimit="10" d="M116.275,248.435
				c0.352,1.882,0.852,3.735,1.455,5.551l0.07,0.078l2.016,0.146l0.082-0.067c0.861-1.708,1.629-3.471,2.246-5.284"/>
			<path fill="#C3BF79" stroke="#000000" stroke-width="0.5" stroke-miterlimit="10" d="M61.107,228.836
				c-0.576,1.824-1.006,3.695-1.32,5.58l0.023,0.103l1.713,1.076l0.102-0.021c1.559-1.104,3.057-2.299,4.449-3.606"/>
			<path fill="#C3BF79" stroke="#000000" stroke-width="0.5" stroke-miterlimit="10" d="M47.73,218.533
				c-0.83,1.729-1.516,3.527-2.092,5.354l0.012,0.104l1.545,1.305l0.105-0.007c1.703-0.875,3.354-1.857,4.92-2.961"/>
			<path fill="#C3BF79" stroke="#000000" stroke-width="0.5" stroke-miterlimit="10" d="M54.238,223.916
				c-0.699,1.783-1.262,3.621-1.709,5.482l0.018,0.104l1.633,1.193l0.104-0.014c1.637-0.994,3.215-2.083,4.697-3.293"/>
			<path fill="#C3BF79" stroke="#000000" stroke-width="0.5" stroke-miterlimit="10" d="M68.303,233.268
				c-0.439,1.859-0.738,3.746-0.928,5.648l0.031,0.1l1.783,0.954l0.102-0.027c1.473-1.212,2.881-2.503,4.18-3.901"/>
			<path fill="#C3BF79" stroke="#000000" stroke-width="0.5" stroke-miterlimit="10" d="M75.787,237.185
				c-0.314,1.882-0.473,3.785-0.527,5.69l0.039,0.097l1.846,0.828l0.098-0.036c1.391-1.303,2.695-2.695,3.893-4.176"/>
		</g>
		<path fill="#C3BF79" stroke="#000000" stroke-width="0.5" stroke-miterlimit="10" d="M249.004,128
			c0,66.828-54.174,121.002-121.002,121.002C61.172,249.002,7,194.828,7,128S61.172,6.998,128.002,6.998
			C194.83,6.998,249.004,61.172,249.004,128z M227.119,71.408c-37.32-49.353-115.342-13.93-89.404,48.188
			c11.01-56.548,83.984-57.771,103.182-7.53C238.891,97.447,234.121,83.712,227.119,71.408z M191.588,33.096
			C131.947,0.292,75.965,73.872,131.57,116.288c-19.234-55.924,47.229-94.007,88.871-55.26
			C212.553,50.104,202.777,40.632,191.588,33.096z M142.521,14.634l0.002,0.001c-74.662-5.492-89.785,92.614-17.926,101.863
			c-44.76-38.935-5.869-105.449,49.846-92.184c0.209,0.049,0.523-0.069,0.635-0.264c0.027-0.046,0.045-0.101,0.059-0.155
			C164.973,19.272,154.016,16.096,142.521,14.634z M83.352,22.801c-0.625,0.268-1.271,0.76-1.854,1.059
			c-64.996,33.316-29.102,123.961,37.16,96.306c-58.227-11.341-57.803-88.387-2.922-104.756c0.205-0.063,0.418-0.321,0.418-0.547
			c0-0.181-0.098-0.386-0.24-0.506C104.471,15.563,93.533,18.463,83.352,22.801z M33.494,63.976
			c-36.025,60.481,38.893,118.646,81.859,62.334c-56.1,19.286-94.248-47.659-54.898-89.272c0.15-0.152,0.205-0.484,0.094-0.68
			c-0.072-0.123-0.205-0.224-0.348-0.279C49.799,43.79,40.752,53.229,33.494,63.976z M14.039,127.681
			c0,0.969,0.014,1.935,0.035,2.897c7.863,61.148,92.898,69.364,101.488,2.705c-38.939,44.753-105.451,5.854-92.178-49.861
			c0.045-0.176-0.041-0.424-0.186-0.566C17.305,96.615,14.039,111.766,14.039,127.681z M34.805,193.277
			c38.801,40.415,109.25,5.405,84.426-54.059c-11.162,57.287-85.922,57.794-103.918,5.526
			C17.996,162.619,24.832,179.133,34.805,193.277z M83.396,232.58c51.865,11.224,91.898-51.97,41.979-90.055
			c18.439,53.625-41.912,90.838-83.621,59.646C53.053,215.241,67.271,225.715,83.396,232.58z M128.002,241.644
			c5.047,0,10.014-0.332,14.887-0.968c48.738-17.427,50.963-90.437-10.541-98.359c41.963,36.507,10.389,97.243-39.635,93.749
			C103.822,239.682,115.684,241.644,128.002,241.644z M196.248,218.957c34.068-39.426-0.547-104.281-57.965-80.309
			c54.168,10.551,57.568,77.951,13.6,100.481C168.246,235.64,183.313,228.645,196.248,218.957z M231.395,175.661
			c12.453-52.438-51.432-93.459-89.807-43.155c52.395-18.021,89.133,39.176,61.707,80.715
			C215.074,202.843,224.695,190.069,231.395,175.661z M241.965,127.681c0-1.8-0.047-3.59-0.129-5.369
			c-12.396-55.695-92.156-61.229-100.455,3.22c36.967-42.494,98.785-9.585,93.592,41.534
			C239.494,154.791,241.965,141.524,241.965,127.681z"/>
		<circle fill="none" stroke="#000000" stroke-width="0.5" stroke-miterlimit="10" cx="128.002" cy="128" r="116.529"/>
	</g>
</g>
<g id="titulo" display="none">
</g>
<g id="screenshots" display="none">
</g>
<g id="fondo_negro" display="none">
</g>
<g id="imagenes" display="none">
</g>
<g id="graficas" display="none">
</g>
<g id="texto" display="none">
</g>
<g id="bienvenido" display="none">
</g>
<g id="landpage" display="none">
	<g id="movil_horiz" display="inline">
		<defs>
			<rect id="SVGID_12_" x="-2819.013" y="983.109" width="217.259" height="123.013"/>
		</defs>
		<clipPath id="SVGID_2_">
			<use xlink:href="#SVGID_12_"  overflow="visible"/>
		</clipPath>
	</g>
	<g id="movil_vert_copia" display="inline">
		<defs>
			<rect id="SVGID_16_" x="-3030.578" y="935.626" width="123.013" height="217.259"/>
		</defs>
		<clipPath id="SVGID_4_">
			<use xlink:href="#SVGID_16_"  overflow="visible"/>
		</clipPath>
	</g>
	<g id="tableta_horizontal" display="inline">
		<defs>
			<rect id="SVGID_20_" x="-3521.185" y="899.44" width="409.16" height="288.831"/>
		</defs>
		<clipPath id="SVGID_6_">
			<use xlink:href="#SVGID_20_"  overflow="visible"/>
		</clipPath>
	</g>
	<g id="tableta_vert" display="inline">
		<defs>
			<rect id="SVGID_28_" x="-3885.562" y="839.664" width="287.964" height="409.479"/>
		</defs>
		<clipPath id="SVGID_8_">
			<use xlink:href="#SVGID_28_"  overflow="visible"/>
		</clipPath>
	</g>
	<g id="escritorio_1_" display="inline">
		<defs>
			<rect id="ventana" x="-4980.549" y="800.266" width="1024.5" height="487.98"/>
		</defs>
		<clipPath id="ventana_1_">
			<use xlink:href="#ventana"  overflow="visible"/>
		</clipPath>
	</g>
</g>
<g id="bocetos" display="none">
</g>
<g id="notas" display="none">
</g>
</svg>
