<?xml version="1.0" encoding="utf-8"?>
<!-- Generator: Adobe Illustrator 16.0.0, SVG Export Plug-In . SVG Version: 6.00 Build 0)  -->
<!DOCTYPE svg PUBLIC "-//W3C//DTD SVG 1.1//EN" "http://www.w3.org/Graphics/SVG/1.1/DTD/svg11.dtd">
<svg version="1.1" id="logos_modificados" xmlns="http://www.w3.org/2000/svg" xmlns:xlink="http://www.w3.org/1999/xlink" x="0px"
	 y="0px" width="718.262px" height="198.425px" viewBox="0 0 718.262 198.425" enable-background="new 0 0 718.262 198.425"
	 xml:space="preserve">
<metadata><?xpacket begin="﻿" id="W5M0MpCehiHzreSzNTczkc9d"?>
<x:xmpmeta xmlns:x="adobe:ns:meta/" x:xmptk="Adobe XMP Core 5.3-c011 66.145661, 2012/02/06-14:56:27        ">
   <rdf:RDF xmlns:rdf="http://www.w3.org/1999/02/22-rdf-syntax-ns#">
      <rdf:Description rdf:about=""
            xmlns:dc="http://purl.org/dc/elements/1.1/">
         <dc:format>image/svg+xml</dc:format>
         <dc:title>
            <rdf:Alt>
               <rdf:li xml:lang="x-default">Imprimir</rdf:li>
            </rdf:Alt>
         </dc:title>
      </rdf:Description>
      <rdf:Description rdf:about=""
            xmlns:xmp="http://ns.adobe.com/xap/1.0/"
            xmlns:xmpGImg="http://ns.adobe.com/xap/1.0/g/img/">
         <xmp:MetadataDate>2017-05-17T16:52:49+02:00</xmp:MetadataDate>
         <xmp:ModifyDate>2017-05-17T16:52:49+02:00</xmp:ModifyDate>
         <xmp:CreateDate>2017-05-17T16:52:49+02:00</xmp:CreateDate>
         <xmp:CreatorTool>Adobe Illustrator CS6 (Windows)</xmp:CreatorTool>
         <xmp:Thumbnails>
            <rdf:Alt>
               <rdf:li rdf:parseType="Resource">
                  <xmpGImg:width>256</xmpGImg:width>
                  <xmpGImg:height>20</xmpGImg:height>
                  <xmpGImg:format>JPEG</xmpGImg:format>
                  <xmpGImg:image>/9j/4AAQSkZJRgABAgEASABIAAD/7QAsUGhvdG9zaG9wIDMuMAA4QklNA+0AAAAAABAASAAAAAEA&#xA;AQBIAAAAAQAB/+4ADkFkb2JlAGTAAAAAAf/bAIQABgQEBAUEBgUFBgkGBQYJCwgGBggLDAoKCwoK&#xA;DBAMDAwMDAwQDA4PEA8ODBMTFBQTExwbGxscHx8fHx8fHx8fHwEHBwcNDA0YEBAYGhURFRofHx8f&#xA;Hx8fHx8fHx8fHx8fHx8fHx8fHx8fHx8fHx8fHx8fHx8fHx8fHx8fHx8fHx8f/8AAEQgAFAEAAwER&#xA;AAIRAQMRAf/EAaIAAAAHAQEBAQEAAAAAAAAAAAQFAwIGAQAHCAkKCwEAAgIDAQEBAQEAAAAAAAAA&#xA;AQACAwQFBgcICQoLEAACAQMDAgQCBgcDBAIGAnMBAgMRBAAFIRIxQVEGE2EicYEUMpGhBxWxQiPB&#xA;UtHhMxZi8CRygvElQzRTkqKyY3PCNUQnk6OzNhdUZHTD0uIIJoMJChgZhJRFRqS0VtNVKBry4/PE&#xA;1OT0ZXWFlaW1xdXl9WZ2hpamtsbW5vY3R1dnd4eXp7fH1+f3OEhYaHiImKi4yNjo+Ck5SVlpeYmZ&#xA;qbnJ2en5KjpKWmp6ipqqusra6voRAAICAQIDBQUEBQYECAMDbQEAAhEDBCESMUEFURNhIgZxgZEy&#xA;obHwFMHR4SNCFVJicvEzJDRDghaSUyWiY7LCB3PSNeJEgxdUkwgJChgZJjZFGidkdFU38qOzwygp&#xA;0+PzhJSktMTU5PRldYWVpbXF1eX1RlZmdoaWprbG1ub2R1dnd4eXp7fH1+f3OEhYaHiImKi4yNjo&#xA;+DlJWWl5iZmpucnZ6fkqOkpaanqKmqq6ytrq+v/aAAwDAQACEQMRAD8A9U4q7FXYq7FXYq7FXYq7&#xA;FXYq7FXYq7FXYq7FXYq7FXYq7FXYq7FXYq7FXYq7FXYq7FXYq7FXYq7FXYq7FXYq7FXYq7FXYq7F&#xA;XYq7FXYq7FXYq7FXYq7FXYq7FXYq7FXYq7FXYq7FXYq7FXYq7FXYq7FXYq7FXYq7FXYq7FXYq7FX&#xA;Yq7FXYq7FXYq7FXYq7FXYq7FXYq7FXYq7FXYq7FXYq7FXYq7FXYq7FXYq7FXYq7FXYq7FX//2Q==</xmpGImg:image>
               </rdf:li>
            </rdf:Alt>
         </xmp:Thumbnails>
      </rdf:Description>
      <rdf:Description rdf:about=""
            xmlns:xmpMM="http://ns.adobe.com/xap/1.0/mm/"
            xmlns:stRef="http://ns.adobe.com/xap/1.0/sType/ResourceRef#"
            xmlns:stEvt="http://ns.adobe.com/xap/1.0/sType/ResourceEvent#">
         <xmpMM:InstanceID>xmp.iid:3AD96E510D3BE71193B49311B3A8A5EB</xmpMM:InstanceID>
         <xmpMM:DocumentID>xmp.did:3AD96E510D3BE71193B49311B3A8A5EB</xmpMM:DocumentID>
         <xmpMM:OriginalDocumentID>uuid:5D20892493BFDB11914A8590D31508C8</xmpMM:OriginalDocumentID>
         <xmpMM:RenditionClass>proof:pdf</xmpMM:RenditionClass>
         <xmpMM:DerivedFrom rdf:parseType="Resource">
            <stRef:instanceID>uuid:3830af14-4edb-4590-ae2d-3887221a4759</stRef:instanceID>
            <stRef:documentID>xmp.did:7C255A545239E711A9E4EE361CDC43D9</stRef:documentID>
            <stRef:originalDocumentID>uuid:5D20892493BFDB11914A8590D31508C8</stRef:originalDocumentID>
            <stRef:renditionClass>proof:pdf</stRef:renditionClass>
         </xmpMM:DerivedFrom>
         <xmpMM:History>
            <rdf:Seq>
               <rdf:li rdf:parseType="Resource">
                  <stEvt:action>saved</stEvt:action>
                  <stEvt:instanceID>xmp.iid:7C255A545239E711A9E4EE361CDC43D9</stEvt:instanceID>
                  <stEvt:when>2017-05-15T11:39:02+02:00</stEvt:when>
                  <stEvt:softwareAgent>Adobe Illustrator CS6 (Windows)</stEvt:softwareAgent>
                  <stEvt:changed>/</stEvt:changed>
               </rdf:li>
               <rdf:li rdf:parseType="Resource">
                  <stEvt:action>saved</stEvt:action>
                  <stEvt:instanceID>xmp.iid:3AD96E510D3BE71193B49311B3A8A5EB</stEvt:instanceID>
                  <stEvt:when>2017-05-17T16:52:49+02:00</stEvt:when>
                  <stEvt:softwareAgent>Adobe Illustrator CS6 (Windows)</stEvt:softwareAgent>
                  <stEvt:changed>/</stEvt:changed>
               </rdf:li>
            </rdf:Seq>
         </xmpMM:History>
      </rdf:Description>
      <rdf:Description rdf:about=""
            xmlns:illustrator="http://ns.adobe.com/illustrator/1.0/">
         <illustrator:StartupProfile>Print</illustrator:StartupProfile>
      </rdf:Description>
      <rdf:Description rdf:about=""
            xmlns:xmpTPg="http://ns.adobe.com/xap/1.0/t/pg/"
            xmlns:stDim="http://ns.adobe.com/xap/1.0/sType/Dimensions#"
            xmlns:xmpG="http://ns.adobe.com/xap/1.0/g/">
         <xmpTPg:HasVisibleOverprint>True</xmpTPg:HasVisibleOverprint>
         <xmpTPg:HasVisibleTransparency>False</xmpTPg:HasVisibleTransparency>
         <xmpTPg:NPages>1</xmpTPg:NPages>
         <xmpTPg:MaxPageSize rdf:parseType="Resource">
            <stDim:w>309.033333</stDim:w>
            <stDim:h>69.999862</stDim:h>
            <stDim:unit>Millimeters</stDim:unit>
         </xmpTPg:MaxPageSize>
         <xmpTPg:SwatchGroups>
            <rdf:Seq>
               <rdf:li rdf:parseType="Resource">
                  <xmpG:groupName>Grupo de muestras por defecto</xmpG:groupName>
                  <xmpG:groupType>0</xmpG:groupType>
                  <xmpG:Colorants>
                     <rdf:Seq>
                        <rdf:li rdf:parseType="Resource">
                           <xmpG:swatchName>Blanco</xmpG:swatchName>
                           <xmpG:mode>CMYK</xmpG:mode>
                           <xmpG:type>PROCESS</xmpG:type>
                           <xmpG:cyan>0.000000</xmpG:cyan>
                           <xmpG:magenta>0.000000</xmpG:magenta>
                           <xmpG:yellow>0.000000</xmpG:yellow>
                           <xmpG:black>0.000000</xmpG:black>
                        </rdf:li>
                        <rdf:li rdf:parseType="Resource">
                           <xmpG:swatchName>Negro</xmpG:swatchName>
                           <xmpG:mode>CMYK</xmpG:mode>
                           <xmpG:type>PROCESS</xmpG:type>
                           <xmpG:cyan>0.000000</xmpG:cyan>
                           <xmpG:magenta>0.000000</xmpG:magenta>
                           <xmpG:yellow>0.000000</xmpG:yellow>
                           <xmpG:black>100.000000</xmpG:black>
                        </rdf:li>
                        <rdf:li rdf:parseType="Resource">
                           <xmpG:swatchName>Rojo CMYK</xmpG:swatchName>
                           <xmpG:mode>CMYK</xmpG:mode>
                           <xmpG:type>PROCESS</xmpG:type>
                           <xmpG:cyan>0.000000</xmpG:cyan>
                           <xmpG:magenta>100.000000</xmpG:magenta>
                           <xmpG:yellow>100.000000</xmpG:yellow>
                           <xmpG:black>0.000000</xmpG:black>
                        </rdf:li>
                        <rdf:li rdf:parseType="Resource">
                           <xmpG:swatchName>Amarillo CMYK</xmpG:swatchName>
                           <xmpG:mode>CMYK</xmpG:mode>
                           <xmpG:type>PROCESS</xmpG:type>
                           <xmpG:cyan>0.000000</xmpG:cyan>
                           <xmpG:magenta>0.000000</xmpG:magenta>
                           <xmpG:yellow>100.000000</xmpG:yellow>
                           <xmpG:black>0.000000</xmpG:black>
                        </rdf:li>
                        <rdf:li rdf:parseType="Resource">
                           <xmpG:swatchName>Verde CMYK</xmpG:swatchName>
                           <xmpG:mode>CMYK</xmpG:mode>
                           <xmpG:type>PROCESS</xmpG:type>
                           <xmpG:cyan>100.000000</xmpG:cyan>
                           <xmpG:magenta>0.000000</xmpG:magenta>
                           <xmpG:yellow>100.000000</xmpG:yellow>
                           <xmpG:black>0.000000</xmpG:black>
                        </rdf:li>
                        <rdf:li rdf:parseType="Resource">
                           <xmpG:swatchName>Cian CMYK</xmpG:swatchName>
                           <xmpG:mode>CMYK</xmpG:mode>
                           <xmpG:type>PROCESS</xmpG:type>
                           <xmpG:cyan>100.000000</xmpG:cyan>
                           <xmpG:magenta>0.000000</xmpG:magenta>
                           <xmpG:yellow>0.000000</xmpG:yellow>
                           <xmpG:black>0.000000</xmpG:black>
                        </rdf:li>
                        <rdf:li rdf:parseType="Resource">
                           <xmpG:swatchName>Azul CMYK</xmpG:swatchName>
                           <xmpG:mode>CMYK</xmpG:mode>
                           <xmpG:type>PROCESS</xmpG:type>
                           <xmpG:cyan>100.000000</xmpG:cyan>
                           <xmpG:magenta>100.000000</xmpG:magenta>
                           <xmpG:yellow>0.000000</xmpG:yellow>
                           <xmpG:black>0.000000</xmpG:black>
                        </rdf:li>
                        <rdf:li rdf:parseType="Resource">
                           <xmpG:swatchName>Magenta CMYK</xmpG:swatchName>
                           <xmpG:mode>CMYK</xmpG:mode>
                           <xmpG:type>PROCESS</xmpG:type>
                           <xmpG:cyan>0.000000</xmpG:cyan>
                           <xmpG:magenta>100.000000</xmpG:magenta>
                           <xmpG:yellow>0.000000</xmpG:yellow>
                           <xmpG:black>0.000000</xmpG:black>
                        </rdf:li>
                        <rdf:li rdf:parseType="Resource">
                           <xmpG:swatchName>C=15 M=100 Y=90 K=10</xmpG:swatchName>
                           <xmpG:mode>CMYK</xmpG:mode>
                           <xmpG:type>PROCESS</xmpG:type>
                           <xmpG:cyan>14.999998</xmpG:cyan>
                           <xmpG:magenta>100.000000</xmpG:magenta>
                           <xmpG:yellow>90.000000</xmpG:yellow>
                           <xmpG:black>10.000002</xmpG:black>
                        </rdf:li>
                        <rdf:li rdf:parseType="Resource">
                           <xmpG:swatchName>C=0 M=90 Y=85 K=0</xmpG:swatchName>
                           <xmpG:mode>CMYK</xmpG:mode>
                           <xmpG:type>PROCESS</xmpG:type>
                           <xmpG:cyan>0.000000</xmpG:cyan>
                           <xmpG:magenta>90.000000</xmpG:magenta>
                           <xmpG:yellow>85.000000</xmpG:yellow>
                           <xmpG:black>0.000000</xmpG:black>
                        </rdf:li>
                        <rdf:li rdf:parseType="Resource">
                           <xmpG:swatchName>C=0 M=80 Y=95 K=0</xmpG:swatchName>
                           <xmpG:mode>CMYK</xmpG:mode>
                           <xmpG:type>PROCESS</xmpG:type>
                           <xmpG:cyan>0.000000</xmpG:cyan>
                           <xmpG:magenta>80.000000</xmpG:magenta>
                           <xmpG:yellow>95.000000</xmpG:yellow>
                           <xmpG:black>0.000000</xmpG:black>
                        </rdf:li>
                        <rdf:li rdf:parseType="Resource">
                           <xmpG:swatchName>C=0 M=50 Y=100 K=0</xmpG:swatchName>
                           <xmpG:mode>CMYK</xmpG:mode>
                           <xmpG:type>PROCESS</xmpG:type>
                           <xmpG:cyan>0.000000</xmpG:cyan>
                           <xmpG:magenta>50.000000</xmpG:magenta>
                           <xmpG:yellow>100.000000</xmpG:yellow>
                           <xmpG:black>0.000000</xmpG:black>
                        </rdf:li>
                        <rdf:li rdf:parseType="Resource">
                           <xmpG:swatchName>C=0 M=35 Y=85 K=0</xmpG:swatchName>
                           <xmpG:mode>CMYK</xmpG:mode>
                           <xmpG:type>PROCESS</xmpG:type>
                           <xmpG:cyan>0.000000</xmpG:cyan>
                           <xmpG:magenta>35.000004</xmpG:magenta>
                           <xmpG:yellow>85.000000</xmpG:yellow>
                           <xmpG:black>0.000000</xmpG:black>
                        </rdf:li>
                        <rdf:li rdf:parseType="Resource">
                           <xmpG:swatchName>C=5 M=0 Y=90 K=0</xmpG:swatchName>
                           <xmpG:mode>CMYK</xmpG:mode>
                           <xmpG:type>PROCESS</xmpG:type>
                           <xmpG:cyan>5.000001</xmpG:cyan>
                           <xmpG:magenta>0.000000</xmpG:magenta>
                           <xmpG:yellow>90.000000</xmpG:yellow>
                           <xmpG:black>0.000000</xmpG:black>
                        </rdf:li>
                        <rdf:li rdf:parseType="Resource">
                           <xmpG:swatchName>C=20 M=0 Y=100 K=0</xmpG:swatchName>
                           <xmpG:mode>CMYK</xmpG:mode>
                           <xmpG:type>PROCESS</xmpG:type>
                           <xmpG:cyan>19.999998</xmpG:cyan>
                           <xmpG:magenta>0.000000</xmpG:magenta>
                           <xmpG:yellow>100.000000</xmpG:yellow>
                           <xmpG:black>0.000000</xmpG:black>
                        </rdf:li>
                        <rdf:li rdf:parseType="Resource">
                           <xmpG:swatchName>C=50 M=0 Y=100 K=0</xmpG:swatchName>
                           <xmpG:mode>CMYK</xmpG:mode>
                           <xmpG:type>PROCESS</xmpG:type>
                           <xmpG:cyan>50.000000</xmpG:cyan>
                           <xmpG:magenta>0.000000</xmpG:magenta>
                           <xmpG:yellow>100.000000</xmpG:yellow>
                           <xmpG:black>0.000000</xmpG:black>
                        </rdf:li>
                        <rdf:li rdf:parseType="Resource">
                           <xmpG:swatchName>C=75 M=0 Y=100 K=0</xmpG:swatchName>
                           <xmpG:mode>CMYK</xmpG:mode>
                           <xmpG:type>PROCESS</xmpG:type>
                           <xmpG:cyan>75.000000</xmpG:cyan>
                           <xmpG:magenta>0.000000</xmpG:magenta>
                           <xmpG:yellow>100.000000</xmpG:yellow>
                           <xmpG:black>0.000000</xmpG:black>
                        </rdf:li>
                        <rdf:li rdf:parseType="Resource">
                           <xmpG:swatchName>C=85 M=10 Y=100 K=10</xmpG:swatchName>
                           <xmpG:mode>CMYK</xmpG:mode>
                           <xmpG:type>PROCESS</xmpG:type>
                           <xmpG:cyan>85.000000</xmpG:cyan>
                           <xmpG:magenta>10.000002</xmpG:magenta>
                           <xmpG:yellow>100.000000</xmpG:yellow>
                           <xmpG:black>10.000002</xmpG:black>
                        </rdf:li>
                        <rdf:li rdf:parseType="Resource">
                           <xmpG:swatchName>C=90 M=30 Y=95 K=30</xmpG:swatchName>
                           <xmpG:mode>CMYK</xmpG:mode>
                           <xmpG:type>PROCESS</xmpG:type>
                           <xmpG:cyan>90.000000</xmpG:cyan>
                           <xmpG:magenta>30.000002</xmpG:magenta>
                           <xmpG:yellow>95.000000</xmpG:yellow>
                           <xmpG:black>30.000002</xmpG:black>
                        </rdf:li>
                        <rdf:li rdf:parseType="Resource">
                           <xmpG:swatchName>C=75 M=0 Y=75 K=0</xmpG:swatchName>
                           <xmpG:mode>CMYK</xmpG:mode>
                           <xmpG:type>PROCESS</xmpG:type>
                           <xmpG:cyan>75.000000</xmpG:cyan>
                           <xmpG:magenta>0.000000</xmpG:magenta>
                           <xmpG:yellow>75.000000</xmpG:yellow>
                           <xmpG:black>0.000000</xmpG:black>
                        </rdf:li>
                        <rdf:li rdf:parseType="Resource">
                           <xmpG:swatchName>C=80 M=10 Y=45 K=0</xmpG:swatchName>
                           <xmpG:mode>CMYK</xmpG:mode>
                           <xmpG:type>PROCESS</xmpG:type>
                           <xmpG:cyan>80.000000</xmpG:cyan>
                           <xmpG:magenta>10.000002</xmpG:magenta>
                           <xmpG:yellow>45.000000</xmpG:yellow>
                           <xmpG:black>0.000000</xmpG:black>
                        </rdf:li>
                        <rdf:li rdf:parseType="Resource">
                           <xmpG:swatchName>C=70 M=15 Y=0 K=0</xmpG:swatchName>
                           <xmpG:mode>CMYK</xmpG:mode>
                           <xmpG:type>PROCESS</xmpG:type>
                           <xmpG:cyan>70.000000</xmpG:cyan>
                           <xmpG:magenta>14.999998</xmpG:magenta>
                           <xmpG:yellow>0.000000</xmpG:yellow>
                           <xmpG:black>0.000000</xmpG:black>
                        </rdf:li>
                        <rdf:li rdf:parseType="Resource">
                           <xmpG:swatchName>C=85 M=50 Y=0 K=0</xmpG:swatchName>
                           <xmpG:mode>CMYK</xmpG:mode>
                           <xmpG:type>PROCESS</xmpG:type>
                           <xmpG:cyan>85.000000</xmpG:cyan>
                           <xmpG:magenta>50.000000</xmpG:magenta>
                           <xmpG:yellow>0.000000</xmpG:yellow>
                           <xmpG:black>0.000000</xmpG:black>
                        </rdf:li>
                        <rdf:li rdf:parseType="Resource">
                           <xmpG:swatchName>C=100 M=95 Y=5 K=0</xmpG:swatchName>
                           <xmpG:mode>CMYK</xmpG:mode>
                           <xmpG:type>PROCESS</xmpG:type>
                           <xmpG:cyan>100.000000</xmpG:cyan>
                           <xmpG:magenta>95.000000</xmpG:magenta>
                           <xmpG:yellow>5.000001</xmpG:yellow>
                           <xmpG:black>0.000000</xmpG:black>
                        </rdf:li>
                        <rdf:li rdf:parseType="Resource">
                           <xmpG:swatchName>C=100 M=100 Y=25 K=25</xmpG:swatchName>
                           <xmpG:mode>CMYK</xmpG:mode>
                           <xmpG:type>PROCESS</xmpG:type>
                           <xmpG:cyan>100.000000</xmpG:cyan>
                           <xmpG:magenta>100.000000</xmpG:magenta>
                           <xmpG:yellow>25.000000</xmpG:yellow>
                           <xmpG:black>25.000000</xmpG:black>
                        </rdf:li>
                        <rdf:li rdf:parseType="Resource">
                           <xmpG:swatchName>C=75 M=100 Y=0 K=0</xmpG:swatchName>
                           <xmpG:mode>CMYK</xmpG:mode>
                           <xmpG:type>PROCESS</xmpG:type>
                           <xmpG:cyan>75.000000</xmpG:cyan>
                           <xmpG:magenta>100.000000</xmpG:magenta>
                           <xmpG:yellow>0.000000</xmpG:yellow>
                           <xmpG:black>0.000000</xmpG:black>
                        </rdf:li>
                        <rdf:li rdf:parseType="Resource">
                           <xmpG:swatchName>C=50 M=100 Y=0 K=0</xmpG:swatchName>
                           <xmpG:mode>CMYK</xmpG:mode>
                           <xmpG:type>PROCESS</xmpG:type>
                           <xmpG:cyan>50.000000</xmpG:cyan>
                           <xmpG:magenta>100.000000</xmpG:magenta>
                           <xmpG:yellow>0.000000</xmpG:yellow>
                           <xmpG:black>0.000000</xmpG:black>
                        </rdf:li>
                        <rdf:li rdf:parseType="Resource">
                           <xmpG:swatchName>C=35 M=100 Y=35 K=10</xmpG:swatchName>
                           <xmpG:mode>CMYK</xmpG:mode>
                           <xmpG:type>PROCESS</xmpG:type>
                           <xmpG:cyan>35.000004</xmpG:cyan>
                           <xmpG:magenta>100.000000</xmpG:magenta>
                           <xmpG:yellow>35.000004</xmpG:yellow>
                           <xmpG:black>10.000002</xmpG:black>
                        </rdf:li>
                        <rdf:li rdf:parseType="Resource">
                           <xmpG:swatchName>C=10 M=100 Y=50 K=0</xmpG:swatchName>
                           <xmpG:mode>CMYK</xmpG:mode>
                           <xmpG:type>PROCESS</xmpG:type>
                           <xmpG:cyan>10.000002</xmpG:cyan>
                           <xmpG:magenta>100.000000</xmpG:magenta>
                           <xmpG:yellow>50.000000</xmpG:yellow>
                           <xmpG:black>0.000000</xmpG:black>
                        </rdf:li>
                        <rdf:li rdf:parseType="Resource">
                           <xmpG:swatchName>C=0 M=95 Y=20 K=0</xmpG:swatchName>
                           <xmpG:mode>CMYK</xmpG:mode>
                           <xmpG:type>PROCESS</xmpG:type>
                           <xmpG:cyan>0.000000</xmpG:cyan>
                           <xmpG:magenta>95.000000</xmpG:magenta>
                           <xmpG:yellow>19.999998</xmpG:yellow>
                           <xmpG:black>0.000000</xmpG:black>
                        </rdf:li>
                        <rdf:li rdf:parseType="Resource">
                           <xmpG:swatchName>C=25 M=25 Y=40 K=0</xmpG:swatchName>
                           <xmpG:mode>CMYK</xmpG:mode>
                           <xmpG:type>PROCESS</xmpG:type>
                           <xmpG:cyan>25.000000</xmpG:cyan>
                           <xmpG:magenta>25.000000</xmpG:magenta>
                           <xmpG:yellow>39.999996</xmpG:yellow>
                           <xmpG:black>0.000000</xmpG:black>
                        </rdf:li>
                        <rdf:li rdf:parseType="Resource">
                           <xmpG:swatchName>C=40 M=45 Y=50 K=5</xmpG:swatchName>
                           <xmpG:mode>CMYK</xmpG:mode>
                           <xmpG:type>PROCESS</xmpG:type>
                           <xmpG:cyan>39.999996</xmpG:cyan>
                           <xmpG:magenta>45.000000</xmpG:magenta>
                           <xmpG:yellow>50.000000</xmpG:yellow>
                           <xmpG:black>5.000001</xmpG:black>
                        </rdf:li>
                        <rdf:li rdf:parseType="Resource">
                           <xmpG:swatchName>C=50 M=50 Y=60 K=25</xmpG:swatchName>
                           <xmpG:mode>CMYK</xmpG:mode>
                           <xmpG:type>PROCESS</xmpG:type>
                           <xmpG:cyan>50.000000</xmpG:cyan>
                           <xmpG:magenta>50.000000</xmpG:magenta>
                           <xmpG:yellow>60.000004</xmpG:yellow>
                           <xmpG:black>25.000000</xmpG:black>
                        </rdf:li>
                        <rdf:li rdf:parseType="Resource">
                           <xmpG:swatchName>C=55 M=60 Y=65 K=40</xmpG:swatchName>
                           <xmpG:mode>CMYK</xmpG:mode>
                           <xmpG:type>PROCESS</xmpG:type>
                           <xmpG:cyan>55.000000</xmpG:cyan>
                           <xmpG:magenta>60.000004</xmpG:magenta>
                           <xmpG:yellow>65.000000</xmpG:yellow>
                           <xmpG:black>39.999996</xmpG:black>
                        </rdf:li>
                        <rdf:li rdf:parseType="Resource">
                           <xmpG:swatchName>C=25 M=40 Y=65 K=0</xmpG:swatchName>
                           <xmpG:mode>CMYK</xmpG:mode>
                           <xmpG:type>PROCESS</xmpG:type>
                           <xmpG:cyan>25.000000</xmpG:cyan>
                           <xmpG:magenta>39.999996</xmpG:magenta>
                           <xmpG:yellow>65.000000</xmpG:yellow>
                           <xmpG:black>0.000000</xmpG:black>
                        </rdf:li>
                        <rdf:li rdf:parseType="Resource">
                           <xmpG:swatchName>C=30 M=50 Y=75 K=10</xmpG:swatchName>
                           <xmpG:mode>CMYK</xmpG:mode>
                           <xmpG:type>PROCESS</xmpG:type>
                           <xmpG:cyan>30.000002</xmpG:cyan>
                           <xmpG:magenta>50.000000</xmpG:magenta>
                           <xmpG:yellow>75.000000</xmpG:yellow>
                           <xmpG:black>10.000002</xmpG:black>
                        </rdf:li>
                        <rdf:li rdf:parseType="Resource">
                           <xmpG:swatchName>C=35 M=60 Y=80 K=25</xmpG:swatchName>
                           <xmpG:mode>CMYK</xmpG:mode>
                           <xmpG:type>PROCESS</xmpG:type>
                           <xmpG:cyan>35.000004</xmpG:cyan>
                           <xmpG:magenta>60.000004</xmpG:magenta>
                           <xmpG:yellow>80.000000</xmpG:yellow>
                           <xmpG:black>25.000000</xmpG:black>
                        </rdf:li>
                        <rdf:li rdf:parseType="Resource">
                           <xmpG:swatchName>C=40 M=65 Y=90 K=35</xmpG:swatchName>
                           <xmpG:mode>CMYK</xmpG:mode>
                           <xmpG:type>PROCESS</xmpG:type>
                           <xmpG:cyan>39.999996</xmpG:cyan>
                           <xmpG:magenta>65.000000</xmpG:magenta>
                           <xmpG:yellow>90.000000</xmpG:yellow>
                           <xmpG:black>35.000004</xmpG:black>
                        </rdf:li>
                        <rdf:li rdf:parseType="Resource">
                           <xmpG:swatchName>C=40 M=70 Y=100 K=50</xmpG:swatchName>
                           <xmpG:mode>CMYK</xmpG:mode>
                           <xmpG:type>PROCESS</xmpG:type>
                           <xmpG:cyan>39.999996</xmpG:cyan>
                           <xmpG:magenta>70.000000</xmpG:magenta>
                           <xmpG:yellow>100.000000</xmpG:yellow>
                           <xmpG:black>50.000000</xmpG:black>
                        </rdf:li>
                        <rdf:li rdf:parseType="Resource">
                           <xmpG:swatchName>C=50 M=70 Y=80 K=70</xmpG:swatchName>
                           <xmpG:mode>CMYK</xmpG:mode>
                           <xmpG:type>PROCESS</xmpG:type>
                           <xmpG:cyan>50.000000</xmpG:cyan>
                           <xmpG:magenta>70.000000</xmpG:magenta>
                           <xmpG:yellow>80.000000</xmpG:yellow>
                           <xmpG:black>70.000000</xmpG:black>
                        </rdf:li>
                        <rdf:li rdf:parseType="Resource">
                           <xmpG:swatchName>Negro</xmpG:swatchName>
                           <xmpG:type>PROCESS</xmpG:type>
                           <xmpG:tint>100.000000</xmpG:tint>
                           <xmpG:mode>CMYK</xmpG:mode>
                           <xmpG:cyan>86.007500</xmpG:cyan>
                           <xmpG:magenta>84.969902</xmpG:magenta>
                           <xmpG:yellow>78.954796</xmpG:yellow>
                           <xmpG:black>100.000000</xmpG:black>
                        </rdf:li>
                        <rdf:li rdf:parseType="Resource">
                           <xmpG:swatchName>Blanco</xmpG:swatchName>
                           <xmpG:type>PROCESS</xmpG:type>
                           <xmpG:tint>100.000000</xmpG:tint>
                           <xmpG:mode>CMYK</xmpG:mode>
                           <xmpG:cyan>0.003100</xmpG:cyan>
                           <xmpG:magenta>0.003100</xmpG:magenta>
                           <xmpG:yellow>0.003100</xmpG:yellow>
                           <xmpG:black>0.003100</xmpG:black>
                        </rdf:li>
                        <rdf:li rdf:parseType="Resource">
                           <xmpG:swatchName>PANTONE 485 CVC</xmpG:swatchName>
                           <xmpG:type>SPOT</xmpG:type>
                           <xmpG:tint>100.000000</xmpG:tint>
                           <xmpG:mode>RGB</xmpG:mode>
                           <xmpG:red>191</xmpG:red>
                           <xmpG:green>0</xmpG:green>
                           <xmpG:blue>0</xmpG:blue>
                        </rdf:li>
                        <rdf:li rdf:parseType="Resource">
                           <xmpG:swatchName>PANTONE Yellow C</xmpG:swatchName>
                           <xmpG:type>SPOT</xmpG:type>
                           <xmpG:tint>100.000000</xmpG:tint>
                           <xmpG:mode>LAB</xmpG:mode>
                           <xmpG:L>89.019600</xmpG:L>
                           <xmpG:A>-1</xmpG:A>
                           <xmpG:B>111</xmpG:B>
                        </rdf:li>
                        <rdf:li rdf:parseType="Resource">
                           <xmpG:swatchName>PANTONE Reflex Blue C</xmpG:swatchName>
                           <xmpG:type>SPOT</xmpG:type>
                           <xmpG:tint>100.000000</xmpG:tint>
                           <xmpG:mode>LAB</xmpG:mode>
                           <xmpG:L>14.902000</xmpG:L>
                           <xmpG:A>32</xmpG:A>
                           <xmpG:B>-67</xmpG:B>
                        </rdf:li>
                     </rdf:Seq>
                  </xmpG:Colorants>
               </rdf:li>
               <rdf:li rdf:parseType="Resource">
                  <xmpG:groupName>Grises</xmpG:groupName>
                  <xmpG:groupType>1</xmpG:groupType>
                  <xmpG:Colorants>
                     <rdf:Seq>
                        <rdf:li rdf:parseType="Resource">
                           <xmpG:swatchName>C=0 M=0 Y=0 K=100</xmpG:swatchName>
                           <xmpG:mode>CMYK</xmpG:mode>
                           <xmpG:type>PROCESS</xmpG:type>
                           <xmpG:cyan>0.000000</xmpG:cyan>
                           <xmpG:magenta>0.000000</xmpG:magenta>
                           <xmpG:yellow>0.000000</xmpG:yellow>
                           <xmpG:black>100.000000</xmpG:black>
                        </rdf:li>
                        <rdf:li rdf:parseType="Resource">
                           <xmpG:swatchName>C=0 M=0 Y=0 K=90</xmpG:swatchName>
                           <xmpG:mode>CMYK</xmpG:mode>
                           <xmpG:type>PROCESS</xmpG:type>
                           <xmpG:cyan>0.000000</xmpG:cyan>
                           <xmpG:magenta>0.000000</xmpG:magenta>
                           <xmpG:yellow>0.000000</xmpG:yellow>
                           <xmpG:black>89.999405</xmpG:black>
                        </rdf:li>
                        <rdf:li rdf:parseType="Resource">
                           <xmpG:swatchName>C=0 M=0 Y=0 K=80</xmpG:swatchName>
                           <xmpG:mode>CMYK</xmpG:mode>
                           <xmpG:type>PROCESS</xmpG:type>
                           <xmpG:cyan>0.000000</xmpG:cyan>
                           <xmpG:magenta>0.000000</xmpG:magenta>
                           <xmpG:yellow>0.000000</xmpG:yellow>
                           <xmpG:black>79.998795</xmpG:black>
                        </rdf:li>
                        <rdf:li rdf:parseType="Resource">
                           <xmpG:swatchName>C=0 M=0 Y=0 K=70</xmpG:swatchName>
                           <xmpG:mode>CMYK</xmpG:mode>
                           <xmpG:type>PROCESS</xmpG:type>
                           <xmpG:cyan>0.000000</xmpG:cyan>
                           <xmpG:magenta>0.000000</xmpG:magenta>
                           <xmpG:yellow>0.000000</xmpG:yellow>
                           <xmpG:black>69.999702</xmpG:black>
                        </rdf:li>
                        <rdf:li rdf:parseType="Resource">
                           <xmpG:swatchName>C=0 M=0 Y=0 K=60</xmpG:swatchName>
                           <xmpG:mode>CMYK</xmpG:mode>
                           <xmpG:type>PROCESS</xmpG:type>
                           <xmpG:cyan>0.000000</xmpG:cyan>
                           <xmpG:magenta>0.000000</xmpG:magenta>
                           <xmpG:yellow>0.000000</xmpG:yellow>
                           <xmpG:black>59.999104</xmpG:black>
                        </rdf:li>
                        <rdf:li rdf:parseType="Resource">
                           <xmpG:swatchName>C=0 M=0 Y=0 K=50</xmpG:swatchName>
                           <xmpG:mode>CMYK</xmpG:mode>
                           <xmpG:type>PROCESS</xmpG:type>
                           <xmpG:cyan>0.000000</xmpG:cyan>
                           <xmpG:magenta>0.000000</xmpG:magenta>
                           <xmpG:yellow>0.000000</xmpG:yellow>
                           <xmpG:black>50.000000</xmpG:black>
                        </rdf:li>
                        <rdf:li rdf:parseType="Resource">
                           <xmpG:swatchName>C=0 M=0 Y=0 K=40</xmpG:swatchName>
                           <xmpG:mode>CMYK</xmpG:mode>
                           <xmpG:type>PROCESS</xmpG:type>
                           <xmpG:cyan>0.000000</xmpG:cyan>
                           <xmpG:magenta>0.000000</xmpG:magenta>
                           <xmpG:yellow>0.000000</xmpG:yellow>
                           <xmpG:black>39.999401</xmpG:black>
                        </rdf:li>
                        <rdf:li rdf:parseType="Resource">
                           <xmpG:swatchName>C=0 M=0 Y=0 K=30</xmpG:swatchName>
                           <xmpG:mode>CMYK</xmpG:mode>
                           <xmpG:type>PROCESS</xmpG:type>
                           <xmpG:cyan>0.000000</xmpG:cyan>
                           <xmpG:magenta>0.000000</xmpG:magenta>
                           <xmpG:yellow>0.000000</xmpG:yellow>
                           <xmpG:black>29.998802</xmpG:black>
                        </rdf:li>
                        <rdf:li rdf:parseType="Resource">
                           <xmpG:swatchName>C=0 M=0 Y=0 K=20</xmpG:swatchName>
                           <xmpG:mode>CMYK</xmpG:mode>
                           <xmpG:type>PROCESS</xmpG:type>
                           <xmpG:cyan>0.000000</xmpG:cyan>
                           <xmpG:magenta>0.000000</xmpG:magenta>
                           <xmpG:yellow>0.000000</xmpG:yellow>
                           <xmpG:black>19.999701</xmpG:black>
                        </rdf:li>
                        <rdf:li rdf:parseType="Resource">
                           <xmpG:swatchName>C=0 M=0 Y=0 K=10</xmpG:swatchName>
                           <xmpG:mode>CMYK</xmpG:mode>
                           <xmpG:type>PROCESS</xmpG:type>
                           <xmpG:cyan>0.000000</xmpG:cyan>
                           <xmpG:magenta>0.000000</xmpG:magenta>
                           <xmpG:yellow>0.000000</xmpG:yellow>
                           <xmpG:black>9.999103</xmpG:black>
                        </rdf:li>
                        <rdf:li rdf:parseType="Resource">
                           <xmpG:swatchName>C=0 M=0 Y=0 K=5</xmpG:swatchName>
                           <xmpG:mode>CMYK</xmpG:mode>
                           <xmpG:type>PROCESS</xmpG:type>
                           <xmpG:cyan>0.000000</xmpG:cyan>
                           <xmpG:magenta>0.000000</xmpG:magenta>
                           <xmpG:yellow>0.000000</xmpG:yellow>
                           <xmpG:black>4.998803</xmpG:black>
                        </rdf:li>
                     </rdf:Seq>
                  </xmpG:Colorants>
               </rdf:li>
               <rdf:li rdf:parseType="Resource">
                  <xmpG:groupName>Brillantes</xmpG:groupName>
                  <xmpG:groupType>1</xmpG:groupType>
                  <xmpG:Colorants>
                     <rdf:Seq>
                        <rdf:li rdf:parseType="Resource">
                           <xmpG:swatchName>C=0 M=100 Y=100 K=0</xmpG:swatchName>
                           <xmpG:mode>CMYK</xmpG:mode>
                           <xmpG:type>PROCESS</xmpG:type>
                           <xmpG:cyan>0.000000</xmpG:cyan>
                           <xmpG:magenta>100.000000</xmpG:magenta>
                           <xmpG:yellow>100.000000</xmpG:yellow>
                           <xmpG:black>0.000000</xmpG:black>
                        </rdf:li>
                        <rdf:li rdf:parseType="Resource">
                           <xmpG:swatchName>C=0 M=75 Y=100 K=0</xmpG:swatchName>
                           <xmpG:mode>CMYK</xmpG:mode>
                           <xmpG:type>PROCESS</xmpG:type>
                           <xmpG:cyan>0.000000</xmpG:cyan>
                           <xmpG:magenta>75.000000</xmpG:magenta>
                           <xmpG:yellow>100.000000</xmpG:yellow>
                           <xmpG:black>0.000000</xmpG:black>
                        </rdf:li>
                        <rdf:li rdf:parseType="Resource">
                           <xmpG:swatchName>C=0 M=10 Y=95 K=0</xmpG:swatchName>
                           <xmpG:mode>CMYK</xmpG:mode>
                           <xmpG:type>PROCESS</xmpG:type>
                           <xmpG:cyan>0.000000</xmpG:cyan>
                           <xmpG:magenta>10.000002</xmpG:magenta>
                           <xmpG:yellow>95.000000</xmpG:yellow>
                           <xmpG:black>0.000000</xmpG:black>
                        </rdf:li>
                        <rdf:li rdf:parseType="Resource">
                           <xmpG:swatchName>C=85 M=10 Y=100 K=0</xmpG:swatchName>
                           <xmpG:mode>CMYK</xmpG:mode>
                           <xmpG:type>PROCESS</xmpG:type>
                           <xmpG:cyan>85.000000</xmpG:cyan>
                           <xmpG:magenta>10.000002</xmpG:magenta>
                           <xmpG:yellow>100.000000</xmpG:yellow>
                           <xmpG:black>0.000000</xmpG:black>
                        </rdf:li>
                        <rdf:li rdf:parseType="Resource">
                           <xmpG:swatchName>C=100 M=90 Y=0 K=0</xmpG:swatchName>
                           <xmpG:mode>CMYK</xmpG:mode>
                           <xmpG:type>PROCESS</xmpG:type>
                           <xmpG:cyan>100.000000</xmpG:cyan>
                           <xmpG:magenta>90.000000</xmpG:magenta>
                           <xmpG:yellow>0.000000</xmpG:yellow>
                           <xmpG:black>0.000000</xmpG:black>
                        </rdf:li>
                        <rdf:li rdf:parseType="Resource">
                           <xmpG:swatchName>C=60 M=90 Y=0 K=0</xmpG:swatchName>
                           <xmpG:mode>CMYK</xmpG:mode>
                           <xmpG:type>PROCESS</xmpG:type>
                           <xmpG:cyan>60.000004</xmpG:cyan>
                           <xmpG:magenta>90.000000</xmpG:magenta>
                           <xmpG:yellow>0.003099</xmpG:yellow>
                           <xmpG:black>0.003099</xmpG:black>
                        </rdf:li>
                     </rdf:Seq>
                  </xmpG:Colorants>
               </rdf:li>
            </rdf:Seq>
         </xmpTPg:SwatchGroups>
      </rdf:Description>
      <rdf:Description rdf:about=""
            xmlns:pdf="http://ns.adobe.com/pdf/1.3/">
         <pdf:Producer>Adobe PDF library 10.01</pdf:Producer>
      </rdf:Description>
   </rdf:RDF>
</x:xmpmeta>
                                                                                                    
                                                                                                    
                                                                                                    
                                                                                                    
                                                                                                    
                                                                                                    
                                                                                                    
                                                                                                    
                                                                                                    
                                                                                                    
                                                                                                    
                                                                                                    
                                                                                                    
                                                                                                    
                                                                                                    
                                                                                                    
                                                                                                    
                                                                                                    
                                                                                                    
                                                                                                    
                           
<?xpacket end="w"?>
	</metadata>
<g>
	<path fill="#FFFFFF" d="M190.185,188.999l-179.907-0.083V65.082h179.907V188.999z M101.473,85.532l-1.611-4.855L101.473,85.532z
		 M99.861,80.68l-1.578,4.85v0.003l-5.014-0.009l-0.016,0.006l4.057,3.015l-1.594,4.926l4.175-3.049l4.185,3.061l-1.621-4.929
		l-0.009,0.009l4.178-3.024l-0.006,0.003l-5.164-0.009 M60.229,126.594l-1.618-4.865L60.229,126.594z M58.61,121.729l-1.563,4.852
		l-5.038-0.003v0.003l4.064,3.019l-1.593,4.922l4.169-3.049l4.19,3.061l-1.636-4.932v0.012l4.172-3.021l-5.161-0.006
		 M142.724,126.594l-1.618-4.865L142.724,126.594z M141.105,121.729l-1.563,4.852l-5.035-0.003v0.003l4.053,3.019l-1.584,4.922
		l4.163-3.049l4.189,3.061l-1.629-4.932l-0.007,0.012l4.175-3.021l-5.154-0.006 M122.045,90.974l-1.611-4.862L122.045,90.974z
		 M120.434,86.115l-1.569,4.849v0.006l-5.022-0.006l4.046,3.015l-1.587,4.925l4.169-3.052l4.19,3.064l-1.633-4.929l-0.01,0.013
		l4.182-3.027h-5.173 M137.185,106.11l-1.608-4.855L137.185,106.11z M135.576,101.255l-1.565,4.849h-5.032l4.049,3.018l-1.583,4.923
		l4.165-3.052l4.185,3.063l-1.621-4.928l-0.009,0.009l4.172-3.027l-5.154-0.003 M137.096,147.257l-1.627-4.855L137.096,147.257z
		 M135.469,142.405l-1.565,4.849l-5.026-0.006v0.006l4.06,3.021l-1.597,4.922l4.172-3.055l4.185,3.064l-1.621-4.932l-0.009,0.015
		l4.181-3.027h-0.009l-5.164-0.006 M122.045,162.302l-1.611-4.858L122.045,162.302z M120.434,157.444l-1.569,4.849v0.003
		l-5.022-0.003l4.046,3.021l-1.587,4.922l4.169-3.052l4.19,3.064l-1.633-4.926l-0.01,0.009l4.182-3.03v0.003l-5.173-0.003
		 M101.418,167.734l-1.6-4.853L101.418,167.734z M99.818,162.882l-1.577,4.846l-5.032-0.003v0.003l4.056,3.018l-1.594,4.926
		l4.169-3.049l4.19,3.064l-1.621-4.932l-0.009,0.009l4.169-3.027l-5.161-0.003 M80.758,162.396l-1.621-4.855L80.758,162.396z
		 M79.137,157.542l-1.568,4.849l-5.026-0.003v0.003l4.053,3.015l-1.593,4.929l4.172-3.046l4.187,3.055l-1.62-4.932l-0.01,0.009
		l4.175-3.018h-0.003l-5.163-0.006 M65.81,147.257l-1.62-4.855L65.81,147.257z M64.189,142.405l-1.565,4.849l-5.029-0.006v0.006
		l4.059,3.021l-1.593,4.922l4.172-3.055l4.178,3.064l-1.611-4.932l-0.01,0.015l4.175-3.027h-0.009l-5.164-0.006 M64.244,101.255
		l1.614,4.855L64.244,101.255z M64.244,101.255l-1.565,4.849h-5.032l4.043,3.018l-1.586,4.923l4.168-3.052l4.19,3.063l-1.627-4.928
		l-0.009,0.009l4.184-3.027l-5.17-0.003 M80.892,91.065l-1.608-4.855L80.892,91.065z M79.283,86.213l-1.565,4.846v0.003
		l-5.029-0.006v0.003l4.056,3.016l-1.596,4.928l4.172-3.048l4.189,3.061l-1.62-4.932l-0.024,0.012l4.184-3.027v0.006l-5.166-0.012"
		/>
	<g>
		<path fill="#FFFFFF" d="M219.502,68.464h8.231v22.079c0,3.503,0.101,5.774,0.305,6.812c0.354,1.669,1.193,3.009,2.518,4.02
			c1.325,1.01,3.138,1.514,5.436,1.514c2.335,0,4.099-0.477,5.282-1.432c1.188-0.955,1.901-2.127,2.143-3.516
			c0.241-1.392,0.36-3.699,0.36-6.924V68.464h8.233v21.411c0,4.895-0.223,8.353-0.668,10.373c-0.446,2.021-1.267,3.726-2.463,5.115
			c-1.193,1.392-2.793,2.5-4.795,3.323c-2.002,0.824-4.617,1.236-7.843,1.236c-3.891,0-6.845-0.449-8.856-1.346
			c-2.011-0.9-3.601-2.069-4.767-3.504c-1.169-1.437-1.938-2.945-2.31-4.52c-0.537-2.334-0.807-5.783-0.807-10.345V68.464z"/>
		<path fill="#FFFFFF" d="M289.766,109.229h-7.813V94.156c0-3.186-0.167-5.249-0.5-6.186c-0.336-0.937-0.876-1.664-1.627-2.182
			c-0.75-0.519-1.656-0.781-2.713-0.781c-1.352,0-2.566,0.372-3.641,1.114c-1.077,0.742-1.813,1.724-2.213,2.948
			c-0.396,1.224-0.598,3.485-0.598,6.784v13.376h-7.813V79.697h7.257v4.339c2.579-3.338,5.823-5.005,9.732-5.005
			c1.724,0,3.299,0.308,4.728,0.931c1.428,0.619,2.508,1.413,3.24,2.377s1.242,2.057,1.529,3.281s0.43,2.976,0.43,5.255V109.229z"/>
		<path fill="#FFFFFF" d="M299.968,75.693v-7.229h7.815v7.229H299.968z M299.968,109.229V79.697h7.815v29.532H299.968z"/>
		<path fill="#FFFFFF" d="M316.262,94.046c0-2.597,0.638-5.108,1.916-7.535c1.282-2.429,3.092-4.285,5.438-5.563
			c2.344-1.278,4.962-1.917,7.855-1.917c4.468,0,8.13,1.45,10.983,4.352c2.854,2.899,4.281,6.564,4.281,10.995
			c0,4.468-1.44,8.173-4.324,11.108c-2.884,2.939-6.51,4.41-10.886,4.41c-2.707,0-5.289-0.613-7.745-1.837
			c-2.454-1.224-4.321-3.018-5.604-5.38C316.899,100.315,316.262,97.437,316.262,94.046z M324.27,94.461
			c0,2.93,0.695,5.173,2.084,6.732c1.392,1.556,3.106,2.334,5.146,2.334c2.038,0,3.751-0.778,5.13-2.334
			c1.379-1.56,2.072-3.821,2.072-6.787c0-2.89-0.693-5.115-2.072-6.671c-1.379-1.56-3.092-2.337-5.13-2.337
			c-2.039,0-3.754,0.778-5.146,2.337C324.965,89.292,324.27,91.535,324.27,94.461z M327.55,76.084l3.839-8.316h8.756l-7.645,8.316
			H327.55z"/>
		<path fill="#FFFFFF" d="M373.287,109.229V68.464h30.225v6.896h-21.994v9.037h20.468v6.87h-20.468v11.093h22.775v6.87H373.287z"/>
		<path fill="#FFFFFF" d="M432.93,109.229v-4.422c-1.074,1.575-2.49,2.817-4.241,3.726c-1.752,0.909-3.602,1.364-5.548,1.364
			c-1.98,0-3.764-0.437-5.338-1.31c-1.574-0.87-2.717-2.093-3.418-3.671c-0.705-1.575-1.059-3.754-1.059-6.534V79.697h7.813v13.571
			c0,4.15,0.146,6.695,0.433,7.632c0.287,0.937,0.81,1.675,1.569,2.225c0.763,0.546,1.724,0.821,2.893,0.821
			c1.337,0,2.529-0.366,3.586-1.099c1.059-0.732,1.782-1.642,2.17-2.725c0.391-1.086,0.586-3.742,0.586-7.968V79.697h7.813v29.532
			H432.93z"/>
		<path fill="#FFFFFF" d="M458.037,109.229h-7.815V79.697h7.26v4.199c1.242-1.984,2.359-3.29,3.348-3.922
			c0.995-0.628,2.121-0.943,3.378-0.943c1.779,0,3.495,0.492,5.146,1.471l-2.418,6.814c-1.314-0.854-2.542-1.279-3.671-1.279
			c-1.096,0-2.021,0.299-2.78,0.903c-0.76,0.601-1.357,1.691-1.795,3.266c-0.436,1.578-0.652,4.876-0.652,9.9V109.229z"/>
		<path fill="#FFFFFF" d="M473.186,94.046c0-2.597,0.641-5.108,1.923-7.535c1.276-2.429,3.089-4.285,5.436-5.563
			c2.344-1.278,4.962-1.917,7.854-1.917c4.469,0,8.127,1.45,10.984,4.352c2.853,2.899,4.281,6.564,4.281,10.995
			c0,4.468-1.44,8.173-4.324,11.108c-2.885,2.939-6.51,4.41-10.886,4.41c-2.707,0-5.289-0.613-7.745-1.837
			c-2.457-1.224-4.324-3.018-5.601-5.38C473.826,100.315,473.186,97.437,473.186,94.046z M481.197,94.461
			c0,2.93,0.692,5.173,2.084,6.732c1.392,1.556,3.106,2.334,5.145,2.334c2.039,0,3.748-0.778,5.131-2.334
			c1.379-1.56,2.072-3.821,2.072-6.787c0-2.89-0.693-5.115-2.072-6.671c-1.383-1.56-3.092-2.337-5.131-2.337
			c-2.038,0-3.753,0.778-5.145,2.337C481.89,89.292,481.197,91.535,481.197,94.461z"/>
		<path fill="#FFFFFF" d="M511.836,79.697h7.285v4.339c0.945-1.483,2.225-2.688,3.836-3.616c1.614-0.928,3.402-1.389,5.368-1.389
			c3.431,0,6.339,1.343,8.731,4.032c2.393,2.688,3.588,6.433,3.588,11.233c0,4.932-1.205,8.765-3.615,11.496
			c-2.412,2.734-5.329,4.104-8.76,4.104c-1.632,0-3.109-0.327-4.437-0.977c-1.325-0.647-2.72-1.758-4.185-3.336v14.877h-7.813
			V79.697z M519.566,93.964c0,3.317,0.659,5.768,1.975,7.352c1.315,1.587,2.918,2.38,4.81,2.38c1.819,0,3.329-0.729,4.532-2.185
			c1.205-1.456,1.81-3.842,1.81-7.16c0-3.094-0.623-5.396-1.864-6.897c-1.242-1.501-2.781-2.252-4.615-2.252
			c-1.91,0-3.494,0.738-4.754,2.212C520.195,88.889,519.566,91.071,519.566,93.964z"/>
		<path fill="#FFFFFF" d="M566.225,99.83l7.785,1.306c-1.001,2.856-2.582,5.029-4.742,6.521c-2.158,1.492-4.861,2.24-8.105,2.24
			c-5.137,0-8.936-1.679-11.398-5.036c-1.95-2.686-2.92-6.079-2.92-10.177c0-4.892,1.278-8.725,3.836-11.496
			c2.557-2.771,5.792-4.157,9.704-4.157c4.395,0,7.861,1.45,10.4,4.352c2.539,2.899,3.754,7.346,3.644,13.333h-19.576
			c0.055,2.316,0.684,4.12,1.889,5.408s2.707,1.932,4.508,1.932c1.221,0,2.252-0.333,3.085-1.001S565.798,101.313,566.225,99.83z
			 M566.668,91.932c-0.056-2.261-0.639-3.979-1.752-5.157c-1.111-1.178-2.463-1.767-4.059-1.767c-1.707,0-3.113,0.623-4.228,1.865
			c-1.11,1.242-1.66,2.93-1.639,5.06H566.668z"/>
		<path fill="#FFFFFF" d="M588.912,88.706l-7.093-1.279c0.8-2.854,2.17-4.968,4.116-6.338c1.947-1.374,4.838-2.057,8.677-2.057
			c3.485,0,6.079,0.412,7.785,1.236c1.706,0.824,2.905,1.874,3.601,3.144c0.696,1.27,1.044,3.601,1.044,6.992l-0.085,9.122
			c0,2.594,0.125,4.507,0.375,5.74s0.721,2.555,1.406,3.964h-7.732c-0.201-0.519-0.455-1.288-0.751-2.307
			c-0.128-0.464-0.223-0.772-0.277-0.918c-1.334,1.297-2.763,2.271-4.282,2.917c-1.52,0.65-3.14,0.977-4.867,0.977
			c-3.039,0-5.436-0.827-7.188-2.478c-1.751-1.648-2.627-3.735-2.627-6.256c0-1.666,0.4-3.155,1.196-4.461s1.913-2.307,3.351-3.003
			s3.507-1.303,6.214-1.822c3.653-0.687,6.183-1.325,7.593-1.92v-0.778c0-1.501-0.373-2.572-1.114-3.21
			c-0.741-0.641-2.14-0.961-4.196-0.961c-1.392,0-2.478,0.274-3.256,0.821C590.025,86.377,589.394,87.336,588.912,88.706z
			 M599.367,95.047c-1.001,0.333-2.588,0.732-4.755,1.196c-2.17,0.461-3.589,0.916-4.254,1.361c-1.02,0.723-1.529,1.642-1.529,2.752
			c0,1.096,0.406,2.039,1.224,2.838c0.814,0.796,1.853,1.193,3.113,1.193c1.41,0,2.752-0.46,4.031-1.388
			c0.945-0.705,1.568-1.569,1.864-2.588c0.202-0.666,0.306-1.935,0.306-3.809V95.047z"/>
		<g>
			<path fill="#FFFFFF" d="M218.913,154.313V120.34h23.288v5.75h-16.428v8.039h14.182v5.747h-14.182v14.438H218.913z"/>
			<path fill="#FFFFFF" d="M248.201,141.66c0-2.164,0.531-4.254,1.6-6.281c1.064-2.023,2.575-3.567,4.528-4.632
				c1.953-1.068,4.138-1.599,6.546-1.599c3.724,0,6.775,1.208,9.152,3.625c2.381,2.417,3.57,5.472,3.57,9.164
				c0,3.72-1.202,6.809-3.604,9.259c-2.402,2.448-5.427,3.671-9.07,3.671c-2.255,0-4.41-0.51-6.454-1.529
				c-2.048-1.019-3.604-2.515-4.669-4.483C248.732,146.885,248.201,144.486,248.201,141.66z M254.875,142.008
				c0,2.441,0.577,4.309,1.736,5.606c1.16,1.3,2.588,1.947,4.288,1.947c1.697,0,3.122-0.647,4.275-1.947
				c1.15-1.297,1.725-3.183,1.725-5.652c0-2.411-0.574-4.266-1.725-5.563c-1.153-1.297-2.578-1.944-4.275-1.944
				c-1.7,0-3.128,0.646-4.288,1.944C255.452,137.696,254.875,139.566,254.875,142.008z"/>
			<path fill="#FFFFFF" d="M302.978,154.313h-6.513v-12.561c0-2.655-0.138-4.376-0.415-5.154c-0.281-0.778-0.729-1.389-1.358-1.819
				c-0.625-0.434-1.376-0.65-2.258-0.65c-1.129,0-2.14,0.311-3.037,0.928c-0.894,0.616-1.51,1.437-1.84,2.457
				c-0.333,1.02-0.5,2.905-0.5,5.655v11.145h-6.51v-24.609h6.049v3.616c2.145-2.783,4.849-4.171,8.108-4.171
				c1.438,0,2.749,0.259,3.939,0.775c1.188,0.519,2.091,1.178,2.698,1.98c0.61,0.803,1.037,1.715,1.275,2.734
				c0.241,1.02,0.36,2.481,0.36,4.379V154.313z"/>
			<path fill="#FFFFFF" d="M309.188,147.291l6.534-0.995c0.277,1.263,0.839,2.228,1.69,2.884s2.038,0.985,3.567,0.985
				c1.685,0,2.951-0.311,3.803-0.928c0.57-0.43,0.857-1.01,0.857-1.736c0-0.497-0.155-0.906-0.464-1.229
				c-0.323-0.312-1.053-0.592-2.179-0.858c-5.253-1.16-8.582-2.215-9.989-3.174c-1.946-1.331-2.917-3.174-2.917-5.539
				c0-2.133,0.839-3.925,2.523-5.375c1.685-1.453,4.294-2.179,7.834-2.179c3.366,0,5.869,0.546,7.508,1.645
				c1.639,1.095,2.765,2.719,3.381,4.864l-6.14,1.135c-0.263-0.955-0.76-1.691-1.492-2.2c-0.736-0.51-1.782-0.763-3.141-0.763
				c-1.715,0-2.941,0.238-3.687,0.717c-0.491,0.339-0.738,0.778-0.738,1.321c0,0.464,0.214,0.858,0.646,1.181
				c0.586,0.434,2.612,1.044,6.082,1.831s5.891,1.752,7.267,2.896c1.358,1.16,2.039,2.771,2.039,4.843
				c0,2.258-0.943,4.193-2.829,5.816c-1.884,1.621-4.673,2.433-8.365,2.433c-3.351,0-6.006-0.681-7.959-2.039
				S309.789,149.622,309.188,147.291z"/>
			<path fill="#FFFFFF" d="M352.559,147.291l6.537-0.995c0.278,1.263,0.84,2.228,1.691,2.884c0.848,0.656,2.038,0.985,3.567,0.985
				c1.685,0,2.95-0.311,3.799-0.928c0.574-0.43,0.857-1.01,0.857-1.736c0-0.497-0.155-0.906-0.46-1.229
				c-0.327-0.312-1.051-0.592-2.18-0.858c-5.255-1.16-8.581-2.215-9.988-3.174c-1.947-1.331-2.92-3.174-2.92-5.539
				c0-2.133,0.842-3.925,2.526-5.375c1.685-1.453,4.294-2.179,7.831-2.179c3.369,0,5.871,0.546,7.507,1.645
				c1.642,1.095,2.765,2.719,3.385,4.864l-6.141,1.135c-0.262-0.955-0.76-1.691-1.495-2.2c-0.735-0.51-1.779-0.763-3.137-0.763
				c-1.719,0-2.945,0.238-3.687,0.717c-0.495,0.339-0.742,0.778-0.742,1.321c0,0.464,0.217,0.858,0.65,1.181
				c0.586,0.434,2.612,1.044,6.082,1.831s5.89,1.752,7.263,2.896c1.361,1.16,2.039,2.771,2.039,4.843
				c0,2.258-0.939,4.193-2.826,5.816c-1.883,1.621-4.672,2.433-8.364,2.433c-3.354,0-6.006-0.681-7.959-2.039
				S353.163,149.622,352.559,147.291z"/>
			<path fill="#FFFFFF" d="M381.639,141.66c0-2.164,0.531-4.254,1.597-6.281c1.068-2.023,2.579-3.567,4.532-4.632
				c1.953-1.068,4.135-1.599,6.546-1.599c3.723,0,6.771,1.208,9.151,3.625c2.381,2.417,3.571,5.472,3.571,9.164
				c0,3.72-1.202,6.809-3.604,9.259c-2.404,2.448-5.426,3.671-9.069,3.671c-2.255,0-4.41-0.51-6.458-1.529
				c-2.045-1.019-3.601-2.515-4.669-4.483C382.17,146.885,381.639,144.486,381.639,141.66z M388.313,142.008
				c0,2.441,0.577,4.309,1.736,5.606c1.157,1.3,2.588,1.947,4.288,1.947c1.696,0,3.121-0.647,4.272-1.947
				c1.153-1.297,1.728-3.183,1.728-5.652c0-2.411-0.574-4.266-1.728-5.563c-1.151-1.297-2.576-1.944-4.272-1.944
				c-1.7,0-3.131,0.646-4.288,1.944C388.891,137.696,388.313,139.566,388.313,142.008z"/>
			<path fill="#FFFFFF" d="M435.487,136.979l-6.417,1.16c-0.217-1.282-0.709-2.249-1.475-2.896c-0.763-0.65-1.755-0.974-2.976-0.974
				c-1.62,0-2.914,0.559-3.882,1.679c-0.967,1.12-1.446,2.991-1.446,5.621c0,2.917,0.491,4.98,1.468,6.186
				c0.982,1.206,2.301,1.807,3.952,1.807c1.235,0,2.249-0.351,3.036-1.053c0.787-0.702,1.343-1.914,1.67-3.625l6.396,1.086
				c-0.669,2.936-1.941,5.154-3.824,6.653c-1.886,1.495-4.41,2.246-7.578,2.246c-3.601,0-6.469-1.135-8.608-3.406
				s-3.21-5.414-3.21-9.433c0-4.062,1.074-7.224,3.219-9.488c2.152-2.261,5.055-3.394,8.717-3.394c2.993,0,5.38,0.644,7.146,1.935
				C433.443,132.371,434.715,134.339,435.487,136.979z"/>
			<path fill="#FFFFFF" d="M442.323,126.368v-6.027h6.513v6.027H442.323z M442.323,154.313v-24.609h6.513v24.609H442.323z"/>
			<path fill="#FFFFFF" d="M462.273,137.21l-5.908-1.065c0.664-2.38,1.807-4.141,3.43-5.283c1.62-1.144,4.028-1.715,7.227-1.715
				c2.902,0,5.068,0.345,6.488,1.031c1.422,0.687,2.423,1.56,3,2.619c0.579,1.056,0.869,3,0.869,5.826l-0.07,7.602
				c0,2.164,0.104,3.76,0.314,4.785c0.207,1.025,0.598,2.13,1.169,3.302h-6.439c-0.171-0.43-0.378-1.077-0.626-1.922
				c-0.109-0.388-0.186-0.641-0.234-0.766c-1.111,1.08-2.301,1.889-3.567,2.432c-1.264,0.543-2.618,0.812-4.053,0.812
				c-2.533,0-4.532-0.687-5.991-2.063c-1.458-1.376-2.19-3.113-2.19-5.212c0-1.392,0.333-2.631,0.997-3.72
				c0.666-1.089,1.597-1.922,2.793-2.502c1.199-0.58,2.924-1.086,5.179-1.517c3.043-0.571,5.151-1.105,6.326-1.599v-0.65
				c0-1.251-0.308-2.143-0.928-2.677c-0.619-0.531-1.785-0.799-3.5-0.799c-1.159,0-2.06,0.229-2.71,0.684
				C463.201,135.267,462.673,136.066,462.273,137.21z M470.985,142.493c-0.836,0.281-2.154,0.613-3.964,0.998
				c-1.804,0.384-2.99,0.763-3.543,1.135c-0.852,0.601-1.275,1.367-1.275,2.295c0,0.913,0.342,1.7,1.019,2.362
				c0.678,0.662,1.548,0.998,2.597,0.998c1.176,0,2.293-0.385,3.357-1.16c0.791-0.589,1.307-1.306,1.554-2.155
				c0.167-0.555,0.256-1.614,0.256-3.174V142.493z"/>
			<path fill="#FFFFFF" d="M485.695,154.313V120.34h6.512v33.972H485.695z"/>
			<path fill="#FFFFFF" d="M530.11,146.479l6.488,1.09c-0.833,2.377-2.148,4.19-3.949,5.435c-1.801,1.242-4.05,1.865-6.757,1.865
				c-4.278,0-7.443-1.401-9.497-4.193c-1.623-2.24-2.435-5.066-2.435-8.48c0-4.081,1.064-7.272,3.197-9.583
				c2.131-2.31,4.828-3.463,8.088-3.463c3.662,0,6.552,1.208,8.667,3.625c2.114,2.417,3.128,6.119,3.033,11.111h-16.312
				c0.046,1.932,0.574,3.433,1.574,4.507c1.004,1.071,2.256,1.611,3.757,1.611c1.02,0,1.877-0.281,2.569-0.836
				C529.231,148.612,529.756,147.718,530.11,146.479z M530.482,139.899c-0.045-1.886-0.533-3.317-1.459-4.3
				c-0.928-0.979-2.057-1.471-3.384-1.471c-1.419,0-2.595,0.519-3.522,1.553s-1.382,2.441-1.367,4.218H530.482z"/>
			<path fill="#FFFFFF" d="M560.354,154.313v-3.684c-0.897,1.31-2.075,2.35-3.534,3.104c-1.462,0.757-3.003,1.135-4.624,1.135
				c-1.653,0-3.134-0.36-4.449-1.09c-1.314-0.726-2.264-1.745-2.85-3.058s-0.883-3.128-0.883-5.444v-15.573h6.513v11.307
				c0,3.464,0.122,5.582,0.36,6.363s0.674,1.395,1.309,1.853c0.633,0.458,1.436,0.684,2.408,0.684c1.114,0,2.109-0.306,2.991-0.916
				c0.879-0.607,1.483-1.367,1.807-2.271s0.485-3.116,0.485-6.637v-10.382h6.516v24.609H560.354z"/>
			<path fill="#FFFFFF" d="M581.273,154.313h-6.51v-24.609h6.045v3.5c1.038-1.654,1.966-2.744,2.793-3.269
				c0.83-0.525,1.768-0.787,2.816-0.787c1.483,0,2.915,0.409,4.285,1.227l-2.014,5.679c-1.096-0.711-2.115-1.068-3.059-1.068
				c-0.912,0-1.685,0.253-2.316,0.754c-0.635,0.5-1.132,1.41-1.495,2.722c-0.363,1.312-0.546,4.065-0.546,8.249V154.313z"/>
			<path fill="#FFFFFF" d="M593.901,141.66c0-2.164,0.53-4.254,1.599-6.281c1.065-2.023,2.576-3.567,4.529-4.632
				c1.953-1.068,4.135-1.599,6.546-1.599c3.724,0,6.774,1.208,9.152,3.625c2.38,2.417,3.567,5.472,3.567,9.164
				c0,3.72-1.199,6.809-3.602,9.259c-2.401,2.448-5.429,3.671-9.072,3.671c-2.256,0-4.406-0.51-6.451-1.529
				c-2.048-1.019-3.604-2.515-4.67-4.483C594.432,146.885,593.901,144.486,593.901,141.66z M600.572,142.008
				c0,2.441,0.58,4.309,1.74,5.606c1.159,1.3,2.588,1.947,4.287,1.947c1.697,0,3.122-0.647,4.275-1.947
				c1.15-1.297,1.725-3.183,1.725-5.652c0-2.411-0.574-4.266-1.725-5.563c-1.153-1.297-2.578-1.944-4.275-1.944
				c-1.699,0-3.128,0.646-4.287,1.944C601.152,137.696,600.572,139.566,600.572,142.008z"/>
			<path fill="#FFFFFF" d="M626.106,129.703h6.073v3.616c0.787-1.239,1.852-2.24,3.195-3.012c1.346-0.775,2.835-1.16,4.474-1.16
				c2.856,0,5.282,1.12,7.275,3.36s2.987,5.362,2.987,9.36c0,4.111-1.001,7.306-3.012,9.583c-2.008,2.279-4.44,3.418-7.297,3.418
				c-1.361,0-2.591-0.269-3.699-0.812c-1.104-0.543-2.264-1.468-3.484-2.78v12.396h-6.513V129.703z M632.549,141.59
				c0,2.768,0.549,4.81,1.645,6.131c1.096,1.318,2.433,1.98,4.01,1.98c1.514,0,2.774-0.607,3.778-1.818
				c1.001-1.212,1.505-3.202,1.505-5.97c0-2.579-0.516-4.495-1.554-5.746c-1.034-1.251-2.315-1.877-3.845-1.877
				c-1.594,0-2.914,0.616-3.961,1.843C633.076,137.363,632.549,139.182,632.549,141.59z"/>
			<path fill="#FFFFFF" d="M671.428,146.479l6.488,1.09c-0.833,2.377-2.148,4.19-3.949,5.435c-1.801,1.242-4.049,1.865-6.756,1.865
				c-4.279,0-7.443-1.401-9.498-4.193c-1.623-2.24-2.435-5.066-2.435-8.48c0-4.081,1.065-7.272,3.198-9.583
				c2.13-2.31,4.824-3.463,8.087-3.463c3.662,0,6.552,1.208,8.667,3.625s3.128,6.119,3.033,11.111h-16.312
				c0.046,1.932,0.574,3.433,1.575,4.507c1.004,1.071,2.255,1.611,3.754,1.611c1.019,0,1.879-0.281,2.572-0.836
				C670.549,148.612,671.074,147.718,671.428,146.479z M671.801,139.899c-0.046-1.886-0.534-3.317-1.459-4.3
				c-0.928-0.979-2.057-1.471-3.385-1.471c-1.419,0-2.594,0.519-3.521,1.553s-1.386,2.441-1.367,4.218H671.801z"/>
			<path fill="#FFFFFF" d="M701.668,154.313v-3.684c-0.897,1.31-2.075,2.35-3.534,3.104c-1.458,0.757-3.003,1.135-4.62,1.135
				c-1.654,0-3.137-0.36-4.449-1.09c-1.315-0.726-2.268-1.745-2.854-3.058s-0.879-3.128-0.879-5.444v-15.573h6.51v11.307
				c0,3.464,0.121,5.582,0.363,6.363c0.234,0.781,0.674,1.395,1.309,1.853c0.629,0.458,1.435,0.684,2.408,0.684
				c1.11,0,2.108-0.306,2.987-0.916c0.882-0.607,1.483-1.367,1.807-2.271c0.327-0.903,0.488-3.116,0.488-6.637v-10.382h6.513v24.609
				H701.668z"/>
		</g>
		<path fill="#FFFFFF" d="M218.376,162.787h3.61v24.079h14.355v3.04h-17.966V162.787z"/>
		<path fill="#FFFFFF" d="M236.564,162.787h4.218v4.215c0,3.003-1.254,5.584-4.178,5.584v-1.901c1.706,0,2.2-1.938,2.2-3.684h-2.24
			V162.787z"/>
		<path fill="#FFFFFF" d="M246.663,162.787h17.813v3.037h-14.203v8.622h12.457v3.039h-12.457v12.421h-3.61V162.787z"/>
		<path fill="#FFFFFF" d="M283.873,170.722c-0.418-3.873-3-5.542-6.723-5.542c-3.04,0-6.076,1.102-6.076,4.636
			c0,3.339,4.33,3.833,8.697,4.822c4.33,0.986,8.661,2.505,8.661,7.825c0,5.771-5.661,8.087-10.599,8.087
			c-6.076,0-11.206-2.96-11.206-9.57h3.421c0,4.556,3.799,6.534,7.9,6.534c3.263,0,6.876-1.025,6.876-4.941
			c0-3.72-4.333-4.364-8.664-5.316c-4.327-0.949-8.694-2.2-8.694-7.178c0-5.505,4.898-7.938,9.836-7.938
			c5.545,0,9.763,2.621,9.988,8.581H283.873z"/>
		<path fill="#FFFFFF" d="M292.485,162.787h18.726v3.037h-15.115v8.622h14.087v3.039h-14.087v9.381h15.225v3.04h-18.835V162.787z"/>
		<path fill="#FFFFFF" d="M328.591,166.736h-3.229v-3.949h3.229V166.736z M325.361,170.267h3.229v19.638h-3.229V170.267z"/>
		<path fill="#FFFFFF" d="M333.333,170.267h3.04v3.116h0.076c1.367-2.432,3.57-3.567,6.381-3.567c5.164,0,6.76,2.96,6.76,7.175
			v12.915h-3.229v-13.293c0-2.396-1.521-3.952-3.989-3.952c-3.909,0-5.811,2.622-5.811,6.156v11.09h-3.229V170.267z"/>
		<path fill="#FFFFFF" d="M362.99,189.905h-3.458l-7.294-19.638h3.61l5.509,16.37h0.076l5.353-16.37h3.382L362.99,189.905z"/>
		<path fill="#FFFFFF" d="M389.604,183.677c-0.873,4.327-3.989,6.683-8.393,6.683c-6.269,0-9.231-4.331-9.417-10.333
			c0-5.884,3.872-10.211,9.229-10.211c6.948,0,9.075,6.491,8.883,11.24h-14.697c-0.113,3.418,1.825,6.458,6.116,6.458
			c2.657,0,4.52-1.294,5.09-3.836H389.604z M386.492,178.208c-0.15-3.079-2.47-5.548-5.662-5.548c-3.378,0-5.393,2.548-5.621,5.548
			H386.492z"/>
		<path fill="#FFFFFF" d="M392.867,170.267h3.036v4.141h0.076c1.557-3.152,3.724-4.708,7.218-4.593v3.415
			c-5.203,0-7.105,2.963-7.105,7.938v8.737h-3.225V170.267z"/>
		<path fill="#FFFFFF" d="M409.838,170.267h3.909v2.851h-3.909v12.188c0,1.483,0.414,1.749,2.429,1.749h1.48v2.851h-2.466
			c-3.342,0-4.672-0.684-4.672-4.291v-12.497h-3.342v-2.851h3.342v-5.884h3.229V170.267z"/>
		<path fill="#FFFFFF" d="M433.797,183.677c-0.876,4.327-3.988,6.683-8.393,6.683c-6.268,0-9.231-4.331-9.42-10.333
			c0-5.884,3.875-10.211,9.23-10.211c6.946,0,9.076,6.491,8.885,11.24h-14.697c-0.113,3.418,1.824,6.458,6.115,6.458
			c2.658,0,4.52-1.294,5.087-3.836H433.797z M430.682,178.208c-0.15-3.079-2.467-5.548-5.658-5.548
			c-3.379,0-5.393,2.548-5.621,5.548H430.682z"/>
		<path fill="#FFFFFF" d="M440.584,166.736h-3.226v-3.949h3.226V166.736z M437.358,170.267h3.226v19.638h-3.226V170.267z"/>
		<path fill="#FFFFFF" d="M450.609,179.575l-6.836-9.308h4.141l4.709,6.875l4.898-6.875h3.875l-6.76,9.04l7.597,10.599h-4.142
			l-5.469-8.13l-5.466,8.13h-3.912L450.609,179.575z"/>
		<path fill="#FFFFFF" d="M491.768,183.677c-0.875,4.327-3.988,6.683-8.392,6.683c-6.269,0-9.231-4.331-9.421-10.333
			c0-5.884,3.873-10.211,9.229-10.211c6.949,0,9.076,6.491,8.887,11.24h-14.697c-0.113,3.418,1.822,6.458,6.115,6.458
			c2.655,0,4.52-1.294,5.088-3.836H491.768z M488.652,178.208c-0.149-3.079-2.469-5.548-5.658-5.548
			c-3.381,0-5.393,2.548-5.621,5.548H488.652z"/>
		<path fill="#FFFFFF" d="M495.141,170.267h3.039v3.116h0.073c1.37-2.432,3.573-3.567,6.384-3.567c5.164,0,6.76,2.96,6.76,7.175
			v12.915h-3.229v-13.293c0-2.396-1.52-3.952-3.988-3.952c-3.912,0-5.811,2.622-5.811,6.156v11.09h-3.229V170.267z"/>
		<path fill="#FFFFFF" d="M543.022,183.677c-0.876,4.327-3.989,6.683-8.396,6.683c-6.266,0-9.229-4.331-9.418-10.333
			c0-5.884,3.876-10.211,9.229-10.211c6.949,0,9.076,6.491,8.887,11.24h-14.697c-0.115,3.418,1.825,6.458,6.116,6.458
			c2.657,0,4.52-1.294,5.087-3.836H543.022z M539.906,178.208c-0.149-3.079-2.469-5.548-5.658-5.548
			c-3.381,0-5.393,2.548-5.621,5.548H539.906z"/>
		<path fill="#FFFFFF" d="M546.587,162.787h3.226v27.118h-3.226V162.787z"/>
		<path fill="#FFFFFF" d="M569.325,170.267h3.913v2.851h-3.913v12.188c0,1.483,0.419,1.749,2.433,1.749h1.48v2.851h-2.469
			c-3.342,0-4.673-0.684-4.673-4.291v-12.497h-3.339v-2.851h3.339v-5.884h3.229V170.267z"/>
		<path fill="#FFFFFF" d="M593.288,183.677c-0.873,4.327-3.985,6.683-8.393,6.683c-6.269,0-9.229-4.331-9.421-10.333
			c0-5.884,3.876-10.211,9.231-10.211c6.949,0,9.076,6.491,8.887,11.24h-14.7c-0.113,3.418,1.825,6.458,6.115,6.458
			c2.658,0,4.521-1.294,5.091-3.836H593.288z M590.175,178.208c-0.149-3.079-2.469-5.548-5.661-5.548
			c-3.378,0-5.393,2.548-5.621,5.548H590.175z"/>
		<path fill="#FFFFFF" d="M612.914,189.905h-3.037v-3.116h-0.076c-1.367,2.432-3.57,3.57-6.378,3.57
			c-5.17,0-6.763-2.963-6.763-7.178v-12.915h3.229v13.293c0,2.396,1.52,3.952,3.986,3.952c3.912,0,5.813-2.622,5.813-6.155v-11.09
			h3.227V189.905z"/>
		<path fill="#FFFFFF" d="M629.085,173.118h-3.306v-2.851h3.306v-2.923c0-3.189,1.898-4.861,5.433-4.861
			c0.607,0,1.479,0.113,2.087,0.305v2.811c-0.571-0.192-1.255-0.266-1.825-0.266c-1.557,0-2.469,0.491-2.469,2.2v2.734h3.8v2.851
			h-3.8v16.788h-3.226V173.118z"/>
		<path fill="#FFFFFF" d="M654.979,189.905h-3.036v-3.116h-0.076c-1.367,2.432-3.57,3.57-6.381,3.57
			c-5.167,0-6.763-2.963-6.763-7.178v-12.915h3.229v13.293c0,2.396,1.52,3.952,3.988,3.952c3.912,0,5.814-2.622,5.814-6.155v-11.09
			h3.225V189.905z"/>
		<path fill="#FFFFFF" d="M664.012,170.267h3.913v2.851h-3.913v12.188c0,1.483,0.419,1.749,2.433,1.749h1.48v2.851h-2.469
			c-3.342,0-4.673-0.684-4.673-4.291v-12.497h-3.342v-2.851h3.342v-5.884h3.229V170.267z"/>
		<path fill="#FFFFFF" d="M687.48,189.905h-3.039v-3.116h-0.077c-1.367,2.432-3.57,3.57-6.378,3.57c-5.166,0-6.76-2.963-6.76-7.178
			v-12.915h3.226v13.293c0,2.396,1.521,3.952,3.989,3.952c3.909,0,5.811-2.622,5.811-6.155v-11.09h3.229V189.905z"/>
		<path fill="#FFFFFF" d="M691.951,170.267h3.037v4.141h0.076c1.559-3.152,3.723-4.708,7.217-4.593v3.415
			c-5.203,0-7.102,2.963-7.102,7.938v8.737h-3.229V170.267z"/>
		<path fill="#FFFFFF" d="M10.848,47.932V13.962h6.857v33.969H10.848z"/>
		<path fill="#FFFFFF" d="M48.43,47.932h-6.512V35.374c0-2.658-0.138-4.376-0.415-5.155c-0.278-0.781-0.732-1.388-1.358-1.822
			c-0.626-0.43-1.376-0.647-2.258-0.647c-1.13,0-2.14,0.309-3.037,0.925c-0.895,0.62-1.511,1.438-1.84,2.457
			c-0.333,1.02-0.501,2.905-0.501,5.655v11.146H26V23.322h6.048v3.616c2.146-2.78,4.85-4.172,8.108-4.172
			c1.438,0,2.753,0.259,3.94,0.778c1.19,0.516,2.091,1.178,2.7,1.98c0.607,0.803,1.035,1.715,1.273,2.734
			c0.237,1.02,0.359,2.478,0.359,4.379V47.932z"/>
		<path fill="#FFFFFF" d="M56.884,19.986v-6.024h6.512v6.024H56.884z M56.884,47.932V23.322h6.512v24.609H56.884z"/>
		<path fill="#FFFFFF" d="M93.376,30.601l-6.417,1.156c-0.217-1.281-0.709-2.246-1.475-2.896c-0.763-0.647-1.755-0.973-2.976-0.973
			c-1.62,0-2.914,0.562-3.882,1.681c-0.964,1.12-1.446,2.994-1.446,5.619c0,2.92,0.491,4.983,1.471,6.188
			c0.979,1.203,2.298,1.807,3.952,1.807c1.233,0,2.246-0.351,3.033-1.056c0.788-0.702,1.343-1.91,1.67-3.625l6.394,1.089
			c-0.666,2.933-1.938,5.151-3.821,6.65c-1.886,1.499-4.41,2.249-7.577,2.249c-3.602,0-6.47-1.138-8.609-3.409
			s-3.21-5.414-3.21-9.43c0-4.065,1.074-7.227,3.223-9.488c2.148-2.264,5.051-3.396,8.713-3.396c2.993,0,5.38,0.647,7.146,1.935
			C91.332,25.992,92.604,27.958,93.376,30.601z"/>
		<path fill="#FFFFFF" d="M100.163,19.986v-6.024h6.51v6.024H100.163z M100.163,47.932V23.322h6.51v24.609H100.163z"/>
		<path fill="#FFFFFF" d="M120.067,30.833l-5.911-1.068c0.665-2.377,1.81-4.138,3.43-5.283c1.623-1.144,4.031-1.715,7.229-1.715
			c2.905,0,5.069,0.345,6.488,1.031c1.422,0.687,2.423,1.563,3.003,2.619c0.576,1.059,0.866,3.003,0.866,5.829l-0.066,7.599
			c0,2.164,0.104,3.76,0.311,4.785c0.208,1.028,0.599,2.13,1.169,3.302h-6.442c-0.167-0.431-0.375-1.074-0.625-1.923
			c-0.107-0.385-0.184-0.641-0.229-0.766c-1.113,1.083-2.301,1.895-3.57,2.436c-1.267,0.54-2.618,0.812-4.053,0.812
			c-2.533,0-4.531-0.687-5.99-2.063c-1.462-1.376-2.191-3.113-2.191-5.215c0-1.389,0.333-2.627,0.998-3.717
			c0.665-1.089,1.593-1.925,2.792-2.505c1.196-0.577,2.924-1.083,5.179-1.517c3.043-0.571,5.151-1.105,6.326-1.599v-0.647
			c0-1.251-0.308-2.146-0.928-2.676c-0.619-0.534-1.785-0.8-3.5-0.8c-1.156,0-2.063,0.229-2.71,0.684
			C120.992,28.889,120.467,29.688,120.067,30.833z M128.779,36.115c-0.836,0.277-2.157,0.61-3.964,0.995
			c-1.807,0.388-2.987,0.766-3.546,1.135c-0.849,0.604-1.272,1.367-1.272,2.295c0,0.913,0.342,1.7,1.019,2.365
			c0.678,0.662,1.545,0.995,2.595,0.995c1.175,0,2.295-0.384,3.359-1.16c0.788-0.586,1.307-1.306,1.554-2.154
			c0.171-0.556,0.256-1.614,0.256-3.174V36.115z"/>
		<path fill="#FFFFFF" d="M154.726,23.322v5.191h-4.449v9.918c0,2.008,0.043,3.18,0.128,3.51c0.086,0.335,0.278,0.607,0.58,0.824
			s0.668,0.324,1.102,0.324c0.602,0,1.475-0.208,2.618-0.625l0.556,5.054c-1.514,0.646-3.229,0.973-5.146,0.973
			c-1.175,0-2.23-0.198-3.174-0.592c-0.942-0.394-1.632-0.903-2.075-1.529c-0.439-0.626-0.744-1.471-0.915-2.539
			c-0.138-0.754-0.208-2.286-0.208-4.587v-10.73h-2.987v-5.191h2.987v-4.889l6.534-3.799v8.688H154.726z"/>
		<path fill="#FFFFFF" d="M161.098,19.986v-6.024h6.51v6.024H161.098z M161.098,47.932V23.322h6.51v24.609H161.098z"/>
		<path fill="#FFFFFF" d="M182.899,47.932l-9.918-24.609h6.836l4.633,12.561l1.346,4.193c0.354-1.065,0.58-1.77,0.671-2.109
			c0.217-0.693,0.449-1.388,0.696-2.084l4.679-12.561h6.698l-9.778,24.609H182.899z"/>
		<path fill="#FFFFFF" d="M209.239,30.833l-5.908-1.068c0.665-2.377,1.807-4.138,3.431-5.283c1.623-1.144,4.031-1.715,7.229-1.715
			c2.902,0,5.068,0.345,6.487,1.031c1.42,0.687,2.421,1.563,3,2.619c0.58,1.059,0.873,3.003,0.873,5.829l-0.07,7.599
			c0,2.164,0.101,3.76,0.309,4.785c0.211,1.028,0.598,2.13,1.175,3.302h-6.445c-0.168-0.431-0.375-1.074-0.626-1.923
			c-0.106-0.385-0.183-0.641-0.231-0.766c-1.111,1.083-2.301,1.895-3.567,2.436c-1.267,0.54-2.619,0.812-4.056,0.812
			c-2.533,0-4.529-0.687-5.991-2.063c-1.459-1.376-2.188-3.113-2.188-5.215c0-1.389,0.332-2.627,0.998-3.717
			c0.665-1.089,1.593-1.925,2.789-2.505c1.199-0.577,2.927-1.083,5.182-1.517c3.039-0.571,5.148-1.105,6.323-1.599v-0.647
			c0-1.251-0.309-2.146-0.925-2.676c-0.619-0.534-1.785-0.8-3.5-0.8c-1.16,0-2.063,0.229-2.71,0.684
			C210.167,28.889,209.643,29.688,209.239,30.833z M217.952,36.115c-0.833,0.277-2.154,0.61-3.961,0.995
			c-1.807,0.388-2.988,0.766-3.546,1.135c-0.849,0.604-1.273,1.367-1.273,2.295c0,0.913,0.339,1.7,1.02,2.365
			c0.678,0.662,1.544,0.995,2.594,0.995c1.176,0,2.295-0.384,3.36-1.16c0.787-0.586,1.306-1.306,1.554-2.154
			c0.168-0.556,0.253-1.614,0.253-3.174V36.115z"/>
		<path fill="#FFFFFF" d="M270.226,47.932h-6.049v-3.613c-1.004,1.403-2.19,2.453-3.558,3.14c-1.367,0.687-2.744,1.031-4.136,1.031
			c-2.825,0-5.249-1.141-7.266-3.418c-2.015-2.28-3.021-5.459-3.021-9.537c0-4.172,0.979-7.343,2.941-9.512
			c1.963-2.17,4.44-3.256,7.44-3.256c2.747,0,5.124,1.145,7.135,3.43V13.962h6.513V47.932z M252.846,35.096
			c0,2.625,0.363,4.526,1.09,5.701c1.047,1.7,2.518,2.548,4.403,2.548c1.495,0,2.771-0.638,3.824-1.914
			c1.047-1.272,1.574-3.177,1.574-5.71c0-2.829-0.509-4.864-1.528-6.106s-2.326-1.865-3.916-1.865c-1.55,0-2.841,0.613-3.885,1.84
			C253.368,30.82,252.846,32.654,252.846,35.096z"/>
		<path fill="#FFFFFF" d="M278.331,14.054h6.513v4.657c0,1.886-0.165,3.372-0.488,4.461s-0.938,2.066-1.84,2.933
			c-0.904,0.863-2.051,1.544-3.443,2.038l-1.275-2.688c1.318-0.433,2.249-1.028,2.805-1.785s0.852-1.792,0.882-3.104h-3.152V14.054z
			"/>
		<path fill="#FFFFFF" d="M292.184,31.156c0-3.46,0.519-6.363,1.553-8.712c0.772-1.73,1.825-3.281,3.165-4.657
			c1.333-1.376,2.798-2.396,4.388-3.058c2.118-0.897,4.56-1.346,7.324-1.346c5.002,0,9.01,1.553,12.016,4.657
			c3.003,3.106,4.504,7.425,4.504,12.955c0,5.484-1.486,9.775-4.471,12.872c-2.981,3.095-6.967,4.645-11.957,4.645
			c-5.051,0-9.063-1.541-12.048-4.624C293.676,40.806,292.184,36.563,292.184,31.156z M299.251,30.924
			c0,3.845,0.892,6.763,2.664,8.75c1.779,1.984,4.031,2.976,6.766,2.976s4.978-0.986,6.732-2.954s2.631-4.926,2.631-8.862
			c0-3.894-0.854-6.799-2.558-8.713c-1.712-1.917-3.979-2.875-6.806-2.875c-2.825,0-5.103,0.97-6.836,2.908
			C300.117,24.091,299.251,27.015,299.251,30.924z"/>
		<path fill="#FFFFFF" d="M353.749,30.601l-6.418,1.156c-0.216-1.281-0.708-2.246-1.474-2.896c-0.763-0.647-1.755-0.973-2.976-0.973
			c-1.62,0-2.914,0.562-3.882,1.681c-0.964,1.12-1.446,2.994-1.446,5.619c0,2.92,0.491,4.983,1.468,6.188
			c0.982,1.203,2.298,1.807,3.955,1.807c1.232,0,2.246-0.351,3.036-1.056c0.788-0.702,1.343-1.91,1.667-3.625l6.396,1.089
			c-0.669,2.933-1.941,5.151-3.824,6.65c-1.886,1.499-4.413,2.249-7.577,2.249c-3.602,0-6.47-1.138-8.609-3.409
			s-3.21-5.414-3.21-9.43c0-4.065,1.07-7.227,3.223-9.488c2.145-2.264,5.05-3.396,8.712-3.396c2.994,0,5.381,0.647,7.147,1.935
			C351.708,25.992,352.978,27.958,353.749,30.601z"/>
		<path fill="#FFFFFF" d="M376.732,47.932v-3.684c-0.895,1.312-2.072,2.35-3.531,3.104c-1.459,0.757-3.003,1.138-4.627,1.138
			c-1.647,0-3.131-0.363-4.449-1.089c-1.309-0.727-2.261-1.749-2.847-3.061c-0.583-1.312-0.882-3.128-0.882-5.444V23.322h6.512
			v11.31c0,3.461,0.119,5.582,0.36,6.36c0.238,0.781,0.678,1.398,1.306,1.855c0.639,0.455,1.438,0.684,2.411,0.684
			c1.114,0,2.108-0.305,2.991-0.916c0.879-0.61,1.482-1.367,1.807-2.271c0.323-0.906,0.488-3.119,0.488-6.641V23.322h6.51v24.609
			H376.732z"/>
		<path fill="#FFFFFF" d="M391.191,23.322h6.072v3.616c0.788-1.236,1.854-2.24,3.199-3.012c1.342-0.772,2.832-1.16,4.471-1.16
			c2.854,0,5.282,1.12,7.275,3.36c1.992,2.24,2.99,5.362,2.99,9.363c0,4.108-1.007,7.303-3.015,9.583
			c-2.009,2.277-4.443,3.418-7.297,3.418c-1.364,0-2.591-0.271-3.698-0.812c-1.103-0.541-2.268-1.468-3.486-2.78v12.396h-6.512
			V23.322z M397.634,35.212c0,2.765,0.546,4.806,1.645,6.128c1.093,1.321,2.433,1.98,4.011,1.98c1.51,0,2.771-0.604,3.777-1.819
			c0.998-1.211,1.505-3.202,1.505-5.966c0-2.579-0.519-4.495-1.551-5.747c-1.04-1.251-2.319-1.876-3.849-1.876
			c-1.596,0-2.914,0.613-3.961,1.843C398.158,30.982,397.634,32.801,397.634,35.212z"/>
		<path fill="#FFFFFF" d="M427.083,30.833l-5.911-1.068c0.662-2.377,1.807-4.138,3.43-5.283c1.621-1.144,4.031-1.715,7.23-1.715
			c2.902,0,5.065,0.345,6.487,1.031c1.419,0.687,2.421,1.563,3,2.619c0.58,1.059,0.87,3.003,0.87,5.829l-0.067,7.599
			c0,2.164,0.098,3.76,0.308,4.785c0.208,1.028,0.599,2.13,1.172,3.302h-6.441c-0.171-0.431-0.379-1.074-0.626-1.923
			c-0.11-0.385-0.183-0.641-0.229-0.766c-1.114,1.083-2.304,1.895-3.571,2.436c-1.27,0.54-2.618,0.812-4.055,0.812
			c-2.533,0-4.532-0.687-5.991-2.063c-1.462-1.376-2.188-3.113-2.188-5.215c0-1.389,0.33-2.627,0.995-3.717
			c0.662-1.089,1.597-1.925,2.792-2.505c1.199-0.577,2.924-1.083,5.183-1.517c3.039-0.571,5.147-1.105,6.323-1.599v-0.647
			c0-1.251-0.309-2.146-0.925-2.676c-0.622-0.534-1.785-0.8-3.501-0.8c-1.159,0-2.063,0.229-2.709,0.684
			C428.008,28.889,427.479,29.688,427.083,30.833z M435.793,36.115c-0.834,0.277-2.154,0.61-3.961,0.995
			c-1.807,0.388-2.988,0.766-3.547,1.135c-0.852,0.604-1.272,1.367-1.272,2.295c0,0.913,0.339,1.7,1.02,2.365
			c0.675,0.662,1.541,0.995,2.594,0.995c1.172,0,2.295-0.384,3.36-1.16c0.787-0.586,1.303-1.306,1.553-2.154
			c0.165-0.556,0.254-1.614,0.254-3.174V36.115z"/>
		<path fill="#FFFFFF" d="M471.913,30.601l-6.417,1.156c-0.211-1.281-0.705-2.246-1.472-2.896c-0.763-0.647-1.755-0.973-2.979-0.973
			c-1.62,0-2.914,0.562-3.879,1.681c-0.968,1.12-1.449,2.994-1.449,5.619c0,2.92,0.491,4.983,1.474,6.188
			c0.977,1.203,2.299,1.807,3.949,1.807c1.236,0,2.246-0.351,3.037-1.056c0.787-0.702,1.339-1.91,1.666-3.625l6.396,1.089
			c-0.662,2.933-1.941,5.151-3.827,6.65c-1.88,1.499-4.407,2.249-7.575,2.249c-3.594,0-6.469-1.138-8.605-3.409
			c-2.143-2.271-3.213-5.414-3.213-9.43c0-4.065,1.076-7.227,3.223-9.488c2.15-2.264,5.051-3.396,8.713-3.396
			c2.996,0,5.38,0.647,7.149,1.935C469.871,25.992,471.145,27.958,471.913,30.601z"/>
		<path fill="#FFFFFF" d="M478.703,19.986v-6.024h6.51v6.024H478.703z M478.703,47.932V23.322h6.51v24.609H478.703z"/>
		<path fill="#FFFFFF" d="M492.229,35.279c0-2.161,0.534-4.254,1.6-6.277c1.068-2.026,2.578-3.571,4.529-4.636
			c1.955-1.065,4.138-1.599,6.549-1.599c3.72,0,6.771,1.208,9.152,3.628c2.377,2.417,3.57,5.472,3.57,9.165
			c0,3.723-1.203,6.809-3.607,9.256c-2.402,2.448-5.426,3.674-9.07,3.674c-2.258,0-4.406-0.513-6.454-1.532
			c-2.044-1.02-3.601-2.515-4.669-4.483C492.763,40.506,492.229,38.108,492.229,35.279z M498.903,35.627
			c0,2.441,0.579,4.312,1.739,5.609c1.156,1.297,2.585,1.947,4.285,1.947c1.696,0,3.125-0.65,4.275-1.947
			c1.153-1.297,1.727-3.183,1.727-5.655c0-2.411-0.573-4.264-1.727-5.561c-1.15-1.297-2.579-1.947-4.275-1.947
			c-1.7,0-3.129,0.65-4.285,1.947C499.482,31.317,498.903,33.186,498.903,35.627z M501.638,20.31l3.198-6.928h7.3l-6.372,6.928
			H501.638z"/>
		<path fill="#FFFFFF" d="M551.918,13.962h6.836v21.502c0,2.814-0.25,4.975-0.741,6.488c-0.669,1.978-1.874,3.564-3.616,4.764
			c-1.749,1.196-4.05,1.794-6.903,1.794c-3.356,0-5.936-0.937-7.742-2.814c-1.807-1.876-2.72-4.632-2.734-8.261l6.467-0.742
			c0.073,1.947,0.36,3.32,0.857,4.123c0.741,1.221,1.868,1.831,3.382,1.831c1.528,0,2.608-0.437,3.243-1.309
			c0.632-0.873,0.952-2.686,0.952-5.436V13.962z"/>
		<path fill="#FFFFFF" d="M584.053,47.932v-3.684c-0.894,1.312-2.072,2.35-3.533,3.104c-1.459,0.757-3.003,1.138-4.623,1.138
			c-1.651,0-3.135-0.363-4.45-1.089c-1.312-0.727-2.261-1.749-2.851-3.061c-0.582-1.312-0.879-3.128-0.879-5.444V23.322h6.51v11.31
			c0,3.461,0.119,5.582,0.363,6.36c0.234,0.781,0.674,1.398,1.307,1.855c0.635,0.455,1.437,0.684,2.407,0.684
			c1.114,0,2.112-0.305,2.991-0.916c0.881-0.61,1.482-1.367,1.807-2.271c0.326-0.906,0.488-3.119,0.488-6.641V23.322h6.509v24.609
			H584.053z"/>
		<path fill="#FFFFFF" d="M605.458,47.932l-9.918-24.609h6.836l4.636,12.561l1.343,4.193c0.356-1.065,0.579-1.77,0.675-2.109
			c0.217-0.693,0.448-1.388,0.692-2.084l4.681-12.561h6.699l-9.781,24.609H605.458z"/>
		<path fill="#FFFFFF" d="M641.191,40.101l6.488,1.089c-0.836,2.377-2.152,4.19-3.955,5.432c-1.798,1.245-4.05,1.868-6.751,1.868
			c-4.284,0-7.449-1.401-9.503-4.196c-1.621-2.24-2.433-5.066-2.433-8.481c0-4.077,1.068-7.272,3.198-9.583
			c2.133-2.307,4.825-3.464,8.088-3.464c3.662,0,6.549,1.208,8.666,3.628c2.112,2.417,3.129,6.119,3.037,11.108h-16.314
			c0.045,1.932,0.57,3.433,1.574,4.507c1.001,1.074,2.252,1.611,3.754,1.611c1.02,0,1.877-0.277,2.572-0.833
			C640.31,42.23,640.834,41.336,641.191,40.101z M641.561,33.518c-0.046-1.883-0.531-3.314-1.462-4.297
			c-0.925-0.983-2.054-1.471-3.382-1.471c-1.422,0-2.597,0.516-3.521,1.554c-0.928,1.034-1.385,2.438-1.367,4.214H641.561z"/>
		<path fill="#FFFFFF" d="M677.565,47.932h-6.513V35.374c0-2.658-0.137-4.376-0.415-5.155c-0.28-0.781-0.727-1.388-1.354-1.822
			c-0.626-0.43-1.38-0.647-2.262-0.647c-1.126,0-2.137,0.309-3.037,0.925c-0.894,0.62-1.51,1.438-1.837,2.457
			c-0.335,1.02-0.5,2.905-0.5,5.655v11.146h-6.513V23.322h6.049v3.616c2.148-2.78,4.852-4.172,8.111-4.172
			c1.435,0,2.75,0.259,3.937,0.778c1.19,0.516,2.091,1.178,2.704,1.98c0.604,0.803,1.031,1.715,1.272,2.734
			c0.238,1.02,0.357,2.478,0.357,4.379V47.932z"/>
		<path fill="#FFFFFF" d="M686.019,19.986v-6.024h6.513v6.024H686.019z M686.019,47.932V23.322h6.513v24.609H686.019z"/>
		<path fill="#FFFFFF" d="M701.058,47.932V13.962h6.509v33.969H701.058z"/>
	</g>
</g>
</svg>
