<?xml version="1.0" encoding="utf-8"?>
<!-- Generator: Adobe Illustrator 16.0.0, SVG Export Plug-In . SVG Version: 6.00 Build 0)  -->
<!DOCTYPE svg PUBLIC "-//W3C//DTD SVG 1.1//EN" "http://www.w3.org/Graphics/SVG/1.1/DTD/svg11.dtd">
<svg version="1.1" xmlns="http://www.w3.org/2000/svg" xmlns:xlink="http://www.w3.org/1999/xlink" x="0px" y="0px"
	 width="99.112px" height="96.243px" viewBox="0 0 99.112 96.243" enable-background="new 0 0 99.112 96.243" xml:space="preserve">
<g id="screenshots" display="none">
</g>
<g id="fondo_negro" display="none">
</g>
<g id="imagenes" display="none">
</g>
<g id="texto" display="none">
</g>
<g id="bienvenido">
</g>
<g id="landpage">
	<defs>
		<rect id="ventana" x="-1241.977" y="-391.737" width="1024.5" height="487.98"/>
	</defs>
	<clipPath id="ventana_1_">
		<use xlink:href="#ventana"  overflow="visible"/>
	</clipPath>
</g>
<g id="bocetos" display="none">
</g>
<g id="Capa_6">
</g>
<g id="exportaciones">
	<g>
		<path fill="#FFFFFF" d="M49.558,92.095c-24.248,0-43.975-19.726-43.975-43.973S25.31,4.148,49.558,4.148
			c24.247,0,43.973,19.726,43.973,43.973S73.805,92.095,49.558,92.095z M49.558,5.148c-23.696,0-42.975,19.278-42.975,42.973
			s19.278,42.973,42.975,42.973c23.695,0,42.973-19.278,42.973-42.973S73.253,5.148,49.558,5.148z"/>
	</g>
	<g>
		<path fill="#FFFFFF" d="M49.558,89.929c-23.054,0-41.809-18.754-41.809-41.807S26.504,6.314,49.558,6.314
			c23.053,0,41.807,18.754,41.807,41.807S72.61,89.929,49.558,89.929z M49.558,8.314c-21.95,0-39.809,17.857-39.809,39.807
			s17.858,39.807,39.809,39.807c21.949,0,39.807-17.857,39.807-39.807S71.507,8.314,49.558,8.314z"/>
	</g>
	<g>
		<path fill="#FFFFFF" d="M49.558,87.151c-21.521,0-39.029-17.508-39.029-39.029S28.037,9.092,49.558,9.092
			s39.029,17.508,39.029,39.029S71.078,87.151,49.558,87.151z M49.558,13.092c-19.315,0-35.029,15.714-35.029,35.029
			s15.714,35.029,35.029,35.029s35.029-15.714,35.029-35.029S68.873,13.092,49.558,13.092z"/>
	</g>
	<g>
		<path fill="#FFFFFF" d="M49.558,82.401c-18.901,0-34.279-15.377-34.279-34.279s15.378-34.279,34.279-34.279
			S83.837,29.22,83.837,48.122S68.459,82.401,49.558,82.401z M49.558,14.342c-18.626,0-33.779,15.153-33.779,33.779
			s15.153,33.779,33.779,33.779s33.779-15.153,33.779-33.779S68.184,14.342,49.558,14.342z"/>
	</g>
	<g>
		<path fill="#FFFFFF" d="M49.558,81.234c-18.259,0-33.113-14.854-33.113-33.113s14.854-33.113,33.113-33.113
			s33.113,14.854,33.113,33.113S67.816,81.234,49.558,81.234z M49.558,15.509c-17.983,0-32.613,14.63-32.613,32.613
			s14.63,32.613,32.613,32.613s32.613-14.63,32.613-32.613S67.541,15.509,49.558,15.509z"/>
	</g>
	<g>
		<path fill="#FFFFFF" d="M49.558,79.234c-17.156,0-31.113-13.957-31.113-31.113s13.957-31.113,31.113-31.113
			s31.113,13.957,31.113,31.113S66.714,79.234,49.558,79.234z M49.558,17.509c-16.88,0-30.613,13.733-30.613,30.613
			s13.733,30.613,30.613,30.613s30.613-13.733,30.613-30.613S66.438,17.509,49.558,17.509z"/>
	</g>
	<g>
		<path fill="#FFFFFF" d="M49.558,77.984c-16.467,0-29.863-13.396-29.863-29.863s13.396-29.863,29.863-29.863
			s29.863,13.396,29.863,29.863S66.024,77.984,49.558,77.984z M49.558,19.259c-15.915,0-28.863,12.948-28.863,28.863
			s12.948,28.863,28.863,28.863s28.863-12.948,28.863-28.863S65.473,19.259,49.558,19.259z"/>
	</g>
	<g>
		<path fill="#FFFFFF" d="M49.558,76.401c-15.593,0-28.279-12.686-28.279-28.279s12.687-28.279,28.279-28.279
			s28.279,12.686,28.279,28.279S65.15,76.401,49.558,76.401z M49.558,20.342c-15.317,0-27.779,12.462-27.779,27.779
			S34.24,75.901,49.558,75.901s27.779-12.462,27.779-27.779S64.875,20.342,49.558,20.342z"/>
	</g>
</g>
<g id="Capa_10">
</g>
</svg>
