<?xml version="1.0" encoding="utf-8"?>
<!-- Generator: Adobe Illustrator 16.0.0, SVG Export Plug-In . SVG Version: 6.00 Build 0)  -->
<!DOCTYPE svg PUBLIC "-//W3C//DTD SVG 1.1//EN" "http://www.w3.org/Graphics/SVG/1.1/DTD/svg11.dtd">
<svg version="1.1" xmlns="http://www.w3.org/2000/svg" xmlns:xlink="http://www.w3.org/1999/xlink" x="0px" y="0px"
	 width="947.811px" height="893.821px" viewBox="0 0 947.811 893.821" enable-background="new 0 0 947.811 893.821"
	 xml:space="preserve">
<g id="screenshots" display="none">
</g>
<g id="fondo_negro" display="none">
</g>
<g id="imagenes" display="none">
</g>
<g id="texto" display="none">
</g>
<g id="Capa_6" display="none">
</g>
<g id="bienvenido">
</g>
<g id="landpage">
	<defs>
		<rect id="ventana" x="-5306.38" y="228.963" width="1024.5" height="487.98"/>
	</defs>
	<clipPath id="ventana_1_">
		<use xlink:href="#ventana"  overflow="visible"/>
	</clipPath>
</g>
<g id="bocetos" display="none">
</g>
<g id="exportaciones">
	<g>
		<path fill="#FFFFFF" d="M65.496,319.516c-1.291,0-1.291,2,0,2C66.785,321.516,66.785,319.516,65.496,319.516z"/>
		<path fill="#FFFFFF" d="M68.301,376.011c-1.291,0-1.291,2,0,2C69.59,378.011,69.59,376.011,68.301,376.011z"/>
		<path fill="#FFFFFF" d="M3.262,260.386c-1.291,0-1.291,2,0,2C4.551,262.386,4.551,260.386,3.262,260.386z"/>
		<path fill="#FFFFFF" d="M8.078,358.346c-1.289,0-1.289,2,0,2C9.369,360.346,9.369,358.346,8.078,358.346z"/>
		<path fill="#FFFFFF" d="M220.059,268.415c-1.289,0-1.289,2,0,2C221.35,270.415,221.35,268.415,220.059,268.415z"/>
		<path fill="#FFFFFF" d="M81.951,539.011c-1.291,0-1.291,2,0,2C83.24,541.011,83.24,539.011,81.951,539.011z"/>
		<path fill="#FFFFFF" d="M48.227,453.898c-1.289,0-1.289,2,0,2S49.516,453.898,48.227,453.898z"/>
		<path fill="#FFFFFF" d="M61.877,483.607c-1.289,0-1.289,2,0,2S63.166,483.607,61.877,483.607z"/>
		<path fill="#FFFFFF" d="M4.064,600.036c-1.291,0-1.291,2,0,2C5.354,602.036,5.354,600.036,4.064,600.036z"/>
		<path fill="#FFFFFF" d="M0.049,503.681c-1.289,0-1.289,2,0,2C1.34,505.681,1.34,503.681,0.049,503.681z"/>
		<path fill="#FFFFFF" d="M17.715,411.341c-1.291,0-1.291,2,0,2C19.004,413.341,19.004,411.341,17.715,411.341z"/>
		<path fill="#FFFFFF" d="M183.123,666.681c-1.289,0-1.289,2,0,2S184.412,666.681,183.123,666.681z"/>
		<path fill="#FFFFFF" d="M63.482,658.651c-1.289,0-1.289,2,0,2C64.773,660.651,64.773,658.651,63.482,658.651z"/>
		<path fill="#FFFFFF" d="M99.615,736.538c-1.289,0-1.289,2,0,2C100.906,738.538,100.906,736.538,99.615,736.538z"/>
		<path fill="#FFFFFF" d="M18.518,726.903c-1.291,0-1.291,2,0,2C19.807,728.903,19.807,726.903,18.518,726.903z"/>
		<path fill="#FFFFFF" d="M20.926,749.385c-1.289,0-1.289,2,0,2C22.217,751.385,22.217,749.385,20.926,749.385z"/>
		<path fill="#FFFFFF" d="M92.389,726.903c-1.289,0-1.289,2,0,2C93.68,728.903,93.68,726.903,92.389,726.903z"/>
		<path fill="#FFFFFF" d="M21.729,659.454c-1.289,0-1.289,2,0,2C23.02,661.454,23.02,659.454,21.729,659.454z"/>
		<path fill="#FFFFFF" d="M834.32,365.573c-1.291,0-1.291,2,0,2C835.609,367.573,835.609,365.573,834.32,365.573z"/>
		<path fill="#FFFFFF" d="M904.979,404.115c-1.289,0-1.289,2,0,2C906.27,406.115,906.27,404.115,904.979,404.115z"/>
		<path fill="#FFFFFF" d="M785.34,255.568c-1.291,0-1.291,2,0,2C786.629,257.568,786.629,255.568,785.34,255.568z"/>
		<path fill="#FFFFFF" d="M856,286.08c-1.291,0-1.291,2,0,2C857.289,288.08,857.289,286.08,856,286.08z"/>
		<path fill="#FFFFFF" d="M868.043,281.262c-1.289,0-1.289,2,0,2C869.334,283.262,869.334,281.262,868.043,281.262z"/>
		<path fill="#FFFFFF" d="M865.635,306.154c-1.291,0-1.291,2,0,2C866.924,308.154,866.924,306.154,865.635,306.154z"/>
		<path fill="#FFFFFF" d="M856.803,325.425c-1.291,0-1.291,2,0,2C858.092,327.425,858.092,325.425,856.803,325.425z"/>
		<path fill="#FFFFFF" d="M885.709,563.1c-1.291,0-1.291,2,0,2C886.998,565.1,886.998,563.1,885.709,563.1z"/>
		<path fill="#FFFFFF" d="M800.596,711.646c-1.291,0-1.291,2,0,2C801.885,713.646,801.885,711.646,800.596,711.646z"/>
		<path fill="#FFFFFF" d="M875.461,674.765c-1.291,0-1.291,2,0,2C876.75,676.765,876.75,674.765,875.461,674.765z"/>
		<path fill="#FFFFFF" d="M856.967,651.623c-1.289,0-1.289,2,0,2C858.258,653.623,858.258,651.623,856.967,651.623z"/>
		<path fill="#FFFFFF" d="M778.332,751.879c-1.291,0-1.291,2,0,2C779.621,753.879,779.621,751.879,778.332,751.879z"/>
		<path fill="#FFFFFF" d="M921.842,710.843c-1.291,0-1.291,2,0,2C923.131,712.843,923.131,710.843,921.842,710.843z"/>
		<path fill="#FFFFFF" d="M57.861,274.339c-1.934,0-1.934,3,0,3C59.797,277.339,59.797,274.339,57.861,274.339z"/>
		<path fill="#FFFFFF" d="M51.438,393.979c-1.934,0-1.934,3,0,3C53.373,396.979,53.373,393.979,51.438,393.979z"/>
		<path fill="#FFFFFF" d="M60.271,697.496c-1.936,0-1.936,3,0,3C62.205,700.497,62.205,697.496,60.271,697.496z"/>
		<path fill="#FFFFFF" d="M919.434,545.738c-1.936,0-1.936,3,0,3C921.367,548.738,921.367,545.738,919.434,545.738z"/>
		<path fill="#FFFFFF" d="M886.676,256.977c-2.58,0-2.58,4,0,4S889.256,256.977,886.676,256.977z"/>
		<path fill="#FFFFFF" d="M855.031,751.879c-2.58,0-2.58,4,0,4S857.611,751.879,855.031,751.879z"/>
		<path fill="#FFFFFF" d="M86.768,355.74c-2.578,0-2.578,4,0,4C89.348,359.74,89.348,355.74,86.768,355.74z"/>
		<path fill="#FFFFFF" d="M150.586,737.947c-3.869,0-3.869,6,0,6S154.455,737.947,150.586,737.947z"/>
		<path fill="#FFFFFF" d="M69.268,626.933c-3.869,0-3.869,6,0,6S73.137,626.933,69.268,626.933z"/>
		<path fill="#FFFFFF" d="M404.889,491.395c-1.934,0-1.934,3,0,3C406.824,494.395,406.824,491.395,404.889,491.395z"/>
		<path fill="#FFFFFF" d="M405.889,334.895c-1.289,0-1.289,2,0,2C407.18,336.895,407.18,334.895,405.889,334.895z"/>
		<path fill="#FFFFFF" d="M575.889,334.895c-1.289,0-1.289,2,0,2C577.18,336.895,577.18,334.895,575.889,334.895z"/>
		<path fill="#FFFFFF" d="M413.889,262.895c-1.289,0-1.289,2,0,2C415.18,264.895,415.18,262.895,413.889,262.895z"/>
		<path fill="#FFFFFF" d="M526.889,528.895c-1.289,0-1.289,2,0,2C528.18,530.895,528.18,528.895,526.889,528.895z"/>
		<path fill="#FFFFFF" d="M245.889,463.895c-1.289,0-1.289,2,0,2C247.18,465.895,247.18,463.895,245.889,463.895z"/>
		<path fill="#FFFFFF" d="M227.889,371.895c-1.289,0-1.289,2,0,2C229.18,373.895,229.18,371.895,227.889,371.895z"/>
		<path fill="#FFFFFF" d="M301.889,265.895c-1.289,0-1.289,2,0,2C303.18,267.895,303.18,265.895,301.889,265.895z"/>
		<path fill="#FFFFFF" d="M145.889,262.895c-1.289,0-1.289,2,0,2C147.18,264.895,147.18,262.895,145.889,262.895z"/>
		<path fill="#FFFFFF" d="M172.889,395.895c-1.289,0-1.289,2,0,2C174.18,397.895,174.18,395.895,172.889,395.895z"/>
		<path fill="#FFFFFF" d="M158.889,527.895c-1.289,0-1.289,2,0,2C160.18,529.895,160.18,527.895,158.889,527.895z"/>
		<path fill="#FFFFFF" d="M125.889,454.895c-1.289,0-1.289,2,0,2C127.18,456.895,127.18,454.895,125.889,454.895z"/>
		<path fill="#FFFFFF" d="M326.889,534.895c-1.289,0-1.289,2,0,2C328.18,536.895,328.18,534.895,326.889,534.895z"/>
		<path fill="#FFFFFF" d="M343.889,682.895c-1.289,0-1.289,2,0,2C345.18,684.895,345.18,682.895,343.889,682.895z"/>
		<path fill="#FFFFFF" d="M438.889,602.895c-1.289,0-1.289,2,0,2C440.18,604.895,440.18,602.895,438.889,602.895z"/>
		<path fill="#FFFFFF" d="M386.889,559.895c-1.289,0-1.289,2,0,2C388.18,561.895,388.18,559.895,386.889,559.895z"/>
		<path fill="#FFFFFF" d="M391.889,534.895c-1.289,0-1.289,2,0,2C393.18,536.895,393.18,534.895,391.889,534.895z"/>
		<path fill="#FFFFFF" d="M407.889,557.895c-1.289,0-1.289,2,0,2C409.18,559.895,409.18,557.895,407.889,557.895z"/>
		<path fill="#FFFFFF" d="M597.889,678.895c-1.289,0-1.289,2,0,2C599.18,680.895,599.18,678.895,597.889,678.895z"/>
		<path fill="#FFFFFF" d="M743.889,445.895v1c0,1.29,2,1.29,2,0v-1C745.889,444.605,743.889,444.605,743.889,445.895z"/>
		<path fill="#FFFFFF" d="M841.889,519.895c-1.289,0-1.289,2,0,2C843.18,521.895,843.18,519.895,841.889,519.895z"/>
		<path fill="#FFFFFF" d="M752.889,577.895c-1.289,0-1.289,2,0,2C754.18,579.895,754.18,577.895,752.889,577.895z"/>
		<path fill="#FFFFFF" d="M718.889,531.895c-1.289,0-1.289,2,0,2C720.18,533.895,720.18,531.895,718.889,531.895z"/>
		<path fill="#FFFFFF" d="M751.889,541.895c-1.289,0-1.289,2,0,2C753.18,543.895,753.18,541.895,751.889,541.895z"/>
		<path fill="#FFFFFF" d="M780.889,316.895c-1.289,0-1.289,2,0,2C782.18,318.895,782.18,316.895,780.889,316.895z"/>
		<path fill="#FFFFFF" d="M675.889,264.895c-1.289,0-1.289,2,0,2C677.18,266.895,677.18,264.895,675.889,264.895z"/>
		<path fill="#FFFFFF" d="M668.889,358.895c-1.289,0-1.289,2,0,2C670.18,360.895,670.18,358.895,668.889,358.895z"/>
		<path fill="#FFFFFF" d="M533.889,434.895c-1.289,0-1.289,2,0,2C535.18,436.895,535.18,434.895,533.889,434.895z"/>
		<path fill="#FFFFFF" d="M484.889,255.895c-1.289,0-1.289,2,0,2C486.18,257.895,486.18,255.895,484.889,255.895z"/>
		<path fill="#FFFFFF" d="M484.889,268.895c-1.289,0-1.289,2,0,2C486.18,270.895,486.18,268.895,484.889,268.895z"/>
		<path fill="#FFFFFF" d="M459.889,252.895c-1.289,0-1.289,2,0,2C461.18,254.895,461.18,252.895,459.889,252.895z"/>
		<path fill="#FFFFFF" d="M503.889,259.895c-1.289,0-1.289,2,0,2C505.18,261.895,505.18,259.895,503.889,259.895z"/>
		<path fill="#FFFFFF" d="M522.889,396.895c-1.289,0-1.289,2,0,2C524.18,398.895,524.18,396.895,522.889,396.895z"/>
		<path fill="#FFFFFF" d="M573.889,366.895c-1.289,0-1.289,2,0,2C575.18,368.895,575.18,366.895,573.889,366.895z"/>
		<path fill="#FFFFFF" d="M580.889,412.895c-1.289,0-1.289,2,0,2C582.18,414.895,582.18,412.895,580.889,412.895z"/>
		<path fill="#FFFFFF" d="M559.889,591.895c-1.289,0-1.289,2,0,2C561.18,593.895,561.18,591.895,559.889,591.895z"/>
		<path fill="#FFFFFF" d="M536.889,481.895c-1.289,0-1.289,2,0,2C538.18,483.895,538.18,481.895,536.889,481.895z"/>
		<path fill="#FFFFFF" d="M493.889,728.895c-1.289,0-1.289,2,0,2C495.18,730.895,495.18,728.895,493.889,728.895z"/>
		<path fill="#FFFFFF" d="M437.889,731.895c-1.289,0-1.289,2,0,2C439.18,733.895,439.18,731.895,437.889,731.895z"/>
		<path fill="#FFFFFF" d="M358.889,749.895c-1.289,0-1.289,2,0,2C360.18,751.895,360.18,749.895,358.889,749.895z"/>
		<path fill="#FFFFFF" d="M366.889,722.895c-1.289,0-1.289,2,0,2C368.18,724.895,368.18,722.895,366.889,722.895z"/>
		<path fill="#FFFFFF" d="M255.889,233.895c-2.58,0-2.58,4,0,4S258.469,233.895,255.889,233.895z"/>
		<path fill="#FFFFFF" d="M561.889,544.895c-2.58,0-2.58,4,0,4S564.469,544.895,561.889,544.895z"/>
		<path fill="#FFFFFF" d="M29.496,205.521c-1.289,0-1.289,2,0,2C30.787,207.521,30.787,205.521,29.496,205.521z"/>
		<path fill="#FFFFFF" d="M225.986,54.029c-1.289,0-1.289,2,0,2C227.277,56.029,227.277,54.029,225.986,54.029z"/>
		<path fill="#FFFFFF" d="M222.988,153.024c-1.291,0-1.291,2,0,2C224.277,155.024,224.277,153.024,222.988,153.024z"/>
		<path fill="#FFFFFF" d="M138.992,127.525c-1.291,0-1.291,2,0,2C140.281,129.525,140.281,127.525,138.992,127.525z"/>
		<path fill="#FFFFFF" d="M84.994,79.528c-1.289,0-1.289,2,0,2C86.285,81.528,86.285,79.528,84.994,79.528z"/>
		<path fill="#FFFFFF" d="M0.889,50.562c-1.289,0-1.289,2,0,2C2.18,52.562,2.18,50.562,0.889,50.562z"/>
		<path fill="#FFFFFF" d="M142.223,858.561c-1.289,0-1.289,2,0,2S143.512,858.561,142.223,858.561z"/>
		<path fill="#FFFFFF" d="M91.555,818.561c-1.289,0-1.289,2,0,2C92.846,820.561,92.846,818.561,91.555,818.561z"/>
		<path fill="#FFFFFF" d="M250.223,679.895c-1.289,0-1.289,2,0,2S251.512,679.895,250.223,679.895z"/>
		<path fill="#FFFFFF" d="M347.555,849.229c-1.289,0-1.289,2,0,2C348.846,851.229,348.846,849.229,347.555,849.229z"/>
		<path fill="#FFFFFF" d="M487.557,873.229c-1.291,0-1.291,2,0,2C488.846,875.229,488.846,873.229,487.557,873.229z"/>
		<path fill="#FFFFFF" d="M423.557,871.895c-1.291,0-1.291,2,0,2C424.846,873.895,424.846,871.895,423.557,871.895z"/>
		<path fill="#FFFFFF" d="M418.223,810.561c-1.291,0-1.291,2,0,2C419.512,812.561,419.512,810.561,418.223,810.561z"/>
		<path fill="#FFFFFF" d="M475.557,758.561c-1.291,0-1.291,2,0,2C476.846,760.561,476.846,758.561,475.557,758.561z"/>
		<path fill="#FFFFFF" d="M206.223,875.895c-1.289,0-1.289,2,0,2S207.512,875.895,206.223,875.895z"/>
		<path fill="#FFFFFF" d="M734.223,855.895c-1.291,0-1.291,2,0,2C735.512,857.895,735.512,855.895,734.223,855.895z"/>
		<path fill="#FFFFFF" d="M876.889,829.229c-1.289,0-1.289,2,0,2C878.18,831.229,878.18,829.229,876.889,829.229z"/>
		<path fill="#FFFFFF" d="M895.557,814.561c-1.291,0-1.291,2,0,2C896.846,816.561,896.846,814.561,895.557,814.561z"/>
		<path fill="#FFFFFF" d="M900.889,833.229c-1.289,0-1.289,2,0,2C902.18,835.229,902.18,833.229,900.889,833.229z"/>
		<path fill="#FFFFFF" d="M751.557,66.562c-1.291,0-1.291,2,0,2C752.846,68.562,752.846,66.562,751.557,66.562z"/>
		<path fill="#FFFFFF" d="M607.557,98.562c-1.291,0-1.291,2,0,2C608.846,100.562,608.846,98.562,607.557,98.562z"/>
		<path fill="#FFFFFF" d="M535.557,19.895c-1.291,0-1.291,2,0,2C536.846,21.895,536.846,19.895,535.557,19.895z"/>
		<path fill="#FFFFFF" d="M372.889,75.895c-1.289,0-1.289,2,0,2C374.18,77.895,374.18,75.895,372.889,75.895z"/>
		<path fill="#FFFFFF" d="M430.223,159.895c-1.291,0-1.291,2,0,2C431.512,161.895,431.512,159.895,430.223,159.895z"/>
		<path fill="#FFFFFF" d="M486.223,107.895c-1.291,0-1.291,2,0,2C487.512,109.895,487.512,107.895,486.223,107.895z"/>
		<path fill="#FFFFFF" d="M455.557,101.229c-1.291,0-1.291,2,0,2C456.846,103.229,456.846,101.229,455.557,101.229z"/>
		<path fill="#FFFFFF" d="M455.557,130.562c-1.291,0-1.291,2,0,2C456.846,132.562,456.846,130.562,455.557,130.562z"/>
		<path fill="#FFFFFF" d="M396.889,126.562c-1.289,0-1.289,2,0,2C398.18,128.562,398.18,126.562,396.889,126.562z"/>
		<path fill="#FFFFFF" d="M322.223,169.229c-1.289,0-1.289,2,0,2S323.512,169.229,322.223,169.229z"/>
		<path fill="#FFFFFF" d="M414.223,23.895c-1.291,0-1.291,2,0,2C415.512,25.895,415.512,23.895,414.223,23.895z"/>
		<path fill="#FFFFFF" d="M562.223,39.895c-1.291,0-1.291,2,0,2C563.512,41.895,563.512,39.895,562.223,39.895z"/>
		<path fill="#FFFFFF" d="M572.889,183.895c-1.289,0-1.289,2,0,2C574.18,185.895,574.18,183.895,572.889,183.895z"/>
		<path fill="#FFFFFF" d="M554.223,126.562c-1.291,0-1.291,2,0,2C555.512,128.562,555.512,126.562,554.223,126.562z"/>
		<path fill="#FFFFFF" d="M580.889,125.229c-1.289,0-1.289,2,0,2C582.18,127.229,582.18,125.229,580.889,125.229z"/>
		<path fill="#FFFFFF" d="M579.557,142.562c-1.291,0-1.291,2,0,2C580.846,144.562,580.846,142.562,579.557,142.562z"/>
		<path fill="#FFFFFF" d="M675.557,173.229c-1.291,0-1.291,2,0,2C676.846,175.229,676.846,173.229,675.557,173.229z"/>
		<path fill="#FFFFFF" d="M694.223,51.895c-1.291,0-1.291,2,0,2C695.512,53.895,695.512,51.895,694.223,51.895z"/>
		<path fill="#FFFFFF" d="M840.889,145.229c-1.289,0-1.289,2,0,2C842.18,147.229,842.18,145.229,840.889,145.229z"/>
		<path fill="#FFFFFF" d="M792.889,154.562c-1.289,0-1.289,2,0,2C794.18,156.562,794.18,154.562,792.889,154.562z"/>
		<path fill="#FFFFFF" d="M878.223,25.229c-1.291,0-1.291,2,0,2C879.512,27.229,879.512,25.229,878.223,25.229z"/>
		<path fill="#FFFFFF" d="M734.223,45.562c-2.58,0-2.58,4,0,4C736.801,49.562,736.801,45.562,734.223,45.562z"/>
	</g>
</g>
</svg>
