<?xml version="1.0" encoding="utf-8"?>
<!-- Generator: Adobe Illustrator 16.0.0, SVG Export Plug-In . SVG Version: 6.00 Build 0)  -->
<!DOCTYPE svg PUBLIC "-//W3C//DTD SVG 1.1//EN" "http://www.w3.org/Graphics/SVG/1.1/DTD/svg11.dtd">
<svg version="1.1" xmlns="http://www.w3.org/2000/svg" xmlns:xlink="http://www.w3.org/1999/xlink" x="0px" y="0px" width="1474px"
	 height="2447.511px" viewBox="0 0 1474 2447.511" enable-background="new 0 0 1474 2447.511" xml:space="preserve">
<g id="screenshots" display="none">
</g>
<g id="fondo_negro" display="none">
</g>
<g id="imagenes" display="none">
</g>
<g id="texto" display="none">
</g>
<g id="Capa_6" display="none">
</g>
<g id="bienvenido" display="none">
</g>
<g id="landpage" display="none">
	<defs>
		<rect id="ventana" x="-3586.334" y="1032.802" width="1024.5" height="487.98"/>
	</defs>
	<clipPath id="ventana_1_" display="inline">
		<use xlink:href="#ventana"  overflow="visible"/>
	</clipPath>
</g>
<g id="bocetos" display="none">
</g>
<g id="exportaciones">
	<rect display="none" width="1474" height="2447.511"/>
	<g>
		<path fill="#FFFFFF" d="M302.273,1077.446c-1.291,0-1.291,2,0,2C303.563,1079.446,303.563,1077.446,302.273,1077.446z"/>
		<path fill="#FFFFFF" d="M305.078,1133.941c-1.291,0-1.291,2,0,2C306.367,1135.941,306.367,1133.941,305.078,1133.941z"/>
		<path fill="#FFFFFF" d="M240.039,1018.316c-1.291,0-1.291,2,0,2C241.328,1020.316,241.328,1018.316,240.039,1018.316z"/>
		<path fill="#FFFFFF" d="M244.855,1116.276c-1.289,0-1.289,2,0,2C246.146,1118.276,246.146,1116.276,244.855,1116.276z"/>
		<path fill="#FFFFFF" d="M456.836,1026.345c-1.289,0-1.289,2,0,2C458.127,1028.345,458.127,1026.345,456.836,1026.345z"/>
		<path fill="#FFFFFF" d="M318.729,1296.941c-1.291,0-1.291,2,0,2C320.018,1298.941,320.018,1296.941,318.729,1296.941z"/>
		<path fill="#FFFFFF" d="M285.004,1211.828c-1.289,0-1.289,2,0,2S286.293,1211.828,285.004,1211.828z"/>
		<path fill="#FFFFFF" d="M298.654,1241.537c-1.289,0-1.289,2,0,2S299.943,1241.537,298.654,1241.537z"/>
		<path fill="#FFFFFF" d="M240.842,1357.966c-1.291,0-1.291,2,0,2C242.131,1359.966,242.131,1357.966,240.842,1357.966z"/>
		<path fill="#FFFFFF" d="M236.826,1261.611c-1.289,0-1.289,2,0,2C238.117,1263.611,238.117,1261.611,236.826,1261.611z"/>
		<path fill="#FFFFFF" d="M254.492,1169.271c-1.291,0-1.291,2,0,2C255.781,1171.271,255.781,1169.271,254.492,1169.271z"/>
		<path fill="#FFFFFF" d="M225.586,1222.266c-1.291,0-1.291,2,0,2C226.875,1224.266,226.875,1222.266,225.586,1222.266z"/>
		<path fill="#FFFFFF" d="M419.9,1424.611c-1.289,0-1.289,2,0,2S421.189,1424.611,419.9,1424.611z"/>
		<path fill="#FFFFFF" d="M300.26,1416.582c-1.289,0-1.289,2,0,2C301.551,1418.582,301.551,1416.582,300.26,1416.582z"/>
		<path fill="#FFFFFF" d="M336.393,1494.468c-1.289,0-1.289,2,0,2C337.684,1496.468,337.684,1494.468,336.393,1494.468z"/>
		<path fill="#FFFFFF" d="M255.295,1484.833c-1.291,0-1.291,2,0,2C256.584,1486.833,256.584,1484.833,255.295,1484.833z"/>
		<path fill="#FFFFFF" d="M257.703,1507.315c-1.289,0-1.289,2,0,2C258.994,1509.315,258.994,1507.315,257.703,1507.315z"/>
		<path fill="#FFFFFF" d="M329.166,1484.833c-1.289,0-1.289,2,0,2C330.457,1486.833,330.457,1484.833,329.166,1484.833z"/>
		<path fill="#FFFFFF" d="M258.506,1417.384c-1.289,0-1.289,2,0,2C259.797,1419.384,259.797,1417.384,258.506,1417.384z"/>
		<path fill="#FFFFFF" d="M224.781,1447.094c-1.289,0-1.289,2,0,2C226.072,1449.094,226.072,1447.094,224.781,1447.094z"/>
		<path fill="#FFFFFF" d="M1071.098,1123.503c-1.291,0-1.291,2,0,2C1072.387,1125.503,1072.387,1123.503,1071.098,1123.503z"/>
		<path fill="#FFFFFF" d="M1141.756,1162.045c-1.289,0-1.289,2,0,2C1143.047,1164.045,1143.047,1162.045,1141.756,1162.045z"/>
		<path fill="#FFFFFF" d="M1022.117,1013.498c-1.291,0-1.291,2,0,2C1023.406,1015.498,1023.406,1013.498,1022.117,1013.498z"/>
		<path fill="#FFFFFF" d="M1092.777,1044.01c-1.291,0-1.291,2,0,2C1094.066,1046.01,1094.066,1044.01,1092.777,1044.01z"/>
		<path fill="#FFFFFF" d="M1104.82,1039.192c-1.289,0-1.289,2,0,2C1106.111,1041.192,1106.111,1039.192,1104.82,1039.192z"/>
		<path fill="#FFFFFF" d="M1102.412,1064.084c-1.291,0-1.291,2,0,2C1103.701,1066.084,1103.701,1064.084,1102.412,1064.084z"/>
		<path fill="#FFFFFF" d="M1093.58,1083.355c-1.291,0-1.291,2,0,2C1094.869,1085.355,1094.869,1083.355,1093.58,1083.355z"/>
		<path fill="#FFFFFF" d="M1122.486,1321.03c-1.291,0-1.291,2,0,2C1123.775,1323.03,1123.775,1321.03,1122.486,1321.03z"/>
		<path fill="#FFFFFF" d="M1242.93,1123.503c-1.291,0-1.291,2,0,2C1244.219,1125.503,1244.219,1123.503,1242.93,1123.503z"/>
		<path fill="#FFFFFF" d="M1238.914,1234.311c-1.289,0-1.289,2,0,2C1240.205,1236.311,1240.205,1234.311,1238.914,1234.311z"/>
		<path fill="#FFFFFF" d="M1185.92,1245.552c-1.291,0-1.291,2,0,2C1187.209,1247.552,1187.209,1245.552,1185.92,1245.552z"/>
		<path fill="#FFFFFF" d="M1222.855,1171.68c-1.291,0-1.291,2,0,2C1224.145,1173.68,1224.145,1171.68,1222.855,1171.68z"/>
		<path fill="#FFFFFF" d="M1234.9,1398.917c-1.291,0-1.291,2,0,2C1236.189,1400.917,1236.189,1398.917,1234.9,1398.917z"/>
		<path fill="#FFFFFF" d="M1037.373,1469.576c-1.291,0-1.291,2,0,2C1038.662,1471.576,1038.662,1469.576,1037.373,1469.576z"/>
		<path fill="#FFFFFF" d="M1228.477,1474.394c-1.291,0-1.291,2,0,2C1229.766,1476.394,1229.766,1474.394,1228.477,1474.394z"/>
		<path fill="#FFFFFF" d="M1197.963,1412.566c-1.289,0-1.289,2,0,2C1199.254,1414.566,1199.254,1412.566,1197.963,1412.566z"/>
		<path fill="#FFFFFF" d="M1192.344,1467.971c-1.291,0-1.291,2,0,2C1193.633,1469.971,1193.633,1467.971,1192.344,1467.971z"/>
		<path fill="#FFFFFF" d="M1112.238,1432.695c-1.291,0-1.291,2,0,2C1113.527,1434.695,1113.527,1432.695,1112.238,1432.695z"/>
		<path fill="#FFFFFF" d="M1093.744,1409.553c-1.289,0-1.289,2,0,2C1095.035,1411.553,1095.035,1409.553,1093.744,1409.553z"/>
		<path fill="#FFFFFF" d="M1209.205,1488.044c-1.291,0-1.291,2,0,2C1210.494,1490.044,1210.494,1488.044,1209.205,1488.044z"/>
		<path fill="#FFFFFF" d="M1015.109,1509.81c-1.291,0-1.291,2,0,2C1016.398,1511.81,1016.398,1509.81,1015.109,1509.81z"/>
		<path fill="#FFFFFF" d="M1218.037,1481.62c-1.289,0-1.289,2,0,2C1219.328,1483.62,1219.328,1481.62,1218.037,1481.62z"/>
		<path fill="#FFFFFF" d="M1212.416,1470.38c-1.289,0-1.289,2,0,2C1213.707,1472.38,1213.707,1470.38,1212.416,1470.38z"/>
		<path fill="#FFFFFF" d="M1195.555,1436.655c-1.289,0-1.289,2,0,2C1196.846,1438.655,1196.846,1436.655,1195.555,1436.655z"/>
		<path fill="#FFFFFF" d="M1158.619,1468.773c-1.291,0-1.291,2,0,2C1159.908,1470.773,1159.908,1468.773,1158.619,1468.773z"/>
		<path fill="#FFFFFF" d="M1205.189,1317.015c-1.289,0-1.289,2,0,2C1206.48,1319.015,1206.48,1317.015,1205.189,1317.015z"/>
		<path fill="#FFFFFF" d="M294.639,1032.269c-1.934,0-1.934,3,0,3C296.574,1035.269,296.574,1032.269,294.639,1032.269z"/>
		<path fill="#FFFFFF" d="M288.215,1151.909c-1.934,0-1.934,3,0,3C290.15,1154.909,290.15,1151.909,288.215,1151.909z"/>
		<path fill="#FFFFFF" d="M297.049,1455.426c-1.936,0-1.936,3,0,3C298.982,1458.427,298.982,1455.426,297.049,1455.426z"/>
		<path fill="#FFFFFF" d="M1226.066,1008.983c-1.934,0-1.934,3,0,3C1228.002,1011.983,1228.002,1008.983,1226.066,1008.983z"/>
		<path fill="#FFFFFF" d="M1205.189,1018.619c-1.934,0-1.934,3,0,3C1207.125,1021.619,1207.125,1018.619,1205.189,1018.619z"/>
		<path fill="#FFFFFF" d="M1156.211,1303.668c-1.936,0-1.936,3,0,3C1158.145,1306.668,1158.145,1303.668,1156.211,1303.668z"/>
		<path fill="#FFFFFF" d="M1123.453,1014.907c-2.58,0-2.58,4,0,4S1126.033,1014.907,1123.453,1014.907z"/>
		<path fill="#FFFFFF" d="M1091.809,1509.81c-2.58,0-2.58,4,0,4S1094.389,1509.81,1091.809,1509.81z"/>
		<path fill="#FFFFFF" d="M323.545,1113.67c-2.578,0-2.578,4,0,4C326.125,1117.67,326.125,1113.67,323.545,1113.67z"/>
		<path fill="#FFFFFF" d="M387.363,1495.877c-3.869,0-3.869,6,0,6S391.232,1495.877,387.363,1495.877z"/>
		<path fill="#FFFFFF" d="M306.045,1384.863c-3.869,0-3.869,6,0,6S309.914,1384.863,306.045,1384.863z"/>
		<path fill="#FFFFFF" d="M641.666,1249.325c-1.934,0-1.934,3,0,3C643.602,1252.325,643.602,1249.325,641.666,1249.325z"/>
		<path fill="#FFFFFF" d="M642.666,1092.825c-1.289,0-1.289,2,0,2C643.957,1094.825,643.957,1092.825,642.666,1092.825z"/>
		<path fill="#FFFFFF" d="M812.666,1092.825c-1.289,0-1.289,2,0,2C813.957,1094.825,813.957,1092.825,812.666,1092.825z"/>
		<path fill="#FFFFFF" d="M650.666,1020.825c-1.289,0-1.289,2,0,2C651.957,1022.825,651.957,1020.825,650.666,1020.825z"/>
		<path fill="#FFFFFF" d="M763.666,1286.825c-1.289,0-1.289,2,0,2C764.957,1288.825,764.957,1286.825,763.666,1286.825z"/>
		<path fill="#FFFFFF" d="M482.666,1221.825c-1.289,0-1.289,2,0,2C483.957,1223.825,483.957,1221.825,482.666,1221.825z"/>
		<path fill="#FFFFFF" d="M464.666,1129.825c-1.289,0-1.289,2,0,2C465.957,1131.825,465.957,1129.825,464.666,1129.825z"/>
		<path fill="#FFFFFF" d="M538.666,1023.825c-1.289,0-1.289,2,0,2C539.957,1025.825,539.957,1023.825,538.666,1023.825z"/>
		<path fill="#FFFFFF" d="M382.666,1020.825c-1.289,0-1.289,2,0,2C383.957,1022.825,383.957,1020.825,382.666,1020.825z"/>
		<path fill="#FFFFFF" d="M409.666,1153.825c-1.289,0-1.289,2,0,2C410.957,1155.825,410.957,1153.825,409.666,1153.825z"/>
		<path fill="#FFFFFF" d="M395.666,1285.825c-1.289,0-1.289,2,0,2C396.957,1287.825,396.957,1285.825,395.666,1285.825z"/>
		<path fill="#FFFFFF" d="M362.666,1212.825c-1.289,0-1.289,2,0,2C363.957,1214.825,363.957,1212.825,362.666,1212.825z"/>
		<path fill="#FFFFFF" d="M563.666,1292.825c-1.289,0-1.289,2,0,2C564.957,1294.825,564.957,1292.825,563.666,1292.825z"/>
		<path fill="#FFFFFF" d="M580.666,1440.825c-1.289,0-1.289,2,0,2C581.957,1442.825,581.957,1440.825,580.666,1440.825z"/>
		<path fill="#FFFFFF" d="M675.666,1360.825c-1.289,0-1.289,2,0,2C676.957,1362.825,676.957,1360.825,675.666,1360.825z"/>
		<path fill="#FFFFFF" d="M623.666,1317.825c-1.289,0-1.289,2,0,2C624.957,1319.825,624.957,1317.825,623.666,1317.825z"/>
		<path fill="#FFFFFF" d="M628.666,1292.825c-1.289,0-1.289,2,0,2C629.957,1294.825,629.957,1292.825,628.666,1292.825z"/>
		<path fill="#FFFFFF" d="M644.666,1315.825c-1.289,0-1.289,2,0,2C645.957,1317.825,645.957,1315.825,644.666,1315.825z"/>
		<path fill="#FFFFFF" d="M834.666,1436.825c-1.289,0-1.289,2,0,2C835.957,1438.825,835.957,1436.825,834.666,1436.825z"/>
		<path fill="#FFFFFF" d="M980.666,1203.825v1c0,1.29,2,1.29,2,0v-1C982.666,1202.535,980.666,1202.535,980.666,1203.825z"/>
		<path fill="#FFFFFF" d="M1078.666,1277.825c-1.289,0-1.289,2,0,2C1079.957,1279.825,1079.957,1277.825,1078.666,1277.825z"/>
		<path fill="#FFFFFF" d="M989.666,1335.825c-1.289,0-1.289,2,0,2C990.957,1337.825,990.957,1335.825,989.666,1335.825z"/>
		<path fill="#FFFFFF" d="M955.666,1289.825c-1.289,0-1.289,2,0,2C956.957,1291.825,956.957,1289.825,955.666,1289.825z"/>
		<path fill="#FFFFFF" d="M988.666,1299.825c-1.289,0-1.289,2,0,2C989.957,1301.825,989.957,1299.825,988.666,1299.825z"/>
		<path fill="#FFFFFF" d="M1017.666,1074.825c-1.289,0-1.289,2,0,2C1018.957,1076.825,1018.957,1074.825,1017.666,1074.825z"/>
		<path fill="#FFFFFF" d="M912.666,1022.825c-1.289,0-1.289,2,0,2C913.957,1024.825,913.957,1022.825,912.666,1022.825z"/>
		<path fill="#FFFFFF" d="M905.666,1116.825c-1.289,0-1.289,2,0,2C906.957,1118.825,906.957,1116.825,905.666,1116.825z"/>
		<path fill="#FFFFFF" d="M770.666,1192.825c-1.289,0-1.289,2,0,2C771.957,1194.825,771.957,1192.825,770.666,1192.825z"/>
		<path fill="#FFFFFF" d="M721.666,1013.825c-1.289,0-1.289,2,0,2C722.957,1015.825,722.957,1013.825,721.666,1013.825z"/>
		<path fill="#FFFFFF" d="M721.666,1026.825c-1.289,0-1.289,2,0,2C722.957,1028.825,722.957,1026.825,721.666,1026.825z"/>
		<path fill="#FFFFFF" d="M696.666,1010.825c-1.289,0-1.289,2,0,2C697.957,1012.825,697.957,1010.825,696.666,1010.825z"/>
		<path fill="#FFFFFF" d="M740.666,1017.825c-1.289,0-1.289,2,0,2C741.957,1019.825,741.957,1017.825,740.666,1017.825z"/>
		<path fill="#FFFFFF" d="M759.666,1154.825c-1.289,0-1.289,2,0,2C760.957,1156.825,760.957,1154.825,759.666,1154.825z"/>
		<path fill="#FFFFFF" d="M810.666,1124.825c-1.289,0-1.289,2,0,2C811.957,1126.825,811.957,1124.825,810.666,1124.825z"/>
		<path fill="#FFFFFF" d="M817.666,1170.825c-1.289,0-1.289,2,0,2C818.957,1172.825,818.957,1170.825,817.666,1170.825z"/>
		<path fill="#FFFFFF" d="M796.666,1349.825c-1.289,0-1.289,2,0,2C797.957,1351.825,797.957,1349.825,796.666,1349.825z"/>
		<path fill="#FFFFFF" d="M773.666,1239.825c-1.289,0-1.289,2,0,2C774.957,1241.825,774.957,1239.825,773.666,1239.825z"/>
		<path fill="#FFFFFF" d="M1220.666,1260.825c-1.289,0-1.289,2,0,2C1221.957,1262.825,1221.957,1260.825,1220.666,1260.825z"/>
		<path fill="#FFFFFF" d="M730.666,1486.825c-1.289,0-1.289,2,0,2C731.957,1488.825,731.957,1486.825,730.666,1486.825z"/>
		<path fill="#FFFFFF" d="M674.666,1489.825c-1.289,0-1.289,2,0,2C675.957,1491.825,675.957,1489.825,674.666,1489.825z"/>
		<path fill="#FFFFFF" d="M595.666,1507.825c-1.289,0-1.289,2,0,2C596.957,1509.825,596.957,1507.825,595.666,1507.825z"/>
		<path fill="#FFFFFF" d="M603.666,1480.825c-1.289,0-1.289,2,0,2C604.957,1482.825,604.957,1480.825,603.666,1480.825z"/>
		<path fill="#FFFFFF" d="M492.666,991.825c-2.58,0-2.58,4,0,4S495.246,991.825,492.666,991.825z"/>
		<path fill="#FFFFFF" d="M798.666,1302.825c-2.58,0-2.58,4,0,4S801.246,1302.825,798.666,1302.825z"/>
		<path fill="#FFFFFF" d="M138.781,1056.447c-1.291,0-1.291,2,0,2C140.07,1058.447,140.07,1056.447,138.781,1056.447z"/>
		<path fill="#FFFFFF" d="M201.777,1048.947c-1.289,0-1.289,2,0,2C203.068,1050.947,203.068,1048.947,201.777,1048.947z"/>
		<path fill="#FFFFFF" d="M216.777,976.951c-1.291,0-1.291,2,0,2C218.066,978.951,218.066,976.951,216.777,976.951z"/>
		<path fill="#FFFFFF" d="M266.273,963.452c-1.289,0-1.289,2,0,2C267.564,965.452,267.564,963.452,266.273,963.452z"/>
		<path fill="#FFFFFF" d="M131.281,838.958c-1.289,0-1.289,2,0,2S132.57,838.958,131.281,838.958z"/>
		<path fill="#FFFFFF" d="M462.764,811.959c-1.289,0-1.289,2,0,2C464.055,813.959,464.055,811.959,462.764,811.959z"/>
		<path fill="#FFFFFF" d="M459.766,910.954c-1.291,0-1.291,2,0,2C461.055,912.954,461.055,910.954,459.766,910.954z"/>
		<path fill="#FFFFFF" d="M375.77,885.456c-1.291,0-1.291,2,0,2C377.059,887.456,377.059,885.456,375.77,885.456z"/>
		<path fill="#FFFFFF" d="M321.771,837.458c-1.289,0-1.289,2,0,2C323.063,839.458,323.063,837.458,321.771,837.458z"/>
		<path fill="#FFFFFF" d="M120.332,1196.492c-1.289,0-1.289,2,0,2C121.623,1198.492,121.623,1196.492,120.332,1196.492z"/>
		<path fill="#FFFFFF" d="M31,1016.492c-1.289,0-1.289,2,0,2S32.289,1016.492,31,1016.492z"/>
		<path fill="#FFFFFF" d="M4.332,831.159c-1.289,0-1.289,2,0,2C5.623,833.159,5.623,831.159,4.332,831.159z"/>
		<path fill="#FFFFFF" d="M111,897.825c-1.289,0-1.289,2,0,2S112.289,897.825,111,897.825z"/>
		<path fill="#FFFFFF" d="M20.332,776.492c-1.289,0-1.289,2,0,2C21.623,778.492,21.623,776.492,20.332,776.492z"/>
		<path fill="#FFFFFF" d="M89.666,1416.492c-1.289,0-1.289,2,0,2C90.957,1418.492,90.957,1416.492,89.666,1416.492z"/>
		<path fill="#FFFFFF" d="M181.666,1239.159c-1.289,0-1.289,2,0,2C182.957,1241.159,182.957,1239.159,181.666,1239.159z"/>
		<path fill="#FFFFFF" d="M207,1284.492c-1.289,0-1.289,2,0,2S208.289,1284.492,207,1284.492z"/>
		<path fill="#FFFFFF" d="M80.332,1293.825c-1.289,0-1.289,2,0,2C81.623,1295.825,81.623,1293.825,80.332,1293.825z"/>
		<path fill="#FFFFFF" d="M35,1145.825c-1.289,0-1.289,2,0,2S36.289,1145.825,35,1145.825z"/>
		<path fill="#FFFFFF" d="M140.332,1105.825c-1.289,0-1.289,2,0,2C141.623,1107.825,141.623,1105.825,140.332,1105.825z"/>
		<path fill="#FFFFFF" d="M136.332,1188.492c-1.289,0-1.289,2,0,2C137.623,1190.492,137.623,1188.492,136.332,1188.492z"/>
		<path fill="#FFFFFF" d="M60.332,1116.492c-1.289,0-1.289,2,0,2C61.623,1118.492,61.623,1116.492,60.332,1116.492z"/>
		<path fill="#FFFFFF" d="M132.332,972.492c-1.289,0-1.289,2,0,2C133.623,974.492,133.623,972.492,132.332,972.492z"/>
		<path fill="#FFFFFF" d="M1.666,929.825c-1.289,0-1.289,2,0,2C2.957,931.825,2.957,929.825,1.666,929.825z"/>
		<path fill="#FFFFFF" d="M209.666,871.159c-1.289,0-1.289,2,0,2C210.957,873.159,210.957,871.159,209.666,871.159z"/>
		<path fill="#FFFFFF" d="M237.666,808.492c-1.289,0-1.289,2,0,2C238.957,810.492,238.957,808.492,237.666,808.492z"/>
		<path fill="#FFFFFF" d="M203,841.825c-1.289,0-1.289,2,0,2S204.289,841.825,203,841.825z"/>
		<path fill="#FFFFFF" d="M181.666,844.492c-1.289,0-1.289,2,0,2C182.957,846.492,182.957,844.492,181.666,844.492z"/>
		<path fill="#FFFFFF" d="M181.666,887.159c-1.289,0-1.289,2,0,2C182.957,889.159,182.957,887.159,181.666,887.159z"/>
		<path fill="#FFFFFF" d="M147,868.492c-1.289,0-1.289,2,0,2S148.289,868.492,147,868.492z"/>
		<path fill="#FFFFFF" d="M45.666,1620.491c-1.289,0-1.289,2,0,2C46.957,1622.491,46.957,1620.491,45.666,1620.491z"/>
		<path fill="#FFFFFF" d="M97.666,1531.159c-1.289,0-1.289,2,0,2C98.957,1533.159,98.957,1531.159,97.666,1531.159z"/>
		<path fill="#FFFFFF" d="M119,1547.159c-1.289,0-1.289,2,0,2S120.289,1547.159,119,1547.159z"/>
		<path fill="#FFFFFF" d="M117.666,1576.491c-1.289,0-1.289,2,0,2C118.957,1578.491,118.957,1576.491,117.666,1576.491z"/>
		<path fill="#FFFFFF" d="M87,1577.825c-1.289,0-1.289,2,0,2S88.289,1577.825,87,1577.825z"/>
		<path fill="#FFFFFF" d="M93.666,1552.491c-1.289,0-1.289,2,0,2C94.957,1554.491,94.957,1552.491,93.666,1552.491z"/>
		<path fill="#FFFFFF" d="M144.332,1468.491c-1.289,0-1.289,2,0,2C145.623,1470.491,145.623,1468.491,144.332,1468.491z"/>
		<path fill="#FFFFFF" d="M193.666,1511.159c-1.289,0-1.289,2,0,2C194.957,1513.159,194.957,1511.159,193.666,1511.159z"/>
		<path fill="#FFFFFF" d="M169.666,1532.491c-1.289,0-1.289,2,0,2C170.957,1534.491,170.957,1532.491,169.666,1532.491z"/>
		<path fill="#FFFFFF" d="M160.332,1481.825c-1.289,0-1.289,2,0,2C161.623,1483.825,161.623,1481.825,160.332,1481.825z"/>
		<path fill="#FFFFFF" d="M161.666,1381.825c-1.289,0-1.289,2,0,2C162.957,1383.825,162.957,1381.825,161.666,1381.825z"/>
		<path fill="#FFFFFF" d="M191,1381.825c-1.289,0-1.289,2,0,2S192.289,1381.825,191,1381.825z"/>
		<path fill="#FFFFFF" d="M89.666,1333.825c-1.289,0-1.289,2,0,2C90.957,1335.825,90.957,1333.825,89.666,1333.825z"/>
		<path fill="#FFFFFF" d="M93.666,1436.492c-1.289,0-1.289,2,0,2C94.957,1438.492,94.957,1436.492,93.666,1436.492z"/>
		<path fill="#FFFFFF" d="M76.332,1476.491c-1.289,0-1.289,2,0,2C77.623,1478.491,77.623,1476.491,76.332,1476.491z"/>
		<path fill="#FFFFFF" d="M232.332,1597.825c-1.289,0-1.289,2,0,2C233.623,1599.825,233.623,1597.825,232.332,1597.825z"/>
		<path fill="#FFFFFF" d="M287,1679.16c-1.289,0-1.289,2,0,2S288.289,1679.16,287,1679.16z"/>
		<path fill="#FFFFFF" d="M379,1616.491c-1.289,0-1.289,2,0,2S380.289,1616.491,379,1616.491z"/>
		<path fill="#FFFFFF" d="M328.332,1576.491c-1.289,0-1.289,2,0,2C329.623,1578.491,329.623,1576.491,328.332,1576.491z"/>
		<path fill="#FFFFFF" d="M472.332,1643.159c-1.289,0-1.289,2,0,2C473.623,1645.159,473.623,1643.159,472.332,1643.159z"/>
		<path fill="#FFFFFF" d="M487,1437.825c-1.289,0-1.289,2,0,2S488.289,1437.825,487,1437.825z"/>
		<path fill="#FFFFFF" d="M596.332,1687.157c-1.289,0-1.289,2,0,2C597.623,1689.157,597.623,1687.157,596.332,1687.157z"/>
		<path fill="#FFFFFF" d="M584.332,1607.159c-1.289,0-1.289,2,0,2C585.623,1609.159,585.623,1607.159,584.332,1607.159z"/>
		<path fill="#FFFFFF" d="M741.666,1684.491c-1.289,0-1.289,2,0,2C742.957,1686.491,742.957,1684.491,741.666,1684.491z"/>
		<path fill="#FFFFFF" d="M724.334,1631.159c-1.291,0-1.291,2,0,2C725.623,1633.159,725.623,1631.159,724.334,1631.159z"/>
		<path fill="#FFFFFF" d="M669.666,1676.492c-1.289,0-1.289,2,0,2C670.957,1678.492,670.957,1676.492,669.666,1676.492z"/>
		<path fill="#FFFFFF" d="M660.334,1629.825c-1.291,0-1.291,2,0,2C661.623,1631.825,661.623,1629.825,660.334,1629.825z"/>
		<path fill="#FFFFFF" d="M696.334,1659.159c-1.291,0-1.291,2,0,2C697.623,1661.159,697.623,1659.159,696.334,1659.159z"/>
		<path fill="#FFFFFF" d="M655,1568.491c-1.291,0-1.291,2,0,2C656.289,1570.491,656.289,1568.491,655,1568.491z"/>
		<path fill="#FFFFFF" d="M712.334,1516.491c-1.291,0-1.291,2,0,2C713.623,1518.491,713.623,1516.491,712.334,1516.491z"/>
		<path fill="#FFFFFF" d="M443,1633.825c-1.289,0-1.289,2,0,2S444.289,1633.825,443,1633.825z"/>
		<path fill="#FFFFFF" d="M452.332,1679.16c-1.289,0-1.289,2,0,2C453.623,1681.16,453.623,1679.16,452.332,1679.16z"/>
		<path fill="#FFFFFF" d="M467,1652.491c-1.289,0-1.289,2,0,2S468.289,1652.491,467,1652.491z"/>
		<path fill="#FFFFFF" d="M475,1695.157c-1.289,0-1.289,2,0,2S476.289,1695.157,475,1695.157z"/>
		<path fill="#FFFFFF" d="M971,1613.825c-1.291,0-1.291,2,0,2C972.289,1615.825,972.289,1613.825,971,1613.825z"/>
		<path fill="#FFFFFF" d="M1113.666,1587.159c-1.289,0-1.289,2,0,2C1114.957,1589.159,1114.957,1587.159,1113.666,1587.159z"/>
		<path fill="#FFFFFF" d="M1132.334,1572.491c-1.291,0-1.291,2,0,2C1133.623,1574.491,1133.623,1572.491,1132.334,1572.491z"/>
		<path fill="#FFFFFF" d="M1137.666,1591.159c-1.289,0-1.289,2,0,2C1138.957,1593.159,1138.957,1591.159,1137.666,1591.159z"/>
		<path fill="#FFFFFF" d="M1331,1637.825c-1.291,0-1.291,2,0,2C1332.289,1639.825,1332.289,1637.825,1331,1637.825z"/>
		<path fill="#FFFFFF" d="M1303,1687.157c-1.291,0-1.291,2,0,2C1304.289,1689.157,1304.289,1687.157,1303,1687.157z"/>
		<path fill="#FFFFFF" d="M1200.334,1684.491c-1.291,0-1.291,2,0,2C1201.623,1686.491,1201.623,1684.491,1200.334,1684.491z"/>
		<path fill="#FFFFFF" d="M1012.334,1691.157c-1.291,0-1.291,2,0,2C1013.623,1693.157,1013.623,1691.157,1012.334,1691.157z"/>
		<path fill="#FFFFFF" d="M1360.334,1465.825c-1.291,0-1.291,2,0,2C1361.623,1467.825,1361.623,1465.825,1360.334,1465.825z"/>
		<path fill="#FFFFFF" d="M1417.666,1267.159c-1.289,0-1.289,2,0,2C1418.957,1269.159,1418.957,1267.159,1417.666,1267.159z"/>
		<path fill="#FFFFFF" d="M1299,1315.159c-1.291,0-1.291,2,0,2C1300.289,1317.159,1300.289,1315.159,1299,1315.159z"/>
		<path fill="#FFFFFF" d="M1279,1256.492c-1.291,0-1.291,2,0,2C1280.289,1258.492,1280.289,1256.492,1279,1256.492z"/>
		<path fill="#FFFFFF" d="M1315,1267.159c-1.291,0-1.291,2,0,2C1316.289,1269.159,1316.289,1267.159,1315,1267.159z"/>
		<path fill="#FFFFFF" d="M1235,1315.159c-1.291,0-1.291,2,0,2C1236.289,1317.159,1236.289,1315.159,1235,1315.159z"/>
		<path fill="#FFFFFF" d="M1457.666,1421.825c-1.289,0-1.289,2,0,2C1458.957,1423.825,1458.957,1421.825,1457.666,1421.825z"/>
		<path fill="#FFFFFF" d="M1441.666,1357.825c-1.289,0-1.289,2,0,2C1442.957,1359.825,1442.957,1357.825,1441.666,1357.825z"/>
		<path fill="#FFFFFF" d="M1428.334,1393.825c-1.291,0-1.291,2,0,2C1429.623,1395.825,1429.623,1393.825,1428.334,1393.825z"/>
		<path fill="#FFFFFF" d="M1440.334,1393.825c-1.291,0-1.291,2,0,2C1441.623,1395.825,1441.623,1393.825,1440.334,1393.825z"/>
		<path fill="#FFFFFF" d="M1433.666,1585.825c-1.289,0-1.289,2,0,2C1434.957,1587.825,1434.957,1585.825,1433.666,1585.825z"/>
		<path fill="#FFFFFF" d="M1472.334,1704.491c-1.291,0-1.291,2,0,2C1473.623,1706.491,1473.623,1704.491,1472.334,1704.491z"/>
		<path fill="#FFFFFF" d="M1423,1707.157c-1.291,0-1.291,2,0,2C1424.289,1709.157,1424.289,1707.157,1423,1707.157z"/>
		<path fill="#FFFFFF" d="M1435,1669.825c-1.291,0-1.291,2,0,2C1436.289,1671.825,1436.289,1669.825,1435,1669.825z"/>
		<path fill="#FFFFFF" d="M1449.666,1721.825c-1.289,0-1.289,2,0,2C1450.957,1723.825,1450.957,1721.825,1449.666,1721.825z"/>
		<path fill="#FFFFFF" d="M1449.666,1705.825c-1.289,0-1.289,2,0,2C1450.957,1707.825,1450.957,1705.825,1449.666,1705.825z"/>
		<path fill="#FFFFFF" d="M1420.334,1139.159c-1.291,0-1.291,2,0,2C1421.623,1141.159,1421.623,1139.159,1420.334,1139.159z"/>
		<path fill="#FFFFFF" d="M1333.666,1040.492c-1.289,0-1.289,2,0,2C1334.957,1042.492,1334.957,1040.492,1333.666,1040.492z"/>
		<path fill="#FFFFFF" d="M1348.334,935.159c-1.291,0-1.291,2,0,2C1349.623,937.159,1349.623,935.159,1348.334,935.159z"/>
		<path fill="#FFFFFF" d="M988.334,824.492c-1.291,0-1.291,2,0,2C989.623,826.492,989.623,824.492,988.334,824.492z"/>
		<path fill="#FFFFFF" d="M844.334,856.492c-1.291,0-1.291,2,0,2C845.623,858.492,845.623,856.492,844.334,856.492z"/>
		<path fill="#FFFFFF" d="M772.334,777.825c-1.291,0-1.291,2,0,2C773.623,779.825,773.623,777.825,772.334,777.825z"/>
		<path fill="#FFFFFF" d="M609.666,833.825c-1.289,0-1.289,2,0,2C610.957,835.825,610.957,833.825,609.666,833.825z"/>
		<path fill="#FFFFFF" d="M667,917.825c-1.291,0-1.291,2,0,2C668.289,919.825,668.289,917.825,667,917.825z"/>
		<path fill="#FFFFFF" d="M723,865.825c-1.291,0-1.291,2,0,2C724.289,867.825,724.289,865.825,723,865.825z"/>
		<path fill="#FFFFFF" d="M692.334,859.159c-1.291,0-1.291,2,0,2C693.623,861.159,693.623,859.159,692.334,859.159z"/>
		<path fill="#FFFFFF" d="M692.334,888.492c-1.291,0-1.291,2,0,2C693.623,890.492,693.623,888.492,692.334,888.492z"/>
		<path fill="#FFFFFF" d="M633.666,884.492c-1.289,0-1.289,2,0,2C634.957,886.492,634.957,884.492,633.666,884.492z"/>
		<path fill="#FFFFFF" d="M559,927.159c-1.289,0-1.289,2,0,2S560.289,927.159,559,927.159z"/>
		<path fill="#FFFFFF" d="M651,781.825c-1.291,0-1.291,2,0,2C652.289,783.825,652.289,781.825,651,781.825z"/>
		<path fill="#FFFFFF" d="M799,797.825c-1.291,0-1.291,2,0,2C800.289,799.825,800.289,797.825,799,797.825z"/>
		<path fill="#FFFFFF" d="M809.666,941.825c-1.289,0-1.289,2,0,2C810.957,943.825,810.957,941.825,809.666,941.825z"/>
		<path fill="#FFFFFF" d="M791,884.492c-1.291,0-1.291,2,0,2C792.289,886.492,792.289,884.492,791,884.492z"/>
		<path fill="#FFFFFF" d="M817.666,883.159c-1.289,0-1.289,2,0,2C818.957,885.159,818.957,883.159,817.666,883.159z"/>
		<path fill="#FFFFFF" d="M816.334,900.492c-1.291,0-1.291,2,0,2C817.623,902.492,817.623,900.492,816.334,900.492z"/>
		<path fill="#FFFFFF" d="M912.334,931.159c-1.291,0-1.291,2,0,2C913.623,933.159,913.623,931.159,912.334,931.159z"/>
		<path fill="#FFFFFF" d="M931,809.825c-1.291,0-1.291,2,0,2C932.289,811.825,932.289,809.825,931,809.825z"/>
		<path fill="#FFFFFF" d="M1077.666,903.159c-1.289,0-1.289,2,0,2C1078.957,905.159,1078.957,903.159,1077.666,903.159z"/>
		<path fill="#FFFFFF" d="M1029.666,912.492c-1.289,0-1.289,2,0,2C1030.957,914.492,1030.957,912.492,1029.666,912.492z"/>
		<path fill="#FFFFFF" d="M1115,783.159c-1.291,0-1.291,2,0,2C1116.289,785.159,1116.289,783.159,1115,783.159z"/>
		<path fill="#FFFFFF" d="M1267,885.825c-1.291,0-1.291,2,0,2C1268.289,887.825,1268.289,885.825,1267,885.825z"/>
		<path fill="#FFFFFF" d="M1325.666,792.492c-1.289,0-1.289,2,0,2C1326.957,794.492,1326.957,792.492,1325.666,792.492z"/>
		<path fill="#FFFFFF" d="M1445.666,800.492c-1.289,0-1.289,2,0,2C1446.957,802.492,1446.957,800.492,1445.666,800.492z"/>
		<path fill="#FFFFFF" d="M1427,936.492c-1.291,0-1.291,2,0,2C1428.289,938.492,1428.289,936.492,1427,936.492z"/>
		<path fill="#FFFFFF" d="M1393.666,888.492c-1.289,0-1.289,2,0,2C1394.957,890.492,1394.957,888.492,1393.666,888.492z"/>
		<path fill="#FFFFFF" d="M1440.334,847.159c-1.291,0-1.291,2,0,2C1441.623,849.159,1441.623,847.159,1440.334,847.159z"/>
		<path fill="#FFFFFF" d="M1448.334,929.825c-1.291,0-1.291,2,0,2C1449.623,931.825,1449.623,929.825,1448.334,929.825z"/>
		<path fill="#FFFFFF" d="M1348.334,1348.492c-1.291,0-1.291,2,0,2C1349.623,1350.492,1349.623,1348.492,1348.334,1348.492z"/>
		<path fill="#FFFFFF" d="M971,803.492c-2.58,0-2.58,4,0,4C973.578,807.492,973.578,803.492,971,803.492z"/>
		<path fill="#FFFFFF" d="M1407,1492.825c-2.58,0-2.58,4,0,4C1409.578,1496.825,1409.578,1492.825,1407,1492.825z"/>
		<path fill="#FFFFFF" d="M1020.334,1708.825c-2.58,0-2.58,4,0,4C1022.912,1712.825,1022.912,1708.825,1020.334,1708.825z"/>
		<path fill="#FFFFFF" d="M60.332,1722.159c-2.578,0-2.578,4,0,4C62.912,1726.159,62.912,1722.159,60.332,1722.159z"/>
		<path fill="#FFFFFF" d="M153.666,1455.493c-2.58,0-2.58,4,0,4S156.246,1455.493,153.666,1455.493z"/>
		<path fill="#FFFFFF" d="M97.666,790.492c-3.869,0-3.869,6,0,6S101.535,790.492,97.666,790.492z"/>
		<path fill="#FFFFFF" d="M647,1699.825c-3.869,0-3.869,6,0,6S650.869,1699.825,647,1699.825z"/>
		<path fill="#FFFFFF" d="M656.334,1680.326c-3.225,0-3.225,5,0,5S659.559,1680.326,656.334,1680.326z"/>
		<path fill="#FFFFFF" d="M570.068,1814.88c-1.289,0-1.289,2,0,2S571.357,1814.88,570.068,1814.88z"/>
		<path fill="#FFFFFF" d="M571.567,2003.869c-1.29,0-1.29,2,0,2S572.857,2003.869,571.567,2003.869z"/>
		<path fill="#FFFFFF" d="M679.562,1928.873c-1.29,0-1.29,2,0,2S680.852,1928.873,679.562,1928.873z"/>
		<path fill="#FFFFFF" d="M655.563,2069.866c-1.29,0-1.29,2,0,2S656.854,2069.866,655.563,2069.866z"/>
		<path fill="#FFFFFF" d="M348.078,1943.872c-1.289,0-1.289,2,0,2S349.367,1943.872,348.078,1943.872z"/>
		<path fill="#FFFFFF" d="M390.076,1813.379c-1.289,0-1.289,2,0,2S391.365,1813.379,390.076,1813.379z"/>
		<path fill="#FFFFFF" d="M273.082,1801.38c-1.289,0-1.289,2,0,2S274.371,1801.38,273.082,1801.38z"/>
		<path fill="#FFFFFF" d="M231.084,1990.37c-1.289,0-1.289,2,0,2S232.373,1990.37,231.084,1990.37z"/>
		<path fill="#FFFFFF" d="M97.591,1873.376c-1.29,0-1.29,2,0,2S98.881,1873.376,97.591,1873.376z"/>
		<path fill="#FFFFFF" d="M118.59,1807.379c-1.289,0-1.289,2,0,2S119.879,1807.379,118.59,1807.379z"/>
		<path fill="#FFFFFF" d="M49.594,2108.864c-1.289,0-1.289,2,0,2S50.883,2108.864,49.594,2108.864z"/>
		<path fill="#FFFFFF" d="M228.084,2149.362c-1.289,0-1.289,2,0,2S229.373,2149.362,228.084,2149.362z"/>
		<path fill="#FFFFFF" d="M375.077,2131.363c-1.29,0-1.29,2,0,2S376.367,2131.363,375.077,2131.363z"/>
		<path fill="#FFFFFF" d="M288.081,2216.858c-1.29,0-1.29,2,0,2S289.371,2216.858,288.081,2216.858z"/>
		<path fill="#FFFFFF" d="M295.581,2114.864c-1.29,0-1.29,2,0,2S296.871,2114.864,295.581,2114.864z"/>
		<path fill="#FFFFFF" d="M369.077,2210.859c-1.29,0-1.29,2,0,2S370.367,2210.859,369.077,2210.859z"/>
		<path fill="#FFFFFF" d="M328.579,2180.86c-1.29,0-1.29,2,0,2S329.869,2180.86,328.579,2180.86z"/>
		<path fill="#FFFFFF" d="M445.573,1994.87c-1.29,0-1.29,2,0,2S446.863,1994.87,445.573,1994.87z"/>
		<path fill="#FFFFFF" d="M477.072,2047.367c-1.289,0-1.289,2,0,2S478.361,2047.367,477.072,2047.367z"/>
		<path fill="#FFFFFF" d="M538.568,1988.87c-1.289,0-1.289,2,0,2S539.857,1988.87,538.568,1988.87z"/>
		<path fill="#FFFFFF" d="M984.047,1969.371c-1.289,0-1.289,2,0,2S985.336,1969.371,984.047,1969.371z"/>
		<path fill="#FFFFFF" d="M907.551,1883.876c-1.289,0-1.289,2,0,2S908.84,1883.876,907.551,1883.876z"/>
		<path fill="#FFFFFF" d="M1012.545,1826.878c-1.289,0-1.289,2,0,2S1013.834,1826.878,1012.545,1826.878z"/>
		<path fill="#FFFFFF" d="M931.549,1840.378c-1.289,0-1.289,2,0,2S932.838,1840.378,931.549,1840.378z"/>
		<path fill="#FFFFFF" d="M916.55,1802.88c-1.29,0-1.29,2,0,2S917.84,1802.88,916.55,1802.88z"/>
		<path fill="#FFFFFF" d="M870.053,1648.387c-1.289,0-1.289,2,0,2S871.342,1648.387,870.053,1648.387z"/>
		<path fill="#FFFFFF" d="M819.055,1858.377c-1.289,0-1.289,2,0,2S820.344,1858.377,819.055,1858.377z"/>
		<path fill="#FFFFFF" d="M972.047,2030.868c-1.289,0-1.289,2,0,2S973.336,2030.868,972.047,2030.868z"/>
		<path fill="#FFFFFF" d="M952.548,2006.869c-1.29,0-1.29,2,0,2S953.838,2006.869,952.548,2006.869z"/>
		<path fill="#FFFFFF" d="M951.048,1973.871c-1.29,0-1.29,2,0,2S952.338,1973.871,951.048,1973.871z"/>
		<path fill="#FFFFFF" d="M1225.534,1876.376c-1.29,0-1.29,2,0,2S1226.824,1876.376,1225.534,1876.376z"/>
		<path fill="#FFFFFF" d="M1156.538,2083.365c-1.29,0-1.29,2,0,2S1157.828,2083.365,1156.538,2083.365z"/>
		<path fill="#FFFFFF" d="M1165.537,2036.868c-1.289,0-1.289,2,0,2S1166.826,2036.868,1165.537,2036.868z"/>
		<path fill="#FFFFFF" d="M1177.537,2053.367c-1.289,0-1.289,2,0,2S1178.826,2053.367,1177.537,2053.367z"/>
		<path fill="#FFFFFF" d="M1158.038,2057.867c-1.29,0-1.29,2,0,2S1159.328,2057.867,1158.038,2057.867z"/>
		<path fill="#FFFFFF" d="M1254.033,1907.874c-1.289,0-1.289,2,0,2S1255.322,1907.874,1254.033,1907.874z"/>
		<path fill="#FFFFFF" d="M1203.035,1907.874c-1.289,0-1.289,2,0,2S1204.324,1907.874,1203.035,1907.874z"/>
		<path fill="#FFFFFF" d="M1222.535,1903.375c-1.289,0-1.289,2,0,2S1223.824,1903.375,1222.535,1903.375z"/>
		<path fill="#FFFFFF" d="M1149.038,1757.882c-1.29,0-1.29,2,0,2S1150.328,1757.882,1149.038,1757.882z"/>
		<path fill="#FFFFFF" d="M1431.024,1819.379c-1.29,0-1.29,2,0,2S1432.314,1819.379,1431.024,1819.379z"/>
		<path fill="#FFFFFF" d="M1353.028,2188.36c-1.29,0-1.29,2,0,2S1354.318,2188.36,1353.028,2188.36z"/>
		<path fill="#FFFFFF" d="M1344.028,2023.368c-1.29,0-1.29,2,0,2S1345.318,2023.368,1344.028,2023.368z"/>
		<path fill="#FFFFFF" d="M1383.026,2125.363c-1.29,0-1.29,2,0,2S1384.316,2125.363,1383.026,2125.363z"/>
		<path fill="#FFFFFF" d="M1357.528,2131.363c-1.29,0-1.29,2,0,2S1358.818,2131.363,1357.528,2131.363z"/>
		<path fill="#FFFFFF" d="M1359.027,2126.863c-1.289,0-1.289,2,0,2S1360.316,2126.863,1359.027,2126.863z"/>
		<path fill="#FFFFFF" d="M1285.531,2257.356c-1.289,0-1.289,2,0,2S1286.82,2257.356,1285.531,2257.356z"/>
		<path fill="#FFFFFF" d="M1177.537,2200.359c-1.289,0-1.289,2,0,2S1178.826,2200.359,1177.537,2200.359z"/>
		<path fill="#FFFFFF" d="M1192.536,2408.85c-1.29,0-1.29,2,0,2S1193.826,2408.85,1192.536,2408.85z"/>
		<path fill="#FFFFFF" d="M1263.033,2378.851c-1.289,0-1.289,2,0,2S1264.322,2378.851,1263.033,2378.851z"/>
		<path fill="#FFFFFF" d="M1264.532,2401.35c-1.29,0-1.29,2,0,2S1265.822,2401.35,1264.532,2401.35z"/>
		<path fill="#FFFFFF" d="M1245.033,2390.851c-1.289,0-1.289,2,0,2S1246.322,2390.851,1245.033,2390.851z"/>
		<path fill="#FFFFFF" d="M1261.533,2392.351c-1.289,0-1.289,2,0,2S1262.822,2392.351,1261.533,2392.351z"/>
		<path fill="#FFFFFF" d="M1401.025,2384.851c-1.289,0-1.289,2,0,2S1402.314,2384.851,1401.025,2384.851z"/>
		<path fill="#FFFFFF" d="M1389.026,2434.348c-1.29,0-1.29,2,0,2S1390.316,2434.348,1389.026,2434.348z"/>
		<path fill="#FFFFFF" d="M1402.525,2407.35c-1.289,0-1.289,2,0,2S1403.814,2407.35,1402.525,2407.35z"/>
		<path fill="#FFFFFF" d="M1428.024,2420.849c-1.29,0-1.29,2,0,2S1429.314,2420.849,1428.024,2420.849z"/>
		<path fill="#FFFFFF" d="M1434.024,2269.356c-1.29,0-1.29,2,0,2S1435.314,2269.356,1434.024,2269.356z"/>
		<path fill="#FFFFFF" d="M1357.528,2359.352c-1.29,0-1.29,2,0,2S1358.818,2359.352,1357.528,2359.352z"/>
		<path fill="#FFFFFF" d="M1303.53,2378.851c-1.29,0-1.29,2,0,2S1304.82,2378.851,1303.53,2378.851z"/>
		<path fill="#FFFFFF" d="M1354.666,2420.296c-3.469,0-3.817,4.812-1.064,5.809c-0.126,0.566,0.174,1.244,0.927,1.244
			c0.716,0,1.019-0.612,0.941-1.16C1358.506,2425.413,1358.242,2420.296,1354.666,2420.296z"/>
		<path fill="#FFFFFF" d="M1377.027,2390.851c-1.289,0-1.289,2,0,2S1378.316,2390.851,1377.027,2390.851z"/>
		<path fill="#FFFFFF" d="M1359.027,2249.857c-1.289,0-1.289,2,0,2S1360.316,2249.857,1359.027,2249.857z"/>
		<path fill="#FFFFFF" d="M790.557,2288.855c-1.289,0-1.289,2,0,2S791.846,2288.855,790.557,2288.855z"/>
		<path fill="#FFFFFF" d="M598.565,2287.355c-1.29,0-1.29,2,0,2S599.855,2287.355,598.565,2287.355z"/>
		<path fill="#FFFFFF" d="M561.067,2369.852c-1.29,0-1.29,2,0,2S562.357,2369.852,561.067,2369.852z"/>
		<path fill="#FFFFFF" d="M442.573,2276.855c-1.29,0-1.29,2,0,2S443.863,2276.855,442.573,2276.855z"/>
		<path fill="#FFFFFF" d="M222.085,2374.351c-1.29,0-1.29,2,0,2S223.375,2374.351,222.085,2374.351z"/>
		<path fill="#FFFFFF" d="M52.593,2258.856c-1.29,0-1.29,2,0,2S53.883,2258.856,52.593,2258.856z"/>
		<path fill="#FFFFFF" d="M42.094,2371.352c-1.289,0-1.289,2,0,2S43.383,2371.352,42.094,2371.352z"/>
		<path fill="#FFFFFF" d="M70.592,2374.351c-1.289,0-1.289,2,0,2S71.881,2374.351,70.592,2374.351z"/>
		<path fill="#FFFFFF" d="M42.094,2414.849c-1.289,0-1.289,2,0,2S43.383,2414.849,42.094,2414.849z"/>
		<path fill="#FFFFFF" d="M42.094,2398.35c-1.289,0-1.289,2,0,2S43.383,2398.35,42.094,2398.35z"/>
		<path fill="#FFFFFF" d="M94.591,2390.851c-1.29,0-1.29,2,0,2S95.881,2390.851,94.591,2390.851z"/>
		<path fill="#FFFFFF" d="M132.089,2260.356c-1.29,0-1.29,2,0,2S133.379,2260.356,132.089,2260.356z"/>
		<path fill="#FFFFFF" d="M117.09,2329.354c-1.289,0-1.289,2,0,2S118.379,2329.354,117.09,2329.354z"/>
		<path fill="#FFFFFF" d="M456.073,2359.352c-1.29,0-1.29,2,0,2S457.363,2359.352,456.073,2359.352z"/>
		<path fill="#FFFFFF" d="M598.565,2141.862c-1.29,0-1.29,2,0,2S599.855,2141.862,598.565,2141.862z"/>
		<path fill="#FFFFFF" d="M838.554,2174.861c-1.29,0-1.29,2,0,2S839.844,2174.861,838.554,2174.861z"/>
		<path fill="#FFFFFF" d="M955.548,2111.864c-1.29,0-1.29,2,0,2S956.838,2111.864,955.548,2111.864z"/>
		<path fill="#FFFFFF" d="M1000.546,2255.856c-1.29,0-1.29,2,0,2S1001.836,2255.856,1000.546,2255.856z"/>
		<path fill="#FFFFFF" d="M655.563,2416.349c-1.29,0-1.29,2,0,2S656.854,2416.349,655.563,2416.349z"/>
		<path fill="#FFFFFF" d="M672.063,2192.86c-1.289,0-1.289,2,0,2S673.352,2192.86,672.063,2192.86z"/>
		<path fill="#FFFFFF" d="M681.062,2260.356c-1.29,0-1.29,2,0,2S682.352,2260.356,681.062,2260.356z"/>
		<path fill="#FFFFFF" d="M663.063,2225.858c-1.289,0-1.289,2,0,2S664.352,2225.858,663.063,2225.858z"/>
		<path fill="#FFFFFF" d="M676.562,2228.858c-1.29,0-1.29,2,0,2S677.852,2228.858,676.562,2228.858z"/>
		<path fill="#FFFFFF" d="M943.549,2356.352c-1.289,0-1.289,2,0,2S944.838,2356.352,943.549,2356.352z"/>
		<path fill="#FFFFFF" d="M610.563,628.438c-1.29,0-1.29,2,0,2S611.854,628.438,610.563,628.438z"/>
		<path fill="#FFFFFF" d="M426.072,704.934c-1.289,0-1.289,2,0,2S427.361,704.934,426.072,704.934z"/>
		<path fill="#FFFFFF" d="M379.575,445.447c-1.29,0-1.29,2,0,2S380.865,445.447,379.575,445.447z"/>
		<path fill="#FFFFFF" d="M474.07,314.954c-1.289,0-1.289,2,0,2S475.359,314.954,474.07,314.954z"/>
		<path fill="#FFFFFF" d="M492.069,410.949c-1.29,0-1.29,2,0,2S493.359,410.949,492.069,410.949z"/>
		<path fill="#FFFFFF" d="M619.563,290.955c-1.289,0-1.289,2,0,2S620.852,290.955,619.563,290.955z"/>
		<path fill="#FFFFFF" d="M409.573,178.46c-1.29,0-1.29,2,0,2S410.863,178.46,409.573,178.46z"/>
		<path fill="#FFFFFF" d="M306.079,332.953c-1.29,0-1.29,2,0,2S307.369,332.953,306.079,332.953z"/>
		<path fill="#FFFFFF" d="M250.582,112.464c-1.289,0-1.289,2,0,2S251.871,112.464,250.582,112.464z"/>
		<path fill="#FFFFFF" d="M124.588,115.464c-1.289,0-1.289,2,0,2S125.877,115.464,124.588,115.464z"/>
		<path fill="#FFFFFF" d="M99.09,28.468c-1.289,0-1.289,2,0,2S100.379,28.468,99.09,28.468z"/>
		<path fill="#FFFFFF" d="M192.085,35.968c-1.29,0-1.29,2,0,2S193.375,35.968,192.085,35.968z"/>
		<path fill="#FFFFFF" d="M121.589,152.962c-1.29,0-1.29,2,0,2S122.879,152.962,121.589,152.962z"/>
		<path fill="#FFFFFF" d="M45.093,110.964c-1.29,0-1.29,2,0,2S46.383,110.964,45.093,110.964z"/>
		<path fill="#FFFFFF" d="M54.092,79.465c-1.289,0-1.289,2,0,2S55.381,79.465,54.092,79.465z"/>
		<path fill="#FFFFFF" d="M34.593,37.467c-1.29,0-1.29,2,0,2S35.883,37.467,34.593,37.467z"/>
		<path fill="#FFFFFF" d="M144.088,341.952c-1.289,0-1.289,2,0,2S145.377,341.952,144.088,341.952z"/>
		<path fill="#FFFFFF" d="M157.587,556.441c-1.29,0-1.29,2,0,2S158.877,556.441,157.587,556.441z"/>
		<path fill="#FFFFFF" d="M283.58,562.441c-1.289,0-1.289,2,0,2S284.869,562.441,283.58,562.441z"/>
		<path fill="#FFFFFF" d="M222.084,460.446c-1.289,0-1.289,2,0,2S223.373,460.446,222.084,460.446z"/>
		<path fill="#FFFFFF" d="M235.583,383.95c-1.29,0-1.29,2,0,2S236.873,383.95,235.583,383.95z"/>
		<path fill="#FFFFFF" d="M64.592,404.949c-1.289,0-1.289,2,0,2S65.881,404.949,64.592,404.949z"/>
		<path fill="#FFFFFF" d="M150.087,637.438c-1.29,0-1.29,2,0,2S151.377,637.438,150.087,637.438z"/>
		<path fill="#FFFFFF" d="M276.081,709.434c-1.29,0-1.29,2,0,2S277.371,709.434,276.081,709.434z"/>
		<path fill="#FFFFFF" d="M330.078,709.434c-1.289,0-1.289,2,0,2S331.367,709.434,330.078,709.434z"/>
		<path fill="#FFFFFF" d="M340.577,610.439c-1.29,0-1.29,2,0,2S341.867,610.439,340.577,610.439z"/>
		<path fill="#FFFFFF" d="M315.079,629.938c-1.29,0-1.29,2,0,2S316.369,629.938,315.079,629.938z"/>
		<path fill="#FFFFFF" d="M298.58,661.437c-1.289,0-1.289,2,0,2S299.869,661.437,298.58,661.437z"/>
		<path fill="#FFFFFF" d="M250.582,610.439c-1.289,0-1.289,2,0,2S251.871,610.439,250.582,610.439z"/>
		<path fill="#FFFFFF" d="M349.577,464.946c-1.29,0-1.29,2,0,2S350.867,464.946,349.577,464.946z"/>
		<path fill="#FFFFFF" d="M288.08,403.449c-1.289,0-1.289,2,0,2S289.369,403.449,288.08,403.449z"/>
		<path fill="#FFFFFF" d="M291.08,467.946c-1.289,0-1.289,2,0,2S292.369,467.946,291.08,467.946z"/>
		<path fill="#FFFFFF" d="M328.578,374.951c-1.289,0-1.289,2,0,2S329.867,374.951,328.578,374.951z"/>
		<path fill="#FFFFFF" d="M276.081,322.453c-1.29,0-1.29,2,0,2S277.371,322.453,276.081,322.453z"/>
		<path fill="#FFFFFF" d="M220.584,200.959c-1.289,0-1.289,2,0,2S221.873,200.959,220.584,200.959z"/>
		<path fill="#FFFFFF" d="M193.585,295.455c-1.29,0-1.29,2,0,2S194.875,295.455,193.585,295.455z"/>
		<path fill="#FFFFFF" d="M492.07,640.438c-1.289,0-1.289,2,0,2S493.359,640.438,492.07,640.438z"/>
		<path fill="#FFFFFF" d="M532.568,751.432c-1.289,0-1.289,2,0,2S533.857,751.432,532.568,751.432z"/>
		<path fill="#FFFFFF" d="M735.058,625.438c-1.29,0-1.29,2,0,2S736.348,625.438,735.058,625.438z"/>
		<path fill="#FFFFFF" d="M796.555,404.949c-1.289,0-1.289,2,0,2S797.844,404.949,796.555,404.949z"/>
		<path fill="#FFFFFF" d="M1047.042,544.442c-1.29,0-1.29,2,0,2S1048.332,544.442,1047.042,544.442z"/>
		<path fill="#FFFFFF" d="M967.546,572.941c-1.29,0-1.29,2,0,2S968.836,572.941,967.546,572.941z"/>
		<path fill="#FFFFFF" d="M1033.543,296.955c-1.289,0-1.289,2,0,2S1034.832,296.955,1033.543,296.955z"/>
		<path fill="#FFFFFF" d="M841.553,202.459c-1.289,0-1.289,2,0,2S842.842,202.459,841.553,202.459z"/>
		<path fill="#FFFFFF" d="M726.059,428.948c-1.289,0-1.289,2,0,2S727.348,428.948,726.059,428.948z"/>
		<path fill="#FFFFFF" d="M603.064,467.946c-1.289,0-1.289,2,0,2S604.354,467.946,603.064,467.946z"/>
		<path fill="#FFFFFF" d="M721.559,265.456c-1.289,0-1.289,2,0,2S722.848,265.456,721.559,265.456z"/>
		<path fill="#FFFFFF" d="M619.563,121.463c-1.29,0-1.29,2,0,2S620.854,121.463,619.563,121.463z"/>
		<path fill="#FFFFFF" d="M532.568,152.962c-1.289,0-1.289,2,0,2S533.857,152.962,532.568,152.962z"/>
		<path fill="#FFFFFF" d="M504.069,43.467c-1.29,0-1.29,2,0,2S505.359,43.467,504.069,43.467z"/>
		<path fill="#FFFFFF" d="M1219.533,65.966c-1.289,0-1.289,2,0,2S1220.822,65.966,1219.533,65.966z"/>
		<path fill="#FFFFFF" d="M1198.535,347.952c-1.289,0-1.289,2,0,2S1199.824,347.952,1198.535,347.952z"/>
		<path fill="#FFFFFF" d="M1368.026,175.46c-1.29,0-1.29,2,0,2S1369.316,175.46,1368.026,175.46z"/>
		<path fill="#FFFFFF" d="M1381.525,137.962c-1.289,0-1.289,2,0,2S1382.814,137.962,1381.525,137.962z"/>
		<path fill="#FFFFFF" d="M1318.528,314.954c-1.29,0-1.29,2,0,2S1319.818,314.954,1318.528,314.954z"/>
		<path fill="#FFFFFF" d="M1069.541,91.465c-1.289,0-1.289,2,0,2S1070.83,91.465,1069.541,91.465z"/>
		<path fill="#FFFFFF" d="M937.548,85.465c-1.29,0-1.29,2,0,2S938.838,85.465,937.548,85.465z"/>
		<path fill="#FFFFFF" d="M949.547,50.967c-1.289,0-1.289,2,0,2S950.836,50.967,949.547,50.967z"/>
		<path fill="#FFFFFF" d="M1021.544,53.967c-1.29,0-1.29,2,0,2S1022.834,53.967,1021.544,53.967z"/>
		<path fill="#FFFFFF" d="M871.551,7.469c-1.289,0-1.289,2,0,2S872.84,7.469,871.551,7.469z"/>
		<path fill="#FFFFFF" d="M810.054,64.466c-1.29,0-1.29,2,0,2S811.344,64.466,810.054,64.466z"/>
		<path fill="#FFFFFF" d="M793.555,26.968c-1.289,0-1.289,2,0,2S794.844,26.968,793.555,26.968z"/>
		<path fill="#FFFFFF" d="M832.553,49.467c-1.289,0-1.289,2,0,2S833.842,49.467,832.553,49.467z"/>
		<path fill="#FFFFFF" d="M1288.53,715.434c-1.29,0-1.29,2,0,2S1289.82,715.434,1288.53,715.434z"/>
		<path fill="#FFFFFF" d="M1384.525,569.941c-1.289,0-1.289,2,0,2S1385.814,569.941,1384.525,569.941z"/>
		<path fill="#FFFFFF" d="M1176.036,533.943c-1.29,0-1.29,2,0,2S1177.326,533.943,1176.036,533.943z"/>
		<path fill="#FFFFFF" d="M1170.036,460.446c-1.29,0-1.29,2,0,2S1171.326,460.446,1170.036,460.446z"/>
		<path fill="#FFFFFF" d="M1078.541,407.949c-1.289,0-1.289,2,0,2S1079.83,407.949,1078.541,407.949z"/>
		<path fill="#FFFFFF" d="M1252.532,455.947c-1.29,0-1.29,2,0,2S1253.822,455.947,1252.532,455.947z"/>
		<path fill="#FFFFFF" d="M1365.026,556.441c-1.29,0-1.29,2,0,2S1366.316,556.441,1365.026,556.441z"/>
		<path fill="#FFFFFF" d="M1410.024,626.938c-1.29,0-1.29,2,0,2S1411.314,626.938,1410.024,626.938z"/>
		<path fill="#FFFFFF" d="M1350.027,668.936c-1.289,0-1.289,2,0,2S1351.316,668.936,1350.027,668.936z"/>
		<path fill="#FFFFFF" d="M1267.531,545.942c-1.289,0-1.289,2,0,2S1268.82,545.942,1267.531,545.942z"/>
		<path fill="#FFFFFF" d="M1368.026,445.447c-1.29,0-1.29,2,0,2S1369.316,445.447,1368.026,445.447z"/>
		<path fill="#FFFFFF" d="M1407.024,404.949c-1.29,0-1.29,2,0,2S1408.314,404.949,1407.024,404.949z"/>
		<path fill="#FFFFFF" d="M1138.538,239.958c-1.29,0-1.29,2,0,2S1139.828,239.958,1138.538,239.958z"/>
		<path fill="#FFFFFF" d="M1237.533,232.458c-1.289,0-1.289,2,0,2S1238.822,232.458,1237.533,232.458z"/>
		<path fill="#FFFFFF" d="M1257.031,166.461c-1.289,0-1.289,2,0,2S1258.32,166.461,1257.031,166.461z"/>
		<path fill="#FFFFFF" d="M1258.531,256.457c-1.289,0-1.289,2,0,2S1259.82,256.457,1258.531,256.457z"/>
		<path fill="#FFFFFF" d="M1039.543,565.441c-1.289,0-1.289,2,0,2S1040.832,565.441,1039.543,565.441z"/>
		<path fill="#FFFFFF" d="M1078.541,598.439c-1.289,0-1.289,2,0,2S1079.83,598.439,1078.541,598.439z"/>
		<path fill="#FFFFFF" d="M988.545,598.439c-1.289,0-1.289,2,0,2S989.834,598.439,988.545,598.439z"/>
		<path fill="#FFFFFF" d="M979.546,475.446c-1.29,0-1.29,2,0,2S980.836,475.446,979.546,475.446z"/>
		<path fill="#FFFFFF" d="M1003.545,406.449c-1.289,0-1.289,2,0,2S1004.834,406.449,1003.545,406.449z"/>
		<path fill="#FFFFFF" d="M1020.044,457.446c-1.29,0-1.29,2,0,2S1021.334,457.446,1020.044,457.446z"/>
		<path fill="#FFFFFF" d="M831.053,550.442c-1.289,0-1.289,2,0,2S832.342,550.442,831.053,550.442z"/>
		<path fill="#FFFFFF" d="M853.552,683.935c-1.29,0-1.29,2,0,2S854.842,683.935,853.552,683.935z"/>
		<path fill="#FFFFFF" d="M990.045,676.436c-1.289,0-1.289,2,0,2S991.334,676.436,990.045,676.436z"/>
		<path fill="#FFFFFF" d="M1186.535,650.937c-1.289,0-1.289,2,0,2S1187.824,650.937,1186.535,650.937z"/>
		<path fill="#FFFFFF" d="M1302.029,571.441c-1.289,0-1.289,2,0,2S1303.318,571.441,1302.029,571.441z"/>
		<path fill="#FFFFFF" d="M873.051,380.95c-1.289,0-1.289,2,0,2S874.34,380.95,873.051,380.95z"/>
		<path fill="#FFFFFF" d="M943.548,287.955c-1.29,0-1.29,2,0,2S944.838,287.955,943.548,287.955z"/>
		<path fill="#FFFFFF" d="M765.057,437.947c-1.289,0-1.289,2,0,2S766.346,437.947,765.057,437.947z"/>
		<path fill="#FFFFFF" d="M769.557,544.442c-1.289,0-1.289,2,0,2S770.846,544.442,769.557,544.442z"/>
		<path fill="#FFFFFF" d="M735.058,541.442c-1.29,0-1.29,2,0,2S736.348,541.442,735.058,541.442z"/>
		<path fill="#FFFFFF" d="M685.561,454.447c-1.289,0-1.289,2,0,2S686.85,454.447,685.561,454.447z"/>
		<path fill="#FFFFFF" d="M696.06,533.943c-1.29,0-1.29,2,0,2S697.35,533.943,696.06,533.943z"/>
		<path fill="#FFFFFF" d="M688.561,563.941c-1.289,0-1.289,2,0,2S689.85,563.941,688.561,563.941z"/>
		<path fill="#FFFFFF" d="M688.561,620.938c-1.289,0-1.289,2,0,2S689.85,620.938,688.561,620.938z"/>
		<path fill="#FFFFFF" d="M670.562,704.934c-1.29,0-1.29,2,0,2S671.852,704.934,670.562,704.934z"/>
		<path fill="#FFFFFF" d="M658.562,242.957c-1.29,0-1.29,2,0,2S659.852,242.957,658.562,242.957z"/>
		<path fill="#FFFFFF" d="M594.666,1975.296c-2.58,0-2.58,4,0,4S597.246,1975.296,594.666,1975.296z"/>
		<path fill="#FFFFFF" d="M968.666,2165.296c-2.58,0-2.58,4,0,4S971.246,2165.296,968.666,2165.296z"/>
		<path fill="#FFFFFF" d="M1326.666,2033.296c-2.58,0-2.58,4,0,4S1329.246,2033.296,1326.666,2033.296z"/>
		<path fill="#FFFFFF" d="M162.666,2293.296c-2.58,0-2.58,4,0,4S165.246,2293.296,162.666,2293.296z"/>
		<path fill="#FFFFFF" d="M348.666,2433.296c-2.58,0-2.58,4,0,4S351.246,2433.296,348.666,2433.296z"/>
		<path fill="#FFFFFF" d="M148.666,1945.296c-2.58,0-2.58,4,0,4S151.246,1945.296,148.666,1945.296z"/>
		<path fill="#FFFFFF" d="M666.666,657.296c-2.58,0-2.58,4,0,4S669.246,657.296,666.666,657.296z"/>
		<path fill="#FFFFFF" d="M866.666,249.296c-2.58,0-2.58,4,0,4S869.246,249.296,866.666,249.296z"/>
		<path fill="#FFFFFF" d="M274.666,27.296c-2.58,0-2.58,4,0,4S277.246,27.296,274.666,27.296z"/>
		<path fill="#FFFFFF" d="M142.666,359.296c-2.58,0-2.58,4,0,4S145.246,359.296,142.666,359.296z"/>
		<path fill="#FFFFFF" d="M30.666,55.296c-2.58,0-2.58,4,0,4S33.246,55.296,30.666,55.296z"/>
		<path fill="#FFFFFF" d="M296.666,77.296c-2.58,0-2.58,4,0,4S299.246,77.296,296.666,77.296z"/>
		<path fill="#FFFFFF" d="M1352.666,415.296c-2.58,0-2.58,4,0,4S1355.246,415.296,1352.666,415.296z"/>
		<path fill="#FFFFFF" d="M1166.666,66.296c-3.869,0-3.869,6,0,6S1170.535,66.296,1166.666,66.296z"/>
		<path fill="#FFFFFF" d="M604.666,662.296c-3.869,0-3.869,6,0,6S608.535,662.296,604.666,662.296z"/>
		<path fill="#FFFFFF" d="M1362.666,2396.296c-3.869,0-3.869,6,0,6S1366.535,2396.296,1362.666,2396.296z"/>
		<path fill="#FFFFFF" d="M1398.666,2398.296c-6.449,0-6.449,10,0,10S1405.115,2398.296,1398.666,2398.296z"/>
	</g>
</g>
</svg>
