<?xml version="1.0" encoding="utf-8"?>
<!-- Generator: Adobe Illustrator 16.0.0, SVG Export Plug-In . SVG Version: 6.00 Build 0)  -->
<!DOCTYPE svg PUBLIC "-//W3C//DTD SVG 1.1//EN" "http://www.w3.org/Graphics/SVG/1.1/DTD/svg11.dtd">
<svg version="1.1" xmlns="http://www.w3.org/2000/svg" xmlns:xlink="http://www.w3.org/1999/xlink" x="0px" y="0px" width="40px"
	 height="40px" viewBox="0 0 40 40" enable-background="new 0 0 40 40" xml:space="preserve">
<g id="exportaciones">
	<g id="gear_5_6_">
		<g>
			<path fill="#B7B053" stroke="#000000" stroke-width="0.5" stroke-miterlimit="10" d="M35.065,26.012
				c1.07,0.092,2.166-0.143,3.177-0.48l0.229-0.132l0.361-1.43l-0.144-0.227c-0.729-0.774-1.585-1.5-2.57-1.924
				c-0.888-0.382-1.91-0.35-2.854-0.447l-0.053-3.163c0.942-0.127,1.967-0.126,2.842-0.535c0.971-0.456,1.804-1.206,2.51-2.004
				l0.135-0.231l-0.406-1.418l-0.234-0.124c-1.019-0.309-2.125-0.506-3.189-0.382c-0.957,0.112-1.829,0.656-2.696,1.042
				l-1.623-2.715l1.716-1.327c0.959-0.854,1.404-2.332,1.646-3.546l0.001-0.267l-1.06-1.027l-0.267,0.01
				c-1.21,0.284-2.646,0.771-3.485,1.746c-0.426,0.59-0.854,1.18-1.28,1.769l-2.765-1.538c0.358-0.879,0.873-1.769,0.956-2.729
				c0.089-1.068-0.14-2.167-0.48-3.175l-0.132-0.231l-1.432-0.358l-0.228,0.14c-0.9,0.853-1.924,2.001-2.146,3.271l-0.223,2.158
				l-3.164,0.049c-0.127-0.939-0.126-1.967-0.535-2.84c-0.455-0.969-1.205-1.808-2.002-2.51l-0.231-0.135l-1.419,0.405l-0.125,0.235
				c-0.305,1.02-0.506,2.123-0.381,3.188c0.113,0.958,0.653,1.831,1.043,2.696L11.842,9.45c-0.581-0.749-1.093-1.638-1.886-2.191
				C9.078,6.646,8.011,6.3,6.968,6.087L6.701,6.088L5.674,7.146l0.009,0.268c0.294,1.212,0.766,2.644,1.747,3.484
				c0.591,0.427,1.179,0.854,1.77,1.28l-1.538,2.765c-0.674-0.274-1.348-0.553-2.021-0.827c-1.225-0.391-2.705-0.041-3.881,0.352
				l-0.232,0.134l-0.359,1.429l0.141,0.228c0.729,0.773,1.585,1.5,2.572,1.924c0.885,0.381,1.912,0.348,2.855,0.447l0.05,3.162
				c-0.941,0.127-1.967,0.126-2.84,0.536c-0.974,0.455-1.804,1.206-2.51,2.003l-0.134,0.232l0.402,1.417l0.238,0.125
				c1.014,0.309,2.124,0.506,3.187,0.381c0.958-0.112,1.831-0.654,2.696-1.043l1.626,2.716c-0.751,0.581-1.639,1.094-2.192,1.885
				c-0.611,0.878-0.967,1.947-1.171,2.989L6.087,33.3l1.058,1.024l0.269-0.01c1.203-0.283,2.656-0.768,3.484-1.746
				c0.426-0.591,0.854-1.18,1.28-1.768l2.766,1.537c-0.28,0.683-0.569,1.361-0.837,2.047c-0.361,1.229-0.042,2.679,0.361,3.856
				l0.133,0.232l1.43,0.358l0.227-0.141c0.904-0.848,1.91-1.994,2.145-3.255c0.075-0.726,0.148-1.448,0.225-2.173l3.164-0.049
				c0.098,0.72,0.193,1.441,0.293,2.163c0.28,1.259,1.313,2.357,2.245,3.186l0.229,0.135l1.421-0.404l0.124-0.236
				c0.356-1.192,0.656-2.675,0.231-3.892c-0.301-0.662-0.595-1.328-0.891-1.992l2.714-1.626c0.58,0.75,1.092,1.642,1.884,2.192
				c0.88,0.612,1.947,0.962,2.991,1.172h0.267l1.024-1.059l-0.008-0.267c-0.242-1.034-0.624-2.095-1.264-2.951
				c-0.579-0.773-1.482-1.258-2.252-1.814l1.539-2.766C33.217,25.416,34.106,25.93,35.065,26.012z M29.208,18.396
				c0.079,0.451,0.136,0.911,0.146,1.383c0.082,3.531-1.803,6.647-4.652,8.309l-1.969-5.398c0.622-0.628,1.006-1.448,1.086-2.328
				L29.208,18.396z M18.393,10.79c0.454-0.078,0.915-0.137,1.387-0.146c3.531-0.082,6.648,1.803,8.308,4.65l-5.4,1.971
				c-0.629-0.614-1.454-0.999-2.327-1.086L18.393,10.79z M10.787,21.603c-0.079-0.453-0.135-0.914-0.148-1.389
				c-0.08-3.528,1.805-6.644,4.655-8.304l1.968,5.398c-0.613,0.628-1,1.456-1.084,2.329L10.787,21.603z M21.601,29.207
				c-0.452,0.078-0.912,0.135-1.385,0.146c-3.529,0.081-6.646-1.802-8.308-4.65l5.4-1.97c0.627,0.614,1.453,0.999,2.326,1.084
				L21.601,29.207z"/>
			<circle fill="#B7B053" stroke="#000000" stroke-width="0.5" stroke-miterlimit="10" cx="19.999" cy="19.999" r="1.754"/>
			<path fill="none" stroke="#000000" stroke-width="0.5" stroke-miterlimit="10" d="M30.854,23.673
				c-2.03,5.997-8.534,9.211-14.532,7.182c-5.995-2.031-9.212-8.537-7.182-14.535c2.029-5.993,8.536-9.208,14.533-7.177
				C29.67,11.174,32.885,17.679,30.854,23.673z"/>
		</g>
	</g>
</g>
<g id="titulo" display="none">
</g>
<g id="screenshots" display="none">
</g>
<g id="fondo_negro" display="none">
</g>
<g id="imagenes" display="none">
</g>
<g id="graficas" display="none">
</g>
<g id="texto" display="none">
</g>
<g id="bienvenido" display="none">
</g>
<g id="landpage" display="none">
	<g id="movil_horiz" display="inline">
		<defs>
			<rect id="SVGID_12_" x="-3629.03" y="875.109" width="217.259" height="123.013"/>
		</defs>
		<clipPath id="SVGID_2_">
			<use xlink:href="#SVGID_12_"  overflow="visible"/>
		</clipPath>
	</g>
	<g id="movil_vert_copia" display="inline">
		<defs>
			<rect id="SVGID_16_" x="-3840.596" y="827.626" width="123.013" height="217.259"/>
		</defs>
		<clipPath id="SVGID_4_">
			<use xlink:href="#SVGID_16_"  overflow="visible"/>
		</clipPath>
	</g>
	<g id="tableta_horizontal" display="inline">
		<defs>
			<rect id="SVGID_20_" x="-4331.202" y="791.44" width="409.16" height="288.831"/>
		</defs>
		<clipPath id="SVGID_6_">
			<use xlink:href="#SVGID_20_"  overflow="visible"/>
		</clipPath>
	</g>
	<g id="tableta_vert" display="inline">
		<defs>
			<rect id="SVGID_28_" x="-4695.579" y="731.664" width="287.964" height="409.479"/>
		</defs>
		<clipPath id="SVGID_8_">
			<use xlink:href="#SVGID_28_"  overflow="visible"/>
		</clipPath>
	</g>
	<g id="escritorio_1_" display="inline">
		<defs>
			<rect id="ventana" x="-5790.566" y="692.266" width="1024.5" height="487.98"/>
		</defs>
		<clipPath id="ventana_1_">
			<use xlink:href="#ventana"  overflow="visible"/>
		</clipPath>
	</g>
</g>
<g id="bocetos" display="none">
</g>
<g id="notas" display="none">
</g>
</svg>
