<?xml version="1.0" encoding="utf-8"?>
<!-- Generator: Adobe Illustrator 16.0.0, SVG Export Plug-In . SVG Version: 6.00 Build 0)  -->
<!DOCTYPE svg PUBLIC "-//W3C//DTD SVG 1.1//EN" "http://www.w3.org/Graphics/SVG/1.1/DTD/svg11.dtd">
<svg version="1.1" xmlns="http://www.w3.org/2000/svg" xmlns:xlink="http://www.w3.org/1999/xlink" x="0px" y="0px" width="256px"
	 height="256px" viewBox="0 0 256 256" enable-background="new 0 0 256 256" xml:space="preserve">
<g id="exportaciones">
	<g id="anillo_interno_3_">
		<g display="none">
			
				<line display="inline" fill="#B7B053" stroke="#000000" stroke-width="0.25" stroke-miterlimit="10" x1="136.248" y1="128" x2="119.752" y2="128"/>
			
				<line display="inline" fill="#B7B053" stroke="#000000" stroke-width="0.25" stroke-miterlimit="10" x1="128" y1="136.248" x2="128" y2="119.752"/>
		</g>
		<g display="none">
			<g display="inline">
				<polyline fill="#B7B053" stroke="#000000" stroke-width="0.25" stroke-linecap="square" stroke-miterlimit="1" points="
					98.363,36.88 96.021,37.672 93.703,38.529 91.402,39.445 89.125,40.418 				"/>
				
					<line fill="#B7B053" stroke="#000000" stroke-width="0.25" stroke-linecap="square" stroke-miterlimit="1" x1="95.477" y1="43.148" x2="91.93" y2="33.91"/>
				<polyline fill="#B7B053" stroke="#000000" stroke-width="0.25" stroke-linecap="square" stroke-miterlimit="1" points="
					96.838,32.17 95.197,35.346 93.703,38.529 92.351,41.729 91.139,44.947 				"/>
				<polyline fill="#B7B053" stroke="#000000" stroke-width="0.25" stroke-linecap="square" stroke-miterlimit="1" points="
					99.897,41.582 96.846,40.006 93.703,38.529 90.454,37.16 87.121,35.898 				"/>
				<polyline fill="#B7B053" stroke="#000000" stroke-width="0.25" stroke-linecap="square" stroke-miterlimit="1" points="
					111.256,38.687 109.475,41.565 107.247,42.076 104.393,40.254 101.828,30.693 103.767,27.643 106.364,27.048 109.434,28.953 
					111.256,38.687 				"/>
				<polyline fill="#B7B053" stroke="#000000" stroke-width="0.25" stroke-linecap="square" stroke-miterlimit="1" points="
					138.178,25.258 136.719,40.039 134.715,36.138 132.512,32.286 130.12,28.491 127.529,24.756 127.596,39.603 				"/>
				<polyline fill="#B7B053" stroke="#000000" stroke-width="0.25" stroke-linecap="square" stroke-miterlimit="1" points="
					152.671,32.854 150.205,32.244 147.73,31.709 145.231,31.23 142.73,30.817 				"/>
				<polyline fill="#B7B053" stroke="#000000" stroke-width="0.25" stroke-linecap="square" stroke-miterlimit="1" points="
					151.434,37.647 149.092,37.07 146.732,36.559 144.365,36.104 141.989,35.709 				"/>
				<polyline fill="#B7B053" stroke="#000000" stroke-width="0.25" stroke-linecap="square" stroke-miterlimit="1" points="
					166.074,40.072 163.799,39.115 161.488,38.225 159.154,37.391 157.554,34.257 158.297,31.897 161.571,30.372 164.078,31.271 
					166.569,32.229 168.046,35.527 165.093,42.34 161.942,43.709 158.891,45.178 156.745,44.41 				"/>
				<polyline fill="#B7B053" stroke="#000000" stroke-width="0.25" stroke-linecap="square" stroke-miterlimit="1" points="
					174.545,49.954 171.304,50.936 169.3,49.847 168.367,46.588 172.764,37.722 176.236,36.724 178.579,37.994 179.618,41.458 
					174.545,49.954 				"/>
				<polyline fill="#B7B053" stroke="#000000" stroke-width="0.25" stroke-linecap="square" stroke-miterlimit="1" points="
					191.075,55.876 192.923,57.525 194.722,59.225 196.47,60.973 199.992,61.081 201.807,59.39 201.773,55.777 199.885,53.896 
					197.946,52.064 195.967,50.283 186.192,61.461 				"/>
				
					<line fill="#B7B053" stroke="#000000" stroke-width="0.25" stroke-linecap="square" stroke-miterlimit="1" x1="195.761" y1="71.242" x2="203.349" y2="64.883"/>
				
					<line fill="#B7B053" stroke="#000000" stroke-width="0.25" stroke-linecap="square" stroke-miterlimit="1" x1="205.246" y1="63.291" x2="207.144" y2="61.708"/>
				<polyline fill="#B7B053" stroke="#000000" stroke-width="0.25" stroke-linecap="square" stroke-miterlimit="1" points="
					205.831,81.1 202.508,80.439 203.308,77.141 213.561,70.22 				"/>
				<polyline fill="#B7B053" stroke="#000000" stroke-width="0.25" stroke-linecap="square" stroke-miterlimit="1" points="
					212.191,77.264 210.855,75.111 209.461,72.991 208.01,70.904 206.508,68.859 				"/>
				<polyline fill="#B7B053" stroke="#000000" stroke-width="0.25" stroke-linecap="square" stroke-miterlimit="1" points="
					209.85,94.61 208.958,92.507 208.01,90.428 207.02,88.375 208.149,85.183 212.513,82.848 215.861,83.938 216.976,86.222 
					218.023,88.531 219.013,90.865 				"/>
				<polyline fill="#B7B053" stroke="#000000" stroke-width="0.25" stroke-linecap="square" stroke-miterlimit="1" points="
					216.134,97.25 219.252,98.775 222.354,100.45 223.029,102.899 221.24,105.927 214.022,107.643 				"/>
				
					<line fill="#B7B053" stroke="#000000" stroke-width="0.25" stroke-linecap="square" stroke-miterlimit="1" x1="211.457" y1="98.875" x2="225.479" y2="93.983"/>
				<polyline fill="#B7B053" stroke="#000000" stroke-width="0.25" stroke-linecap="square" stroke-miterlimit="1" points="
					216.273,123.438 216.365,125.715 216.397,128 216.365,130.284 218.748,132.693 228.63,133.204 231.203,130.664 231.245,128 
					231.203,125.336 231.104,122.672 				"/>
				
					<line fill="#B7B053" stroke="#000000" stroke-width="0.25" stroke-linecap="square" stroke-miterlimit="1" x1="231.203" y1="125.336" x2="216.365" y2="125.715"/>
				<polyline fill="#B7B053" stroke="#000000" stroke-width="0.25" stroke-linecap="square" stroke-miterlimit="1" points="
					224.201,148.166 224.688,145.676 225.117,143.168 225.471,140.652 225.768,138.137 				"/>
				<polyline fill="#B7B053" stroke="#000000" stroke-width="0.25" stroke-linecap="square" stroke-miterlimit="1" points="
					219.359,147.145 219.821,144.785 220.226,142.41 220.563,140.018 220.844,137.626 				"/>
				<polyline fill="#B7B053" stroke="#000000" stroke-width="0.25" stroke-linecap="square" stroke-miterlimit="1" points="
					225.43,153.734 227.104,156.936 226.32,159.484 225.479,162.016 222.254,163.641 219.937,162.767 218.468,159.566 
					215.309,161.018 212.991,160.144 211.457,157.125 212.184,154.955 212.852,152.778 215.854,151.211 				"/>
				
					<line fill="#B7B053" stroke="#000000" stroke-width="0.25" stroke-linecap="square" stroke-miterlimit="1" x1="219.252" y1="157.224" x2="218.468" y2="159.566"/>
				<polyline fill="#B7B053" stroke="#000000" stroke-width="0.25" stroke-linecap="square" stroke-miterlimit="1" points="
					210.071,177.457 208.768,179.561 207.406,181.623 205.997,183.66 206.508,187.141 208.488,188.634 212.043,187.974 
					213.561,185.779 215.021,183.553 216.431,181.284 203.712,173.621 				"/>
				<polyline fill="#B7B053" stroke="#000000" stroke-width="0.25" stroke-linecap="square" stroke-miterlimit="1" points="
					196.445,198.548 198.243,196.758 199.992,194.919 201.699,193.038 203.349,191.116 				"/>
				<polyline fill="#B7B053" stroke="#000000" stroke-width="0.25" stroke-linecap="square" stroke-miterlimit="1" points="
					192.997,195.001 194.705,193.293 196.371,191.554 197.987,189.764 199.555,187.941 				"/>
				<polyline fill="#B7B053" stroke="#000000" stroke-width="0.25" stroke-linecap="square" stroke-miterlimit="1" points="
					194.334,203.852 193.938,207.447 191.859,209.123 189.747,210.739 186.159,210.285 184.732,208.265 185.311,204.792 
					181.879,204.223 180.451,202.202 180.863,198.845 182.679,197.451 184.451,196.016 187.816,196.403 				"/>
				
					<line fill="#B7B053" stroke="#000000" stroke-width="0.25" stroke-linecap="square" stroke-miterlimit="1" x1="187.272" y1="203.291" x2="185.311" y2="204.792"/>
				<polyline fill="#B7B053" stroke="#000000" stroke-width="0.25" stroke-linecap="square" stroke-miterlimit="1" points="
					170.454,208.339 171.304,205.064 173.284,203.918 176.549,204.816 181.837,213.181 180.889,216.67 178.579,218.006 
					175.082,217.09 170.454,208.339 				"/>
				<polyline fill="#B7B053" stroke="#000000" stroke-width="0.25" stroke-linecap="square" stroke-miterlimit="1" points="
					156.812,219.384 154.436,220.101 152.053,220.752 149.652,221.338 147.73,224.291 148.225,226.717 151.326,228.572 
					153.916,227.937 156.49,227.236 159.039,226.469 154.576,212.307 				"/>
				<polyline fill="#B7B053" stroke="#000000" stroke-width="0.25" stroke-linecap="square" stroke-miterlimit="1" points="
					141.247,215.399 141.989,220.291 140.217,225.528 138.178,230.741 135.168,226.031 132.396,221.24 132.165,216.299 				"/>
				<polyline fill="#B7B053" stroke="#000000" stroke-width="0.25" stroke-linecap="square" stroke-miterlimit="1" points="
					141.989,220.291 139.598,220.621 137.205,220.893 134.805,221.1 132.396,221.24 				"/>
				<polyline fill="#B7B053" stroke="#000000" stroke-width="0.25" stroke-linecap="square" stroke-miterlimit="1" points="
					117.426,225.719 119.949,225.965 122.482,226.139 125.014,226.246 127.555,226.296 				"/>
				<polyline fill="#B7B053" stroke="#000000" stroke-width="0.25" stroke-linecap="square" stroke-miterlimit="1" points="
					117.953,220.803 120.354,221.033 122.763,221.197 125.171,221.297 127.58,221.347 				"/>
				<polyline fill="#B7B053" stroke="#000000" stroke-width="0.25" stroke-linecap="square" stroke-miterlimit="1" points="
					105.037,213.361 107.247,213.924 109.475,214.435 111.718,214.88 113.962,215.275 113.178,220.158 110.348,222.18 
					107.924,221.693 105.507,221.141 102.463,222.922 101.828,225.306 103.767,228.357 106.364,228.951 108.979,229.471 
					111.998,227.492 				"/>
				<polyline fill="#B7B053" stroke="#000000" stroke-width="0.25" stroke-linecap="square" stroke-miterlimit="1" points="
					93.291,211.977 96.359,210.541 98.504,211.324 99.897,214.418 96.838,223.829 93.547,225.322 91.047,224.398 89.514,221.123 
					93.291,211.977 				"/>
			</g>
		</g>
		<g>
			<path fill="#B7B053" stroke="#000000" stroke-width="0.5" stroke-miterlimit="10" d="M81.791,16.143
				c-1.191-1.49-2.492-2.886-3.87-4.203l-0.098-0.035l-1.852,0.816l-0.039,0.098c0.04,1.905,0.188,3.815,0.495,5.697"/>
			<path fill="#B7B053" stroke="#000000" stroke-width="0.5" stroke-miterlimit="10" d="M46.35,38.703
				c-1.635-1.001-3.348-1.864-5.103-2.636h-0.105l-1.459,1.4l-0.004,0.104c0.698,1.784,1.491,3.533,2.427,5.207"/>
			<path fill="#B7B053" stroke="#000000" stroke-width="0.5" stroke-miterlimit="10" d="M74.104,19.644
				c-1.294-1.401-2.685-2.714-4.158-3.928l-0.1-0.029l-1.789,0.944l-0.033,0.1c0.174,1.901,0.457,3.799,0.893,5.658"/>
			<path fill="#B7B053" stroke="#000000" stroke-width="0.5" stroke-miterlimit="10" d="M7.237,120.482
				c-1.871,0.414-3.712,0.979-5.504,1.65l-0.076,0.072l-0.076,2.021l0.069,0.078c1.737,0.808,3.533,1.511,5.368,2.063"/>
			<path fill="#B7B053" stroke="#000000" stroke-width="0.5" stroke-miterlimit="10" d="M59.561,28.207
				c-1.477-1.217-3.047-2.314-4.675-3.318l-0.104-0.015l-1.641,1.184l-0.02,0.104c0.44,1.863,0.985,3.706,1.678,5.491"/>
			<path fill="#B7B053" stroke="#000000" stroke-width="0.5" stroke-miterlimit="10" d="M66.683,23.672
				c-1.386-1.315-2.876-2.519-4.428-3.633l-0.102-0.021l-1.719,1.066l-0.025,0.102c0.306,1.888,0.724,3.761,1.288,5.588"/>
			<path fill="#B7B053" stroke="#000000" stroke-width="0.5" stroke-miterlimit="10" d="M122.853,7.114
				c-0.608-1.817-1.36-3.589-2.217-5.303l-0.08-0.067l-2.018,0.135l-0.07,0.078c-0.614,1.813-1.13,3.664-1.489,5.546"/>
			<path fill="#B7B053" stroke="#000000" stroke-width="0.5" stroke-miterlimit="10" d="M89.703,13.189
				c-1.085-1.565-2.275-3.057-3.563-4.46l-0.096-0.042L84.14,9.373l-0.045,0.094c-0.104,1.9-0.074,3.815,0.096,5.712"/>
			<path fill="#B7B053" stroke="#000000" stroke-width="0.5" stroke-miterlimit="10" d="M114.43,7.76
				c-0.732-1.77-1.613-3.475-2.579-5.128l-0.084-0.061l-2.004,0.275l-0.064,0.082c-0.487,1.847-0.872,3.727-1.097,5.624"/>
			<path fill="#B7B053" stroke="#000000" stroke-width="0.5" stroke-miterlimit="10" d="M106.068,8.986
				c-0.854-1.708-1.844-3.348-2.923-4.922l-0.088-0.056l-1.98,0.415l-0.059,0.086c-0.356,1.873-0.603,3.77-0.7,5.674"/>
			<path fill="#B7B053" stroke="#000000" stroke-width="0.5" stroke-miterlimit="10" d="M97.813,10.795
				C96.84,9.154,95.739,7.598,94.562,6.1l-0.094-0.049l-1.945,0.552l-0.053,0.09c-0.226,1.892-0.337,3.797-0.303,5.701"/>
			<path fill="#B7B053" stroke="#000000" stroke-width="0.5" stroke-miterlimit="10" d="M40.318,44.615
				c-1.7-0.884-3.469-1.629-5.274-2.272L34.94,42.35l-1.357,1.499l0.004,0.105c0.814,1.73,1.737,3.415,2.784,5.017"/>
			<path fill="#B7B053" stroke="#000000" stroke-width="0.5" stroke-miterlimit="10" d="M11.408,95.539
				c-1.905,0.017-3.813,0.186-5.696,0.47l-0.089,0.056l-0.495,1.961l0.053,0.091c1.526,1.14,3.121,2.198,4.794,3.117"/>
			<path fill="#B7B053" stroke="#000000" stroke-width="0.5" stroke-miterlimit="10" d="M131.297,7.044
				c-0.484-1.854-1.111-3.667-1.841-5.438l-0.076-0.073l-2.021-0.006l-0.076,0.072c-0.733,1.773-1.374,3.579-1.872,5.433"/>
			<path fill="#B7B053" stroke="#000000" stroke-width="0.5" stroke-miterlimit="10" d="M8.041,112.08
				c-1.891,0.285-3.758,0.718-5.591,1.259l-0.08,0.067l-0.218,2.011l0.063,0.083c1.68,0.92,3.413,1.749,5.202,2.429"/>
			<path fill="#B7B053" stroke="#000000" stroke-width="0.5" stroke-miterlimit="10" d="M9.43,103.752
				c-1.9,0.147-3.79,0.456-5.651,0.865l-0.085,0.062l-0.356,1.99l0.058,0.088c1.605,1.029,3.271,1.979,5.004,2.777"/>
			<path fill="#B7B053" stroke="#000000" stroke-width="0.5" stroke-miterlimit="10" d="M13.956,87.486
				c-1.903-0.116-3.815-0.076-5.715,0.07l-0.092,0.048l-0.631,1.922l0.045,0.095c1.44,1.246,2.96,2.411,4.563,3.443"/>
			<path fill="#B7B053" stroke="#000000" stroke-width="0.5" stroke-miterlimit="10" d="M34.712,50.933
				c-1.754-0.763-3.572-1.386-5.416-1.896l-0.104,0.014l-1.25,1.591l0.01,0.104c0.932,1.669,1.972,3.281,3.125,4.806"/>
			<path fill="#B7B053" stroke="#000000" stroke-width="0.5" stroke-miterlimit="10" d="M29.56,57.627
				c-1.804-0.638-3.657-1.131-5.531-1.514l-0.104,0.021l-1.135,1.674l0.018,0.103c1.044,1.6,2.193,3.134,3.448,4.572"/>
			<path fill="#B7B053" stroke="#000000" stroke-width="0.5" stroke-miterlimit="10" d="M24.885,64.664
				c-1.843-0.508-3.724-0.867-5.618-1.124l-0.102,0.029l-1.016,1.749l0.025,0.102c1.156,1.518,2.403,2.969,3.755,4.316"/>
			<path fill="#B7B053" stroke="#000000" stroke-width="0.5" stroke-miterlimit="10" d="M17.063,79.629
				c-1.891-0.248-3.803-0.347-5.708-0.328l-0.096,0.043l-0.764,1.873l0.039,0.097c1.353,1.341,2.783,2.614,4.312,3.753"/>
			<path fill="#B7B053" stroke="#000000" stroke-width="0.5" stroke-miterlimit="10" d="M20.712,72.01
				c-1.87-0.382-3.772-0.61-5.676-0.727l-0.1,0.035l-0.893,1.815l0.033,0.101c1.259,1.432,2.601,2.793,4.044,4.039"/>
			<path fill="#B7B053" stroke="#000000" stroke-width="0.5" stroke-miterlimit="10" d="M52.771,33.229
				c-1.563-1.109-3.204-2.098-4.9-2.989l-0.104-0.007l-1.553,1.295l-0.012,0.104c0.564,1.831,1.243,3.63,2.057,5.364"/>
			<path fill="#B7B053" stroke="#000000" stroke-width="0.5" stroke-miterlimit="10" d="M238.178,77.914
				c1.448-1.236,2.801-2.588,4.063-4.013l0.031-0.1l-0.881-1.82l-0.098-0.036c-1.903,0.109-3.804,0.323-5.675,0.692"/>
			<path fill="#B7B053" stroke="#000000" stroke-width="0.5" stroke-miterlimit="10" d="M234.413,70.353
				c1.36-1.334,2.61-2.782,3.775-4.288l0.025-0.102l-1.006-1.755l-0.102-0.029c-1.892,0.248-3.772,0.59-5.615,1.089"/>
			<path fill="#B7B053" stroke="#000000" stroke-width="0.5" stroke-miterlimit="10" d="M230.126,63.079
				c1.263-1.431,2.427-2.955,3.473-4.551l0.02-0.103l-1.127-1.681l-0.102-0.021c-1.874,0.368-3.734,0.849-5.538,1.479"/>
			<path fill="#B7B053" stroke="#000000" stroke-width="0.5" stroke-miterlimit="10" d="M225.342,56.122
				c1.168-1.515,2.219-3.125,3.155-4.791l0.012-0.104l-1.242-1.598l-0.104-0.015c-1.847,0.501-3.668,1.113-5.429,1.867"/>
			<path fill="#B7B053" stroke="#000000" stroke-width="0.5" stroke-miterlimit="10" d="M241.406,85.728
				c1.531-1.133,2.969-2.393,4.329-3.725l0.041-0.098l-0.754-1.878l-0.094-0.043c-1.904-0.027-3.816,0.06-5.707,0.295"/>
			<path fill="#B7B053" stroke="#000000" stroke-width="0.5" stroke-miterlimit="10" d="M248.99,127.074
				c1.837-0.551,3.629-1.236,5.378-2.029l0.07-0.078l-0.064-2.021l-0.076-0.073c-1.79-0.679-3.622-1.255-5.49-1.682"/>
			<path fill="#B7B053" stroke="#000000" stroke-width="0.5" stroke-miterlimit="10" d="M244.073,93.736
				c1.604-1.026,3.136-2.17,4.584-3.409l0.047-0.094l-0.619-1.925l-0.092-0.051c-1.9-0.156-3.81-0.207-5.714-0.103"/>
			<path fill="#B7B053" stroke="#000000" stroke-width="0.5" stroke-miterlimit="10" d="M220.092,49.518
				c1.057-1.598,1.983-3.281,2.812-5.01l0.004-0.104l-1.348-1.507l-0.105-0.008c-1.812,0.627-3.579,1.379-5.286,2.248"/>
			<path fill="#B7B053" stroke="#000000" stroke-width="0.5" stroke-miterlimit="10" d="M248.645,118.633
				c1.791-0.668,3.531-1.484,5.21-2.396l0.064-0.082l-0.205-2.012l-0.08-0.068c-1.829-0.549-3.692-0.998-5.582-1.291"/>
			<path fill="#B7B053" stroke="#000000" stroke-width="0.5" stroke-miterlimit="10" d="M246.177,101.928
				c1.679-0.908,3.281-1.959,4.814-3.092l0.053-0.091l-0.482-1.964l-0.09-0.056c-1.884-0.294-3.789-0.476-5.695-0.503"/>
			<path fill="#B7B053" stroke="#000000" stroke-width="0.5" stroke-miterlimit="10" d="M164.51,12.609
				c0.047-1.905-0.061-3.813-0.271-5.706l-0.053-0.092l-1.943-0.563l-0.092,0.049c-1.191,1.484-2.31,3.041-3.282,4.68"/>
			<path fill="#B7B053" stroke="#000000" stroke-width="0.5" stroke-miterlimit="10" d="M180.213,18.814
				c0.313-1.881,0.473-3.784,0.526-5.688l-0.039-0.098l-1.844-0.828l-0.1,0.035c-1.39,1.303-2.694,2.695-3.891,4.176"/>
			<path fill="#B7B053" stroke="#000000" stroke-width="0.5" stroke-miterlimit="10" d="M172.471,15.433
				c0.179-1.896,0.213-3.806,0.128-5.706l-0.047-0.095l-1.898-0.697l-0.096,0.042c-1.291,1.398-2.494,2.878-3.589,4.436"/>
			<path fill="#B7B053" stroke="#000000" stroke-width="0.5" stroke-miterlimit="10" d="M139.725,7.565
				c-0.354-1.882-0.848-3.735-1.454-5.55l-0.07-0.078l-2.018-0.147l-0.08,0.066c-0.863,1.71-1.63,3.472-2.247,5.285"/>
			<path fill="#B7B053" stroke="#000000" stroke-width="0.5" stroke-miterlimit="10" d="M156.37,10.352
				c-0.08-1.906-0.318-3.809-0.668-5.682l-0.057-0.087l-1.979-0.426l-0.088,0.055c-1.092,1.565-2.092,3.202-2.953,4.907"/>
			<path fill="#B7B053" stroke="#000000" stroke-width="0.5" stroke-miterlimit="10" d="M214.391,43.287
				c0.942-1.67,1.752-3.412,2.458-5.195l-0.004-0.105l-1.451-1.409h-0.104c-1.761,0.751-3.487,1.609-5.123,2.606"/>
			<path fill="#B7B053" stroke="#000000" stroke-width="0.5" stroke-miterlimit="10" d="M148.097,8.669
				c-0.213-1.898-0.587-3.783-1.064-5.631l-0.064-0.083l-2.002-0.287l-0.084,0.062c-0.979,1.646-1.864,3.347-2.608,5.11"/>
			<path fill="#B7B053" stroke="#000000" stroke-width="0.5" stroke-miterlimit="10" d="M187.699,22.732
				c0.438-1.859,0.736-3.746,0.925-5.648l-0.031-0.1l-1.783-0.955l-0.102,0.029c-1.477,1.204-2.884,2.502-4.179,3.9"/>
			<path fill="#B7B053" stroke="#000000" stroke-width="0.5" stroke-miterlimit="10" d="M201.762,32.082
				c0.701-1.781,1.261-3.62,1.708-5.481l-0.018-0.103l-1.633-1.194l-0.104,0.015c-1.639,0.99-3.206,2.091-4.696,3.292"/>
			<path fill="#B7B053" stroke="#000000" stroke-width="0.5" stroke-miterlimit="10" d="M208.271,37.467
				c0.823-1.731,1.512-3.525,2.089-5.354l-0.012-0.105l-1.545-1.304l-0.104,0.007c-1.706,0.872-3.354,1.858-4.921,2.96"/>
			<path fill="#B7B053" stroke="#000000" stroke-width="0.5" stroke-miterlimit="10" d="M194.895,27.164
				c0.572-1.824,1.008-3.695,1.319-5.581l-0.025-0.102l-1.713-1.076l-0.102,0.021c-1.557,1.107-3.052,2.302-4.448,3.606"/>
			<path fill="#B7B053" stroke="#000000" stroke-width="0.5" stroke-miterlimit="10" d="M247.701,110.237
				c1.74-0.791,3.412-1.729,5.026-2.751l0.057-0.087l-0.344-1.993l-0.084-0.062c-1.861-0.422-3.751-0.739-5.653-0.899"/>
			<path fill="#B7B053" stroke="#000000" stroke-width="0.5" stroke-miterlimit="10" d="M215.682,211.386
				c1.698,0.886,3.471,1.627,5.272,2.271l0.104-0.008l1.357-1.499l-0.002-0.104c-0.811-1.731-1.729-3.422-2.78-5.021"/>
			<path fill="#B7B053" stroke="#000000" stroke-width="0.5" stroke-miterlimit="10" d="M196.438,227.793
				c1.476,1.216,3.045,2.321,4.676,3.318l0.104,0.016l1.639-1.185l0.02-0.104c-0.437-1.862-0.983-3.706-1.676-5.491"/>
			<path fill="#B7B053" stroke="#000000" stroke-width="0.5" stroke-miterlimit="10" d="M203.223,222.777
				c1.552,1.119,3.211,2.1,4.905,2.983l0.105,0.007l1.553-1.295l0.01-0.104c-0.559-1.83-1.247-3.626-2.061-5.359"/>
			<path fill="#B7B053" stroke="#000000" stroke-width="0.5" stroke-miterlimit="10" d="M209.654,217.293
				c1.633,1.002,3.344,1.878,5.099,2.64h0.104l1.461-1.401l0.004-0.104c-0.7-1.784-1.493-3.533-2.427-5.207"/>
			<path fill="#B7B053" stroke="#000000" stroke-width="0.5" stroke-miterlimit="10" d="M181.894,236.357
				c1.294,1.402,2.687,2.713,4.158,3.926l0.1,0.029l1.789-0.944l0.033-0.1c-0.174-1.9-0.456-3.796-0.893-5.656"/>
			<path fill="#B7B053" stroke="#000000" stroke-width="0.5" stroke-miterlimit="10" d="M189.315,232.328
				c1.386,1.314,2.871,2.529,4.428,3.632l0.102,0.022l1.719-1.066l0.025-0.102c-0.304-1.889-0.726-3.76-1.286-5.589"/>
			<path fill="#B7B053" stroke="#000000" stroke-width="0.5" stroke-miterlimit="10" d="M174.209,239.857
				c1.187,1.49,2.488,2.891,3.868,4.202l0.1,0.036l1.85-0.817l0.039-0.097c-0.039-1.904-0.188-3.814-0.493-5.697"/>
			<path fill="#B7B053" stroke="#000000" stroke-width="0.5" stroke-miterlimit="10" d="M141.57,248.24
				c0.73,1.77,1.609,3.479,2.577,5.127l0.084,0.062l2.004-0.275l0.064-0.082c0.487-1.848,0.874-3.728,1.098-5.624"/>
			<path fill="#B7B053" stroke="#000000" stroke-width="0.5" stroke-miterlimit="10" d="M149.931,247.014
				c0.854,1.709,1.843,3.348,2.922,4.922l0.09,0.056l1.979-0.415l0.061-0.087c0.356-1.872,0.601-3.768,0.7-5.673"/>
			<path fill="#B7B053" stroke="#000000" stroke-width="0.5" stroke-miterlimit="10" d="M158.188,245.205
				c0.97,1.64,2.068,3.201,3.249,4.694l0.094,0.05l1.945-0.552l0.053-0.091c0.228-1.891,0.339-3.796,0.304-5.699"/>
			<path fill="#B7B053" stroke="#000000" stroke-width="0.5" stroke-miterlimit="10" d="M166.295,242.811
				c1.085,1.567,2.281,3.053,3.565,4.46l0.096,0.043l1.902-0.687l0.045-0.095c0.105-1.899,0.074-3.814-0.094-5.711"/>
			<path fill="#B7B053" stroke="#000000" stroke-width="0.5" stroke-miterlimit="10" d="M133.146,248.886
				c0.607,1.818,1.359,3.589,2.218,5.303l0.078,0.067l2.018-0.136l0.072-0.077c0.61-1.814,1.13-3.663,1.487-5.546"/>
			<path fill="#B7B053" stroke="#000000" stroke-width="0.5" stroke-miterlimit="10" d="M244.592,160.46
				c1.906-0.016,3.813-0.186,5.694-0.469l0.09-0.056l0.494-1.961l-0.051-0.091c-1.532-1.136-3.123-2.194-4.794-3.117"/>
			<path fill="#B7B053" stroke="#000000" stroke-width="0.5" stroke-miterlimit="10" d="M246.57,152.248
				c1.902-0.15,3.787-0.461,5.651-0.865l0.084-0.062l0.357-1.99l-0.059-0.087c-1.602-1.037-3.272-1.973-5.003-2.777"/>
			<path fill="#B7B053" stroke="#000000" stroke-width="0.5" stroke-miterlimit="10" d="M221.288,205.066
				c1.754,0.766,3.572,1.379,5.414,1.898l0.104-0.015l1.25-1.591l-0.01-0.104c-0.938-1.666-1.972-3.275-3.124-4.803"/>
			<path fill="#B7B053" stroke="#000000" stroke-width="0.5" stroke-miterlimit="10" d="M242.044,168.514
				c1.901,0.117,3.813,0.08,5.713-0.07l0.094-0.049l0.629-1.922l-0.045-0.094c-1.44-1.246-2.963-2.4-4.563-3.437"/>
			<path fill="#B7B053" stroke="#000000" stroke-width="0.5" stroke-miterlimit="10" d="M247.959,143.92
				c1.891-0.279,3.759-0.718,5.591-1.26l0.08-0.066l0.217-2.012l-0.064-0.082c-1.674-0.925-3.411-1.75-5.2-2.429"/>
			<path fill="#B7B053" stroke="#000000" stroke-width="0.5" stroke-miterlimit="10" d="M248.763,135.518
				c1.87-0.414,3.71-0.979,5.504-1.651l0.074-0.072l0.078-2.021l-0.07-0.078c-1.743-0.8-3.53-1.509-5.367-2.063"/>
			<path fill="#B7B053" stroke="#000000" stroke-width="0.5" stroke-miterlimit="10" d="M226.439,198.373
				c1.801,0.642,3.658,1.132,5.532,1.514l0.102-0.021l1.135-1.674l-0.018-0.104c-1.052-1.594-2.19-3.131-3.448-4.57"/>
			<path fill="#B7B053" stroke="#000000" stroke-width="0.5" stroke-miterlimit="10" d="M238.938,176.37
				c1.891,0.246,3.801,0.348,5.706,0.328l0.098-0.042l0.762-1.873l-0.039-0.097c-1.345-1.345-2.786-2.606-4.312-3.747"/>
			<path fill="#B7B053" stroke="#000000" stroke-width="0.5" stroke-miterlimit="10" d="M231.115,191.336
				c1.843,0.508,3.722,0.869,5.616,1.123l0.102-0.029l1.016-1.748l-0.023-0.102c-1.161-1.518-2.407-2.963-3.756-4.315"/>
			<path fill="#B7B053" stroke="#000000" stroke-width="0.5" stroke-miterlimit="10" d="M235.288,183.99
				c1.874,0.373,3.769,0.6,5.676,0.728l0.098-0.037l0.893-1.814l-0.031-0.1c-1.253-1.435-2.601-2.795-4.044-4.04"/>
			<path fill="#B7B053" stroke="#000000" stroke-width="0.5" stroke-miterlimit="10" d="M11.924,162.255
				c-1.609,1.024-3.127,2.187-4.583,3.417l-0.047,0.095l0.619,1.926l0.094,0.049c1.899,0.165,3.811,0.204,5.714,0.104"/>
			<path fill="#B7B053" stroke="#000000" stroke-width="0.5" stroke-miterlimit="10" d="M25.874,192.92
				c-1.263,1.434-2.421,2.959-3.475,4.551l-0.02,0.104l1.127,1.68l0.102,0.023c1.876-0.375,3.733-0.852,5.54-1.482"/>
			<path fill="#B7B053" stroke="#000000" stroke-width="0.5" stroke-miterlimit="10" d="M21.586,185.646
				c-1.356,1.34-2.611,2.78-3.776,4.29l-0.025,0.102l1.006,1.754l0.102,0.03c1.892-0.247,3.776-0.587,5.618-1.089"/>
			<path fill="#B7B053" stroke="#000000" stroke-width="0.5" stroke-miterlimit="10" d="M30.658,199.878
				c-1.164,1.52-2.215,3.125-3.155,4.79l-0.012,0.104l1.24,1.597l0.104,0.016c1.849-0.506,3.665-1.118,5.431-1.867"/>
			<path fill="#B7B053" stroke="#000000" stroke-width="0.5" stroke-miterlimit="10" d="M17.822,178.086
				c-1.448,1.24-2.799,2.59-4.063,4.012l-0.033,0.101l0.881,1.82l0.1,0.036c1.903-0.107,3.803-0.327,5.675-0.693"/>
			<path fill="#B7B053" stroke="#000000" stroke-width="0.5" stroke-miterlimit="10" d="M124.703,248.956
				c0.482,1.854,1.109,3.666,1.839,5.438l0.076,0.073l2.021,0.006l0.076-0.073c0.737-1.771,1.374-3.578,1.872-5.432"/>
			<path fill="#B7B053" stroke="#000000" stroke-width="0.5" stroke-miterlimit="10" d="M8.299,145.762
				c-1.739,0.793-3.413,1.728-5.026,2.751l-0.059,0.088l0.345,1.992l0.085,0.063c1.861,0.422,3.749,0.737,5.653,0.899"/>
			<path fill="#B7B053" stroke="#000000" stroke-width="0.5" stroke-miterlimit="10" d="M7.355,137.367
				c-1.789,0.672-3.529,1.482-5.21,2.396l-0.064,0.082l0.205,2.013l0.08,0.067c1.829,0.55,3.694,1,5.582,1.293"/>
			<path fill="#B7B053" stroke="#000000" stroke-width="0.5" stroke-miterlimit="10" d="M41.613,212.715
				c-0.941,1.671-1.76,3.41-2.462,5.193l0.002,0.104l1.451,1.41h0.105c1.761-0.754,3.476-1.622,5.118-2.612"/>
			<path fill="#B7B053" stroke="#000000" stroke-width="0.5" stroke-miterlimit="10" d="M9.823,154.072
				c-1.679,0.911-3.281,1.959-4.816,3.092l-0.052,0.091l0.483,1.964l0.088,0.056c1.886,0.284,3.788,0.474,5.696,0.502"/>
			<path fill="#B7B053" stroke="#000000" stroke-width="0.5" stroke-miterlimit="10" d="M14.596,170.277
				c-1.529,1.137-2.975,2.387-4.333,3.72l-0.039,0.098l0.752,1.877l0.096,0.043c1.904,0.028,3.815-0.059,5.707-0.295"/>
			<path fill="#B7B053" stroke="#000000" stroke-width="0.5" stroke-miterlimit="10" d="M7.01,128.924
				c-1.838,0.549-3.633,1.236-5.378,2.031l-0.07,0.078l0.064,2.021l0.075,0.073c1.791,0.678,3.623,1.254,5.491,1.682"/>
			<path fill="#B7B053" stroke="#000000" stroke-width="0.5" stroke-miterlimit="10" d="M35.912,206.486
				c-1.057,1.6-1.989,3.278-2.817,5.005l-0.004,0.105l1.35,1.507l0.104,0.008c1.81-0.633,3.585-1.369,5.292-2.244"/>
			<path fill="#B7B053" stroke="#000000" stroke-width="0.5" stroke-miterlimit="10" d="M99.628,245.648
				c0.08,1.905,0.318,3.809,0.668,5.681l0.059,0.087l1.977,0.427l0.088-0.055c1.093-1.565,2.092-3.203,2.954-4.907"/>
			<path fill="#B7B053" stroke="#000000" stroke-width="0.5" stroke-miterlimit="10" d="M91.49,243.391
				c-0.049,1.905,0.059,3.813,0.269,5.706l0.053,0.091l1.943,0.563l0.092-0.05c1.191-1.483,2.31-3.04,3.282-4.68"/>
			<path fill="#B7B053" stroke="#000000" stroke-width="0.5" stroke-miterlimit="10" d="M107.902,247.331
				c0.212,1.898,0.586,3.782,1.063,5.63l0.064,0.083l2.002,0.288l0.086-0.062c0.974-1.647,1.861-3.347,2.606-5.11"/>
			<path fill="#B7B053" stroke="#000000" stroke-width="0.5" stroke-miterlimit="10" d="M83.529,240.567
				c-0.181,1.895-0.215,3.806-0.128,5.707l0.045,0.093l1.898,0.698l0.096-0.042c1.293-1.4,2.496-2.877,3.589-4.436"/>
			<path fill="#B7B053" stroke="#000000" stroke-width="0.5" stroke-miterlimit="10" d="M116.273,248.435
				c0.352,1.882,0.852,3.735,1.456,5.551l0.07,0.078l2.016,0.146l0.082-0.067c0.861-1.708,1.629-3.471,2.245-5.284"/>
			<path fill="#B7B053" stroke="#000000" stroke-width="0.5" stroke-miterlimit="10" d="M61.105,228.836
				c-0.575,1.824-1.006,3.695-1.319,5.58l0.023,0.103l1.713,1.076l0.102-0.021c1.559-1.104,3.056-2.299,4.45-3.606"/>
			<path fill="#B7B053" stroke="#000000" stroke-width="0.5" stroke-miterlimit="10" d="M47.729,218.533
				c-0.83,1.729-1.515,3.527-2.091,5.354l0.012,0.104l1.545,1.305l0.105-0.007c1.702-0.875,3.354-1.857,4.92-2.961"/>
			<path fill="#B7B053" stroke="#000000" stroke-width="0.5" stroke-miterlimit="10" d="M54.236,223.916
				c-0.699,1.783-1.261,3.621-1.708,5.482l0.018,0.104l1.633,1.193l0.104-0.014c1.636-0.994,3.214-2.083,4.697-3.293"/>
			<path fill="#B7B053" stroke="#000000" stroke-width="0.5" stroke-miterlimit="10" d="M68.301,233.268
				c-0.439,1.859-0.738,3.746-0.927,5.648l0.031,0.1l1.783,0.954l0.102-0.027c1.473-1.212,2.881-2.503,4.179-3.901"/>
			<path fill="#B7B053" stroke="#000000" stroke-width="0.5" stroke-miterlimit="10" d="M75.787,237.185
				c-0.314,1.882-0.475,3.785-0.528,5.69l0.039,0.097l1.846,0.828l0.098-0.036c1.39-1.303,2.694-2.695,3.893-4.176"/>
		</g>
		<path fill="#B7B053" stroke="#000000" stroke-width="0.5" stroke-miterlimit="10" d="M249.002,128
			c0,66.828-54.174,121.002-121.002,121.002S6.998,194.828,6.998,128S61.172,6.998,128,6.998S249.002,61.172,249.002,128z
			 M227.117,71.408c-37.32-49.353-115.342-13.93-89.404,48.188c11.012-56.548,83.984-57.771,103.182-7.53
			C238.891,97.447,234.119,83.712,227.117,71.408z M191.588,33.096c-59.643-32.804-115.625,40.776-60.02,83.192
			c-19.234-55.924,47.229-94.007,88.873-55.26C212.551,50.104,202.775,40.632,191.588,33.096z M142.52,14.634l0.002,0.001
			c-74.662-5.492-89.785,92.614-17.926,101.863c-44.76-38.935-5.869-105.449,49.846-92.184c0.209,0.049,0.523-0.069,0.635-0.264
			c0.027-0.046,0.045-0.101,0.059-0.155C164.973,19.272,154.014,16.096,142.52,14.634z M83.351,22.801
			c-0.625,0.268-1.271,0.76-1.854,1.059c-64.996,33.316-29.103,123.961,37.159,96.306c-58.227-11.341-57.803-88.387-2.922-104.756
			c0.205-0.063,0.418-0.321,0.418-0.547c0-0.181-0.096-0.386-0.24-0.506C104.469,15.563,93.531,18.463,83.351,22.801z
			 M33.492,63.976c-36.025,60.481,38.893,118.646,81.859,62.334c-56.1,19.286-94.248-47.659-54.896-89.272
			c0.148-0.152,0.203-0.484,0.092-0.68c-0.072-0.123-0.205-0.224-0.348-0.279C49.797,43.79,40.75,53.229,33.492,63.976z
			 M14.037,127.681c0,0.969,0.014,1.935,0.037,2.897c7.861,61.148,92.896,69.364,101.486,2.705
			c-38.939,44.753-105.451,5.854-92.178-49.861c0.045-0.176-0.041-0.424-0.186-0.566C17.305,96.615,14.037,111.766,14.037,127.681z
			 M34.803,193.277c38.801,40.415,109.25,5.405,84.426-54.059c-11.162,57.287-85.922,57.794-103.918,5.526
			C17.994,162.619,24.83,179.133,34.803,193.277z M83.395,232.58c51.865,11.224,91.898-51.97,41.979-90.055
			c18.439,53.625-41.912,90.838-83.621,59.646C53.051,215.241,67.27,225.715,83.395,232.58z M128,241.644
			c5.047,0,10.014-0.332,14.887-0.968c48.738-17.427,50.963-90.437-10.541-98.359c41.963,36.507,10.389,97.243-39.635,93.749
			C103.822,239.682,115.682,241.644,128,241.644z M196.246,218.957c34.068-39.426-0.547-104.281-57.965-80.309
			c54.168,10.551,57.568,77.951,13.6,100.481C168.244,235.64,183.311,228.645,196.246,218.957z M231.393,175.661
			c12.453-52.438-51.432-93.459-89.805-43.155c52.393-18.021,89.133,39.176,61.705,80.715
			C215.074,202.843,224.693,190.069,231.393,175.661z M241.963,127.681c0-1.8-0.047-3.59-0.129-5.369
			c-12.396-55.695-92.156-61.229-100.455,3.22c36.967-42.494,98.785-9.585,93.594,41.534
			C239.492,154.791,241.963,141.524,241.963,127.681z"/>
		<circle fill="none" stroke="#000000" stroke-width="0.5" stroke-miterlimit="10" cx="128" cy="128" r="116.529"/>
	</g>
</g>
<g id="screenshots" display="none">
</g>
<g id="fondo_negro" display="none">
</g>
<g id="imagenes" display="none">
</g>
<g id="texto" display="none">
</g>
<g id="bienvenido" display="none">
</g>
<g id="landpage" display="none">
	<defs>
		<rect id="ventana" x="-2578.312" y="-92.191" width="1024.5" height="487.98"/>
	</defs>
	<clipPath id="ventana_1_" display="inline">
		<use xlink:href="#ventana"  overflow="visible"/>
	</clipPath>
</g>
<g id="titulo" display="none">
</g>
<g id="bocetos" display="none">
</g>
<g id="notas" display="none">
</g>
</svg>
