<?xml version="1.0" encoding="utf-8"?>
<!-- Generator: Adobe Illustrator 16.0.0, SVG Export Plug-In . SVG Version: 6.00 Build 0)  -->
<!DOCTYPE svg PUBLIC "-//W3C//DTD SVG 1.1//EN" "http://www.w3.org/Graphics/SVG/1.1/DTD/svg11.dtd">
<svg version="1.1" xmlns="http://www.w3.org/2000/svg" xmlns:xlink="http://www.w3.org/1999/xlink" x="0px" y="0px" width="77px"
	 height="91px" viewBox="0 0 77 91" enable-background="new 0 0 77 91" xml:space="preserve">
<g id="exportaciones">
	<g>
		<line fill="none" x1="33.19" y1="0.863" x2="44.062" y2="0.863"/>
		<g>
			<g>
				<path fill="#8A8A8A" stroke="#000000" stroke-width="0.5" stroke-miterlimit="10" d="M38.507,90.181
					c-2.377,0-4.059-0.468-4.72-1.248c-0.359-0.427,1.282-7.458-4.469-11.564c-3.722-2.661-7.701-1.655-10.783,0.357l-0.002-0.001
					C7.784,71.041,0.631,59.124,0.631,45.536c0-20.919,16.958-37.876,37.876-37.876s37.878,16.958,37.878,37.876
					c0,13.589-7.105,25.506-17.854,32.189l-0.051,0c-3.082-2.012-7.061-3.018-10.785-0.357c-5.751,4.106-4.106,11.137-4.47,11.564
					C42.566,89.713,40.883,90.181,38.507,90.181 M38.517,28.53c-9.396,0-17.015,7.618-17.015,17.014s7.618,17.014,17.015,17.014
					s17.015-7.618,17.015-17.014S47.913,28.53,38.517,28.53z"/>
				<g display="none">
					<path display="inline" fill="none" stroke="#4C4C4C" stroke-width="0.5" stroke-miterlimit="10" d="M2.551,44.16
						c1.137,6.168,7.96,7.936,10.382,5.591c4.807-4.655-5.039-7.309-0.521-12.417c2.232-2.523,6.176-2.571,8.729,0.491"/>
					<path display="inline" fill="none" stroke="#4C4C4C" stroke-width="0.5" stroke-miterlimit="10" d="M19.782,14.945
						c4.862-1.065,9.638-0.189,9.638,3.074c0,6.59-7.752,2.195-7.752,7.847c0,4.205,5.792,3.567,7.363,3.225"/>
					<path display="inline" fill="none" stroke="#4C4C4C" stroke-width="0.5" stroke-miterlimit="10" d="M34.595,80.829
						c5.927,0.921,7.476-3.868,5.927-6.859c-1.686-3.256-11.364,0.678-11.731-4.759c-0.241-3.574,1.995-4.816,3.821-5.599"/>
					<path display="inline" fill="none" stroke="#4C4C4C" stroke-width="0.5" stroke-miterlimit="10" d="M6.458,61.72
						c2.354-5.892,6.772-2.806,10.001-0.161s5.379,10.146-1.009,11.521"/>
					<path display="inline" fill="none" stroke="#4C4C4C" stroke-width="0.5" stroke-miterlimit="10" d="M50.518,73.972
						c-3.477-1.023-4.931-4.023-2.987-7.261c3.911-6.516,10.204,2.188,16.45-3.001c3.912-3.25,2.082-9.386,0.916-13.419
						c-1.432-4.951,3.242-5.525,1.704-10.432s-7.573-3.392-10.187-0.726"/>
					<path display="inline" fill="none" stroke="#4C4C4C" stroke-width="0.5" stroke-miterlimit="10" d="M49.866,30.329
						c4.411,2.291,10.484,1.196,9.497-3.883c-1.068-5.495-10.787-0.813-11.076-6.697s5.586-5.52,9.424-4.5"/>
					<path display="inline" fill="none" stroke="#4C4C4C" stroke-width="0.5" stroke-miterlimit="10" d="M19.502,66.902
						c0.383-4.792,4.811-4.61,6.68-5.86C26.279,65.164,23.688,68.725,19.502,66.902z"/>
					<path display="inline" fill="none" stroke="#4C4C4C" stroke-width="0.5" stroke-miterlimit="10" d="M11.856,58.794
						c2.66,4.004-0.934,6.597-1.63,8.735C7.602,64.35,7.438,59.948,11.856,58.794z"/>
					<path display="inline" fill="none" stroke="#4C4C4C" stroke-width="0.5" stroke-miterlimit="10" d="M17.761,63.094
						c0.295,3.173-2.619,3.559-3.697,4.588C13.53,65.001,14.819,62.38,17.761,63.094z"/>
					<path display="inline" fill="none" stroke="#4C4C4C" stroke-width="0.5" stroke-miterlimit="10" d="M17.969,71.849
						c-2.665,1.746-4.371-0.647-5.786-1.117C14.303,69.004,17.223,68.914,17.969,71.849z"/>
					<path display="inline" fill="none" stroke="#4C4C4C" stroke-width="0.5" stroke-miterlimit="10" d="M19.68,70.09
						c2.605-2.229,4.752,0.092,6.326,0.4C23.98,72.623,20.877,73.118,19.68,70.09z"/>
					<path display="inline" fill="none" stroke="#4C4C4C" stroke-width="0.5" stroke-miterlimit="10" d="M29.773,65.397
						c-3.154-1.346-2.027-4.299-2.449-5.846C30.135,60.418,31.955,62.981,29.773,65.397z"/>
					<path display="inline" fill="none" stroke="#4C4C4C" stroke-width="0.5" stroke-miterlimit="10" d="M28.709,68.2
						c-1.613,1.743-3.277,0.318-4.385,0.232C25.546,66.801,27.644,66.212,28.709,68.2z"/>
					<path display="inline" fill="none" stroke="#4C4C4C" stroke-width="0.5" stroke-miterlimit="10" d="M30.036,71.391
						c0.571,4.861-2.759,5.268-3.927,6.771C25.297,74.035,26.595,70.114,30.036,71.391z"/>
					<path display="inline" fill="none" stroke="#4C4C4C" stroke-width="0.5" stroke-miterlimit="10" d="M17.066,71.995
						c4.951,0.001,5.127,4.565,6.564,6.381C19.405,78.815,15.534,76.444,17.066,71.995z"/>
					<path display="inline" fill="none" stroke="#4C4C4C" stroke-width="0.5" stroke-miterlimit="10" d="M17.176,62.356
						c-0.72-2.761,1.798-3.522,2.602-4.589C20.637,60.059,19.878,62.561,17.176,62.356z"/>
					<path display="inline" fill="none" stroke="#4C4C4C" stroke-width="0.5" stroke-miterlimit="10" d="M9.088,50.748
						c2.478,1.872,0.843,4.219,0.877,5.671C7.686,55.043,6.645,52.396,9.088,50.748z"/>
					<path display="inline" fill="none" stroke="#4C4C4C" stroke-width="0.5" stroke-miterlimit="10" d="M14.888,60.125
						c-4.064-2.569-1.843-6.403-2.082-8.64C16.501,53.316,18.448,57.267,14.888,60.125z"/>
					<path display="inline" fill="none" stroke="#4C4C4C" stroke-width="0.5" stroke-miterlimit="10" d="M7.537,60.434
						c-4.808-0.104-4.883-4.535-6.242-6.327C5.405,53.769,9.112,56.148,7.537,60.434z"/>
				</g>
				<g>
					<path fill="none" stroke="#4C4C4C" stroke-width="0.25" stroke-miterlimit="10" d="M35.774,65.99
						c-0.212-0.417-0.332-0.89-0.332-1.391"/>
					<path fill="none" stroke="#4C4C4C" stroke-width="0.25" stroke-miterlimit="10" d="M41.591,64.599
						c0,0.536-0.137,1.04-0.378,1.479"/>
					<path fill="none" stroke="#4C4C4C" stroke-width="0.25" stroke-miterlimit="10" d="M29.118,28.729
						c-0.181-0.498-0.225-1.012-0.151-1.501"/>
					<path fill="none" stroke="#4C4C4C" stroke-width="0.25" stroke-miterlimit="10" d="M43.024,65.783
						c-0.388-0.333-0.698-0.766-0.886-1.28"/>
					<path fill="none" stroke="#4C4C4C" stroke-width="0.25" stroke-miterlimit="10" d="M47.916,62.4
						c0.182,0.499,0.227,1.015,0.152,1.506"/>
					<path fill="none" stroke="#4C4C4C" stroke-width="0.25" stroke-miterlimit="10" d="M27.396,28.117
						c0.467,0.182,0.896,0.479,1.241,0.891"/>
					<path fill="none" stroke="#4C4C4C" stroke-width="0.25" stroke-miterlimit="10" d="M23.928,32.959
						c-0.322-0.385-0.535-0.826-0.641-1.284"/>
					<path fill="none" stroke="#4C4C4C" stroke-width="0.25" stroke-miterlimit="10" d="M49.625,63.005
						c-0.462-0.182-0.886-0.478-1.227-0.883"/>
					<path fill="none" stroke="#4C4C4C" stroke-width="0.25" stroke-miterlimit="10" d="M22.216,32.978
						c0.463,0.027,0.927,0.16,1.355,0.407"/>
					<path fill="none" stroke="#4C4C4C" stroke-width="0.25" stroke-miterlimit="10" d="M20.497,38.709
						c-0.456-0.264-0.819-0.627-1.078-1.046"/>
					<path fill="none" stroke="#4C4C4C" stroke-width="0.25" stroke-miterlimit="10" d="M18.824,39.334
						c0.464-0.151,0.97-0.193,1.483-0.103"/>
					<path fill="none" stroke="#4C4C4C" stroke-width="0.25" stroke-miterlimit="10" d="M19.239,45.286
						c-0.526-0.093-0.997-0.314-1.387-0.626"/>
					<path fill="none" stroke="#4C4C4C" stroke-width="0.25" stroke-miterlimit="10" d="M57.797,45.842
						c0.535,0.094,1.014,0.322,1.408,0.643"/>
					<path fill="none" stroke="#4C4C4C" stroke-width="0.25" stroke-miterlimit="10" d="M17.884,46.443
						c0.384-0.299,0.844-0.512,1.356-0.602"/>
					<path fill="none" stroke="#4C4C4C" stroke-width="0.25" stroke-miterlimit="10" d="M59.197,44.648
						c-0.392,0.318-0.867,0.544-1.399,0.638"/>
					<path fill="none" stroke="#4C4C4C" stroke-width="0.25" stroke-miterlimit="10" d="M56.729,39.231
						c0.51-0.09,1.013-0.049,1.474,0.098"/>
					<path fill="none" stroke="#4C4C4C" stroke-width="0.25" stroke-miterlimit="10" d="M57.579,37.725
						c-0.256,0.393-0.605,0.732-1.039,0.983"/>
					<path fill="none" stroke="#4C4C4C" stroke-width="0.25" stroke-miterlimit="10" d="M53.466,33.384
						c0.465-0.269,0.97-0.402,1.471-0.413"/>
					<path fill="none" stroke="#4C4C4C" stroke-width="0.25" stroke-miterlimit="10" d="M28.638,62.12
						c-0.331,0.394-0.739,0.684-1.185,0.867"/>
					<path fill="none" stroke="#4C4C4C" stroke-width="0.25" stroke-miterlimit="10" d="M53.76,31.625
						c-0.102,0.476-0.317,0.934-0.651,1.332"/>
					<path fill="none" stroke="#4C4C4C" stroke-width="0.25" stroke-miterlimit="10" d="M48.399,29.006
						c0.351-0.417,0.788-0.719,1.263-0.9"/>
					<path fill="none" stroke="#4C4C4C" stroke-width="0.25" stroke-miterlimit="10" d="M28.954,63.805
						c-0.054-0.461-0.004-0.942,0.166-1.409"/>
					<path fill="none" stroke="#4C4C4C" stroke-width="0.25" stroke-miterlimit="10" d="M34.896,64.5
						c-0.165,0.453-0.426,0.844-0.751,1.158"/>
					<path fill="none" stroke="#4C4C4C" stroke-width="0.25" stroke-miterlimit="10" d="M48.062,27.178
						c0.083,0.504,0.042,1.035-0.145,1.548"/>
					<path fill="none" stroke="#4C4C4C" stroke-width="0.25" stroke-miterlimit="10" d="M41.346,19.12
						c0.472,0.452,0.836,1.016,1.049,1.648"/>
					<path fill="none" stroke="#4C4C4C" stroke-width="0.25" stroke-miterlimit="10" d="M34.654,20.729
						c0.415-1.195,1.369-2.137,2.571-2.537"/>
					<path fill="none" stroke="#4C4C4C" stroke-width="0.25" stroke-miterlimit="10" d="M39.968,72.879
						c-0.451,0.171-0.94,0.265-1.451,0.265c-0.924,0-1.776-0.306-2.461-0.822"/>
					<path fill="none" stroke="#4C4C4C" stroke-width="0.25" stroke-miterlimit="10" d="M26.393,23.328
						c0.065-1.609,1.083-3.096,2.69-3.681"/>
					<path fill="none" stroke="#4C4C4C" stroke-width="0.25" stroke-miterlimit="10" d="M47.949,71.481
						c-1.408,0.512-2.915,0.204-3.996-0.681"/>
					<path fill="none" stroke="#4C4C4C" stroke-width="0.25" stroke-miterlimit="10" d="M19.378,26.916
						c0.151-0.935,0.626-1.822,1.409-2.479c0.326-0.273,0.683-0.487,1.056-0.643"/>
					<path fill="none" stroke="#4C4C4C" stroke-width="0.25" stroke-miterlimit="10" d="M54.831,67.465
						c-0.909,0.283-1.892,0.238-2.768-0.12"/>
					<path fill="none" stroke="#4C4C4C" stroke-width="0.25" stroke-miterlimit="10" d="M57.604,62.647
						c0.126,0.556,0.134,1.131,0.027,1.686"/>
					<path fill="none" stroke="#4C4C4C" stroke-width="0.25" stroke-miterlimit="10" d="M14.119,33.261
						c0.069-0.509,0.237-1.014,0.511-1.486c0.456-0.789,1.135-1.369,1.911-1.706"/>
					<path fill="none" stroke="#4C4C4C" stroke-width="0.25" stroke-miterlimit="10" d="M59.942,61.254
						c-0.387,0.106-0.788,0.156-1.192,0.146"/>
					<path fill="none" stroke="#4C4C4C" stroke-width="0.25" stroke-miterlimit="10" d="M62.274,55.058
						c0.602,0.917,0.819,2.052,0.579,3.137"/>
					<path fill="none" stroke="#4C4C4C" stroke-width="0.25" stroke-miterlimit="10" d="M11.322,40.978
						c0.009-0.067,0.02-0.134,0.031-0.202c0.265-1.497,1.311-2.658,2.645-3.139"/>
					<path fill="none" stroke="#4C4C4C" stroke-width="0.25" stroke-miterlimit="10" d="M64.496,46.708
						c0.939,0.913,1.425,2.26,1.18,3.647c-0.01,0.056-0.021,0.111-0.033,0.166"/>
					<path fill="none" stroke="#4C4C4C" stroke-width="0.25" stroke-miterlimit="10" d="M11.312,49.23
						c0.126-1.24,0.815-2.352,1.849-3.021"/>
					<path fill="none" stroke="#4C4C4C" stroke-width="0.25" stroke-miterlimit="10" d="M14.395,53.616
						c-0.439-0.11-0.855-0.292-1.231-0.534"/>
					<path fill="none" stroke="#4C4C4C" stroke-width="0.25" stroke-miterlimit="10" d="M64.605,38.66
						c0.54,0.564,0.925,1.29,1.07,2.117c0.1,0.567,0.078,1.127-0.047,1.655"/>
					<path fill="none" stroke="#4C4C4C" stroke-width="0.25" stroke-miterlimit="10" d="M14.127,56.705
						c0.095-0.629,0.335-1.233,0.706-1.758"/>
					<path fill="none" stroke="#4C4C4C" stroke-width="0.25" stroke-miterlimit="10" d="M18.676,61.373
						c-0.988,0.122-1.991-0.123-2.811-0.682"/>
					<path fill="none" stroke="#4C4C4C" stroke-width="0.25" stroke-miterlimit="10" d="M61.781,30.959
						c0.234,0.24,0.443,0.513,0.619,0.817c0.555,0.962,0.676,2.057,0.422,3.055"/>
					<path fill="none" stroke="#4C4C4C" stroke-width="0.25" stroke-miterlimit="10" d="M25.014,67.329
						c-1.291,0.546-2.82,0.408-4.011-0.465"/>
					<path fill="none" stroke="#4C4C4C" stroke-width="0.25" stroke-miterlimit="10" d="M56.37,24.55
						c1.2,1.094,1.609,2.758,1.154,4.233"/>
					<path fill="none" stroke="#4C4C4C" stroke-width="0.25" stroke-miterlimit="10" d="M31.934,71.465
						c-0.885,0.336-1.891,0.369-2.851,0.019c-0.386-0.141-0.737-0.333-1.05-0.566"/>
					<path fill="none" stroke="#4C4C4C" stroke-width="0.25" stroke-miterlimit="10" d="M49.38,20.54
						c0.783,0.751,1.242,1.792,1.261,2.882"/>
					<path fill="none" stroke="#4C4C4C" stroke-width="0.25" stroke-miterlimit="10" d="M43.379,20.908
						c0.479-0.587,1.108-1.023,1.809-1.271"/>
					<path fill="none" stroke="#4C4C4C" stroke-width="0.25" stroke-miterlimit="10" d="M31.299,15.934
						c0.513-0.361,1.111-0.619,1.771-0.735c1.75-0.308,3.438,0.463,4.385,1.835"/>
					<path fill="none" stroke="#4C4C4C" stroke-width="0.25" stroke-miterlimit="10" d="M40.523,75.089
						c-0.65-0.499-1.163-1.18-1.455-1.983"/>
					<path fill="none" stroke="#4C4C4C" stroke-width="0.25" stroke-miterlimit="10" d="M47.597,71.591
						c0.008,2.1-1.495,3.961-3.632,4.339c-0.137,0.024-0.273,0.042-0.41,0.053"/>
					<path fill="none" stroke="#4C4C4C" stroke-width="0.25" stroke-miterlimit="10" d="M22.463,19.267
						c0.171-0.136,0.354-0.261,0.549-0.374c1.878-1.083,4.221-0.625,5.566,0.98"/>
					<path fill="none" stroke="#4C4C4C" stroke-width="0.25" stroke-miterlimit="10" d="M21.081,24.212
						c-0.373-1.016-0.348-2.11,0.021-3.08"/>
					<path fill="none" stroke="#4C4C4C" stroke-width="0.25" stroke-miterlimit="10" d="M56.215,68.612
						c-0.062,1.452-0.842,2.843-2.193,3.623c-0.592,0.341-1.229,0.53-1.867,0.578"/>
					<path fill="none" stroke="#4C4C4C" stroke-width="0.25" stroke-miterlimit="10" d="M15.545,25.119
						c1.398-1.057,3.315-1.182,4.846-0.298"/>
					<path fill="none" stroke="#4C4C4C" stroke-width="0.25" stroke-miterlimit="10" d="M14.829,31.462
						c-1.113-1.319-1.343-3.172-0.612-4.713"/>
					<path fill="none" stroke="#4C4C4C" stroke-width="0.25" stroke-miterlimit="10" d="M63.229,62.735
						c-0.049,0.919-0.386,1.83-1.021,2.588c-0.743,0.884-1.759,1.403-2.819,1.537"/>
					<path fill="none" stroke="#4C4C4C" stroke-width="0.25" stroke-miterlimit="10" d="M11.424,32.796
						c0.877-0.507,1.924-0.709,2.965-0.525"/>
					<path fill="none" stroke="#4C4C4C" stroke-width="0.25" stroke-miterlimit="10" d="M11.434,40.415
						c-1.82-1.045-2.682-3.276-1.939-5.316c0.056-0.153,0.119-0.301,0.189-0.443"/>
					<path fill="none" stroke="#4C4C4C" stroke-width="0.25" stroke-miterlimit="10" d="M67.803,54.547
						c-0.002,0.492-0.088,0.992-0.266,1.48c-0.609,1.671-2.123,2.749-3.786,2.882"/>
					<path fill="none" stroke="#4C4C4C" stroke-width="0.25" stroke-miterlimit="10" d="M10.174,49.628
						c-1.483-0.707-2.51-2.219-2.51-3.972c0-0.599,0.119-1.169,0.336-1.689"/>
					<path fill="none" stroke="#4C4C4C" stroke-width="0.25" stroke-miterlimit="10" d="M69.365,45.471
						c-0.002,2.17-1.568,3.969-3.632,4.332"/>
					<path fill="none" stroke="#4C4C4C" stroke-width="0.25" stroke-miterlimit="10" d="M65.723,41.141
						c1.168,0.201,2.178,0.863,2.836,1.793"/>
					<path fill="none" stroke="#4C4C4C" stroke-width="0.25" stroke-miterlimit="10" d="M11.787,58.664
						c-1.001-0.479-1.822-1.336-2.231-2.461c-0.37-1.019-0.342-2.085,0.007-3.028"/>
					<path fill="none" stroke="#4C4C4C" stroke-width="0.25" stroke-miterlimit="10" d="M67.737,36.55
						c-0.042,1.505-0.858,2.917-2.196,3.688"/>
					<path fill="none" stroke="#4C4C4C" stroke-width="0.25" stroke-miterlimit="10" d="M62.568,32.102
						c1.833-0.33,3.69,0.544,4.604,2.171"/>
					<path fill="none" stroke="#4C4C4C" stroke-width="0.25" stroke-miterlimit="10" d="M16.469,66.634
						c-0.572-0.263-1.098-0.654-1.529-1.169c-1.032-1.231-1.276-2.86-0.783-4.275"/>
					<path fill="none" stroke="#4C4C4C" stroke-width="0.25" stroke-miterlimit="10" d="M62.99,29.537
						c-0.156,0.642-0.459,1.253-0.901,1.78"/>
					<path fill="none" stroke="#4C4C4C" stroke-width="0.25" stroke-miterlimit="10" d="M56.513,24.688
						c1.813-1.056,4.179-0.686,5.574,0.976c0.174,0.208,0.325,0.427,0.455,0.655"/>
					<path fill="none" stroke="#4C4C4C" stroke-width="0.25" stroke-miterlimit="10" d="M23.576,72.537
						c-0.139-0.062-0.275-0.131-0.409-0.208c-1.876-1.085-2.651-3.341-1.933-5.312"/>
					<path fill="none" stroke="#4C4C4C" stroke-width="0.25" stroke-miterlimit="10" d="M28.74,71.341
						c-0.535,0.64-1.229,1.1-1.988,1.352"/>
					<path fill="none" stroke="#4C4C4C" stroke-width="0.25" stroke-miterlimit="10" d="M49.46,18.804
						c1.314-0.759,2.988-0.815,4.398-0.002c0.671,0.389,1.201,0.926,1.573,1.546"/>
					<path fill="none" stroke="#4C4C4C" stroke-width="0.25" stroke-miterlimit="10" d="M32.08,75.585
						c-1.494-0.73-2.469-2.262-2.467-3.952"/>
					<path fill="none" stroke="#4C4C4C" stroke-width="0.25" stroke-miterlimit="10" d="M38.146,73.13
						c-0.568,1.574-1.986,2.68-3.622,2.873"/>
					<path fill="none" stroke="#4C4C4C" stroke-width="0.25" stroke-miterlimit="10" d="M40.717,15.751
						c0.883-0.543,1.961-0.777,3.063-0.584c1.24,0.22,2.266,0.938,2.907,1.911"/>
					<path fill="none" stroke="#4C4C4C" stroke-width="0.25" stroke-miterlimit="10" d="M34.213,15.195
						c0-2.376,1.926-4.304,4.304-4.304s4.304,1.928,4.304,4.304"/>
					<path fill="none" stroke="#4C4C4C" stroke-width="0.25" stroke-miterlimit="10" d="M42.695,76.967
						c-0.463,1.878-2.157,3.271-4.179,3.271c-2.227,0-4.058-1.69-4.28-3.857"/>
					<path fill="none" stroke="#4C4C4C" stroke-width="0.25" stroke-miterlimit="10" d="M24.086,18.499
						c-0.813-2.233,0.338-4.704,2.572-5.517s4.703,0.34,5.517,2.573"/>
					<path fill="none" stroke="#4C4C4C" stroke-width="0.25" stroke-miterlimit="10" d="M45.42,76.631
						c-0.229-0.317-0.419-0.671-0.56-1.057"/>
					<path fill="none" stroke="#4C4C4C" stroke-width="0.25" stroke-miterlimit="10" d="M52.948,72.631
						c0.139,0.379,0.221,0.766,0.25,1.149"/>
					<path fill="none" stroke="#4C4C4C" stroke-width="0.25" stroke-miterlimit="10" d="M15.699,25.066
						c-1.526-1.82-1.291-4.535,0.53-6.064c1.719-1.441,4.23-1.311,5.793,0.238"/>
					<path fill="none" stroke="#4C4C4C" stroke-width="0.25" stroke-miterlimit="10" d="M61.336,66.063
						c1.528,1.82,1.29,4.535-0.53,6.064c-1.822,1.527-4.536,1.289-6.063-0.532"/>
					<path fill="none" stroke="#4C4C4C" stroke-width="0.25" stroke-miterlimit="10" d="M9.633,33.821
						c-1.718-1.288-2.244-3.687-1.144-5.595c1.189-2.06,3.821-2.763,5.881-1.575"/>
					<path fill="none" stroke="#4C4C4C" stroke-width="0.25" stroke-miterlimit="10" d="M66.972,57.021
						c2.059,1.188,2.763,3.82,1.575,5.88c-1.19,2.059-3.822,2.763-5.879,1.574"/>
					<path fill="none" stroke="#4C4C4C" stroke-width="0.25" stroke-miterlimit="10" d="M7.863,44.529
						c-2.34-0.414-3.904-2.644-3.492-4.987c0.413-2.342,2.646-3.903,4.987-3.491"/>
					<path fill="none" stroke="#4C4C4C" stroke-width="0.25" stroke-miterlimit="10" d="M69.175,46.599
						c2.34,0.412,3.902,2.645,3.491,4.986c-0.415,2.342-2.647,3.903-4.986,3.49"/>
					<path fill="none" stroke="#4C4C4C" stroke-width="0.25" stroke-miterlimit="10" d="M9.358,55.075
						c-2.341,0.412-4.573-1.149-4.987-3.491c-0.413-2.342,1.151-4.573,3.492-4.986"/>
					<path fill="none" stroke="#4C4C4C" stroke-width="0.25" stroke-miterlimit="10" d="M68.248,35.989
						c2.123-0.091,4.038,1.403,4.418,3.553c0.369,2.104-0.855,4.119-2.805,4.806"/>
					<path fill="none" stroke="#4C4C4C" stroke-width="0.25" stroke-miterlimit="10" d="M14.37,64.475
						c-2.059,1.188-4.69,0.483-5.881-1.575c-1.189-2.059-0.482-4.691,1.576-5.88"/>
					<path fill="none" stroke="#4C4C4C" stroke-width="0.25" stroke-miterlimit="10" d="M63.135,26.416
						c1.974-0.842,4.312-0.095,5.412,1.81c1.188,2.061,0.48,4.692-1.576,5.879"/>
					<path fill="none" stroke="#4C4C4C" stroke-width="0.25" stroke-miterlimit="10" d="M22.294,71.593
						c-1.527,1.82-4.242,2.059-6.064,0.531c-1.822-1.528-2.059-4.244-0.53-6.064"/>
					<path fill="none" stroke="#4C4C4C" stroke-width="0.25" stroke-miterlimit="10" d="M54.742,19.531
						c1.526-1.82,4.242-2.058,6.063-0.531c1.822,1.53,2.057,4.245,0.53,6.063"/>
					<path fill="none" stroke="#4C4C4C" stroke-width="0.25" stroke-miterlimit="10" d="M32.033,75.914
						c-0.12,0.26-0.265,0.503-0.429,0.728"/>
					<path fill="none" stroke="#4C4C4C" stroke-width="0.25" stroke-miterlimit="10" d="M44.86,15.552
						c0.812-2.232,3.282-3.385,5.516-2.573c2.236,0.815,3.385,3.286,2.572,5.517"/>
					<path fill="none" stroke="#4C4C4C" stroke-width="0.25" stroke-miterlimit="10" d="M41.694,83.05
						c-0.956-0.696-1.653-1.749-1.876-3.005"/>
					<path fill="none" stroke="#4C4C4C" stroke-width="0.25" stroke-miterlimit="10" d="M37.271,80.056
						c-0.226,1.283-0.948,2.354-1.935,3.049"/>
					<path fill="none" stroke="#4C4C4C" stroke-width="0.25" stroke-miterlimit="10" d="M68.67,26.126
						c-0.252,0.393-0.566,0.754-0.942,1.069"/>
					<path fill="none" stroke="#4C4C4C" stroke-width="0.25" stroke-miterlimit="10" d="M61.64,19.943
						c0.374-0.314,0.782-0.56,1.21-0.739"/>
					<path fill="none" stroke="#4C4C4C" stroke-width="0.25" stroke-miterlimit="10" d="M8.35,65.022
						c0.254-0.399,0.573-0.768,0.955-1.089"/>
					<path fill="none" stroke="#4C4C4C" stroke-width="0.25" stroke-miterlimit="10" d="M15.391,71.186
						c-0.373,0.313-0.78,0.559-1.207,0.739"/>
					<path fill="none" stroke="#4C4C4C" stroke-width="0.25" stroke-miterlimit="10" d="M73.499,37.615
						c-0.371,0.282-0.79,0.514-1.251,0.682"/>
					<path fill="none" stroke="#4C4C4C" stroke-width="0.25" stroke-miterlimit="10" d="M69.008,29.399
						c0.459-0.167,0.927-0.259,1.391-0.28"/>
					<path fill="none" stroke="#4C4C4C" stroke-width="0.25" stroke-miterlimit="10" d="M3.514,53.533
						c0.375-0.288,0.801-0.525,1.27-0.696"/>
					<path fill="none" stroke="#4C4C4C" stroke-width="0.25" stroke-miterlimit="10" d="M8.021,61.734
						c-0.458,0.167-0.924,0.258-1.387,0.281"/>
					<path fill="none" stroke="#4C4C4C" stroke-width="0.25" stroke-miterlimit="10" d="M2.898,41.083
						c0.451-0.143,0.933-0.22,1.432-0.22"/>
					<path fill="none" stroke="#4C4C4C" stroke-width="0.25" stroke-miterlimit="10" d="M4.33,50.332
						c-0.488,0-0.956-0.074-1.399-0.211"/>
					<path fill="none" stroke="#4C4C4C" stroke-width="0.25" stroke-miterlimit="10" d="M70.423,61.964
						c-0.466-0.021-0.935-0.114-1.396-0.281"/>
					<path fill="none" stroke="#4C4C4C" stroke-width="0.25" stroke-miterlimit="10" d="M72.264,52.785
						c0.459,0.166,0.877,0.397,1.245,0.68"/>
					<path fill="none" stroke="#4C4C4C" stroke-width="0.25" stroke-miterlimit="10" d="M6.579,29.172
						c0.473,0.021,0.951,0.113,1.42,0.284"/>
					<path fill="none" stroke="#4C4C4C" stroke-width="0.25" stroke-miterlimit="10" d="M4.761,38.354
						c-0.458-0.167-0.872-0.397-1.243-0.677"/>
					<path fill="none" stroke="#4C4C4C" stroke-width="0.25" stroke-miterlimit="10" d="M62.889,71.89
						c-0.43-0.18-0.839-0.428-1.216-0.742"/>
					<path fill="none" stroke="#4C4C4C" stroke-width="0.25" stroke-miterlimit="10" d="M67.759,63.894
						c0.374,0.313,0.688,0.673,0.938,1.064"/>
					<path fill="none" stroke="#4C4C4C" stroke-width="0.25" stroke-miterlimit="10" d="M14.111,19.24
						c0.437,0.182,0.855,0.432,1.236,0.753"/>
					<path fill="none" stroke="#4C4C4C" stroke-width="0.25" stroke-miterlimit="10" d="M9.262,27.246
						c-0.373-0.313-0.684-0.671-0.936-1.061"/>
					<path fill="none" stroke="#4C4C4C" stroke-width="0.25" stroke-miterlimit="10" d="M59.726,72.792
						c0.245,0.421,0.417,0.867,0.518,1.321"/>
					<path fill="none" stroke="#4C4C4C" stroke-width="0.25" stroke-miterlimit="10" d="M24.586,12.482
						c0.348,0.32,0.656,0.699,0.904,1.131"/>
					<path fill="none" stroke="#4C4C4C" stroke-width="0.25" stroke-miterlimit="10" d="M17.291,18.347
						c-0.243-0.423-0.413-0.865-0.517-1.317"/>
					<path fill="none" stroke="#4C4C4C" stroke-width="0.25" stroke-miterlimit="10" d="M36.74,9.715
						c0.217,0.42,0.377,0.882,0.463,1.372"/>
					<path fill="none" stroke="#4C4C4C" stroke-width="0.25" stroke-miterlimit="10" d="M27.879,12.732
						c-0.084-0.479-0.092-0.954-0.035-1.415"/>
					<path fill="none" stroke="#4C4C4C" stroke-width="0.25" stroke-miterlimit="10" d="M49.107,11.273
						c0.061,0.469,0.053,0.958-0.035,1.447"/>
					<path fill="none" stroke="#4C4C4C" stroke-width="0.25" stroke-miterlimit="10" d="M39.748,11.077
						c0.086-0.479,0.24-0.928,0.451-1.342"/>
					<path fill="none" stroke="#4C4C4C" stroke-width="0.25" stroke-miterlimit="10" d="M16.814,74.145
						c0.103-0.453,0.275-0.899,0.52-1.326"/>
					<path fill="none" stroke="#4C4C4C" stroke-width="0.25" stroke-miterlimit="10" d="M60.195,16.966
						c-0.103,0.461-0.277,0.919-0.527,1.348"/>
					<path fill="none" stroke="#4C4C4C" stroke-width="0.25" stroke-miterlimit="10" d="M51.468,13.581
						c0.245-0.421,0.543-0.789,0.883-1.106"/>
					<path fill="none" stroke="#4C4C4C" stroke-width="0.25" stroke-miterlimit="10" d="M41.28,86.234
						c-0.748,0.626-1.712,1.004-2.764,1.004c-1.063,0-2.034-0.384-2.784-1.021"/>
					<path fill="none" stroke="#4C4C4C" stroke-width="0.25" stroke-miterlimit="10" d="M74.107,50.061
						c-0.445,0.139-0.918,0.212-1.408,0.213"/>
					<path fill="none" stroke="#4C4C4C" stroke-width="0.25" stroke-miterlimit="10" d="M72.697,40.804
						c0.488,0,0.96,0.074,1.402,0.213"/>
				</g>
				<g>
					<path fill="none" stroke="#000000" stroke-width="0.5" stroke-linejoin="round" stroke-miterlimit="10" d="M38.507,88.181
						c-1.396,0-2.28-0.183-2.767-0.349c0.056-2.406,0.069-8.287-5.26-12.091c-1.84-1.315-3.862-1.982-6.013-1.982
						c-1.924,0-3.938,0.555-5.891,1.615C8.569,68.688,2.631,57.623,2.631,45.536c0-19.782,16.094-35.876,35.876-35.876
						c19.783,0,35.878,16.094,35.878,35.876c0,12.113-5.928,23.186-15.918,29.853c-1.961-1.07-3.986-1.63-5.919-1.63
						c-2.149,0-4.174,0.667-6.015,1.982c-5.332,3.807-5.313,9.697-5.259,12.094C40.795,87.997,39.908,88.181,38.507,88.181z"/>
					<path fill="none" stroke="#000000" stroke-width="0.5" stroke-miterlimit="10" d="M59.091,51.36
						c-0.698-0.403-1.484-0.625-2.286-0.67c0.462-1.639,0.727-3.36,0.727-5.146c0-8.7-5.881-16.037-13.871-18.288
						c0.247-0.601,0.392-1.255,0.392-1.944c0-2.831-2.303-5.134-5.134-5.134c-2.83,0-5.133,2.303-5.133,5.134
						c0,0.618,0.123,1.205,0.325,1.754c-8.363,1.996-14.608,9.513-14.608,18.478c0,1.822,0.272,3.579,0.753,5.248
						c-0.528,0.111-1.04,0.295-1.508,0.566c-1.188,0.685-2.038,1.792-2.394,3.117c-0.355,1.325-0.174,2.709,0.513,3.898
						c0.914,1.583,2.618,2.565,4.446,2.565c0.899,0,1.787-0.238,2.565-0.688c0.521-0.301,0.968-0.69,1.345-1.136
						c3.432,3.362,8.122,5.444,13.294,5.444c5.409,0,10.285-2.281,13.751-5.918c0.432,0.65,0.994,1.209,1.689,1.61
						c0.779,0.45,1.667,0.688,2.565,0.688c1.828,0,3.531-0.982,4.449-2.57C62.385,55.917,61.54,52.771,59.091,51.36z"/>
				</g>
			</g>
			<g>
				<g>
					<path fill="#B7B053" d="M41.716,77.057c-0.689-0.922-1.242-1.934-1.604-2.934c-0.282-0.782-0.308-1.512-0.337-2.358
						l-0.017-0.471l-3.627-0.092l-0.041,0.472c-0.071,0.842-0.134,1.569-0.458,2.333c-0.419,0.995-1.022,1.977-1.75,2.849
						l-1.505-0.266c-0.398-1.126-0.622-2.228-0.665-3.276c-0.038-0.845,0.155-1.56,0.381-2.388l0.113-0.42l-3.438-1.159
						l-0.173,0.424c-0.319,0.788-0.595,1.469-1.131,2.113c-0.681,0.817-1.548,1.578-2.512,2.205l-1.36-0.698
						c-0.05-1.164,0.063-2.312,0.329-3.328c0.212-0.817,0.609-1.443,1.068-2.167l0.233-0.369l-2.946-2.122l-0.279,0.343
						c-0.541,0.664-1.008,1.237-1.715,1.698c-0.88,0.574-1.932,1.045-3.05,1.365l-1.092-1.067c0.304-1.152,0.737-2.188,1.292-3.083
						c0.445-0.716,1.007-1.196,1.657-1.751l0.336-0.288l-2.19-2.896l-0.382,0.254c-0.707,0.472-1.317,0.879-2.124,1.107
						c-0.95,0.271-1.981,0.409-3.065,0.409c-0.084,0-0.167-0.001-0.251-0.002l-0.73-1.343c0.604-0.976,1.343-1.86,2.145-2.563
						c0.628-0.55,1.3-0.84,2.078-1.176l0.428-0.186l-1.241-3.411l-0.432,0.128c-0.786,0.233-1.464,0.435-2.261,0.435L11.3,53.377
						c-1.063-0.022-2.198-0.225-3.29-0.589L7.707,51.29c0.873-0.759,1.841-1.387,2.807-1.818c0.768-0.341,1.499-0.421,2.347-0.514
						l0.448-0.049l-0.18-3.625l-0.445-0.005c-0.855-0.009-1.594-0.017-2.393-0.281c-1.006-0.335-2.029-0.864-2.968-1.533
						l0.153-1.521c1.063-0.472,2.171-0.786,3.215-0.911C10.886,41.01,11.073,41,11.257,41c0.61,0,1.175,0.108,1.829,0.234
						l0.444,0.084l0.896-3.516l-0.433-0.139c-0.811-0.259-1.511-0.483-2.192-0.971c-0.858-0.611-1.681-1.418-2.387-2.342
						l0.596-1.407c0.482-0.057,0.967-0.086,1.441-0.086c0.657,0,1.296,0.056,1.899,0.165c0.828,0.151,1.48,0.498,2.234,0.9
						l0.393,0.208l1.894-3.094l-0.373-0.261c-0.698-0.487-1.301-0.909-1.81-1.575c-0.649-0.852-1.197-1.866-1.588-2.939l0.981-1.17
						c1.131,0.206,2.225,0.572,3.17,1.061c0.745,0.384,1.265,0.908,1.866,1.514l0.318,0.319l2.723-2.398l-0.276-0.355
						c-0.525-0.673-0.979-1.253-1.27-2.042c-0.366-0.995-0.586-2.097-0.653-3.278l1.285-0.829c1.034,0.54,1.972,1.211,2.717,1.948
						c0.601,0.594,0.943,1.249,1.341,2.007l0.205,0.389l3.308-1.49c0,0-0.42-1.116-0.591-1.564
						c-0.356-1.146-0.302-2.665,0.165-4.506l1.471-0.413c0.825,0.815,1.522,1.733,2.023,2.662c0.398,0.739,0.532,1.463,0.687,2.302
						l0.083,0.442l3.603-0.449l-0.028-0.444c-0.056-0.853-0.103-1.59,0.101-2.407c0.265-1.042,0.716-2.103,1.309-3.076l1.527,0.04
						c0.544,1.013,0.94,2.096,1.149,3.14c0.163,0.822,0.076,1.555-0.023,2.403l-0.052,0.446l3.574,0.633l0.104-0.431
						c0.199-0.832,0.371-1.55,0.807-2.271c0.547-0.901,1.29-1.782,2.155-2.554l1.449,0.488c0.224,1.148,0.282,2.299,0.171,3.337
						c-0.088,0.842-0.389,1.522-0.737,2.31l-0.174,0.394l3.231,1.657l0.236-0.399c0.432-0.73,0.805-1.361,1.43-1.915
						c0.796-0.705,1.766-1.327,2.812-1.805l1.242,0.893c-0.2,1.911-0.674,3.359-1.408,4.307l-1.078,1.247l2.598,2.537l0.332-0.302
						c0.63-0.574,1.175-1.071,1.941-1.417c0.963-0.437,2.073-0.746,3.22-0.897l0.921,1.22c-0.446,1.05-1.045,2.034-1.738,2.854
						c-0.539,0.639-1.162,1.028-1.884,1.478l-0.389,0.243l1.731,3.188l0.414-0.193c0.771-0.361,1.437-0.673,2.268-0.779
						c0.423-0.055,0.866-0.082,1.315-0.082c0.66,0,1.341,0.059,2.025,0.174l0.521,1.438c-0.756,0.89-1.618,1.654-2.501,2.214
						c-0.716,0.453-1.431,0.643-2.26,0.862l-0.42,0.112l0.716,3.558l0.455-0.063c0.538-0.076,1.047-0.147,1.557-0.147
						c0.292,0,0.565,0.023,0.836,0.07c1.043,0.183,2.135,0.554,3.165,1.076l0.075,1.525c-0.977,0.623-2.026,1.099-3.044,1.379
						c-0.458,0.126-0.93,0.183-1.527,0.183c-0.281,0-0.567-0.011-0.864-0.023l-0.456-0.018l-0.366,3.611l0.43,0.069
						c0.849,0.136,1.582,0.253,2.335,0.636c0.943,0.479,1.854,1.138,2.706,1.959l-0.377,1.48c-1.03,0.281-2.057,0.424-3.052,0.424
						l-0.265-0.003c-0.831-0.021-1.519-0.265-2.313-0.547l-0.447-0.158l-1.412,3.343l0.425,0.211
						c0.757,0.374,1.41,0.697,2.004,1.277c0.765,0.746,1.458,1.667,2.013,2.67l-0.8,1.305c-1.164-0.037-2.299-0.235-3.291-0.577
						c-0.803-0.276-1.4-0.72-2.092-1.235l-0.34-0.252l-2.336,2.779l1.212,1.152c0.818,0.875,1.43,2.268,1.809,4.131l-1.147,1.01
						c-1.108-0.38-2.135-0.904-2.976-1.519c-0.687-0.505-1.128-1.105-1.638-1.8l-0.249-0.339l-3.051,1.967l0.223,0.396
						c0.419,0.742,0.78,1.382,0.948,2.203c0.213,1.033,0.267,2.184,0.157,3.339l-1.395,0.628c-0.932-0.68-1.758-1.484-2.396-2.332
						c-0.501-0.665-0.74-1.355-1.017-2.154l-0.155-0.444l-3.494,0.98l0.101,0.466c0.18,0.825,0.335,1.538,0.251,2.361
						c-0.107,1.073-0.396,2.19-0.834,3.238L41.716,77.057z M45.277,44.272l0.026,0.169c0.509,3.246-1.323,6.389-4.346,7.531
						l-0.162,0.061v14.046l0.28-0.034c0.981-0.12,1.884-0.292,2.76-0.525c4.43-1.179,8.255-3.738,11.063-7.401l0.146-0.189
						l-0.183-0.154c-0.958-0.807-1.2-2.179-0.574-3.262c0.459-0.795,1.315-1.289,2.236-1.289c0.289,0,0.574,0.048,0.848,0.144
						l0.226,0.078l0.089-0.221c1.679-4.182,1.958-8.677,0.808-13c-0.221-0.829-0.524-1.688-0.956-2.706l-0.11-0.26L45.277,44.272z
						 M21.309,53.221c0.923,0,1.781,0.495,2.241,1.293c0.346,0.597,0.437,1.292,0.258,1.959s-0.606,1.224-1.205,1.569l-0.27,0.141
						l0.065,0.293c3.33,4.145,8.271,6.903,13.558,7.567l0.281,0.035V52.017l-0.161-0.062c-2.315-0.885-3.986-2.942-4.36-5.368
						c-0.104-0.682-0.098-1.402,0.022-2.139l0.027-0.17l-12.153-7.017l-0.11,0.26c-1.814,4.281-2.146,8.895-0.962,13.343
						c0.225,0.843,0.526,1.704,0.95,2.71l0.119,0.284l0.254-0.175l0.156-0.115C20.412,53.341,20.858,53.221,21.309,53.221z
						 M38.512,38.664c1.563,0,3.104,0.554,4.337,1.56l0.134,0.109l12.158-7.019l-0.171-0.226c-3.247-4.278-7.93-7.1-13.186-7.945
						l-0.282-0.045l-0.008,0.285c-0.039,1.409-1.17,2.513-2.576,2.513c-1.424,0-2.583-1.159-2.583-2.584l0.04-0.318l-0.317,0.047
						c-1.101,0.133-2.01,0.301-2.862,0.527c-4.467,1.19-8.316,3.79-11.132,7.52l-0.171,0.226l12.149,7.015l0.134-0.11
						c0.95-0.779,2.089-1.289,3.293-1.475C37.814,38.691,38.165,38.664,38.512,38.664z"/>
					<path d="M38.776,14.736l1.235,0.032c0.497,0.955,0.861,1.967,1.057,2.942c0.155,0.784,0.07,1.499-0.026,2.326l-0.024,0.212
						l-0.055,0.468l0.464,0.082l3.11,0.551L45,21.431l0.111-0.457l0.049-0.203c0.194-0.812,0.362-1.513,0.777-2.2
						c0.512-0.843,1.199-1.668,2-2.401l1.172,0.395c0.197,1.076,0.246,2.149,0.142,3.122c-0.085,0.802-0.378,1.466-0.718,2.234
						L48.455,22.1l-0.19,0.431l0.419,0.215l2.813,1.442l0.418,0.214l0.24-0.404l0.117-0.198c0.42-0.712,0.783-1.327,1.379-1.854
						c0.744-0.659,1.646-1.245,2.619-1.705l1.005,0.723c-0.202,1.792-0.653,3.148-1.325,4.016l-0.932,1.079l-0.309,0.356
						l0.338,0.328l2.26,2.208l0.337,0.329l0.349-0.316l0.158-0.144c0.615-0.561,1.146-1.044,1.877-1.375
						c0.9-0.409,1.934-0.703,3.005-0.857l0.745,0.987c-0.43,0.978-0.994,1.892-1.643,2.658c-0.514,0.609-1.121,0.988-1.824,1.427
						l-0.19,0.118l-0.397,0.25l0.224,0.413l1.507,2.775l0.225,0.413l0.426-0.198l0.202-0.094c0.751-0.352,1.401-0.656,2.192-0.757
						c0.413-0.053,0.846-0.08,1.284-0.08c0.601,0,1.218,0.049,1.841,0.147l0.422,1.162c-0.718,0.824-1.525,1.532-2.351,2.055
						c-0.683,0.433-1.382,0.618-2.189,0.832l-0.194,0.052l-0.454,0.121l0.093,0.46l0.623,3.097l0.093,0.461l0.466-0.064l0.223-0.031
						c0.529-0.075,1.029-0.145,1.523-0.145c0.276,0,0.535,0.021,0.791,0.066c0.977,0.171,1.996,0.512,2.967,0.988l0.061,1.233
						c-0.921,0.572-1.902,1.01-2.854,1.272c-0.436,0.12-0.887,0.173-1.461,0.173c-0.278,0-0.561-0.011-0.854-0.023l-0.223-0.009
						l-0.47-0.018l-0.048,0.467l-0.318,3.144l-0.047,0.469l0.465,0.075l0.197,0.032c0.828,0.132,1.543,0.247,2.262,0.612
						c0.883,0.449,1.736,1.059,2.541,1.816l-0.305,1.196c-0.962,0.251-1.918,0.378-2.846,0.378c-0.086,0-0.172-0.001-0.259-0.003
						c-0.791-0.02-1.461-0.258-2.235-0.532l-0.227-0.08l-0.443-0.156l-0.184,0.433l-1.229,2.91l-0.184,0.433l0.421,0.209
						l0.216,0.107c0.737,0.364,1.375,0.68,1.939,1.232c0.715,0.698,1.367,1.552,1.898,2.485l-0.647,1.055
						c-1.089-0.047-2.146-0.238-3.073-0.558c-0.766-0.263-1.349-0.697-2.023-1.199l-0.151-0.112l-0.378-0.281l-0.303,0.36
						l-2.033,2.419l-0.303,0.361l0.342,0.324l0.596,0.566l0.424,0.402c0.776,0.829,1.357,2.133,1.728,3.878l-0.929,0.818
						c-1.032-0.368-1.986-0.862-2.771-1.436c-0.656-0.482-1.086-1.068-1.584-1.747l-0.111-0.15l-0.278-0.378l-0.396,0.255
						l-2.654,1.711l-0.396,0.255l0.229,0.41l0.108,0.192c0.408,0.724,0.761,1.348,0.921,2.131c0.199,0.966,0.256,2.039,0.166,3.121
						l-1.128,0.508c-0.864-0.646-1.63-1.401-2.227-2.194c-0.477-0.633-0.71-1.306-0.979-2.086l-0.078-0.223l-0.154-0.443
						l-0.453,0.127l-3.041,0.854l-0.453,0.127l0.1,0.459l0.051,0.237c0.176,0.804,0.326,1.499,0.246,2.284
						c-0.1,1.003-0.362,2.046-0.761,3.033l-1.226,0.153c-0.635-0.871-1.145-1.817-1.482-2.753c-0.27-0.745-0.293-1.457-0.322-2.282
						l-0.008-0.236L40,71.05l-0.47-0.012l-3.157-0.08l-0.47-0.012l-0.041,0.468l-0.021,0.239c-0.07,0.821-0.131,1.529-0.439,2.258
						c-0.391,0.93-0.949,1.849-1.62,2.674l-1.217-0.215c-0.36-1.055-0.563-2.084-0.603-3.067c-0.037-0.805,0.152-1.502,0.371-2.31
						l0.053-0.194l0.123-0.454l-0.445-0.15l-2.994-1.009l-0.445-0.15l-0.177,0.436l-0.085,0.207c-0.311,0.769-0.58,1.433-1.09,2.046
						c-0.637,0.765-1.441,1.479-2.336,2.076l-1.101-0.565c-0.033-1.089,0.079-2.159,0.327-3.109c0.202-0.779,0.59-1.39,1.037-2.096
						l0.108-0.17l0.251-0.398l-0.382-0.275l-2.564-1.847l-0.382-0.275l-0.297,0.364l-0.132,0.161
						c-0.527,0.647-0.983,1.207-1.657,1.646c-0.822,0.537-1.801,0.981-2.843,1.294l-0.883-0.863
						c0.295-1.071,0.706-2.037,1.225-2.874c0.425-0.684,0.974-1.152,1.608-1.694l0.157-0.135l0.357-0.307l-0.284-0.375l-1.906-2.521
						l-0.284-0.375l-0.392,0.26l-0.187,0.124c-0.689,0.46-1.285,0.857-2.054,1.075c-0.929,0.265-1.937,0.399-2.997,0.399
						c-0.034,0-0.067,0-0.101,0l-0.592-1.086c0.576-0.907,1.27-1.727,2.02-2.384c0.6-0.524,1.254-0.808,2.014-1.135l0.213-0.092
						l0.43-0.188l-0.16-0.442l-1.08-2.97l-0.16-0.442l-0.451,0.133l-0.207,0.062c-0.768,0.228-1.43,0.425-2.189,0.425l-0.096-0.001
						c-0.994-0.021-2.053-0.204-3.079-0.531l-0.244-1.212c0.825-0.701,1.731-1.28,2.634-1.684c0.732-0.326,1.445-0.404,2.272-0.494
						l0.214-0.023l0.468-0.052l-0.022-0.47l-0.156-3.155l-0.023-0.469l-0.471-0.006l-0.211-0.002
						c-0.834-0.008-1.555-0.016-2.314-0.268c-0.941-0.313-1.898-0.8-2.784-1.416l0.124-1.23c0.999-0.43,2.034-0.716,3.01-0.833
						c0.178-0.021,0.354-0.031,0.536-0.031c0.587,0,1.141,0.106,1.782,0.229l0.213,0.041l0.463,0.087l0.115-0.455l0.78-3.061
						l0.116-0.455l-0.447-0.144l-0.21-0.068c-0.79-0.253-1.474-0.471-2.124-0.936c-0.803-0.571-1.573-1.319-2.244-2.175l0.482-1.138
						c0.424-0.045,0.85-0.068,1.268-0.068c0.643,0,1.266,0.054,1.854,0.161c0.79,0.145,1.426,0.483,2.162,0.875l0.185,0.098
						l0.416,0.22l0.244-0.401l1.648-2.693l0.246-0.4l-0.385-0.27l-0.182-0.127c-0.68-0.476-1.268-0.886-1.753-1.521
						c-0.607-0.797-1.124-1.739-1.503-2.738l0.795-0.947c1.057,0.206,2.073,0.553,2.958,1.01c0.71,0.366,1.217,0.877,1.804,1.468
						l0.152,0.153l0.332,0.333l0.352-0.311l2.371-2.088l0.353-0.311l-0.289-0.372l-0.132-0.169
						c-0.514-0.656-0.955-1.223-1.232-1.975c-0.338-0.917-0.553-1.97-0.629-3.061l1.039-0.67c0.962,0.517,1.832,1.147,2.528,1.836
						c0.573,0.567,0.907,1.206,1.296,1.945l0.095,0.181l0.22,0.416l0.428-0.193l2.88-1.297l0.427-0.192l-0.163-0.438
						c-0.167-0.449-0.338-0.897-0.499-1.317c-0.338-1.086-0.295-2.513,0.129-4.245l1.189-0.334c0.763,0.772,1.408,1.631,1.877,2.5
						c0.379,0.704,0.51,1.411,0.66,2.229l0.039,0.211l0.087,0.462l0.468-0.058l3.135-0.391l0.467-0.058l-0.029-0.469l-0.014-0.21
						c-0.054-0.833-0.1-1.551,0.094-2.328C37.817,16.646,38.232,15.654,38.776,14.736 M34.067,40.631l0.267-0.219
						c0.916-0.751,2.014-1.242,3.173-1.421c0.333-0.051,0.671-0.077,1.005-0.077c1.506,0,2.99,0.534,4.18,1.503l0.267,0.218
						l0.299-0.172l11.764-6.791l0.491-0.284l-0.343-0.452c-3.286-4.33-8.025-7.185-13.345-8.041l-0.564-0.091l-0.016,0.571
						c-0.035,1.273-1.057,2.27-2.326,2.27c-1.276,0-2.316-1.031-2.333-2.304l0.079-0.626l-0.637,0.077
						c-1.112,0.135-2.033,0.305-2.896,0.534c-4.521,1.205-8.418,3.836-11.268,7.611l-0.34,0.452l0.489,0.283l11.755,6.787
						L34.067,40.631 M40.546,66.361l0.561-0.069c0.993-0.121,1.907-0.295,2.794-0.531c4.483-1.193,8.355-3.784,11.197-7.491
						l0.289-0.379l-0.364-0.308c-0.866-0.729-1.084-1.968-0.519-2.946c0.414-0.718,1.188-1.164,2.02-1.164
						c0.262,0,0.519,0.043,0.766,0.129l0.45,0.157l0.178-0.442c1.699-4.232,1.981-8.782,0.817-13.158
						c-0.223-0.84-0.531-1.71-0.967-2.739l-0.221-0.52l-0.49,0.282L45.301,43.97l-0.297,0.171l0.053,0.338
						c0.004,0.022,0.008,0.045,0.012,0.057c0.479,3.072-1.287,6.101-4.199,7.202l-0.323,0.122v0.346v13.591V66.361 M19.499,54.238
						l0.507-0.35c0.029-0.021,0.059-0.043,0.088-0.066c0.017-0.013,0.032-0.027,0.051-0.038c0.355-0.205,0.758-0.313,1.164-0.313
						c0.834,0,1.609,0.447,2.025,1.168c0.311,0.539,0.394,1.167,0.232,1.77c-0.162,0.602-0.549,1.105-1.1,1.42
						c-0.035,0.015-0.07,0.029-0.104,0.047l-0.54,0.282l0.382,0.475c3.37,4.195,8.37,6.987,13.721,7.659l0.563,0.071v-0.567V52.189
						v-0.344l-0.321-0.123c-2.232-0.854-3.844-2.835-4.203-5.173c-0.101-0.656-0.094-1.35,0.021-2.061l0.056-0.34l-0.299-0.173
						l-11.759-6.789l-0.49-0.283l-0.221,0.521c-1.836,4.332-2.172,9.002-0.973,13.504c0.227,0.854,0.533,1.726,0.961,2.743
						L19.499,54.238 M38.5,14.229c-0.627,1.001-1.124,2.124-1.414,3.269c-0.23,0.923-0.154,1.742-0.095,2.692l-3.136,0.391
						c-0.175-0.936-0.301-1.749-0.752-2.586c-0.561-1.041-1.32-2.001-2.172-2.823l-1.748,0.491
						c-0.389,1.479-0.658,3.302-0.192,4.797c0.171,0.448,0.341,0.896,0.508,1.344l-2.88,1.297c-0.444-0.844-0.805-1.579-1.481-2.249
						c-0.841-0.831-1.854-1.524-2.907-2.059l-1.527,0.986c0.055,1.18,0.267,2.385,0.676,3.496c0.328,0.893,0.854,1.526,1.438,2.278
						l-2.37,2.088c-0.671-0.673-1.236-1.276-2.08-1.712c-1.051-0.543-2.218-0.911-3.384-1.109l-1.167,1.391
						c0.391,1.113,0.959,2.204,1.674,3.142c0.577,0.756,1.266,1.207,2.045,1.754l-1.648,2.693c-0.842-0.446-1.556-0.853-2.491-1.023
						c-0.636-0.115-1.29-0.169-1.944-0.169c-0.543,0-1.085,0.037-1.615,0.106l-0.708,1.673c0.706,0.946,1.564,1.824,2.527,2.51
						c0.774,0.553,1.565,0.78,2.471,1.072l-0.78,3.061c-0.735-0.14-1.387-0.279-2.089-0.279c-0.193,0-0.391,0.011-0.595,0.035
						c-1.174,0.14-2.348,0.499-3.42,0.99l-0.182,1.808c0.951,0.696,2.033,1.28,3.152,1.652c0.902,0.299,1.727,0.284,2.678,0.296
						l0.156,3.155c-0.947,0.105-1.766,0.171-2.635,0.558c-1.08,0.482-2.096,1.168-2.979,1.954l0.359,1.781
						c1.114,0.386,2.321,0.624,3.501,0.648c0.036,0.001,0.071,0.001,0.106,0.001c0.904,0,1.659-0.248,2.538-0.507l1.08,2.97
						c-0.873,0.38-1.639,0.683-2.355,1.31c-0.888,0.778-1.659,1.732-2.268,2.744l0.868,1.597c0.133,0.004,0.268,0.006,0.401,0.006
						c1.053,0,2.126-0.131,3.134-0.418c0.916-0.26,1.587-0.737,2.38-1.264l1.907,2.521c-0.725,0.621-1.362,1.136-1.865,1.944
						c-0.623,1.006-1.068,2.146-1.357,3.292l1.299,1.27c1.139-0.313,2.27-0.791,3.258-1.436c0.798-0.521,1.299-1.172,1.902-1.91
						l2.564,1.847C24.377,68.4,23.919,69.081,23.68,70c-0.299,1.145-0.394,2.367-0.33,3.547l1.617,0.83
						c0.996-0.631,1.935-1.426,2.69-2.333c0.608-0.731,0.894-1.501,1.254-2.385l2.993,1.009c-0.248,0.92-0.484,1.706-0.441,2.656
						c0.049,1.183,0.323,2.377,0.729,3.486l1.789,0.316c0.77-0.899,1.424-1.933,1.883-3.022c0.371-0.875,0.414-1.702,0.497-2.647
						l3.157,0.08c0.035,0.95,0.037,1.776,0.359,2.67c0.402,1.113,1.007,2.175,1.727,3.115l1.802-0.225
						c0.47-1.086,0.791-2.267,0.909-3.443c0.096-0.944-0.107-1.748-0.307-2.676l3.042-0.854c0.313,0.897,0.559,1.686,1.13,2.444
						c0.711,0.945,1.604,1.783,2.566,2.469l1.658-0.747c0.125-1.174,0.092-2.4-0.146-3.558c-0.191-0.932-0.617-1.637-1.083-2.467
						l2.655-1.712c0.566,0.77,1.033,1.439,1.802,2.004c0.952,0.696,2.062,1.23,3.18,1.601l1.364-1.201
						c-0.292-1.5-0.842-3.263-1.91-4.404c-0.348-0.33-0.693-0.661-1.041-0.99l2.033-2.419c0.765,0.567,1.411,1.074,2.311,1.383
						c1.117,0.385,2.332,0.57,3.51,0.594l0.951-1.551c-0.561-1.043-1.279-2.029-2.127-2.856c-0.68-0.664-1.433-1.006-2.282-1.429
						l1.229-2.91c0.895,0.314,1.664,0.616,2.615,0.641c0.09,0.002,0.181,0.003,0.271,0.003c1.096,0,2.208-0.173,3.258-0.472
						l0.449-1.761c-0.843-0.828-1.816-1.567-2.871-2.104c-0.848-0.431-1.664-0.539-2.605-0.691l0.318-3.144
						c0.381,0.015,0.742,0.032,1.096,0.032c0.529,0,1.044-0.04,1.594-0.191c1.137-0.313,2.244-0.841,3.234-1.488l-0.09-1.813
						c-1.049-0.546-2.201-0.961-3.364-1.165c-0.303-0.053-0.593-0.074-0.878-0.074c-0.599,0-1.178,0.092-1.814,0.18l-0.623-3.097
						c0.922-0.246,1.718-0.435,2.522-0.944c0.997-0.633,1.898-1.468,2.651-2.375l-0.62-1.709C67.271,34.073,66.525,34,65.782,34
						c-0.452,0-0.903,0.027-1.348,0.084c-0.943,0.121-1.678,0.492-2.542,0.895l-1.507-2.775c0.806-0.505,1.519-0.92,2.132-1.646
						c0.762-0.901,1.385-1.96,1.833-3.051l-1.095-1.45c-1.174,0.141-2.357,0.446-3.436,0.936c-0.867,0.393-1.46,0.965-2.164,1.604
						l-2.261-2.208l0.933-1.079c0.96-1.238,1.327-3.057,1.474-4.579l-1.476-1.062c-1.08,0.479-2.121,1.121-3.007,1.905
						c-0.712,0.63-1.109,1.354-1.595,2.171l-2.813-1.442c0.385-0.874,0.736-1.616,0.836-2.562c0.126-1.175,0.035-2.399-0.203-3.555
						l-1.723-0.58c-0.89,0.775-1.699,1.696-2.313,2.708c-0.491,0.813-0.66,1.615-0.885,2.544l-3.111-0.551
						c0.109-0.945,0.229-1.762,0.045-2.693c-0.232-1.16-0.673-2.302-1.244-3.337L38.5,14.229L38.5,14.229z M34.018,40.025
						l-11.755-6.787c2.649-3.51,6.419-6.209,10.997-7.429c0.942-0.251,1.887-0.407,2.828-0.521
						c-0.001,0.008-0.003,0.015-0.003,0.023c0,1.564,1.269,2.834,2.833,2.834c1.539,0,2.784-1.229,2.826-2.756
						c5.178,0.833,9.85,3.663,13.026,7.849L43.007,40.03c-1.243-1.014-2.816-1.616-4.495-1.616c-0.356,0-0.717,0.027-1.081,0.083
						C36.127,38.698,34.968,39.246,34.018,40.025L34.018,40.025z M41.046,65.796V52.206c3.086-1.166,5.046-4.353,4.517-7.747
						c-0.003-0.019-0.009-0.037-0.012-0.056l11.756-6.787c0.365,0.861,0.697,1.743,0.945,2.673
						c1.178,4.428,0.786,8.894-0.799,12.842c-0.305-0.106-0.619-0.157-0.93-0.157c-0.979,0-1.929,0.506-2.453,1.414
						c-0.697,1.207-0.4,2.71,0.63,3.578c-2.647,3.454-6.397,6.105-10.929,7.312C42.863,65.52,41.953,65.686,41.046,65.796
						L41.046,65.796z M19.721,53.477c-0.363-0.862-0.691-1.747-0.939-2.677c-1.214-4.558-0.757-9.151,0.951-13.181l11.759,6.789
						c-0.116,0.717-0.139,1.46-0.022,2.217c0.404,2.625,2.202,4.678,4.519,5.563v13.606c-5.261-0.661-10.081-3.352-13.394-7.476
						c0.044-0.023,0.09-0.036,0.134-0.061c1.356-0.783,1.821-2.516,1.039-3.87c-0.524-0.91-1.478-1.418-2.458-1.418
						c-0.48,0-0.969,0.123-1.414,0.38C19.831,53.388,19.779,53.437,19.721,53.477L19.721,53.477z"/>
				</g>
				<circle fill="#B7B053" stroke="#000000" stroke-width="0.5" stroke-miterlimit="10" cx="38.918" cy="25.312" r="1.133"/>
				<circle fill="#B7B053" stroke="#000000" stroke-width="0.5" stroke-miterlimit="10" cx="56.524" cy="55.805" r="1.133"/>
				<circle fill="#B7B053" stroke="#000000" stroke-width="0.5" stroke-miterlimit="10" cx="21.312" cy="55.805" r="1.133"/>
			</g>
			<g>
				<path fill="#B7B053" d="M38.512,50.294c-2.319,0-4.336-1.733-4.689-4.03c-0.397-2.586,1.384-5.014,3.971-5.414
					c0.245-0.038,0.49-0.056,0.731-0.056c2.358,0,4.328,1.693,4.685,4.026c0.195,1.252-0.108,2.504-0.855,3.525
					c-0.75,1.026-1.857,1.698-3.117,1.893C38.993,50.276,38.751,50.294,38.512,50.294z"/>
				<path d="M38.524,41.044L38.524,41.044c2.198,0,4.105,1.64,4.438,3.816c0.185,1.185-0.103,2.371-0.81,3.338
					c-0.711,0.972-1.76,1.609-2.954,1.793c-0.228,0.035-0.458,0.053-0.687,0.053c-2.197,0-4.107-1.642-4.442-3.818
					c-0.376-2.45,1.312-4.75,3.762-5.128C38.061,41.063,38.294,41.044,38.524,41.044 M38.523,40.544c-0.253,0-0.51,0.02-0.769,0.059
					c-2.728,0.421-4.599,2.972-4.18,5.699c0.38,2.47,2.513,4.242,4.937,4.242c0.252,0,0.506-0.019,0.763-0.059
					c2.731-0.421,4.608-2.969,4.182-5.703C43.078,42.311,40.951,40.544,38.523,40.544L38.523,40.544z"/>
			</g>
		</g>
	</g>
</g>
<g id="screenshots">
</g>
<g id="fondo_negro">
</g>
<g id="imagenes">
</g>
<g id="texto">
</g>
<g id="bienvenido">
</g>
<g id="landpage">
	<defs>
		<rect id="ventana" x="-3003.586" y="-173.691" width="1024.5" height="487.98"/>
	</defs>
	<clipPath id="ventana_1_">
		<use xlink:href="#ventana"  overflow="visible"/>
	</clipPath>
</g>
<g id="titulo">
</g>
<g id="bocetos">
</g>
<g id="notas">
</g>
</svg>
