<?xml version="1.0" encoding="utf-8"?>
<!-- Generator: Adobe Illustrator 16.0.0, SVG Export Plug-In . SVG Version: 6.00 Build 0)  -->
<!DOCTYPE svg PUBLIC "-//W3C//DTD SVG 1.1//EN" "http://www.w3.org/Graphics/SVG/1.1/DTD/svg11.dtd">
<svg version="1.1" xmlns="http://www.w3.org/2000/svg" xmlns:xlink="http://www.w3.org/1999/xlink" x="0px" y="0px" width="76px"
	 height="76px" viewBox="0 0 76 76" enable-background="new 0 0 76 76" xml:space="preserve">
<g id="exportaciones">
	<g id="gear_4_7_">
		<g>
			<path fill="#B7B053" stroke="#000000" stroke-width="0.5" stroke-miterlimit="10" d="M41.684,57.349
				c1.104,0,2.179,0.407,3.012,1.156c1.037,0.934,2.365,1.449,3.74,1.449h0.001c1.149,0,2.25-0.357,3.183-1.033
				c1.265-0.919,2.073-2.365,2.215-3.963c0.063-0.712-0.008-1.417-0.21-2.093c-0.39-1.301-0.171-2.708,0.595-3.829
				c1.626-2.38,2.686-5.027,3.149-7.867c0.219-1.337,1.029-2.505,2.205-3.179c0.705-0.404,1.307-0.957,1.788-1.645
				c0.985-1.405,1.266-3.136,0.77-4.748c-0.079-0.245-0.137-0.399-0.199-0.543c-0.849-1.967-2.787-3.263-4.943-3.311
				c-1.357-0.03-2.629-0.672-3.46-1.747c-1.767-2.286-3.965-4.115-6.533-5.436c-1.208-0.621-2.07-1.755-2.347-3.084
				c-0.158-0.761-0.476-1.475-0.942-2.123c-0.979-1.356-2.482-2.186-4.125-2.275c-1.664-0.08-3.294,0.605-4.41,1.88
				c-0.468,0.536-0.825,1.148-1.061,1.818c-0.449,1.28-1.452,2.289-2.729,2.746c-2.708,0.97-5.123,2.496-7.177,4.536
				c-0.966,0.958-2.314,1.427-3.667,1.279c-0.201-0.022-0.404-0.034-0.608-0.034c-2.304,0-4.323,1.367-5.144,3.482
				c-0.586,1.514-0.459,3.211,0.351,4.657c0.379,0.678,0.878,1.255,1.483,1.717c1.078,0.822,1.728,2.087,1.769,3.443
				c0.086,2.878,0.785,5.64,2.078,8.208c0.609,1.211,0.641,2.632,0.085,3.869c-0.317,0.706-0.481,1.465-0.486,2.256
				c-0.012,1.676,0.708,3.234,1.974,4.276c1.85,1.521,4.673,1.601,6.631,0.241c1.116-0.775,2.524-1.003,3.827-0.625
				c2.775,0.81,5.71,0.999,8.507,0.574C41.23,57.366,41.458,57.349,41.684,57.349z"/>
			<g>
				<g>
					
						<line fill="none" stroke="#000000" stroke-width="0.5" stroke-miterlimit="10" x1="38.82" y1="25.065" x2="38.885" y2="24.043"/>
					
						<line fill="none" stroke="#000000" stroke-width="0.5" stroke-miterlimit="10" x1="36.112" y1="25.178" x2="35.758" y2="22.77"/>
					
						<line fill="none" stroke="#000000" stroke-width="0.5" stroke-miterlimit="10" x1="33.487" y1="25.851" x2="32.061" y2="22.007"/>
					
						<line fill="none" stroke="#000000" stroke-width="0.5" stroke-miterlimit="10" x1="31.061" y1="27.056" x2="28.861" y2="23.585"/>
					
						<line fill="none" stroke="#000000" stroke-width="0.5" stroke-miterlimit="10" x1="28.936" y1="28.738" x2="26.063" y2="25.8"/>
					
						<line fill="none" stroke="#000000" stroke-width="0.5" stroke-miterlimit="10" x1="27.207" y1="30.826" x2="25.255" y2="29.527"/>
					
						<line fill="none" stroke="#000000" stroke-width="0.5" stroke-miterlimit="10" x1="25.951" y1="33.224" x2="24.999" y2="32.847"/>
					
						<line fill="none" stroke="#000000" stroke-width="0.5" stroke-miterlimit="10" x1="25.222" y1="35.834" x2="22.822" y2="35.427"/>
					
						<line fill="none" stroke="#000000" stroke-width="0.5" stroke-miterlimit="10" x1="25.051" y1="38.538" x2="20.954" y2="38.708"/>
					
						<line fill="none" stroke="#000000" stroke-width="0.5" stroke-miterlimit="10" x1="25.447" y1="41.219" x2="21.467" y2="42.238"/>
					
						<line fill="none" stroke="#000000" stroke-width="0.5" stroke-miterlimit="10" x1="26.391" y1="43.76" x2="22.709" y2="45.584"/>
					
						<line fill="none" stroke="#000000" stroke-width="0.5" stroke-miterlimit="10" x1="27.842" y1="46.049" x2="26.004" y2="47.504"/>
					
						<line fill="none" stroke="#000000" stroke-width="0.5" stroke-miterlimit="10" x1="29.734" y1="47.984" x2="29.082" y2="48.772"/>
					
						<line fill="none" stroke="#000000" stroke-width="0.5" stroke-miterlimit="10" x1="31.991" y1="49.484" x2="30.862" y2="51.64"/>
					
						<line fill="none" stroke="#000000" stroke-width="0.5" stroke-miterlimit="10" x1="34.51" y1="50.482" x2="33.405" y2="54.431"/>
					
						<line fill="none" stroke="#000000" stroke-width="0.5" stroke-miterlimit="10" x1="37.183" y1="50.933" x2="36.922" y2="55.034"/>
					
						<line fill="none" stroke="#000000" stroke-width="0.5" stroke-miterlimit="10" x1="39.891" y1="50.821" x2="40.488" y2="54.887"/>
					
						<line fill="none" stroke="#000000" stroke-width="0.5" stroke-miterlimit="10" x1="42.516" y1="50.148" x2="43.332" y2="52.346"/>
					
						<line fill="none" stroke="#000000" stroke-width="0.5" stroke-miterlimit="10" x1="44.941" y1="48.946" x2="45.49" y2="49.811"/>
					
						<line fill="none" stroke="#000000" stroke-width="0.5" stroke-miterlimit="10" x1="47.065" y1="47.264" x2="48.767" y2="49.003"/>
					
						<line fill="none" stroke="#000000" stroke-width="0.5" stroke-miterlimit="10" x1="48.793" y1="45.177" x2="52.207" y2="47.447"/>
					
						<line fill="none" stroke="#000000" stroke-width="0.5" stroke-miterlimit="10" x1="50.047" y1="42.773" x2="53.867" y2="44.289"/>
					
						<line fill="none" stroke="#000000" stroke-width="0.5" stroke-miterlimit="10" x1="50.777" y1="40.164" x2="54.829" y2="40.852"/>
					
						<line fill="none" stroke="#000000" stroke-width="0.5" stroke-miterlimit="10" x1="50.949" y1="37.459" x2="53.291" y2="37.362"/>
					
						<line fill="none" stroke="#000000" stroke-width="0.5" stroke-miterlimit="10" x1="50.555" y1="34.781" x2="51.547" y2="34.526"/>
					
						<line fill="none" stroke="#000000" stroke-width="0.5" stroke-miterlimit="10" x1="49.611" y1="32.241" x2="51.792" y2="31.16"/>
					
						<line fill="none" stroke="#000000" stroke-width="0.5" stroke-miterlimit="10" x1="48.16" y1="29.953" x2="51.375" y2="27.407"/>
					
						<line fill="none" stroke="#000000" stroke-width="0.5" stroke-miterlimit="10" x1="46.262" y1="28.018" x2="48.884" y2="24.853"/>
					
						<line fill="none" stroke="#000000" stroke-width="0.5" stroke-miterlimit="10" x1="44.006" y1="26.517" x2="45.912" y2="22.876"/>
					
						<line fill="none" stroke="#000000" stroke-width="0.5" stroke-miterlimit="10" x1="41.487" y1="25.518" x2="42.118" y2="23.261"/>
				</g>
				<g>
					
						<line fill="none" stroke="#000000" stroke-width="0.5" stroke-miterlimit="10" x1="37.464" y1="25.051" x2="37.409" y2="23.726"/>
					
						<line fill="none" stroke="#000000" stroke-width="0.5" stroke-miterlimit="10" x1="34.782" y1="25.446" x2="33.766" y2="21.473"/>
					
						<line fill="none" stroke="#000000" stroke-width="0.5" stroke-miterlimit="10" x1="32.242" y1="26.39" x2="30.421" y2="22.715"/>
					
						<line fill="none" stroke="#000000" stroke-width="0.5" stroke-miterlimit="10" x1="29.954" y1="27.841" x2="27.404" y2="24.619"/>
					
						<line fill="none" stroke="#000000" stroke-width="0.5" stroke-miterlimit="10" x1="28.017" y1="29.737" x2="24.846" y2="27.11"/>
					
						<line fill="none" stroke="#000000" stroke-width="0.5" stroke-miterlimit="10" x1="26.517" y1="31.994" x2="25.367" y2="31.392"/>
					
						<line fill="none" stroke="#000000" stroke-width="0.5" stroke-miterlimit="10" x1="25.519" y1="34.509" x2="24.242" y2="34.152"/>
					
						<line fill="none" stroke="#000000" stroke-width="0.5" stroke-miterlimit="10" x1="25.066" y1="37.182" x2="20.974" y2="36.921"/>
					
						<line fill="none" stroke="#000000" stroke-width="0.5" stroke-miterlimit="10" x1="25.179" y1="39.889" x2="21.121" y2="40.486"/>
					<line fill="none" stroke="#000000" stroke-width="0.5" stroke-miterlimit="10" x1="25.852" y1="42.514" x2="22" y2="43.943"/>
					
						<line fill="none" stroke="#000000" stroke-width="0.5" stroke-miterlimit="10" x1="27.056" y1="44.942" x2="23.578" y2="47.146"/>
					
						<line fill="none" stroke="#000000" stroke-width="0.5" stroke-miterlimit="10" x1="28.739" y1="47.066" x2="27.813" y2="47.973"/>
					
						<line fill="none" stroke="#000000" stroke-width="0.5" stroke-miterlimit="10" x1="30.823" y1="48.793" x2="30.089" y2="49.896"/>
					
						<line fill="none" stroke="#000000" stroke-width="0.5" stroke-miterlimit="10" x1="33.225" y1="50.048" x2="31.713" y2="53.86"/>
					
						<line fill="none" stroke="#000000" stroke-width="0.5" stroke-miterlimit="10" x1="35.834" y1="50.777" x2="35.148" y2="54.821"/>
					
						<line fill="none" stroke="#000000" stroke-width="0.5" stroke-miterlimit="10" x1="38.539" y1="50.949" x2="38.709" y2="55.054"/>
					
						<line fill="none" stroke="#000000" stroke-width="0.5" stroke-miterlimit="10" x1="41.221" y1="50.555" x2="42.242" y2="54.543"/>
					
						<line fill="none" stroke="#000000" stroke-width="0.5" stroke-miterlimit="10" x1="43.762" y1="49.609" x2="44.337" y2="50.771"/>
					
						<line fill="none" stroke="#000000" stroke-width="0.5" stroke-miterlimit="10" x1="46.047" y1="48.161" x2="46.869" y2="49.2"/>
					
						<line fill="none" stroke="#000000" stroke-width="0.5" stroke-miterlimit="10" x1="47.982" y1="46.265" x2="51.142" y2="48.88"/>
					
						<line fill="none" stroke="#000000" stroke-width="0.5" stroke-miterlimit="10" x1="49.482" y1="44.008" x2="53.117" y2="45.91"/>
					
						<line fill="none" stroke="#000000" stroke-width="0.5" stroke-miterlimit="10" x1="50.482" y1="41.488" x2="54.438" y2="42.595"/>
					
						<line fill="none" stroke="#000000" stroke-width="0.5" stroke-miterlimit="10" x1="50.936" y1="38.816" x2="55.044" y2="39.077"/>
					
						<line fill="none" stroke="#000000" stroke-width="0.5" stroke-miterlimit="10" x1="50.821" y1="36.108" x2="52.104" y2="35.919"/>
					
						<line fill="none" stroke="#000000" stroke-width="0.5" stroke-miterlimit="10" x1="50.149" y1="33.487" x2="51.393" y2="33.026"/>
					
						<line fill="none" stroke="#000000" stroke-width="0.5" stroke-miterlimit="10" x1="48.944" y1="31.061" x2="52.408" y2="28.863"/>
					
						<line fill="none" stroke="#000000" stroke-width="0.5" stroke-miterlimit="10" x1="47.262" y1="28.937" x2="50.194" y2="26.067"/>
					
						<line fill="none" stroke="#000000" stroke-width="0.5" stroke-miterlimit="10" x1="45.174" y1="27.207" x2="47.449" y2="23.787"/>
					
						<line fill="none" stroke="#000000" stroke-width="0.5" stroke-miterlimit="10" x1="42.773" y1="25.95" x2="44.29" y2="22.123"/>
					
						<line fill="none" stroke="#000000" stroke-width="0.5" stroke-miterlimit="10" x1="40.162" y1="25.222" x2="40.379" y2="23.944"/>
				</g>
			</g>
			<path fill="none" stroke="#000000" stroke-width="0.5" stroke-miterlimit="10" d="M55.054,38.389
				c-1.589-0.553-2.869-1.81-3.41-3.474c-0.453-1.396-0.336-2.886,0.332-4.196c0.227-0.446,0.514-0.848,0.841-1.208
				c-2.019-3.516-5.264-6.251-9.188-7.62c-1.016,1.333-2.6,2.177-4.348,2.177c-2.039,0-3.813-1.121-4.764-2.773
				c-4.07,0.846-7.645,3.14-10.104,6.366c0.957,1.378,1.271,3.147,0.73,4.813c-0.619,1.906-2.198,3.28-4.101,3.678
				c-0.026,0.243-0.068,0.48-0.085,0.726c-0.266,4.01,0.887,7.782,3.013,10.847c0.513-0.155,1.045-0.251,1.587-0.251
				c1.161,0,2.272,0.361,3.212,1.044c1.188,0.862,1.969,2.137,2.199,3.589c0.077,0.49,0.082,0.979,0.03,1.458
				c1.809,0.813,3.779,1.342,5.874,1.479c2.102,0.138,4.132-0.128,6.037-0.701c0.038-1.675,0.822-3.289,2.238-4.317
				c0.944-0.687,2.061-1.05,3.229-1.05c0.79,0,1.558,0.179,2.261,0.496c2.506-2.756,4.141-6.34,4.404-10.344
				C55.059,38.879,55.048,38.635,55.054,38.389z"/>
			<circle fill="none" stroke="#000000" stroke-width="0.5" stroke-miterlimit="10" cx="37.999" cy="38.001" r="6.298"/>
			<path fill="none" stroke="#000000" stroke-width="0.5" stroke-miterlimit="10" d="M50.933,38.856
				c-0.468,7.139-6.643,12.55-13.79,12.079c-7.145-0.47-12.549-6.648-12.079-13.787c0.475-7.146,6.645-12.554,13.788-12.083
				C45.996,25.538,51.405,31.709,50.933,38.856z"/>
			<path fill="none" stroke="#000000" stroke-width="0.5" stroke-miterlimit="10" d="M49.455,38.759
				c-0.414,6.323-5.884,11.116-12.215,10.699c-6.329-0.417-11.116-5.889-10.7-12.212c0.421-6.33,5.887-11.12,12.214-10.703
				C45.083,26.961,49.874,32.428,49.455,38.759z"/>
			<g>
				
					<line fill="none" stroke="#000000" stroke-width="0.5" stroke-miterlimit="10" x1="37.325" y1="48.295" x2="37.44" y2="46.477"/>
				
					<line fill="none" stroke="#000000" stroke-width="0.5" stroke-miterlimit="10" x1="47.479" y1="41.868" x2="45.772" y2="41.19"/>
				
					<line fill="none" stroke="#000000" stroke-width="0.5" stroke-miterlimit="10" x1="44.485" y1="30.233" x2="43.323" y2="31.636"/>
				
					<line fill="none" stroke="#000000" stroke-width="0.5" stroke-miterlimit="10" x1="32.509" y1="29.477" x2="33.48" y2="31.011"/>
				
					<line fill="none" stroke="#000000" stroke-width="0.5" stroke-miterlimit="10" x1="28.074" y1="40.634" x2="29.843" y2="40.18"/>
				<path fill="none" stroke="#000000" stroke-width="0.5" stroke-miterlimit="10" d="M46.353,38.652
					c-0.305,4.624-4.303,8.128-8.933,7.824c-4.628-0.305-8.128-4.307-7.823-8.93c0.307-4.628,4.304-8.131,8.93-7.826
					C43.154,30.026,46.658,34.023,46.353,38.652z"/>
			</g>
		</g>
		<g>
			<path fill="#B7B053" stroke="#000000" stroke-width="0.5" stroke-miterlimit="10" d="M67.813,39.968
				c0.396,0.025,0.791,0.051,1.188,0.077c1.643,0.011,3.339-0.779,4.741-1.547l0.055-0.129l-0.021-1.674l-0.059-0.128
				c-1.429-0.728-3.132-1.476-4.78-1.423c-0.394,0.037-0.789,0.073-1.184,0.109l-0.445-3.068c2.144-0.426,3.754-1.423,5.345-2.953
				l0.021-0.141l-0.455-1.611l-0.089-0.107c-1.56-0.342-3.418-0.617-4.987-0.138c-0.371,0.138-0.743,0.274-1.115,0.412l-1.226-2.849
				c1.971-0.969,3.241-2.35,4.399-4.236l-0.017-0.14l-0.855-1.439l-0.115-0.082c-2.205,0.103-4.036,0.581-5.822,1.844l-1.918-2.435
				c0.297-0.262,0.594-0.523,0.894-0.784c1.164-1.157,1.813-2.909,2.259-4.447l-0.056-0.13l-1.198-1.168l-0.132-0.049
				c-1.524,0.486-3.262,1.177-4.385,2.374c-0.252,0.306-0.508,0.611-0.76,0.915l-2.485-1.854l0.656-0.98l0.004-0.009
				c0.009-0.012,0.016-0.024,0.023-0.036c0.017-0.033,0.036-0.066,0.055-0.098c0.73-1.44,0.914-3.158,0.953-4.746l-0.083-0.113
				l-1.464-0.819L54.616,6.35c-1.28,0.825-2.55,1.818-3.418,3.09c-0.074,0.109-0.143,0.222-0.205,0.338
				c-0.164,0.362-0.332,0.721-0.496,1.082l-2.883-1.149l0.381-1.116L48,8.584l0.004-0.018l0.008-0.023
				c0.003-0.022,0.009-0.045,0.017-0.066c0.363-1.584,0.071-3.321-0.298-4.872l-0.11-0.087l-1.624-0.412l-0.14,0.024
				c-1.03,1.148-2.025,2.453-2.524,3.935c-0.033,0.102-0.062,0.207-0.085,0.313l-0.002,0.012l-0.2,1.161l-3.078-0.363
				c0.025-0.396,0.053-0.792,0.078-1.188L40.044,6.98l0.003-0.025V6.926c-0.054-1.635-0.777-3.26-1.55-4.668l-0.13-0.056
				l-1.673,0.022l-0.129,0.06c-0.729,1.43-1.474,3.132-1.423,4.779c0.039,0.395,0.071,0.789,0.108,1.184l-3.069,0.446l-0.227-1.156
				l-0.004-0.011c-0.414-1.588-1.617-3.026-2.723-4.179l-0.141-0.021l-1.61,0.456l-0.108,0.089c-0.32,1.444-0.482,2.973-0.262,4.444
				c0.016,0.074,0.029,0.149,0.041,0.226c0.023,0.092,0.045,0.184,0.07,0.275l0.01,0.024c0.002,0.01,0.004,0.019,0.007,0.027
				l0.408,1.106l-2.848,1.224c-0.966-1.962-2.347-3.254-4.237-4.399L20.42,6.813L18.98,7.669l-0.081,0.116
				c0.069,1.586,0.285,3.469,1.157,4.85l0.006,0.01l0.681,0.962l-2.435,1.919c-0.262-0.299-0.523-0.597-0.783-0.895
				c-1.155-1.169-2.913-1.812-4.447-2.257l-0.131,0.052l-1.17,1.198l-0.049,0.133c0.68,2.104,1.604,3.747,3.289,5.146l-1.854,2.484
				l-0.98-0.654l-0.01-0.007c-1.422-0.829-3.275-0.994-4.879-1.03l-0.113,0.084l-0.816,1.462l-0.014,0.141
				c1.195,1.857,2.52,3.203,4.508,4.12L9.71,28.383c-0.382-0.129-0.762-0.26-1.142-0.388c-1.588-0.419-3.409-0.107-4.965,0.274
				l-0.088,0.11l-0.41,1.623l0.023,0.139c1.189,1.072,2.634,2.221,4.23,2.608c0.397,0.07,0.793,0.136,1.189,0.204l-0.362,3.081
				c-2.186-0.145-3.99,0.406-5.928,1.469l-0.056,0.128l0.019,1.674l0.062,0.128c1.963,1.012,3.785,1.516,5.964,1.314l0.444,3.069
				c-0.388,0.077-0.777,0.155-1.166,0.231c-1.596,0.424-3.012,1.616-4.181,2.722L3.326,46.91l0.455,1.611l0.09,0.108
				c2.162,0.465,4.045,0.485,6.102-0.274l1.224,2.849l-1.058,0.521l-0.01,0.006l-0.017,0.008c-0.017,0.009-0.032,0.019-0.048,0.028
				c-1.391,0.841-2.442,2.315-3.267,3.675l0.017,0.139l0.855,1.439l0.115,0.082c2.205-0.108,4.033-0.58,5.822-1.844l1.918,2.434
				l-0.885,0.778l-0.01,0.007l-0.014,0.012c-1.154,1.164-1.798,2.898-2.243,4.435l0.052,0.13l1.198,1.168l0.134,0.049
				c1.529-0.495,3.172-1.167,4.336-2.32l0.021-0.022l0.018-0.017c0.259-0.309,0.516-0.619,0.772-0.929l2.484,1.856
				c-1.216,1.815-1.65,3.662-1.691,5.869l0.083,0.112l1.464,0.818l0.141,0.013c1.348-0.87,2.84-1.979,3.621-3.428
				c0.166-0.36,0.332-0.72,0.498-1.081l2.878,1.149l-0.378,1.116L28,67.416l-0.004,0.017c-0.429,1.581-0.107,3.415,0.273,4.964
				l0.108,0.087L30,72.895l0.14-0.024c1.073-1.172,2.247-2.655,2.612-4.249l0.002-0.011l0.2-1.162l3.078,0.364
				c-0.025,0.396-0.052,0.792-0.078,1.188c-0.015,1.645,0.784,3.334,1.547,4.739l0.131,0.057l1.675-0.022l0.128-0.059
				c0.735-1.42,1.473-3.139,1.423-4.78c-0.035-0.395-0.072-0.79-0.109-1.185l3.067-0.444l0.229,1.156
				c0.003,0.009,0.006,0.019,0.008,0.027l0.005,0.024c0.444,1.574,1.607,2.984,2.712,4.138l0.141,0.02l1.61-0.455l0.108-0.09
				c0.331-1.566,0.585-3.337,0.16-4.916c-0.01-0.026-0.019-0.053-0.026-0.08l-0.408-1.105l2.849-1.224l0.521,1.057l0.006,0.01
				l0.007,0.016c0.828,1.418,2.334,2.485,3.704,3.316l0.141-0.017l1.438-0.855l0.08-0.116c-0.095-2.203-0.58-4.038-1.843-5.822
				l2.437-1.92c0.264,0.302,0.529,0.606,0.796,0.908c1.165,1.158,2.894,1.791,4.433,2.245l0.131-0.052l1.167-1.199l0.051-0.132
				c-0.479-1.522-1.177-3.246-2.359-4.375l-0.016-0.012l-0.008-0.007l-0.906-0.753l1.854-2.485c1.822,1.217,3.659,1.64,5.87,1.691
				l0.111-0.084l0.818-1.46l0.013-0.141c-1.194-1.856-2.52-3.205-4.508-4.12l1.148-2.879c2.075,0.704,3.961,0.638,6.107,0.113
				l0.087-0.109l0.412-1.624l-0.024-0.139c-1.628-1.487-3.267-2.443-5.419-2.813L67.813,39.968z M62.423,35.392
				c0.146,1.382,0.184,2.794,0.089,4.229c-0.454,6.891-3.715,12.927-8.591,17.078l-2.702-4.286l-0.006,0.003
				c-1.134-1.561-3.328-1.908-4.889-0.773c-1.314,0.955-1.757,2.657-1.189,4.103l2.891,4.678c-3.54,1.586-7.505,2.36-11.646,2.087
				c-4.132-0.271-7.954-1.555-11.25-3.585l3.245-3.898l-0.005-0.005c1.134-1.561,0.786-3.754-0.775-4.888
				c-1.314-0.955-3.069-0.849-4.27,0.137l-3.553,4.19c-4.296-4.759-6.74-11.179-6.283-18.077c0.094-1.425,0.314-2.81,0.638-4.153
				l4.702,1.878l0.003-0.007c1.835,0.597,3.813-0.412,4.409-2.248c0.502-1.544-0.141-3.181-1.449-4.018l-5.087-2.085
				c3.973-6.896,11.171-11.617,19.401-12.243l-0.334,5.058l0.008,0.001c0,1.93,1.57,3.5,3.5,3.5c1.624,0,2.981-1.118,3.374-2.621
				l0.411-5.481c8.082,1.693,14.605,7.312,17.646,14.666l-4.92,1.247l0.001,0.007c-1.834,0.596-2.843,2.576-2.246,4.411
				c0.502,1.545,1.984,2.492,3.535,2.399L62.423,35.392z"/>
			<g>
				<circle fill="none" stroke="#000000" stroke-width="0.5" stroke-miterlimit="10" cx="39.28" cy="18.568" r="1.5"/>
				<circle fill="none" stroke="#000000" stroke-width="0.5" stroke-miterlimit="10" cx="19.913" cy="30.775" r="1.5"/>
				<circle fill="none" stroke="#000000" stroke-width="0.5" stroke-miterlimit="10" cx="25.538" cy="52.967" r="1.5"/>
				<circle fill="none" stroke="#000000" stroke-width="0.5" stroke-miterlimit="10" cx="48.381" cy="54.474" r="1.5"/>
				<circle fill="none" stroke="#000000" stroke-width="0.5" stroke-miterlimit="10" cx="56.875" cy="33.214" r="1.5"/>
			</g>
			<path fill="none" stroke="#000000" stroke-width="0.5" stroke-miterlimit="10" d="M66.028,39.854
				C65.01,55.323,51.63,67.048,36.146,66.028C20.664,65.01,8.948,51.624,9.972,36.153C10.996,20.667,24.37,8.951,39.847,9.972
				C55.331,10.993,67.052,24.367,66.028,39.854z"/>
		</g>
		<circle fill="none" stroke="#000000" stroke-width="0.5" stroke-miterlimit="10" cx="38" cy="38.001" r="3.72"/>
	</g>
</g>
<g id="titulo" display="none">
</g>
<g id="screenshots" display="none">
</g>
<g id="fondo_negro" display="none">
</g>
<g id="imagenes" display="none">
</g>
<g id="graficas" display="none">
</g>
<g id="texto" display="none">
</g>
<g id="bienvenido" display="none">
</g>
<g id="landpage" display="none">
	<g id="movil_horiz" display="inline">
		<defs>
			<rect id="SVGID_12_" x="-3517.265" y="893.109" width="217.259" height="123.013"/>
		</defs>
		<clipPath id="SVGID_2_">
			<use xlink:href="#SVGID_12_"  overflow="visible"/>
		</clipPath>
	</g>
	<g id="movil_vert_copia" display="inline">
		<defs>
			<rect id="SVGID_16_" x="-3728.83" y="845.626" width="123.013" height="217.259"/>
		</defs>
		<clipPath id="SVGID_4_">
			<use xlink:href="#SVGID_16_"  overflow="visible"/>
		</clipPath>
	</g>
	<g id="tableta_horizontal" display="inline">
		<defs>
			<rect id="SVGID_20_" x="-4219.437" y="809.44" width="409.16" height="288.831"/>
		</defs>
		<clipPath id="SVGID_6_">
			<use xlink:href="#SVGID_20_"  overflow="visible"/>
		</clipPath>
	</g>
	<g id="tableta_vert" display="inline">
		<defs>
			<rect id="SVGID_28_" x="-4583.813" y="749.664" width="287.964" height="409.479"/>
		</defs>
		<clipPath id="SVGID_8_">
			<use xlink:href="#SVGID_28_"  overflow="visible"/>
		</clipPath>
	</g>
	<g id="escritorio_1_" display="inline">
		<defs>
			<rect id="ventana" x="-5678.801" y="710.266" width="1024.5" height="487.98"/>
		</defs>
		<clipPath id="ventana_1_">
			<use xlink:href="#ventana"  overflow="visible"/>
		</clipPath>
	</g>
</g>
<g id="bocetos" display="none">
</g>
<g id="notas" display="none">
</g>
</svg>
