<?xml version="1.0" encoding="utf-8"?>
<!-- Generator: Adobe Illustrator 16.0.0, SVG Export Plug-In . SVG Version: 6.00 Build 0)  -->
<!DOCTYPE svg PUBLIC "-//W3C//DTD SVG 1.1//EN" "http://www.w3.org/Graphics/SVG/1.1/DTD/svg11.dtd">
<svg version="1.1" xmlns="http://www.w3.org/2000/svg" xmlns:xlink="http://www.w3.org/1999/xlink" x="0px" y="0px" width="102px"
	 height="102px" viewBox="0 0 102 102" enable-background="new 0 0 102 102" xml:space="preserve">
<g id="screenshots" display="none">
</g>
<g id="fondo_negro" display="none">
</g>
<g id="imagenes" display="none">
</g>
<g id="texto" display="none">
</g>
<g id="Capa_6" display="none">
</g>
<g id="bienvenido" display="none">
</g>
<g id="landpage">
	<defs>
		<rect id="ventana" x="-1850.742" y="-168.191" width="1024.5" height="487.98"/>
	</defs>
	<clipPath id="ventana_1_">
		<use xlink:href="#ventana"  overflow="visible"/>
	</clipPath>
</g>
<g id="bocetos">
</g>
<g id="exportaciones">
	<g>
		<g>
			<g display="none">
				
					<line display="inline" fill="#B7B053" stroke="#272525" stroke-width="0.25" stroke-miterlimit="10" x1="58.795" y1="48.366" x2="43.144" y2="53.579"/>
				
					<line display="inline" fill="#B7B053" stroke="#272525" stroke-width="0.25" stroke-miterlimit="10" x1="53.575" y1="58.798" x2="48.362" y2="43.146"/>
			</g>
			<g display="none">
				<g display="inline">
					<polyline fill="#B7B053" stroke="#272525" stroke-width="0.25" stroke-miterlimit="10" points="18.814,39.182 18.456,40.196 
						18.135,41.216 17.853,42.249 17.59,43.285 					"/>
					
						<line fill="#B7B053" stroke="#272525" stroke-width="0.25" stroke-miterlimit="10" x1="20.19" y1="41.827" x2="16.088" y2="40.603"/>
					<polyline fill="#B7B053" stroke="#272525" stroke-width="0.25" stroke-miterlimit="10" points="16.803,38.442 17.439,39.857 
						18.135,41.216 18.883,42.522 19.679,43.763 					"/>
					<polyline fill="#B7B053" stroke="#272525" stroke-width="0.25" stroke-miterlimit="10" points="20.824,39.92 19.474,40.535 
						18.135,41.216 16.814,41.978 15.508,42.804 					"/>
					<polyline fill="#B7B053" stroke="#272525" stroke-width="0.25" stroke-miterlimit="10" points="18.815,31.747 18.23,32.76 
						17.681,33.795 17.161,34.847 16.67,35.905 18.627,36.767 19.094,35.768 19.582,34.779 20.102,33.807 21.571,33.395 
						23.408,34.495 23.844,35.881 23.381,36.738 22.959,37.61 21.571,38.063 					"/>
					<polyline fill="#B7B053" stroke="#272525" stroke-width="0.25" stroke-miterlimit="10" points="27.178,22.034 31.256,26.996 
						29.456,26.422 27.604,25.926 25.701,25.534 23.756,25.226 28.417,29.646 					"/>
					<polyline fill="#B7B053" stroke="#272525" stroke-width="0.25" stroke-miterlimit="10" points="34.016,19.982 33.05,20.531 
						32.11,21.104 31.189,21.707 30.279,22.34 					"/>
					<polyline fill="#B7B053" stroke="#272525" stroke-width="0.25" stroke-miterlimit="10" points="35.043,21.866 34.142,22.375 
						33.252,22.914 32.39,23.48 31.536,24.077 					"/>
					<polyline fill="#B7B053" stroke="#272525" stroke-width="0.25" stroke-miterlimit="10" points="35.525,18.02 36.14,16.571 
						37.225,16.123 38.323,15.714 39.761,16.349 40.091,17.369 39.407,18.734 40.745,19.411 41.073,20.423 40.491,21.755 
						39.578,22.095 38.687,22.47 37.348,21.898 					"/>
					
						<line fill="#B7B053" stroke="#272525" stroke-width="0.25" stroke-miterlimit="10" x1="38.403" y1="19.113" x2="39.407" y2="18.734"/>
					<polyline fill="#B7B053" stroke="#272525" stroke-width="0.25" stroke-miterlimit="10" points="46.276,13.804 45.115,13.974 
						43.965,14.174 42.817,14.408 41.674,14.685 42.209,16.759 43.278,16.498 44.36,16.277 45.445,16.089 46.677,16.991 
						46.942,19.12 46.116,20.317 45.16,20.479 44.208,20.674 43.001,19.868 					"/>
					<polyline fill="#B7B053" stroke="#272525" stroke-width="0.25" stroke-miterlimit="10" points="54.146,16.868 55.212,16.983 
						56.278,17.133 57.331,17.32 58.61,16.486 58.845,15.442 57.925,14.167 56.769,13.961 55.61,13.799 54.448,13.674 
						53.857,20.068 					"/>
					
						<line fill="#B7B053" stroke="#272525" stroke-width="0.25" stroke-miterlimit="10" x1="59.564" y1="21.15" x2="60.749" y2="17.035"/>
					
						<line fill="#B7B053" stroke="#272525" stroke-width="0.25" stroke-miterlimit="10" x1="61.05" y1="16.005" x2="61.341" y2="14.977"/>
					<polyline fill="#B7B053" stroke="#272525" stroke-width="0.25" stroke-miterlimit="10" points="65.456,22.318 64.102,22.847 
						63.632,21.464 65.751,16.551 					"/>
					<polyline fill="#B7B053" stroke="#272525" stroke-width="0.25" stroke-miterlimit="10" points="66.901,19.454 65.913,18.966 
						64.904,18.52 63.884,18.094 62.852,17.708 					"/>
					<polyline fill="#B7B053" stroke="#272525" stroke-width="0.25" stroke-miterlimit="10" points="69.891,26.369 69.113,25.785 
						68.314,25.234 67.503,24.705 67.218,23.278 68.3,21.432 69.783,21.085 70.712,21.681 71.62,22.316 72.498,22.972 					"/>
					<polyline fill="#B7B053" stroke="#272525" stroke-width="0.25" stroke-miterlimit="10" points="72.797,25.984 74.297,25.894 
						75.821,25.873 76.598,26.666 76.54,28.189 74.147,30.325 					"/>
					
						<line fill="#B7B053" stroke="#272525" stroke-width="0.25" stroke-miterlimit="10" x1="71.388" y1="27.602" x2="75.618" y2="22.759"/>
					<polyline fill="#B7B053" stroke="#272525" stroke-width="0.25" stroke-miterlimit="10" points="78.074,35.851 78.53,36.699 
						78.968,37.569 79.375,38.451 80.739,38.944 84.708,37.336 85.249,35.86 84.757,34.799 84.233,33.747 83.681,32.714 					"/>
					
						<line fill="#B7B053" stroke="#272525" stroke-width="0.25" stroke-miterlimit="10" x1="84.233" y1="33.747" x2="78.53" y2="36.699"/>
					<polyline fill="#B7B053" stroke="#272525" stroke-width="0.25" stroke-miterlimit="10" points="85.612,44.077 85.376,43 
						85.112,41.922 84.813,40.866 84.479,39.812 					"/>
					<polyline fill="#B7B053" stroke="#272525" stroke-width="0.25" stroke-miterlimit="10" points="83.511,44.499 83.294,43.484 
						83.045,42.472 82.765,41.478 82.452,40.486 					"/>
					<polyline fill="#B7B053" stroke="#272525" stroke-width="0.25" stroke-miterlimit="10" points="87.036,46.106 88.23,47.134 
						81.843,47.792 					"/>
					<polyline fill="#B7B053" stroke="#272525" stroke-width="0.25" stroke-miterlimit="10" points="81.929,48.755 81.843,47.792 
						81.729,46.822 					"/>
					
						<line fill="#B7B053" stroke="#272525" stroke-width="0.25" stroke-miterlimit="10" x1="83.075" y1="50.686" x2="82.009" y2="50.693"/>
					<polyline fill="#B7B053" stroke="#272525" stroke-width="0.25" stroke-miterlimit="10" points="87.306,52.919 88.297,54.146 
						81.898,53.599 					"/>
					<polyline fill="#B7B053" stroke="#272525" stroke-width="0.25" stroke-miterlimit="10" points="81.802,54.562 81.898,53.599 
						81.966,52.629 					"/>
					<polyline fill="#B7B053" stroke="#272525" stroke-width="0.25" stroke-miterlimit="10" points="87.836,57.62 87.612,58.772 
						87.349,59.913 87.048,61.047 86.716,62.166 83.96,60.18 81.11,58.382 					"/>
					<polyline fill="#B7B053" stroke="#272525" stroke-width="0.25" stroke-miterlimit="10" points="80.653,68.055 80.108,68.975 
						79.531,69.88 78.921,70.762 79.145,72.27 80.003,72.913 81.546,72.616 82.207,71.649 82.835,70.666 83.438,69.656 77.87,66.46 
											"/>
					<polyline fill="#B7B053" stroke="#272525" stroke-width="0.25" stroke-miterlimit="10" points="74.683,77.146 75.487,76.399 
						76.27,75.617 77.028,74.816 77.762,73.989 					"/>
					<polyline fill="#B7B053" stroke="#272525" stroke-width="0.25" stroke-miterlimit="10" points="73.243,75.564 73.997,74.853 
						74.738,74.128 75.45,73.369 76.14,72.592 					"/>
					<polyline fill="#B7B053" stroke="#272525" stroke-width="0.25" stroke-miterlimit="10" points="73.665,79.414 73.409,80.969 
						72.464,81.657 71.491,82.312 69.944,82.027 69.388,81.108 69.736,79.628 68.266,79.282 67.71,78.372 67.972,76.938 
						68.772,76.393 69.565,75.824 70.995,76.07 					"/>
					
						<line fill="#B7B053" stroke="#272525" stroke-width="0.25" stroke-miterlimit="10" x1="70.623" y1="79.027" x2="69.736" y2="79.628"/>
					<polyline fill="#B7B053" stroke="#272525" stroke-width="0.25" stroke-miterlimit="10" points="63.241,80.643 63.725,79.273 
						64.604,78.859 65.97,79.36 67.971,83.146 67.428,84.622 66.368,85.123 64.882,84.601 63.241,80.643 					"/>
					<polyline fill="#B7B053" stroke="#272525" stroke-width="0.25" stroke-miterlimit="10" points="56.884,84.707 55.827,84.877 
						54.769,85.013 53.699,85.116 52.687,86.253 52.738,87.322 53.956,88.316 55.117,88.199 56.278,88.057 57.434,87.872 
						56.327,81.546 					"/>
					<polyline fill="#B7B053" stroke="#272525" stroke-width="0.25" stroke-miterlimit="10" points="50.533,82.007 50.507,84.145 
						49.374,86.253 48.108,88.326 47.173,86.09 46.378,83.834 46.671,81.711 					"/>
					<polyline fill="#B7B053" stroke="#272525" stroke-width="0.25" stroke-miterlimit="10" points="50.507,84.145 49.472,84.116 
						48.434,84.054 47.403,83.962 46.378,83.834 					"/>
					<polyline fill="#B7B053" stroke="#272525" stroke-width="0.25" stroke-miterlimit="10" points="39.638,84.427 40.688,84.764 
						41.755,85.068 42.819,85.34 43.899,85.581 					"/>
					<polyline fill="#B7B053" stroke="#272525" stroke-width="0.25" stroke-miterlimit="10" points="40.327,82.397 41.32,82.718 
						42.312,83.005 43.318,83.262 44.331,83.481 					"/>
					<polyline fill="#B7B053" stroke="#272525" stroke-width="0.25" stroke-miterlimit="10" points="35.705,77.998 36.564,78.461 
						37.425,78.904 38.309,79.314 39.201,79.694 38.39,81.669 36.999,82.245 36.028,81.786 35.068,81.306 33.603,81.733 
						33.078,82.664 33.581,84.148 34.627,84.679 35.688,85.177 37.173,84.647 					"/>
					<polyline fill="#B7B053" stroke="#272525" stroke-width="0.25" stroke-miterlimit="10" points="31.024,76.133 32.457,75.89 
						33.244,76.454 33.471,77.892 31.138,81.485 29.575,81.728 28.627,81.043 28.361,79.489 31.024,76.133 					"/>
				</g>
			</g>
			<g>
				<path fill="#B7B053" d="M48.872,101.668c-0.675-1.324-1.726-3.787-1.48-5.88l0.015-0.125l-3.002-0.342l-0.014,0.125
					c-0.235,2.098-1.81,4.26-2.763,5.397l-1.775-0.365c-0.426-1.421-1.02-4.03-0.406-6.051l0.037-0.12l-2.894-0.871l-0.036,0.12
					c-0.604,2.027-2.54,3.87-3.681,4.817l-1.682-0.676c-0.165-1.473-0.282-4.142,0.682-6.024l0.057-0.111l-2.69-1.375l-0.057,0.112
					c-0.956,1.881-3.19,3.353-4.482,4.083l-1.532-0.966c0.103-1.488,0.468-4.147,1.744-5.807l0.077-0.1l-2.401-1.833l-0.076,0.1
					c-1.283,1.687-3.741,2.732-5.141,3.217l-1.335-1.225c0.366-1.445,1.199-3.996,2.754-5.4l0.093-0.084l-2.037-2.233l-0.092,0.084
					c-1.558,1.426-4.165,2.018-5.631,2.248l-1.096-1.443c0.618-1.353,1.894-3.71,3.674-4.823l0.106-0.066l-1.606-2.56l-0.105,0.066
					c-1.677,1.054-4.156,1.211-5.484,1.211c-0.155,0-0.309-0.002-0.457-0.006l-0.821-1.614c0.846-1.219,2.516-3.309,4.477-4.09
					l0.116-0.046l-1.122-2.805l-0.116,0.047c-0.779,0.314-1.749,0.474-2.881,0.474c-1.22,0-2.39-0.187-3.18-0.35l-0.521-1.735
					c1.051-1.051,3.066-2.811,5.135-3.225l0.123-0.024l-0.603-2.962l-0.123,0.025c-0.375,0.078-0.787,0.117-1.227,0.117
					c-1.713,0-3.521-0.578-4.76-1.076l-0.2-1.8c1.22-0.846,3.518-2.218,5.626-2.255l0.126-0.002L6.14,50.42l-0.238,0.004
					c-2.089,0-4.384-1.244-5.605-2.015l0.123-1.807c1.091-0.494,3.133-1.285,5.018-1.285c0.323,0,0.634,0.023,0.923,0.07l0.123,0.02
					l0.477-2.979l-0.301-0.06c-2.186-0.526-4.104-2.062-5.091-2.967l0.443-1.757c0.912-0.23,2.262-0.495,3.643-0.495
					c0.93,0,1.744,0.122,2.42,0.361l0.118,0.042l1.001-2.851l-0.118-0.042c-2.074-0.726-3.91-2.92-4.647-3.895l0.752-1.649
					c0.383-0.026,0.79-0.042,1.211-0.042c1.394,0,3.354,0.172,4.776,0.992l0.109,0.063l1.494-2.627l-0.109-0.062
					c-1.832-1.029-3.204-3.333-3.878-4.661l1.034-1.488c1.473,0.164,4.102,0.641,5.722,2.005l0.096,0.081l1.938-2.318l-0.096-0.08
					c-1.62-1.349-2.558-3.856-2.983-5.279l1.282-1.279c1.422,0.428,3.925,1.37,5.272,2.994l0.08,0.097l2.323-1.935l-0.081-0.096
					c-1.356-1.613-1.829-4.249-1.992-5.726l1.49-1.03c1.21,0.618,3.339,1.887,4.513,3.657l0.206,0.337l2.627-1.487l-0.063-0.109
					c-1.048-1.832-1.042-4.508-0.938-5.99l1.65-0.748c0.972,0.736,3.161,2.57,3.884,4.656l0.041,0.118l2.854-0.996l-0.041-0.118
					c-0.699-1.984-0.218-4.619,0.147-6.061l1.757-0.441c0.827,0.898,2.657,3.095,2.989,5.274l0.02,0.124l2.986-0.47L45.479,6.35
					c-0.352-2.159,0.716-4.823,1.227-5.938l1.809-0.12c0.715,1.144,1.882,3.314,1.996,5.441l0.004,0.407l3.018,0.071l0.003-0.125
					c0.044-2.107,1.42-4.404,2.268-5.624l1.8,0.206c0.55,1.382,1.372,3.932,0.947,5.988L58.524,6.78l2.959,0.609l0.024-0.123
					c0.433-2.146,2.365-4.264,3.235-5.127l1.734,0.522c0.297,1.459,0.653,4.118-0.138,6.062L66.293,8.84l2.803,1.127l0.047-0.116
					c0.779-1.959,2.876-3.625,4.1-4.468l1.612,0.824c0.03,1.222-0.041,4.083-1.217,5.938l-0.067,0.106l2.557,1.612l0.066-0.106
					c1.125-1.791,3.479-3.054,4.83-3.665l1.44,1.099c-0.241,1.478-0.851,4.101-2.258,5.626l-0.085,0.092l2.228,2.041l0.085-0.093
					c1.421-1.559,3.967-2.382,5.407-2.742l1.221,1.338c-0.731,2.1-1.83,3.906-3.02,4.964l-0.305,0.248l1.824,2.401l0.1-0.076
					c1.68-1.284,4.33-1.637,5.811-1.732l0.962,1.534c-0.733,1.293-2.209,3.529-4.092,4.474l-0.112,0.057l1.37,2.694l0.111-0.057
					c1.02-0.52,2.385-0.783,4.06-0.783c0.635,0,1.296,0.039,1.967,0.115l0.673,1.682c-0.873,1.042-2.588,2.836-4.581,3.591
					l-0.363,0.12l0.863,2.891l0.12-0.036c0.568-0.171,1.229-0.258,1.966-0.258c1.204,0,2.651,0.24,4.084,0.677l0.36,1.775
					c-1.142,0.95-3.31,2.52-5.402,2.751l-0.124,0.014l0.335,3.003l0.125-0.015c0.205-0.023,0.414-0.035,0.626-0.035
					c1.848,0,3.862,0.822,5.25,1.527l0.038,1.811c-1.18,0.673-3.396,1.755-5.433,1.755c-0.126,0-0.251-0.004-0.374-0.013
					l-0.125-0.009l-0.206,3.015l0.124,0.008c2.118,0.144,4.342,1.619,5.517,2.518l-0.285,1.789
					c-1.137,0.397-2.806,0.858-4.436,0.858c-0.582,0-1.117-0.061-1.59-0.181l-0.122-0.031l-0.74,2.929l0.121,0.031
					c2.133,0.54,4.156,2.559,4.977,3.462l-0.601,1.709c-0.884,0.141-1.778,0.215-2.59,0.215c-1.398,0-2.562-0.21-3.458-0.624
					l-0.114-0.053l-1.253,2.75l0.114,0.051c1.912,0.862,3.488,3.034,4.28,4.295l-0.896,1.575c-1.486-0.033-4.155-0.273-5.878-1.484
					l-0.104-0.072l-1.721,2.479l0.312,0.231c1.229,0.998,2.406,2.758,3.232,4.834l-1.162,1.389
					c-1.463-0.304-4.052-1.025-5.519-2.509l-0.088-0.089l-2.143,2.136l0.09,0.088c1.493,1.478,2.203,4.064,2.499,5.524l-1.393,1.16
					c-1.382-0.556-3.798-1.721-4.981-3.454l-0.071-0.104l-2.488,1.719l0.072,0.103c1.199,1.716,1.438,4.39,1.472,5.881l-1.577,0.893
					c-1.256-0.79-3.419-2.365-4.285-4.289l-0.052-0.114l-2.749,1.244l0.149,0.359c0.543,1.484,0.651,3.599,0.296,5.808l-1.71,0.597
					c-0.998-0.918-2.707-2.71-3.379-4.728l-0.109-0.377L60.407,94.8l0.03,0.121c0.516,2.059-0.199,4.63-0.69,6.025l-1.79,0.281
					c-0.898-1.186-2.37-3.425-2.505-5.521l-0.009-0.125l-3.015,0.2l0.008,0.125c0.145,2.109-1.019,4.516-1.753,5.805L48.872,101.668
					z M50.594,11.95c-4.193,0-8.355,0.678-12.371,2.016c-20.476,6.819-31.585,29.025-24.766,49.5
					c5.334,16.019,20.255,26.781,37.127,26.781c4.193,0,8.355-0.678,12.371-2.016c9.919-3.304,17.957-10.272,22.635-19.621
					s5.435-19.96,2.13-29.879C82.387,22.712,67.467,11.95,50.594,11.95z"/>
				<path fill="#272525" d="M48.448,0.422c0.711,1.149,1.827,3.258,1.939,5.32l0.001,0.142L50.39,6.02v0.244l0.244,0.006
					l2.771,0.065l0.25,0.006L53.66,6.09c0.042-2.04,1.36-4.271,2.203-5.493l1.65,0.188c0.544,1.383,1.325,3.856,0.913,5.847
					l-0.05,0.245l0.244,0.051l2.715,0.559l0.245,0.05l0.05-0.246c0.417-2.07,2.264-4.125,3.147-5.01l1.591,0.479
					c0.291,1.459,0.621,4.035-0.145,5.917L66.13,8.909l0.233,0.094l2.57,1.034l0.232,0.094l0.093-0.233
					c0.755-1.896,2.773-3.521,3.993-4.368l1.479,0.756c0.024,1.249-0.065,4.003-1.199,5.794l-0.134,0.212l0.211,0.133l2.346,1.479
					l0.211,0.134l0.134-0.212c1.088-1.733,3.36-2.971,4.707-3.587l1.321,1.008c-0.247,1.476-0.852,4.011-2.214,5.488l-0.17,0.184
					l0.185,0.17l2.043,1.871l0.185,0.169l0.169-0.185c1.376-1.509,3.836-2.321,5.273-2.687l1.12,1.228
					c-0.725,2.05-1.799,3.809-2.95,4.833l-0.219,0.177l-0.186,0.153l0.146,0.191l1.676,2.206l0.151,0.2l0.199-0.152
					c1.627-1.244,4.19-1.601,5.669-1.703l0.883,1.408c-0.737,1.29-2.18,3.444-4.003,4.359l-0.225,0.113l0.114,0.224l1.257,2.471
					l0.113,0.223l0.223-0.114c1.002-0.51,2.349-0.769,4.004-0.769c0.605,0,1.236,0.036,1.877,0.106l0.617,1.543
					c-0.879,1.04-2.55,2.765-4.472,3.493l-0.253,0.084l-0.23,0.076l0.07,0.232l0.793,2.654l0.071,0.24l0.24-0.072
					c0.557-0.167,1.206-0.252,1.931-0.252c1.172,0,2.578,0.23,3.975,0.65l0.332,1.628c-1.146,0.945-3.254,2.452-5.279,2.675
					l-0.249,0.027l0.028,0.249l0.307,2.754l0.028,0.25l0.249-0.029c0.195-0.023,0.401-0.034,0.612-0.034
					c1.876,0,3.967,0.897,5.126,1.48l0.036,1.661c-1.185,0.668-3.335,1.702-5.307,1.702c-0.123,0-0.245-0.004-0.365-0.013
					l-0.25-0.018l-0.017,0.25l-0.189,2.765l-0.018,0.25l0.25,0.017c2.05,0.139,4.212,1.553,5.389,2.447l-0.262,1.641
					c-0.957,0.33-2.674,0.827-4.322,0.827c-0.572,0-1.097-0.06-1.561-0.177l-0.242-0.062l-0.062,0.242l-0.68,2.687l-0.062,0.243
					l0.242,0.061c2.059,0.521,4.022,2.451,4.865,3.37l-0.551,1.568c-0.854,0.132-1.715,0.202-2.497,0.202
					c-1.38,0-2.526-0.206-3.406-0.612l-0.228-0.105l-0.104,0.229l-1.148,2.521l-0.104,0.229l0.229,0.103
					c1.851,0.834,3.389,2.927,4.186,4.185l-0.822,1.445c-1.485-0.039-4.067-0.288-5.735-1.459l-0.205-0.145l-0.144,0.207
					l-1.58,2.276l-0.138,0.199l0.193,0.145l0.206,0.153c1.204,0.977,2.354,2.69,3.172,4.717l-1.066,1.274
					c-1.46-0.31-3.962-1.022-5.382-2.459l-0.177-0.179l-0.178,0.178l-1.964,1.958l-0.178,0.177l0.179,0.177
					c1.445,1.43,2.147,3.929,2.45,5.387l-1.278,1.064c-1.379-0.561-3.71-1.703-4.856-3.381l-0.142-0.208l-0.206,0.143l-2.281,1.576
					l-0.207,0.143l0.144,0.206c1.161,1.662,1.408,4.249,1.447,5.738l-1.446,0.819c-1.252-0.795-3.336-2.332-4.176-4.194
					l-0.103-0.229l-0.228,0.104l-2.525,1.143l-0.221,0.1l0.094,0.224l0.098,0.237c0.532,1.453,0.642,3.515,0.305,5.676l-1.568,0.547
					c-0.996-0.925-2.64-2.67-3.287-4.615l-0.078-0.269l-0.067-0.229l-0.232,0.059l-2.687,0.674l-0.242,0.061l0.061,0.242
					c0.498,1.994-0.177,4.487-0.663,5.883l-1.642,0.258c-0.894-1.189-2.305-3.365-2.436-5.395l-0.016-0.25l-0.25,0.017l-2.766,0.184
					l-0.25,0.017l0.018,0.25c0.14,2.042-0.973,4.378-1.701,5.669l-1.661-0.039c-0.669-1.326-1.672-3.715-1.435-5.742l0.029-0.249
					l-0.249-0.029l-2.753-0.313l-0.249-0.028l-0.028,0.249c-0.227,2.031-1.738,4.133-2.686,5.274l-1.629-0.335
					c-0.42-1.422-0.979-3.95-0.385-5.907l0.072-0.24l-0.239-0.072l-2.653-0.799l-0.24-0.072l-0.071,0.24
					c-0.586,1.962-2.448,3.758-3.584,4.708l-1.543-0.62c-0.159-1.472-0.257-4.057,0.677-5.879l0.114-0.223l-0.224-0.114
					l-2.467-1.261l-0.224-0.114l-0.113,0.224c-0.926,1.821-3.079,3.259-4.368,3.994l-1.405-0.887
					c0.109-1.486,0.478-4.058,1.714-5.665l0.152-0.199l-0.199-0.152l-2.202-1.681l-0.198-0.152L22.412,85.7
					c-1.279,1.683-3.832,2.734-5.012,3.15l-1.225-1.124c0.372-1.442,1.193-3.907,2.697-5.266l0.188-0.168l-0.17-0.186l-1.868-2.048
					l-0.169-0.185l-0.185,0.169c-1.508,1.381-4.028,1.969-5.491,2.205l-1.006-1.324c0.624-1.35,1.872-3.624,3.596-4.701l0.212-0.133
					l-0.133-0.212l-1.473-2.348l-0.133-0.212l-0.212,0.133c-1.65,1.038-4.104,1.192-5.418,1.192c-0.129,0-0.256-0.001-0.38-0.004
					l-0.753-1.481c0.85-1.215,2.479-3.227,4.378-3.983l0.232-0.093L9.996,68.85l-1.029-2.572l-0.094-0.233l-0.232,0.094
					c-0.765,0.308-1.718,0.465-2.834,0.465c-1.172,0-2.3-0.174-3.082-0.333l-0.477-1.592c1.054-1.045,3.016-2.737,5.018-3.138
					l0.246-0.049l-0.05-0.246L6.909,58.53l-0.05-0.246l-0.246,0.051c-0.366,0.076-0.771,0.114-1.201,0.114
					c-1.662,0-3.418-0.552-4.645-1.039l-0.184-1.651c1.224-0.84,3.455-2.155,5.496-2.191l0.252-0.004l-0.006-0.251l-0.059-2.771
					l-0.006-0.25l-0.25,0.005l-0.11,0.001c-2.022,0-4.251-1.19-5.476-1.956l0.112-1.658c1.098-0.491,3.075-1.243,4.897-1.243
					c0.318,0,0.622,0.023,0.903,0.069l0.247,0.04l0.04-0.248l0.438-2.736l0.038-0.237l-0.235-0.048l-0.185-0.036l-0.078-0.015
					c-2.038-0.494-3.903-1.969-4.896-2.872l0.407-1.612c0.902-0.224,2.207-0.473,3.539-0.473c0.916,0,1.716,0.119,2.378,0.354
					l0.236,0.084l0.084-0.236l0.918-2.614l0.082-0.236l-0.236-0.083c-2.001-0.7-3.786-2.801-4.544-3.793l0.69-1.513
					c0.378-0.024,0.757-0.036,1.128-0.036c1.379,0,3.315,0.169,4.714,0.976l0.218,0.125l0.124-0.219l1.371-2.409l0.124-0.218
					l-0.22-0.123c-1.773-0.996-3.115-3.218-3.793-4.542l0.948-1.365c1.243,0.145,3.966,0.608,5.581,1.968l0.191,0.161l0.161-0.192
					l1.778-2.126l0.161-0.192l-0.192-0.161c-1.568-1.306-2.491-3.727-2.922-5.147l1.176-1.174c1.419,0.434,3.837,1.36,5.142,2.933
					l0.16,0.193l0.192-0.16l2.13-1.775l0.192-0.161l-0.161-0.192c-1.313-1.561-1.786-4.109-1.955-5.585l1.367-0.945
					c1.958,1.01,3.556,2.31,4.4,3.582l0.139,0.229l0.126,0.207l0.211-0.119l2.412-1.365l0.219-0.124l-0.125-0.218
					c-1.014-1.773-1.025-4.364-0.927-5.845l1.514-0.687c0.989,0.756,3.085,2.54,3.782,4.553l0.082,0.236l0.236-0.082l2.617-0.913
					l0.237-0.083l-0.083-0.236c-0.678-1.921-0.227-4.475,0.133-5.916l1.611-0.405c0.841,0.921,2.587,3.05,2.908,5.153l0.038,0.249
					l0.248-0.039l2.738-0.431l0.248-0.039l-0.04-0.248c-0.34-2.083,0.668-4.657,1.186-5.797L48.448,0.422 M50.584,90.372
					c4.207,0,8.383-0.68,12.411-2.022c9.95-3.314,18.014-10.305,22.706-19.684c4.693-9.379,5.452-20.024,2.138-29.975
					c-5.351-16.07-20.318-26.867-37.245-26.867c-4.207,0-8.383,0.68-12.411,2.022c-20.54,6.841-31.686,29.118-24.845,49.658
					C18.689,79.575,33.658,90.372,50.584,90.372 M48.581,0.163l-1.957,0.13c-0.799,1.72-1.584,4.135-1.268,6.077l-2.738,0.431
					c-0.297-1.944-1.781-4.007-3.072-5.395l-1.9,0.478c-0.476,1.844-0.819,4.343-0.163,6.205l-2.617,0.913
					c-0.646-1.862-2.464-3.619-3.986-4.76l-1.785,0.81c-0.141,1.895-0.029,4.424,0.949,6.135l-2.412,1.365l-0.139-0.229
					l-0.007-0.009c-1.054-1.589-2.964-2.894-4.627-3.733l-1.612,1.114c0.2,1.89,0.76,4.358,2.028,5.867l-2.13,1.774
					c-1.262-1.521-3.576-2.514-5.404-3.056l-1.388,1.385c0.538,1.828,1.526,4.147,3.044,5.411l-1.778,2.126
					c-1.509-1.271-3.971-1.839-5.862-2.042l-1.119,1.61c0.853,1.697,2.244,3.815,3.962,4.78l-1.37,2.409
					c-1.341-0.773-3.189-1.009-4.839-1.009c-0.451,0-0.888,0.018-1.294,0.047l-0.813,1.784c1.141,1.523,2.889,3.346,4.751,3.997
					l-0.918,2.614c-0.744-0.264-1.593-0.369-2.462-0.369c-1.299,0-2.642,0.234-3.745,0.517l-0.48,1.901
					c1.379,1.275,3.254,2.579,5.116,3.031c0.091,0.018,0.182,0.034,0.272,0.053l-0.438,2.736c-0.305-0.049-0.62-0.072-0.943-0.072
					c-1.739,0-3.676,0.658-5.137,1.327l-0.133,1.956c1.576,1.003,3.787,2.074,5.735,2.074c0.039,0,0.077,0,0.116-0.001l0.059,2.771
					c-1.973,0.035-4.198,1.23-5.757,2.32l0.217,1.948c1.4,0.569,3.219,1.113,4.876,1.113c0.432,0,0.853-0.037,1.252-0.12
					l0.553,2.716c-1.934,0.387-3.912,1.961-5.251,3.312l0.563,1.878c0.978,0.206,2.135,0.368,3.278,0.368
					c1.034,0,2.059-0.132,2.928-0.483l1.029,2.572c-1.836,0.731-3.496,2.626-4.576,4.196l0.889,1.747
					c0.174,0.005,0.353,0.008,0.535,0.008c1.82,0,4.033-0.276,5.551-1.23l1.473,2.348c-1.678,1.049-2.966,3.207-3.752,4.945
					l1.186,1.562c1.883-0.287,4.313-0.956,5.77-2.29l1.868,2.048c-1.465,1.323-2.35,3.69-2.81,5.535l1.445,1.325
					c1.801-0.616,4.075-1.714,5.27-3.284l2.202,1.681c-1.204,1.565-1.651,4.051-1.775,5.949l1.658,1.046
					c1.662-0.931,3.704-2.413,4.598-4.172l2.468,1.261c-0.9,1.758-0.906,4.276-0.686,6.17l1.819,0.731
					c1.47-1.21,3.214-3.034,3.778-4.925l2.653,0.799c-0.573,1.888-0.127,4.373,0.428,6.194l1.921,0.396
					c1.229-1.456,2.619-3.558,2.839-5.521l2.753,0.313c-0.229,1.958,0.657,4.327,1.527,6.018l1.96,0.046
					c0.949-1.649,1.941-3.971,1.807-5.939l2.766-0.184c0.127,1.973,1.418,4.134,2.575,5.648l1.938-0.305
					c0.642-1.796,1.198-4.251,0.719-6.167l2.687-0.674c0.026,0.089,0.052,0.178,0.077,0.267c0.604,1.817,2.083,3.567,3.468,4.831
					l1.851-0.646c0.306-1.85,0.366-4.151-0.292-5.949l-0.103-0.247l2.524-1.143c0.811,1.8,2.781,3.376,4.396,4.383l1.706-0.966
					c-0.034-1.901-0.364-4.407-1.495-6.025l2.281-1.576c1.112,1.628,3.342,2.826,5.107,3.527l1.508-1.255
					c-0.37-1.862-1.147-4.274-2.549-5.661l1.964-1.958c1.389,1.405,3.79,2.179,5.655,2.559l1.258-1.504
					c-0.686-1.745-1.814-3.75-3.302-4.957l-0.214-0.159l1.58-2.276c1.613,1.133,4.125,1.474,6.022,1.508l0.97-1.704
					c-1.005-1.615-2.574-3.595-4.374-4.406l1.148-2.521c1.016,0.469,2.271,0.635,3.511,0.635c0.942,0,1.874-0.096,2.684-0.228
					l0.649-1.85c-1.274-1.417-3.175-3.07-5.089-3.555l0.68-2.687c0.51,0.129,1.058,0.185,1.622,0.185
					c1.554,0,3.228-0.423,4.546-0.89l0.309-1.936c-1.508-1.165-3.673-2.455-5.643-2.589l0.189-2.765
					c0.126,0.009,0.254,0.013,0.383,0.013c1.879,0,4.018-0.92,5.56-1.808l-0.042-1.96c-1.515-0.776-3.554-1.575-5.373-1.575
					c-0.217,0-0.431,0.011-0.641,0.036l-0.308-2.754c1.964-0.217,4.065-1.602,5.526-2.827l-0.391-1.921
					c-1.222-0.378-2.748-0.705-4.19-0.705c-0.703,0-1.385,0.077-2.003,0.263l-0.793-2.654l0.253-0.084
					c1.79-0.678,3.485-2.245,4.681-3.685l-0.729-1.82c-0.633-0.075-1.335-0.125-2.055-0.125c-1.436,0-2.943,0.199-4.116,0.796
					l-1.257-2.471c1.762-0.884,3.252-2.933,4.182-4.589l-1.041-1.66c-1.898,0.114-4.386,0.564-5.953,1.763l-1.676-2.206
					c0.072-0.06,0.144-0.117,0.216-0.175c1.427-1.269,2.472-3.318,3.079-5.087l-1.321-1.448c-1.85,0.454-4.212,1.338-5.542,2.797
					l-2.043-1.871c1.341-1.454,2.001-3.883,2.302-5.766l-1.56-1.189c-1.74,0.778-3.901,2.069-4.952,3.743l-2.345-1.479
					c1.055-1.665,1.29-4.184,1.234-6.083l-1.745-0.892c-1.569,1.072-3.477,2.733-4.206,4.566l-2.57-1.034
					c0.744-1.83,0.516-4.344,0.129-6.207l-1.877-0.565c-1.354,1.331-2.934,3.313-3.322,5.243l-2.714-0.559
					c0.4-1.937-0.269-4.359-0.981-6.129l-1.947-0.223c-1.094,1.56-2.292,3.779-2.333,5.754L50.64,6.02
					c0-0.092-0.002-0.185-0.002-0.277l-0.002-0.015C50.533,3.822,49.577,1.742,48.581,0.163L48.581,0.163z M50.584,90.122
					c-16.338,0-31.563-10.344-37.009-26.696c-6.809-20.443,4.244-42.533,24.687-49.342c4.091-1.362,8.245-2.009,12.332-2.009
					c16.336,0,31.563,10.345,37.008,26.696c6.81,20.442-4.244,42.533-24.686,49.342C58.826,89.475,54.67,90.122,50.584,90.122
					L50.584,90.122z"/>
			</g>
		</g>
		<g>
			<path fill="#B7B053" d="M50.586,55.974c-0.837,0-1.665-0.22-2.397-0.635c-1.134-0.643-1.95-1.688-2.297-2.942
				c-0.348-1.253-0.185-2.567,0.457-3.699c0.866-1.526,2.495-2.474,4.251-2.474c0.836,0,1.665,0.219,2.396,0.633
				c2.333,1.326,3.156,4.307,1.836,6.646C53.966,55.027,52.339,55.974,50.586,55.974L50.586,55.974z"/>
			<g>
				<path fill="#272525" d="M50.6,46.349c0.814,0,1.622,0.213,2.334,0.617c2.273,1.292,3.076,4.197,1.789,6.476
					c-0.844,1.485-2.429,2.408-4.137,2.408c-0.814,0-1.622-0.214-2.336-0.619c-1.105-0.626-1.9-1.644-2.238-2.866
					c-0.338-1.222-0.18-2.501,0.446-3.604C47.302,47.272,48.889,46.349,50.6,46.349 M50.6,46.099c-1.743,0-3.438,0.913-4.359,2.537
					c-1.361,2.399-0.52,5.448,1.887,6.812c0.778,0.441,1.625,0.651,2.459,0.651c1.741,0,3.433-0.913,4.354-2.534
					c1.356-2.402,0.518-5.452-1.883-6.816C52.279,46.308,51.434,46.099,50.6,46.099L50.6,46.099z"/>
			</g>
		</g>
		<g>
			<path fill="#8A8A8A" d="M41.105,86.327c-0.745,0-1.356-0.606-1.362-1.352c-0.003-0.238,0.054-0.463,0.169-0.669l3.594-6.34
				l-12.342-6.996l-3.595,6.333c-0.12,0.202-0.285,0.367-0.491,0.488c-0.21,0.124-0.448,0.189-0.689,0.189
				c-0.479,0-0.93-0.257-1.174-0.671c-0.061-0.103-0.113-0.284-0.145-0.392c-0.848-2.957-2.1-5.849-3.731-8.633
				c-1.622-2.76-3.539-5.262-5.699-7.437c-0.116-0.118-0.241-0.244-0.297-0.341c-0.186-0.314-0.236-0.68-0.146-1.031
				c0.092-0.353,0.314-0.648,0.629-0.832c0.204-0.121,0.434-0.186,0.665-0.189l7.287-0.06l-0.113-14.187l-7.281,0.054
				c-0.232-0.001-0.465-0.062-0.67-0.176c-0.65-0.372-0.881-1.206-0.512-1.858c0.066-0.116,0.23-0.283,0.292-0.346
				c2.115-2.193,3.994-4.725,5.585-7.524c1.585-2.792,2.793-5.703,3.591-8.653c0.055-0.188,0.098-0.34,0.148-0.429
				c0.242-0.425,0.696-0.689,1.187-0.689c0.233,0,0.465,0.061,0.67,0.177c0.209,0.117,0.375,0.278,0.496,0.48l3.695,6.283
				l12.221-7.187l-3.692-6.282c-0.114-0.2-0.176-0.432-0.179-0.667c-0.005-0.75,0.601-1.365,1.352-1.372
				c0.126,0,0.316,0.047,0.431,0.075c2.877,0.717,5.911,1.079,9.035,1.079l0.288-0.001c3.215-0.026,6.341-0.437,9.291-1.219
				c0.117-0.032,0.314-0.086,0.438-0.086c0.763,0,1.373,0.605,1.379,1.35c0.001,0.236-0.059,0.468-0.172,0.669l-3.59,6.341
				l12.341,6.996l3.596-6.335c0.12-0.204,0.289-0.375,0.488-0.492c0.209-0.123,0.446-0.188,0.688-0.188
				c0.481,0,0.933,0.258,1.178,0.672c0.057,0.095,0.106,0.266,0.14,0.379c0.858,2.983,2.111,5.875,3.737,8.645
				c1.632,2.771,3.55,5.272,5.7,7.437c0.069,0.068,0.229,0.227,0.297,0.341c0.185,0.314,0.236,0.681,0.146,1.034
				c-0.091,0.352-0.313,0.647-0.627,0.832c-0.207,0.121-0.438,0.185-0.666,0.186l-7.286,0.062l0.112,14.187l7.285-0.056
				c0.23,0.001,0.462,0.063,0.667,0.181c0.317,0.179,0.544,0.47,0.641,0.82c0.098,0.351,0.052,0.718-0.128,1.036
				c-0.063,0.11-0.21,0.262-0.289,0.343c-2.125,2.204-4.003,4.735-5.587,7.526c-1.582,2.792-2.79,5.704-3.59,8.655
				c-0.026,0.103-0.083,0.314-0.148,0.43c-0.24,0.425-0.694,0.689-1.185,0.689c-0.234,0-0.467-0.062-0.672-0.177
				c-0.201-0.113-0.372-0.279-0.493-0.482l-3.697-6.28l-12.229,7.19l3.688,6.282c0.117,0.201,0.18,0.432,0.182,0.666
				c0.006,0.75-0.6,1.367-1.351,1.375c-0.118-0.001-0.305-0.046-0.416-0.074c-2.905-0.721-5.938-1.083-9.043-1.083l-0.296,0.001
				c-3.202,0.023-6.327,0.432-9.289,1.215c-0.119,0.033-0.319,0.089-0.446,0.089H41.105z M50.592,27.752
				c-2.5,0-4.982,0.404-7.377,1.202c-5.915,1.97-10.709,6.126-13.499,11.701c-2.789,5.576-3.24,11.904-1.27,17.819
				c3.181,9.552,12.078,15.97,22.14,15.971c0.001,0,0.001,0,0.002,0c2.5,0,4.982-0.404,7.377-1.202
				c5.915-1.97,10.709-6.126,13.498-11.701c2.79-5.575,3.241-11.903,1.271-17.817C69.552,34.17,60.654,27.752,50.592,27.752z"/>
			<path fill="#272525" d="M60.069,15.743v0.25c0.676,0,1.229,0.55,1.235,1.225c0.001,0.215-0.053,0.425-0.155,0.607l-3.529,6.232
				l-0.123,0.217l0.218,0.124l12.124,6.873l0.217,0.123l0.124-0.217l3.532-6.224c0.109-0.187,0.263-0.342,0.444-0.449
				c0.189-0.111,0.405-0.17,0.624-0.17c0.438,0,0.848,0.234,1.07,0.612c0.049,0.081,0.098,0.249,0.127,0.349l0.015,0.049
				c0.847,2.944,2.104,5.846,3.734,8.624c1.638,2.779,3.563,5.29,5.722,7.463c0.06,0.059,0.217,0.214,0.276,0.315
				c0.168,0.285,0.215,0.619,0.132,0.938c-0.083,0.319-0.284,0.588-0.568,0.755c-0.188,0.109-0.397,0.168-0.604,0.169l-7.161,0.061
				l-0.25,0.002l0.002,0.25l0.11,13.937l0.002,0.25l0.25-0.002l7.157-0.055c0.211,0.001,0.421,0.058,0.608,0.165
				c0.287,0.162,0.493,0.426,0.581,0.744s0.046,0.652-0.118,0.941c-0.053,0.096-0.198,0.245-0.272,0.321
				c-2.128,2.208-4.013,4.748-5.603,7.547c-1.587,2.801-2.799,5.722-3.601,8.685c-0.024,0.089-0.08,0.299-0.137,0.399
				c-0.218,0.386-0.631,0.626-1.076,0.626c-0.213,0-0.424-0.056-0.611-0.162c-0.183-0.102-0.337-0.253-0.446-0.435l-3.633-6.174
				l-0.127-0.215l-0.216,0.127l-12.015,7.063l-0.215,0.126l0.126,0.215l3.625,6.173c0.106,0.183,0.163,0.392,0.165,0.604
				c0.006,0.682-0.545,1.242-1.223,1.249c-0.105-0.001-0.283-0.044-0.42-0.078c-2.885-0.716-5.926-1.079-9.042-1.079l-0.297,0.001
				c-3.212,0.023-6.348,0.434-9.333,1.223c-0.094,0.026-0.291,0.081-0.41,0.081c-0.677,0-1.231-0.551-1.237-1.229
				c-0.003-0.215,0.049-0.419,0.152-0.604l3.533-6.232l0.123-0.217l-0.218-0.124l-12.125-6.872l-0.217-0.123l-0.124,0.217
				l-3.53,6.221c-0.11,0.186-0.261,0.336-0.448,0.446c-0.19,0.112-0.407,0.171-0.626,0.171c-0.436,0-0.844-0.233-1.066-0.61
				c-0.053-0.088-0.103-0.26-0.143-0.398c-0.84-2.931-2.096-5.833-3.732-8.626c-1.627-2.769-3.552-5.279-5.718-7.46l-0.034-0.035
				l-0.001,0c-0.073-0.074-0.195-0.198-0.245-0.284c-0.167-0.284-0.214-0.616-0.131-0.935c0.083-0.32,0.285-0.588,0.572-0.756
				c0.185-0.109,0.393-0.168,0.601-0.171l7.163-0.059l0.25-0.002l-0.002-0.25l-0.111-13.937l-0.002-0.25l-0.25,0.002l-7.153,0.053
				c-0.213-0.001-0.424-0.056-0.608-0.158c-0.593-0.339-0.802-1.097-0.467-1.688c0.059-0.103,0.22-0.268,0.273-0.322
				c2.123-2.201,4.008-4.74,5.604-7.548c1.59-2.801,2.802-5.722,3.6-8.674l0.024-0.083c0.028-0.099,0.071-0.249,0.115-0.325
				c0.219-0.386,0.632-0.625,1.076-0.625c0.213,0,0.424,0.056,0.61,0.162c0.188,0.105,0.34,0.252,0.448,0.434l3.632,6.176
				l0.127,0.215l0.216-0.127l12.006-7.061l0.215-0.126l-0.126-0.216l-3.628-6.171c-0.104-0.183-0.16-0.394-0.163-0.607
				c-0.005-0.682,0.546-1.24,1.226-1.246c0.111,0,0.301,0.047,0.418,0.076c2.87,0.716,5.914,1.079,9.049,1.079l0.289-0.001
				c3.226-0.026,6.361-0.438,9.335-1.227c0.1-0.028,0.286-0.079,0.4-0.079L60.069,15.743 M50.586,74.57
				c2.515,0,5.011-0.407,7.419-1.208c5.946-1.981,10.766-6.159,13.57-11.764c2.804-5.605,3.258-11.967,1.277-17.913
				c-3.199-9.604-12.145-16.058-22.261-16.058c-2.514,0-5.009,0.406-7.417,1.208c-5.946,1.981-10.767,6.159-13.57,11.764
				c-2.805,5.605-3.259,11.968-1.277,17.915C31.525,68.117,40.471,74.57,50.586,74.57 M60.069,15.743c-0.005,0-0.01,0-0.015,0
				c-0.001,0-0.002,0-0.004,0c-0.145,0-0.354,0.059-0.471,0.091c-2.957,0.784-6.063,1.188-9.26,1.215
				c-0.096,0.001-0.191,0.001-0.287,0.001c-3.096,0-6.109-0.354-8.988-1.071c-0.119-0.029-0.33-0.083-0.479-0.083
				c-0.82,0.007-1.481,0.678-1.476,1.498c0.003,0.265,0.073,0.514,0.196,0.729l3.629,6.174L30.91,31.357l-3.632-6.176
				c-0.129-0.216-0.312-0.396-0.542-0.525c-0.231-0.131-0.483-0.193-0.732-0.193c-0.518,0-1.021,0.271-1.294,0.752
				c-0.072,0.127-0.126,0.344-0.161,0.458c-0.798,2.951-2,5.844-3.578,8.624c-1.579,2.778-3.442,5.296-5.566,7.498
				c-0.084,0.086-0.239,0.247-0.311,0.372c-0.404,0.714-0.154,1.621,0.56,2.029c0.23,0.128,0.481,0.19,0.731,0.191l7.156-0.053
				l0.111,13.937l-7.163,0.059c-0.248,0.003-0.499,0.071-0.727,0.206c-0.708,0.415-0.945,1.327-0.528,2.033
				c0.072,0.127,0.232,0.281,0.316,0.367c2.156,2.171,4.061,4.655,5.681,7.412c1.616,2.758,2.865,5.628,3.708,8.568
				c0.034,0.116,0.092,0.329,0.168,0.457c0.277,0.471,0.772,0.732,1.281,0.732c0.256,0,0.516-0.066,0.753-0.206
				c0.229-0.135,0.409-0.319,0.536-0.534l3.533-6.225l12.125,6.872l-3.533,6.232c-0.12,0.216-0.188,0.464-0.185,0.73
				c0.007,0.817,0.672,1.476,1.487,1.476c0.003,0,0.006,0,0.009,0c0.148,0,0.362-0.061,0.479-0.093
				c2.956-0.781,6.062-1.188,9.258-1.211c0.099-0.001,0.196-0.001,0.295-0.001c3.094,0,6.106,0.357,8.981,1.071
				c0.117,0.028,0.332,0.084,0.479,0.085c0.819-0.009,1.481-0.678,1.475-1.501c-0.002-0.264-0.074-0.514-0.199-0.729L58.256,77.9
				l12.015-7.063l3.634,6.174c0.127,0.212,0.309,0.397,0.539,0.526c0.232,0.131,0.484,0.193,0.733,0.193
				c0.518,0,1.021-0.27,1.294-0.753c0.071-0.127,0.129-0.341,0.16-0.458c0.8-2.952,2-5.843,3.577-8.626
				c1.578-2.78,3.441-5.294,5.564-7.497c0.085-0.087,0.241-0.246,0.312-0.372c0.406-0.717,0.154-1.622-0.559-2.025
				c-0.232-0.133-0.483-0.196-0.73-0.197l-7.16,0.055l-0.11-13.937l7.161-0.061c0.248-0.001,0.499-0.069,0.729-0.203
				c0.707-0.416,0.943-1.327,0.525-2.036c-0.073-0.125-0.229-0.28-0.315-0.366c-2.157-2.171-4.058-4.655-5.682-7.412
				c-1.618-2.756-2.865-5.63-3.71-8.566c-0.035-0.117-0.093-0.333-0.167-0.457c-0.278-0.471-0.775-0.733-1.285-0.733
				c-0.256,0-0.515,0.065-0.751,0.204c-0.229,0.135-0.407,0.323-0.533,0.538l-3.534,6.227l-12.124-6.873l3.529-6.232
				c0.121-0.216,0.188-0.466,0.188-0.731C61.548,16.402,60.884,15.743,60.069,15.743L60.069,15.743z M50.586,74.32
				c-9.721,0-18.781-6.156-22.021-15.885C24.512,46.27,31.09,33.124,43.254,29.072c2.434-0.811,4.906-1.195,7.338-1.195
				c9.723,0,18.782,6.155,22.023,15.887c4.052,12.163-2.525,25.309-14.689,29.36C55.491,73.935,53.019,74.32,50.586,74.32
				L50.586,74.32z"/>
		</g>
		<g display="none">
			
				<line display="inline" fill="none" stroke="#272525" stroke-width="0.25" stroke-miterlimit="10" x1="42.449" y1="51.099" x2="58.729" y2="51.099"/>
			
				<line display="inline" fill="none" stroke="#272525" stroke-width="0.25" stroke-miterlimit="10" x1="50.59" y1="42.958" x2="50.59" y2="59.238"/>
			<circle display="inline" fill="#272525" cx="50.59" cy="42.958" r="1.723"/>
		</g>
	</g>
</g>
</svg>
