<?xml version="1.0" encoding="utf-8"?>
<!-- Generator: Adobe Illustrator 16.0.0, SVG Export Plug-In . SVG Version: 6.00 Build 0)  -->
<!DOCTYPE svg PUBLIC "-//W3C//DTD SVG 1.1//EN" "http://www.w3.org/Graphics/SVG/1.1/DTD/svg11.dtd">
<svg version="1.1" xmlns="http://www.w3.org/2000/svg" xmlns:xlink="http://www.w3.org/1999/xlink" x="0px" y="0px" width="254px"
	 height="254px" viewBox="0 0 254 254" enable-background="new 0 0 254 254" xml:space="preserve">
<g id="screenshots" display="none">
</g>
<g id="fondo_negro" display="none">
</g>
<g id="imagenes" display="none">
</g>
<g id="texto" display="none">
</g>
<g id="Capa_6" display="none">
</g>
<g id="bienvenido" display="none">
</g>
<g id="landpage">
	<defs>
		<rect id="ventana" x="-1358.404" y="-92.191" width="1024.5" height="487.98"/>
	</defs>
	<clipPath id="ventana_1_">
		<use xlink:href="#ventana"  overflow="visible"/>
	</clipPath>
</g>
<g id="bocetos">
</g>
<g id="exportaciones">
	<g id="anillo_interno_1_">
		<g display="none">
			
				<line display="inline" fill="#B7B053" stroke="#272525" stroke-width="0.25" stroke-miterlimit="10" x1="135.244" y1="127.002" x2="118.748" y2="127.002"/>
			
				<line display="inline" fill="#B7B053" stroke="#272525" stroke-width="0.25" stroke-miterlimit="10" x1="126.996" y1="135.251" x2="126.996" y2="118.754"/>
		</g>
		<g display="none">
			<g display="inline">
				<polyline fill="#B7B053" stroke="#272525" stroke-width="0.25" stroke-linecap="square" stroke-miterlimit="1" points="
					97.359,35.882 95.018,36.674 92.699,37.532 90.398,38.448 88.121,39.42 				"/>
				
					<line fill="#B7B053" stroke="#272525" stroke-width="0.25" stroke-linecap="square" stroke-miterlimit="1" x1="94.473" y1="42.152" x2="90.926" y2="32.914"/>
				<polyline fill="#B7B053" stroke="#272525" stroke-width="0.25" stroke-linecap="square" stroke-miterlimit="1" points="
					95.834,31.172 94.193,34.348 92.699,37.532 91.346,40.732 90.135,43.95 				"/>
				<polyline fill="#B7B053" stroke="#272525" stroke-width="0.25" stroke-linecap="square" stroke-miterlimit="1" points="
					98.893,40.584 95.842,39.008 92.699,37.532 89.449,36.164 86.117,34.901 				"/>
				<polyline fill="#B7B053" stroke="#272525" stroke-width="0.25" stroke-linecap="square" stroke-miterlimit="1" points="
					110.252,37.689 108.471,40.568 106.242,41.08 103.389,39.256 100.824,29.696 102.762,26.645 105.359,26.05 108.43,27.957 
					110.252,37.689 				"/>
				<polyline fill="#B7B053" stroke="#272525" stroke-width="0.25" stroke-linecap="square" stroke-miterlimit="1" points="
					137.174,24.26 135.715,39.042 133.711,35.14 131.508,31.289 129.115,27.494 126.525,23.758 126.592,38.605 				"/>
				<polyline fill="#B7B053" stroke="#272525" stroke-width="0.25" stroke-linecap="square" stroke-miterlimit="1" points="
					151.666,31.857 149.201,31.247 146.727,30.711 144.227,30.233 141.727,29.82 				"/>
				<polyline fill="#B7B053" stroke="#272525" stroke-width="0.25" stroke-linecap="square" stroke-miterlimit="1" points="
					150.43,36.65 148.088,36.073 145.729,35.561 143.361,35.107 140.984,34.711 				"/>
				<polyline fill="#B7B053" stroke="#272525" stroke-width="0.25" stroke-linecap="square" stroke-miterlimit="1" points="
					165.07,39.075 162.795,38.118 160.484,37.227 158.15,36.394 156.549,33.259 157.293,30.9 160.566,29.375 163.074,30.274 
					165.564,31.231 167.041,34.53 164.088,41.343 160.938,42.712 157.887,44.18 155.74,43.413 				"/>
				<polyline fill="#B7B053" stroke="#272525" stroke-width="0.25" stroke-linecap="square" stroke-miterlimit="1" points="
					173.541,48.957 170.299,49.938 168.295,48.849 167.363,45.591 171.76,36.724 175.232,35.726 177.574,36.997 178.613,40.46 
					173.541,48.957 				"/>
				<polyline fill="#B7B053" stroke="#272525" stroke-width="0.25" stroke-linecap="square" stroke-miterlimit="1" points="
					190.07,54.878 191.918,56.528 193.717,58.228 195.465,59.976 198.988,60.083 200.803,58.392 200.77,54.78 198.881,52.899 
					196.941,51.068 194.963,49.286 185.188,60.463 				"/>
				
					<line fill="#B7B053" stroke="#272525" stroke-width="0.25" stroke-linecap="square" stroke-miterlimit="1" x1="194.756" y1="70.246" x2="202.344" y2="63.885"/>
				
					<line fill="#B7B053" stroke="#272525" stroke-width="0.25" stroke-linecap="square" stroke-miterlimit="1" x1="204.242" y1="62.294" x2="206.139" y2="60.71"/>
				<polyline fill="#B7B053" stroke="#272525" stroke-width="0.25" stroke-linecap="square" stroke-miterlimit="1" points="
					204.826,80.102 201.504,79.442 202.303,76.143 212.557,69.222 				"/>
				<polyline fill="#B7B053" stroke="#272525" stroke-width="0.25" stroke-linecap="square" stroke-miterlimit="1" points="
					211.188,76.266 209.852,74.114 208.457,71.994 207.006,69.907 205.504,67.862 				"/>
				<polyline fill="#B7B053" stroke="#272525" stroke-width="0.25" stroke-linecap="square" stroke-miterlimit="1" points="
					208.846,93.613 207.953,91.509 207.006,89.43 206.016,87.377 207.145,84.185 211.508,81.851 214.857,82.94 215.971,85.224 
					217.02,87.534 218.008,89.868 				"/>
				<polyline fill="#B7B053" stroke="#272525" stroke-width="0.25" stroke-linecap="square" stroke-miterlimit="1" points="
					215.129,96.252 218.248,97.778 221.35,99.453 222.025,101.902 220.236,104.929 213.018,106.645 				"/>
				
					<line fill="#B7B053" stroke="#272525" stroke-width="0.25" stroke-linecap="square" stroke-miterlimit="1" x1="210.453" y1="97.877" x2="224.475" y2="92.986"/>
				<polyline fill="#B7B053" stroke="#272525" stroke-width="0.25" stroke-linecap="square" stroke-miterlimit="1" points="
					215.27,122.441 215.361,124.717 215.393,127.002 215.361,129.287 217.744,131.696 227.625,132.207 230.199,129.667 
					230.24,127.002 230.199,124.338 230.1,121.674 				"/>
				
					<line fill="#B7B053" stroke="#272525" stroke-width="0.25" stroke-linecap="square" stroke-miterlimit="1" x1="230.199" y1="124.338" x2="215.361" y2="124.717"/>
				<polyline fill="#B7B053" stroke="#272525" stroke-width="0.25" stroke-linecap="square" stroke-miterlimit="1" points="
					223.197,147.169 223.684,144.678 224.113,142.171 224.467,139.656 224.764,137.14 				"/>
				<polyline fill="#B7B053" stroke="#272525" stroke-width="0.25" stroke-linecap="square" stroke-miterlimit="1" points="
					218.355,146.147 218.816,143.788 219.221,141.413 219.559,139.02 219.84,136.628 				"/>
				<polyline fill="#B7B053" stroke="#272525" stroke-width="0.25" stroke-linecap="square" stroke-miterlimit="1" points="
					224.426,152.737 226.1,155.938 225.316,158.487 224.475,161.018 221.25,162.644 218.932,161.769 217.463,158.569 
					214.305,160.02 211.986,159.146 210.453,156.127 211.18,153.958 211.848,151.781 214.85,150.213 				"/>
				
					<line fill="#B7B053" stroke="#272525" stroke-width="0.25" stroke-linecap="square" stroke-miterlimit="1" x1="218.248" y1="156.226" x2="217.463" y2="158.569"/>
				<polyline fill="#B7B053" stroke="#272525" stroke-width="0.25" stroke-linecap="square" stroke-miterlimit="1" points="
					209.066,176.459 207.764,178.563 206.402,180.625 204.992,182.663 205.504,186.143 207.484,187.636 211.039,186.976 
					212.557,184.783 214.016,182.555 215.426,180.287 202.707,172.624 				"/>
				<polyline fill="#B7B053" stroke="#272525" stroke-width="0.25" stroke-linecap="square" stroke-miterlimit="1" points="
					195.441,197.55 197.238,195.76 198.988,193.921 200.695,192.041 202.344,190.119 				"/>
				<polyline fill="#B7B053" stroke="#272525" stroke-width="0.25" stroke-linecap="square" stroke-miterlimit="1" points="
					191.992,194.003 193.701,192.296 195.367,190.556 196.982,188.766 198.551,186.944 				"/>
				<polyline fill="#B7B053" stroke="#272525" stroke-width="0.25" stroke-linecap="square" stroke-miterlimit="1" points="
					193.33,202.855 192.934,206.451 190.855,208.125 188.742,209.742 185.154,209.289 183.729,207.267 184.307,203.794 
					180.875,203.225 179.447,201.205 179.859,197.847 181.674,196.454 183.447,195.019 186.813,195.406 				"/>
				
					<line fill="#B7B053" stroke="#272525" stroke-width="0.25" stroke-linecap="square" stroke-miterlimit="1" x1="186.268" y1="202.293" x2="184.307" y2="203.794"/>
				<polyline fill="#B7B053" stroke="#272525" stroke-width="0.25" stroke-linecap="square" stroke-miterlimit="1" points="
					169.449,207.341 170.299,204.067 172.279,202.92 175.545,203.82 180.832,212.183 179.885,215.672 177.574,217.009 
					174.078,216.093 169.449,207.341 				"/>
				<polyline fill="#B7B053" stroke="#272525" stroke-width="0.25" stroke-linecap="square" stroke-miterlimit="1" points="
					155.807,218.386 153.432,219.103 151.049,219.755 148.648,220.34 146.727,223.293 147.221,225.719 150.322,227.575 
					152.912,226.939 155.486,226.239 158.035,225.471 153.572,211.309 				"/>
				<polyline fill="#B7B053" stroke="#272525" stroke-width="0.25" stroke-linecap="square" stroke-miterlimit="1" points="
					140.242,214.402 140.984,219.293 139.213,224.531 137.174,229.744 134.164,225.034 131.393,220.243 131.16,215.301 				"/>
				<polyline fill="#B7B053" stroke="#272525" stroke-width="0.25" stroke-linecap="square" stroke-miterlimit="1" points="
					140.984,219.293 138.594,219.624 136.201,219.896 133.801,220.102 131.393,220.243 				"/>
				<polyline fill="#B7B053" stroke="#272525" stroke-width="0.25" stroke-linecap="square" stroke-miterlimit="1" points="
					116.422,224.721 118.945,224.968 121.479,225.141 124.01,225.249 126.551,225.298 				"/>
				<polyline fill="#B7B053" stroke="#272525" stroke-width="0.25" stroke-linecap="square" stroke-miterlimit="1" points="
					116.949,219.805 119.35,220.036 121.758,220.201 124.166,220.299 126.576,220.349 				"/>
				<polyline fill="#B7B053" stroke="#272525" stroke-width="0.25" stroke-linecap="square" stroke-miterlimit="1" points="
					104.033,212.365 106.242,212.926 108.471,213.437 110.713,213.882 112.957,214.278 112.174,219.162 109.344,221.182 
					106.92,220.696 104.502,220.143 101.459,221.925 100.824,224.308 102.762,227.361 105.359,227.955 107.975,228.474 
					110.994,226.495 				"/>
				<polyline fill="#B7B053" stroke="#272525" stroke-width="0.25" stroke-linecap="square" stroke-miterlimit="1" points="
					92.287,210.979 95.355,209.543 97.5,210.328 98.893,213.42 95.834,222.832 92.543,224.325 90.043,223.402 88.51,220.126 
					92.287,210.979 				"/>
			</g>
		</g>
		<g display="none">
			<g display="inline">
				<path fill="#B7B053" d="M125.615,253.345l0.011-0.039c-0.797-1.964-1.424-3.833-1.886-5.669l-0.019-0.076l-0.909-0.191
					l-0.726-0.029l-0.94,0.122l-0.025,0.075c-0.591,1.787-1.356,3.603-2.34,5.551l-0.049,0.028l-1.929-0.175l0.017-0.036
					c-0.66-2.008-1.154-3.916-1.486-5.789l-0.014-0.077l-0.892-0.255l-0.724-0.08l-0.947,0.057l-0.029,0.073
					c-0.704,1.71-1.595,3.468-2.723,5.375l-0.051,0.024l-1.91-0.311l0.017-0.036c-0.526-2.068-0.887-4.005-1.078-5.876l-0.008-0.078
					l-0.872-0.316l-0.717-0.129l-0.948-0.009l-0.035,0.07c-0.832,1.685-1.872,3.425-3.09,5.171l-0.052,0.02l-1.886-0.443
					l0.021-0.033c-0.381-2.095-0.604-4.052-0.665-5.938l-0.003-0.079l-0.851-0.375l-0.704-0.18l-0.946-0.076l-0.04,0.068
					c-0.918,1.584-2.044,3.201-3.442,4.942l-0.054,0.018l-1.849-0.574l0.021-0.033c-0.228-2.125-0.314-4.093-0.249-5.969
					l0.003-0.078l-0.819-0.434l-0.691-0.229l-0.938-0.142l-0.044,0.064c-1.076,1.566-2.313,3.101-3.78,4.692l-0.054,0.013
					l-1.806-0.701l0.021-0.032c-0.08-2.054-0.028-4.081,0.169-5.972l0.009-0.078l-0.787-0.489l-0.674-0.276l-0.927-0.207
					l-0.048,0.062c-1.177,1.484-2.556,2.969-4.098,4.415l-0.057,0.01l-1.75-0.825l0.026-0.029c0.07-2.139,0.258-4.101,0.583-5.947
					l0.014-0.077l-0.751-0.544l-0.653-0.322l-0.909-0.271l-0.053,0.058c-1.225,1.346-2.662,2.694-4.395,4.12l-0.055,0.003
					l-1.692-0.944l0.029-0.027c0.217-2.084,0.541-4.028,0.996-5.893l0.019-0.076l-0.71-0.595l-0.629-0.368l-0.89-0.333l-0.057,0.054
					c-1.335,1.28-2.862,2.524-4.671,3.804h-0.054l-1.622-1.06l0.029-0.027c0.359-2.085,0.819-4,1.408-5.806l0.024-0.074l-0.67-0.644
					l-0.601-0.411l-0.863-0.394l-0.061,0.05c-1.428,1.186-3.039,2.32-4.927,3.468l-0.055-0.003l-1.542-1.17l0.031-0.023
					c0.492-2.005,1.101-3.938,1.808-5.695l0.029-0.073l-0.623-0.688l-0.57-0.451l-0.834-0.454l-0.064,0.045
					c-1.539,1.105-3.226,2.124-5.155,3.115l-0.055-0.006l-1.456-1.276l0.031-0.022c0.651-2.03,1.373-3.864,2.201-5.554l0.034-0.071
					l-0.573-0.729l-0.538-0.49l-0.8-0.511l-0.066,0.041c-1.613,0.992-3.417,1.917-5.36,2.749l-0.055-0.01l-1.364-1.375l0.034-0.02
					c0.76-1.901,1.632-3.731,2.583-5.387l0.039-0.067l-0.521-0.769l-0.502-0.525l-0.762-0.565l-0.069,0.036
					c-1.668,0.873-3.48,1.647-5.54,2.368l-0.056-0.014l-1.264-1.466l0.036-0.018c0.93-1.914,1.898-3.629,2.951-5.194l0.044-0.065
					l-0.465-0.802l-0.466-0.56l-0.721-0.618l-0.071,0.031c-1.751,0.761-3.612,1.407-5.69,1.976l-0.052-0.019l-1.16-1.55l0.035-0.016
					c1.021-1.783,2.14-3.474,3.309-4.975l0.048-0.062l-0.409-0.833l-0.423-0.59l-0.678-0.667l-0.073,0.026
					c-1.737,0.625-3.64,1.141-5.814,1.575l-0.049-0.022l-1.052-1.628l0.037-0.013c1.146-1.71,2.38-3.319,3.647-4.732l0.053-0.058
					l-0.35-0.859l-0.383-0.619l-0.627-0.712l-0.076,0.021c-1.726,0.49-3.659,0.871-5.91,1.165l-0.049-0.026l-0.934-1.696
					l0.038-0.009c1.318-1.689,2.623-3.166,3.968-4.468l0.057-0.054l-0.288-0.881l-0.339-0.645l-0.576-0.753l-0.077,0.016
					c-1.866,0.383-3.821,0.628-5.978,0.75l-0.048-0.028l-0.812-1.757l0.038-0.009c1.431-1.59,2.836-2.972,4.27-4.178l0.061-0.05
					l-0.227-0.899l-0.292-0.667l-0.522-0.793l-0.077,0.01c-1.653,0.223-3.438,0.336-5.307,0.336c-0.237,0-0.474-0.002-0.71-0.005
					l-0.044-0.032l-0.689-1.81l0.04-0.003c1.518-1.475,3.016-2.755,4.552-3.873l0.063-0.046l-0.164-0.914l-0.246-0.684l-0.465-0.826
					l-0.078,0.004c-0.771,0.047-1.563,0.071-2.355,0.071c-1.195,0-2.429-0.054-3.667-0.162l-0.047-0.035l-0.558-1.853l0.04-0.001
					c1.705-1.427,3.288-2.599,4.81-3.544l0.066-0.041l-0.099-0.923l-0.197-0.702l-0.408-0.857l-0.078,0
					c-1.827-0.009-3.79-0.175-6.002-0.509l-0.043-0.039l-0.427-1.887h0.039c1.721-1.256,3.382-2.315,5.045-3.199l0.069-0.037
					l-0.034-0.928l-0.147-0.711l-0.347-0.884l-0.078-0.006c-1.878-0.142-3.824-0.445-5.953-0.927l-0.037-0.041l-0.297-1.914
					l0.04,0.003c1.813-1.138,3.545-2.078,5.257-2.839l0.071-0.032l0.03-0.928l-0.097-0.72L7.35,142.16l-0.078-0.011
					c-1.842-0.268-3.764-0.707-5.874-1.341l-0.032-0.042L1.2,138.834l0.039,0.008c1.816-0.975,3.661-1.816,5.442-2.467l0.073-0.026
					l0.096-0.925L6.805,134.7l-0.221-0.924l-0.077-0.017c-1.84-0.404-3.726-0.976-5.766-1.747l-0.033-0.046l-0.026-1.935
					l0.038,0.009c1.869-0.839,3.768-1.55,5.603-2.082l0.075-0.022l0.157-0.914l0.004-0.727l-0.155-0.938l-0.075-0.022
					c-1.813-0.528-3.707-1.25-5.629-2.144l-0.03-0.048l0.108-1.933l0.037,0.014c1.947-0.719,3.891-1.295,5.733-1.687l0.076-0.016
					l0.224-0.901l0.055-0.726l-0.09-0.946l-0.074-0.027c-1.753-0.648-3.541-1.476-5.465-2.531l-0.026-0.05l0.242-1.921l0.036,0.015
					c2.028-0.587,3.952-1.014,5.838-1.282l0.077-0.011l0.284-0.883l0.104-0.72l-0.022-0.949l-0.072-0.032
					c-1.665-0.747-3.392-1.697-5.276-2.906l-0.022-0.052l0.377-1.899l0.036,0.018c2.116-0.455,4.064-0.747,5.91-0.872l0.078-0.005
					l0.346-0.863l0.154-0.709l0.043-0.949l-0.068-0.037c-1.634-0.878-3.289-1.947-5.061-3.268l-0.017-0.052l0.506-1.869l0.034,0.02
					C6.821,94.819,8.83,94.66,10.7,94.66h0.078l0.066-0.07l0.371-0.764l0.203-0.699l0.108-0.943l-0.066-0.042
					c-1.594-1.005-3.17-2.187-4.818-3.613l-0.017-0.056l0.638-1.827l0.031,0.024c1.168-0.081,2.343-0.128,3.444-0.128
					c0.866,0,1.718,0.029,2.531,0.087l0.078,0.006l0.463-0.805l0.253-0.683l0.175-0.934l-0.064-0.046
					c-1.474-1.074-2.964-2.363-4.556-3.94l-0.011-0.055l0.762-1.779l0.032,0.024l0.414,0.008c1.948,0,3.814,0.124,5.549,0.369
					l0.078,0.011l0.516-0.771l0.3-0.662l0.239-0.919l-0.06-0.05c-1.416-1.199-2.813-2.588-4.271-4.248l-0.008-0.057l0.886-1.721
					l0.027,0.027c2.132,0.141,4.086,0.397,5.924,0.792l0.077,0.017l0.569-0.733l0.344-0.641l0.303-0.9l-0.057-0.055
					c-1.333-1.304-2.63-2.788-3.964-4.536l-0.001-0.054l1.002-1.658l0.027,0.028c2.138,0.301,4.068,0.694,5.854,1.204l0.075,0.021
					l0.618-0.692l0.39-0.614l0.364-0.877l-0.052-0.058c-1.258-1.413-2.482-3.028-3.638-4.802l0.001-0.055l1.115-1.583l0.025,0.031
					c2.076,0.435,3.976,0.961,5.754,1.608l0.074,0.026l0.665-0.647l0.432-0.584l0.425-0.849l-0.048-0.062
					c-1.161-1.504-2.239-3.154-3.294-5.044l0.005-0.054l1.225-1.502l0.021,0.033c2.037,0.575,3.894,1.232,5.628,2.005l0.071,0.032
					l0.71-0.598l0.471-0.554l0.483-0.818l-0.043-0.065c-1.045-1.568-2.005-3.289-2.935-5.26l0.01-0.055l1.325-1.413l0.019,0.034
					c2.009,0.727,3.816,1.512,5.477,2.393l0.069,0.037l0.749-0.547l0.508-0.52l0.538-0.782l-0.039-0.068
					c-0.91-1.598-1.748-3.382-2.561-5.453l0.013-0.054l1.423-1.315l0.017,0.035c1.982,0.883,3.731,1.792,5.295,2.769l0.066,0.042
					l0.785-0.493l0.544-0.484l0.593-0.742l-0.034-0.071c-0.827-1.723-1.538-3.561-2.173-5.618l0.015-0.056l1.511-1.21l0.016,0.035
					c1.888,1.005,3.568,2.035,5.087,3.133l0.063,0.046l0.818-0.438l0.576-0.444l0.642-0.7l-0.029-0.073
					c-0.688-1.726-1.27-3.608-1.775-5.755l0.021-0.051l1.589-1.105l0.013,0.037c1.835,1.144,3.439,2.287,4.859,3.479l0.06,0.05
					l0.847-0.379l0.604-0.403l0.688-0.653l-0.023-0.074c-0.575-1.814-1.023-3.733-1.369-5.866l0.023-0.051l1.663-0.99l0.011,0.037
					c1.75,1.271,3.271,2.524,4.603,3.811l0.057,0.055l0.872-0.32l0.631-0.36l0.733-0.603l-0.019-0.076
					c-0.443-1.807-0.757-3.752-0.958-5.947l0.027-0.049l1.729-0.874l0.006,0.039c1.553,1.292,3.023,2.687,4.327,4.122l0.053,0.058
					l0.892-0.258l0.654-0.315l0.775-0.549l-0.014-0.078c-0.319-1.845-0.496-3.808-0.541-6l0.03-0.049l1.784-0.749l0.007,0.039
					c1.552,1.5,2.883,2.952,4.025,4.415l0.049,0.062l0.908-0.195l0.675-0.269l0.81-0.496l-0.008-0.078
					c-0.189-1.95-0.229-3.976-0.118-6.022l0.032-0.046l1.832-0.622l0.004,0.039c1.347,1.481,2.609,3.067,3.71,4.684l0.044,0.064
					l0.919-0.131l0.692-0.22l0.843-0.437l-0.002-0.078c-0.053-1.892,0.048-3.917,0.3-6.018l0.036-0.042l1.872-0.495l0.002,0.04
					c1.333,1.715,2.449,3.339,3.371,4.931l0.039,0.068l0.926-0.067l0.709-0.172l0.868-0.378l0.004-0.078
					c0.081-1.913,0.316-3.87,0.719-5.981l0.04-0.038l1.901-0.364l-0.001,0.04c1.192,1.759,2.192,3.457,3.021,5.153l0.034,0.07
					l0.928-0.002l0.717-0.122l0.896-0.317l0.008-0.078c0.202-1.851,0.573-3.786,1.136-5.916l0.042-0.037l1.922-0.229l-0.006,0.038
					c1.09,1.885,1.97,3.648,2.654,5.352l0.029,0.073l0.928,0.063l0.723-0.071l0.917-0.253l0.014-0.077
					c0.33-1.823,0.835-3.728,1.542-5.822l0.046-0.033l1.935-0.095l-0.009,0.039c0.91,1.845,1.686,3.718,2.273,5.525l0.024,0.075
					l0.92,0.127l0.728-0.021l0.93-0.188l0.02-0.076c0.471-1.812,1.108-3.677,1.947-5.702l0.047-0.029l1.936,0.04l-0.011,0.039
					c0.793,1.953,1.419,3.822,1.884,5.669l0.019,0.076l0.909,0.191l0.728,0.029l0.94-0.123l0.025-0.075
					c0.588-1.78,1.353-3.596,2.338-5.551l0.05-0.025l1.928,0.175l-0.014,0.037c0.639,1.938,1.147,3.899,1.485,5.787l0.014,0.077
					l0.892,0.254l0.724,0.081l0.947-0.057l0.029-0.073c0.719-1.744,1.608-3.502,2.721-5.374l0.052-0.024l1.911,0.309l-0.017,0.036
					c0.528,2.084,0.888,4.021,1.076,5.876l0.008,0.078l0.875,0.316l0.715,0.13l0.949,0.009l0.035-0.07
					c0.832-1.685,1.872-3.425,3.09-5.171l0.052-0.02l1.884,0.442l-0.019,0.035c0.38,2.096,0.604,4.054,0.664,5.938l0.003,0.079
					l0.851,0.375l0.704,0.179l0.946,0.077l0.04-0.068c0.91-1.575,2.036-3.192,3.442-4.943l0.053-0.017l1.85,0.572l-0.021,0.034
					c0.228,2.157,0.313,4.126,0.247,5.969l-0.003,0.078l0.821,0.434l0.691,0.229l0.938,0.141l0.044-0.064
					c1.083-1.57,2.354-3.148,3.78-4.691l0.054-0.013l1.806,0.7l-0.025,0.031c0.084,2.042,0.031,4.068-0.167,5.973l-0.009,0.078
					l0.789,0.49l0.674,0.275l0.924,0.207l0.049-0.062c1.183-1.488,2.562-2.974,4.1-4.416l0.054-0.009l1.753,0.825l-0.026,0.03
					c-0.073,2.157-0.262,4.119-0.585,5.946l-0.014,0.078l0.753,0.543l0.65,0.323l0.912,0.27l0.053-0.058
					c1.265-1.394,2.702-2.741,4.395-4.119l0.057-0.006l1.69,0.945l-0.029,0.027c-0.218,2.088-0.542,4.032-0.998,5.893l-0.019,0.076
					l0.712,0.595l0.629,0.367l0.889,0.333l0.057-0.054c1.344-1.281,2.872-2.525,4.672-3.803h0.054l1.622,1.06l-0.029,0.026
					c-0.342,2.007-0.814,3.978-1.408,5.807l-0.024,0.075l0.67,0.643l0.601,0.41l0.862,0.395l0.061-0.049
					c1.519-1.244,3.176-2.41,4.927-3.468l0.057,0.002l1.541,1.172l-0.031,0.022c-0.503,2.05-1.095,3.929-1.808,5.696l-0.029,0.073
					l0.623,0.688l0.57,0.451l0.834,0.454l0.064-0.045c1.552-1.111,3.285-2.159,5.153-3.115l0.057,0.006l1.456,1.275l-0.031,0.023
					c-0.648,2.009-1.37,3.843-2.201,5.554l-0.034,0.07l0.571,0.73l0.538,0.489l0.802,0.511l0.067-0.042
					c1.579-0.984,3.331-1.883,5.357-2.748l0.057,0.01l1.364,1.374l-0.036,0.018c-0.793,1.975-1.64,3.753-2.581,5.388l-0.039,0.068
					l0.521,0.769l0.502,0.526l0.762,0.565l0.069-0.036c1.73-0.897,3.595-1.694,5.54-2.368l0.053,0.014l1.267,1.466l-0.036,0.016
					c-0.938,1.933-1.908,3.648-2.953,5.195l-0.044,0.065l0.467,0.803l0.464,0.56l0.721,0.618l0.071-0.032
					c1.741-0.763,3.603-1.41,5.691-1.976l0.054,0.018l1.159,1.551l-0.037,0.013c-1.026,1.806-2.145,3.497-3.309,4.977l-0.048,0.062
					l0.411,0.833l0.423,0.591l0.678,0.666l0.073-0.026c1.774-0.639,3.676-1.154,5.814-1.573l0.051,0.021l1.05,1.628l-0.039,0.009
					c-1.113,1.679-2.346,3.288-3.646,4.736l-0.053,0.058l0.35,0.859l0.383,0.619l0.627,0.712l0.076-0.021
					c1.746-0.492,3.68-0.873,5.91-1.165l0.051,0.025l0.932,1.697l-0.038,0.009c-1.368,1.748-2.674,3.224-3.97,4.466l-0.057,0.055
					l0.29,0.883l0.339,0.644l0.576,0.753l0.077-0.016c1.814-0.377,3.77-0.622,5.978-0.75l0.048,0.028l0.812,1.757l-0.038,0.008
					c-1.428,1.595-2.832,2.976-4.27,4.178l-0.061,0.05l0.225,0.9l0.294,0.666l0.521,0.792l0.078-0.01
					c1.658-0.223,3.449-0.336,5.323-0.336l0.691,0.005l0.047,0.032l0.687,1.81l-0.039,0.005c-1.549,1.502-3.047,2.782-4.551,3.87
					l-0.063,0.046l0.164,0.914l0.246,0.685l0.465,0.828l0.078-0.005c0.743-0.048,1.518-0.072,2.304-0.072
					c1.185,0,2.401,0.052,3.719,0.161l0.045,0.036l0.56,1.853h-0.039c-1.563,1.325-3.192,2.531-4.811,3.545l-0.066,0.042
					l0.099,0.923l0.197,0.7l0.406,0.857l0.078,0c1.898,0.009,3.861,0.176,6.003,0.51l0.041,0.038l0.43,1.888l-0.04-0.002
					c-1.744,1.274-3.405,2.333-5.046,3.201l-0.069,0.037l0.036,0.927l0.147,0.712l0.345,0.884l0.079,0.006
					c1.864,0.139,3.812,0.442,5.952,0.927l0.04,0.041l0.294,1.913l-0.039-0.004c-1.846,1.156-3.577,2.097-5.256,2.84l-0.071,0.032
					l-0.03,0.928l0.097,0.72l0.284,0.907l0.078,0.011c1.843,0.268,3.764,0.706,5.872,1.339l0.035,0.044l0.162,1.929l-0.039-0.008
					c-1.878,1.008-3.67,1.826-5.44,2.467l-0.073,0.027l-0.096,0.924l0.046,0.725l0.221,0.923l0.077,0.017
					c1.841,0.403,3.727,0.975,5.766,1.747l0.03,0.045l0.027,1.937l-0.038-0.009c-1.875,0.839-3.772,1.549-5.601,2.081l-0.075,0.022
					l-0.157,0.915l-0.006,0.727l0.157,0.937l0.075,0.022c1.77,0.517,3.61,1.218,5.63,2.145l0.026,0.047l-0.107,1.933l-0.036-0.012
					c-1.979,0.73-3.869,1.291-5.734,1.686l-0.076,0.016l-0.222,0.9l-0.055,0.726l0.09,0.944l0.074,0.027
					c1.771,0.655,3.609,1.507,5.465,2.532l0.026,0.05l-0.244,1.921l-0.036-0.016c-2.054,0.598-3.978,1.025-5.836,1.282l-0.077,0.011
					l-0.284,0.885l-0.104,0.719l0.022,0.95l0.071,0.032c1.735,0.788,3.511,1.766,5.276,2.907l0.021,0.05l-0.374,1.9l-0.036-0.018
					c-2.145,0.455-4.093,0.746-5.91,0.872l-0.078,0.005l-0.346,0.862l-0.156,0.71l-0.041,0.949l0.068,0.037
					c1.603,0.864,3.258,1.933,5.062,3.268l0.016,0.051l-0.506,1.87l-0.034-0.021c-2.042,0.297-4.046,0.457-5.909,0.457h-0.079
					l-0.082,0.07l-0.371,0.766l-0.205,0.696l-0.106,0.945l0.065,0.042c1.606,1.018,3.183,2.199,4.819,3.613l0.015,0.053
					l-0.636,1.829l-0.032-0.023c-1.15,0.081-2.318,0.129-3.424,0.129c-0.87,0-1.729-0.03-2.551-0.088l-0.078-0.006l-0.463,0.804
					l-0.253,0.683l-0.174,0.933l0.063,0.046c1.527,1.121,3.061,2.446,4.557,3.941l0.011,0.055l-0.764,1.779l-0.029-0.025
					l-0.425-0.008c-1.927,0-3.791-0.124-5.539-0.368l-0.078-0.011l-0.518,0.771l-0.298,0.663l-0.239,0.919l0.06,0.05
					c1.432,1.212,2.868,2.641,4.271,4.249l0.009,0.057l-0.887,1.72l-0.031-0.025c-2.145-0.156-4.099-0.412-5.921-0.792l-0.076-0.016
					l-0.569,0.732l-0.346,0.64l-0.301,0.899l0.056,0.055c1.354,1.335,2.651,2.82,3.963,4.538l0.004,0.056l-1.003,1.655l-0.027-0.028
					c-2.107-0.293-4.039-0.685-5.854-1.203l-0.075-0.021l-0.618,0.691l-0.39,0.614l-0.364,0.876l0.052,0.059
					c1.228,1.38,2.417,2.951,3.638,4.802l-0.001,0.056l-1.115,1.583l-0.025-0.031c-2.105-0.439-4.005-0.966-5.756-1.608
					l-0.074-0.027l-0.663,0.647l-0.432,0.586l-0.425,0.849l0.047,0.062c1.146,1.492,2.224,3.142,3.295,5.044l-0.005,0.055
					l-1.225,1.502l-0.022-0.032c-2.104-0.604-3.962-1.262-5.629-2.007l-0.071-0.032l-0.709,0.6l-0.47,0.555l-0.483,0.816
					l0.044,0.065c1.056,1.577,2.015,3.297,2.932,5.261l-0.008,0.057l-1.325,1.41l-0.021-0.033c-2.041-0.741-3.849-1.527-5.475-2.394
					l-0.069-0.037l-0.749,0.547l-0.508,0.521l-0.538,0.782l0.039,0.068c0.913,1.604,1.75,3.387,2.559,5.452l-0.013,0.054
					l-1.421,1.316l-0.019-0.035c-1.908-0.84-3.705-1.775-5.293-2.77l-0.066-0.042l-0.787,0.495l-0.542,0.483l-0.593,0.742
					l0.034,0.071c0.83,1.733,1.562,3.624,2.173,5.618l-0.017,0.054l-1.509,1.213l-0.016-0.035c-1.943-1.027-3.624-2.056-5.086-3.132
					l-0.063-0.047l-0.819,0.438l-0.576,0.444l-0.644,0.699l0.029,0.073c0.698,1.746,1.279,3.628,1.777,5.755l-0.021,0.052
					l-1.591,1.106l-0.012-0.038c-1.766-1.092-3.415-2.268-4.858-3.479l-0.06-0.05l-0.847,0.379l-0.604,0.403l-0.69,0.652
					l0.023,0.075c0.576,1.825,1.038,3.798,1.371,5.867l-0.023,0.051l-1.663,0.99l-0.009-0.038c-1.657-1.184-3.222-2.472-4.604-3.81
					l-0.057-0.055l-0.872,0.32l-0.631,0.36l-0.733,0.602l0.019,0.077c0.442,1.818,0.756,3.764,0.958,5.948l-0.027,0.048
					l-1.729,0.874l-0.006-0.039c-1.565-1.301-3.036-2.695-4.327-4.121l-0.053-0.058l-0.891,0.257l-0.657,0.315l-0.773,0.551
					l0.014,0.077c0.317,1.844,0.494,3.807,0.541,6l-0.03,0.047l-1.786,0.75l-0.004-0.039c-1.528-1.465-2.86-2.917-4.028-4.413
					l-0.049-0.062l-0.906,0.195l-0.677,0.269l-0.81,0.494l0.008,0.078c0.191,1.947,0.231,3.973,0.12,6.022l-0.033,0.048
					l-1.831,0.623l-0.005-0.04c-1.422-1.577-2.648-3.119-3.709-4.685l-0.044-0.064l-0.919,0.132l-0.692,0.22l-0.843,0.437
					l0.002,0.078c0.054,1.905-0.045,3.873-0.3,6.017l-0.037,0.042l-1.871,0.495l-0.001-0.04c-1.311-1.674-2.428-3.297-3.374-4.931
					l-0.039-0.068l-0.924,0.067l-0.709,0.172l-0.871,0.377l-0.003,0.078c-0.079,1.902-0.314,3.858-0.719,5.981l-0.039,0.041
					l-1.902,0.362l0.004-0.039c-1.193-1.76-2.193-3.458-3.022-5.154l-0.034-0.07l-0.928,0.001l-0.717,0.123l-0.897,0.315
					l-0.008,0.078c-0.198,1.833-0.569,3.768-1.134,5.917l-0.042,0.037l-1.922,0.229l0.007-0.039
					c-1.079-1.854-1.96-3.617-2.657-5.353l-0.029-0.073l-0.926-0.063l-0.723,0.072l-0.917,0.252l-0.014,0.078
					c-0.324,1.8-0.829,3.705-1.544,5.823l-0.045,0.033l-1.934,0.095l0.009-0.039c-0.92-1.865-1.696-3.737-2.275-5.525l-0.024-0.075
					l-0.92-0.127l-0.726,0.021l-0.93,0.188l-0.02,0.076c-0.476,1.831-1.112,3.695-1.946,5.697L125.615,253.345z M126.525,11.719
					c-62.908,0-114.088,51.18-114.088,114.088s51.18,114.088,114.088,114.088s114.088-51.18,114.088-114.088
					S189.434,11.719,126.525,11.719z"/>
				<path fill="#272525" d="M126.477,0.779l1.779,0.005c0.803,1.96,1.416,3.797,1.873,5.614l0.038,0.151l0.152,0.032l0.874,0.18
					l0.75,0.024l0.842-0.111l0.155-0.021l0.049-0.149c0.579-1.75,1.329-3.536,2.292-5.456l1.775,0.13
					c0.648,1.948,1.146,3.875,1.479,5.73l0.027,0.154l0.15,0.042l0.857,0.241l0.746,0.077l0.848-0.053l0.156-0.01l0.06-0.145
					c0.706-1.715,1.579-3.444,2.667-5.283l1.762,0.253c0.537,2.09,0.889,3.994,1.073,5.818l0.017,0.156l0.147,0.054l0.842,0.3
					l0.737,0.129l0.85,0.007l0.156,0.001l0.07-0.14c0.818-1.657,1.837-3.366,3.029-5.083l1.739,0.375
					c0.388,2.103,0.606,4.027,0.665,5.88l0.005,0.157l0.145,0.063l0.819,0.357l0.725,0.179l0.848,0.067l0.157,0.013l0.079-0.137
					c0.896-1.549,2-3.139,3.376-4.858l1.709,0.495c0.235,2.165,0.318,4.1,0.253,5.913l-0.006,0.156l0.139,0.074l0.791,0.414
					l0.713,0.23l0.84,0.124l0.154,0.023l0.089-0.128c1.063-1.543,2.312-3.095,3.709-4.612l1.669,0.613
					c0.09,2.054,0.037,4.043-0.159,5.917l-0.016,0.156l0.133,0.083l0.761,0.468l0.693,0.278l0.828,0.184l0.153,0.034l0.097-0.123
					c1.162-1.463,2.516-2.923,4.022-4.342l1.624,0.728c-0.066,2.165-0.254,4.093-0.572,5.891l-0.027,0.154l0.127,0.092l0.726,0.519
					l0.673,0.328l0.816,0.24l0.15,0.044l0.105-0.116c1.243-1.37,2.655-2.696,4.313-4.051l1.567,0.839
					c-0.211,2.098-0.533,4.008-0.981,5.838l-0.037,0.151l0.12,0.1l0.688,0.569l0.649,0.373l0.797,0.297l0.146,0.055l0.113-0.108
					c1.321-1.259,2.821-2.482,4.584-3.739l1.508,0.947c-0.338,2.02-0.805,3.955-1.388,5.753l-0.048,0.149l0.113,0.108l0.646,0.616
					l0.621,0.417l0.773,0.353l0.142,0.064l0.12-0.099c1.492-1.222,3.119-2.37,4.838-3.413l1.436,1.05
					c-0.498,2.059-1.082,3.906-1.783,5.643l-0.059,0.146l0.105,0.116l0.602,0.658l0.59,0.46l0.748,0.405l0.138,0.075l0.127-0.091
					c1.525-1.092,3.228-2.123,5.062-3.066l1.36,1.148c-0.645,2.021-1.355,3.822-2.173,5.505l-0.068,0.141l0.096,0.123l0.553,0.7
					l0.558,0.499l0.719,0.456l0.133,0.084l0.134-0.083c1.553-0.968,3.273-1.854,5.261-2.705l1.275,1.239
					c-0.789,1.984-1.624,3.732-2.55,5.34l-0.078,0.136l0.088,0.129l0.503,0.737l0.521,0.538l0.684,0.505l0.125,0.093l0.139-0.072
					c1.701-0.882,3.53-1.666,5.439-2.332l1.188,1.326c-0.936,1.943-1.891,3.627-2.918,5.148l-0.088,0.13l0.079,0.136l0.451,0.769
					l0.481,0.574l0.646,0.552l0.119,0.102l0.144-0.063c1.711-0.75,3.54-1.388,5.589-1.947l1.091,1.405
					c-1.026,1.818-2.126,3.477-3.27,4.933l-0.098,0.124l0.069,0.141l0.398,0.798l0.44,0.606l0.607,0.595l0.112,0.109l0.147-0.053
					c1.743-0.628,3.612-1.136,5.709-1.551l0.991,1.477c-1.116,1.692-2.328,3.271-3.605,4.694l-0.105,0.116l0.06,0.145l0.339,0.824
					l0.398,0.634l0.563,0.637l0.104,0.118l0.152-0.042c1.718-0.484,3.617-0.86,5.805-1.15l0.885,1.543
					c-1.366,1.757-2.65,3.207-3.925,4.429l-0.114,0.109l0.05,0.149l0.282,0.847l0.353,0.66l0.518,0.674l0.096,0.124l0.153-0.032
					c1.783-0.371,3.705-0.613,5.871-0.742l0.775,1.602c-1.428,1.606-2.81,2.962-4.223,4.144l-0.12,0.101l0.038,0.152l0.219,0.865
					l0.307,0.682l0.469,0.709l0.087,0.131l0.155-0.021c1.652-0.223,3.438-0.335,5.307-0.335c0.201,0,0.401,0.001,0.603,0.004
					l0.661,1.652c-1.551,1.513-3.023,2.77-4.502,3.839l-0.127,0.092l0.027,0.154l0.161,0.878l0.258,0.702l0.418,0.74l0.077,0.137
					l0.156-0.01c0.74-0.048,1.513-0.072,2.296-0.072c1.155,0,2.341,0.05,3.622,0.153l0.545,1.693
					c-1.568,1.337-3.169,2.521-4.76,3.518l-0.133,0.083l0.018,0.155l0.098,0.888l0.208,0.718l0.365,0.767l0.067,0.142l0.157,0.001
					c1.866,0.009,3.796,0.171,5.896,0.495l0.427,1.728c-1.746,1.284-3.381,2.323-4.994,3.176l-0.139,0.074l0.006,0.157l0.039,0.89
					l0.156,0.731l0.311,0.791l0.057,0.146l0.157,0.011c1.834,0.137,3.749,0.433,5.85,0.905l0.302,1.753
					c-1.848,1.167-3.55,2.089-5.201,2.82l-0.144,0.063l-0.005,0.157l-0.025,0.892l0.105,0.74l0.256,0.812l0.047,0.149l0.155,0.023
					c1.813,0.263,3.7,0.692,5.771,1.309l0.181,1.771c-1.883,1.018-3.646,1.82-5.385,2.45l-0.147,0.054l-0.016,0.156l-0.09,0.888
					l0.054,0.746l0.199,0.826l0.037,0.152l0.152,0.033c1.811,0.396,3.664,0.956,5.665,1.71l0.057,1.779
					c-1.883,0.85-3.748,1.546-5.545,2.068l-0.149,0.044l-0.026,0.154l-0.148,0.879v0.75l0.143,0.838l0.025,0.154l0.15,0.044
					c1.74,0.508,3.55,1.195,5.531,2.101l-0.067,1.778c-1.985,0.74-3.843,1.289-5.676,1.677l-0.153,0.033l-0.037,0.152l-0.21,0.866
					l-0.051,0.748l0.082,0.846l0.016,0.156l0.146,0.054c1.741,0.644,3.548,1.479,5.372,2.482l-0.192,1.769
					c-2.06,0.606-3.95,1.024-5.777,1.277l-0.155,0.021l-0.049,0.15l-0.27,0.851l-0.102,0.74l0.021,0.851l0.004,0.157l0.143,0.064
					c1.706,0.774,3.45,1.732,5.186,2.85l-0.313,1.751c-2.15,0.462-4.065,0.748-5.854,0.871l-0.156,0.011l-0.059,0.146l-0.328,0.829
					l-0.156,0.733l-0.035,0.85l-0.006,0.156l0.137,0.074c1.576,0.849,3.203,1.897,4.975,3.205l-0.436,1.726
					c-2.052,0.305-4.021,0.46-5.9,0.46l-0.156,0l-0.068,0.142l-0.387,0.805l-0.205,0.719l-0.094,0.846l-0.018,0.155l0.132,0.083
					c1.579,1,3.129,2.16,4.737,3.544l-0.553,1.691c-1.165,0.09-2.301,0.136-3.376,0.136c-0.868,0-1.723-0.03-2.542-0.088
					l-0.156-0.011l-0.078,0.136l-0.441,0.775l-0.256,0.704l-0.154,0.836l-0.028,0.154l0.126,0.093
					c1.502,1.101,3.009,2.402,4.48,3.867l-0.672,1.647l-0.385,0.002c-1.921,0-3.779-0.123-5.522-0.366l-0.154-0.021l-0.087,0.129
					l-0.496,0.744l-0.301,0.683l-0.213,0.823l-0.039,0.152l0.12,0.102c1.407,1.191,2.819,2.594,4.199,4.17l-0.785,1.597
					c-2.155-0.149-4.075-0.403-5.868-0.776l-0.152-0.032l-0.096,0.123l-0.545,0.706l-0.351,0.662l-0.268,0.805l-0.049,0.148
					l0.11,0.109c1.332,1.313,2.607,2.771,3.898,4.455l-0.894,1.537c-2.117-0.287-4.015-0.674-5.8-1.184l-0.15-0.043l-0.104,0.116
					l-0.591,0.667l-0.396,0.635l-0.324,0.785l-0.061,0.145l0.104,0.117c1.206,1.357,2.377,2.899,3.577,4.714l-0.998,1.473
					c-2.115-0.435-3.98-0.954-5.703-1.585l-0.147-0.054l-0.113,0.11l-0.634,0.623l-0.44,0.607l-0.379,0.761l-0.069,0.14l0.095,0.124
					c1.126,1.467,2.187,3.087,3.241,4.951l-1.1,1.4c-2.113-0.6-3.938-1.248-5.578-1.98l-0.143-0.064l-0.12,0.102l-0.679,0.579
					l-0.479,0.574l-0.432,0.731l-0.08,0.135l0.087,0.131c1.038,1.55,1.983,3.241,2.886,5.166l-1.193,1.318
					c-2.052-0.737-3.827-1.511-5.426-2.363l-0.138-0.074l-0.127,0.093l-0.718,0.528l-0.519,0.54l-0.48,0.701l-0.089,0.129
					l0.078,0.136c0.898,1.577,1.723,3.329,2.518,5.354l-1.283,1.233c-1.921-0.838-3.686-1.759-5.246-2.737l-0.133-0.083
					l-0.133,0.083l-0.755,0.479l-0.554,0.501l-0.529,0.665l-0.098,0.123l0.067,0.141c0.817,1.704,1.537,3.56,2.141,5.518
					l-1.366,1.14c-1.954-1.024-3.604-2.037-5.041-3.095l-0.127-0.094l-0.14,0.074l-0.785,0.424l-0.59,0.461l-0.574,0.627
					l-0.106,0.116l0.059,0.146c0.687,1.717,1.26,3.566,1.752,5.652l-1.443,1.042c-1.777-1.092-3.397-2.249-4.816-3.439l-0.119-0.101
					l-0.144,0.064l-0.812,0.368l-0.619,0.418l-0.617,0.585l-0.113,0.108l0.047,0.149c0.566,1.793,1.021,3.732,1.353,5.763
					l-1.512,0.938c-1.669-1.186-3.204-2.453-4.563-3.767l-0.113-0.109l-0.146,0.054l-0.838,0.311l-0.646,0.375l-0.656,0.54
					l-0.121,0.1l0.037,0.152c0.436,1.788,0.745,3.7,0.947,5.842l-1.574,0.831c-1.578-1.304-3.021-2.675-4.29-4.076l-0.105-0.115
					l-0.149,0.043l-0.855,0.25l-0.674,0.33l-0.691,0.494l-0.128,0.091l0.027,0.155c0.312,1.813,0.487,3.742,0.537,5.894
					l-1.628,0.718c-1.54-1.466-2.847-2.895-3.995-4.365l-0.097-0.124l-0.153,0.033l-0.87,0.191l-0.694,0.281l-0.725,0.443
					l-0.133,0.082l0.015,0.156c0.188,1.913,0.23,3.904,0.125,5.918l-1.674,0.604c-1.434-1.579-2.638-3.096-3.681-4.636l-0.088-0.129
					l-0.154,0.022l-0.883,0.13l-0.711,0.232l-0.754,0.393l-0.139,0.072l0.004,0.156c0.053,1.873-0.042,3.808-0.289,5.912
					l-1.712,0.485c-1.321-1.677-2.418-3.274-3.349-4.88l-0.079-0.135l-0.155,0.011l-0.888,0.068l-0.728,0.182l-0.779,0.339
					l-0.144,0.063l-0.007,0.157c-0.078,1.87-0.307,3.793-0.7,5.876l-1.741,0.365c-1.203-1.763-2.186-3.433-3-5.101l-0.068-0.14
					h-0.156l-0.893,0.005l-0.736,0.131l-0.803,0.285l-0.147,0.052l-0.017,0.156c-0.195,1.802-0.558,3.704-1.108,5.813l-1.762,0.242
					c-1.089-1.858-1.952-3.591-2.638-5.298l-0.059-0.146l-0.157-0.011l-0.89-0.057l-0.742,0.08l-0.82,0.228l-0.152,0.042
					l-0.027,0.154c-0.318,1.771-0.813,3.643-1.512,5.721L134.544,253c-0.931-1.872-1.692-3.711-2.261-5.469l-0.049-0.149
					l-0.155-0.021l-0.884-0.119l-0.747,0.027l-0.832,0.17l-0.153,0.031l-0.039,0.151c-0.468,1.802-1.093,3.636-1.908,5.604
					l-1.779-0.005c-0.807-1.971-1.42-3.808-1.875-5.614l-0.038-0.151l-0.152-0.032l-0.874-0.18l-0.747-0.024l-0.842,0.11
					l-0.155,0.021l-0.05,0.149c-0.581,1.758-1.332,3.543-2.294,5.456l-1.773-0.128c-0.668-2.014-1.152-3.89-1.479-5.731
					l-0.027-0.154l-0.15-0.043l-0.858-0.242l-0.745-0.076l-0.848,0.053l-0.156,0.01l-0.06,0.145
					c-0.691,1.682-1.565,3.411-2.669,5.282l-1.76-0.253c-0.535-2.075-0.887-3.979-1.075-5.819l-0.017-0.156l-0.147-0.054l-0.84-0.3
					l-0.737-0.128l-0.85-0.007l-0.156-0.001l-0.07,0.14c-0.818,1.657-1.837,3.366-3.029,5.083l-1.739-0.375
					c-0.388-2.101-0.605-4.025-0.665-5.879l-0.005-0.157l-0.145-0.063l-0.818-0.357l-0.726-0.18l-0.848-0.066l-0.157-0.013
					l-0.079,0.136c-0.902,1.559-2.008,3.149-3.377,4.859l-1.709-0.496c-0.235-2.132-0.318-4.067-0.254-5.912l0.006-0.156
					l-0.139-0.073l-0.789-0.414l-0.713-0.23l-0.84-0.125l-0.154-0.023l-0.089,0.129c-1.058,1.54-2.271,3.049-3.709,4.613
					l-1.671-0.615c-0.089-2.066-0.035-4.056,0.159-5.915l0.016-0.156l-0.133-0.083l-0.759-0.467l-0.694-0.279l-0.83-0.184
					l-0.152-0.034l-0.097,0.123c-1.157,1.459-2.51,2.919-4.021,4.342l-1.623-0.729c0.064-2.148,0.251-4.076,0.57-5.891l0.027-0.154
					l-0.127-0.092l-0.725-0.52l-0.673-0.326l-0.814-0.241l-0.15-0.044l-0.106,0.116c-1.204,1.324-2.615,2.649-4.313,4.051
					l-1.568-0.839c0.211-2.094,0.531-4.004,0.979-5.837l0.036-0.151l-0.119-0.1l-0.685-0.57l-0.649-0.374l-0.797-0.297l-0.147-0.055
					l-0.113,0.108c-1.313,1.258-2.813,2.482-4.584,3.74l-1.508-0.947c0.354-2.095,0.808-3.978,1.388-5.752l0.048-0.149l-0.113-0.109
					l-0.646-0.615l-0.621-0.418l-0.773-0.352l-0.143-0.065l-0.121,0.1c-1.403,1.166-2.986,2.282-4.835,3.411l-1.437-1.05
					c0.488-2.018,1.088-3.916,1.783-5.643l0.058-0.145l-0.104-0.116l-0.602-0.658l-0.59-0.46l-0.748-0.405l-0.138-0.075
					l-0.127,0.091c-1.514,1.086-3.17,2.089-5.062,3.065L44.9,222.88c0.646-2.041,1.357-3.842,2.172-5.503l0.069-0.141l-0.098-0.123
					l-0.554-0.699l-0.557-0.5l-0.717-0.456l-0.133-0.084l-0.133,0.082c-1.586,0.975-3.356,1.885-5.264,2.705l-1.276-1.24
					c0.759-1.916,1.617-3.712,2.552-5.339l0.078-0.135l-0.088-0.129l-0.503-0.737l-0.521-0.537l-0.684-0.505l-0.126-0.093
					l-0.139,0.072c-1.64,0.859-3.421,1.622-5.44,2.332l-1.186-1.326c0.927-1.925,1.881-3.61,2.916-5.149l0.088-0.13l-0.078-0.135
					l-0.451-0.769l-0.482-0.572l-0.646-0.552l-0.119-0.101l-0.143,0.062c-1.721,0.748-3.55,1.385-5.588,1.946l-1.092-1.406
					c1.021-1.798,2.121-3.457,3.27-4.933l0.096-0.123l-0.068-0.141l-0.396-0.798l-0.44-0.605l-0.607-0.596l-0.112-0.109
					l-0.147,0.053c-1.708,0.615-3.576,1.123-5.708,1.553l-0.992-1.479c1.146-1.725,2.36-3.303,3.606-4.692l0.104-0.116l-0.06-0.145
					l-0.339-0.825l-0.398-0.633l-0.563-0.637l-0.104-0.118l-0.151,0.043c-1.697,0.481-3.597,0.858-5.805,1.15l-0.885-1.543
					c1.318-1.701,2.602-3.151,3.924-4.431l0.112-0.109l-0.049-0.148l-0.28-0.846l-0.353-0.661l-0.518-0.674l-0.095-0.124
					l-0.154,0.031c-1.834,0.377-3.756,0.62-5.871,0.742L13,181.2c1.432-1.603,2.813-2.959,4.224-4.145l0.119-0.101l-0.038-0.152
					l-0.221-0.863l-0.305-0.683l-0.469-0.709l-0.087-0.131l-0.155,0.021c-1.648,0.223-3.428,0.335-5.29,0.335
					c-0.206,0-0.413-0.001-0.619-0.004l-0.663-1.65c1.52-1.485,2.993-2.742,4.505-3.842l0.126-0.092L14.1,169.03l-0.161-0.878
					l-0.258-0.701l-0.418-0.739l-0.077-0.136l-0.156,0.009c-0.768,0.047-1.558,0.071-2.348,0.071c-1.164,0-2.365-0.052-3.57-0.154
					l-0.545-1.693c1.705-1.436,3.264-2.587,4.759-3.517l0.134-0.083l-0.018-0.156l-0.098-0.887l-0.208-0.72l-0.367-0.767
					l-0.067-0.141l-0.157-0.001c-1.797-0.009-3.727-0.171-5.896-0.495l-0.425-1.728c1.725-1.268,3.358-2.307,4.992-3.175
					l0.139-0.073l-0.006-0.157l-0.037-0.892l-0.156-0.731l-0.313-0.791l-0.058-0.146l-0.156-0.012
					c-1.845-0.139-3.759-0.436-5.848-0.905l-0.305-1.754c1.817-1.149,3.521-2.071,5.204-2.819l0.144-0.063l0.005-0.157l0.025-0.892
					l-0.105-0.74l-0.256-0.811l-0.047-0.149l-0.155-0.023c-1.812-0.263-3.699-0.692-5.771-1.311l-0.182-1.771
					c1.823-0.986,3.636-1.81,5.387-2.45l0.146-0.054l0.017-0.155l0.089-0.889l-0.054-0.745l-0.199-0.827l-0.037-0.152l-0.152-0.034
					c-1.81-0.397-3.665-0.957-5.667-1.711l-0.057-1.777c1.877-0.851,3.743-1.547,5.546-2.069l0.15-0.044l0.026-0.154l0.148-0.878
					l-0.002-0.749l-0.141-0.839l-0.025-0.155l-0.15-0.044c-1.782-0.519-3.644-1.226-5.533-2.101l0.067-1.778
					c1.956-0.729,3.864-1.292,5.676-1.677l0.153-0.033l0.037-0.151l0.212-0.868l0.051-0.746l-0.082-0.847l-0.016-0.156l-0.146-0.054
					c-1.725-0.637-3.483-1.449-5.372-2.482l0.19-1.769c2.034-0.596,3.927-1.014,5.78-1.277l0.155-0.022l0.048-0.149l0.27-0.85
					l0.102-0.741l-0.021-0.85l-0.004-0.157l-0.144-0.064c-1.639-0.735-3.336-1.667-5.187-2.85l0.314-1.751
					c2.122-0.463,4.037-0.748,5.853-0.871l0.157-0.011l0.059-0.146l0.328-0.83l0.154-0.731l0.037-0.85l0.007-0.157l-0.139-0.074
					c-1.605-0.863-3.233-1.912-4.974-3.204l0.436-1.726c2.057-0.306,4.03-0.461,5.9-0.461h0.156l0.068-0.141l0.387-0.804l0.203-0.72
					l0.096-0.845l0.018-0.156l-0.133-0.083c-1.566-0.989-3.117-2.149-4.738-3.545l0.555-1.689c1.182-0.089,2.323-0.135,3.396-0.135
					c0.862,0,1.711,0.029,2.521,0.087l0.156,0.011l0.078-0.136l0.441-0.775l0.256-0.704l0.154-0.836l0.028-0.155l-0.127-0.093
					c-1.45-1.056-2.916-2.321-4.479-3.866l0.67-1.647l0.377-0.001c1.942,0,3.803,0.123,5.531,0.367l0.155,0.022l0.088-0.13
					l0.493-0.743l0.303-0.684L17.6,76.56l0.039-0.152l-0.119-0.102c-1.394-1.179-2.768-2.543-4.2-4.17l0.784-1.596
					c2.141,0.135,4.061,0.389,5.867,0.776l0.154,0.033l0.096-0.124l0.545-0.707l0.349-0.662l0.27-0.807l0.05-0.148l-0.112-0.109
					c-1.312-1.282-2.587-2.739-3.897-4.451l0.894-1.54c2.146,0.295,4.044,0.683,5.8,1.185l0.15,0.043l0.104-0.117l0.591-0.667
					l0.396-0.635l0.324-0.785l0.061-0.145l-0.104-0.117c-1.236-1.389-2.439-2.974-3.577-4.713l0.998-1.472
					c2.087,0.43,3.953,0.949,5.701,1.585l0.148,0.054l0.111-0.109l0.637-0.624l0.44-0.606l0.379-0.761l0.07-0.14l-0.097-0.124
					c-1.142-1.479-2.202-3.099-3.24-4.951l1.1-1.399c2.047,0.571,3.871,1.219,5.576,1.979l0.143,0.063l0.12-0.101l0.681-0.578
					l0.479-0.573l0.432-0.733l0.08-0.135l-0.087-0.13c-1.026-1.541-1.972-3.231-2.888-5.164l1.195-1.319
					c2.018,0.723,3.793,1.496,5.426,2.362l0.139,0.073l0.126-0.092l0.718-0.529l0.519-0.539l0.48-0.701l0.089-0.129l-0.078-0.136
					c-0.895-1.571-1.72-3.324-2.52-5.354l1.284-1.231c1.992,0.879,3.71,1.775,5.247,2.735l0.133,0.083l0.133-0.083l0.753-0.477
					l0.556-0.502l0.529-0.665l0.098-0.123l-0.067-0.142c-0.814-1.694-1.515-3.5-2.141-5.519l1.366-1.138
					c1.899,1.002,3.55,2.016,5.043,3.096L52,32.692l0.138-0.073l0.785-0.424l0.59-0.462l0.572-0.628l0.105-0.116l-0.058-0.146
					c-0.677-1.697-1.25-3.546-1.75-5.651l1.442-1.042c1.845,1.142,3.421,2.268,4.817,3.439l0.119,0.101l0.144-0.064l0.812-0.368
					l0.619-0.419l0.615-0.586l0.113-0.108l-0.047-0.149c-0.566-1.784-1.008-3.669-1.351-5.762l1.512-0.938
					c1.761,1.269,3.255,2.502,4.563,3.767l0.113,0.109l0.146-0.054l0.838-0.311l0.646-0.375l0.656-0.541l0.121-0.1l-0.038-0.152
					c-0.436-1.777-0.745-3.688-0.946-5.841l1.574-0.831c1.565,1.295,3.009,2.666,4.29,4.077l0.105,0.115l0.149-0.043l0.856-0.251
					l0.67-0.329l0.693-0.493l0.129-0.091l-0.027-0.155c-0.314-1.814-0.49-3.743-0.537-5.894l1.628-0.718
					c1.563,1.5,2.87,2.929,3.993,4.367l0.097,0.124l0.153-0.033l0.873-0.191l0.691-0.282l0.725-0.445l0.133-0.082l-0.015-0.156
					c-0.187-1.916-0.229-3.906-0.123-5.917l1.673-0.603c1.362,1.487,2.601,3.046,3.682,4.634l0.088,0.129l0.154-0.022l0.883-0.129
					l0.711-0.232l0.754-0.393l0.139-0.072l-0.004-0.156c-0.053-1.859,0.045-3.848,0.289-5.912l1.712-0.486
					c1.345,1.717,2.44,3.314,3.347,4.88l0.079,0.136l0.155-0.011l0.89-0.068l0.728-0.183l0.777-0.34l0.144-0.063l0.007-0.156
					c0.08-1.881,0.309-3.804,0.699-5.875l1.744-0.366c1.203,1.764,2.186,3.433,3,5.101l0.068,0.141l0.156,0l0.893-0.006l0.736-0.131
					l0.801-0.285l0.147-0.052l0.017-0.156c0.199-1.82,0.563-3.722,1.109-5.812l1.763-0.242c1.101,1.888,1.963,3.622,2.636,5.297
					l0.059,0.146l0.157,0.011l0.892,0.057l0.743-0.08l0.82-0.229l0.15-0.042l0.028-0.154c0.324-1.793,0.818-3.665,1.51-5.721
					l1.776-0.118c0.922,1.853,1.682,3.692,2.259,5.469l0.049,0.149l0.155,0.021l0.884,0.119l0.749-0.027l0.832-0.17l0.153-0.031
					l0.039-0.151C125.031,4.601,125.656,2.767,126.477,0.779 M126.525,240.02c62.978,0,114.213-51.236,114.213-114.213
					S189.503,11.594,126.525,11.594S12.313,62.83,12.313,125.807S63.548,240.02,126.525,240.02 M126.355,0.529l-0.076,0.072
					c-0.773,1.865-1.445,3.765-1.953,5.719l-0.832,0.17l-0.707,0.022l-0.842-0.116c-0.623-1.916-1.412-3.78-2.313-5.582l-0.08-0.067
					l-2.018,0.135l-0.072,0.078c-0.645,1.908-1.188,3.856-1.547,5.84l-0.82,0.229l-0.701,0.071l-0.85-0.058
					c-0.752-1.871-1.68-3.667-2.697-5.407l-0.084-0.061l-2.004,0.275l-0.064,0.082c-0.514,1.947-0.92,3.931-1.139,5.934
					l-0.801,0.285l-0.695,0.12l-0.85,0.002c-0.885-1.812-1.93-3.543-3.068-5.205l-0.09-0.056l-1.979,0.415l-0.061,0.086
					c-0.377,1.98-0.635,3.985-0.721,5.999l-0.777,0.34l-0.688,0.169l-0.848,0.062c-1.012-1.747-2.176-3.394-3.422-4.979
					l-0.094-0.049L91.52,5.605l-0.053,0.09c-0.24,2.002-0.357,4.021-0.301,6.036l-0.754,0.393l-0.672,0.216l-0.842,0.12
					c-1.135-1.666-2.398-3.242-3.764-4.728L85.039,7.69l-1.902,0.686l-0.045,0.094c-0.109,2.011-0.076,4.037,0.119,6.041
					l-0.725,0.445l-0.654,0.263L81,15.397c-1.242-1.59-2.625-3.062-4.082-4.455l-0.1-0.035l-1.85,0.816l-0.039,0.098
					c0.041,2.014,0.199,4.033,0.543,6.019l-0.693,0.493l-0.635,0.308l-0.816,0.236C71.973,17.384,70.5,16,68.943,14.718l-0.1-0.029
					l-1.789,0.944l-0.033,0.1c0.184,2.006,0.48,4.009,0.961,5.966l-0.656,0.541l-0.611,0.352l-0.799,0.293
					c-1.451-1.402-3.027-2.667-4.664-3.843L61.15,19.02l-1.719,1.066l-0.025,0.102c0.322,1.989,0.764,3.963,1.373,5.884
					l-0.615,0.586l-0.586,0.393l-0.775,0.348c-1.545-1.297-3.207-2.449-4.922-3.507l-0.104-0.015l-1.639,1.184l-0.02,0.104
					c0.463,1.961,1.035,3.901,1.781,5.772l-0.572,0.628l-0.559,0.433l-0.75,0.401c-1.635-1.183-3.367-2.218-5.152-3.156
					l-0.104-0.007l-1.555,1.295l-0.01,0.104c0.594,1.926,1.307,3.818,2.18,5.636l-0.529,0.665l-0.527,0.472l-0.719,0.451
					c-1.711-1.068-3.516-1.977-5.361-2.788h-0.104l-1.461,1.4l-0.004,0.104c0.736,1.877,1.57,3.718,2.568,5.47l-0.48,0.701
					l-0.492,0.506l-0.686,0.501c-1.781-0.945-3.645-1.73-5.543-2.407l-0.104,0.007l-1.357,1.499l0.002,0.105
					c0.859,1.822,1.826,3.6,2.943,5.276l-0.432,0.733l-0.455,0.539l-0.65,0.548c-1.84-0.82-3.754-1.477-5.695-2.015l-0.104,0.014
					l-1.25,1.591l0.01,0.104c0.982,1.76,2.072,3.464,3.305,5.06l-0.379,0.761l-0.418,0.569l-0.609,0.593
					c-1.895-0.689-3.85-1.21-5.822-1.613l-0.104,0.021l-1.135,1.674l0.018,0.103c1.1,1.688,2.309,3.312,3.648,4.816l-0.324,0.785
					l-0.377,0.598l-0.566,0.634c-1.939-0.555-3.924-0.933-5.922-1.204l-0.102,0.029l-1.016,1.749l0.023,0.102
					c1.223,1.603,2.535,3.141,3.977,4.55l-0.27,0.807l-0.332,0.623l-0.521,0.671c-1.971-0.423-3.982-0.664-5.992-0.787l-0.098,0.035
					l-0.893,1.815l0.033,0.101c1.328,1.513,2.744,2.958,4.283,4.261l-0.213,0.823l-0.289,0.644l-0.473,0.706
					c-1.843-0.26-3.707-0.37-5.566-0.37c-0.155,0-0.311,0.001-0.465,0.002l-0.098,0.043l-0.762,1.873l0.039,0.097
					c1.43,1.417,2.941,2.766,4.57,3.952l-0.154,0.836l-0.244,0.663l-0.424,0.737c-0.845-0.06-1.691-0.087-2.539-0.087
					c-1.169,0-2.338,0.052-3.502,0.142l-0.094,0.048l-0.631,1.922l0.047,0.095c1.523,1.317,3.131,2.55,4.834,3.624l-0.096,0.845
					l-0.195,0.679l-0.371,0.764c-0.011,0-0.021,0-0.032,0c-2.005,0-4.012,0.178-5.991,0.477l-0.09,0.056l-0.494,1.961l0.051,0.091
					c1.615,1.204,3.301,2.323,5.076,3.277l-0.037,0.85l-0.148,0.689l-0.316,0.79c-2.012,0.136-4.008,0.462-5.975,0.895l-0.086,0.062
					l-0.357,1.99l0.059,0.088c1.695,1.087,3.453,2.09,5.293,2.915l0.021,0.85l-0.1,0.699l-0.26,0.809
					c-1.998,0.283-3.967,0.739-5.9,1.31l-0.08,0.067l-0.217,2.011l0.064,0.083c1.766,0.969,3.592,1.841,5.482,2.539l0.082,0.847
					l-0.051,0.704l-0.205,0.825c-1.971,0.418-3.906,1.011-5.793,1.718l-0.076,0.072l-0.076,2.021l0.07,0.078
					c1.824,0.849,3.713,1.587,5.646,2.15l0.141,0.839l-0.002,0.706l-0.145,0.837c-1.938,0.562-3.824,1.282-5.66,2.118l-0.07,0.078
					l0.064,2.021l0.076,0.073c1.885,0.713,3.813,1.319,5.783,1.752l0.199,0.827l0.047,0.703l-0.088,0.847
					c-1.893,0.691-3.727,1.545-5.498,2.507l-0.064,0.082l0.207,2.013l0.078,0.067c1.93,0.58,3.896,1.055,5.893,1.345l0.256,0.811
					l0.096,0.699l-0.027,0.85c-1.844,0.819-3.609,1.805-5.311,2.884l-0.059,0.088l0.346,1.992l0.084,0.063
					c1.965,0.445,3.961,0.778,5.971,0.93l0.313,0.791l0.145,0.69l0.031,0.85c-1.779,0.945-3.475,2.052-5.096,3.248l-0.051,0.091
					l0.482,1.964l0.09,0.056c1.992,0.301,4.004,0.501,6.02,0.511l0.367,0.767l0.193,0.681l0.09,0.845
					c-1.713,1.064-3.316,2.295-4.855,3.595l-0.047,0.095l0.619,1.926l0.094,0.049c1.222,0.106,2.449,0.162,3.678,0.162
					c0.788,0,1.577-0.023,2.363-0.071l0.418,0.739l0.24,0.663l0.15,0.837c-1.631,1.187-3.156,2.516-4.594,3.926l-0.041,0.098
					l0.754,1.877l0.094,0.043c0.237,0.003,0.475,0.005,0.712,0.005c1.779,0,3.561-0.1,5.323-0.337l0.469,0.709l0.285,0.646
					l0.207,0.823c-1.543,1.298-2.969,2.731-4.309,4.236l-0.031,0.101l0.881,1.82l0.098,0.036c2.012-0.113,4.021-0.347,5.996-0.752
					l0.518,0.674l0.33,0.625l0.264,0.807c-1.449,1.403-2.77,2.932-4.002,4.527l-0.025,0.102l1.006,1.754l0.102,0.03
					c1.996-0.261,3.988-0.618,5.928-1.169l0.563,0.637l0.373,0.6l0.32,0.787c-1.346,1.501-2.564,3.115-3.678,4.795l-0.018,0.104
					l1.127,1.68l0.102,0.023c1.975-0.395,3.936-0.897,5.832-1.58l0.607,0.596l0.412,0.572l0.375,0.763
					c-1.238,1.591-2.342,3.286-3.334,5.04l-0.01,0.104l1.24,1.597l0.104,0.016c1.945-0.532,3.857-1.178,5.707-1.981l0.646,0.552
					l0.453,0.542l0.426,0.734c-1.125,1.673-2.102,3.443-2.973,5.26l-0.004,0.105l1.348,1.507l0.105,0.008
					c1.902-0.665,3.77-1.439,5.557-2.375l0.684,0.505l0.488,0.509l0.477,0.704c-1.004,1.748-1.861,3.579-2.6,5.454l0.004,0.104
					l1.451,1.41h0.104c1.854-0.793,3.66-1.701,5.377-2.757l0.717,0.456l0.523,0.475l0.525,0.668
					c-0.887,1.81-1.607,3.702-2.213,5.623l0.012,0.104l1.545,1.305l0.104-0.007c1.793-0.921,3.535-1.95,5.172-3.125l0.748,0.405
					l0.555,0.437l0.57,0.63c-0.752,1.87-1.344,3.804-1.814,5.763l0.018,0.104l1.633,1.193l0.104-0.014
					c1.721-1.047,3.389-2.189,4.941-3.479l0.773,0.352l0.584,0.397l0.613,0.589c-0.625,1.916-1.078,3.889-1.41,5.875l0.025,0.103
					l1.713,1.076l0.102-0.021c1.645-1.164,3.23-2.421,4.686-3.815l0.797,0.297l0.611,0.355l0.65,0.545
					c-0.479,1.96-0.795,3.952-0.994,5.96l0.031,0.1l1.783,0.954l0.102-0.027c1.557-1.281,3.051-2.641,4.408-4.133l0.814,0.241
					l0.635,0.311l0.688,0.498c-0.35,1.986-0.52,4.001-0.576,6.016l0.039,0.097l1.844,0.828l0.1-0.036
					c1.471-1.379,2.857-2.85,4.109-4.429l0.83,0.184l0.654,0.267l0.721,0.448c-0.209,2.004-0.246,4.028-0.156,6.041l0.047,0.093
					l1.898,0.698l0.096-0.042c1.367-1.482,2.648-3.043,3.791-4.706l0.84,0.125l0.672,0.221l0.75,0.397
					c-0.07,2.015,0.041,4.033,0.266,6.036l0.053,0.091l1.943,0.563l0.092-0.05c1.26-1.568,2.443-3.215,3.453-4.958l0.848,0.066
					l0.684,0.173l0.779,0.344c0.064,2.013,0.316,4.025,0.686,6.003l0.057,0.087l1.979,0.427l0.088-0.055
					c1.152-1.652,2.207-3.381,3.1-5.188l0.85,0.007l0.695,0.124l0.799,0.289c0.205,2.004,0.598,3.992,1.104,5.94l0.064,0.083
					l2.002,0.288l0.084-0.062c1.027-1.735,1.963-3.524,2.73-5.391l0.848-0.053l0.703,0.075l0.816,0.233
					c0.352,1.985,0.877,3.938,1.516,5.85l0.068,0.078l2.018,0.146l0.08-0.067c0.908-1.798,1.715-3.654,2.348-5.568l0.842-0.11
					l0.705,0.026l0.832,0.175c0.492,1.956,1.152,3.864,1.92,5.729l0.076,0.073l2.021,0.006l0.076-0.073
					c0.775-1.862,1.445-3.764,1.953-5.718l0.832-0.17l0.705-0.022l0.842,0.116c0.621,1.917,1.414,3.78,2.314,5.582l0.08,0.067
					l2.018-0.136l0.07-0.077c0.645-1.909,1.191-3.855,1.549-5.841l0.82-0.228l0.701-0.072l0.848,0.058
					c0.752,1.87,1.678,3.671,2.699,5.407l0.084,0.062l2.004-0.275l0.064-0.082c0.512-1.948,0.92-3.932,1.137-5.935l0.803-0.284
					l0.695-0.121l0.85-0.001c0.885,1.812,1.93,3.543,3.068,5.205l0.088,0.056l1.98-0.415l0.059-0.087
					c0.377-1.979,0.637-3.984,0.721-5.999l0.779-0.339l0.688-0.169l0.846-0.062c1.012,1.745,2.174,3.398,3.424,4.979l0.094,0.05
					l1.945-0.552l0.053-0.091c0.238-2.001,0.357-4.02,0.301-6.035l0.754-0.393l0.672-0.216l0.842-0.121
					c1.131,1.67,2.404,3.238,3.762,4.729l0.098,0.043l1.902-0.687l0.045-0.095c0.109-2.01,0.076-4.037-0.121-6.041l0.725-0.443
					l0.656-0.263l0.83-0.179c1.24,1.588,2.623,3.066,4.084,4.453l0.098,0.036l1.852-0.817l0.039-0.097
					c-0.043-2.013-0.201-4.032-0.543-6.019l0.691-0.494l0.637-0.308l0.816-0.235c1.354,1.494,2.828,2.876,4.385,4.157l0.1,0.029
					l1.789-0.944l0.033-0.1c-0.186-2.006-0.484-4.008-0.961-5.966l0.656-0.54l0.611-0.352l0.799-0.293
					c1.447,1.399,3.02,2.679,4.664,3.842l0.102,0.022l1.719-1.066l0.025-0.102c-0.32-1.99-0.768-3.963-1.375-5.885l0.617-0.585
					l0.586-0.393l0.775-0.348c1.543,1.295,3.203,2.456,4.92,3.507l0.104,0.016l1.641-1.185l0.02-0.104
					c-0.459-1.96-1.035-3.902-1.783-5.773l0.574-0.627l0.559-0.433l0.75-0.401c1.621,1.193,3.369,2.226,5.152,3.156l0.104,0.007
					l1.553-1.295l0.012-0.104c-0.59-1.926-1.309-3.818-2.18-5.636l0.529-0.665l0.525-0.471l0.721-0.453
					c1.707,1.069,3.514,1.987,5.359,2.789h0.105l1.459-1.401l0.004-0.104c-0.734-1.877-1.568-3.717-2.566-5.469l0.48-0.701
					l0.492-0.507l0.686-0.501c1.779,0.949,3.645,1.729,5.543,2.408l0.104-0.008l1.357-1.499l-0.004-0.104
					c-0.852-1.823-1.82-3.604-2.941-5.277l0.432-0.731l0.455-0.54l0.648-0.549c1.842,0.823,3.758,1.47,5.697,2.017l0.104-0.015
					l1.25-1.591l-0.01-0.104c-0.99-1.757-2.076-3.458-3.305-5.059l0.379-0.761l0.418-0.57l0.607-0.592
					c1.893,0.694,3.852,1.211,5.824,1.613l0.104-0.021l1.135-1.674l-0.018-0.104c-1.109-1.683-2.309-3.31-3.648-4.816l0.324-0.785
					l0.377-0.598l0.566-0.633c1.939,0.554,3.924,0.936,5.922,1.203l0.102-0.029l1.016-1.748l-0.025-0.102
					c-1.225-1.604-2.537-3.134-3.975-4.551l0.268-0.806l0.334-0.622l0.521-0.671c1.977,0.412,3.977,0.651,5.99,0.787l0.1-0.037
					l0.893-1.814l-0.033-0.1c-1.322-1.517-2.746-2.961-4.283-4.262l0.213-0.823l0.287-0.644l0.475-0.706
					c1.84,0.256,3.7,0.369,5.557,0.369c0.158,0,0.316-0.001,0.475-0.002l0.096-0.042l0.764-1.873l-0.039-0.097
					c-1.424-1.423-2.947-2.763-4.57-3.953l0.154-0.836l0.244-0.663l0.424-0.736c0.852,0.061,1.705,0.089,2.56,0.089
					c1.161,0,2.325-0.052,3.481-0.144l0.094-0.049l0.629-1.922l-0.045-0.094c-1.525-1.317-3.131-2.545-4.834-3.624l0.094-0.846
					l0.197-0.677l0.371-0.766c0.017,0,0.033,0,0.049,0c2,0,4-0.178,5.975-0.476l0.09-0.056l0.494-1.961l-0.051-0.091
					c-1.621-1.2-3.301-2.32-5.076-3.277l0.035-0.85l0.15-0.69l0.316-0.789c2.012-0.139,4.006-0.468,5.975-0.895l0.086-0.062
					l0.355-1.99l-0.057-0.087c-1.693-1.095-3.457-2.083-5.293-2.916l-0.021-0.851l0.1-0.698l0.26-0.81
					c1.996-0.276,3.969-0.738,5.898-1.31l0.08-0.066l0.219-2.012l-0.064-0.082c-1.762-0.974-3.594-1.842-5.482-2.54l-0.082-0.846
					l0.051-0.705l0.203-0.824c1.973-0.418,3.908-1.012,5.795-1.719l0.074-0.072l0.076-2.021l-0.068-0.078
					c-1.832-0.841-3.711-1.586-5.646-2.151l-0.143-0.838l0.004-0.706l0.145-0.838c1.938-0.563,3.822-1.284,5.658-2.117l0.07-0.078
					l-0.064-2.021l-0.074-0.073c-1.885-0.714-3.813-1.32-5.783-1.752l-0.199-0.826l-0.047-0.704l0.088-0.846
					c1.895-0.687,3.727-1.547,5.496-2.508l0.064-0.082l-0.205-2.012l-0.08-0.068c-1.93-0.579-3.896-1.053-5.891-1.343l-0.256-0.812
					l-0.096-0.699l0.027-0.85c1.844-0.816,3.607-1.808,5.309-2.885l0.059-0.087l-0.344-1.993l-0.086-0.062
					c-1.965-0.445-3.961-0.78-5.971-0.93l-0.311-0.791l-0.145-0.691l-0.033-0.849c1.781-0.941,3.475-2.052,5.096-3.248l0.053-0.091
					l-0.484-1.964l-0.088-0.056c-1.99-0.311-4.006-0.502-6.021-0.512l-0.365-0.767l-0.193-0.679l-0.09-0.846
					c1.707-1.07,3.324-2.285,4.855-3.596l0.047-0.094l-0.619-1.925l-0.094-0.051c-1.24-0.102-2.484-0.161-3.729-0.161
					c-0.771,0-1.542,0.022-2.312,0.072l-0.418-0.74l-0.24-0.664l-0.15-0.837c1.633-1.182,3.154-2.516,4.594-3.925l0.039-0.098
					l-0.752-1.878l-0.096-0.043c-0.231-0.003-0.462-0.005-0.693-0.005c-1.784,0-3.571,0.099-5.34,0.337l-0.469-0.709l-0.287-0.646
					l-0.205-0.824c1.545-1.292,2.973-2.729,4.309-4.236l0.031-0.1l-0.881-1.82l-0.098-0.036c-2.012,0.116-4.021,0.342-5.996,0.752
					l-0.518-0.674l-0.33-0.624l-0.266-0.809c1.455-1.396,2.77-2.934,4.004-4.526l0.025-0.102l-1.006-1.755l-0.102-0.029
					c-1.998,0.262-3.986,0.622-5.928,1.169l-0.563-0.637l-0.373-0.601l-0.32-0.786c1.346-1.499,2.57-3.111,3.676-4.796l0.02-0.103
					l-1.127-1.681l-0.102-0.021c-1.977,0.388-3.938,0.896-5.832,1.578l-0.607-0.595l-0.412-0.573l-0.377-0.763
					c1.244-1.583,2.348-3.285,3.334-5.04l0.012-0.104l-1.24-1.598l-0.104-0.015c-1.945,0.527-3.863,1.173-5.709,1.982l-0.646-0.552
					l-0.451-0.543l-0.428-0.735c1.129-1.67,2.104-3.442,2.975-5.26l0.004-0.104l-1.35-1.507l-0.104-0.008
					c-1.906,0.66-3.768,1.447-5.557,2.375l-0.684-0.505l-0.488-0.51l-0.477-0.704c1.006-1.747,1.855-3.579,2.598-5.453l-0.002-0.105
					l-1.451-1.409h-0.105c-1.85,0.789-3.668,1.692-5.375,2.757l-0.719-0.456l-0.523-0.474l-0.523-0.669
					c0.881-1.813,1.604-3.7,2.213-5.622l-0.012-0.105l-1.545-1.304l-0.105,0.007c-1.793,0.918-3.531,1.952-5.17,3.125l-0.748-0.405
					l-0.555-0.437l-0.57-0.63c0.754-1.869,1.344-3.805,1.814-5.764l-0.018-0.103l-1.633-1.194l-0.104,0.015
					c-1.727,1.043-3.381,2.2-4.941,3.479l-0.773-0.353l-0.584-0.396l-0.613-0.589c0.621-1.916,1.082-3.889,1.41-5.876l-0.025-0.102
					l-1.713-1.076l-0.102,0.021c-1.645,1.168-3.227,2.424-4.686,3.814l-0.797-0.297l-0.611-0.354l-0.652-0.545
					c0.48-1.96,0.797-3.952,0.996-5.96l-0.031-0.1l-1.783-0.955l-0.102,0.029c-1.563,1.272-3.055,2.641-4.408,4.132l-0.816-0.24
					l-0.633-0.313l-0.689-0.497c0.352-1.986,0.52-4.001,0.578-6.015l-0.039-0.098l-1.846-0.828l-0.098,0.035
					c-1.471,1.379-2.857,2.851-4.111,4.43l-0.828-0.184l-0.654-0.266l-0.723-0.449c0.209-2.004,0.248-4.028,0.156-6.04l-0.045-0.095
					l-1.898-0.697l-0.096,0.042c-1.369,1.481-2.646,3.045-3.791,4.705l-0.84-0.124l-0.672-0.221l-0.752-0.397
					c0.072-2.015-0.043-4.033-0.264-6.036l-0.053-0.092l-1.943-0.563L161.148,5.3c-1.26,1.569-2.445,3.216-3.453,4.959l-0.848-0.067
					l-0.684-0.172l-0.779-0.344c-0.064-2.014-0.316-4.024-0.686-6.004l-0.059-0.087l-1.977-0.426l-0.088,0.055
					c-1.152,1.652-2.207,3.381-3.1,5.188l-0.85-0.007l-0.695-0.125l-0.801-0.289c-0.203-2.003-0.598-3.992-1.102-5.94l-0.064-0.083
					l-2.002-0.287l-0.086,0.062c-1.029,1.732-1.961,3.526-2.729,5.391l-0.848,0.053l-0.703-0.076l-0.816-0.232
					c-0.355-1.984-0.875-3.938-1.516-5.849l-0.07-0.078l-2.016-0.147l-0.082,0.066c-0.906,1.799-1.713,3.654-2.346,5.568
					l-0.842,0.111l-0.707-0.026l-0.832-0.175c-0.492-1.956-1.15-3.865-1.918-5.729l-0.076-0.073L126.355,0.529L126.355,0.529z
					 M126.525,239.77c-62.939,0-113.963-51.022-113.963-113.963c0-62.939,51.023-113.963,113.963-113.963
					s113.963,51.023,113.963,113.963C240.488,188.748,189.465,239.77,126.525,239.77L126.525,239.77z"/>
			</g>
			<g display="inline">
				<g>
					<g>
						<path fill="#B7B053" stroke="#272525" stroke-width="0.25" stroke-miterlimit="10" d="M141.045,12.761
							C65.08,7.173,50.746,108.84,126.959,115.033l-0.006,4.5c-67.898-4.212-70.492-88.758-12.693-105.997
							c0.205-0.063,0.418-0.321,0.418-0.547c0-0.241-0.172-0.526-0.4-0.594l2.971-3.946"/>
					</g>
				</g>
				<g>
					<g>
						<path fill="#B7B053" stroke="#272525" stroke-width="0.25" stroke-miterlimit="10" d="M196.551,35.164
							C133.557-7.66,70.309,73.218,133.215,116.689l-2.256,3.895C74.264,82.986,114.293,8.47,172.967,22.441
							c0.207,0.049,0.521-0.069,0.635-0.264c0.121-0.209,0.115-0.542-0.051-0.715l4.547-1.932"/>
					</g>
				</g>
				<g>
					<g>
						<path fill="#B7B053" stroke="#272525" stroke-width="0.25" stroke-miterlimit="10" d="M233.418,82.318
							c-33.143-68.584-128.357-30.166-95.615,38.934l-3.9,2.244c-30.301-60.908,41.625-105.424,85.453-63.988
							c0.154,0.146,0.486,0.201,0.68,0.089c0.211-0.12,0.371-0.411,0.314-0.644l4.904,0.6"/>
					</g>
				</g>
				<g>
					<g>
						<path fill="#B7B053" stroke="#272525" stroke-width="0.25" stroke-miterlimit="10" d="M241.768,141.588
							c5.59-75.967-96.076-90.304-102.271-14.091l-4.5-0.008c4.215-67.898,88.76-70.486,105.998-12.688
							c0.061,0.205,0.32,0.418,0.545,0.418c0.242,0,0.527-0.171,0.594-0.4l3.947,2.971"/>
					</g>
				</g>
				<g>
					<g>
						<path fill="#B7B053" stroke="#272525" stroke-width="0.25" stroke-miterlimit="10" d="M219.361,197.093
							c42.826-62.994-38.051-126.244-81.523-63.341l-3.893-2.257c37.6-56.693,112.113-16.661,98.141,42.014
							c-0.049,0.207,0.068,0.521,0.264,0.634c0.209,0.121,0.541,0.116,0.715-0.05l1.932,4.547"/>
					</g>
				</g>
				<g>
					<g>
						<path fill="#B7B053" stroke="#272525" stroke-width="0.25" stroke-miterlimit="10" d="M172.205,233.958
							c68.586-33.141,30.172-128.356-38.93-95.617l-2.242-3.901c60.91-30.298,105.422,41.629,63.984,85.456
							c-0.146,0.154-0.203,0.485-0.09,0.681c0.121,0.21,0.41,0.371,0.645,0.314l-0.602,4.903"/>
					</g>
				</g>
				<g>
					<g>
						<path fill="#B7B053" stroke="#272525" stroke-width="0.25" stroke-miterlimit="10" d="M112.934,242.305
							c75.969,5.594,90.309-96.073,14.096-102.271l0.01-4.5c67.898,4.218,70.482,88.765,12.682,105.999
							c-0.203,0.061-0.418,0.319-0.418,0.545c0,0.242,0.17,0.527,0.4,0.595l-2.971,3.946"/>
					</g>
				</g>
				<g>
					<g>
						<path fill="#B7B053" stroke="#272525" stroke-width="0.25" stroke-miterlimit="10" d="M57.432,219.898
							c62.992,42.828,126.246-38.047,63.344-81.521l2.258-3.893c56.691,37.603,16.656,112.114-42.018,98.139
							c-0.207-0.051-0.521,0.066-0.635,0.262c-0.121,0.21-0.117,0.542,0.049,0.716l-4.547,1.932"/>
					</g>
				</g>
				<g>
					<g>
						<path fill="#B7B053" stroke="#272525" stroke-width="0.25" stroke-miterlimit="10" d="M20.568,172.74
							c33.137,68.587,128.355,30.176,95.619-38.926l3.902-2.242c30.293,60.91-41.635,105.421-85.461,63.98
							c-0.152-0.148-0.484-0.203-0.68-0.091c-0.209,0.121-0.371,0.411-0.314,0.645l-4.904-0.601"/>
					</g>
				</g>
				<g>
					<g>
						<path fill="#B7B053" stroke="#272525" stroke-width="0.25" stroke-miterlimit="10" d="M12.223,113.468
							c-5.596,75.967,96.07,90.312,102.271,14.1l4.502,0.01c-4.221,67.896-88.77,70.479-106.002,12.678
							c-0.059-0.205-0.318-0.418-0.543-0.42c-0.242,0.001-0.527,0.172-0.596,0.401l-3.945-2.972"/>
					</g>
				</g>
				<g>
					<g>
						<path fill="#B7B053" stroke="#272525" stroke-width="0.25" stroke-miterlimit="10" d="M34.633,57.965
							c-42.83,62.99,38.041,126.247,81.52,63.348l3.893,2.259C82.441,180.261,7.93,140.222,21.906,81.548
							c0.053-0.206-0.066-0.521-0.26-0.635c-0.211-0.12-0.543-0.115-0.717,0.051l-1.932-4.547"/>
					</g>
				</g>
				<g>
					<g>
						<path fill="#B7B053" stroke="#272525" stroke-width="0.25" stroke-miterlimit="10" d="M81.793,21.104
							c-68.588,33.134-30.182,128.354,38.922,95.62l2.242,3.903c-60.912,30.292-105.42-41.64-63.979-85.464
							c0.15-0.152,0.203-0.484,0.092-0.68c-0.121-0.209-0.41-0.371-0.645-0.314l0.602-4.903"/>
					</g>
				</g>
			</g>
			
				<circle display="inline" fill="#B7B053" stroke="#272525" stroke-width="0.25" stroke-miterlimit="10" cx="126.959" cy="127.533" r="12.5"/>
		</g>
		<path fill="#B7B053" stroke="#272525" stroke-width="0.25" stroke-miterlimit="10" d="M247.707,128.542l-0.141-0.839l0.002-0.705
			l0.146-0.838c1.936-0.563,3.82-1.285,5.658-2.118l0.07-0.078l-0.064-2.021l-0.076-0.073c-1.883-0.714-3.813-1.32-5.781-1.752
			l-0.201-0.826l-0.047-0.704l0.088-0.846c1.895-0.687,3.729-1.547,5.498-2.508l0.064-0.082l-0.205-2.013l-0.08-0.067
			c-1.93-0.579-3.896-1.054-5.893-1.344l-0.254-0.811l-0.098-0.699l0.027-0.851c1.844-0.815,3.607-1.808,5.311-2.884l0.057-0.087
			l-0.344-1.993l-0.084-0.063c-1.965-0.444-3.961-0.78-5.971-0.929l-0.313-0.791l-0.145-0.691l-0.033-0.85
			c1.783-0.941,3.477-2.051,5.096-3.247l0.053-0.091l-0.482-1.964l-0.09-0.056c-1.99-0.311-4.006-0.502-6.02-0.512l-0.367-0.767
			l-0.193-0.68l-0.09-0.845c1.707-1.07,3.324-2.286,4.855-3.596l0.047-0.095l-0.619-1.925l-0.092-0.05
			c-2.01-0.165-4.029-0.219-6.043-0.09l-0.418-0.74l-0.24-0.663l-0.15-0.837c1.633-1.182,3.154-2.516,4.594-3.926l0.041-0.098
			l-0.754-1.877l-0.094-0.043c-2.014-0.029-4.037,0.063-6.033,0.332l-0.471-0.709l-0.285-0.646l-0.207-0.824
			c1.545-1.292,2.973-2.729,4.309-4.236l0.031-0.1l-0.881-1.82l-0.098-0.037c-2.012,0.117-4.021,0.343-5.996,0.753l-0.518-0.675
			l-0.33-0.624l-0.264-0.808c1.453-1.396,2.77-2.934,4.002-4.527l0.025-0.102l-1.006-1.754l-0.102-0.03
			c-1.998,0.262-3.986,0.623-5.928,1.169l-0.563-0.636l-0.373-0.601l-0.32-0.787c1.346-1.499,2.572-3.11,3.676-4.795l0.02-0.104
			l-1.127-1.68l-0.102-0.022c-1.975,0.388-3.938,0.896-5.832,1.579l-0.607-0.595l-0.412-0.573l-0.375-0.763
			c1.244-1.584,2.348-3.286,3.334-5.04l0.012-0.104l-1.242-1.598l-0.104-0.016c-1.943,0.528-3.861,1.173-5.707,1.982l-0.646-0.552
			l-0.453-0.542l-0.426-0.735c1.127-1.671,2.102-3.442,2.973-5.26l0.004-0.104l-1.348-1.508l-0.105-0.007
			c-1.906,0.659-3.768,1.446-5.557,2.374l-0.684-0.505l-0.488-0.509l-0.477-0.704c1.006-1.748,1.857-3.579,2.6-5.454l-0.004-0.104
			l-1.451-1.41h-0.104c-1.852,0.79-3.668,1.692-5.377,2.758l-0.717-0.457l-0.523-0.474l-0.525-0.668
			c0.881-1.813,1.605-3.701,2.213-5.623l-0.012-0.104l-1.545-1.304l-0.104,0.006c-1.795,0.918-3.533,1.953-5.172,3.126l-0.748-0.405
			l-0.555-0.437l-0.57-0.63c0.754-1.869,1.344-3.805,1.814-5.764l-0.018-0.104l-1.633-1.193l-0.104,0.015
			c-1.727,1.043-3.381,2.199-4.941,3.478l-0.773-0.352l-0.584-0.396l-0.611-0.589c0.619-1.916,1.08-3.889,1.408-5.876l-0.025-0.102
			l-1.713-1.077l-0.102,0.021c-1.643,1.168-3.225,2.424-4.686,3.814l-0.797-0.297l-0.611-0.354l-0.65-0.546
			c0.479-1.959,0.795-3.951,0.994-5.96l-0.031-0.099l-1.783-0.955l-0.102,0.028c-1.561,1.273-3.055,2.641-4.408,4.133l-0.814-0.241
			l-0.635-0.312l-0.688-0.498c0.35-1.985,0.52-4,0.576-6.015l-0.039-0.098l-1.844-0.828l-0.1,0.036
			c-1.471,1.379-2.857,2.851-4.109,4.429l-0.83-0.184l-0.654-0.266l-0.721-0.448c0.209-2.004,0.246-4.028,0.156-6.041l-0.047-0.094
			l-1.898-0.697l-0.096,0.041c-1.367,1.482-2.646,3.045-3.791,4.706l-0.84-0.125l-0.672-0.22l-0.75-0.397
			c0.07-2.015-0.043-4.033-0.266-6.037l-0.053-0.091l-1.943-0.563l-0.092,0.049c-1.26,1.569-2.443,3.216-3.453,4.959l-0.848-0.067
			l-0.684-0.172l-0.779-0.345c-0.064-2.013-0.316-4.024-0.686-6.003l-0.057-0.087l-1.979-0.427l-0.088,0.055
			c-1.152,1.652-2.207,3.381-3.1,5.188l-0.85-0.006l-0.695-0.125l-0.799-0.289c-0.205-2.003-0.6-3.992-1.104-5.94l-0.064-0.083
			l-2.002-0.287l-0.084,0.062c-1.031,1.731-1.963,3.526-2.73,5.391l-0.848,0.052l-0.703-0.075l-0.816-0.233
			c-0.355-1.983-0.875-3.938-1.514-5.849l-0.07-0.078l-2.018-0.147l-0.08,0.067c-0.908,1.799-1.715,3.654-2.348,5.568l-0.842,0.111
			l-0.705-0.027l-0.832-0.175c-0.492-1.955-1.152-3.864-1.92-5.729l-0.076-0.072l-2.021-0.007l-0.076,0.073
			c-0.771,1.864-1.445,3.764-1.953,5.718l-0.832,0.17l-0.705,0.022l-0.842-0.115c-0.623-1.917-1.414-3.78-2.314-5.583l-0.08-0.066
			l-2.018,0.135l-0.07,0.078c-0.646,1.908-1.189,3.856-1.549,5.84l-0.818,0.228l-0.703,0.072l-0.848-0.058
			c-0.754-1.871-1.682-3.667-2.699-5.407l-0.084-0.062l-2.004,0.275l-0.064,0.083c-0.514,1.947-0.92,3.931-1.137,5.934l-0.803,0.284
			l-0.695,0.121l-0.85,0.002c-0.885-1.812-1.93-3.543-3.068-5.205l-0.088-0.056l-1.98,0.414l-0.059,0.087
			c-0.377,1.979-0.637,3.984-0.721,5.999l-0.779,0.339l-0.688,0.17l-0.846,0.061c-1.012-1.746-2.178-3.394-3.424-4.979l-0.094-0.049
			l-1.945,0.552l-0.053,0.09c-0.238,2.002-0.355,4.021-0.301,6.035l-0.754,0.393l-0.672,0.217l-0.842,0.12
			c-1.135-1.667-2.398-3.242-3.762-4.728l-0.096-0.043l-1.904,0.686L83.1,8.465c-0.109,2.011-0.076,4.037,0.121,6.041l-0.725,0.444
			l-0.656,0.263l-0.83,0.179c-1.244-1.589-2.627-3.061-4.084-4.454l-0.098-0.035l-1.852,0.816l-0.039,0.098
			c0.043,2.013,0.199,4.033,0.543,6.018l-0.691,0.494l-0.637,0.308l-0.816,0.236c-1.355-1.493-2.828-2.876-4.385-4.158l-0.1-0.029
			l-1.789,0.944l-0.033,0.1c0.184,2.006,0.482,4.008,0.961,5.966l-0.656,0.54l-0.611,0.353l-0.799,0.292
			c-1.449-1.401-3.027-2.666-4.664-3.842l-0.102-0.022l-1.719,1.067l-0.025,0.101c0.322,1.99,0.764,3.964,1.375,5.885l-0.617,0.586
			l-0.586,0.393l-0.775,0.348c-1.545-1.297-3.205-2.449-4.92-3.508l-0.104-0.015l-1.641,1.185l-0.02,0.103
			c0.463,1.961,1.037,3.901,1.783,5.773l-0.574,0.628l-0.559,0.433l-0.75,0.4c-1.635-1.183-3.367-2.217-5.152-3.155l-0.104-0.008
			l-1.553,1.296l-0.012,0.104c0.594,1.925,1.309,3.817,2.18,5.635l-0.529,0.666l-0.525,0.471l-0.721,0.452
			c-1.711-1.069-3.514-1.977-5.359-2.789h-0.105l-1.459,1.401l-0.004,0.104c0.734,1.877,1.568,3.718,2.568,5.47l-0.482,0.7
			l-0.492,0.507l-0.686,0.501c-1.781-0.945-3.643-1.731-5.543-2.407l-0.104,0.007l-1.357,1.499l0.004,0.104
			c0.857,1.823,1.824,3.6,2.941,5.277l-0.43,0.732l-0.457,0.54l-0.648,0.548c-1.84-0.821-3.756-1.478-5.697-2.016l-0.104,0.015
			l-1.25,1.59l0.01,0.104c0.982,1.76,2.074,3.463,3.305,5.059l-0.379,0.761l-0.418,0.57l-0.607,0.592
			c-1.895-0.689-3.85-1.21-5.824-1.613l-0.104,0.021l-1.135,1.674l0.018,0.104c1.102,1.687,2.311,3.311,3.648,4.816l-0.324,0.785
			l-0.377,0.598l-0.566,0.633c-1.939-0.554-3.924-0.933-5.922-1.203l-0.102,0.029l-1.016,1.748l0.025,0.102
			c1.221,1.604,2.533,3.141,3.975,4.551l-0.268,0.807l-0.334,0.622l-0.521,0.671c-1.971-0.423-3.98-0.663-5.99-0.787l-0.1,0.036
			l-0.893,1.815l0.033,0.1c1.33,1.514,2.744,2.959,4.283,4.262l-0.213,0.823l-0.289,0.644l-0.473,0.706
			c-1.996-0.282-4.018-0.388-6.031-0.367l-0.096,0.043L9.5,80.214l0.039,0.098c1.43,1.417,2.943,2.766,4.57,3.952L13.955,85.1
			l-0.244,0.663L13.289,86.5c-2.012-0.143-4.035-0.101-6.043,0.056l-0.092,0.048l-0.631,1.922l0.045,0.095
			c1.523,1.316,3.131,2.549,4.836,3.624l-0.098,0.845l-0.195,0.678l-0.371,0.765c-2.014-0.002-4.033,0.177-6.023,0.477l-0.09,0.055
			l-0.494,1.961l0.053,0.091c1.613,1.204,3.299,2.324,5.076,3.278l-0.037,0.85l-0.15,0.689l-0.316,0.789
			c-2.01,0.137-4.008,0.463-5.975,0.896l-0.084,0.061l-0.357,1.99l0.059,0.088c1.693,1.088,3.453,2.091,5.291,2.915l0.023,0.851
			l-0.102,0.699l-0.26,0.809c-1.996,0.283-3.967,0.738-5.898,1.31l-0.08,0.066l-0.219,2.012l0.064,0.083
			c1.768,0.968,3.592,1.841,5.482,2.539l0.082,0.847l-0.051,0.704l-0.203,0.824c-1.971,0.418-3.908,1.011-5.793,1.719l-0.076,0.072
			l-0.076,2.021l0.068,0.078c1.826,0.85,3.715,1.587,5.646,2.151l0.143,0.838l-0.004,0.707l-0.145,0.837
			c-1.936,0.562-3.824,1.282-5.658,2.117l-0.07,0.078l0.064,2.021l0.074,0.073c1.887,0.713,3.813,1.319,5.783,1.752l0.199,0.826
			l0.047,0.704l-0.088,0.846c-1.893,0.692-3.727,1.546-5.496,2.508l-0.064,0.082l0.205,2.012l0.08,0.068
			c1.93,0.58,3.896,1.054,5.891,1.344l0.256,0.811l0.096,0.699l-0.027,0.85c-1.842,0.819-3.607,1.806-5.309,2.885l-0.059,0.087
			l0.346,1.993l0.084,0.062c1.965,0.445,3.959,0.778,5.971,0.93l0.311,0.791l0.145,0.691l0.033,0.849
			c-1.781,0.946-3.475,2.052-5.096,3.249l-0.053,0.09l0.484,1.964l0.088,0.057c1.992,0.301,4.004,0.501,6.021,0.511l0.365,0.767
			l0.193,0.68l0.09,0.846c-1.713,1.064-3.316,2.294-4.855,3.595l-0.047,0.094l0.619,1.926l0.094,0.05
			c2.008,0.174,4.029,0.213,6.041,0.09l0.42,0.739l0.238,0.664l0.15,0.837c-1.631,1.186-3.156,2.515-4.594,3.925l-0.039,0.098
			l0.752,1.878l0.096,0.043c2.014,0.028,4.035-0.063,6.033-0.332l0.469,0.709l0.285,0.646l0.209,0.824
			c-1.545,1.298-2.971,2.73-4.309,4.236l-0.033,0.1l0.881,1.82l0.1,0.036c2.012-0.112,4.02-0.346,5.994-0.751l0.518,0.673
			l0.33,0.625l0.264,0.808c-1.447,1.403-2.77,2.932-4.002,4.527l-0.025,0.101l1.006,1.755l0.102,0.029
			c1.998-0.261,3.988-0.617,5.928-1.168l0.564,0.636l0.371,0.601l0.32,0.787c-1.346,1.5-2.564,3.114-3.676,4.795l-0.02,0.103
			l1.127,1.681l0.102,0.022c1.977-0.394,3.936-0.897,5.832-1.579l0.607,0.596l0.412,0.572l0.377,0.763
			c-1.24,1.591-2.344,3.285-3.334,5.04l-0.012,0.104l1.24,1.598l0.104,0.016c1.945-0.532,3.857-1.178,5.709-1.982l0.646,0.552
			l0.451,0.543l0.428,0.734c-1.127,1.672-2.104,3.442-2.975,5.26l-0.004,0.104l1.35,1.507l0.104,0.009
			c1.902-0.666,3.77-1.439,5.557-2.376l0.684,0.505l0.488,0.51l0.477,0.704c-1.004,1.748-1.859,3.578-2.598,5.454l0.002,0.104
			l1.451,1.409h0.105c1.852-0.792,3.658-1.7,5.377-2.756l0.717,0.456l0.523,0.474l0.525,0.669c-0.889,1.81-1.609,3.702-2.215,5.622
			l0.012,0.104l1.545,1.305l0.105-0.007c1.791-0.921,3.533-1.95,5.17-3.126l0.748,0.405l0.555,0.437l0.57,0.63
			c-0.752,1.87-1.344,3.805-1.814,5.764l0.018,0.104l1.633,1.193l0.104-0.014c1.723-1.047,3.391-2.19,4.941-3.479l0.773,0.353
			l0.584,0.397l0.613,0.588c-0.623,1.917-1.078,3.89-1.408,5.876l0.023,0.103l1.713,1.076l0.102-0.021
			c1.645-1.164,3.23-2.421,4.688-3.814l0.795,0.297l0.611,0.355l0.652,0.544c-0.48,1.961-0.797,3.953-0.996,5.96l0.031,0.101
			l1.783,0.954l0.102-0.028c1.557-1.28,3.051-2.641,4.408-4.132l0.816,0.24l0.633,0.312l0.689,0.498
			c-0.352,1.986-0.521,4.001-0.578,6.015l0.039,0.097l1.846,0.828l0.098-0.035c1.471-1.379,2.857-2.85,4.111-4.43l0.828,0.184
			l0.654,0.267l0.723,0.449c-0.211,2.004-0.248,4.028-0.156,6.04l0.045,0.094l1.898,0.697l0.096-0.042
			c1.369-1.481,2.648-3.043,3.791-4.705l0.84,0.125l0.672,0.221l0.752,0.396c-0.072,2.016,0.041,4.034,0.264,6.036l0.053,0.092
			l1.943,0.563l0.092-0.049c1.26-1.569,2.443-3.216,3.453-4.959l0.848,0.067l0.684,0.172l0.779,0.344
			c0.064,2.014,0.316,4.025,0.686,6.004l0.059,0.087l1.977,0.426l0.088-0.055c1.152-1.651,2.207-3.381,3.1-5.188l0.85,0.008
			l0.695,0.124l0.801,0.289c0.203,2.004,0.598,3.992,1.102,5.94l0.064,0.083l2.002,0.287l0.086-0.061
			c1.025-1.735,1.961-3.525,2.729-5.392l0.848-0.052l0.703,0.075l0.816,0.232c0.354,1.986,0.879,3.938,1.516,5.85l0.07,0.078
			l2.016,0.147l0.082-0.067c0.906-1.798,1.715-3.654,2.346-5.568l0.842-0.111l0.707,0.026l0.832,0.175
			c0.49,1.957,1.15,3.865,1.918,5.729l0.076,0.074l2.021,0.005l0.076-0.072c0.775-1.862,1.445-3.764,1.953-5.718l0.832-0.171
			l0.707-0.022l0.842,0.116c0.621,1.917,1.412,3.781,2.314,5.582l0.078,0.068l2.018-0.136l0.072-0.077
			c0.643-1.91,1.189-3.856,1.547-5.841l0.82-0.228l0.701-0.072l0.85,0.058c0.752,1.87,1.678,3.67,2.697,5.407l0.084,0.061
			l2.004-0.275l0.064-0.082c0.514-1.947,0.922-3.931,1.139-5.934l0.801-0.284l0.695-0.121l0.85-0.002
			c0.885,1.812,1.93,3.544,3.068,5.205l0.09,0.056l1.979-0.415l0.061-0.086c0.377-1.979,0.635-3.984,0.721-5.999l0.777-0.34
			l0.688-0.169l0.848-0.061c1.01,1.745,2.172,3.398,3.422,4.979l0.094,0.049l1.945-0.552l0.053-0.09
			c0.24-2.001,0.357-4.02,0.301-6.035l0.754-0.393l0.672-0.216l0.842-0.121c1.133,1.67,2.404,3.238,3.764,4.729l0.096,0.042
			l1.902-0.686l0.045-0.095c0.111-2.011,0.076-4.037-0.119-6.041l0.725-0.444l0.654-0.263l0.832-0.179
			c1.24,1.589,2.623,3.066,4.082,4.454l0.1,0.036l1.85-0.817l0.039-0.097c-0.041-2.014-0.199-4.032-0.541-6.019l0.691-0.494
			l0.635-0.308l0.816-0.236c1.354,1.495,2.83,2.877,4.385,4.158l0.1,0.029l1.789-0.944l0.033-0.1
			c-0.184-2.006-0.482-4.008-0.961-5.966l0.656-0.541l0.611-0.351l0.799-0.293c1.449,1.398,3.021,2.679,4.664,3.842l0.102,0.021
			l1.719-1.066l0.025-0.102c-0.32-1.989-0.766-3.962-1.373-5.884l0.615-0.585l0.586-0.393l0.777-0.349
			c1.543,1.296,3.201,2.457,4.92,3.508l0.104,0.015l1.639-1.184l0.02-0.104c-0.459-1.961-1.035-3.902-1.781-5.773l0.572-0.627
			l0.559-0.434l0.75-0.401c1.621,1.194,3.369,2.226,5.152,3.156l0.105,0.008l1.553-1.296l0.01-0.104
			c-0.588-1.926-1.309-3.818-2.18-5.637l0.529-0.665l0.527-0.471l0.719-0.452c1.709,1.068,3.514,1.987,5.361,2.788h0.104l1.461-1.4
			l0.004-0.104c-0.736-1.877-1.57-3.717-2.568-5.47l0.48-0.7l0.492-0.507l0.686-0.501c1.779,0.948,3.646,1.729,5.543,2.407
			l0.104-0.007l1.357-1.499l-0.002-0.105c-0.854-1.822-1.822-3.604-2.943-5.276l0.432-0.732l0.455-0.539l0.65-0.549
			c1.84,0.823,3.756,1.469,5.695,2.016l0.104-0.014l1.25-1.592l-0.01-0.104c-0.99-1.757-2.074-3.459-3.305-5.06l0.379-0.76
			l0.418-0.57l0.609-0.593c1.891,0.694,3.85,1.211,5.824,1.614l0.102-0.022l1.135-1.673l-0.018-0.104
			c-1.109-1.683-2.307-3.311-3.648-4.816l0.324-0.785l0.377-0.598l0.568-0.634c1.939,0.555,3.922,0.937,5.92,1.204l0.102-0.029
			l1.016-1.749l-0.023-0.102c-1.227-1.603-2.539-3.133-3.977-4.55l0.27-0.807l0.332-0.622l0.521-0.671
			c1.977,0.413,3.979,0.652,5.992,0.787l0.098-0.036l0.893-1.814l-0.031-0.101c-1.324-1.517-2.746-2.961-4.285-4.262l0.213-0.822
			l0.289-0.645l0.473-0.705c1.996,0.277,4.018,0.387,6.031,0.366l0.098-0.042l0.762-1.873l-0.039-0.097
			c-1.422-1.423-2.945-2.764-4.57-3.953l0.154-0.836l0.244-0.663l0.424-0.737c2.01,0.144,4.033,0.105,6.041-0.054l0.094-0.049
			l0.629-1.922l-0.045-0.095c-1.523-1.316-3.131-2.545-4.834-3.624l0.096-0.845l0.195-0.678l0.371-0.765
			c2.016,0.003,4.033-0.176,6.023-0.477l0.09-0.055l0.494-1.961l-0.051-0.092c-1.619-1.2-3.301-2.319-5.076-3.277l0.037-0.849
			l0.148-0.69l0.316-0.789c2.014-0.139,4.006-0.469,5.977-0.895l0.084-0.063l0.357-1.99l-0.059-0.087
			c-1.691-1.094-3.457-2.082-5.293-2.916l-0.021-0.85l0.1-0.699l0.262-0.809c1.996-0.277,3.967-0.738,5.898-1.31l0.08-0.067
			l0.217-2.011l-0.064-0.082c-1.762-0.975-3.592-1.843-5.482-2.54l-0.082-0.846l0.051-0.705l0.205-0.825
			c1.971-0.418,3.906-1.012,5.793-1.718l0.074-0.072l0.078-2.021l-0.07-0.078C251.521,129.852,249.643,129.107,247.707,128.542z
			 M239.428,110.188c-19.197-50.241-92.17-49.019-103.182,7.529C110.309,55.601,188.33,20.178,225.65,69.53
			C232.652,81.834,237.424,95.569,239.428,110.188z M218.975,59.15c-41.645-38.746-108.107-0.663-88.873,55.261
			c-55.605-42.416,0.377-115.997,60.02-83.193C201.309,38.754,211.084,48.226,218.975,59.15z M173.668,22.017
			c-0.014,0.056-0.031,0.109-0.059,0.156c-0.111,0.194-0.426,0.313-0.635,0.264C117.26,9.17,78.369,75.686,123.129,114.621
			C51.27,105.371,66.393,7.265,141.055,12.756h-0.002C152.547,14.218,163.506,17.395,173.668,22.017z M114.445,12.478
			c0.145,0.12,0.24,0.326,0.24,0.507c0,0.225-0.213,0.484-0.418,0.546c-54.881,16.37-55.305,93.416,2.922,104.757
			C50.334,146.191,14.393,53.665,81.801,21.1l-1.783,0.639C90.723,16.948,102.299,13.759,114.445,12.478z M58.732,34.201
			c0.143,0.055,0.275,0.155,0.348,0.279c0.111,0.195,0.057,0.527-0.092,0.68c-39.352,41.613-1.203,108.559,54.896,89.271
			C70.918,180.744-4,122.58,32.025,62.098C39.283,51.351,48.33,41.913,58.732,34.201z M21.73,80.978
			c0.145,0.142,0.23,0.39,0.186,0.566c-13.273,55.714,53.238,94.614,92.178,49.861c-8.59,66.659-93.625,58.442-101.486-2.705
			c-0.023-0.963-0.037-1.929-0.037-2.897C12.57,109.888,15.838,94.737,21.73,80.978z M13.844,142.867
			c17.996,52.269,92.756,51.762,103.918-5.525c24.824,59.464-45.625,94.474-84.426,54.059
			C23.363,177.255,16.527,160.742,13.844,142.867z M40.285,200.293c41.709,31.192,102.061-6.021,83.621-59.646
			c49.92,38.086,9.887,101.279-41.979,90.056C65.803,223.836,51.584,213.364,40.285,200.293z M91.244,234.187
			c50.023,3.494,81.598-57.241,39.635-93.749c61.504,7.923,59.279,80.934,10.541,98.36c-4.873,0.636-9.84,0.968-14.887,0.968
			C114.215,239.766,102.355,237.803,91.244,234.187z M150.414,237.251c43.969-22.529,40.568-89.93-13.6-100.48
			c57.418-23.973,92.033,40.883,57.965,80.308C181.844,226.767,166.777,233.762,150.414,237.251z M201.826,211.343
			c27.428-41.539-9.313-98.735-61.705-80.716c38.373-50.303,102.258-9.282,89.805,43.155
			C223.227,188.192,213.607,200.964,201.826,211.343z M233.506,165.188c5.191-51.12-56.627-84.028-93.594-41.534
			c8.299-64.449,88.059-58.915,100.455-3.221c0.082,1.78,0.129,3.569,0.129,5.37C240.496,139.647,238.025,152.913,233.506,165.188z"
			/>
	</g>
</g>
</svg>
