<?xml version="1.0" encoding="utf-8"?>
<!-- Generator: Adobe Illustrator 16.0.0, SVG Export Plug-In . SVG Version: 6.00 Build 0)  -->
<!DOCTYPE svg PUBLIC "-//W3C//DTD SVG 1.1//EN" "http://www.w3.org/Graphics/SVG/1.1/DTD/svg11.dtd">
<svg version="1.1" xmlns="http://www.w3.org/2000/svg" xmlns:xlink="http://www.w3.org/1999/xlink" x="0px" y="0px" width="117px"
	 height="117px" viewBox="0 0 117 117" enable-background="new 0 0 117 117" xml:space="preserve">
<g id="screenshots" display="none">
</g>
<g id="fondo_negro" display="none">
</g>
<g id="imagenes" display="none">
</g>
<g id="texto" display="none">
</g>
<g id="Capa_6" display="none">
</g>
<g id="bienvenido" display="none">
</g>
<g id="landpage">
	<defs>
		<rect id="ventana" x="-1628" y="-160.691" width="1024.5" height="487.98"/>
	</defs>
	<clipPath id="ventana_1_">
		<use xlink:href="#ventana"  overflow="visible"/>
	</clipPath>
</g>
<g id="bocetos">
</g>
<g id="exportaciones">
	<g>
		<g>
			<g display="none">
				
					<line display="inline" fill="#B7B053" stroke="#272525" stroke-width="0.25" stroke-miterlimit="10" x1="66.59" y1="56.887" x2="50.411" y2="60.113"/>
				
					<line display="inline" fill="#B7B053" stroke="#272525" stroke-width="0.25" stroke-miterlimit="10" x1="60.113" y1="66.588" x2="56.887" y2="50.411"/>
			</g>
			<g display="none">
				<g display="inline">
					<polyline fill="#B7B053" stroke="#272525" stroke-width="0.25" stroke-miterlimit="10" points="23.122,40.954 22.589,42.07 
						22.101,43.203 21.639,44.345 21.214,45.507 					"/>
					
						<line fill="#B7B053" stroke="#272525" stroke-width="0.25" stroke-miterlimit="10" x1="24.368" y1="44.154" x2="19.822" y2="42.243"/>
					<polyline fill="#B7B053" stroke="#272525" stroke-width="0.25" stroke-miterlimit="10" points="20.913,39.865 21.47,41.562 
						22.101,43.203 22.786,44.79 23.546,46.321 					"/>
					<polyline fill="#B7B053" stroke="#272525" stroke-width="0.25" stroke-miterlimit="10" points="25.335,42.052 23.717,42.584 
						22.101,43.203 20.481,43.903 18.882,44.694 					"/>
					<polyline fill="#B7B053" stroke="#272525" stroke-width="0.25" stroke-miterlimit="10" points="29.962,36.907 29.308,37.802 
						28.669,38.729 28.066,39.673 27.491,40.629 25.354,39.399 24.917,37.72 25.586,36.687 26.282,35.665 26.026,33.923 
						25.047,33.177 23.265,33.524 22.501,34.635 21.771,35.774 22.149,37.548 					"/>
					<polyline fill="#B7B053" stroke="#272525" stroke-width="0.25" stroke-miterlimit="10" points="34.864,22.354 38.91,28.553 
						36.924,27.663 34.866,26.871 32.733,26.177 30.538,25.581 35.331,31.227 					"/>
					<polyline fill="#B7B053" stroke="#272525" stroke-width="0.25" stroke-miterlimit="10" points="42.95,20.859 41.784,21.37 
						40.638,21.909 39.499,22.481 38.385,23.09 					"/>
					<polyline fill="#B7B053" stroke="#272525" stroke-width="0.25" stroke-miterlimit="10" points="43.895,23.144 42.795,23.615 
						41.718,24.125 40.649,24.667 39.603,25.236 					"/>
					<polyline fill="#B7B053" stroke="#272525" stroke-width="0.25" stroke-miterlimit="10" points="50.742,21.039 49.575,21.303 
						48.415,21.602 47.271,21.932 46.132,22.302 46.789,20.363 47.555,18.426 48.425,16.504 50.155,23.703 					"/>
					<polyline fill="#B7B053" stroke="#272525" stroke-width="0.25" stroke-miterlimit="10" points="56.728,21.527 55.667,22.832 
						54.552,22.936 53.269,21.854 52.569,16.964 53.739,15.571 55.085,15.445 56.491,16.593 56.728,21.527 					"/>
					<polyline fill="#B7B053" stroke="#272525" stroke-width="0.25" stroke-miterlimit="10" points="65.214,19.589 66.429,19.819 
						67.626,20.083 68.823,20.384 70.368,19.545 70.731,18.364 69.79,16.81 68.489,16.48 67.169,16.189 65.841,15.94 64.578,23.232 
											"/>
					
						<line fill="#B7B053" stroke="#272525" stroke-width="0.25" stroke-miterlimit="10" x1="71.052" y1="24.986" x2="72.779" y2="20.37"/>
					
						<line fill="#B7B053" stroke="#272525" stroke-width="0.25" stroke-miterlimit="10" x1="73.212" y1="19.206" x2="73.646" y2="18.051"/>
					<polyline fill="#B7B053" stroke="#272525" stroke-width="0.25" stroke-miterlimit="10" points="77.716,26.861 76.115,27.348 
						75.706,25.723 78.568,20.257 					"/>
					<polyline fill="#B7B053" stroke="#272525" stroke-width="0.25" stroke-miterlimit="10" points="79.642,23.693 78.538,23.055 
						77.425,22.445 76.292,21.871 75.134,21.33 					"/>
					<polyline fill="#B7B053" stroke="#272525" stroke-width="0.25" stroke-miterlimit="10" points="82.45,31.914 81.612,31.173 
						80.749,30.47 79.856,29.791 79.657,28.123 81.062,26.092 82.803,25.83 83.814,26.605 84.798,27.408 85.755,28.243 					"/>
					<polyline fill="#B7B053" stroke="#272525" stroke-width="0.25" stroke-miterlimit="10" points="85.831,31.736 87.562,31.769 
						89.316,31.881 90.132,32.855 89.935,34.602 86.991,36.845 					"/>
					
						<line fill="#B7B053" stroke="#272525" stroke-width="0.25" stroke-miterlimit="10" x1="84.063" y1="33.46" x2="89.355" y2="28.283"/>
					<polyline fill="#B7B053" stroke="#272525" stroke-width="0.25" stroke-miterlimit="10" points="91.009,43.538 91.459,44.567 
						91.883,45.601 92.269,46.651 93.795,47.34 98.504,45.853 99.249,44.199 98.786,42.929 98.276,41.685 97.735,40.447 					"/>
					
						<line fill="#B7B053" stroke="#272525" stroke-width="0.25" stroke-miterlimit="10" x1="98.276" y1="41.685" x2="91.459" y2="44.567"/>
					<polyline fill="#B7B053" stroke="#272525" stroke-width="0.25" stroke-miterlimit="10" points="98.937,53.673 98.761,52.413 
						98.552,51.16 98.302,49.914 98.015,48.675 					"/>
					<polyline fill="#B7B053" stroke="#272525" stroke-width="0.25" stroke-miterlimit="10" points="96.487,53.968 96.327,52.781 
						96.124,51.601 95.893,50.436 95.628,49.27 					"/>
					<polyline fill="#B7B053" stroke="#272525" stroke-width="0.25" stroke-miterlimit="10" points="100.386,56.142 101.677,57.424 
						94.278,57.605 					"/>
					<polyline fill="#B7B053" stroke="#272525" stroke-width="0.25" stroke-miterlimit="10" points="94.282,58.722 94.278,57.605 
						94.231,56.488 					"/>
					
						<line fill="#B7B053" stroke="#272525" stroke-width="0.25" stroke-miterlimit="10" x1="95.435" y1="61.042" x2="94.198" y2="60.96"/>
					<polyline fill="#B7B053" stroke="#272525" stroke-width="0.25" stroke-miterlimit="10" points="100.094,63.99 101.124,65.483 
						100.884,66.818 100.601,68.136 99.085,69.137 97.896,68.819 96.995,67.308 95.507,68.193 94.31,67.885 93.381,66.481 
						93.62,65.391 93.813,64.292 95.203,63.341 					"/>
					
						<line fill="#B7B053" stroke="#272525" stroke-width="0.25" stroke-miterlimit="10" x1="97.251" y1="66.103" x2="96.995" y2="67.308"/>
					<polyline fill="#B7B053" stroke="#272525" stroke-width="0.25" stroke-miterlimit="10" points="98.341,71.648 99.067,73.311 
						98.586,74.568 98.069,75.816 96.392,76.512 95.276,75.986 94.677,74.33 93.048,74.925 91.935,74.399 91.286,72.845 
						91.712,71.818 92.119,70.769 93.657,70.101 					"/>
					
						<line fill="#B7B053" stroke="#272525" stroke-width="0.25" stroke-miterlimit="10" x1="95.149" y1="73.193" x2="94.677" y2="74.33"/>
					<polyline fill="#B7B053" stroke="#272525" stroke-width="0.25" stroke-miterlimit="10" points="89.638,82.789 88.86,83.75 
						88.056,84.685 87.228,85.597 87.235,87.354 88.106,88.232 89.913,88.139 90.825,87.143 91.704,86.119 92.555,85.065 
						86.718,80.509 					"/>
					<polyline fill="#B7B053" stroke="#272525" stroke-width="0.25" stroke-miterlimit="10" points="81.354,92.202 82.394,91.474 
						83.412,90.716 84.405,89.919 85.377,89.096 					"/>
					<polyline fill="#B7B053" stroke="#272525" stroke-width="0.25" stroke-miterlimit="10" points="79.964,90.167 80.944,89.476 
						81.903,88.762 82.839,88.012 83.747,87.242 					"/>
					<polyline fill="#B7B053" stroke="#272525" stroke-width="0.25" stroke-miterlimit="10" points="79.827,94.626 79.282,96.359 
						78.087,96.992 76.876,97.587 75.153,97.005 74.667,95.875 75.3,94.235 73.687,93.606 73.198,92.474 73.73,90.88 74.736,90.395 
						75.724,89.869 77.324,90.382 					"/>
					
						<line fill="#B7B053" stroke="#272525" stroke-width="0.25" stroke-miterlimit="10" x1="76.411" y1="93.693" x2="75.3" y2="94.235"/>
					<polyline fill="#B7B053" stroke="#272525" stroke-width="0.25" stroke-miterlimit="10" points="67.728,94.349 68.499,92.858 
						69.567,92.527 71.048,93.325 72.722,97.97 71.864,99.571 70.572,99.971 68.959,99.133 67.728,94.349 					"/>
					<polyline fill="#B7B053" stroke="#272525" stroke-width="0.25" stroke-miterlimit="10" points="59.811,97.963 58.581,97.99 
						57.346,97.966 56.118,97.917 54.771,99.052 54.654,100.279 55.888,101.614 57.235,101.671 58.586,101.69 59.934,101.664 
						59.687,94.27 					"/>
					<polyline fill="#B7B053" stroke="#272525" stroke-width="0.25" stroke-miterlimit="10" points="53.003,93.862 52.624,96.301 
						50.989,98.519 49.216,100.681 48.507,97.971 47.961,95.272 48.64,92.899 					"/>
					<polyline fill="#B7B053" stroke="#272525" stroke-width="0.25" stroke-miterlimit="10" points="52.624,96.301 51.448,96.098 
						50.273,95.862 49.107,95.581 47.961,95.272 					"/>
					<polyline fill="#B7B053" stroke="#272525" stroke-width="0.25" stroke-miterlimit="10" points="40.175,94.865 41.321,95.417 
						42.485,95.944 43.665,96.422 44.856,96.867 					"/>
					<polyline fill="#B7B053" stroke="#272525" stroke-width="0.25" stroke-miterlimit="10" points="41.284,92.667 42.363,93.183 
						43.452,93.673 44.562,94.125 45.679,94.541 					"/>
					<polyline fill="#B7B053" stroke="#272525" stroke-width="0.25" stroke-miterlimit="10" points="36.72,86.899 37.617,87.561 
						38.535,88.202 39.481,88.813 40.429,89.389 39.188,91.521 37.507,91.948 36.473,91.271 35.459,90.573 33.715,90.812 
						32.968,91.793 33.3,93.579 34.411,94.348 35.542,95.083 37.321,94.719 					"/>
					<polyline fill="#B7B053" stroke="#272525" stroke-width="0.25" stroke-miterlimit="10" points="31.678,84.01 33.351,83.962 
						34.16,84.735 34.183,86.413 30.938,90.128 29.128,90.163 28.151,89.231 28.101,87.416 31.678,84.01 					"/>
				</g>
			</g>
			<g>
				<path fill="#B7B053" d="M53.911,115.932l-0.011-0.005c-0.606-1.516-1.393-3.759-1.334-5.908l-0.015-0.091l-0.1-0.08
					l-2.664-0.382l-0.039,0.084c-0.579,2.121-1.88,3.967-2.964,5.353l-0.048,0.002l-1.754-0.398l-0.009-0.005
					c-0.387-1.718-0.774-3.946-0.396-6.045l0.004-0.096l-0.088-0.09l-2.575-0.794l-0.051,0.08c-0.883,1.981-2.466,3.611-3.763,4.821
					l-0.047-0.005l-1.671-0.668l-0.008-0.007c-0.112-1.896-0.13-4.089,0.556-6.033l0.015-0.092l-0.071-0.103l-2.416-1.187
					l-0.063,0.067c-1.165,1.799-2.992,3.171-4.472,4.174l-0.047-0.012l-1.545-0.921l-0.007-0.009
					c0.171-1.783,0.499-4.048,1.492-5.871l0.036-0.091l-0.058-0.111l-2.204-1.551l-0.073,0.059
					c-1.459,1.616-3.464,2.675-5.067,3.423l-0.046-0.02l-1.387-1.161c0.441-1.727,1.113-3.905,2.394-5.565l0.041-0.082l-0.033-0.124
					l-1.93-1.873l-0.081,0.043c-1.692,1.364-3.842,2.097-5.546,2.587l-0.038-0.025l-1.186-1.354l-0.004-0.01
					c0.704-1.632,1.706-3.676,3.234-5.121l0.056-0.075l-0.016-0.126l-1.615-2.154l-0.087,0.032c-1.866,1.074-4.112,1.466-5.88,1.688
					l-0.035-0.031l-0.958-1.521l-0.003-0.012c0.961-1.51,2.28-3.378,3.995-4.552l0.065-0.065l0.006-0.128l-1.256-2.378l-0.09,0.016
					c-1.387,0.527-2.969,0.765-5.044,0.765c-0.348,0-0.691-0.006-1.03-0.016l-0.027-0.036l-0.713-1.654v-0.01
					c1.17-1.334,2.752-2.968,4.659-3.874l0.076-0.054l0.024-0.125l-0.869-2.546l-0.092,0.002C8.31,74.027,7.572,74.1,6.783,74.1
					c-1.438,0-2.881-0.244-3.857-0.433l-0.024-0.041l-0.439-1.744l0.001-0.01c1.371-1.135,3.195-2.502,5.206-3.095l0.082-0.042
					l0.046-0.12l-0.459-2.65l-0.091-0.012c-0.23,0.002-0.395,0.007-0.559,0.007c-1.911,0-3.824-0.589-5.45-1.171l-0.017-0.044
					l-0.163-1.793l0.003-0.01c1.531-0.904,3.545-1.967,5.628-2.243l0.089-0.028l0.061-0.111L6.8,57.869l-0.089-0.026
					c-2.109-0.222-4.085-1.176-5.752-2.09l-0.01-0.046l0.12-1.796l0.004-0.009c1.582-0.627,3.649-1.338,5.696-1.338l0.213,0.002
					l0.094-0.013l0.076-0.101l0.382-2.661l-0.081-0.041c-2.048-0.545-3.851-1.799-5.355-2.966l-0.002-0.047l0.398-1.754l0.006-0.01
					c1.074-0.241,2.661-0.554,4.219-0.554c0.647,0,1.262,0.054,1.825,0.159l0.095,0.002l0.093-0.087l0.793-2.569L9.45,41.873
					c-1.972-0.882-3.608-2.467-4.826-3.767l0.005-0.047l0.669-1.671l0.008-0.009c0.578-0.038,1.174-0.063,1.774-0.063
					c1.691,0,3.084,0.203,4.257,0.62l0.091,0.014l0.107-0.07l1.186-2.417l-0.067-0.063c-1.863-1.226-3.269-3.127-4.175-4.473
					l0.013-0.045l0.921-1.544l0.01-0.008c1.62,0.148,3.969,0.467,5.869,1.493l0.088,0.029l0.115-0.053l1.551-2.2l-0.057-0.073
					c-1.618-1.458-2.677-3.465-3.425-5.071l0.02-0.043l1.161-1.388c1.726,0.441,3.903,1.112,5.565,2.393l0.083,0.045l0.121-0.037
					l1.875-1.932l-0.045-0.081c-1.352-1.667-2.092-3.827-2.589-5.543l0.026-0.041l1.354-1.184l0.01-0.004
					c1.627,0.703,3.666,1.705,5.123,3.235l0.075,0.058l0.125-0.018l2.15-1.611l-0.027-0.085c-1.089-1.907-1.476-4.136-1.689-5.886
					l0.032-0.036l1.521-0.957l0.01-0.002c1.491,0.94,3.343,2.241,4.555,3.996l0.064,0.063l0.128,0.006l2.378-1.256l-0.017-0.09
					c-0.788-2.084-0.807-4.45-0.748-6.073l0.037-0.03l1.653-0.708l0.013-0.001c1.438,1.283,3.014,2.838,3.869,4.658l0.055,0.075
					l0.124,0.025l2.55-0.87L43.122,9.04c-0.449-2.122-0.128-4.371,0.209-6.112l0.041-0.023l1.746-0.441l0.01,0.001
					c1.128,1.356,2.488,3.167,3.095,5.207l0.042,0.083l0.119,0.043l2.653-0.46l0.011-0.093c-0.104-2.196,0.563-4.353,1.165-6.005
					l0.044-0.017l1.791-0.163l0.011,0.002c0.962,1.644,1.974,3.594,2.243,5.628l0.029,0.086l0.11,0.063l2.691-0.04l0.025-0.089
					c0.221-2.109,1.174-4.083,2.089-5.75l0.047-0.01l1.795,0.119l0.01,0.004c0.607,1.516,1.394,3.758,1.335,5.909l0.015,0.091
					l0.1,0.079l2.665,0.383l0.039-0.086c0.579-2.123,1.88-3.967,2.963-5.352l0.049-0.002l1.753,0.399L72.025,2.5
					c0.387,1.712,0.774,3.935,0.395,6.046L72.418,8.64l0.087,0.091l2.575,0.793l0.051-0.08c0.88-1.973,2.464-3.606,3.763-4.82
					l0.048,0.005l1.67,0.667l0.009,0.008c0.111,1.898,0.128,4.093-0.558,6.032l-0.017,0.093l0.072,0.103l2.415,1.187l0.063-0.067
					c1.168-1.8,2.994-3.172,4.475-4.175l0.044,0.012l1.547,0.922l0.006,0.008c-0.17,1.781-0.497,4.045-1.493,5.871l-0.024,0.085
					l0.05,0.118l2.203,1.552l0.073-0.061c1.46-1.619,3.465-2.675,5.068-3.421l0.042,0.019l1.388,1.161
					c-0.44,1.726-1.11,3.903-2.392,5.565l-0.044,0.083l0.035,0.123l1.934,1.877l0.082-0.049c1.687-1.359,3.837-2.095,5.541-2.586
					l0.038,0.025l1.19,1.361c-0.702,1.63-1.703,3.672-3.235,5.125l-0.054,0.075l0.015,0.126l1.613,2.153l0.087-0.031
					c1.867-1.073,4.112-1.466,5.881-1.688l0.034,0.032l0.959,1.522l0.002,0.011c-0.962,1.511-2.283,3.381-3.994,4.552l-0.067,0.065
					l-0.005,0.128l1.257,2.379l0.09-0.016c1.385-0.527,2.965-0.767,5.041-0.767c0.348,0,0.692,0.006,1.033,0.017l0.026,0.035
					l0.713,1.668c-1.173,1.333-2.756,2.966-4.659,3.871l-0.075,0.054l-0.024,0.125l0.87,2.548l0.094-0.004
					c0.729-0.149,1.466-0.222,2.253-0.222c1.434,0,2.879,0.244,3.861,0.433l0.023,0.042l0.439,1.745l-0.001,0.011
					c-1.372,1.135-3.196,2.5-5.207,3.094l-0.081,0.042l-0.044,0.119l0.459,2.653l0.094,0.01c0.227-0.003,0.39-0.008,0.553-0.008
					c1.923,0,3.918,0.622,5.452,1.172l0.017,0.044l0.164,1.792l-0.003,0.011c-1.529,0.904-3.542,1.967-5.627,2.242l-0.088,0.028
					l-0.063,0.111l0.039,2.689l0.088,0.026c2.117,0.225,4.089,1.178,5.753,2.091l0.01,0.047l-0.123,1.803
					c-1.579,0.627-3.645,1.339-5.7,1.339l-0.21-0.002l-0.094,0.012l-0.078,0.101l-0.38,2.664l0.083,0.04
					c2.044,0.543,3.847,1.797,5.353,2.964l0.002,0.045l-0.402,1.766c-1.075,0.241-2.663,0.553-4.219,0.553
					c-0.648,0-1.264-0.054-1.827-0.16h-0.093l-0.094,0.086l-0.794,2.575l0.08,0.051c1.971,0.88,3.604,2.463,4.82,3.761l-0.005,0.049
					l-0.668,1.669l-0.008,0.01c-0.58,0.037-1.178,0.063-1.779,0.063c-1.689,0-3.081-0.203-4.253-0.62l-0.092-0.015l-0.104,0.071
					l-1.188,2.418l0.071,0.063c1.838,1.208,3.19,3.014,4.172,4.47l-0.013,0.045l-0.92,1.547l-0.009,0.007
					c-1.621-0.148-3.971-0.467-5.873-1.495l-0.089-0.031l-0.112,0.056l-1.548,2.199l0.054,0.073c1.621,1.465,2.678,3.47,3.424,5.072
					l-0.02,0.043l-1.152,1.383l-0.009,0.005c-1.723-0.44-3.899-1.111-5.564-2.393l-0.083-0.043l-0.122,0.035l-1.872,1.929
					l0.042,0.08c1.35,1.665,2.092,3.826,2.59,5.545l-0.026,0.037l-1.354,1.189l-0.012,0.005c-1.628-0.706-3.668-1.709-5.121-3.236
					l-0.074-0.051l-0.127,0.013l-2.149,1.61l0.027,0.085c1.085,1.896,1.473,4.13,1.689,5.886l-0.031,0.035l-1.523,0.958l-0.01,0.002
					c-1.49-0.94-3.342-2.241-4.555-3.996l-0.064-0.067l-0.126-0.002l-2.387,1.258l0.024,0.095c0.789,2.082,0.808,4.445,0.748,6.066
					l-0.037,0.03l-1.653,0.708l-0.011,0.001c-1.438-1.283-3.015-2.837-3.871-4.657l-0.055-0.072l-0.126-0.029l-2.548,0.87
					l0.004,0.094c0.449,2.121,0.128,4.37-0.209,6.111l-0.043,0.024l-1.753,0.441c-1.128-1.356-2.489-3.167-3.096-5.208l-0.042-0.082
					l-0.12-0.045l-2.649,0.461l-0.013,0.09c0.104,2.197-0.563,4.355-1.165,6.008l-0.046,0.018l-1.79,0.162l-0.012-0.003
					c-0.962-1.646-1.974-3.598-2.242-5.627l-0.027-0.09l-0.111-0.061l-2.694,0.041l-0.023,0.093
					c-0.222,2.108-1.175,4.082-2.089,5.747l-0.029,0.006L53.911,115.932z M58.257,12.965c-2.984,0-5.994,0.299-8.947,0.888
					C24.709,18.758,8.686,42.765,13.591,67.367c4.23,21.208,22.974,36.603,44.566,36.604c0.001,0,0.003,0,0.004,0
					c2.981,0,5.99-0.299,8.943-0.888c11.918-2.377,22.196-9.252,28.942-19.36c6.747-10.108,9.153-22.237,6.775-34.154
					C98.591,28.359,79.849,12.965,58.257,12.965z"/>
				<path fill="#272525" d="M61.323,1.082l1.688,0.108c0.599,1.504,1.355,3.694,1.298,5.789l0.007,0.066l0.003,0.023l0.029,0.182
					l0.183,0.026l2.572,0.369l0.186,0.026L67.366,7.5l0.025-0.057l0.005-0.02c0.543-2.017,1.808-3.826,2.874-5.194l1.649,0.372
					c0.379,1.69,0.747,3.864,0.377,5.922l-0.005,0.063v0.02l-0.004,0.188l0.18,0.056l2.484,0.766l0.182,0.056l0.103-0.158
					l0.034-0.053l0.008-0.018c0.826-1.874,2.369-3.477,3.649-4.678L80.5,5.388c0.106,1.869,0.114,4.016-0.555,5.908l-0.015,0.061
					l-0.004,0.019l-0.034,0.187l0.17,0.083l2.333,1.146l0.166,0.082l0.127-0.135l0.046-0.049l0.013-0.019
					c1.096-1.709,2.877-3.057,4.336-4.049l1.453,0.862c-0.171,1.757-0.5,3.967-1.472,5.748l-0.024,0.065l-0.008,0.026l-0.049,0.171
					l0.145,0.103l2.125,1.497l0.156,0.109l0.147-0.121l0.048-0.039l0.013-0.015c1.379-1.541,3.335-2.582,4.917-3.32l1.301,1.078
					c-0.438,1.702-1.102,3.827-2.352,5.446l-0.033,0.057l-0.011,0.019l-0.087,0.166l0.135,0.13l1.865,1.811l0.137,0.134l0.165-0.098
					l0.052-0.031l0.014-0.012c1.598-1.296,3.696-2.023,5.378-2.512l1.116,1.268c-0.695,1.607-1.682,3.597-3.176,5.014l-0.043,0.051
					l-0.014,0.019l-0.107,0.149l0.11,0.147l1.559,2.079l0.11,0.147l0.174-0.062l0.063-0.022l0.02-0.012
					c1.764-1.024,3.957-1.417,5.702-1.64l0.904,1.428c-0.952,1.49-2.25,3.311-3.919,4.453l-0.051,0.043l-0.015,0.015l-0.135,0.13
					l0.087,0.166l1.215,2.299l0.085,0.162l0.181-0.033l0.066-0.012l0.022-0.009c1.304-0.507,2.87-0.743,4.93-0.743
					c0.322,0,0.642,0.005,0.957,0.014l0.672,1.554c-1.159,1.314-2.713,2.902-4.569,3.784l-0.056,0.035l-0.019,0.014l-0.15,0.108
					l0.061,0.175l0.84,2.46l0.061,0.178l0.188-0.009l0.063-0.003l0.021-0.004c0.656-0.143,1.385-0.215,2.164-0.215
					c1.389,0,2.793,0.231,3.768,0.417l0.417,1.639c-1.356,1.118-3.145,2.444-5.104,3.023l-0.062,0.026l-0.021,0.012l-0.161,0.085
					l0.031,0.179l0.443,2.561l0.031,0.186l0.188,0.021l0.064,0.007l0.021-0.001c0.16-0.009,0.32-0.013,0.481-0.013
					c1.877,0,3.828,0.601,5.344,1.141l0.158,1.684c-1.512,0.89-3.482,1.919-5.516,2.188l-0.064,0.017l-0.021,0.006l-0.177,0.056
					l0.003,0.186l0.038,2.598l0.003,0.183l0.175,0.053l0.065,0.02l0.023,0.002c2.005,0.203,3.938,1.129,5.578,2.025l-0.108,1.686
					c-1.559,0.617-3.579,1.303-5.583,1.303l-0.207-0.002l-0.064,0.005l-0.019,0.002l-0.188,0.025l-0.027,0.188l-0.367,2.573
					l-0.025,0.182l0.166,0.079l0.061,0.028l0.023,0.006c1.937,0.505,3.705,1.725,5.189,2.872l-0.369,1.65
					c-1.067,0.237-2.609,0.534-4.117,0.534c-0.641,0-1.248-0.053-1.805-0.157l-0.066-0.004h-0.023h-0.185l-0.055,0.176l-0.766,2.484
					l-0.056,0.182l0.16,0.102l0.051,0.033l0.018,0.007c1.874,0.829,3.479,2.371,4.68,3.65l-0.624,1.573
					c-0.621,0.039-1.177,0.058-1.696,0.058c-1.675,0-3.053-0.201-4.211-0.613l-0.063-0.014l-0.022-0.003l-0.183-0.03l-0.082,0.166
					l-1.146,2.332l-0.084,0.171l0.144,0.126l0.046,0.042l0.016,0.01c1.748,1.141,3.077,2.9,4.049,4.337l-0.861,1.456
					c-1.606-0.15-3.896-0.472-5.75-1.474l-0.057-0.023l-0.02-0.006l-0.178-0.063l-0.108,0.154l-1.496,2.126l-0.079,0.181
					l0.106,0.145l0.015,0.021l0.02,0.017c1.543,1.38,2.584,3.336,3.323,4.917l-1.08,1.302c-1.699-0.438-3.822-1.102-5.446-2.352
					l-0.057-0.034l-0.019-0.01l-0.165-0.087l-0.131,0.134l-1.81,1.864L94.48,95.52l0.084,0.161l0.013,0.022l0.016,0.02
					c1.284,1.566,2.018,3.676,2.512,5.372l-1.27,1.12c-1.605-0.699-3.594-1.688-5.013-3.177l-0.052-0.043l-0.021-0.015l-0.148-0.103
					l-0.145,0.108l-2.078,1.557l-0.129,0.149l0.055,0.17l0.009,0.025l0.013,0.023c1.035,1.787,1.424,3.97,1.641,5.703l-1.429,0.904
					c-1.469-0.931-3.272-2.209-4.454-3.921l-0.041-0.047l-0.015-0.015l-0.13-0.135l-0.166,0.087l-2.301,1.213l-0.173,0.092
					l0.048,0.19l0.014,0.058l0.006,0.014c0.755,1.975,0.783,4.282,0.728,5.89l-1.553,0.67c-1.413-1.265-2.948-2.79-3.784-4.567
					l-0.039-0.06l-0.016-0.021l-0.109-0.144l-0.171,0.058l-2.459,0.84l-0.177,0.061l0.008,0.188l0.003,0.064l0.005,0.021
					c0.434,2.009,0.128,4.209-0.202,5.929l-1.638,0.42c-1.111-1.34-2.432-3.115-3.024-5.105l-0.026-0.062l-0.011-0.021l-0.084-0.164
					l-0.182,0.031l-2.56,0.445l-0.18,0.031l-0.025,0.181l-0.009,0.066l0.001,0.024c0.109,2.082-0.535,4.195-1.127,5.828
					l-1.684,0.157c-0.944-1.622-1.927-3.534-2.188-5.516l-0.016-0.062l-0.006-0.02l-0.055-0.181l-0.188,0.003l-2.599,0.039
					l-0.19,0.003l-0.048,0.185l-0.016,0.06l-0.002,0.019c-0.202,2.001-1.128,3.936-2.025,5.577l-1.688-0.107
					c-0.599-1.504-1.355-3.696-1.298-5.789l-0.007-0.067l-0.003-0.022l-0.028-0.183l-0.184-0.026l-2.572-0.369l-0.184-0.026
					l-0.078,0.169l-0.027,0.06l-0.006,0.021c-0.541,2.012-1.806,3.822-2.873,5.192l-1.649-0.37
					c-0.378-1.696-0.747-3.875-0.378-5.922l0.005-0.062l0.001-0.017l0.008-0.193l-0.184-0.057l-2.484-0.767l-0.182-0.056
					l-0.103,0.158l-0.034,0.053l-0.008,0.018c-0.83,1.883-2.371,3.482-3.649,4.679l-1.571-0.624
					c-0.107-1.866-0.115-4.011,0.553-5.909l0.015-0.062l0.003-0.021l0.031-0.183l-0.167-0.082l-2.333-1.146l-0.166-0.082
					l-0.127,0.135l-0.045,0.048l-0.012,0.02c-1.096,1.708-2.876,3.056-4.336,4.05l-1.455-0.863c0.173-1.759,0.502-3.971,1.472-5.748
					l0.022-0.054l0.006-0.015l0.072-0.183l-0.161-0.113l-2.127-1.497l-0.152-0.107l-0.146,0.116l-0.05,0.04l-0.015,0.016
					c-1.377,1.539-3.335,2.582-4.917,3.323l-1.301-1.08c0.438-1.703,1.104-3.828,2.353-5.446l0.034-0.059l0.011-0.021l0.082-0.164
					l-0.132-0.127l-1.864-1.81l-0.131-0.128l-0.161,0.087l-0.06,0.032l-0.019,0.015c-1.597,1.299-3.694,2.024-5.375,2.511
					l-1.117-1.269c0.697-1.61,1.686-3.602,3.176-5.011l0.042-0.05l0.013-0.017l0.112-0.15l-0.112-0.15l-1.56-2.08l-0.111-0.148
					l-0.175,0.063l-0.061,0.022l-0.02,0.011c-1.764,1.025-3.957,1.418-5.703,1.64l-0.904-1.428c0.951-1.488,2.248-3.308,3.92-4.452
					l0.051-0.044l0.017-0.017l0.13-0.13l-0.086-0.163l-1.214-2.298l-0.085-0.161l-0.18,0.032l-0.067,0.012l-0.023,0.009
					c-1.304,0.506-2.871,0.742-4.931,0.742c-0.321,0-0.641-0.005-0.955-0.014l-0.672-1.551c1.157-1.314,2.71-2.903,4.569-3.786
					l0.056-0.035l0.017-0.012l0.153-0.108l-0.061-0.177l-0.84-2.46l-0.059-0.174L9.04,73.753l-0.066,0.001L8.95,73.76
					c-0.658,0.143-1.387,0.215-2.167,0.215c-1.395,0-2.795-0.231-3.765-0.417L2.601,71.92c1.355-1.118,3.144-2.444,5.104-3.023
					l0.063-0.027l0.021-0.01l0.164-0.084L7.92,68.594l-0.443-2.56l-0.031-0.181l-0.182-0.024L7.196,65.82l-0.023,0.001
					c-0.161,0.009-0.323,0.013-0.484,0.013c-1.866,0-3.74-0.569-5.342-1.14L1.19,63.01c1.512-0.89,3.484-1.919,5.516-2.188
					l0.062-0.015L6.788,60.8l0.179-0.055l-0.003-0.187l-0.038-2.599l-0.003-0.184l-0.176-0.052l-0.066-0.02l-0.023-0.002
					C4.66,57.5,2.724,56.574,1.081,55.677l0.108-1.687c1.563-0.616,3.584-1.302,5.579-1.302c0.07,0,0.141,0,0.211,0.002l0.063-0.005
					l0.02-0.003l0.188-0.025l0.027-0.187l0.369-2.572L7.632,49.7L7.47,49.62l-0.023-0.012l-0.025-0.006
					c-1.938-0.505-3.707-1.726-5.19-2.873l0.37-1.649c1.066-0.237,2.607-0.535,4.118-0.535c0.64,0,1.246,0.053,1.803,0.157
					l0.065,0.005l0.02,0l0.189,0.004l0.056-0.18l0.765-2.482l0.055-0.174l-0.149-0.104l-0.056-0.04l-0.023-0.01
					c-1.868-0.824-3.475-2.367-4.68-3.648L5.388,36.5c0.619-0.039,1.174-0.057,1.692-0.057c1.677,0,3.056,0.2,4.215,0.613
					l0.066,0.015l0.023,0.003l0.182,0.028l0.081-0.166l1.145-2.334l0.081-0.166l-0.135-0.126l-0.047-0.044l-0.019-0.012
					c-1.771-1.155-3.15-3.004-4.052-4.337l0.863-1.455c1.606,0.15,3.896,0.472,5.747,1.473l0.061,0.024l0.021,0.007l0.177,0.059
					l0.106-0.152l1.498-2.124l0.106-0.151l-0.113-0.146l-0.041-0.053l-0.018-0.015c-1.537-1.374-2.581-3.332-3.322-4.916l1.08-1.302
					c1.702,0.438,3.826,1.104,5.447,2.352l0.054,0.033l0.019,0.01l0.166,0.089l0.132-0.135l1.811-1.865l0.129-0.133l-0.09-0.163
					l-0.031-0.057l-0.015-0.018c-1.287-1.573-2.02-3.683-2.513-5.376l1.27-1.117c1.604,0.697,3.592,1.685,5.014,3.176l0.047,0.04
					l0.016,0.012l0.15,0.116l0.151-0.114l2.08-1.558l0.129-0.149l-0.055-0.17l-0.009-0.025l-0.013-0.022
					c-1.04-1.798-1.426-3.976-1.641-5.704l1.428-0.903c1.47,0.931,3.273,2.21,4.454,3.921l0.046,0.051l0.018,0.017l0.13,0.126
					l0.161-0.084l2.297-1.213l0.162-0.086l-0.033-0.181l-0.012-0.064l-0.009-0.021c-0.755-1.971-0.783-4.28-0.729-5.891l1.554-0.67
					c1.414,1.265,2.949,2.792,3.783,4.568l0.035,0.056l0.014,0.019l0.109,0.15l0.175-0.06l2.461-0.84l0.177-0.061l-0.008-0.188
					L43.244,8.97L43.239,8.95c-0.434-2.01-0.128-4.21,0.201-5.93l1.64-0.419c1.11,1.341,2.431,3.115,3.023,5.104l0.025,0.06
					l0.01,0.02l0.083,0.166l0.184-0.031l2.562-0.444l0.185-0.032l0.021-0.186l0.008-0.063l-0.001-0.021
					c-0.107-2.083,0.536-4.194,1.128-5.826l1.682-0.158c0.944,1.62,1.926,3.531,2.189,5.516l0.017,0.065l0.008,0.022l0.058,0.173
					l0.184-0.002l2.599-0.038l0.186-0.003l0.051-0.178l0.018-0.063l0.003-0.022C59.498,4.659,60.425,2.724,61.323,1.082
					 M58.157,104.096c2.992,0,6.012-0.3,8.972-0.89c11.95-2.383,22.258-9.278,29.022-19.413c6.765-10.136,9.178-22.298,6.793-34.248
					C98.702,28.276,79.908,12.84,58.257,12.84c-2.992,0-6.011,0.3-8.972,0.89C24.616,18.649,8.55,42.722,13.469,67.391
					C17.711,88.659,36.505,104.096,58.157,104.096 M61.269,0.828l-0.104,0.021C60.194,2.613,59.253,4.6,59.05,6.634l-0.012,0.041
					l-2.599,0.038l-0.014-0.041c-0.27-2.03-1.266-3.979-2.286-5.72l-0.104-0.019l-1.824,0.171l-0.097,0.037
					c-0.693,1.893-1.292,4.004-1.187,6.044l-0.005,0.043l-2.562,0.444l-0.02-0.039c-0.582-1.956-1.863-3.745-3.152-5.291
					l-0.104-0.002l-1.776,0.454L43.22,2.847c-0.385,1.975-0.655,4.16-0.225,6.155l0.002,0.043l-2.461,0.84L40.511,9.85
					C39.642,8,38.071,6.452,36.571,5.116l-0.105,0.016l-1.682,0.726l-0.082,0.065c-0.075,2.014,0.01,4.208,0.74,6.116l0.008,0.042
					l-2.297,1.213l-0.031-0.03c-1.16-1.681-2.929-2.985-4.635-4.059l-0.099,0.03l-1.549,0.979l-0.069,0.078
					c0.242,2,0.664,4.154,1.688,5.924l0.014,0.042l-2.079,1.558l-0.034-0.026c-1.41-1.479-3.361-2.486-5.213-3.284l-0.094,0.046
					l-1.375,1.21l-0.058,0.089c0.557,1.932,1.301,4.006,2.595,5.587l0.021,0.037l-1.811,1.865l-0.038-0.021
					c-1.616-1.245-3.715-1.933-5.661-2.428l-0.085,0.06l-1.17,1.41l-0.044,0.096c0.847,1.824,1.915,3.754,3.437,5.112l0.027,0.035
					l-1.498,2.124l-0.041-0.014c-1.795-0.97-3.965-1.332-5.97-1.513l-0.076,0.073L8.37,29.85l-0.027,0.101
					c1.125,1.676,2.48,3.396,4.193,4.513l0.031,0.029l-1.145,2.334l-0.044-0.007c-1.348-0.48-2.838-0.627-4.299-0.627
					c-0.621,0-1.237,0.026-1.835,0.066l-0.063,0.084l-0.677,1.703L4.493,38.15c1.375,1.471,2.979,2.975,4.849,3.8l0.036,0.025
					l-0.766,2.482l-0.045-0.001c-0.604-0.113-1.224-0.161-1.849-0.161c-1.45,0-2.927,0.259-4.297,0.568l-0.05,0.093l-0.401,1.787
					l0.005,0.104c1.587,1.233,3.407,2.48,5.383,2.995l0.039,0.02l-0.369,2.572l-0.043,0.006c-0.072-0.001-0.145-0.002-0.217-0.002
					c-1.973,0-3.982,0.647-5.789,1.366l-0.035,0.099l-0.117,1.829l0.021,0.103c1.766,0.971,3.751,1.911,5.784,2.115l0.043,0.013
					l0.038,2.599l-0.041,0.013c-2.025,0.269-3.988,1.26-5.721,2.286l-0.018,0.103l0.17,1.825l0.037,0.099
					c1.742,0.626,3.662,1.198,5.547,1.198c0.166,0,0.332-0.004,0.498-0.014l0.044,0.006l0.443,2.56l-0.04,0.021
					c-1.958,0.578-3.743,1.868-5.291,3.152l-0.002,0.104l0.453,1.777l0.053,0.089c1.262,0.246,2.607,0.446,3.937,0.446
					c0.752,0,1.498-0.064,2.22-0.22l0.043-0.001l0.84,2.46L9.85,76.489c-1.841,0.874-3.41,2.431-4.732,3.941l0.013,0.104
					l0.728,1.681l0.063,0.083c0.359,0.011,0.725,0.018,1.094,0.018c1.695,0,3.455-0.151,5.021-0.759l0.044-0.008l1.214,2.298
					l-0.031,0.031c-1.686,1.153-2.98,2.935-4.059,4.633l0.031,0.101l0.979,1.547l0.077,0.07c1.999-0.248,4.157-0.66,5.925-1.688
					l0.04-0.015l1.56,2.08l-0.026,0.035c-1.482,1.401-2.49,3.363-3.284,5.211l0.046,0.094l1.211,1.376l0.086,0.057
					c1.936-0.554,4.003-1.304,5.588-2.593l0.038-0.021l1.864,1.81l-0.02,0.039c-1.246,1.614-1.934,3.714-2.429,5.661l0.06,0.085
					l1.41,1.17l0.098,0.043c1.823-0.848,3.75-1.916,5.111-3.437l0.033-0.026l2.127,1.497l-0.016,0.04
					c-0.978,1.793-1.322,3.969-1.513,5.972l0.073,0.075l1.576,0.935l0.102,0.027c1.665-1.126,3.409-2.475,4.511-4.193l0.029-0.031
					l2.333,1.146l-0.007,0.041c-0.681,1.932-0.681,4.121-0.56,6.136l0.084,0.063l1.703,0.676l0.104,0.012
					c1.473-1.37,2.978-2.979,3.801-4.848l0.023-0.036l2.484,0.767l-0.002,0.045c-0.363,2.012-0.037,4.178,0.408,6.145l0.092,0.05
					l1.787,0.401l0.105-0.005c1.243-1.586,2.465-3.408,2.995-5.382l0.019-0.04l2.572,0.369l0.007,0.044
					c-0.056,2.037,0.613,4.142,1.362,6.006l0.1,0.035l1.829,0.116l0.103-0.021c0.971-1.765,1.911-3.752,2.117-5.785l0.011-0.042
					l2.599-0.039l0.013,0.042c0.269,2.03,1.266,3.979,2.285,5.72l0.104,0.019l1.824-0.17l0.098-0.038
					c0.693-1.894,1.292-4.003,1.186-6.045l0.006-0.042l2.56-0.445l0.021,0.04c0.582,1.956,1.863,3.745,3.152,5.291l0.104,0.003
					l1.775-0.455l0.092-0.053c0.385-1.974,0.656-4.158,0.225-6.154l-0.002-0.043l2.459-0.84l0.027,0.036
					c0.869,1.848,2.44,3.397,3.94,4.732l0.104-0.015l1.682-0.726l0.082-0.065c0.076-2.015-0.01-4.207-0.739-6.115l-0.011-0.043
					l2.3-1.213l0.029,0.03c1.161,1.681,2.931,2.986,4.635,4.059l0.099-0.03l1.55-0.98l0.069-0.077c-0.244-2-0.663-4.155-1.688-5.924
					l-0.014-0.042l2.078-1.557l0.035,0.024c1.41,1.48,3.361,2.486,5.211,3.285l0.096-0.047l1.373-1.211l0.061-0.086
					c-0.558-1.933-1.301-4.008-2.596-5.587l-0.021-0.039l1.81-1.864l0.039,0.021c1.616,1.244,3.713,1.933,5.66,2.428l0.086-0.06
					l1.17-1.411l0.043-0.096c-0.846-1.823-1.916-3.752-3.437-5.112l-0.024-0.033l1.496-2.126l0.039,0.014
					c1.797,0.971,3.967,1.333,5.973,1.514l0.076-0.072l0.933-1.577l0.028-0.101c-1.125-1.674-2.479-3.396-4.191-4.513l-0.033-0.029
					l1.146-2.332l0.042,0.007c1.348,0.479,2.835,0.627,4.295,0.627c0.623,0,1.24-0.027,1.84-0.066l0.063-0.085l0.676-1.702
					l0.011-0.105c-1.374-1.471-2.978-2.973-4.848-3.8l-0.035-0.022l0.766-2.484h0.044c0.604,0.113,1.225,0.162,1.851,0.162
					c1.45,0,2.928-0.26,4.297-0.568l0.049-0.092l0.4-1.789l-0.004-0.104c-1.586-1.232-3.406-2.48-5.383-2.995l-0.039-0.019
					l0.367-2.573l0.045-0.006c0.07,0.001,0.142,0.002,0.213,0.002c1.975,0,3.986-0.646,5.792-1.367l0.036-0.098l0.117-1.828
					l-0.021-0.104c-1.764-0.971-3.75-1.91-5.785-2.116l-0.042-0.013l-0.038-2.598l0.043-0.014c2.023-0.268,3.986-1.258,5.719-2.285
					l0.019-0.104l-0.171-1.824l-0.037-0.099c-1.744-0.627-3.664-1.199-5.549-1.199c-0.166,0-0.33,0.004-0.495,0.014l-0.044-0.005
					l-0.443-2.561l0.037-0.02c1.961-0.579,3.744-1.868,5.293-3.152l0.001-0.104l-0.452-1.775l-0.052-0.092
					c-1.263-0.245-2.61-0.446-3.941-0.446c-0.75,0-1.495,0.064-2.216,0.22l-0.043,0.002l-0.84-2.46l0.035-0.025
					c1.842-0.875,3.41-2.431,4.734-3.941l-0.016-0.104l-0.727-1.682l-0.063-0.083c-0.361-0.011-0.727-0.018-1.097-0.018
					c-1.695,0-3.454,0.151-5.021,0.76l-0.043,0.008l-1.214-2.299l0.032-0.031c1.686-1.153,2.979-2.936,4.058-4.632l-0.03-0.102
					l-0.979-1.547l-0.077-0.071c-2,0.249-4.156,0.661-5.924,1.688l-0.041,0.015l-1.559-2.079l0.025-0.035
					c1.48-1.403,2.49-3.364,3.283-5.211l-0.043-0.094l-1.212-1.376l-0.087-0.058c-1.936,0.556-4.002,1.306-5.589,2.594l-0.036,0.021
					l-1.865-1.811l0.021-0.039c1.245-1.614,1.933-3.714,2.427-5.661l-0.06-0.085l-1.411-1.17l-0.094-0.042
					c-1.824,0.846-3.752,1.914-5.113,3.435l-0.033,0.027l-2.125-1.497l0.012-0.041c0.979-1.793,1.324-3.969,1.514-5.972
					l-0.072-0.074l-1.576-0.935l-0.101-0.028c-1.667,1.127-3.41,2.476-4.513,4.193l-0.03,0.032l-2.333-1.146l0.008-0.042
					c0.683-1.931,0.682-4.121,0.562-6.134l-0.085-0.064l-1.702-0.675l-0.104-0.012c-1.471,1.371-2.978,2.979-3.801,4.847
					l-0.023,0.036l-2.484-0.766l0.001-0.044c0.362-2.014,0.04-4.178-0.407-6.146l-0.092-0.049L70.257,1.97l-0.105,0.006
					c-1.244,1.586-2.465,3.408-2.996,5.383l-0.018,0.039l-2.572-0.369l-0.007-0.043c0.056-2.038-0.614-4.145-1.363-6.007
					l-0.099-0.034L61.269,0.828L61.269,0.828z M58.157,103.846c-21.19,0-40.14-14.928-44.443-36.503
					c-4.9-24.574,11.047-48.467,35.62-53.367c2.997-0.598,5.979-0.885,8.923-0.885c21.191,0,40.139,14.928,44.442,36.503
					c4.903,24.573-11.046,48.466-35.619,53.367C64.084,103.558,61.101,103.846,58.157,103.846L58.157,103.846z"/>
			</g>
			<g>
				<path fill="#272525" d="M58.262,9.412c23.278,0,43.483,16.597,48.043,39.463c2.563,12.847-0.03,25.923-7.303,36.82
					c-7.272,10.896-18.354,18.309-31.202,20.872c-3.183,0.635-6.428,0.957-9.645,0.957c-23.279,0-43.486-16.597-48.048-39.463
					c-2.563-12.848,0.032-25.925,7.306-36.821s18.354-18.309,31.202-20.871C51.799,9.733,55.044,9.412,58.262,9.412 M58.262,9.162
					c-3.198,0-6.439,0.313-9.695,0.962c-26.7,5.324-44.029,31.285-38.704,57.986c4.677,23.445,25.267,39.664,48.293,39.664
					c3.196,0,6.439-0.313,9.693-0.961c26.7-5.327,44.029-31.287,38.701-57.986C101.875,25.381,81.288,9.162,58.262,9.162
					L58.262,9.162z"/>
			</g>
		</g>
		<g>
			<g display="none" opacity="0.5">
				
					<line display="inline" fill="#B7B053" stroke="#272525" stroke-width="0.25" stroke-miterlimit="10" x1="66.333" y1="56.938" x2="50.154" y2="60.164"/>
				
					<line display="inline" fill="#B7B053" stroke="#272525" stroke-width="0.25" stroke-miterlimit="10" x1="59.856" y1="66.639" x2="56.63" y2="50.462"/>
			</g>
			<g display="none">
				<g display="inline">
					<polyline fill="#B7B053" stroke="#272525" stroke-width="0.25" stroke-miterlimit="10" points="41.588,48.248 41.272,48.773 
						40.974,49.303 40.695,49.847 40.436,50.404 					"/>
					
						<line fill="#B7B053" stroke="#272525" stroke-width="0.25" stroke-miterlimit="10" x1="42.057" y1="49.886" x2="39.899" y2="48.727"/>
					<polyline fill="#B7B053" stroke="#272525" stroke-width="0.25" stroke-miterlimit="10" points="40.548,47.595 40.747,48.465 
						40.974,49.303 41.246,50.124 41.547,50.914 					"/>
					<polyline fill="#B7B053" stroke="#272525" stroke-width="0.25" stroke-miterlimit="10" points="42.632,48.888 41.804,49.079 
						40.974,49.303 40.145,49.579 39.315,49.895 					"/>
					<polyline fill="#B7B053" stroke="#272525" stroke-width="0.25" stroke-miterlimit="10" points="41.267,46.52 41.165,45.624 
						41.573,45.096 41.999,44.582 42.899,44.496 43.353,44.91 43.391,45.776 44.248,45.732 44.7,46.146 44.791,46.977 44.43,47.403 
						44.088,47.841 43.265,47.929 					"/>
					
						<line fill="#B7B053" stroke="#272525" stroke-width="0.25" stroke-miterlimit="10" x1="43.005" y1="46.249" x2="43.391" y2="45.776"/>
					<polyline fill="#B7B053" stroke="#272525" stroke-width="0.25" stroke-miterlimit="10" points="48.248,39.602 49.964,42.85 
						49.017,42.316 48.037,41.831 47.024,41.393 45.962,41 48.065,44.003 					"/>
					<polyline fill="#B7B053" stroke="#272525" stroke-width="0.25" stroke-miterlimit="10" points="52.315,39.245 51.716,39.44 
						51.118,39.651 50.532,39.885 49.952,40.136 					"/>
					<polyline fill="#B7B053" stroke="#272525" stroke-width="0.25" stroke-miterlimit="10" points="52.674,40.409 52.106,40.598 
						51.548,40.793 51.001,41.012 50.452,41.249 					"/>
					<polyline fill="#B7B053" stroke="#272525" stroke-width="0.25" stroke-miterlimit="10" points="56.289,40.908 55.738,40.975 
						55.185,41.069 54.642,41.169 54.104,41.293 53.813,40.098 54.273,39.367 54.875,39.255 55.479,39.161 56.013,38.474 
						55.95,37.864 55.216,37.345 54.557,37.452 53.899,37.575 53.391,38.315 					"/>
					<polyline fill="#B7B053" stroke="#272525" stroke-width="0.25" stroke-miterlimit="10" points="57.243,37.765 57.884,37.133 
						57.95,40.804 					"/>
					<polyline fill="#B7B053" stroke="#272525" stroke-width="0.25" stroke-miterlimit="10" points="58.505,40.802 57.95,40.804 
						57.39,40.823 					"/>
					<polyline fill="#B7B053" stroke="#272525" stroke-width="0.25" stroke-miterlimit="10" points="62.771,39.498 63.364,39.649 
						63.952,39.818 64.536,40.002 65.329,39.635 65.542,39.062 65.122,38.262 64.485,38.063 63.843,37.871 63.194,37.706 
						62.343,41.282 					"/>
					
						<line fill="#B7B053" stroke="#272525" stroke-width="0.25" stroke-miterlimit="10" x1="65.491" y1="42.353" x2="66.493" y2="40.117"/>
					
						<line fill="#B7B053" stroke="#272525" stroke-width="0.25" stroke-miterlimit="10" x1="66.741" y1="39.555" x2="66.995" y2="39"/>
					<polyline fill="#B7B053" stroke="#272525" stroke-width="0.25" stroke-miterlimit="10" points="68.735,43.48 67.927,43.675 
						67.771,42.857 69.362,40.245 					"/>
					<polyline fill="#B7B053" stroke="#272525" stroke-width="0.25" stroke-miterlimit="10" points="69.782,41.976 69.267,41.625 
						68.729,41.287 68.185,40.965 67.628,40.665 					"/>
					<polyline fill="#B7B053" stroke="#272525" stroke-width="0.25" stroke-miterlimit="10" points="70.921,46.131 70.534,45.738 
						70.122,45.366 69.704,44.996 69.657,44.171 70.415,43.212 71.292,43.13 71.761,43.542 72.224,43.971 72.675,44.419 					"/>
					<polyline fill="#B7B053" stroke="#272525" stroke-width="0.25" stroke-miterlimit="10" points="72.601,46.15 73.454,46.215 
						74.327,46.327 74.696,46.833 74.548,47.696 73.019,48.716 					"/>
					
						<line fill="#B7B053" stroke="#272525" stroke-width="0.25" stroke-miterlimit="10" x1="71.673" y1="46.949" x2="74.458" y2="44.542"/>
					<polyline fill="#B7B053" stroke="#272525" stroke-width="0.25" stroke-miterlimit="10" points="74.798,52.154 74.995,52.669 
						75.167,53.199 75.323,53.731 76.065,54.122 78.437,53.53 78.858,52.732 78.671,52.088 78.46,51.457 78.228,50.831 					"/>
					
						<line fill="#B7B053" stroke="#272525" stroke-width="0.25" stroke-miterlimit="10" x1="78.46" y1="51.457" x2="74.995" y2="52.669"/>
					<polyline fill="#B7B053" stroke="#272525" stroke-width="0.25" stroke-miterlimit="10" points="78.413,57.414 78.362,56.784 
						78.298,56.157 78.214,55.536 78.114,54.907 					"/>
					<polyline fill="#B7B053" stroke="#272525" stroke-width="0.25" stroke-miterlimit="10" points="77.188,57.481 77.147,56.892 
						77.081,56.308 77.007,55.716 76.905,55.131 					"/>
					<polyline fill="#B7B053" stroke="#272525" stroke-width="0.25" stroke-miterlimit="10" points="76.515,60.382 75.954,59.771 
						75.981,59.219 76.601,58.666 79.052,58.682 79.649,59.353 79.614,60.024 78.954,60.628 76.515,60.382 					"/>
					
						<line fill="#B7B053" stroke="#272525" stroke-width="0.25" stroke-miterlimit="10" x1="76.364" y1="61.523" x2="75.765" y2="61.423"/>
					<polyline fill="#B7B053" stroke="#272525" stroke-width="0.25" stroke-miterlimit="10" points="79.13,63.326 78.966,63.981 
						78.782,64.623 78.591,65.267 78.364,65.901 76.845,64.69 75.261,63.584 					"/>
					<polyline fill="#B7B053" stroke="#272525" stroke-width="0.25" stroke-miterlimit="10" points="74.747,69.103 74.411,69.608 
						74.056,70.108 73.685,70.602 73.772,71.468 74.245,71.861 75.136,71.725 75.534,71.192 75.921,70.644 76.29,70.091 
						73.194,68.11 					"/>
					<polyline fill="#B7B053" stroke="#272525" stroke-width="0.25" stroke-miterlimit="10" points="71.093,74.139 71.571,73.723 
						72.044,73.301 72.495,72.867 72.933,72.41 					"/>
					<polyline fill="#B7B053" stroke="#272525" stroke-width="0.25" stroke-miterlimit="10" points="70.315,73.193 70.767,72.807 
						71.21,72.408 71.632,71.996 72.044,71.569 					"/>
					<polyline fill="#B7B053" stroke="#272525" stroke-width="0.25" stroke-miterlimit="10" points="70.452,75.403 70.265,76.281 
						69.71,76.652 69.132,77.002 68.257,76.791 67.966,76.259 68.2,75.414 67.372,75.183 67.079,74.644 67.263,73.834 
						67.745,73.544 68.204,73.244 69.013,73.417 					"/>
					
						<line fill="#B7B053" stroke="#272525" stroke-width="0.25" stroke-miterlimit="10" x1="68.728" y1="75.097" x2="68.2" y2="75.414"/>
					<polyline fill="#B7B053" stroke="#272525" stroke-width="0.25" stroke-miterlimit="10" points="64.466,75.831 64.78,75.053 
						65.294,74.842 66.058,75.168 67.097,77.383 66.747,78.209 66.126,78.468 65.292,78.13 64.466,75.831 					"/>
					<polyline fill="#B7B053" stroke="#272525" stroke-width="0.25" stroke-miterlimit="10" points="60.723,77.982 60.113,78.044 
						59.509,78.097 58.893,78.128 58.284,78.746 58.289,79.359 58.957,79.965 59.623,79.933 60.294,79.876 60.959,79.801 
						60.493,76.161 					"/>
					<polyline fill="#B7B053" stroke="#272525" stroke-width="0.25" stroke-miterlimit="10" points="57.167,76.268 57.101,77.493 
						56.394,78.668 55.612,79.816 55.141,78.505 54.746,77.198 54.97,76 					"/>
					<polyline fill="#B7B053" stroke="#272525" stroke-width="0.25" stroke-miterlimit="10" points="57.101,77.493 56.503,77.444 
						55.919,77.383 55.33,77.3 54.746,77.198 					"/>
					<polyline fill="#B7B053" stroke="#272525" stroke-width="0.25" stroke-miterlimit="10" points="50.884,77.362 51.474,77.581 
						52.069,77.781 52.678,77.963 53.284,78.136 					"/>
					<polyline fill="#B7B053" stroke="#272525" stroke-width="0.25" stroke-miterlimit="10" points="51.329,76.221 51.884,76.43 
						52.444,76.622 53.017,76.793 53.586,76.949 					"/>
					<polyline fill="#B7B053" stroke="#272525" stroke-width="0.25" stroke-miterlimit="10" points="48.812,73.587 49.28,73.872 
						49.763,74.145 50.259,74.399 50.755,74.645 50.237,75.758 49.427,76.045 48.891,75.757 48.352,75.461 47.508,75.655 
						47.181,76.174 47.431,77.042 48.011,77.372 48.601,77.682 49.466,77.417 					"/>
					<polyline fill="#B7B053" stroke="#272525" stroke-width="0.25" stroke-miterlimit="10" points="46.186,72.395 47.005,72.29 
						47.444,72.639 47.532,73.463 46.106,75.456 45.207,75.55 44.679,75.134 44.576,74.239 46.186,72.395 					"/>
				</g>
			</g>
			<g>
				<path fill="#B7B053" d="M59.313,90.025c-0.655-0.994-1.162-2.072-1.469-3.125c-0.238-0.817-0.217-1.556-0.191-2.412l0.01-0.354
					l-3.379-0.301l-0.054,0.349c-0.127,0.848-0.237,1.58-0.616,2.34c-0.501,1.001-1.191,1.973-1.999,2.814l-1.626-0.395
					c-0.338-1.162-0.505-2.343-0.483-3.418c0.017-0.862,0.259-1.571,0.54-2.393l0.104-0.304l-3.143-1.285l-0.136,0.283
					c-0.376,0.785-0.701,1.462-1.295,2.092c-0.751,0.794-1.697,1.519-2.741,2.099l-1.437-0.857c0.019-1.206,0.207-2.383,0.545-3.408
					c0.271-0.822,0.714-1.431,1.226-2.135l0.184-0.253l-2.624-2.154l-0.214,0.231c-0.59,0.638-1.1,1.189-1.853,1.616
					c-0.94,0.533-2.059,0.946-3.237,1.198l-1.12-1.243c0.383-1.173,0.896-2.214,1.525-3.095c0.502-0.706,1.102-1.155,1.796-1.675
					l0.255-0.192l-1.874-2.832l-0.296,0.171c-0.743,0.431-1.386,0.803-2.224,0.984c-0.734,0.16-1.52,0.241-2.332,0.241
					c-0.373,0-0.746-0.017-1.114-0.05l-0.704-1.517c0.683-0.976,1.501-1.842,2.371-2.508c0.681-0.523,1.381-0.775,2.192-1.067
					l0.316-0.114l-0.955-3.257l-0.324,0.074c-0.713,0.163-1.328,0.304-2.017,0.304c-0.133,0-0.27-0.005-0.408-0.017
					c-1.094-0.093-2.25-0.381-3.349-0.833l-0.227-1.657c0.947-0.732,1.985-1.319,3.006-1.699c0.805-0.3,1.552-0.333,2.416-0.372
					l0.329-0.015l0.048-3.394l-0.338-0.025c-0.858-0.064-1.601-0.12-2.395-0.44c-1.017-0.411-2.037-1.027-2.956-1.784l0.272-1.649
					c1.122-0.424,2.286-0.68,3.372-0.739c0.09-0.005,0.179-0.007,0.266-0.007c0.749,0,1.402,0.169,2.158,0.365l0.313,0.081
					l1.048-3.229l-0.302-0.119c-0.808-0.315-1.505-0.588-2.173-1.132c-0.84-0.682-1.635-1.571-2.301-2.576l0.749-1.497
					c0.254-0.016,0.51-0.023,0.768-0.023c0.938,0,1.837,0.105,2.672,0.313c0.836,0.209,1.471,0.602,2.207,1.056l0.279,0.172
					l1.951-2.777l-0.262-0.208c-0.675-0.537-1.257-1-1.734-1.715c-0.611-0.918-1.108-2.001-1.438-3.138l1.156-1.211
					c1.155,0.282,2.261,0.728,3.202,1.292c0.729,0.437,1.217,0.994,1.781,1.638l0.233,0.266l2.683-2.078l-0.191-0.282
					c-0.485-0.711-0.904-1.325-1.148-2.145c-0.309-1.036-0.464-2.218-0.448-3.423l1.46-0.816c1.036,0.618,1.962,1.37,2.68,2.177
					c0.572,0.643,0.876,1.322,1.228,2.109l0.136,0.305l3.178-1.195l-0.457-1.486c-0.294-1.207-0.136-2.767,0.473-4.632l1.636-0.349
					c0.803,0.893,1.465,1.884,1.918,2.87c0.36,0.783,0.449,1.525,0.553,2.385l0.039,0.322l3.388-0.204v-0.336
					c-0.002-0.863-0.004-1.608,0.26-2.423c0.337-1.054,0.875-2.118,1.557-3.082l1.667,0.148c0.501,1.08,0.842,2.222,0.986,3.308
					c0.114,0.849-0.019,1.582-0.173,2.43l-0.06,0.333l3.299,0.801l0.103-0.333c0.253-0.818,0.471-1.525,0.96-2.229
					c0.616-0.887,1.443-1.745,2.396-2.483l1.548,0.633c0.163,1.192,0.152,2.384-0.03,3.451c-0.147,0.854-0.493,1.52-0.893,2.291
					l-0.146,0.281l2.915,1.738l0.2-0.294c0.481-0.707,0.897-1.318,1.569-1.839c0.865-0.673,1.909-1.249,3.023-1.668l1.293,1.06
					c-0.321,1.954-0.9,3.416-1.721,4.345l-1.076,1.097l2.273,2.521l0.269-0.214c0.672-0.538,1.252-1.002,2.051-1.303
					c1.019-0.386,2.186-0.629,3.38-0.704l0.921,1.397c-0.521,1.054-1.2,2.033-1.968,2.834c-0.591,0.615-1.242,0.966-1.997,1.373
					l-0.309,0.167l1.43,3.078l0.328-0.129c0.797-0.313,1.484-0.583,2.335-0.638c0.212-0.013,0.425-0.02,0.639-0.02
					c0.91,0,1.852,0.116,2.799,0.345l0.469,1.605c-0.834,0.874-1.772,1.609-2.717,2.128c-0.756,0.415-1.49,0.56-2.34,0.728
					l-0.317,0.063l0.457,3.364l0.338-0.025c0.407-0.031,0.793-0.061,1.177-0.061c0.465,0,0.864,0.044,1.258,0.139
					c1.061,0.255,2.161,0.712,3.188,1.324l-0.023,1.671c-1.042,0.584-2.155,1.01-3.224,1.233c-0.339,0.071-0.688,0.105-1.068,0.105
					c-0.448,0-0.898-0.047-1.375-0.097l-0.329-0.034l-0.556,3.348l0.32,0.073c0.844,0.192,1.572,0.357,2.313,0.794
					c0.942,0.557,1.836,1.298,2.657,2.204l-0.515,1.591c-0.841,0.178-1.682,0.269-2.501,0.269c-0.316,0-0.633-0.014-0.946-0.042
					c-0.848-0.077-1.528-0.368-2.316-0.704l-0.322-0.137l-1.517,3.038l0.293,0.169c0.748,0.429,1.394,0.799,1.966,1.434
					c0.739,0.819,1.393,1.817,1.891,2.891l-0.962,1.369c-1.197-0.106-2.357-0.382-3.36-0.799c-0.794-0.332-1.363-0.813-2.022-1.371
					l-0.252-0.212L75.54,77.41l1.055,1.141c0.793,0.963,1.327,2.438,1.586,4.377l-1.322,1.024c-1.118-0.456-2.145-1.062-2.975-1.753
					c-0.667-0.558-1.072-1.192-1.542-1.927l-0.164-0.257l-2.966,1.656l0.146,0.301c0.376,0.777,0.7,1.447,0.818,2.297
					c0.152,1.085,0.129,2.277-0.067,3.452l-1.564,0.589c-0.916-0.752-1.719-1.633-2.325-2.552c-0.467-0.707-0.664-1.417-0.892-2.239
					l-0.097-0.349l-3.32,0.707l0.049,0.319c0.132,0.858,0.246,1.6,0.106,2.449c-0.183,1.104-0.557,2.236-1.082,3.279L59.313,90.025z
					 M58.229,36.8c-1.421,0-2.854,0.142-4.26,0.422c-5.675,1.132-10.568,4.406-13.781,9.219c-3.212,4.813-4.358,10.588-3.227,16.263
					c2.015,10.099,10.938,17.43,21.222,17.43c0,0,0.001,0,0.002,0c1.42,0,2.852-0.142,4.258-0.422
					c11.715-2.336,19.345-13.768,17.009-25.482C77.437,44.13,68.512,36.8,58.229,36.8z"/>
				<path fill="#272525" d="M60.269,27.251l1.523,0.136c0.479,1.049,0.806,2.155,0.945,3.207c0.112,0.829-0.02,1.552-0.172,2.391
					l-0.039,0.217l-0.041,0.231l0.229,0.055l3.07,0.746l0.228,0.056l0.069-0.224l0.068-0.221c0.25-0.808,0.465-1.506,0.943-2.194
					c0.597-0.859,1.395-1.69,2.313-2.411l1.414,0.578c0.151,1.156,0.138,2.308-0.039,3.341c-0.145,0.834-0.485,1.493-0.881,2.255
					l-0.092,0.177L69.7,35.8l0.202,0.121l2.713,1.618l0.202,0.12l0.132-0.194l0.135-0.198c0.476-0.698,0.886-1.302,1.543-1.811
					c0.838-0.652,1.846-1.212,2.923-1.625l1.182,0.969c-0.32,1.894-0.885,3.31-1.671,4.201l-0.998,1.018l-0.164,0.168l0.157,0.175
					l2.115,2.347l0.157,0.175l0.185-0.146l0.177-0.142c0.663-0.531,1.236-0.99,2.018-1.284c0.985-0.374,2.114-0.612,3.271-0.691
					l0.842,1.276c-0.511,1.018-1.171,1.963-1.915,2.738c-0.576,0.601-1.221,0.948-1.966,1.35l-0.205,0.111l-0.207,0.112l0.1,0.213
					l1.33,2.865l0.099,0.213l0.219-0.085l0.22-0.086c0.787-0.309,1.467-0.576,2.297-0.63c0.209-0.013,0.42-0.02,0.631-0.02
					c0.878,0,1.785,0.109,2.699,0.325l0.429,1.466c-0.813,0.842-1.723,1.55-2.637,2.053c-0.739,0.406-1.465,0.549-2.305,0.715
					l-0.202,0.04l-0.23,0.046l0.031,0.233l0.426,3.131l0.032,0.233l0.234-0.017l0.22-0.017c0.406-0.031,0.791-0.061,1.168-0.061
					c0.455,0,0.845,0.043,1.229,0.135c1.027,0.247,2.093,0.686,3.092,1.273l-0.021,1.526c-1.014,0.56-2.091,0.969-3.125,1.186
					c-0.331,0.068-0.672,0.102-1.043,0.102c-0.442,0-0.889-0.046-1.361-0.096l-0.213-0.021l-0.233-0.024l-0.038,0.231l-0.518,3.116
					l-0.039,0.232l0.229,0.053l0.205,0.047c0.834,0.189,1.554,0.353,2.278,0.78c0.913,0.54,1.78,1.255,2.579,2.126l-0.47,1.454
					c-0.809,0.167-1.616,0.251-2.404,0.251c-0.315,0-0.631-0.014-0.935-0.042c-0.828-0.075-1.501-0.362-2.279-0.695l-0.214-0.091
					l-0.217-0.092l-0.104,0.21l-1.412,2.827l-0.105,0.211l0.204,0.118l0.191,0.11c0.739,0.423,1.377,0.789,1.936,1.409
					c0.717,0.793,1.351,1.757,1.84,2.794l-0.879,1.25c-1.159-0.11-2.28-0.379-3.251-0.784c-0.776-0.324-1.339-0.8-1.991-1.351
					l-0.161-0.136l-0.18-0.151l-0.162,0.169l-2.182,2.284l-0.163,0.17l0.16,0.172l0.486,0.526l0.479,0.517
					c0.772,0.939,1.295,2.368,1.554,4.249l-1.208,0.936c-1.08-0.448-2.072-1.036-2.875-1.706c-0.652-0.545-1.053-1.172-1.517-1.898
					l-0.101-0.158l-0.127-0.198l-0.206,0.115l-2.76,1.541l-0.205,0.115l0.102,0.212l0.095,0.196c0.371,0.767,0.691,1.429,0.807,2.26
					c0.147,1.051,0.128,2.204-0.055,3.343l-1.43,0.538c-0.883-0.734-1.656-1.589-2.244-2.479c-0.457-0.69-0.65-1.392-0.875-2.204
					l-0.066-0.237l-0.063-0.226l-0.229,0.049L62,83.729l-0.23,0.049l0.035,0.233l0.031,0.202c0.13,0.848,0.242,1.581,0.106,2.41
					c-0.178,1.069-0.535,2.165-1.039,3.179l-1.525,0.093c-0.629-0.966-1.116-2.011-1.413-3.03c-0.232-0.798-0.211-1.528-0.187-2.374
					l0.007-0.236l0.006-0.235L57.558,84l-3.146-0.28l-0.234-0.021l-0.035,0.232l-0.035,0.233c-0.126,0.837-0.235,1.56-0.604,2.303
					c-0.485,0.97-1.15,1.911-1.929,2.731l-1.485-0.36c-0.32-1.128-0.479-2.27-0.458-3.312c0.017-0.843,0.256-1.543,0.533-2.354
					l0.065-0.193l0.076-0.223l-0.218-0.089l-2.925-1.196l-0.218-0.089l-0.103,0.212l-0.085,0.177
					c-0.371,0.775-0.692,1.445-1.272,2.06c-0.728,0.77-1.641,1.473-2.648,2.041l-1.313-0.783c0.025-1.168,0.21-2.306,0.537-3.298
					c0.266-0.804,0.703-1.405,1.209-2.101l0.114-0.159l0.139-0.19l-0.183-0.149l-2.441-2.005l-0.183-0.149l-0.16,0.172l-0.134,0.145
					c-0.583,0.63-1.086,1.175-1.822,1.593c-0.91,0.516-1.99,0.918-3.132,1.169l-1.022-1.135c0.376-1.133,0.876-2.139,1.486-2.993
					c0.49-0.689,1.082-1.133,1.768-1.647l0.162-0.121l0.188-0.142l-0.129-0.196l-1.744-2.636l-0.13-0.196l-0.204,0.118l-0.194,0.112
					c-0.734,0.425-1.369,0.793-2.188,0.97c-0.726,0.158-1.501,0.238-2.305,0.238c-0.34,0-0.687-0.015-1.031-0.043l-0.644-1.386
					c0.667-0.941,1.462-1.776,2.304-2.422c0.665-0.512,1.357-0.76,2.158-1.048l0.206-0.074l0.221-0.08l-0.065-0.226l-0.889-3.031
					l-0.066-0.226l-0.229,0.052l-0.21,0.048c-0.705,0.162-1.313,0.301-1.988,0.301c-0.13,0-0.262-0.005-0.398-0.017
					c-1.059-0.09-2.178-0.365-3.244-0.797l-0.207-1.514c0.922-0.704,1.928-1.269,2.916-1.637c0.786-0.293,1.523-0.326,2.377-0.364
					l0.213-0.01l0.235-0.011l0.003-0.235l0.044-3.158l0.003-0.234l-0.233-0.019l-0.222-0.017c-0.848-0.063-1.58-0.118-2.356-0.432
					c-0.985-0.398-1.974-0.991-2.868-1.719l0.25-1.507c1.089-0.405,2.215-0.648,3.267-0.706c0.088-0.005,0.174-0.007,0.259-0.007
					c0.733,0,1.379,0.167,2.127,0.361l0.199,0.052l0.228,0.059l0.073-0.224l0.975-3.005l0.073-0.224l-0.219-0.086l-0.192-0.075
					c-0.798-0.312-1.486-0.581-2.141-1.112c-0.813-0.661-1.584-1.519-2.234-2.488l0.684-1.368c0.229-0.013,0.458-0.02,0.688-0.02
					c0.929,0,1.818,0.104,2.643,0.31c0.816,0.204,1.444,0.592,2.172,1.041l0.179,0.11l0.2,0.124l0.135-0.193l1.816-2.585
					l0.136-0.192l-0.184-0.147l-0.17-0.135c-0.667-0.53-1.242-0.988-1.708-1.687c-0.593-0.889-1.076-1.936-1.401-3.035l1.056-1.106
					c1.118,0.279,2.187,0.714,3.098,1.26c0.713,0.427,1.194,0.977,1.752,1.613l0.156,0.178l0.155,0.176l0.186-0.144l2.497-1.934
					l0.186-0.144l-0.132-0.194l-0.126-0.185c-0.479-0.702-0.894-1.308-1.133-2.11c-0.299-1.003-0.451-2.146-0.443-3.313l1.334-0.746
					c1,0.604,1.894,1.334,2.589,2.116c0.559,0.627,0.858,1.299,1.206,2.077l0.088,0.198l0.097,0.214l0.22-0.083l2.957-1.112
					l0.22-0.083l-0.068-0.225l-0.127-0.414l-0.291-0.945c-0.287-1.177-0.138-2.691,0.445-4.503l1.493-0.318
					c0.773,0.869,1.411,1.83,1.85,2.785c0.353,0.765,0.44,1.499,0.543,2.348l0.024,0.206l0.028,0.233l0.234-0.014l3.153-0.189
					l0.235-0.014v-0.235v-0.219c-0.002-0.852-0.004-1.588,0.254-2.386C59.097,29.22,59.614,28.189,60.269,27.251 M58.184,80.26
					c1.429,0,2.87-0.143,4.284-0.425c11.782-2.35,19.456-13.847,17.106-25.629c-2.026-10.158-11.003-17.53-21.345-17.53
					c-1.43,0-2.871,0.143-4.284,0.425c-5.707,1.138-10.63,4.431-13.86,9.272c-3.231,4.841-4.384,10.649-3.245,16.356
					C38.865,72.887,47.842,80.26,58.184,80.26 M60.147,26.99c-0.688,0.96-1.255,2.049-1.615,3.174
					c-0.292,0.904-0.266,1.729-0.266,2.681l-3.153,0.189c-0.115-0.944-0.19-1.764-0.588-2.628c-0.493-1.074-1.192-2.081-1.987-2.955
					l-1.776,0.379c-0.48,1.453-0.866,3.255-0.495,4.776c0.142,0.457,0.281,0.915,0.422,1.373l-2.957,1.112
					c-0.392-0.872-0.703-1.628-1.336-2.339c-0.785-0.883-1.755-1.64-2.771-2.238l-1.586,0.887c-0.021,1.182,0.114,2.398,0.452,3.532
					c0.271,0.911,0.755,1.575,1.291,2.364l-2.497,1.934c-0.628-0.713-1.152-1.352-1.967-1.84c-1.016-0.608-2.156-1.049-3.308-1.322
					l-1.255,1.314c0.321,1.135,0.818,2.26,1.474,3.242c0.528,0.792,1.186,1.284,1.93,1.879l-1.816,2.585
					c-0.812-0.499-1.498-0.95-2.421-1.181c-0.873-0.217-1.793-0.317-2.703-0.317c-0.283,0-0.566,0.01-0.847,0.029l-0.813,1.626
					c0.647,0.988,1.446,1.918,2.365,2.664c0.737,0.6,1.512,0.878,2.398,1.227l-0.976,3.005c-0.833-0.214-1.557-0.42-2.389-0.42
					c-0.089,0-0.18,0.002-0.272,0.007c-1.179,0.064-2.375,0.349-3.477,0.772l-0.296,1.791c0.906,0.756,1.947,1.406,3.044,1.85
					c0.881,0.355,1.703,0.393,2.652,0.466l-0.044,3.158c-0.951,0.044-1.775,0.057-2.666,0.389c-1.109,0.413-2.164,1.033-3.096,1.762
					l0.246,1.8c1.088,0.456,2.276,0.771,3.452,0.87c0.143,0.012,0.282,0.018,0.419,0.018c0.771,0,1.465-0.176,2.254-0.355
					l0.889,3.031c-0.896,0.324-1.678,0.579-2.432,1.159c-0.938,0.719-1.767,1.623-2.438,2.595l0.765,1.647
					c0.395,0.038,0.796,0.058,1.197,0.058c0.793,0,1.592-0.077,2.358-0.244c0.931-0.201,1.629-0.635,2.454-1.11l1.744,2.636
					c-0.764,0.574-1.432,1.047-1.983,1.823c-0.688,0.963-1.204,2.073-1.565,3.198l1.217,1.35c1.156-0.24,2.316-0.645,3.344-1.227
					c0.828-0.47,1.368-1.086,2.017-1.785l2.442,2.005c-0.56,0.772-1.06,1.424-1.358,2.327c-0.37,1.123-0.54,2.337-0.552,3.518
					l1.561,0.931c1.033-0.566,2.023-1.3,2.834-2.157c0.652-0.691,0.988-1.442,1.401-2.301l2.925,1.196
					c-0.307,0.902-0.594,1.673-0.612,2.623c-0.023,1.183,0.173,2.393,0.509,3.525l1.766,0.429c0.824-0.848,1.542-1.839,2.071-2.896
					c0.423-0.85,0.52-1.672,0.663-2.61l3.146,0.28c-0.025,0.95-0.076,1.774,0.189,2.687c0.331,1.137,0.867,2.234,1.524,3.219
					l1.813-0.11c0.538-1.053,0.933-2.212,1.126-3.379c0.154-0.937,0.006-1.751-0.137-2.69l3.09-0.658
					c0.256,0.915,0.449,1.719,0.973,2.511c0.652,0.988,1.488,1.881,2.406,2.626l1.699-0.64c0.201-1.164,0.244-2.389,0.08-3.561
					c-0.131-0.941-0.512-1.673-0.924-2.529l2.76-1.541c0.516,0.805,0.938,1.503,1.668,2.113c0.908,0.757,1.98,1.36,3.074,1.8
					l1.436-1.112c-0.195-1.516-0.633-3.309-1.627-4.517c-0.326-0.352-0.648-0.703-0.975-1.055l2.182-2.284
					c0.729,0.613,1.34,1.16,2.217,1.526c1.092,0.454,2.293,0.717,3.469,0.814l1.045-1.486c-0.492-1.077-1.146-2.107-1.941-2.987
					c-0.635-0.705-1.365-1.095-2.188-1.568l1.412-2.827c0.873,0.37,1.623,0.719,2.568,0.805c0.316,0.029,0.637,0.042,0.957,0.042
					c0.873,0,1.752-0.103,2.598-0.287l0.559-1.729c-0.789-0.88-1.715-1.679-2.734-2.281c-0.818-0.483-1.625-0.643-2.555-0.855
					l0.518-3.116c0.563,0.057,1.078,0.119,1.6,0.119c0.356,0,0.716-0.029,1.094-0.107c1.156-0.242,2.295-0.699,3.322-1.282
					l0.025-1.815c-1.012-0.61-2.135-1.099-3.285-1.375c-0.444-0.107-0.864-0.142-1.287-0.142c-0.455,0-0.913,0.041-1.406,0.078
					l-0.426-3.131c0.936-0.187,1.744-0.323,2.578-0.781c1.033-0.568,1.986-1.346,2.797-2.204l-0.51-1.743
					c-0.939-0.232-1.924-0.366-2.898-0.366c-0.217,0-0.432,0.007-0.646,0.02c-0.949,0.062-1.705,0.387-2.592,0.732l-1.33-2.865
					c0.836-0.453,1.574-0.821,2.232-1.507c0.816-0.852,1.506-1.869,2.021-2.93l-1-1.517c-1.182,0.067-2.383,0.297-3.488,0.716
					c-0.889,0.335-1.518,0.871-2.262,1.464l-2.115-2.347l0.998-1.018c1.037-1.175,1.52-2.967,1.762-4.479l-1.404-1.151
					c-1.109,0.41-2.189,0.985-3.123,1.712c-0.752,0.582-1.193,1.279-1.73,2.064l-2.713-1.618c0.438-0.848,0.834-1.565,0.996-2.504
					c0.199-1.163,0.188-2.393,0.021-3.561l-1.682-0.688c-0.938,0.719-1.805,1.584-2.479,2.555c-0.545,0.783-0.762,1.573-1.045,2.483
					l-3.07-0.746c0.168-0.937,0.34-1.744,0.213-2.686c-0.156-1.172-0.523-2.339-1.027-3.409L60.147,26.99L60.147,26.99z
					 M58.184,80.01c-10.061,0-19.056-7.087-21.099-17.33c-2.327-11.665,5.244-23.008,16.909-25.334
					c1.422-0.284,2.839-0.42,4.235-0.42c10.061,0,19.057,7.086,21.1,17.329c2.326,11.665-5.244,23.008-16.91,25.335
					C60.996,79.873,59.581,80.01,58.184,80.01L58.184,80.01z"/>
			</g>
		</g>
		<circle fill="#B7B053" stroke="#272525" stroke-width="0.25" stroke-miterlimit="10" cx="58.212" cy="58.5" r="6.5"/>
		<g display="none">
			
				<line display="inline" fill="none" stroke="#272525" stroke-width="0.25" stroke-miterlimit="10" x1="58.212" y1="69.058" x2="58.212" y2="47.942"/>
			
				<line display="inline" fill="none" stroke="#272525" stroke-width="0.25" stroke-miterlimit="10" x1="47.653" y1="58.5" x2="68.77" y2="58.5"/>
			<circle display="inline" fill="#272525" cx="58.212" cy="47.942" r="1.172"/>
		</g>
	</g>
</g>
</svg>
