<?xml version="1.0" encoding="utf-8"?>
<!-- Generator: Adobe Illustrator 16.0.0, SVG Export Plug-In . SVG Version: 6.00 Build 0)  -->
<!DOCTYPE svg PUBLIC "-//W3C//DTD SVG 1.1//EN" "http://www.w3.org/Graphics/SVG/1.1/DTD/svg11.dtd">
<svg version="1.1" xmlns="http://www.w3.org/2000/svg" xmlns:xlink="http://www.w3.org/1999/xlink" x="0px" y="0px" width="77px"
	 height="91px" viewBox="0 0 77 91" enable-background="new 0 0 77 91" xml:space="preserve">
<g id="screenshots" display="none">
</g>
<g id="fondo_negro" display="none">
</g>
<g id="imagenes" display="none">
</g>
<g id="texto" display="none">
</g>
<g id="Capa_6" display="none">
</g>
<g id="bienvenido" display="none">
</g>
<g id="landpage">
	<defs>
		<rect id="ventana" x="-1760.056" y="-173.691" width="1024.5" height="487.98"/>
	</defs>
	<clipPath id="ventana_1_">
		<use xlink:href="#ventana"  overflow="visible"/>
	</clipPath>
</g>
<g id="bocetos">
</g>
<g id="exportaciones">
	<g>
		<path fill="#8A8A8A" stroke="#272525" stroke-width="0.25" stroke-miterlimit="10" d="M38.499,90.137
			c-2.377,0-4.059-0.468-4.72-1.248c-0.359-0.427,1.282-7.458-4.469-11.564c-3.722-2.661-7.701-1.655-10.783,0.357l-0.002-0.001
			C7.776,70.996,0.623,59.08,0.623,45.492c0-20.919,16.958-37.876,37.876-37.876s37.878,16.958,37.878,37.876
			c0,13.589-7.158,25.506-17.906,32.189l0.002,0c-3.082-2.012-7.061-3.018-10.785-0.357c-5.751,4.106-4.106,11.137-4.47,11.564
			C42.559,89.668,40.875,90.137,38.499,90.137 M38.509,21.704c-13.142,0-23.796,10.654-23.796,23.796s10.654,23.796,23.796,23.796
			S62.305,58.642,62.305,45.5S51.65,21.704,38.509,21.704z"/>
		<g>
			<path fill="#B7B053" d="M38.504,50.375c-2.381,0-4.45-1.778-4.813-4.136c-0.408-2.654,1.42-5.146,4.075-5.556
				c0.252-0.039,0.502-0.058,0.75-0.058c2.42,0,4.442,1.738,4.808,4.133c0.201,1.285-0.11,2.569-0.878,3.618
				c-0.77,1.053-1.906,1.743-3.199,1.942C38.998,50.356,38.749,50.375,38.504,50.375z"/>
			<g>
				<path fill="#272525" d="M38.517,40.75L38.517,40.75c2.358,0,4.328,1.693,4.685,4.027c0.195,1.251-0.108,2.503-0.855,3.524
					c-0.75,1.026-1.857,1.698-3.117,1.893c-0.24,0.037-0.483,0.056-0.725,0.056c-2.319,0-4.336-1.733-4.689-4.03
					c-0.397-2.586,1.384-5.014,3.971-5.414C38.027,40.769,38.273,40.75,38.517,40.75 M38.517,40.5c-0.254,0-0.512,0.019-0.77,0.059
					c-2.728,0.421-4.599,2.972-4.18,5.699c0.381,2.47,2.512,4.242,4.937,4.242c0.251,0,0.507-0.019,0.763-0.059
					c2.731-0.421,4.608-2.969,4.182-5.703C43.071,42.267,40.942,40.5,38.517,40.5L38.517,40.5z"/>
			</g>
		</g>
		<g>
			<g display="none">
				
					<line display="inline" fill="#B7B053" stroke="#272525" stroke-width="0.25" stroke-miterlimit="10" x1="46.559" y1="43.681" x2="30.617" y2="47.926"/>
				
					<line display="inline" fill="#B7B053" stroke="#272525" stroke-width="0.25" stroke-miterlimit="10" x1="40.712" y1="53.773" x2="36.465" y2="37.832"/>
			</g>
			<g display="none">
				<g display="inline">
					<polyline fill="#B7B053" stroke="#272525" stroke-width="0.25" stroke-miterlimit="10" points="21.613,36.035 21.313,36.575 
						21.032,37.12 20.768,37.667 20.524,38.228 					"/>
					
						<line fill="#B7B053" stroke="#272525" stroke-width="0.25" stroke-miterlimit="10" x1="22.132" y1="37.663" x2="19.939" y2="36.574"/>
					<polyline fill="#B7B053" stroke="#272525" stroke-width="0.25" stroke-miterlimit="10" points="20.547,35.432 20.773,36.284 
						21.032,37.12 21.33,37.92 21.658,38.703 					"/>
					<polyline fill="#B7B053" stroke="#272525" stroke-width="0.25" stroke-miterlimit="10" points="22.674,36.648 21.85,36.86 
						21.032,37.12 20.213,37.414 19.4,37.76 					"/>
					<polyline fill="#B7B053" stroke="#272525" stroke-width="0.25" stroke-miterlimit="10" points="21.233,34.317 21.099,33.432 
						24.097,35.553 					"/>
					<polyline fill="#B7B053" stroke="#272525" stroke-width="0.25" stroke-miterlimit="10" points="24.43,35.105 24.097,35.553 
						23.784,36.011 					"/>
					<polyline fill="#B7B053" stroke="#272525" stroke-width="0.25" stroke-miterlimit="10" points="26.843,27.882 28.855,30.956 
						27.877,30.518 26.852,30.125 25.794,29.782 24.703,29.493 27.084,32.281 					"/>
					<polyline fill="#B7B053" stroke="#272525" stroke-width="0.25" stroke-miterlimit="10" points="30.861,27.144 30.28,27.394 
						29.713,27.664 29.148,27.95 28.596,28.251 					"/>
					<polyline fill="#B7B053" stroke="#272525" stroke-width="0.25" stroke-miterlimit="10" points="31.326,28.274 30.781,28.506 
						30.252,28.758 29.717,29.028 29.204,29.31 					"/>
					<polyline fill="#B7B053" stroke="#272525" stroke-width="0.25" stroke-miterlimit="10" points="34.975,28.422 34.43,28.55 
						33.894,28.684 33.363,28.842 32.836,29.009 32.436,27.853 32.818,27.084 33.412,26.909 34.004,26.76 34.474,26.028 
						34.351,25.43 33.572,24.979 32.926,25.143 32.285,25.331 31.843,26.114 					"/>
					<polyline fill="#B7B053" stroke="#272525" stroke-width="0.25" stroke-miterlimit="10" points="35.629,25.2 36.207,24.518 
						36.615,28.165 					"/>
					<polyline fill="#B7B053" stroke="#272525" stroke-width="0.25" stroke-miterlimit="10" points="37.172,28.11 36.615,28.165 
						36.07,28.232 					"/>
					<polyline fill="#B7B053" stroke="#272525" stroke-width="0.25" stroke-miterlimit="10" points="41.294,26.406 41.898,26.501 
						42.5,26.613 43.1,26.745 43.853,26.306 44.011,25.708 43.521,24.96 42.865,24.81 42.21,24.686 41.553,24.587 41.042,28.223 
											"/>
					
						<line fill="#B7B053" stroke="#272525" stroke-width="0.25" stroke-miterlimit="10" x1="44.277" y1="28.991" x2="45.059" y2="26.667"/>
					
						<line fill="#B7B053" stroke="#272525" stroke-width="0.25" stroke-miterlimit="10" x1="45.256" y1="26.094" x2="45.451" y2="25.513"/>
					<polyline fill="#B7B053" stroke="#272525" stroke-width="0.25" stroke-miterlimit="10" points="47.612,29.812 46.821,30.081 
						46.602,29.277 47.933,26.524 					"/>
					<polyline fill="#B7B053" stroke="#272525" stroke-width="0.25" stroke-miterlimit="10" points="48.518,28.212 47.959,27.909 
						47.396,27.623 46.822,27.357 46.244,27.11 					"/>
					<polyline fill="#B7B053" stroke="#272525" stroke-width="0.25" stroke-miterlimit="10" points="50.043,32.236 49.609,31.892 
						49.166,31.548 48.723,31.231 48.59,30.404 49.266,29.379 50.117,29.221 50.635,29.587 51.128,29.967 51.617,30.365 					"/>
					<polyline fill="#B7B053" stroke="#272525" stroke-width="0.25" stroke-miterlimit="10" points="51.713,32.099 52.57,32.084 
						53.44,32.116 53.863,32.584 53.789,33.457 52.366,34.614 					"/>
					
						<line fill="#B7B053" stroke="#272525" stroke-width="0.25" stroke-miterlimit="10" x1="50.864" y1="32.982" x2="53.399" y2="30.326"/>
					<polyline fill="#B7B053" stroke="#272525" stroke-width="0.25" stroke-miterlimit="10" points="54.471,37.869 54.706,38.369 
						54.934,38.872 55.14,39.39 55.906,39.706 58.217,38.895 58.566,38.058 58.316,37.442 58.043,36.832 57.752,36.227 					"/>
					
						<line fill="#B7B053" stroke="#272525" stroke-width="0.25" stroke-miterlimit="10" x1="58.043" y1="36.832" x2="54.706" y2="38.369"/>
					<polyline fill="#B7B053" stroke="#272525" stroke-width="0.25" stroke-miterlimit="10" points="58.556,42.765 58.45,42.144 
						58.33,41.527 58.189,40.907 58.027,40.302 					"/>
					<polyline fill="#B7B053" stroke="#272525" stroke-width="0.25" stroke-miterlimit="10" points="57.35,42.949 57.248,42.371 
						57.135,41.786 56.997,41.207 56.846,40.635 					"/>
					<polyline fill="#B7B053" stroke="#272525" stroke-width="0.25" stroke-miterlimit="10" points="56.949,45.898 56.332,45.346 
						56.311,44.788 56.875,44.185 59.32,43.97 59.978,44.579 60.002,45.247 59.402,45.911 56.949,45.898 					"/>
					
						<line fill="#B7B053" stroke="#272525" stroke-width="0.25" stroke-miterlimit="10" x1="56.904" y1="47.046" x2="56.299" y2="47.011"/>
					<polyline fill="#B7B053" stroke="#272525" stroke-width="0.25" stroke-miterlimit="10" points="59.832,48.588 59.735,49.245 
						59.612,49.909 59.471,50.562 59.321,51.216 57.683,50.159 56.01,49.204 					"/>
					<polyline fill="#B7B053" stroke="#272525" stroke-width="0.25" stroke-miterlimit="10" points="56.019,54.741 55.729,55.288 
						55.424,55.813 55.102,56.334 55.271,57.194 55.773,57.539 56.646,57.323 56.997,56.752 57.33,56.176 57.649,55.579 
						54.379,53.906 					"/>
					<polyline fill="#B7B053" stroke="#272525" stroke-width="0.25" stroke-miterlimit="10" points="52.852,60.101 53.295,59.649 
						53.72,59.187 54.127,58.702 54.526,58.212 					"/>
					<polyline fill="#B7B053" stroke="#272525" stroke-width="0.25" stroke-miterlimit="10" points="51.99,59.237 52.406,58.811 
						52.803,58.372 53.186,57.921 53.559,57.463 					"/>
					<polyline fill="#B7B053" stroke="#272525" stroke-width="0.25" stroke-miterlimit="10" points="52.335,61.425 52.232,62.322 
						51.711,62.734 51.178,63.141 50.284,63.021 49.936,62.517 50.1,61.652 49.246,61.496 48.907,60.989 49.02,60.165 
						49.461,59.834 49.891,59.489 50.719,59.585 					"/>
					
						<line fill="#B7B053" stroke="#272525" stroke-width="0.25" stroke-miterlimit="10" x1="50.582" y1="61.285" x2="50.1" y2="61.652"/>
					<polyline fill="#B7B053" stroke="#272525" stroke-width="0.25" stroke-miterlimit="10" points="46.418,62.412 46.658,61.614 
						47.143,61.355 47.936,61.605 49.182,63.715 48.914,64.572 48.321,64.884 47.459,64.626 46.418,62.412 					"/>
					<polyline fill="#B7B053" stroke="#272525" stroke-width="0.25" stroke-miterlimit="10" points="42.893,64.912 42.293,65.038 
						41.689,65.139 41.091,65.23 40.537,65.906 40.596,66.514 41.32,67.056 41.986,66.955 42.645,66.839 43.301,66.698 
						42.49,63.116 					"/>
					<polyline fill="#B7B053" stroke="#272525" stroke-width="0.25" stroke-miterlimit="10" points="39.197,63.541 39.234,64.769 
						38.65,65.999 37.984,67.218 37.387,65.969 36.868,64.698 36.98,63.481 					"/>
					<polyline fill="#B7B053" stroke="#272525" stroke-width="0.25" stroke-miterlimit="10" points="39.234,64.769 38.648,64.779 
						38.048,64.769 37.461,64.745 36.868,64.698 					"/>
					<polyline fill="#B7B053" stroke="#272525" stroke-width="0.25" stroke-miterlimit="10" points="33.037,65.223 33.646,65.386 
						34.264,65.528 34.881,65.663 35.505,65.761 					"/>
					<polyline fill="#B7B053" stroke="#272525" stroke-width="0.25" stroke-miterlimit="10" points="33.375,64.049 33.945,64.204 
						34.529,64.34 35.106,64.459 35.686,64.553 					"/>
					<polyline fill="#B7B053" stroke="#272525" stroke-width="0.25" stroke-miterlimit="10" points="30.613,61.661 31.113,61.903 
						31.625,62.125 32.135,62.34 32.656,62.534 32.246,63.685 31.471,64.044 30.899,63.821 30.346,63.567 29.516,63.848 
						29.244,64.399 29.568,65.234 30.18,65.507 30.801,65.759 31.633,65.418 					"/>
					<polyline fill="#B7B053" stroke="#272525" stroke-width="0.25" stroke-miterlimit="10" points="27.889,60.723 28.704,60.548 
						29.166,60.844 29.333,61.66 28.095,63.773 27.214,63.958 26.656,63.595 26.464,62.714 27.889,60.723 					"/>
				</g>
			</g>
			<g>
				<path fill="#B7B053" d="M41.651,77.146c-0.717-0.948-1.292-1.992-1.665-3.025c-0.288-0.8-0.313-1.54-0.344-2.396l-0.013-0.353
					l-3.392-0.086l-0.03,0.355c-0.073,0.853-0.136,1.589-0.468,2.372c-0.433,1.026-1.06,2.04-1.816,2.936l-1.647-0.291
					c-0.417-1.162-0.651-2.299-0.696-3.381c-0.039-0.864,0.157-1.587,0.385-2.425l0.083-0.307l-3.216-1.083l-0.128,0.315
					c-0.323,0.798-0.603,1.487-1.15,2.146c-0.704,0.845-1.603,1.628-2.602,2.269l-1.489-0.764c-0.058-1.201,0.056-2.388,0.33-3.437
					c0.218-0.836,0.619-1.47,1.084-2.203l0.171-0.269l-2.756-1.984l-0.205,0.251c-0.547,0.672-1.02,1.252-1.743,1.724
					c-0.909,0.593-1.998,1.076-3.153,1.4l-1.196-1.169c0.308-1.192,0.753-2.264,1.325-3.187c0.456-0.733,1.024-1.218,1.683-1.781
					l0.247-0.211l-2.05-2.708l-0.283,0.188c-0.716,0.478-1.334,0.89-2.159,1.124c-0.962,0.274-2.004,0.414-3.1,0.414
					c-0.109,0-0.218-0.001-0.326-0.004l-0.799-1.47c0.615-1.011,1.377-1.927,2.205-2.654c0.644-0.563,1.324-0.856,2.111-1.197
					l0.319-0.139l-1.16-3.191l-0.319,0.095c-0.795,0.236-1.481,0.44-2.296,0.44l-0.104-0.001c-1.099-0.022-2.271-0.236-3.396-0.619
					l-0.331-1.64c0.896-0.789,1.896-1.44,2.893-1.886c0.785-0.35,1.526-0.43,2.384-0.524l0.331-0.037l-0.168-3.39l-0.327-0.004
					c-0.866-0.009-1.613-0.017-2.431-0.287c-1.039-0.346-2.097-0.896-3.06-1.593l0.167-1.665c1.094-0.494,2.239-0.822,3.317-0.95
					c0.199-0.023,0.392-0.034,0.58-0.034c0.622,0,1.22,0.115,1.853,0.236l0.328,0.063l0.839-3.288l-0.321-0.103
					c-0.82-0.263-1.529-0.49-2.228-0.988c-0.886-0.631-1.733-1.468-2.456-2.426l0.651-1.541c0.511-0.064,1.024-0.096,1.528-0.096
					c0.664,0,1.311,0.056,1.922,0.167c0.848,0.155,1.507,0.506,2.271,0.913l0.288,0.153l1.771-2.894l-0.276-0.194
					c-0.707-0.494-1.316-0.919-1.837-1.601c-0.672-0.88-1.234-1.93-1.632-3.041l1.075-1.281c1.168,0.206,2.3,0.581,3.276,1.085
					c0.763,0.394,1.288,0.923,1.897,1.537l0.234,0.235l2.547-2.243l-0.204-0.262c-0.532-0.681-0.991-1.269-1.288-2.075
					c-0.378-1.027-0.602-2.167-0.665-3.387l1.406-0.908c1.072,0.551,2.043,1.243,2.813,2.003c0.614,0.608,0.962,1.271,1.364,2.038
					l0.149,0.284l3.094-1.393c0,0-0.378-1.006-0.549-1.454c-0.371-1.189-0.312-2.756,0.178-4.651l1.61-0.453
					c0.856,0.837,1.58,1.784,2.097,2.743c0.408,0.756,0.544,1.49,0.7,2.339l0.061,0.326l3.369-0.42l-0.021-0.327
					c-0.056-0.863-0.104-1.609,0.104-2.445c0.272-1.076,0.743-2.171,1.361-3.172l1.671,0.043c0.567,1.042,0.98,2.161,1.197,3.238
					c0.166,0.842,0.079,1.584-0.022,2.443l-0.038,0.329l3.343,0.592l0.076-0.316c0.202-0.842,0.377-1.569,0.822-2.307
					c0.563-0.931,1.335-1.839,2.233-2.631l1.586,0.534c0.237,1.184,0.302,2.374,0.188,3.446c-0.091,0.861-0.396,1.55-0.748,2.347
					l-0.126,0.286l3.022,1.55l0.176-0.298c0.438-0.74,0.814-1.378,1.454-1.944c0.821-0.728,1.826-1.368,2.909-1.855l1.358,0.978
					c-0.197,1.97-0.682,3.464-1.44,4.443l-1.006,1.163l2.43,2.373L57.89,28.5c0.639-0.582,1.19-1.084,1.975-1.439
					c0.995-0.451,2.144-0.768,3.327-0.917L64.2,27.48c-0.454,1.086-1.071,2.106-1.786,2.952c-0.552,0.654-1.183,1.047-1.913,1.503
					l-0.289,0.181l1.619,2.982l0.308-0.144c0.78-0.365,1.454-0.681,2.304-0.79c0.429-0.055,0.877-0.083,1.332-0.083
					c0.69,0,1.402,0.063,2.118,0.188l0.571,1.574c-0.775,0.923-1.665,1.716-2.577,2.294c-0.731,0.463-1.455,0.655-2.294,0.877
					l-0.307,0.082l0.669,3.327l0.339-0.047c0.543-0.076,1.056-0.148,1.574-0.148c0.299,0,0.579,0.023,0.857,0.072
					c1.077,0.189,2.204,0.576,3.265,1.12l0.083,1.67c-1.005,0.648-2.089,1.144-3.14,1.433c-0.47,0.129-0.951,0.187-1.561,0.187
					c-0.283,0-0.57-0.011-0.869-0.023l-0.339-0.013l-0.343,3.377l0.313,0.05c0.859,0.138,1.602,0.256,2.372,0.648
					c0.974,0.495,1.911,1.178,2.789,2.031l-0.414,1.621c-1.064,0.297-2.125,0.448-3.154,0.448l-0.269-0.003
					c-0.851-0.022-1.546-0.269-2.352-0.554l-0.336-0.118l-1.321,3.126l0.32,0.159c0.766,0.379,1.428,0.706,2.036,1.3
					c0.789,0.77,1.504,1.724,2.069,2.763l-0.876,1.428c-1.202-0.031-2.376-0.233-3.399-0.585c-0.822-0.282-1.427-0.732-2.126-1.253
					L59.23,60.93l-2.186,2.599l1.127,1.071c0.85,0.909,1.478,2.346,1.859,4.267l-1.256,1.106c-1.146-0.387-2.209-0.925-3.077-1.561
					c-0.703-0.516-1.149-1.124-1.665-1.827l-0.18-0.245L51,68.181l0.166,0.294c0.423,0.751,0.789,1.399,0.962,2.24
					c0.219,1.066,0.271,2.257,0.151,3.448l-1.526,0.688c-0.966-0.696-1.822-1.524-2.481-2.4c-0.512-0.68-0.754-1.379-1.034-2.188
					l-0.116-0.333l-3.268,0.917l0.075,0.351c0.182,0.835,0.339,1.557,0.254,2.4c-0.111,1.108-0.413,2.262-0.872,3.341L41.651,77.146
					z M38.521,24.948c-1.78,0-3.563,0.234-5.301,0.697c-10.948,2.916-17.482,14.194-14.567,25.143
					c2.394,8.986,10.553,15.263,19.842,15.264c0.001,0,0.001,0,0.002,0c1.779,0,3.563-0.234,5.3-0.697
					c10.947-2.914,17.482-14.193,14.569-25.142C55.971,31.225,47.811,24.948,38.521,24.948z"/>
				<path fill="#272525" d="M38.63,14.438l1.526,0.04c0.544,1.013,0.94,2.096,1.149,3.139c0.163,0.823,0.076,1.556-0.023,2.404
					l-0.024,0.212l-0.027,0.234l0.231,0.041l3.111,0.551l0.231,0.041l0.056-0.229l0.049-0.202c0.199-0.832,0.371-1.55,0.807-2.271
					c0.547-0.901,1.29-1.782,2.156-2.555l1.448,0.488c0.224,1.148,0.282,2.299,0.171,3.337c-0.088,0.842-0.389,1.522-0.737,2.309
					l-0.078,0.178l-0.095,0.215l0.209,0.107l2.813,1.442l0.209,0.107l0.12-0.202l0.116-0.197c0.432-0.73,0.805-1.362,1.43-1.915
					c0.796-0.705,1.766-1.327,2.813-1.805l1.24,0.893c-0.199,1.911-0.672,3.359-1.399,4.297l-0.933,1.079l-0.153,0.178l0.168,0.164
					l2.261,2.208l0.168,0.165l0.175-0.158l0.157-0.144c0.631-0.574,1.176-1.07,1.942-1.417c0.963-0.437,2.073-0.746,3.22-0.897
					l0.921,1.22c-0.446,1.05-1.046,2.034-1.738,2.854c-0.539,0.639-1.162,1.028-1.884,1.478l-0.189,0.118l-0.199,0.125l0.112,0.207
					l1.507,2.775l0.112,0.207l0.213-0.099l0.201-0.094c0.771-0.36,1.437-0.672,2.268-0.779c0.423-0.055,0.866-0.083,1.315-0.083
					c0.66,0,1.341,0.059,2.025,0.175l0.521,1.438c-0.756,0.89-1.618,1.654-2.501,2.214c-0.716,0.453-1.431,0.643-2.259,0.863
					l-0.194,0.051l-0.228,0.061l0.047,0.23l0.623,3.097l0.047,0.23l0.232-0.032l0.223-0.031c0.538-0.076,1.047-0.147,1.558-0.147
					c0.291,0,0.564,0.023,0.835,0.07c1.043,0.183,2.135,0.554,3.165,1.076l0.075,1.525c-0.977,0.623-2.026,1.099-3.044,1.379
					c-0.458,0.126-0.93,0.183-1.527,0.183c-0.281,0-0.567-0.012-0.864-0.024l-0.222-0.008l-0.235-0.009l-0.023,0.234l-0.318,3.144
					l-0.023,0.234l0.232,0.038l0.197,0.032c0.849,0.136,1.582,0.253,2.335,0.636c0.943,0.479,1.853,1.138,2.706,1.959l-0.377,1.48
					c-1.03,0.281-2.057,0.424-3.052,0.424c-0.089,0-0.177-0.001-0.265-0.003c-0.831-0.021-1.519-0.265-2.313-0.547l-0.226-0.08
					l-0.222-0.078l-0.092,0.217l-1.229,2.91L61.29,57.36l0.211,0.104l0.215,0.107c0.757,0.374,1.41,0.697,2.004,1.277
					c0.765,0.746,1.458,1.667,2.013,2.67l-0.8,1.305c-1.164-0.037-2.299-0.235-3.291-0.577c-0.803-0.276-1.4-0.72-2.092-1.235
					l-0.15-0.112l-0.189-0.14l-0.151,0.18l-2.033,2.419l-0.151,0.18l0.171,0.162l0.597,0.567l0.434,0.413
					c0.829,0.885,1.44,2.278,1.819,4.141l-1.147,1.011c-1.108-0.381-2.135-0.905-2.975-1.52c-0.688-0.505-1.129-1.105-1.639-1.801
					l-0.11-0.149l-0.14-0.189l-0.197,0.127l-2.655,1.712l-0.197,0.127l0.115,0.205l0.107,0.191c0.419,0.742,0.78,1.382,0.948,2.203
					c0.213,1.033,0.267,2.184,0.157,3.339l-1.395,0.628c-0.932-0.68-1.758-1.484-2.396-2.332c-0.501-0.665-0.74-1.355-1.017-2.154
					l-0.077-0.222L47.2,69.777l-0.226,0.063l-3.042,0.854l-0.227,0.063l0.05,0.229l0.051,0.237c0.18,0.825,0.335,1.538,0.251,2.362
					c-0.107,1.073-0.396,2.189-0.834,3.238l-1.516,0.188c-0.689-0.922-1.242-1.934-1.604-2.934
					c-0.282-0.782-0.308-1.512-0.337-2.358l-0.008-0.236l-0.009-0.235l-0.234-0.006l-3.158-0.08l-0.234-0.006l-0.021,0.234
					l-0.021,0.238c-0.072,0.842-0.134,1.569-0.458,2.334c-0.419,0.994-1.022,1.976-1.751,2.849l-1.504-0.267
					c-0.398-1.125-0.622-2.227-0.665-3.276c-0.038-0.844,0.155-1.559,0.38-2.387l0.053-0.193l0.062-0.227l-0.223-0.075l-2.993-1.009
					l-0.223-0.075l-0.089,0.218l-0.084,0.207c-0.319,0.788-0.595,1.468-1.131,2.112c-0.681,0.818-1.548,1.578-2.512,2.205
					l-1.36-0.698c-0.05-1.164,0.063-2.312,0.329-3.328c0.212-0.817,0.609-1.442,1.069-2.167l0.107-0.17l0.125-0.199l-0.191-0.137
					L22.46,65.5l-0.19-0.138l-0.148,0.182l-0.131,0.161c-0.541,0.664-1.008,1.237-1.715,1.698c-0.88,0.574-1.932,1.045-3.05,1.365
					l-1.092-1.067c0.303-1.152,0.737-2.188,1.291-3.082c0.446-0.717,1.008-1.197,1.658-1.752l0.158-0.135l0.178-0.153l-0.142-0.188
					l-1.907-2.521l-0.142-0.188l-0.196,0.13l-0.186,0.124c-0.707,0.472-1.318,0.879-2.124,1.108
					c-0.95,0.271-1.981,0.409-3.065,0.409c-0.084,0-0.167-0.001-0.251-0.002l-0.73-1.343c0.604-0.977,1.343-1.86,2.144-2.563
					c0.629-0.55,1.301-0.84,2.079-1.176l0.212-0.092l0.216-0.094l-0.081-0.221l-1.08-2.97l-0.08-0.221l-0.225,0.066l-0.207,0.062
					c-0.785,0.233-1.464,0.435-2.26,0.435l-0.103-0.001c-1.063-0.022-2.197-0.225-3.289-0.589l-0.303-1.499
					c0.873-0.759,1.841-1.387,2.807-1.818c0.768-0.341,1.499-0.421,2.347-0.514l0.214-0.023l0.233-0.026l-0.011-0.234l-0.156-3.155
					l-0.012-0.235l-0.235-0.003l-0.21-0.002c-0.855-0.009-1.594-0.017-2.392-0.281c-1.008-0.334-2.031-0.864-2.969-1.533
					l0.153-1.521c1.063-0.472,2.171-0.786,3.215-0.91c0.188-0.022,0.373-0.033,0.565-0.033c0.61,0,1.175,0.108,1.829,0.233
					l0.213,0.041l0.231,0.044l0.058-0.228l0.78-3.061l0.059-0.228l-0.225-0.072l-0.209-0.067c-0.811-0.26-1.51-0.483-2.193-0.971
					c-0.857-0.611-1.68-1.418-2.386-2.342l0.596-1.407c0.482-0.058,0.966-0.086,1.441-0.086c0.657,0,1.296,0.055,1.899,0.165
					c0.828,0.151,1.48,0.499,2.234,0.9l0.185,0.098l0.208,0.11l0.122-0.201l1.648-2.693l0.123-0.2l-0.192-0.135L17.49,30.73
					c-0.698-0.487-1.301-0.909-1.81-1.575c-0.649-0.852-1.197-1.866-1.588-2.939l0.981-1.17c1.131,0.206,2.225,0.572,3.171,1.061
					c0.744,0.384,1.264,0.908,1.865,1.514l0.152,0.152l0.166,0.167l0.176-0.155l2.37-2.088l0.177-0.155l-0.145-0.186l-0.132-0.169
					c-0.525-0.673-0.979-1.254-1.27-2.042c-0.366-0.995-0.586-2.097-0.653-3.278l1.285-0.829c1.035,0.54,1.972,1.211,2.717,1.948
					c0.601,0.594,0.943,1.249,1.341,2.007l0.095,0.181l0.11,0.208l0.214-0.097l2.88-1.297l0.214-0.096l-0.082-0.219
					c-0.167-0.449-0.338-0.896-0.504-1.331c-0.361-1.16-0.307-2.68,0.16-4.521l1.471-0.413c0.825,0.815,1.523,1.733,2.023,2.662
					c0.398,0.739,0.532,1.463,0.687,2.302l0.039,0.211l0.044,0.231l0.233-0.029l3.136-0.391l0.232-0.029l-0.014-0.235L37.22,19.92
					c-0.056-0.854-0.104-1.59,0.101-2.406C37.585,16.472,38.036,15.412,38.63,14.438 M38.494,66.176
					c1.792,0,3.586-0.236,5.334-0.701c11.014-2.932,17.589-14.279,14.657-25.295c-2.408-9.042-10.618-15.357-19.965-15.357
					c-1.791,0-3.586,0.236-5.333,0.701C22.173,28.458,15.599,39.805,18.532,50.82C20.939,59.861,29.148,66.176,38.494,66.176
					 M38.492,14.185c-0.627,1.001-1.124,2.124-1.414,3.269c-0.23,0.923-0.154,1.742-0.095,2.692l-3.136,0.391
					c-0.175-0.936-0.301-1.749-0.752-2.586c-0.561-1.041-1.32-2.001-2.172-2.823l-1.748,0.491c-0.389,1.479-0.658,3.302-0.192,4.797
					c0.171,0.448,0.341,0.896,0.508,1.344l-2.88,1.297c-0.444-0.844-0.805-1.579-1.481-2.249c-0.841-0.831-1.854-1.524-2.907-2.059
					l-1.527,0.986c0.055,1.18,0.267,2.385,0.676,3.496c0.328,0.893,0.854,1.526,1.438,2.278l-2.37,2.088
					c-0.671-0.673-1.236-1.276-2.08-1.712c-1.051-0.543-2.218-0.911-3.384-1.109l-1.167,1.391c0.391,1.113,0.959,2.204,1.674,3.142
					c0.577,0.756,1.266,1.207,2.045,1.754l-1.648,2.693c-0.842-0.446-1.556-0.853-2.491-1.023c-0.636-0.115-1.29-0.169-1.944-0.169
					c-0.542,0-1.085,0.037-1.615,0.106L9.12,34.342c0.706,0.946,1.564,1.824,2.527,2.51c0.774,0.553,1.565,0.78,2.471,1.072
					l-0.78,3.061c-0.735-0.139-1.386-0.279-2.089-0.279c-0.193,0-0.391,0.011-0.595,0.035c-1.174,0.14-2.348,0.499-3.42,0.99
					l-0.182,1.808c0.951,0.696,2.033,1.28,3.152,1.652c0.902,0.299,1.727,0.284,2.678,0.296l0.156,3.155
					c-0.947,0.105-1.766,0.171-2.635,0.558c-1.08,0.482-2.096,1.168-2.979,1.954l0.359,1.781c1.114,0.386,2.321,0.624,3.501,0.648
					c0.036,0,0.071,0.001,0.107,0.001c0.903,0,1.658-0.248,2.537-0.507l1.08,2.97c-0.873,0.38-1.639,0.683-2.355,1.31
					c-0.888,0.778-1.659,1.732-2.268,2.744l0.868,1.597c0.134,0.004,0.267,0.006,0.401,0.006c1.053,0,2.127-0.131,3.134-0.418
					c0.916-0.26,1.587-0.737,2.38-1.264l1.907,2.521c-0.725,0.621-1.362,1.136-1.865,1.944c-0.623,1.006-1.068,2.146-1.357,3.292
					l1.299,1.27c1.139-0.313,2.27-0.791,3.258-1.436c0.798-0.521,1.299-1.172,1.902-1.91l2.564,1.847
					c-0.51,0.807-0.968,1.487-1.207,2.407c-0.299,1.145-0.394,2.367-0.33,3.547l1.617,0.83c0.996-0.631,1.935-1.426,2.69-2.333
					c0.608-0.731,0.894-1.501,1.254-2.385l2.993,1.009c-0.248,0.92-0.484,1.706-0.441,2.656c0.049,1.183,0.323,2.377,0.729,3.486
					l1.789,0.316c0.77-0.899,1.424-1.933,1.883-3.022c0.371-0.875,0.414-1.702,0.497-2.647l3.157,0.08
					c0.035,0.95,0.037,1.776,0.359,2.67c0.402,1.113,1.007,2.175,1.727,3.115l1.802-0.225c0.47-1.086,0.791-2.267,0.909-3.443
					c0.096-0.944-0.107-1.748-0.307-2.676l3.042-0.854c0.313,0.897,0.559,1.686,1.13,2.444c0.711,0.945,1.604,1.783,2.566,2.469
					l1.658-0.747c0.125-1.174,0.092-2.4-0.146-3.558c-0.191-0.932-0.617-1.637-1.083-2.467l2.655-1.712
					c0.566,0.77,1.033,1.439,1.802,2.004c0.952,0.696,2.062,1.23,3.18,1.601l1.364-1.201c-0.292-1.5-0.842-3.263-1.91-4.404
					c-0.348-0.33-0.693-0.661-1.041-0.99l2.033-2.419c0.765,0.567,1.411,1.074,2.311,1.383c1.117,0.385,2.332,0.57,3.51,0.594
					l0.951-1.551c-0.561-1.043-1.279-2.029-2.127-2.856c-0.68-0.664-1.433-1.006-2.282-1.429l1.229-2.91
					c0.895,0.314,1.664,0.616,2.615,0.641c0.091,0.002,0.181,0.003,0.271,0.003c1.097,0,2.208-0.173,3.258-0.472l0.449-1.761
					c-0.843-0.828-1.816-1.567-2.871-2.104c-0.848-0.431-1.664-0.539-2.605-0.691l0.318-3.144c0.382,0.015,0.741,0.033,1.096,0.033
					c0.528,0,1.044-0.041,1.594-0.192c1.137-0.313,2.244-0.841,3.234-1.488l-0.09-1.813c-1.049-0.546-2.201-0.961-3.364-1.165
					c-0.303-0.053-0.593-0.074-0.879-0.074c-0.598,0-1.177,0.092-1.813,0.18l-0.623-3.097c0.922-0.246,1.718-0.435,2.522-0.944
					c0.997-0.633,1.898-1.468,2.651-2.375l-0.62-1.709c-0.723-0.13-1.468-0.204-2.211-0.204c-0.451,0-0.902,0.027-1.348,0.084
					c-0.943,0.121-1.678,0.492-2.542,0.895l-1.507-2.775c0.806-0.505,1.519-0.92,2.132-1.646c0.762-0.901,1.385-1.96,1.833-3.051
					l-1.095-1.45c-1.174,0.141-2.357,0.446-3.436,0.936c-0.867,0.393-1.46,0.965-2.164,1.604l-2.261-2.208l0.933-1.079
					c0.96-1.238,1.327-3.057,1.474-4.579l-1.476-1.062c-1.08,0.479-2.121,1.121-3.007,1.905c-0.712,0.63-1.109,1.354-1.595,2.171
					l-2.813-1.442c0.385-0.874,0.736-1.616,0.836-2.562c0.126-1.175,0.035-2.399-0.203-3.555l-1.723-0.58
					c-0.89,0.775-1.699,1.696-2.313,2.708c-0.491,0.813-0.66,1.615-0.885,2.544l-3.111-0.551c0.109-0.945,0.229-1.762,0.045-2.693
					c-0.232-1.16-0.673-2.302-1.244-3.337L38.492,14.185L38.492,14.185z M38.494,65.926c-9.028,0-17.287-6.033-19.721-15.171
					c-2.902-10.899,3.58-22.087,14.479-24.99c1.761-0.469,3.528-0.693,5.269-0.693c9.029,0,17.289,6.034,19.724,15.172
					c2.9,10.899-3.582,22.087-14.48,24.989C42.002,65.703,40.235,65.926,38.494,65.926L38.494,65.926z"/>
			</g>
		</g>
		<line fill="none" x1="33.191" y1="0.863" x2="44.063" y2="0.863"/>
		<g display="none">
			
				<line display="inline" fill="none" stroke="#272525" stroke-width="0.25" stroke-miterlimit="10" x1="38.509" y1="35.966" x2="38.509" y2="55.034"/>
			
				<line display="inline" fill="none" stroke="#272525" stroke-width="0.25" stroke-miterlimit="10" x1="48.043" y1="45.5" x2="28.975" y2="45.5"/>
			<circle display="inline" fill="#272525" cx="38.509" cy="35.966" r="2.068"/>
		</g>
	</g>
</g>
</svg>
