<?xml version="1.0" encoding="utf-8"?>
<!-- Generator: Adobe Illustrator 16.0.0, SVG Export Plug-In . SVG Version: 6.00 Build 0)  -->
<!DOCTYPE svg PUBLIC "-//W3C//DTD SVG 1.1//EN" "http://www.w3.org/Graphics/SVG/1.1/DTD/svg11.dtd">
<svg version="1.1" xmlns="http://www.w3.org/2000/svg" xmlns:xlink="http://www.w3.org/1999/xlink" x="0px" y="0px" width="40px"
	 height="40px" viewBox="0 0 40 40" enable-background="new 0 0 40 40" xml:space="preserve">
<g id="screenshots" display="none">
</g>
<g id="fondo_negro" display="none">
</g>
<g id="imagenes" display="none">
</g>
<g id="texto" display="none">
</g>
<g id="Capa_6" display="none">
</g>
<g id="bienvenido" display="none">
</g>
<g id="landpage">
	<defs>
		<rect id="ventana" x="-2043.192" y="-199.191" width="1024.5" height="487.98"/>
	</defs>
	<clipPath id="ventana_1_">
		<use xlink:href="#ventana"  overflow="visible"/>
	</clipPath>
</g>
<g id="bocetos">
</g>
<g id="exportaciones">
	<g id="gear_5_1_">
		<g>
			<path fill="#B7B053" stroke="#272525" stroke-width="0.25" stroke-miterlimit="10" d="M36.199,20.863
				c1.043-0.257,2.006-0.83,2.854-1.473l0.175-0.199l-0.117-1.47l-0.207-0.169c-0.938-0.5-1.982-0.912-3.052-0.999
				c-0.962-0.075-1.921,0.283-2.847,0.493l-1.063-2.98c0.851-0.422,1.821-0.75,2.519-1.418c0.774-0.742,1.322-1.721,1.735-2.702
				l0.053-0.262L35.41,8.471l-0.262-0.044c-1.063,0.036-2.175,0.203-3.144,0.663c-0.871,0.413-1.521,1.206-2.22,1.851L27.377,8.89
				l1.199-1.808c0.635-1.116,0.583-2.659,0.422-3.887l-0.084-0.253L27.582,2.31l-0.25,0.095c-1.056,0.658-2.259,1.578-2.741,2.771
				c-0.214,0.695-0.43,1.391-0.646,2.086l-3.111-0.571c0.058-0.947,0.26-1.954,0.03-2.891c-0.258-1.04-0.828-2.007-1.474-2.853
				l-0.199-0.177l-1.471,0.118l-0.17,0.206c-0.58,1.097-1.182,2.513-0.984,3.786l0.481,2.115l-2.98,1.062
				c-0.423-0.851-0.751-1.823-1.419-2.519c-0.741-0.772-1.721-1.326-2.701-1.734L9.686,3.751L8.472,4.588L8.428,4.853
				C8.467,5.917,8.63,7.025,9.09,7.995c0.415,0.871,1.207,1.524,1.853,2.22l-2.051,2.409c-0.791-0.524-1.562-1.201-2.489-1.472
				C5.374,10.853,4.252,10.868,3.196,11l-0.253,0.086L2.31,12.418l0.095,0.25c0.666,1.054,1.573,2.259,2.771,2.741
				c0.695,0.214,1.391,0.431,2.087,0.646l-0.57,3.111c-0.727-0.045-1.453-0.092-2.18-0.136c-1.286,0.022-2.575,0.828-3.563,1.578
				l-0.178,0.2l0.118,1.47l0.206,0.17c0.94,0.499,1.982,0.912,3.053,0.997c0.961,0.077,1.923-0.283,2.849-0.492l1.062,2.979
				c-0.851,0.422-1.823,0.751-2.519,1.418c-0.775,0.744-1.321,1.722-1.734,2.702l-0.053,0.263l0.836,1.214l0.266,0.042
				c1.061-0.032,2.174-0.202,3.141-0.661c0.872-0.414,1.524-1.207,2.221-1.853l2.409,2.051c-0.524,0.792-1.201,1.562-1.472,2.488
				c-0.298,1.028-0.29,2.154-0.15,3.207l0.085,0.254l1.331,0.632l0.25-0.095c1.05-0.654,2.27-1.579,2.74-2.771
				c0.214-0.696,0.432-1.391,0.646-2.085l3.112,0.569c-0.047,0.736-0.103,1.472-0.137,2.208c0.053,1.279,0.82,2.549,1.579,3.536
				l0.2,0.177l1.469-0.118l0.17-0.207c0.586-1.093,1.17-2.501,0.988-3.771c-0.162-0.71-0.323-1.419-0.484-2.13l2.98-1.062
				c0.323,0.652,0.647,1.304,0.972,1.956c0.67,1.102,2,1.812,3.148,2.298l0.262,0.052l1.215-0.837l0.042-0.264
				c-0.045-1.244-0.236-2.743-1.028-3.76c-0.497-0.531-0.989-1.067-1.483-1.602l2.05-2.41c0.79,0.524,1.561,1.203,2.487,1.472
				c1.029,0.299,2.152,0.286,3.209,0.15l0.252-0.085l0.632-1.331l-0.093-0.25c-0.561-0.901-1.263-1.784-2.145-2.39
				c-0.796-0.547-1.807-0.717-2.714-0.998l0.571-3.111C34.258,20.891,35.264,21.093,36.199,20.863z M26.488,23.341
				c-1.846,0-3.342-1.496-3.342-3.342s1.496-3.342,3.342-3.342S29.83,18.154,29.83,20S28.334,23.341,26.488,23.341z M16.658,26.488
				c0-1.846,1.496-3.342,3.342-3.342s3.342,1.496,3.342,3.342S21.846,29.83,20,29.83S16.658,28.333,16.658,26.488z M13.512,16.658
				c1.846,0,3.342,1.496,3.342,3.342s-1.496,3.342-3.342,3.342S10.17,21.845,10.17,20S11.666,16.658,13.512,16.658z M23.342,13.511
				c0,1.846-1.496,3.342-3.342,3.342s-3.342-1.496-3.342-3.342s1.496-3.342,3.342-3.342S23.342,11.666,23.342,13.511z"/>
			<circle fill="#B7B053" stroke="#272525" stroke-width="0.25" stroke-miterlimit="10" cx="20" cy="20" r="1.754"/>
			<path fill="none" stroke="#272525" stroke-width="0.25" stroke-miterlimit="10" d="M30.935,19.998
				c0,6.04-4.895,10.935-10.935,10.935S9.065,26.038,9.065,19.998C9.065,13.961,13.96,9.066,20,9.066S30.935,13.961,30.935,19.998z"
				/>
		</g>
		<g display="none">
			<g display="inline">
				<polyline fill="#B7B053" stroke="#272525" stroke-width="0.25" stroke-miterlimit="10" points="10.262,15.867 10.132,16.152 
					10.012,16.445 9.904,16.75 9.803,17.044 				"/>
				
					<line fill="#B7B053" stroke="#272525" stroke-width="0.25" stroke-miterlimit="10" x1="10.602" y1="16.674" x2="9.415" y2="16.217"/>
				<polyline fill="#B7B053" stroke="#272525" stroke-width="0.25" stroke-miterlimit="10" points="9.678,15.6 9.84,16.033 
					10.012,16.445 10.2,16.851 10.406,17.235 				"/>
				<polyline fill="#B7B053" stroke="#272525" stroke-width="0.25" stroke-miterlimit="10" points="10.836,16.126 10.424,16.272 
					10.012,16.445 9.6,16.643 9.192,16.857 				"/>
				<polyline fill="#B7B053" stroke="#272525" stroke-width="0.25" stroke-miterlimit="10" points="9.697,14.846 9.874,14.543 
					10.044,14.243 10.234,13.954 10.434,13.662 11.027,14.481 11.664,15.25 				"/>
				<polyline fill="#B7B053" stroke="#272525" stroke-width="0.25" stroke-miterlimit="10" points="13.13,10.981 14.219,12.549 
					13.704,12.337 13.161,12.144 12.613,11.988 12.045,11.847 13.316,13.266 				"/>
				<polyline fill="#B7B053" stroke="#272525" stroke-width="0.25" stroke-miterlimit="10" points="15.199,10.535 14.898,10.678 
					14.609,10.828 14.322,10.984 14.037,11.149 				"/>
				<polyline fill="#B7B053" stroke="#272525" stroke-width="0.25" stroke-miterlimit="10" points="15.463,11.117 15.182,11.246 
					14.909,11.388 14.634,11.532 14.375,11.688 				"/>
				<polyline fill="#B7B053" stroke="#272525" stroke-width="0.25" stroke-miterlimit="10" points="15.693,9.988 15.906,9.579 
					16.523,11.381 				"/>
				<polyline fill="#B7B053" stroke="#272525" stroke-width="0.25" stroke-miterlimit="10" points="16.797,11.291 16.523,11.381 
					16.252,11.48 				"/>
				<polyline fill="#B7B053" stroke="#272525" stroke-width="0.25" stroke-miterlimit="10" points="18.482,10.947 18.198,10.98 
					17.916,11.022 17.629,11.073 17.348,11.141 17.203,10.52 17.442,10.144 17.753,10.084 18.066,10.033 18.348,9.678 18.311,9.36 
					17.928,9.096 17.588,9.149 17.244,9.211 16.98,9.594 				"/>
				<polyline fill="#B7B053" stroke="#272525" stroke-width="0.25" stroke-miterlimit="10" points="20.599,9.99 20.908,10.034 
					21.229,10.083 21.535,10.138 21.927,9.903 21.996,9.593 21.728,9.205 21.387,9.144 21.047,9.092 20.703,9.05 20.496,10.936 				
					"/>
				
					<line fill="#B7B053" stroke="#272525" stroke-width="0.25" stroke-miterlimit="10" x1="22.179" y1="11.289" x2="22.554" y2="10.068"/>
				
					<line fill="#B7B053" stroke="#272525" stroke-width="0.25" stroke-miterlimit="10" x1="22.646" y1="9.768" x2="22.737" y2="9.468"/>
				<polyline fill="#B7B053" stroke="#272525" stroke-width="0.25" stroke-miterlimit="10" points="23.929,11.663 23.52,11.816 
					23.389,11.398 24.038,9.957 				"/>
				<polyline fill="#B7B053" stroke="#272525" stroke-width="0.25" stroke-miterlimit="10" points="24.369,10.82 24.078,10.673 
					23.777,10.53 23.476,10.405 23.173,10.28 				"/>
				<polyline fill="#B7B053" stroke="#272525" stroke-width="0.25" stroke-miterlimit="10" points="25.221,12.883 24.99,12.708 
					24.762,12.542 24.523,12.376 24.443,11.952 24.776,11.415 25.212,11.313 25.482,11.5 25.754,11.689 26.014,11.889 				"/>
				<polyline fill="#B7B053" stroke="#272525" stroke-width="0.25" stroke-miterlimit="10" points="26.086,12.787 26.529,12.76 
					26.982,12.766 27.209,13.004 27.187,13.455 26.463,14.078 				"/>
				
					<line fill="#B7B053" stroke="#272525" stroke-width="0.25" stroke-miterlimit="10" x1="25.661" y1="13.258" x2="26.937" y2="11.843"/>
				<polyline fill="#B7B053" stroke="#272525" stroke-width="0.25" stroke-miterlimit="10" points="27.605,15.733 27.736,15.993 
					27.862,16.246 27.979,16.511 28.378,16.666 29.564,16.209 29.73,15.771 29.59,15.453 29.441,15.137 29.279,14.835 				"/>
				
					<line fill="#B7B053" stroke="#272525" stroke-width="0.25" stroke-miterlimit="10" x1="29.441" y1="15.137" x2="27.736" y2="15.993"/>
				<polyline fill="#B7B053" stroke="#272525" stroke-width="0.25" stroke-miterlimit="10" points="29.803,18.208 29.742,17.89 
					29.66,17.568 29.582,17.255 29.486,16.94 				"/>
				<polyline fill="#B7B053" stroke="#272525" stroke-width="0.25" stroke-miterlimit="10" points="29.172,18.323 29.114,18.02 
					29.05,17.72 28.969,17.425 28.88,17.133 				"/>
				<polyline fill="#B7B053" stroke="#272525" stroke-width="0.25" stroke-miterlimit="10" points="29.016,19.861 28.687,19.581 
					28.668,19.291 28.953,18.969 30.215,18.819 30.562,19.129 30.591,19.476 30.282,19.831 29.016,19.861 				"/>
				
					<line fill="#B7B053" stroke="#272525" stroke-width="0.25" stroke-miterlimit="10" x1="29.013" y1="20.454" x2="28.697" y2="20.446"/>
				<polyline fill="#B7B053" stroke="#272525" stroke-width="0.25" stroke-miterlimit="10" points="29.087,22.298 29.15,21.99 
					29.209,21.693 29.252,21.382 29.291,21.082 29.672,21.442 30.043,21.823 30.397,22.236 28.527,21.867 				"/>
				<polyline fill="#B7B053" stroke="#272525" stroke-width="0.25" stroke-miterlimit="10" points="28.67,24.462 28.529,24.745 
					28.377,25.02 28.219,25.299 28.322,25.743 28.586,25.908 29.04,25.782 29.209,25.483 29.379,25.183 29.528,24.873 
					27.812,24.052 				"/>
				<polyline fill="#B7B053" stroke="#272525" stroke-width="0.25" stroke-miterlimit="10" points="27.114,27.285 27.331,27.047 
					27.551,26.792 27.755,26.541 27.953,26.283 				"/>
				<polyline fill="#B7B053" stroke="#272525" stroke-width="0.25" stroke-miterlimit="10" points="26.648,26.848 26.859,26.622 
					27.061,26.389 27.25,26.153 27.438,25.907 				"/>
				<polyline fill="#B7B053" stroke="#272525" stroke-width="0.25" stroke-miterlimit="10" points="26.867,27.975 26.822,28.442 
					26.559,28.669 26.293,28.888 25.822,28.836 25.644,28.583 25.711,28.134 25.27,28.064 25.08,27.805 25.121,27.383 
					25.349,27.203 25.572,27.015 26.004,27.054 				"/>
				
					<line fill="#B7B053" stroke="#272525" stroke-width="0.25" stroke-miterlimit="10" x1="25.956" y1="27.931" x2="25.711" y2="28.134"/>
				<polyline fill="#B7B053" stroke="#272525" stroke-width="0.25" stroke-miterlimit="10" points="23.811,28.584 23.922,28.166 
					24.17,28.021 24.584,28.145 25.262,29.214 25.142,29.663 24.834,29.834 24.385,29.714 23.811,28.584 				"/>
				<polyline fill="#B7B053" stroke="#272525" stroke-width="0.25" stroke-miterlimit="10" points="22.025,29.936 21.717,30.003 
					21.402,30.074 21.088,30.125 20.817,30.486 20.861,30.801 21.245,31.065 21.582,31.005 21.924,30.934 22.263,30.856 
					21.788,29.014 				"/>
				<polyline fill="#B7B053" stroke="#272525" stroke-width="0.25" stroke-miterlimit="10" points="20.087,29.286 20.124,29.917 
					19.845,30.566 19.51,31.208 19.185,30.569 18.898,29.917 18.939,29.286 				"/>
				<polyline fill="#B7B053" stroke="#272525" stroke-width="0.25" stroke-miterlimit="10" points="20.124,29.917 19.814,29.933 
					19.513,29.938 19.205,29.927 18.898,29.917 				"/>
				<polyline fill="#B7B053" stroke="#272525" stroke-width="0.25" stroke-miterlimit="10" points="16.923,30.252 17.233,30.323 
					17.56,30.388 17.883,30.446 18.205,30.496 				"/>
				<polyline fill="#B7B053" stroke="#272525" stroke-width="0.25" stroke-miterlimit="10" points="17.074,29.637 17.375,29.702 
					17.675,29.768 17.98,29.822 18.287,29.859 				"/>
				<polyline fill="#B7B053" stroke="#272525" stroke-width="0.25" stroke-miterlimit="10" points="15.605,28.439 15.872,28.559 
					16.132,28.665 16.402,28.766 16.675,28.857 16.488,29.467 16.083,29.663 15.785,29.553 15.494,29.433 15.068,29.592 
					14.938,29.879 15.123,30.304 15.439,30.442 15.766,30.559 16.197,30.373 				"/>
				<polyline fill="#B7B053" stroke="#272525" stroke-width="0.25" stroke-miterlimit="10" points="14.179,27.994 14.598,27.889 
					14.847,28.041 14.943,28.459 14.332,29.577 13.883,29.683 13.586,29.503 13.473,29.054 14.179,27.994 				"/>
			</g>
		</g>
		<g display="none">
			
				<line display="inline" fill="none" stroke="#272525" stroke-width="0.25" stroke-miterlimit="10" x1="13.891" y1="20.169" x2="26.131" y2="20.169"/>
			
				<line display="inline" fill="none" stroke="#272525" stroke-width="0.25" stroke-miterlimit="10" x1="20.011" y1="14.049" x2="20.011" y2="26.29"/>
			<circle display="inline" fill="#272525" cx="20.01" cy="14.049" r="1.388"/>
		</g>
	</g>
</g>
</svg>
