<?xml version="1.0" encoding="utf-8"?>
<!-- Generator: Adobe Illustrator 16.0.0, SVG Export Plug-In . SVG Version: 6.00 Build 0)  -->
<!DOCTYPE svg PUBLIC "-//W3C//DTD SVG 1.1//EN" "http://www.w3.org/Graphics/SVG/1.1/DTD/svg11.dtd">
<svg version="1.1" xmlns="http://www.w3.org/2000/svg" xmlns:xlink="http://www.w3.org/1999/xlink" x="0px" y="0px" width="64px"
	 height="64px" viewBox="0 0 64 64" enable-background="new 0 0 64 64" xml:space="preserve">
<g id="screenshots" display="none">
</g>
<g id="fondo_negro" display="none">
</g>
<g id="imagenes" display="none">
</g>
<g id="texto" display="none">
</g>
<g id="Capa_6" display="none">
</g>
<g id="bienvenido" display="none">
</g>
<g id="landpage">
	<defs>
		<rect id="ventana" x="-1964.822" y="-187.191" width="1024.5" height="487.98"/>
	</defs>
	<clipPath id="ventana_1_">
		<use xlink:href="#ventana"  overflow="visible"/>
	</clipPath>
</g>
<g id="bocetos">
</g>
<g id="exportaciones">
	<g id="gear_4_1_">
		<g>
			<polygon fill="#B7B053" stroke="#272525" stroke-width="0.25" stroke-miterlimit="10" points="33.471,8.489 30.529,8.489 
				29.529,28.822 34.471,28.822 			"/>
			<polygon fill="#B7B053" stroke="#272525" stroke-width="0.25" stroke-miterlimit="10" points="54.681,26.034 53.771,23.236 
				34.124,28.571 35.651,33.271 			"/>
			<polygon fill="#B7B053" stroke="#272525" stroke-width="0.25" stroke-miterlimit="10" points="44.55,51.628 46.93,49.899 
				35.783,32.862 31.786,35.769 			"/>
			<polygon fill="#B7B053" stroke="#272525" stroke-width="0.25" stroke-miterlimit="10" points="17.078,49.904 19.458,51.634 
				32.215,35.768 28.216,32.864 			"/>
			<polygon fill="#B7B053" stroke="#272525" stroke-width="0.25" stroke-miterlimit="10" points="10.226,23.245 9.316,26.044 
				28.349,33.271 29.874,28.57 			"/>
			<g>
				<path fill="#B7B053" d="M29.788,63.368c-0.561-1.089-0.94-2.187-1.13-3.263c-0.148-0.846-0.048-1.583,0.069-2.437l0.045-0.333
					l-3.329-0.659l-0.084,0.321c-0.219,0.835-0.407,1.556-0.867,2.284c-0.586,0.926-1.376,1.819-2.287,2.585l-1.574-0.565
					c-0.213-1.185-0.253-2.376-0.117-3.45c0.108-0.857,0.424-1.536,0.789-2.322l0.136-0.292l-2.988-1.612l-0.176,0.284
					c-0.454,0.733-0.846,1.366-1.499,1.925c-0.823,0.705-1.841,1.325-2.947,1.796l-1.338-1.005c0.151-1.224,0.455-2.344,0.903-3.331
					c0.36-0.79,0.863-1.347,1.446-1.993l0.21-0.232l-2.381-2.42l-0.243,0.212c-0.653,0.57-1.218,1.063-2.01,1.405
					c-0.999,0.431-2.153,0.723-3.344,0.847l-0.983-1.354c0.481-1.083,1.119-2.091,1.846-2.917c0.569-0.645,1.21-1.026,1.951-1.468
					l0.285-0.17L8.609,42.19L8.32,42.319c-0.794,0.354-1.479,0.66-2.338,0.753c-0.37,0.04-0.745,0.06-1.122,0.06
					c-0.767,0-1.549-0.08-2.326-0.236l-0.539-1.583c0.789-0.9,1.695-1.675,2.624-2.243c0.736-0.45,1.463-0.625,2.304-0.83
					l0.316-0.077l-0.603-3.341l-0.324,0.039c-0.509,0.062-0.989,0.119-1.472,0.119c-0.344,0-0.663-0.029-0.977-0.09
					c-1.073-0.208-2.192-0.617-3.242-1.184l-0.047-1.673c1.024-0.632,2.117-1.105,3.166-1.37c0.427-0.107,0.866-0.157,1.384-0.157
					c0.349,0,0.7,0.021,1.07,0.044l0.318,0.019l0.409-3.369L6.589,27.14c-0.848-0.155-1.58-0.288-2.337-0.691
					c-0.96-0.513-1.908-1.234-2.747-2.088l0.446-1.612c0.989-0.257,1.974-0.388,2.926-0.388c0.169,0,0.337,0.004,0.504,0.013
					c0.86,0.043,1.56,0.307,2.369,0.611L8.059,23.1l1.382-3.099l-0.295-0.154c-0.766-0.398-1.426-0.742-2.031-1.352
					c-0.776-0.784-1.472-1.752-2.013-2.805l0.901-1.409c1.185,0.054,2.355,0.279,3.391,0.653c0.805,0.291,1.392,0.747,2.071,1.274
					l0.271,0.209l2.234-2.555l-0.247-0.245c-0.61-0.603-1.137-1.124-1.531-1.88c-0.508-0.967-0.877-2.068-1.098-3.273l1.278-1.08
					c1.137,0.408,2.188,0.968,3.047,1.623c0.69,0.526,1.121,1.141,1.621,1.852l0.18,0.255l2.888-1.782l-0.732-1.371
					c-0.521-1.127-0.664-2.689-0.423-4.635L20.49,2.67c0.959,0.724,1.8,1.569,2.433,2.45c0.5,0.695,0.729,1.401,0.994,2.219
					l0.106,0.326l3.286-0.852l-0.065-0.333c-0.166-0.844-0.31-1.574-0.209-2.424c0.13-1.101,0.454-2.248,0.938-3.322l1.665-0.173
					c0.7,0.966,1.253,2.022,1.602,3.058c0.274,0.803,0.284,1.541,0.296,2.395l0.006,0.361l3.389,0.155l0.036-0.332
					c0.092-0.857,0.171-1.598,0.517-2.385c0.437-0.992,1.085-1.992,1.876-2.897L39,1.239c0.387,1.131,0.604,2.303,0.63,3.394
					c0.021,0.869-0.192,1.59-0.439,2.426l-0.087,0.296L42.3,8.502l0.138-0.32c0.337-0.789,0.629-1.471,1.189-2.113
					c0.723-0.827,1.636-1.592,2.646-2.216l1.473,0.795c0.061,1.977-0.227,3.521-0.856,4.593l-0.846,1.282l2.713,2.039l0.229-0.268
					c0.555-0.653,1.034-1.217,1.757-1.665c0.943-0.584,2.015-1.034,3.185-1.338l1.173,1.194c-0.312,1.14-0.792,2.23-1.392,3.158
					c-0.461,0.719-1.035,1.189-1.699,1.733l-0.267,0.219l1.991,2.749l0.285-0.182c0.727-0.463,1.354-0.863,2.182-1.081
					c0.891-0.234,1.856-0.353,2.869-0.353c0.19,0,0.38,0.004,0.568,0.013l0.768,1.486c-0.652,1.018-1.432,1.918-2.258,2.608
					c-0.668,0.556-1.363,0.84-2.169,1.169l-0.288,0.118l1.094,3.212l0.329-0.09c0.769-0.211,1.432-0.394,2.2-0.394l0.202,0.004
					c1.092,0.048,2.26,0.286,3.382,0.688l0.297,1.646c-0.911,0.771-1.922,1.402-2.929,1.826c-0.792,0.334-1.536,0.4-2.398,0.477
					l-0.326,0.029l0.096,3.393l0.323,0.01c0.867,0.026,1.616,0.048,2.43,0.336c1.018,0.361,2.063,0.933,3.029,1.655l-0.201,1.661
					c-1.094,0.464-2.246,0.769-3.337,0.882c-0.167,0.017-0.329,0.025-0.488,0.025c-0.654,0-1.273-0.133-1.929-0.273l-0.337-0.072
					l-0.905,3.27l0.342,0.118c0.808,0.276,1.505,0.515,2.182,1.024c0.886,0.666,1.718,1.521,2.409,2.475l-0.683,1.528
					c-0.433,0.045-0.868,0.068-1.295,0.068c-0.752,0-1.477-0.07-2.153-0.208c-0.837-0.17-1.481-0.529-2.228-0.945l-0.311-0.172
					l-1.83,2.858l1.256,0.917c0.965,0.797,1.771,2.142,2.392,3.992l-1.102,1.259c-1.184-0.234-2.308-0.631-3.253-1.15
					c-0.759-0.417-1.275-0.959-1.873-1.586l-0.222-0.231l-2.592,2.193l0.205,0.274c0.517,0.688,0.962,1.283,1.239,2.092
					c0.355,1.034,0.562,2.208,0.596,3.4l-1.424,0.878c-1.037-0.558-1.994-1.269-2.772-2.06c-0.597-0.609-0.928-1.275-1.311-2.045
					l-0.153-0.307l-3.125,1.332l0.116,0.325c0.291,0.81,0.543,1.509,0.567,2.361c0.029,1.123-0.12,2.305-0.433,3.425l-1.621,0.419
					c-0.828-0.844-1.533-1.805-2.04-2.784c-0.392-0.76-0.513-1.495-0.652-2.345l-0.056-0.335l-3.375,0.352l0.016,0.351
					c0.038,0.857,0.071,1.597-0.157,2.417c-0.299,1.079-0.79,2.166-1.423,3.146L29.788,63.368z M32.006,10.482
					c-2.787,0-5.52,0.541-8.12,1.609C12.974,16.573,7.741,29.097,12.223,40.01c3.311,8.063,11.082,13.273,19.799,13.273
					c2.788,0,5.52-0.542,8.121-1.609c5.286-2.171,9.41-6.271,11.613-11.543c2.204-5.273,2.222-11.089,0.05-16.375
					C48.494,15.692,40.723,10.482,32.006,10.482z"/>
				<path fill="#272525" d="M29.578,0.692c0.674,0.94,1.205,1.963,1.543,2.967c0.268,0.784,0.277,1.512,0.289,2.355l0.004,0.244
					l0.004,0.234l0.234,0.011l3.154,0.145l0.234,0.011l0.025-0.233L35.09,6.21c0.091-0.847,0.169-1.578,0.507-2.348
					c0.423-0.96,1.047-1.93,1.809-2.811l1.499,0.296c0.369,1.098,0.576,2.232,0.601,3.288c0.021,0.849-0.19,1.562-0.434,2.388
					l-0.055,0.184l-0.065,0.226l0.221,0.08l2.975,1.068l0.222,0.079l0.093-0.216l0.092-0.212c0.333-0.78,0.621-1.453,1.169-2.081
					c0.699-0.801,1.581-1.544,2.556-2.154l1.346,0.727c0.051,1.917-0.231,3.415-0.835,4.442l-0.784,1.189l-0.129,0.196l0.188,0.141
					l2.525,1.897l0.188,0.141l0.153-0.178l0.152-0.18c0.548-0.645,1.021-1.201,1.728-1.64c0.913-0.565,1.949-1.004,3.08-1.305
					l1.071,1.091c-0.309,1.103-0.776,2.156-1.356,3.055c-0.451,0.702-1.018,1.167-1.674,1.704l-0.177,0.145l-0.181,0.149l0.138,0.19
					l1.854,2.558l0.138,0.19l0.198-0.126l0.187-0.119c0.718-0.458,1.337-0.853,2.146-1.065c0.881-0.231,1.836-0.349,2.838-0.349
					c0.164,0,0.328,0.003,0.491,0.009l0.701,1.357c-0.638,0.983-1.395,1.852-2.194,2.52c-0.652,0.543-1.34,0.824-2.136,1.149
					l-0.18,0.073l-0.218,0.089l0.076,0.223l1.018,2.99l0.075,0.222l0.227-0.062l0.217-0.06c0.76-0.209,1.416-0.389,2.168-0.389
					c0.064,0,0.129,0.001,0.195,0.004c1.058,0.046,2.188,0.273,3.277,0.657l0.271,1.503c-0.887,0.743-1.866,1.35-2.842,1.76
					c-0.773,0.327-1.509,0.392-2.36,0.467l-0.21,0.019l-0.234,0.021l0.007,0.235l0.09,3.158l0.007,0.235l0.235,0.007l0.205,0.006
					c0.856,0.025,1.597,0.048,2.392,0.329c0.986,0.35,1.999,0.899,2.938,1.594l-0.184,1.517c-1.063,0.444-2.179,0.735-3.234,0.845
					c-0.163,0.017-0.32,0.024-0.476,0.024c-0.641,0-1.226-0.125-1.902-0.271l-0.223-0.047l-0.23-0.049l-0.063,0.227l-0.843,3.044
					l-0.063,0.226l0.222,0.077l0.232,0.08c0.797,0.273,1.485,0.509,2.146,1.005c0.857,0.645,1.665,1.47,2.341,2.39l-0.624,1.396
					c-0.404,0.04-0.812,0.06-1.211,0.06c-0.742,0-1.459-0.069-2.128-0.206c-0.817-0.166-1.454-0.521-2.191-0.932l-0.208-0.116
					l-0.205-0.114l-0.127,0.198l-1.703,2.661l-0.127,0.198l0.191,0.139l0.549,0.401l0.599,0.437c0.941,0.777,1.727,2.08,2.337,3.872
					l-1.007,1.15c-1.146-0.233-2.231-0.62-3.147-1.122c-0.741-0.408-1.252-0.943-1.843-1.563l-0.14-0.146l-0.162-0.17l-0.18,0.152
					l-2.412,2.042l-0.18,0.152l0.141,0.188l0.135,0.18c0.51,0.68,0.95,1.267,1.221,2.058c0.345,1,0.547,2.136,0.587,3.291
					l-1.301,0.802c-1.002-0.546-1.926-1.237-2.679-2.002c-0.584-0.596-0.91-1.253-1.289-2.014l-0.101-0.202l-0.105-0.21
					l-0.216,0.092l-2.908,1.24l-0.217,0.092l0.079,0.222l0.077,0.215c0.287,0.799,0.535,1.49,0.56,2.322
					c0.028,1.087-0.112,2.231-0.409,3.318l-1.48,0.383c-0.798-0.822-1.477-1.754-1.969-2.702c-0.382-0.743-0.501-1.469-0.639-2.309
					l-0.037-0.219l-0.038-0.232l-0.233,0.024l-3.143,0.327l-0.233,0.024l0.01,0.235l0.011,0.233c0.037,0.847,0.07,1.578-0.153,2.379
					c-0.289,1.044-0.761,2.096-1.368,3.05l-1.526-0.069c-0.537-1.057-0.901-2.121-1.085-3.163c-0.145-0.826-0.045-1.555,0.07-2.398
					l0.029-0.217l0.031-0.233l-0.23-0.045l-3.099-0.613l-0.23-0.046l-0.06,0.227l-0.055,0.208c-0.216,0.825-0.402,1.538-0.852,2.249
					c-0.567,0.897-1.329,1.763-2.207,2.51l-1.438-0.516c-0.199-1.149-0.235-2.301-0.104-3.341c0.105-0.838,0.417-1.509,0.778-2.285
					l0.086-0.185l0.1-0.213l-0.207-0.112l-2.781-1.5l-0.207-0.111l-0.125,0.2l-0.113,0.184c-0.448,0.725-0.835,1.35-1.475,1.896
					c-0.797,0.683-1.779,1.285-2.848,1.748l-1.223-0.917c0.152-1.184,0.45-2.268,0.885-3.223c0.352-0.772,0.849-1.323,1.425-1.961
					l0.131-0.145l0.157-0.175l-0.164-0.168l-2.217-2.253l-0.164-0.168l-0.178,0.155l-0.154,0.135
					c-0.646,0.564-1.203,1.05-1.977,1.385c-0.968,0.417-2.084,0.703-3.236,0.83l-0.898-1.237c0.473-1.047,1.092-2.02,1.796-2.819
					c0.556-0.63,1.188-1.007,1.921-1.443l0.186-0.11l0.201-0.121l-0.108-0.209l-1.453-2.806l-0.108-0.209l-0.215,0.095L8.27,42.205
					c-0.784,0.35-1.462,0.651-2.301,0.743c-0.358,0.039-0.731,0.059-1.108,0.059c-0.735,0-1.485-0.074-2.23-0.22l-0.493-1.446
					c0.77-0.868,1.648-1.614,2.547-2.164c0.72-0.44,1.438-0.614,2.27-0.815l0.202-0.049l0.229-0.056l-0.042-0.231L6.78,34.917
					l-0.042-0.231l-0.233,0.027l-0.207,0.025c-0.505,0.061-0.982,0.118-1.457,0.118c-0.335,0-0.647-0.029-0.952-0.088
					c-1.04-0.202-2.124-0.594-3.144-1.137l-0.043-1.528c0.995-0.606,2.054-1.061,3.069-1.317c0.416-0.105,0.847-0.154,1.354-0.154
					c0.346,0,0.695,0.021,1.063,0.043l0.201,0.012l0.234,0.014l0.028-0.233l0.381-3.136l0.028-0.233l-0.23-0.043l-0.219-0.04
					c-0.838-0.153-1.561-0.285-2.3-0.678c-0.931-0.497-1.85-1.192-2.667-2.015l0.407-1.473c0.956-0.243,1.906-0.366,2.825-0.366
					c0.167,0,0.332,0.004,0.498,0.013c0.84,0.042,1.531,0.303,2.331,0.604l0.198,0.075l0.221,0.082l0.096-0.215l1.286-2.885
					l0.096-0.214l-0.208-0.109l-0.191-0.1c-0.756-0.394-1.408-0.733-2-1.329c-0.752-0.759-1.427-1.694-1.957-2.71l0.823-1.287
					c1.147,0.059,2.278,0.28,3.281,0.642c0.786,0.284,1.366,0.734,2.038,1.255l0.178,0.138l0.186,0.144l0.155-0.177l2.08-2.378
					l0.154-0.177l-0.167-0.166l-0.164-0.162c-0.603-0.595-1.123-1.109-1.509-1.85c-0.491-0.936-0.852-2.001-1.071-3.166l1.168-0.987
					c1.098,0.401,2.113,0.946,2.945,1.58c0.674,0.514,1.101,1.122,1.594,1.825l0.112,0.16l0.136,0.192l0.199-0.124l2.689-1.659
					l0.199-0.124l-0.11-0.207l-0.07-0.132c-0.202-0.378-0.403-0.757-0.601-1.122c-0.508-1.099-0.65-2.614-0.425-4.503l1.405-0.6
					c0.926,0.706,1.735,1.527,2.349,2.38c0.489,0.679,0.715,1.376,0.977,2.184l0.07,0.215l0.072,0.223l0.228-0.059l3.059-0.793
					l0.228-0.059l-0.045-0.231l-0.042-0.218c-0.165-0.834-0.307-1.555-0.208-2.386c0.126-1.066,0.437-2.176,0.898-3.22L29.578,0.692
					 M32.021,53.409c2.805,0,5.553-0.545,8.168-1.619c5.317-2.184,9.467-6.307,11.682-11.611c2.217-5.304,2.234-11.154,0.051-16.471
					c-3.331-8.11-11.148-13.351-19.916-13.351c-2.804,0-5.552,0.544-8.167,1.618C12.862,16.483,7.6,29.081,12.106,40.057
					C15.437,48.168,23.254,53.409,32.021,53.409 M29.696,0.428l-1.808,0.188c-0.491,1.074-0.839,2.252-0.978,3.424
					c-0.112,0.944,0.071,1.748,0.253,2.681l-3.059,0.793c-0.296-0.906-0.525-1.695-1.081-2.467c-0.69-0.96-1.569-1.814-2.517-2.521
					L18.837,3.24c-0.194,1.517-0.229,3.361,0.428,4.782c0.229,0.422,0.453,0.845,0.678,1.267l-2.688,1.659
					c-0.55-0.781-1.002-1.462-1.759-2.039c-0.939-0.717-2.036-1.273-3.148-1.666l-1.389,1.173c0.207,1.164,0.572,2.332,1.122,3.38
					c0.439,0.843,1.043,1.403,1.719,2.073l-2.08,2.378c-0.752-0.581-1.389-1.107-2.283-1.431c-1.112-0.401-2.317-0.616-3.499-0.663
					l-0.979,1.53c0.533,1.053,1.236,2.061,2.067,2.9c0.67,0.675,1.409,1.033,2.253,1.475l-1.286,2.885
					c-0.894-0.334-1.654-0.646-2.604-0.694c-0.17-0.009-0.34-0.013-0.511-0.013c-1.018,0-2.052,0.151-3.027,0.411l-0.484,1.75
					c0.822,0.847,1.787,1.606,2.828,2.163c0.84,0.447,1.654,0.571,2.591,0.744l-0.381,3.136c-0.447-0.026-0.865-0.056-1.278-0.056
					c-0.465,0-0.925,0.038-1.414,0.161c-1.145,0.289-2.263,0.797-3.263,1.422l0.051,1.816c1.036,0.567,2.182,1.006,3.342,1.231
					c0.346,0.067,0.675,0.092,1,0.092c0.554,0,1.098-0.074,1.693-0.145l0.562,3.109c-0.926,0.226-1.729,0.397-2.542,0.894
					c-1.009,0.617-1.926,1.428-2.7,2.321l0.586,1.719c0.787,0.164,1.607,0.253,2.421,0.253c0.382,0,0.761-0.02,1.136-0.061
					c0.943-0.103,1.686-0.458,2.557-0.844l1.453,2.806c-0.817,0.489-1.535,0.889-2.165,1.603c-0.779,0.886-1.422,1.933-1.896,3.015
					l1.068,1.47c1.175-0.116,2.366-0.396,3.452-0.864c0.873-0.377,1.478-0.935,2.196-1.561l2.216,2.253
					c-0.639,0.709-1.203,1.303-1.598,2.169c-0.49,1.077-0.784,2.266-0.923,3.439l1.453,1.091c1.089-0.457,2.149-1.077,3.046-1.844
					c0.724-0.619,1.135-1.329,1.638-2.138l2.781,1.5c-0.4,0.865-0.767,1.6-0.886,2.544c-0.148,1.172-0.084,2.398,0.131,3.559
					l1.71,0.614c0.908-0.755,1.736-1.663,2.367-2.661c0.509-0.805,0.693-1.604,0.937-2.526l3.099,0.613
					c-0.127,0.946-0.262,1.755-0.098,2.692c0.205,1.166,0.629,2.315,1.175,3.363l1.814,0.083c0.647-0.99,1.162-2.101,1.478-3.24
					c0.255-0.915,0.191-1.74,0.151-2.689l3.142-0.327c0.156,0.938,0.266,1.757,0.7,2.601c0.545,1.052,1.28,2.027,2.113,2.866
					l1.76-0.455c0.325-1.137,0.488-2.349,0.457-3.531c-0.027-0.949-0.332-1.72-0.651-2.614l2.908-1.24
					c0.426,0.851,0.771,1.601,1.435,2.279c0.831,0.844,1.82,1.561,2.866,2.116l1.546-0.953c-0.027-1.182-0.22-2.392-0.604-3.51
					c-0.308-0.899-0.822-1.543-1.392-2.306l2.412-2.042c0.661,0.691,1.208,1.296,2.043,1.756c1.035,0.568,2.204,0.955,3.36,1.177
					l1.196-1.367c-0.479-1.45-1.254-3.125-2.46-4.122c-0.388-0.281-0.772-0.565-1.16-0.847l1.703-2.661
					c0.835,0.462,1.537,0.884,2.471,1.074c0.709,0.145,1.444,0.211,2.178,0.211c0.464,0,0.927-0.026,1.381-0.076l0.741-1.659
					c-0.689-0.963-1.53-1.848-2.478-2.56c-0.759-0.57-1.552-0.812-2.447-1.122l0.843-3.044c0.761,0.161,1.437,0.323,2.177,0.323
					c0.163,0,0.33-0.008,0.501-0.025c1.177-0.122,2.353-0.451,3.439-0.92l0.219-1.804c-0.942-0.713-2.005-1.32-3.12-1.716
					c-0.897-0.317-1.72-0.319-2.673-0.35l-0.09-3.158c0.949-0.086,1.771-0.135,2.646-0.504c1.09-0.459,2.119-1.125,3.016-1.893
					l-0.322-1.788c-1.111-0.406-2.306-0.669-3.487-0.721c-0.069-0.003-0.139-0.004-0.206-0.004c-0.859,0-1.599,0.226-2.45,0.458
					l-1.018-2.99c0.883-0.362,1.648-0.652,2.381-1.262c0.906-0.756,1.691-1.701,2.322-2.698l-0.834-1.614
					c-0.214-0.011-0.431-0.016-0.646-0.016c-0.976,0-1.962,0.11-2.901,0.357c-0.918,0.241-1.599,0.705-2.402,1.215l-1.854-2.558
					c0.733-0.604,1.388-1.107,1.901-1.907c0.641-0.992,1.121-2.123,1.426-3.263L53.966,9.15c-1.147,0.292-2.28,0.746-3.289,1.371
					c-0.807,0.5-1.32,1.146-1.938,1.869l-2.525-1.897l0.784-1.189c0.795-1.353,0.925-3.204,0.871-4.732L46.27,3.708
					c-1.011,0.616-1.959,1.387-2.736,2.278c-0.625,0.716-0.926,1.485-1.302,2.358l-2.975-1.068c0.269-0.916,0.521-1.695,0.498-2.647
					c-0.027-1.181-0.271-2.384-0.66-3.5l-1.782-0.353c-0.782,0.884-1.468,1.901-1.944,2.984c-0.383,0.872-0.446,1.688-0.55,2.637
					l-3.154-0.145c-0.016-0.952,0.001-1.777-0.307-2.676C30.98,2.457,30.396,1.382,29.696,0.428L29.696,0.428z M32.021,53.159
					c-8.37,0-16.308-4.974-19.684-13.196c-4.462-10.866,0.729-23.293,11.596-27.756c2.645-1.086,5.38-1.6,8.072-1.6
					c8.37,0,16.308,4.974,19.685,13.196c4.463,10.867-0.729,23.293-11.596,27.755C37.45,52.644,34.714,53.159,32.021,53.159
					L32.021,53.159z"/>
			</g>
			<circle fill="#B7B053" stroke="#272525" stroke-width="0.25" stroke-miterlimit="10" cx="32" cy="31.858" r="6.992"/>
		</g>
		<path fill="#B7B053" stroke="#272525" stroke-width="0.25" stroke-miterlimit="10" d="M59.894,37.583
			c1.177-0.122,2.353-0.451,3.439-0.92l0.219-1.804c-0.942-0.713-2.005-1.32-3.12-1.716c-0.897-0.317-1.72-0.319-2.673-0.35
			l-0.09-3.158c0.949-0.086,1.771-0.135,2.646-0.504c1.09-0.459,2.119-1.125,3.016-1.893l-0.322-1.788
			c-1.111-0.406-2.306-0.669-3.487-0.721c-0.949-0.04-1.737,0.203-2.656,0.453l-1.018-2.99c0.883-0.362,1.648-0.652,2.381-1.262
			c0.906-0.756,1.691-1.701,2.322-2.698l-0.834-1.614c-1.182-0.058-2.4,0.04-3.548,0.341c-0.918,0.241-1.599,0.705-2.402,1.215
			l-1.854-2.558c0.733-0.604,1.388-1.107,1.901-1.907c0.641-0.992,1.121-2.123,1.426-3.263L53.966,9.15
			c-1.147,0.292-2.28,0.746-3.289,1.371c-0.807,0.5-1.32,1.146-1.938,1.869l-2.525-1.897l0.784-1.189
			c0.795-1.353,0.925-3.204,0.871-4.732L46.27,3.708c-1.011,0.616-1.959,1.387-2.736,2.278c-0.625,0.716-0.926,1.485-1.302,2.358
			l-2.975-1.068c0.269-0.916,0.521-1.695,0.498-2.647c-0.027-1.181-0.271-2.384-0.66-3.5l-1.782-0.353
			c-0.782,0.884-1.468,1.901-1.944,2.984c-0.383,0.872-0.446,1.688-0.55,2.637l-3.154-0.145c-0.016-0.952,0.001-1.777-0.307-2.676
			c-0.377-1.121-0.962-2.196-1.661-3.149l-1.808,0.188c-0.491,1.074-0.839,2.252-0.978,3.424c-0.112,0.944,0.071,1.748,0.253,2.681
			l-3.059,0.793c-0.296-0.906-0.525-1.695-1.081-2.467c-0.69-0.96-1.569-1.814-2.517-2.521L18.837,3.24
			c-0.194,1.517-0.229,3.361,0.428,4.782c0.229,0.422,0.453,0.845,0.678,1.267l-2.688,1.659c-0.55-0.781-1.002-1.462-1.759-2.039
			c-0.939-0.717-2.036-1.273-3.148-1.666l-1.389,1.173c0.207,1.164,0.572,2.332,1.122,3.38c0.439,0.843,1.043,1.403,1.719,2.073
			l-2.08,2.378c-0.752-0.581-1.389-1.107-2.283-1.431c-1.112-0.401-2.317-0.616-3.499-0.663l-0.979,1.53
			c0.533,1.053,1.236,2.061,2.067,2.9c0.67,0.675,1.409,1.033,2.253,1.475l-1.286,2.885c-0.894-0.334-1.654-0.646-2.604-0.694
			c-1.179-0.061-2.398,0.094-3.538,0.397l-0.484,1.75c0.822,0.847,1.787,1.606,2.828,2.163c0.84,0.447,1.654,0.571,2.591,0.744
			l-0.381,3.136c-0.951-0.056-1.769-0.128-2.692,0.105c-1.145,0.289-2.263,0.797-3.263,1.422l0.051,1.816
			c1.036,0.567,2.182,1.006,3.342,1.231c0.935,0.181,1.748,0.06,2.693-0.052l0.562,3.109c-0.926,0.226-1.729,0.397-2.542,0.894
			c-1.009,0.617-1.926,1.428-2.7,2.321l0.586,1.719c1.155,0.24,2.382,0.32,3.557,0.192c0.943-0.103,1.686-0.458,2.557-0.844
			l1.453,2.806c-0.817,0.489-1.535,0.889-2.165,1.603c-0.779,0.886-1.422,1.933-1.896,3.015l1.068,1.47
			c1.175-0.116,2.366-0.396,3.452-0.864c0.873-0.377,1.478-0.935,2.196-1.561l2.216,2.253c-0.639,0.709-1.203,1.303-1.598,2.169
			c-0.49,1.077-0.784,2.266-0.923,3.439l1.453,1.091c1.089-0.457,2.149-1.077,3.046-1.844c0.724-0.619,1.135-1.329,1.638-2.138
			l2.781,1.5c-0.4,0.865-0.767,1.6-0.886,2.544c-0.148,1.172-0.084,2.398,0.131,3.559l1.71,0.614
			c0.908-0.755,1.736-1.663,2.367-2.661c0.509-0.805,0.693-1.604,0.937-2.526l3.099,0.613c-0.127,0.946-0.262,1.755-0.098,2.692
			c0.205,1.166,0.629,2.315,1.175,3.363l1.814,0.083c0.647-0.99,1.162-2.101,1.478-3.24c0.255-0.915,0.191-1.74,0.151-2.689
			l3.142-0.327c0.156,0.938,0.266,1.757,0.7,2.601c0.545,1.052,1.28,2.027,2.113,2.866l1.76-0.455
			c0.325-1.137,0.488-2.349,0.457-3.531c-0.027-0.949-0.332-1.72-0.651-2.614l2.908-1.24c0.426,0.851,0.771,1.601,1.435,2.279
			c0.831,0.844,1.82,1.561,2.866,2.116l1.546-0.953c-0.027-1.182-0.22-2.392-0.604-3.51c-0.308-0.899-0.822-1.543-1.392-2.306
			l2.412-2.042c0.661,0.691,1.208,1.296,2.043,1.756c1.035,0.568,2.204,0.955,3.36,1.177l1.196-1.367
			c-0.479-1.45-1.254-3.125-2.46-4.122c-0.388-0.281-0.772-0.565-1.16-0.847l1.703-2.661c0.835,0.462,1.537,0.884,2.471,1.074
			c1.156,0.236,2.386,0.264,3.559,0.135l0.741-1.659c-0.689-0.963-1.53-1.848-2.478-2.56c-0.759-0.57-1.552-0.812-2.447-1.122
			l0.843-3.044C58.145,37.482,58.947,37.681,59.894,37.583z M51.689,23.801l-14.125,3.836c-0.824-1.085-1.956-1.92-3.27-2.377
			l-0.716-14.572C41.355,11.269,48.525,16.098,51.689,23.801z M23.934,12.207c2.127-0.873,4.313-1.365,6.488-1.528L29.705,25.26
			c-1.313,0.457-2.445,1.292-3.271,2.378l-14.096-3.82C14.422,18.737,18.453,14.458,23.934,12.207z M12.338,39.962
			c-1.779-4.334-2.002-8.91-0.962-13.136l13.64,5.179c0.029,1.429,0.485,2.75,1.248,3.845l-8.002,12.244
			C15.744,45.962,13.678,43.225,12.338,39.962z M40.095,51.558c-6.56,2.694-13.677,1.851-19.277-1.615l9.16-11.393
			c0.641,0.193,1.319,0.3,2.022,0.3c0.704,0,1.383-0.106,2.024-0.3l9.175,11.399C42.219,50.554,41.194,51.106,40.095,51.558z
			 M45.759,48.11l-8.021-12.261c0.763-1.095,1.218-2.417,1.247-3.846l13.662-5.195C54.6,34.715,51.834,42.966,45.759,48.11z"/>
		<circle fill="#B7B053" stroke="#272525" stroke-width="0.25" stroke-miterlimit="10" cx="32" cy="31.858" r="4.5"/>
		<g display="none">
			<g display="inline">
				<polyline fill="#B7B053" stroke="#272525" stroke-width="0.25" stroke-miterlimit="10" points="13.744,25.037 13.535,25.613 
					13.344,26.19 13.175,26.777 13.026,27.373 				"/>
				
					<line fill="#B7B053" stroke="#272525" stroke-width="0.25" stroke-miterlimit="10" x1="14.52" y1="26.555" x2="12.179" y2="25.831"/>
				<polyline fill="#B7B053" stroke="#272525" stroke-width="0.25" stroke-miterlimit="10" points="12.602,24.596 12.962,25.412 
					13.344,26.19 13.771,26.943 14.216,27.661 				"/>
				<polyline fill="#B7B053" stroke="#272525" stroke-width="0.25" stroke-miterlimit="10" points="14.893,25.466 14.117,25.812 
					13.344,26.19 12.583,26.619 11.832,27.088 				"/>
				<polyline fill="#B7B053" stroke="#272525" stroke-width="0.25" stroke-miterlimit="10" points="13.1,23.402 12.826,22.542 
					13.127,21.947 13.446,21.36 14.313,21.103 14.838,21.423 15.041,22.266 15.874,22.058 16.397,22.378 16.645,23.177 
					16.372,23.664 16.121,24.158 15.329,24.403 				"/>
				
					<line fill="#B7B053" stroke="#272525" stroke-width="0.25" stroke-miterlimit="10" x1="14.753" y1="22.804" x2="15.041" y2="22.266"/>
				<polyline fill="#B7B053" stroke="#272525" stroke-width="0.25" stroke-miterlimit="10" points="18.625,15.274 20.933,18.135 
					19.899,17.792 18.845,17.502 17.768,17.268 16.649,17.084 19.29,19.63 				"/>
				<polyline fill="#B7B053" stroke="#272525" stroke-width="0.25" stroke-miterlimit="10" points="22.55,14.145 21.997,14.451 
					21.452,14.774 20.924,15.116 20.4,15.473 				"/>
				<polyline fill="#B7B053" stroke="#272525" stroke-width="0.25" stroke-miterlimit="10" points="23.124,15.219 22.602,15.514 
					22.093,15.813 21.599,16.131 21.104,16.468 				"/>
				<polyline fill="#B7B053" stroke="#272525" stroke-width="0.25" stroke-miterlimit="10" points="26.768,15.017 26.239,15.188 
					25.714,15.387 25.201,15.588 24.695,15.813 24.184,14.695 24.495,13.889 25.063,13.666 25.637,13.456 26.03,12.68 
					25.852,12.093 25.031,11.725 24.404,11.956 23.784,12.202 23.426,13.027 				"/>
				<polyline fill="#B7B053" stroke="#272525" stroke-width="0.25" stroke-miterlimit="10" points="27.103,11.749 27.608,11.005 
					28.377,14.597 				"/>
				<polyline fill="#B7B053" stroke="#272525" stroke-width="0.25" stroke-miterlimit="10" points="28.922,14.488 28.377,14.597 
					27.831,14.722 				"/>
				<polyline fill="#B7B053" stroke="#272525" stroke-width="0.25" stroke-miterlimit="10" points="32.858,12.39 33.47,12.424 
					34.08,12.478 34.688,12.548 35.396,12.035 35.497,11.432 34.931,10.728 34.269,10.652 33.599,10.588 32.931,10.55 
					32.781,14.223 				"/>
				
					<line fill="#B7B053" stroke="#272525" stroke-width="0.25" stroke-miterlimit="10" x1="36.078" y1="14.671" x2="36.631" y2="12.286"/>
				
					<line fill="#B7B053" stroke="#272525" stroke-width="0.25" stroke-miterlimit="10" x1="36.767" y1="11.686" x2="36.909" y2="11.092"/>
				<polyline fill="#B7B053" stroke="#272525" stroke-width="0.25" stroke-miterlimit="10" points="39.479,15.155 38.721,15.502 
					38.411,14.729 39.47,11.86 				"/>
				<polyline fill="#B7B053" stroke="#272525" stroke-width="0.25" stroke-miterlimit="10" points="40.216,13.479 39.643,13.233 
					39.049,13.004 38.454,12.793 37.85,12.605 				"/>
				<polyline fill="#B7B053" stroke="#272525" stroke-width="0.25" stroke-miterlimit="10" points="42.13,17.339 41.673,17.028 
					41.197,16.741 40.716,16.458 40.513,15.658 41.074,14.572 41.917,14.324 42.458,14.637 42.993,14.969 43.522,15.323 				"/>
				<polyline fill="#B7B053" stroke="#272525" stroke-width="0.25" stroke-miterlimit="10" points="43.78,17.035 44.631,16.936 
					45.508,16.879 45.968,17.306 45.99,18.18 44.683,19.474 				"/>
				
					<line fill="#B7B053" stroke="#272525" stroke-width="0.25" stroke-miterlimit="10" x1="43.025" y1="17.997" x2="45.296" y2="15.104"/>
				<polyline fill="#B7B053" stroke="#272525" stroke-width="0.25" stroke-miterlimit="10" points="47.09,22.507 47.379,22.977 
					47.65,23.462 47.907,23.955 48.71,24.196 50.925,23.161 51.185,22.297 50.877,21.701 50.55,21.121 50.2,20.552 				"/>
				
					<line fill="#B7B053" stroke="#272525" stroke-width="0.25" stroke-miterlimit="10" x1="50.55" y1="21.121" x2="47.379" y2="22.977"/>
				<polyline fill="#B7B053" stroke="#272525" stroke-width="0.25" stroke-miterlimit="10" points="51.644,26.977 51.474,26.369 
					51.288,25.767 51.091,25.171 50.87,24.575 				"/>
				<polyline fill="#B7B053" stroke="#272525" stroke-width="0.25" stroke-miterlimit="10" points="50.457,27.277 50.304,26.707 
					50.124,26.147 49.938,25.582 49.727,25.026 				"/>
				<polyline fill="#B7B053" stroke="#272525" stroke-width="0.25" stroke-miterlimit="10" points="50.35,30.254 49.683,29.762 
					49.602,29.215 50.106,28.552 52.515,28.1 53.228,28.645 53.323,29.31 52.79,30.028 50.35,30.254 				"/>
				
					<line fill="#B7B053" stroke="#272525" stroke-width="0.25" stroke-miterlimit="10" x1="50.42" y1="31.403" x2="49.813" y2="31.42"/>
				<polyline fill="#B7B053" stroke="#272525" stroke-width="0.25" stroke-miterlimit="10" points="53.479,32.643 53.444,33.317 
					53.389,33.982 53.323,34.651 53.221,35.317 51.498,34.419 49.732,33.637 				"/>
				<polyline fill="#B7B053" stroke="#272525" stroke-width="0.25" stroke-miterlimit="10" points="50.286,39.152 50.053,39.712 
					49.8,40.271 49.529,40.828 49.782,41.661 50.322,41.956 51.171,41.653 51.458,41.053 51.732,40.44 51.99,39.827 48.571,38.475 
									"/>
				<polyline fill="#B7B053" stroke="#272525" stroke-width="0.25" stroke-miterlimit="10" points="47.663,44.795 48.055,44.295 
					48.437,43.792 48.798,43.277 49.139,42.745 				"/>
				<polyline fill="#B7B053" stroke="#272525" stroke-width="0.25" stroke-miterlimit="10" points="46.719,44.015 47.089,43.551 
					47.446,43.074 47.781,42.588 48.104,42.091 				"/>
				<polyline fill="#B7B053" stroke="#272525" stroke-width="0.25" stroke-miterlimit="10" points="47.276,46.158 47.262,47.056 
					46.788,47.527 46.288,47.981 45.388,47.941 45.001,47.476 45.068,46.6 44.212,46.534 43.821,46.061 43.847,45.23 44.264,44.854 
					44.656,44.469 45.485,44.486 				"/>
				
					<line fill="#B7B053" stroke="#272525" stroke-width="0.25" stroke-miterlimit="10" x1="45.525" y1="46.189" x2="45.068" y2="46.6"/>
				<polyline fill="#B7B053" stroke="#272525" stroke-width="0.25" stroke-miterlimit="10" points="41.483,47.726 41.644,46.902 
					42.107,46.595 42.919,46.771 44.363,48.745 44.18,49.623 43.62,49.997 42.737,49.823 41.483,47.726 				"/>
				<polyline fill="#B7B053" stroke="#272525" stroke-width="0.25" stroke-miterlimit="10" points="38.222,50.554 37.635,50.732 
					37.053,50.899 36.455,51.048 35.976,51.771 36.097,52.372 36.868,52.839 37.517,52.68 38.163,52.496 38.803,52.294 
					37.649,48.81 				"/>
				<polyline fill="#B7B053" stroke="#272525" stroke-width="0.25" stroke-miterlimit="10" points="34.404,49.553 34.574,50.768 
					34.104,52.057 33.559,53.333 32.844,52.138 32.206,50.929 32.196,49.711 				"/>
				<polyline fill="#B7B053" stroke="#272525" stroke-width="0.25" stroke-miterlimit="10" points="34.574,50.768 33.978,50.835 
					33.392,50.888 32.798,50.917 32.206,50.929 				"/>
				<polyline fill="#B7B053" stroke="#272525" stroke-width="0.25" stroke-miterlimit="10" points="28.447,51.831 29.068,51.932 
					29.691,52.015 30.322,52.076 30.951,52.131 				"/>
				<polyline fill="#B7B053" stroke="#272525" stroke-width="0.25" stroke-miterlimit="10" points="28.666,50.626 29.252,50.724 
					29.836,50.805 30.432,50.864 31.021,50.908 				"/>
				<polyline fill="#B7B053" stroke="#272525" stroke-width="0.25" stroke-miterlimit="10" points="25.689,48.522 26.204,48.712 
					26.73,48.888 27.268,49.042 27.8,49.19 27.505,50.38 26.767,50.817 26.183,50.637 25.599,50.45 24.806,50.803 24.587,51.374 
					24.996,52.177 25.629,52.39 26.269,52.583 27.064,52.157 				"/>
				<polyline fill="#B7B053" stroke="#272525" stroke-width="0.25" stroke-miterlimit="10" points="22.883,47.855 23.668,47.596 
					24.167,47.855 24.411,48.646 23.393,50.875 22.528,51.14 21.93,50.833 21.658,49.973 22.883,47.855 				"/>
			</g>
		</g>
		<g display="none">
			
				<line display="inline" fill="none" stroke="#272525" stroke-width="0.25" stroke-miterlimit="10" x1="32" y1="22.895" x2="32" y2="40.822"/>
			
				<line display="inline" fill="none" stroke="#272525" stroke-width="0.25" stroke-miterlimit="10" x1="40.963" y1="31.858" x2="23.035" y2="31.858"/>
			
				<circle display="inline" fill="#272525" stroke="#272525" stroke-width="0.25" stroke-miterlimit="10" cx="32" cy="22.895" r="1.262"/>
		</g>
	</g>
</g>
</svg>
